<svg width="1218" height="1079" viewBox="0 0 1218 1079" fill="none" xmlns="http://www.w3.org/2000/svg">
<path fill-rule="evenodd" clip-rule="evenodd" d="M1057.86 765.4C1027.77 828.751 985.011 858.566 905.965 878.633C828.26 898.361 751.36 840.687 665.27 832.854C588.546 825.872 420.228 891.314 354.568 849.256C286.464 805.634 385.87 748.747 355.114 678.209C334.774 616.909 268 508.5 268 508.5C268 508.5 120.047 318.318 179.294 266.343C240.792 212.394 393.732 307.589 483.541 288.006C572.291 268.653 604.544 128.681 697.546 164.114C797.148 202.061 696.392 363.21 772.863 431.546C846.648 497.482 1034.96 443.104 1093.54 517.981C1147.13 586.476 1089.28 699.27 1057.86 765.4Z" fill="url(#paint0_linear_2645_392)"/>
<path d="M750.026 819.138L741.738 817.282C741.145 817.151 740.526 817.156 739.935 817.297C739.344 817.438 738.798 817.71 738.345 818.09L732.022 823.417C731.499 823.854 730.856 824.145 730.165 824.26C729.474 824.374 728.762 824.306 728.11 824.063C727.458 823.821 726.892 823.413 726.475 822.887C726.057 822.361 725.806 821.736 725.748 821.084L725.065 813.116C725.017 812.55 724.822 812.004 724.497 811.524C724.171 811.044 723.725 810.645 723.197 810.362L715.874 806.389C715.268 806.06 714.772 805.58 714.442 805.003C714.113 804.425 713.962 803.774 714.008 803.121C714.054 802.468 714.293 801.84 714.701 801.308C715.108 800.775 715.666 800.359 716.313 800.106L724.174 797.067C724.739 796.849 725.238 796.506 725.63 796.068C726.021 795.63 726.292 795.109 726.42 794.552L728.177 786.778C728.325 786.138 728.661 785.549 729.147 785.078C729.633 784.607 730.251 784.271 730.931 784.109C731.61 783.947 732.325 783.965 732.995 784.161C733.664 784.357 734.261 784.723 734.72 785.218L740.261 791.262C740.66 791.693 741.165 792.027 741.732 792.238C742.3 792.448 742.913 792.527 743.52 792.469L751.991 791.627C752.691 791.556 753.397 791.671 754.03 791.957C754.664 792.242 755.198 792.688 755.573 793.243C755.948 793.798 756.149 794.44 756.152 795.096C756.156 795.752 755.961 796.395 755.592 796.953L751.149 803.726C750.835 804.214 750.651 804.766 750.613 805.334C750.575 805.903 750.683 806.471 750.929 806.993L754.396 814.243C754.7 814.848 754.813 815.522 754.721 816.184C754.629 816.847 754.337 817.472 753.879 817.985C753.42 818.499 752.814 818.88 752.132 819.084C751.45 819.288 750.719 819.307 750.026 819.138Z" fill="#E0CEDD"/>
<path d="M1130.03 574.138L1121.74 572.282C1121.14 572.151 1120.53 572.156 1119.94 572.297C1119.34 572.438 1118.8 572.71 1118.35 573.09L1112.02 578.417C1111.5 578.854 1110.86 579.145 1110.17 579.26C1109.47 579.374 1108.76 579.306 1108.11 579.063C1107.46 578.821 1106.89 578.413 1106.47 577.887C1106.06 577.361 1105.81 576.736 1105.75 576.084L1105.07 568.116C1105.02 567.55 1104.82 567.004 1104.5 566.524C1104.17 566.044 1103.73 565.645 1103.2 565.362L1095.87 561.389C1095.27 561.06 1094.77 560.58 1094.44 560.003C1094.11 559.425 1093.96 558.774 1094.01 558.121C1094.05 557.468 1094.29 556.84 1094.7 556.308C1095.11 555.775 1095.67 555.359 1096.31 555.106L1104.17 552.067C1104.74 551.849 1105.24 551.506 1105.63 551.068C1106.02 550.63 1106.29 550.109 1106.42 549.552L1108.18 541.778C1108.33 541.138 1108.66 540.549 1109.15 540.078C1109.63 539.607 1110.25 539.271 1110.93 539.109C1111.61 538.947 1112.33 538.965 1112.99 539.161C1113.66 539.357 1114.26 539.723 1114.72 540.218L1120.26 546.262C1120.66 546.693 1121.17 547.027 1121.73 547.238C1122.3 547.448 1122.91 547.527 1123.52 547.469L1131.99 546.627C1132.69 546.556 1133.4 546.671 1134.03 546.957C1134.66 547.242 1135.2 547.688 1135.57 548.243C1135.95 548.798 1136.15 549.44 1136.15 550.096C1136.16 550.752 1135.96 551.395 1135.59 551.953L1131.15 558.726C1130.84 559.214 1130.65 559.766 1130.61 560.334C1130.58 560.903 1130.68 561.471 1130.93 561.993L1134.4 569.243C1134.7 569.848 1134.81 570.522 1134.72 571.184C1134.63 571.847 1134.34 572.472 1133.88 572.985C1133.42 573.499 1132.81 573.88 1132.13 574.084C1131.45 574.288 1130.72 574.307 1130.03 574.138Z" fill="#E0CEDD"/>
<path d="M411.58 811.16C415.766 811.16 419.16 807.766 419.16 803.58C419.16 799.393 415.766 796 411.58 796C407.394 796 404 799.393 404 803.58C404 807.766 407.394 811.16 411.58 811.16Z" fill="white"/>
<path d="M206.58 324.16C210.766 324.16 214.16 320.766 214.16 316.58C214.16 312.393 210.766 309 206.58 309C202.394 309 199 312.393 199 316.58C199 320.766 202.394 324.16 206.58 324.16Z" fill="white"/>
<path d="M605.58 297.16C609.766 297.16 613.16 293.766 613.16 289.58C613.16 285.393 609.766 282 605.58 282C601.394 282 598 285.393 598 289.58C598 293.766 601.394 297.16 605.58 297.16Z" fill="white"/>
<path d="M300.324 380.913L288.991 370.926C288.18 370.209 287.226 369.711 286.212 369.475C285.198 369.239 284.155 369.272 283.173 369.57L269.458 373.729C268.328 374.073 267.12 374.063 265.972 373.702C264.824 373.341 263.781 372.643 262.962 371.686C262.142 370.73 261.579 369.554 261.335 368.291C261.091 367.027 261.177 365.728 261.583 364.538L266.48 350.098C266.832 349.065 266.944 347.946 266.805 346.838C266.665 345.73 266.279 344.666 265.681 343.738L257.341 330.769C256.654 329.699 256.25 328.453 256.176 327.172C256.102 325.89 256.359 324.624 256.92 323.516C257.48 322.408 258.322 321.503 259.349 320.901C260.376 320.3 261.547 320.027 262.732 320.114L277.101 321.188C278.13 321.263 279.151 321.067 280.078 320.618C281.005 320.169 281.81 319.48 282.424 318.61L290.979 306.434C291.686 305.432 292.644 304.674 293.747 304.244C294.849 303.814 296.051 303.731 297.217 304.003C298.383 304.275 299.466 304.892 300.345 305.784C301.224 306.676 301.864 307.807 302.191 309.051L306.144 324.167C306.427 325.248 306.947 326.247 307.658 327.078C308.369 327.909 309.25 328.548 310.226 328.939L323.859 334.386C324.983 334.834 325.979 335.61 326.735 336.625C327.491 337.641 327.976 338.855 328.136 340.13C328.296 341.406 328.123 342.693 327.639 343.844C327.154 344.996 326.377 345.966 325.394 346.646L313.476 354.901C312.622 355.492 311.922 356.304 311.435 357.266C310.948 358.229 310.688 359.313 310.679 360.426L310.529 375.965C310.506 377.233 310.159 378.458 309.526 379.503C308.892 380.549 307.997 381.373 306.94 381.886C305.883 382.399 304.705 382.579 303.537 382.407C302.369 382.235 301.257 381.718 300.324 380.913Z" fill="#FF90BF"/>
<path d="M1056.33 763.434L1050.96 758.948C1050.58 758.626 1050.12 758.406 1049.64 758.306C1049.15 758.205 1048.65 758.229 1048.18 758.374L1041.57 760.39C1041.02 760.557 1040.44 760.562 1039.89 760.406C1039.35 760.25 1038.85 759.938 1038.46 759.506C1038.08 759.075 1037.81 758.54 1037.71 757.963C1037.6 757.386 1037.65 756.79 1037.85 756.241L1040.3 749.583C1040.48 749.107 1040.54 748.593 1040.48 748.087C1040.42 747.58 1040.24 747.095 1039.96 746.675L1036.05 740.798C1035.73 740.313 1035.54 739.745 1035.52 739.159C1035.49 738.572 1035.62 737.99 1035.9 737.477C1036.18 736.965 1036.59 736.543 1037.08 736.259C1037.58 735.975 1038.14 735.841 1038.71 735.871L1045.6 736.248C1046.09 736.273 1046.59 736.176 1047.03 735.962C1047.48 735.749 1047.87 735.427 1048.17 735.023L1052.36 729.374C1052.71 728.909 1053.18 728.553 1053.71 728.347C1054.24 728.142 1054.82 728.094 1055.37 728.209C1055.93 728.324 1056.45 728.598 1056.86 729C1057.28 729.402 1057.58 729.915 1057.73 730.482L1059.52 737.379C1059.65 737.872 1059.89 738.325 1060.23 738.701C1060.56 739.076 1060.98 739.362 1061.45 739.533L1067.95 741.92C1068.49 742.116 1068.96 742.464 1069.32 742.923C1069.67 743.382 1069.9 743.935 1069.96 744.518C1070.03 745.101 1069.94 745.692 1069.7 746.224C1069.46 746.756 1069.08 747.207 1068.6 747.527L1062.82 751.406C1062.41 751.684 1062.07 752.061 1061.83 752.507C1061.59 752.952 1061.46 753.451 1061.44 753.961L1061.26 761.084C1061.24 761.666 1061.07 762.23 1060.76 762.714C1060.45 763.198 1060.01 763.583 1059.5 763.827C1058.99 764.07 1058.42 764.162 1057.86 764.093C1057.3 764.024 1056.77 763.796 1056.33 763.434Z" fill="#FF90BF"/>
<path d="M676.331 244.434L670.961 239.948C670.577 239.626 670.122 239.406 669.637 239.306C669.153 239.205 668.652 239.229 668.178 239.374L661.567 241.39C661.022 241.557 660.442 241.562 659.894 241.406C659.345 241.25 658.85 240.938 658.463 240.506C658.076 240.075 657.814 239.54 657.706 238.963C657.598 238.386 657.648 237.79 657.851 237.241L660.302 230.583C660.478 230.107 660.539 229.593 660.48 229.087C660.421 228.58 660.243 228.095 659.962 227.675L656.05 221.798C655.728 221.313 655.543 220.745 655.516 220.159C655.489 219.572 655.622 218.99 655.898 218.477C656.175 217.965 656.585 217.543 657.082 217.259C657.579 216.975 658.144 216.841 658.711 216.871L665.601 217.248C666.094 217.273 666.585 217.176 667.033 216.962C667.481 216.749 667.872 216.427 668.173 216.023L672.364 210.374C672.71 209.909 673.175 209.553 673.707 209.347C674.239 209.142 674.817 209.094 675.375 209.209C675.932 209.324 676.448 209.598 676.864 210C677.279 210.402 677.578 210.915 677.727 211.482L679.519 218.379C679.647 218.872 679.89 219.325 680.225 219.701C680.561 220.076 680.979 220.362 681.445 220.533L687.95 222.92C688.487 223.116 688.959 223.464 689.315 223.923C689.671 224.382 689.895 224.935 689.963 225.518C690.031 226.101 689.939 226.692 689.699 227.224C689.458 227.756 689.078 228.207 688.602 228.527L682.824 232.406C682.41 232.684 682.069 233.061 681.828 233.507C681.588 233.952 681.456 234.451 681.443 234.961L681.263 242.084C681.244 242.666 681.069 243.23 680.757 243.714C680.446 244.198 680.011 244.583 679.5 244.827C678.989 245.07 678.422 245.162 677.863 245.093C677.303 245.024 676.773 244.796 676.331 244.434Z" fill="#FF90BF"/>
<defs>
<linearGradient id="paint0_linear_2645_392" x1="1078.99" y1="722.972" x2="312" y2="115.5" gradientUnits="userSpaceOnUse">
<stop offset="0.49582" stop-color="#1B3778"/>
<stop offset="1" stop-color="#3266DE"/>
</linearGradient>
</defs>
</svg>
