<svg width="1304" height="1446" viewBox="0 0 1304 1446" fill="none" xmlns="http://www.w3.org/2000/svg">
<path fill-rule="evenodd" clip-rule="evenodd" d="M1187.82 386.258C1233.57 453.444 1290.93 535.747 1266.03 625.377C1241.55 713.487 1124.58 760.593 1068.02 840.589C1017.62 911.883 1060.98 1089.88 982.076 1129.48C900.232 1170.55 790.288 992.922 706.338 993.414C645.577 1060.66 537.68 1088.34 461.564 1092.11C366.282 1096.83 261.517 1083.73 243.567 994.628C224.935 902.142 388.629 789.791 420.112 689.865C451.224 591.117 303.905 466.183 391.741 395.77C485.809 320.36 561.078 425.113 682.272 414.745C789.457 381.33 886.388 239.744 993.818 226.588C1092.09 214.553 1140.06 316.124 1187.82 386.258Z" fill="#2D4888"/>
<path d="M943.026 1034.14L934.738 1032.28C934.145 1032.15 933.526 1032.16 932.935 1032.3C932.344 1032.44 931.798 1032.71 931.345 1033.09L925.022 1038.42C924.499 1038.85 923.856 1039.15 923.165 1039.26C922.474 1039.37 921.762 1039.31 921.11 1039.06C920.458 1038.82 919.892 1038.41 919.475 1037.89C919.057 1037.36 918.806 1036.74 918.748 1036.08L918.065 1028.12C918.017 1027.55 917.822 1027 917.497 1026.52C917.171 1026.04 916.725 1025.65 916.197 1025.36L908.874 1021.39C908.268 1021.06 907.772 1020.58 907.442 1020C907.113 1019.43 906.962 1018.77 907.008 1018.12C907.054 1017.47 907.293 1016.84 907.701 1016.31C908.108 1015.78 908.666 1015.36 909.313 1015.11L917.174 1012.07C917.739 1011.85 918.238 1011.51 918.63 1011.07C919.021 1010.63 919.292 1010.11 919.42 1009.55L921.177 1001.78C921.325 1001.14 921.661 1000.55 922.147 1000.08C922.633 999.607 923.251 999.272 923.931 999.11C924.61 998.948 925.325 998.966 925.995 999.161C926.664 999.357 927.261 999.724 927.72 1000.22L933.261 1006.26C933.66 1006.69 934.165 1007.03 934.732 1007.24C935.3 1007.45 935.913 1007.53 936.52 1007.47L944.991 1006.63C945.691 1006.56 946.397 1006.67 947.03 1006.96C947.664 1007.24 948.198 1007.69 948.573 1008.24C948.948 1008.8 949.149 1009.44 949.152 1010.1C949.156 1010.75 948.961 1011.4 948.592 1011.95L944.149 1018.73C943.835 1019.21 943.651 1019.77 943.613 1020.33C943.575 1020.9 943.683 1021.47 943.929 1021.99L947.396 1029.24C947.7 1029.85 947.813 1030.52 947.721 1031.18C947.629 1031.85 947.337 1032.47 946.879 1032.99C946.42 1033.5 945.814 1033.88 945.132 1034.08C944.45 1034.29 943.719 1034.31 943.026 1034.14Z" fill="#E0CEDD"/>
<path d="M443.58 1021.16C447.766 1021.16 451.16 1017.77 451.16 1013.58C451.16 1009.39 447.766 1006 443.58 1006C439.394 1006 436 1009.39 436 1013.58C436 1017.77 439.394 1021.16 443.58 1021.16Z" fill="white"/>
<path d="M964.58 391.16C968.766 391.16 972.16 387.766 972.16 383.58C972.16 379.394 968.766 376 964.58 376C960.394 376 957 379.394 957 383.58C957 387.766 960.394 391.16 964.58 391.16Z" fill="white"/>
<path d="M431.493 448.645L425.153 447.135C424.702 447.028 424.231 447.032 423.782 447.147C423.332 447.262 422.918 447.484 422.573 447.795L417.763 452.135C417.367 452.494 416.878 452.734 416.351 452.829C415.825 452.924 415.283 452.869 414.786 452.671C414.29 452.473 413.858 452.14 413.541 451.71C413.224 451.279 413.035 450.768 412.993 450.235L412.473 443.775C412.437 443.313 412.288 442.867 412.041 442.475C411.793 442.083 411.455 441.757 411.053 441.525L405.433 438.285C404.971 438.019 404.592 437.628 404.339 437.158C404.087 436.687 403.972 436.155 404.006 435.623C404.04 435.09 404.223 434.577 404.534 434.143C404.844 433.709 405.27 433.37 405.763 433.165L411.763 430.675C412.192 430.498 412.571 430.218 412.867 429.861C413.164 429.504 413.368 429.08 413.463 428.625L414.803 422.285C414.913 421.759 415.168 421.274 415.54 420.885C415.912 420.497 416.385 420.221 416.907 420.088C417.428 419.956 417.976 419.973 418.488 420.137C419 420.3 419.456 420.605 419.803 421.015L424.013 425.945C424.315 426.3 424.698 426.576 425.13 426.751C425.562 426.925 426.03 426.992 426.493 426.945L432.933 426.265C433.464 426.211 434 426.305 434.48 426.538C434.96 426.771 435.366 427.133 435.652 427.584C435.937 428.035 436.092 428.556 436.097 429.09C436.103 429.624 435.959 430.149 435.683 430.605L432.303 436.135C432.06 436.531 431.918 436.981 431.888 437.444C431.858 437.908 431.943 438.372 432.133 438.795L434.773 444.715C434.983 445.202 435.053 445.738 434.976 446.262C434.9 446.787 434.679 447.28 434.34 447.687C434 448.094 433.554 448.399 433.052 448.568C432.549 448.737 432.01 448.764 431.493 448.645Z" fill="#E0CEDD" fill-opacity="0.866667"/>
</svg>
