<svg width="1219" height="1079" viewBox="0 0 1219 1079" fill="none" xmlns="http://www.w3.org/2000/svg">
<path fill-rule="evenodd" clip-rule="evenodd" d="M1058.86 765.4C1028.77 828.751 986.011 858.566 906.965 878.634C829.26 898.361 752.36 840.688 666.27 832.854C589.546 825.872 421.228 891.315 355.567 849.257C287.464 805.634 386.869 748.747 356.114 678.209C335.774 616.91 314.956 560.203 258.455 511.888C221.077 435.452 121.047 318.319 180.294 266.344C241.791 212.395 394.732 307.59 484.541 288.006C573.291 268.653 605.543 128.681 698.546 164.114C798.148 202.061 697.391 363.211 773.863 431.547C847.648 497.482 1035.96 443.105 1094.54 517.981C1148.13 586.476 1090.28 699.27 1058.86 765.4Z" fill="#253A6E"/>
<path d="M751.026 819.138L742.738 817.283C742.145 817.152 741.526 817.157 740.935 817.297C740.344 817.438 739.798 817.71 739.345 818.091L733.022 823.418C732.499 823.854 731.856 824.146 731.165 824.26C730.474 824.374 729.762 824.306 729.11 824.064C728.458 823.821 727.892 823.414 727.475 822.888C727.057 822.361 726.806 821.737 726.748 821.085L726.065 813.117C726.017 812.551 725.822 812.004 725.497 811.524C725.171 811.044 724.725 810.645 724.197 810.362L716.874 806.39C716.268 806.061 715.772 805.581 715.442 805.003C715.113 804.426 714.962 803.774 715.008 803.122C715.054 802.469 715.293 801.841 715.701 801.308C716.108 800.776 716.666 800.36 717.313 800.107L725.174 797.068C725.739 796.85 726.238 796.507 726.63 796.069C727.021 795.63 727.292 795.11 727.42 794.552L729.177 786.778C729.325 786.139 729.661 785.55 730.147 785.079C730.633 784.607 731.251 784.272 731.931 784.11C732.61 783.948 733.325 783.966 733.995 784.161C734.664 784.357 735.261 784.724 735.72 785.219L741.261 791.263C741.66 791.693 742.165 792.028 742.732 792.238C743.3 792.448 743.913 792.527 744.52 792.469L752.991 791.627C753.691 791.557 754.397 791.671 755.03 791.957C755.664 792.243 756.198 792.688 756.573 793.243C756.948 793.798 757.149 794.44 757.152 795.096C757.156 795.752 756.961 796.396 756.592 796.954L752.149 803.726C751.835 804.215 751.651 804.767 751.613 805.335C751.575 805.903 751.683 806.472 751.929 806.993L755.396 814.244C755.7 814.849 755.813 815.522 755.721 816.185C755.629 816.848 755.337 817.472 754.879 817.986C754.42 818.499 753.814 818.88 753.132 819.084C752.45 819.289 751.719 819.307 751.026 819.138Z" fill="#E0CEDD"/>
<path d="M1131.03 574.138L1122.74 572.283C1122.14 572.152 1121.53 572.157 1120.93 572.297C1120.34 572.438 1119.8 572.71 1119.34 573.091L1113.02 578.418C1112.5 578.854 1111.86 579.146 1111.16 579.26C1110.47 579.374 1109.76 579.306 1109.11 579.064C1108.46 578.821 1107.89 578.414 1107.47 577.888C1107.06 577.361 1106.81 576.737 1106.75 576.085L1106.06 568.117C1106.02 567.551 1105.82 567.004 1105.5 566.524C1105.17 566.044 1104.73 565.645 1104.2 565.362L1096.87 561.39C1096.27 561.061 1095.77 560.581 1095.44 560.003C1095.11 559.426 1094.96 558.774 1095.01 558.122C1095.05 557.469 1095.29 556.841 1095.7 556.308C1096.11 555.776 1096.67 555.36 1097.31 555.107L1105.17 552.068C1105.74 551.85 1106.24 551.507 1106.63 551.069C1107.02 550.63 1107.29 550.11 1107.42 549.552L1109.18 541.778C1109.32 541.139 1109.66 540.55 1110.15 540.079C1110.63 539.607 1111.25 539.272 1111.93 539.11C1112.61 538.948 1113.33 538.966 1113.99 539.161C1114.66 539.357 1115.26 539.724 1115.72 540.219L1121.26 546.263C1121.66 546.693 1122.17 547.028 1122.73 547.238C1123.3 547.448 1123.91 547.527 1124.52 547.469L1132.99 546.627C1133.69 546.557 1134.4 546.671 1135.03 546.957C1135.66 547.243 1136.2 547.688 1136.57 548.243C1136.95 548.798 1137.15 549.44 1137.15 550.096C1137.16 550.752 1136.96 551.396 1136.59 551.954L1132.15 558.726C1131.84 559.215 1131.65 559.767 1131.61 560.335C1131.57 560.903 1131.68 561.472 1131.93 561.993L1135.4 569.244C1135.7 569.849 1135.81 570.522 1135.72 571.185C1135.63 571.848 1135.34 572.472 1134.88 572.986C1134.42 573.499 1133.81 573.88 1133.13 574.084C1132.45 574.289 1131.72 574.307 1131.03 574.138Z" fill="#E0CEDD"/>
<path d="M412.58 811.16C416.766 811.16 420.16 807.766 420.16 803.58C420.16 799.394 416.766 796 412.58 796C408.394 796 405 799.394 405 803.58C405 807.766 408.394 811.16 412.58 811.16Z" fill="white"/>
<path d="M207.58 324.16C211.766 324.16 215.16 320.766 215.16 316.58C215.16 312.394 211.766 309 207.58 309C203.394 309 200 312.394 200 316.58C200 320.766 203.394 324.16 207.58 324.16Z" fill="white"/>
<path d="M606.58 297.16C610.766 297.16 614.16 293.766 614.16 289.58C614.16 285.394 610.766 282 606.58 282C602.394 282 599 285.394 599 289.58C599 293.766 602.394 297.16 606.58 297.16Z" fill="white"/>
<path d="M301.324 380.913L289.991 370.927C289.18 370.21 288.226 369.712 287.212 369.476C286.198 369.239 285.155 369.272 284.173 369.571L270.458 373.73C269.328 374.073 268.12 374.064 266.972 373.703C265.824 373.342 264.781 372.643 263.962 371.687C263.142 370.731 262.579 369.554 262.335 368.291C262.091 367.028 262.177 365.728 262.583 364.539L267.48 350.098C267.832 349.066 267.944 347.947 267.805 346.839C267.665 345.73 267.279 344.666 266.681 343.739L258.341 330.769C257.654 329.7 257.25 328.454 257.176 327.172C257.102 325.891 257.359 324.625 257.92 323.517C258.48 322.409 259.322 321.503 260.349 320.902C261.376 320.301 262.547 320.028 263.732 320.114L278.101 321.189C279.13 321.263 280.151 321.068 281.078 320.619C282.005 320.17 282.81 319.481 283.424 318.611L291.979 306.435C292.686 305.433 293.644 304.674 294.747 304.245C295.849 303.815 297.051 303.731 298.217 304.003C299.383 304.276 300.466 304.892 301.345 305.784C302.224 306.676 302.864 307.808 303.191 309.051L307.144 324.167C307.427 325.248 307.947 326.247 308.658 327.078C309.369 327.91 310.25 328.548 311.226 328.939L324.859 334.386C325.983 334.835 326.979 335.611 327.735 336.626C328.491 337.641 328.976 338.855 329.136 340.131C329.296 341.407 329.123 342.693 328.639 343.845C328.154 344.996 327.377 345.967 326.394 346.647L314.476 354.901C313.622 355.492 312.922 356.304 312.435 357.267C311.948 358.229 311.688 359.314 311.679 360.427L311.529 375.966C311.506 377.234 311.159 378.459 310.526 379.504C309.892 380.549 308.997 381.374 307.94 381.886C306.883 382.399 305.705 382.579 304.537 382.408C303.369 382.236 302.257 381.719 301.324 380.913Z" fill="#FF90BF"/>
<path d="M1057.33 763.434L1051.96 758.949C1051.58 758.627 1051.12 758.406 1050.64 758.306C1050.15 758.206 1049.65 758.229 1049.18 758.374L1042.57 760.391C1042.02 760.557 1041.44 760.563 1040.89 760.406C1040.35 760.25 1039.85 759.939 1039.46 759.507C1039.08 759.075 1038.81 758.541 1038.71 757.964C1038.6 757.386 1038.65 756.79 1038.85 756.242L1041.3 749.584C1041.48 749.108 1041.54 748.594 1041.48 748.087C1041.42 747.58 1041.24 747.096 1040.96 746.675L1037.05 740.798C1036.73 740.314 1036.54 739.746 1036.52 739.159C1036.49 738.572 1036.62 737.99 1036.9 737.478C1037.18 736.965 1037.59 736.543 1038.08 736.26C1038.58 735.976 1039.14 735.841 1039.71 735.871L1046.6 736.248C1047.09 736.274 1047.59 736.176 1048.03 735.963C1048.48 735.75 1048.87 735.427 1049.17 735.023L1053.36 729.374C1053.71 728.909 1054.18 728.554 1054.71 728.348C1055.24 728.142 1055.82 728.094 1056.37 728.209C1056.93 728.325 1057.45 728.599 1057.86 729C1058.28 729.402 1058.58 729.916 1058.73 730.483L1060.52 737.379C1060.65 737.872 1060.89 738.326 1061.23 738.701C1061.56 739.076 1061.98 739.362 1062.45 739.533L1068.95 741.92C1069.49 742.117 1069.96 742.464 1070.32 742.923C1070.67 743.383 1070.9 743.935 1070.96 744.519C1071.03 745.102 1070.94 745.693 1070.7 746.225C1070.46 746.756 1070.08 747.208 1069.6 747.527L1063.82 751.406C1063.41 751.684 1063.07 752.062 1062.83 752.507C1062.59 752.952 1062.46 753.451 1062.44 753.961L1062.26 761.085C1062.24 761.666 1062.07 762.23 1061.76 762.714C1061.45 763.199 1061.01 763.584 1060.5 763.827C1059.99 764.071 1059.42 764.163 1058.86 764.094C1058.3 764.024 1057.77 763.796 1057.33 763.434Z" fill="#FF90BF"/>
<path d="M677.331 244.434L671.961 239.949C671.577 239.627 671.122 239.406 670.637 239.306C670.153 239.206 669.652 239.229 669.178 239.374L662.567 241.391C662.022 241.557 661.442 241.563 660.894 241.406C660.345 241.25 659.85 240.939 659.463 240.507C659.076 240.075 658.814 239.541 658.706 238.964C658.598 238.386 658.648 237.79 658.851 237.242L661.302 230.584C661.478 230.108 661.539 229.594 661.48 229.087C661.421 228.58 661.243 228.096 660.962 227.675L657.05 221.798C656.728 221.314 656.543 220.746 656.516 220.159C656.489 219.572 656.622 218.99 656.898 218.478C657.175 217.965 657.585 217.543 658.082 217.26C658.579 216.976 659.144 216.841 659.711 216.871L666.601 217.248C667.094 217.274 667.585 217.176 668.033 216.963C668.481 216.75 668.872 216.427 669.173 216.023L673.364 210.374C673.71 209.909 674.175 209.554 674.707 209.348C675.239 209.142 675.817 209.094 676.375 209.209C676.932 209.325 677.448 209.599 677.864 210C678.279 210.402 678.578 210.916 678.727 211.483L680.519 218.379C680.647 218.872 680.89 219.326 681.225 219.701C681.561 220.076 681.979 220.362 682.445 220.533L688.95 222.92C689.487 223.117 689.959 223.464 690.315 223.923C690.671 224.383 690.895 224.935 690.963 225.519C691.031 226.102 690.939 226.693 690.699 227.225C690.458 227.756 690.078 228.208 689.602 228.527L683.824 232.406C683.41 232.684 683.069 233.062 682.828 233.507C682.588 233.952 682.456 234.451 682.443 234.961L682.263 242.085C682.244 242.666 682.069 243.23 681.757 243.714C681.446 244.199 681.011 244.584 680.5 244.827C679.989 245.071 679.422 245.163 678.863 245.094C678.303 245.024 677.773 244.796 677.331 244.434Z" fill="#FF90BF"/>
</svg>
