<svg width="1030" height="1047" viewBox="0 0 1030 1047" fill="none" xmlns="http://www.w3.org/2000/svg">
<path fill-rule="evenodd" clip-rule="evenodd" d="M109.735 755.809C160.701 895.106 361.381 854.731 522.287 836.785C665.404 820.822 800.236 801.259 849.756 673.04C910.551 515.63 949.031 287.615 798.305 212.097C660.651 143.127 496.546 348.412 369.743 447.953C245.903 545.167 60.0978 620.142 109.735 755.809Z" fill="#1F2D7B"/>
<path fill-rule="evenodd" clip-rule="evenodd" d="M200.305 240.757C97.0969 321.184 132.154 408.131 194.979 557.141C250.858 689.676 381.345 882.664 518.24 893.651C686.302 907.139 830.526 874.348 886.297 736.606C927.966 574.361 890.01 418.152 745.285 353.464C588.262 314.998 320.667 160.272 200.305 240.757Z" fill="#CB84A1" fill-opacity="0.9"/>
<path d="M726.026 859.138L717.738 857.283C717.145 857.152 716.526 857.157 715.935 857.297C715.344 857.438 714.798 857.71 714.345 858.091L708.022 863.418C707.499 863.854 706.856 864.146 706.165 864.26C705.474 864.374 704.762 864.306 704.11 864.064C703.458 863.821 702.892 863.414 702.475 862.888C702.057 862.361 701.806 861.737 701.748 861.085L701.065 853.117C701.017 852.551 700.822 852.004 700.497 851.524C700.171 851.044 699.725 850.645 699.197 850.362L691.874 846.39C691.268 846.061 690.772 845.581 690.442 845.003C690.113 844.426 689.962 843.774 690.008 843.122C690.054 842.469 690.293 841.841 690.701 841.308C691.108 840.776 691.666 840.36 692.313 840.107L700.174 837.068C700.739 836.85 701.238 836.507 701.63 836.069C702.021 835.63 702.292 835.11 702.42 834.552L704.177 826.778C704.325 826.139 704.661 825.55 705.147 825.079C705.633 824.607 706.251 824.272 706.931 824.11C707.61 823.948 708.325 823.966 708.995 824.161C709.664 824.357 710.261 824.724 710.72 825.219L716.261 831.263C716.66 831.693 717.165 832.028 717.732 832.238C718.3 832.448 718.913 832.527 719.52 832.469L727.991 831.627C728.691 831.557 729.397 831.671 730.03 831.957C730.664 832.243 731.198 832.688 731.573 833.243C731.948 833.798 732.149 834.44 732.152 835.096C732.156 835.752 731.961 836.396 731.592 836.954L727.149 843.726C726.835 844.215 726.651 844.767 726.613 845.335C726.575 845.903 726.683 846.472 726.929 846.993L730.396 854.244C730.7 854.849 730.813 855.522 730.721 856.185C730.629 856.848 730.337 857.472 729.879 857.986C729.42 858.499 728.814 858.88 728.132 859.084C727.45 859.289 726.719 859.307 726.026 859.138Z" fill="#E0CEDD"/>
<path d="M439.026 307.138L430.738 305.283C430.145 305.152 429.526 305.157 428.935 305.297C428.344 305.438 427.798 305.71 427.345 306.091L421.022 311.418C420.499 311.854 419.856 312.146 419.165 312.26C418.474 312.374 417.762 312.306 417.11 312.064C416.458 311.821 415.892 311.414 415.475 310.888C415.057 310.361 414.806 309.737 414.748 309.085L414.065 301.117C414.017 300.551 413.822 300.004 413.497 299.524C413.171 299.044 412.725 298.645 412.197 298.362L404.874 294.39C404.268 294.061 403.772 293.581 403.442 293.003C403.113 292.426 402.962 291.774 403.008 291.122C403.054 290.469 403.293 289.841 403.701 289.308C404.108 288.776 404.666 288.36 405.313 288.107L413.174 285.068C413.739 284.85 414.238 284.507 414.63 284.069C415.021 283.63 415.292 283.11 415.42 282.552L417.177 274.778C417.325 274.139 417.661 273.55 418.147 273.079C418.633 272.607 419.251 272.272 419.931 272.11C420.61 271.948 421.325 271.966 421.995 272.161C422.664 272.357 423.261 272.724 423.72 273.219L429.261 279.263C429.66 279.693 430.165 280.028 430.732 280.238C431.3 280.448 431.913 280.527 432.52 280.469L440.991 279.627C441.691 279.557 442.397 279.671 443.03 279.957C443.664 280.243 444.198 280.688 444.573 281.243C444.948 281.798 445.149 282.44 445.152 283.096C445.156 283.752 444.961 284.396 444.592 284.954L440.149 291.726C439.835 292.215 439.651 292.767 439.613 293.335C439.575 293.903 439.683 294.472 439.929 294.993L443.396 302.244C443.7 302.849 443.813 303.522 443.721 304.185C443.629 304.848 443.337 305.472 442.879 305.986C442.42 306.499 441.814 306.88 441.132 307.084C440.45 307.289 439.719 307.307 439.026 307.138Z" fill="#E0CEDD"/>
<path d="M761.58 279.16C765.766 279.16 769.16 275.766 769.16 271.58C769.16 267.394 765.766 264 761.58 264C757.394 264 754 267.394 754 271.58C754 275.766 757.394 279.16 761.58 279.16Z" fill="white"/>
<path d="M467.58 809.16C471.766 809.16 475.16 805.766 475.16 801.58C475.16 797.394 471.766 794 467.58 794C463.394 794 460 797.394 460 801.58C460 805.766 463.394 809.16 467.58 809.16Z" fill="white"/>
<path d="M265.58 812.16C269.766 812.16 273.16 808.766 273.16 804.58C273.16 800.394 269.766 797 265.58 797C261.394 797 258 800.394 258 804.58C258 808.766 261.394 812.16 265.58 812.16Z" fill="white"/>
</svg>
