<svg width="1303" height="1446" viewBox="0 0 1303 1446" fill="none" xmlns="http://www.w3.org/2000/svg">
<path fill-rule="evenodd" clip-rule="evenodd" d="M1187.82 386.258C1233.57 453.444 1290.93 535.747 1266.03 625.377C1241.55 713.487 1124.58 760.593 1068.02 840.589C1017.62 911.883 1060.98 1089.88 982.076 1129.48C900.232 1170.55 790.288 992.922 706.338 993.413C645.577 1060.66 537.68 1088.34 461.564 1092.11C366.282 1096.83 261.517 1083.73 243.567 994.628C224.935 902.142 388.629 789.791 420.112 689.865C451.224 591.117 303.905 466.183 391.741 395.77C485.809 320.36 561.078 425.113 682.272 414.745C789.457 381.33 886.388 239.744 993.818 226.588C1092.09 214.553 1140.06 316.124 1187.82 386.258Z" fill="url(#paint0_linear_2742_373)"/>
<path d="M942.026 1033.14L933.738 1031.28C933.145 1031.15 932.526 1031.16 931.935 1031.3C931.344 1031.44 930.798 1031.71 930.345 1032.09L924.022 1037.42C923.499 1037.85 922.856 1038.15 922.165 1038.26C921.474 1038.37 920.762 1038.31 920.11 1038.06C919.458 1037.82 918.892 1037.41 918.475 1036.89C918.057 1036.36 917.806 1035.74 917.748 1035.08L917.065 1027.12C917.017 1026.55 916.822 1026 916.497 1025.52C916.171 1025.04 915.725 1024.65 915.197 1024.36L907.874 1020.39C907.268 1020.06 906.772 1019.58 906.442 1019C906.113 1018.43 905.962 1017.77 906.008 1017.12C906.054 1016.47 906.293 1015.84 906.701 1015.31C907.108 1014.78 907.666 1014.36 908.313 1014.11L916.174 1011.07C916.739 1010.85 917.238 1010.51 917.63 1010.07C918.021 1009.63 918.292 1009.11 918.42 1008.55L920.177 1000.78C920.325 1000.14 920.661 999.55 921.147 999.079C921.633 998.607 922.251 998.272 922.931 998.11C923.61 997.948 924.325 997.966 924.995 998.161C925.664 998.357 926.261 998.724 926.72 999.219L932.261 1005.26C932.66 1005.69 933.165 1006.03 933.732 1006.24C934.3 1006.45 934.913 1006.53 935.52 1006.47L943.991 1005.63C944.691 1005.56 945.397 1005.67 946.03 1005.96C946.664 1006.24 947.198 1006.69 947.573 1007.24C947.948 1007.8 948.149 1008.44 948.152 1009.1C948.156 1009.75 947.961 1010.4 947.592 1010.95L943.149 1017.73C942.835 1018.21 942.651 1018.77 942.613 1019.33C942.575 1019.9 942.683 1020.47 942.929 1020.99L946.396 1028.24C946.7 1028.85 946.813 1029.52 946.721 1030.18C946.629 1030.85 946.337 1031.47 945.879 1031.99C945.42 1032.5 944.814 1032.88 944.132 1033.08C943.45 1033.29 942.719 1033.31 942.026 1033.14Z" fill="#E0CEDD"/>
<path d="M442.58 1020.16C446.766 1020.16 450.16 1016.77 450.16 1012.58C450.16 1008.39 446.766 1005 442.58 1005C438.394 1005 435 1008.39 435 1012.58C435 1016.77 438.394 1020.16 442.58 1020.16Z" fill="white"/>
<path d="M963.58 390.16C967.766 390.16 971.16 386.766 971.16 382.58C971.16 378.394 967.766 375 963.58 375C959.394 375 956 378.394 956 382.58C956 386.766 959.394 390.16 963.58 390.16Z" fill="white"/>
<path d="M430.493 447.645L424.153 446.135C423.702 446.028 423.231 446.032 422.782 446.147C422.332 446.262 421.918 446.484 421.573 446.795L416.763 451.135C416.367 451.494 415.878 451.734 415.351 451.829C414.825 451.924 414.283 451.869 413.786 451.671C413.29 451.473 412.858 451.14 412.541 450.71C412.224 450.279 412.035 449.768 411.993 449.235L411.473 442.775C411.437 442.313 411.288 441.867 411.041 441.475C410.793 441.083 410.455 440.757 410.053 440.525L404.433 437.285C403.971 437.019 403.592 436.628 403.339 436.158C403.087 435.687 402.972 435.155 403.006 434.623C403.04 434.09 403.223 433.577 403.534 433.143C403.844 432.709 404.27 432.37 404.763 432.165L410.763 429.675C411.192 429.498 411.571 429.218 411.867 428.861C412.164 428.504 412.368 428.08 412.463 427.625L413.803 421.285C413.913 420.759 414.168 420.274 414.54 419.885C414.912 419.497 415.385 419.221 415.907 419.088C416.428 418.956 416.976 418.973 417.488 419.137C418 419.3 418.456 419.605 418.803 420.015L423.013 424.945C423.315 425.3 423.698 425.576 424.13 425.751C424.562 425.925 425.03 425.992 425.493 425.945L431.933 425.265C432.464 425.211 433 425.305 433.48 425.538C433.96 425.771 434.366 426.133 434.652 426.584C434.937 427.035 435.092 427.556 435.097 428.09C435.103 428.624 434.959 429.149 434.683 429.605L431.303 435.135C431.06 435.531 430.918 435.981 430.888 436.444C430.858 436.908 430.943 437.372 431.133 437.795L433.773 443.715C433.983 444.202 434.053 444.738 433.976 445.262C433.9 445.787 433.679 446.28 433.34 446.687C433 447.094 432.554 447.399 432.052 447.568C431.549 447.737 431.01 447.764 430.493 447.645Z" fill="#E0CEDD" fill-opacity="0.866667"/>
<path d="M1147.32 551.913L1135.99 541.927C1135.18 541.21 1134.23 540.712 1133.21 540.476C1132.2 540.239 1131.16 540.272 1130.17 540.571L1116.46 544.73C1115.33 545.073 1114.12 545.064 1112.97 544.703C1111.82 544.342 1110.78 543.643 1109.96 542.687C1109.14 541.731 1108.58 540.554 1108.34 539.291C1108.09 538.028 1108.18 536.728 1108.58 535.539L1113.48 521.098C1113.83 520.066 1113.94 518.947 1113.8 517.839C1113.67 516.73 1113.28 515.666 1112.68 514.739L1104.34 501.769C1103.65 500.7 1103.25 499.454 1103.18 498.172C1103.1 496.891 1103.36 495.625 1103.92 494.517C1104.48 493.409 1105.32 492.503 1106.35 491.902C1107.38 491.301 1108.55 491.028 1109.73 491.114L1124.1 492.189C1125.13 492.263 1126.15 492.068 1127.08 491.619C1128 491.17 1128.81 490.481 1129.42 489.611L1137.98 477.435C1138.69 476.433 1139.64 475.674 1140.75 475.245C1141.85 474.815 1143.05 474.731 1144.22 475.003C1145.38 475.276 1146.47 475.892 1147.35 476.784C1148.22 477.676 1148.86 478.808 1149.19 480.051L1153.14 495.167C1153.43 496.248 1153.95 497.247 1154.66 498.078C1155.37 498.91 1156.25 499.548 1157.23 499.939L1170.86 505.386C1171.98 505.835 1172.98 506.611 1173.74 507.626C1174.49 508.641 1174.98 509.855 1175.14 511.131C1175.3 512.407 1175.12 513.693 1174.64 514.845C1174.15 515.996 1173.38 516.967 1172.39 517.647L1160.48 525.901C1159.62 526.492 1158.92 527.304 1158.43 528.267C1157.95 529.229 1157.69 530.314 1157.68 531.427L1157.53 546.966C1157.51 548.234 1157.16 549.459 1156.53 550.504C1155.89 551.549 1155 552.374 1153.94 552.886C1152.88 553.399 1151.7 553.579 1150.54 553.408C1149.37 553.236 1148.26 552.719 1147.32 551.913Z" fill="#FF90BF"/>
<path d="M381.331 934.434L375.961 929.949C375.577 929.627 375.122 929.406 374.638 929.306C374.153 929.206 373.652 929.229 373.178 929.374L366.567 931.391C366.022 931.557 365.442 931.563 364.894 931.406C364.345 931.25 363.85 930.939 363.463 930.507C363.076 930.075 362.814 929.541 362.706 928.964C362.598 928.386 362.648 927.79 362.851 927.242L365.302 920.584C365.478 920.108 365.539 919.594 365.48 919.087C365.421 918.58 365.243 918.096 364.962 917.675L361.05 911.798C360.728 911.314 360.543 910.746 360.516 910.159C360.489 909.572 360.622 908.99 360.898 908.478C361.175 907.965 361.585 907.543 362.082 907.26C362.579 906.976 363.144 906.841 363.711 906.871L370.601 907.248C371.094 907.274 371.585 907.176 372.033 906.963C372.481 906.75 372.872 906.427 373.173 906.023L377.364 900.374C377.71 899.909 378.176 899.554 378.708 899.348C379.24 899.142 379.817 899.094 380.375 899.209C380.932 899.325 381.448 899.599 381.864 900C382.28 900.402 382.579 900.916 382.727 901.483L384.519 908.379C384.648 908.872 384.89 909.326 385.225 909.701C385.561 910.076 385.98 910.362 386.445 910.533L392.95 912.92C393.487 913.117 393.96 913.464 394.315 913.923C394.671 914.383 394.895 914.935 394.963 915.519C395.031 916.102 394.939 916.693 394.699 917.225C394.458 917.756 394.078 918.208 393.602 918.527L387.824 922.406C387.411 922.684 387.069 923.062 386.828 923.507C386.588 923.952 386.456 924.451 386.443 924.961L386.263 932.085C386.244 932.666 386.069 933.23 385.757 933.714C385.446 934.199 385.011 934.584 384.5 934.827C383.989 935.071 383.422 935.163 382.863 935.094C382.303 935.024 381.773 934.796 381.331 934.434Z" fill="#FF90BF"/>
<defs>
<linearGradient id="paint0_linear_2742_373" x1="1185.52" y1="370.211" x2="233" y2="1112" gradientUnits="userSpaceOnUse">
<stop offset="0.363753" stop-color="#1B3778"/>
<stop offset="1" stop-color="#3266DE"/>
</linearGradient>
</defs>
</svg>
