<svg width="1030" height="1047" viewBox="0 0 1030 1047" fill="none" xmlns="http://www.w3.org/2000/svg">
<path fill-rule="evenodd" clip-rule="evenodd" d="M109.735 755.809C160.701 895.106 361.381 854.731 522.287 836.785C665.404 820.822 800.236 801.259 849.756 673.04C910.551 515.63 949.031 287.615 798.305 212.097C660.651 143.127 496.546 348.412 369.743 447.953C245.903 545.167 60.0978 620.142 109.735 755.809Z" fill="url(#paint0_linear_2743_375)"/>
<path fill-rule="evenodd" clip-rule="evenodd" d="M200.305 240.757C97.0969 321.184 132.154 408.131 194.979 557.141C250.858 689.676 381.345 882.664 518.24 893.651C686.302 907.139 830.526 874.348 886.297 736.606C927.966 574.361 890.01 418.152 745.285 353.464C588.262 314.998 320.667 160.272 200.305 240.757Z" fill="#CB84A1" fill-opacity="0.9"/>
<path d="M726.026 859.138L717.738 857.283C717.145 857.152 716.526 857.157 715.935 857.297C715.344 857.438 714.798 857.71 714.345 858.091L708.022 863.418C707.499 863.854 706.856 864.146 706.165 864.26C705.474 864.374 704.762 864.306 704.11 864.064C703.458 863.821 702.892 863.414 702.475 862.888C702.057 862.361 701.806 861.737 701.748 861.085L701.065 853.117C701.017 852.551 700.822 852.004 700.497 851.524C700.171 851.044 699.725 850.645 699.197 850.362L691.874 846.39C691.268 846.061 690.772 845.581 690.442 845.003C690.113 844.426 689.962 843.774 690.008 843.122C690.054 842.469 690.293 841.841 690.701 841.308C691.108 840.776 691.666 840.36 692.313 840.107L700.174 837.068C700.739 836.85 701.238 836.507 701.63 836.069C702.021 835.63 702.292 835.11 702.42 834.552L704.177 826.778C704.325 826.139 704.661 825.55 705.147 825.079C705.633 824.607 706.251 824.272 706.931 824.11C707.61 823.948 708.325 823.966 708.995 824.161C709.664 824.357 710.261 824.724 710.72 825.219L716.261 831.263C716.66 831.693 717.165 832.028 717.732 832.238C718.3 832.448 718.913 832.527 719.52 832.469L727.991 831.627C728.691 831.557 729.397 831.671 730.03 831.957C730.664 832.243 731.198 832.688 731.573 833.243C731.948 833.798 732.149 834.44 732.152 835.096C732.156 835.752 731.961 836.396 731.592 836.954L727.149 843.726C726.835 844.215 726.651 844.767 726.613 845.335C726.575 845.903 726.683 846.472 726.929 846.993L730.396 854.244C730.7 854.849 730.813 855.522 730.721 856.185C730.629 856.848 730.337 857.472 729.879 857.986C729.42 858.499 728.814 858.88 728.132 859.084C727.45 859.289 726.719 859.307 726.026 859.138Z" fill="#E0CEDD"/>
<path d="M439.026 307.138L430.738 305.283C430.145 305.152 429.526 305.157 428.935 305.297C428.344 305.438 427.798 305.71 427.345 306.091L421.022 311.418C420.499 311.854 419.856 312.146 419.165 312.26C418.474 312.374 417.762 312.306 417.11 312.064C416.458 311.821 415.892 311.414 415.475 310.888C415.057 310.361 414.806 309.737 414.748 309.085L414.065 301.117C414.017 300.551 413.822 300.004 413.497 299.524C413.171 299.044 412.725 298.645 412.197 298.362L404.874 294.39C404.268 294.061 403.772 293.581 403.442 293.003C403.113 292.426 402.962 291.774 403.008 291.122C403.054 290.469 403.293 289.841 403.701 289.308C404.108 288.776 404.666 288.36 405.313 288.107L413.174 285.068C413.739 284.85 414.238 284.507 414.63 284.069C415.021 283.63 415.292 283.11 415.42 282.552L417.177 274.778C417.325 274.139 417.661 273.55 418.147 273.079C418.633 272.607 419.251 272.272 419.931 272.11C420.61 271.948 421.325 271.966 421.995 272.161C422.664 272.357 423.261 272.724 423.72 273.219L429.261 279.263C429.66 279.693 430.165 280.028 430.732 280.238C431.3 280.448 431.913 280.527 432.52 280.469L440.991 279.627C441.691 279.557 442.397 279.671 443.03 279.957C443.664 280.243 444.198 280.688 444.573 281.243C444.948 281.798 445.149 282.44 445.152 283.096C445.156 283.752 444.961 284.396 444.592 284.954L440.149 291.726C439.835 292.215 439.651 292.767 439.613 293.335C439.575 293.903 439.683 294.472 439.929 294.993L443.396 302.244C443.7 302.849 443.813 303.522 443.721 304.185C443.629 304.848 443.337 305.472 442.879 305.986C442.42 306.499 441.814 306.88 441.132 307.084C440.45 307.289 439.719 307.307 439.026 307.138Z" fill="#E0CEDD"/>
<path d="M761.58 279.16C765.766 279.16 769.16 275.766 769.16 271.58C769.16 267.394 765.766 264 761.58 264C757.394 264 754 267.394 754 271.58C754 275.766 757.394 279.16 761.58 279.16Z" fill="white"/>
<path d="M467.58 809.16C471.766 809.16 475.16 805.766 475.16 801.58C475.16 797.394 471.766 794 467.58 794C463.394 794 460 797.394 460 801.58C460 805.766 463.394 809.16 467.58 809.16Z" fill="white"/>
<path d="M265.58 812.16C269.766 812.16 273.16 808.766 273.16 804.58C273.16 800.394 269.766 797 265.58 797C261.394 797 258 800.394 258 804.58C258 808.766 261.394 812.16 265.58 812.16Z" fill="white"/>
<path d="M126.909 400.655L112.423 388.745C111.387 387.891 110.167 387.298 108.869 387.019C107.572 386.739 106.236 386.782 104.977 387.142L87.4053 392.16C85.9568 392.574 84.4105 392.567 82.9413 392.139C81.4721 391.711 80.1387 390.879 79.0919 389.737C78.0451 388.596 77.3268 387.191 77.0181 385.68C76.7095 384.17 76.8228 382.615 77.3454 381.192L83.6538 363.903C84.1079 362.666 84.2536 361.328 84.0782 360.002C83.9028 358.677 83.4116 357.406 82.6472 356.298L72.0024 340.811C71.1256 339.534 70.6123 338.045 70.5205 336.512C70.4287 334.98 70.762 333.464 71.4827 332.137C72.2035 330.81 73.2831 329.724 74.5996 329.002C75.9162 328.279 77.4173 327.949 78.9336 328.049L97.3305 329.288C98.6473 329.374 99.9556 329.137 101.144 328.597C102.332 328.057 103.364 327.23 104.152 326.188L115.139 311.596C116.047 310.396 117.277 309.485 118.689 308.968C120.102 308.45 121.641 308.346 123.133 308.668C124.625 308.99 126.011 309.724 127.135 310.788C128.258 311.853 129.073 313.204 129.49 314.69L134.511 332.759C134.871 334.051 135.533 335.244 136.442 336.236C137.35 337.229 138.477 337.99 139.726 338.454L157.168 344.926C158.606 345.459 159.88 346.384 160.845 347.596C161.81 348.808 162.428 350.259 162.629 351.785C162.83 353.31 162.606 354.849 161.983 356.228C161.359 357.607 160.361 358.771 159.101 359.587L143.818 369.499C142.724 370.209 141.825 371.182 141.198 372.335C140.572 373.488 140.237 374.786 140.222 376.117L139.988 394.704C139.957 396.222 139.509 397.688 138.695 398.94C137.881 400.192 136.733 401.182 135.378 401.798C134.023 402.415 132.514 402.634 131.019 402.432C129.524 402.231 128.101 401.615 126.909 400.655Z" fill="#1C397D"/>
<path d="M869.102 781.686L858.579 773.05C857.826 772.43 856.94 772 855.999 771.796C855.057 771.592 854.088 771.622 853.175 771.881L840.431 775.494C839.38 775.792 838.258 775.784 837.192 775.473C836.125 775.161 835.157 774.558 834.396 773.73C833.636 772.903 833.113 771.885 832.887 770.792C832.662 769.698 832.742 768.573 833.12 767.543L837.679 755.036C838.007 754.142 838.112 753.173 837.983 752.214C837.854 751.254 837.497 750.334 836.941 749.531L829.201 738.309C828.564 737.384 828.19 736.306 828.121 735.196C828.053 734.087 828.293 732.99 828.815 732.031C829.336 731.071 830.119 730.286 831.073 729.765C832.028 729.243 833.116 729.006 834.217 729.08L847.566 729.998C848.521 730.061 849.471 729.891 850.332 729.502C851.193 729.112 851.942 728.515 852.513 727.761L860.469 717.212C861.126 716.344 862.017 715.686 863.042 715.314C864.066 714.941 865.183 714.867 866.266 715.102C867.349 715.336 868.355 715.869 869.171 716.641C869.987 717.412 870.581 718.392 870.884 719.468L874.547 732.552C874.809 733.487 875.291 734.352 875.951 735.071C876.611 735.79 877.43 736.342 878.336 736.68L890.998 741.384C892.042 741.771 892.967 742.442 893.669 743.321C894.37 744.199 894.82 745.25 894.968 746.354C895.115 747.458 894.954 748.572 894.504 749.57C894.053 750.567 893.329 751.408 892.416 751.998L881.338 759.154C880.545 759.667 879.893 760.371 879.44 761.204C878.987 762.038 878.745 762.977 878.736 763.941L878.586 777.394C878.564 778.492 878.241 779.553 877.652 780.458C877.063 781.364 876.231 782.079 875.248 782.523C874.266 782.968 873.171 783.125 872.086 782.978C871.001 782.83 869.968 782.383 869.102 781.686Z" fill="#1C397D"/>
<defs>
<linearGradient id="paint0_linear_2743_375" x1="102.625" y1="737.805" x2="1029" y2="334" gradientUnits="userSpaceOnUse">
<stop offset="0.49582" stop-color="#1B3778"/>
<stop offset="1" stop-color="#3266DE"/>
</linearGradient>
</defs>
</svg>
