<svg width="35" height="36" viewBox="0 0 35 36" fill="none" xmlns="http://www.w3.org/2000/svg">
<path d="M29.5151 30.8708L22.7252 29.2408C22.2389 29.1255 21.732 29.1299 21.2478 29.2535C20.7636 29.3772 20.3166 29.6164 19.9452 29.9508L14.7651 34.6308C14.3366 35.0142 13.8096 35.2704 13.2434 35.3706C12.6771 35.4709 12.0943 35.4111 11.5601 35.1981C11.026 34.9851 10.5619 34.6272 10.2201 34.1648C9.87822 33.7025 9.67226 33.1539 9.62521 32.5808L9.06515 25.5808C9.02594 25.0834 8.86616 24.6032 8.59957 24.1815C8.33298 23.7598 7.96758 23.4095 7.53512 23.1608L1.53512 19.6708C1.03852 19.3816 0.632427 18.9597 0.362388 18.4525C0.0923503 17.9453 -0.0308438 17.3728 0.00655344 16.7993C0.0439507 16.2259 0.240426 15.6743 0.574058 15.2064C0.907691 14.7385 1.36516 14.373 1.8951 14.1508L8.33517 11.4808C8.79804 11.2891 9.20737 10.9879 9.52792 10.6029C9.84846 10.2179 10.0706 9.76071 10.1751 9.27077L11.6152 2.44077C11.736 1.87885 12.011 1.36173 12.4095 0.947563C12.808 0.533391 13.3141 0.238574 13.8709 0.0962442C14.4278 -0.0460857 15.0134 -0.0302863 15.5617 0.141868C16.1101 0.314022 16.5996 0.635717 16.9752 1.07078L21.5151 6.38077C21.8421 6.75911 22.2556 7.053 22.7204 7.23753C23.1852 7.42205 23.6877 7.49177 24.1851 7.44077L31.1252 6.70077C31.6982 6.63921 32.277 6.73966 32.7957 6.99068C33.3145 7.2417 33.7523 7.63322 34.0597 8.12075C34.367 8.60828 34.5314 9.17226 34.5341 9.74856C34.5369 10.3249 34.3778 10.8904 34.0752 11.3808L30.4351 17.3308C30.1779 17.7599 30.0274 18.2445 29.9961 18.7439C29.9647 19.2432 30.0536 19.7428 30.2552 20.2008L33.0952 26.5708C33.3441 27.1024 33.4366 27.694 33.3615 28.2762C33.2865 28.8584 33.0471 29.4072 32.6715 29.8584C32.2959 30.3095 31.7996 30.6443 31.2406 30.8236C30.6816 31.0029 30.083 31.0193 29.5151 30.8708Z" fill="#E0CEDD"/>
</svg>
