<svg width="1634" height="3538" viewBox="0 0 1634 3538" fill="none" xmlns="http://www.w3.org/2000/svg">
<path d="M146.652 174.037C314.003 340.407 531.654 773.217 619.973 1014.73C685.907 1206.49 782.208 1599.51 559.744 1633.56C305.387 1664.25 151.931 963.052 90.6502 623.531C71.8192 519.198 39.8018 324.019 36.3166 221.932C23.6772 31.5238 64.8264 92.6916 146.652 174.037Z" fill="url(#paint0_linear_2415_1918)" stroke="#471F1E" stroke-width="4"/>
<path d="M126.25 2050.01C188.463 1957.06 406.764 1732.15 511.438 1662.42C545.719 1639.59 629.259 1614.41 655.002 1769.59C668.563 1851.34 657.05 1914.19 619.07 1961.75C619.07 1961.75 556.125 2039.8 512.344 2079.12C464.827 2121.8 385.274 2167.9 385.274 2167.9C324.563 2210.39 228.421 2233.23 145.736 2214.32C40.5415 2190.27 66.4268 2139.39 126.25 2050.01Z" fill="url(#paint1_linear_2415_1918)" stroke="#471F1E" stroke-width="4"/>
<path d="M1394.2 102.465C1194.48 279.476 944.722 731.24 846.418 981.999C773.561 1180.94 672.363 1587.1 949.649 1613.04C1266.31 1634.25 1424.11 910.334 1484.37 560.333C1502.89 452.78 1533.56 251.705 1533.16 147.067C1540.03 -48.3475 1491.86 15.9157 1394.2 102.465Z" fill="url(#paint2_linear_2415_1918)" stroke="#471F1E" stroke-width="4"/>
<path d="M1506.14 2021.95C1424.75 1929.29 1143.8 1707.82 1010.85 1640.65C967.309 1618.65 862.61 1596.22 837.873 1756.1C824.842 1840.32 842.015 1904.21 891.282 1951.37C891.282 1951.37 972.9 2028.74 1028.98 2067.23C1089.84 2109.01 1190.56 2153.01 1190.56 2153.01C1267.77 2194.07 1387.98 2213.59 1489.58 2190.92C1618.85 2162.08 1584.42 2111.04 1506.14 2021.95Z" fill="url(#paint3_linear_2415_1918)" stroke="#471F1E" stroke-width="4"/>
<path d="M246.538 2489.33C232.017 2489.33 204.685 2464.85 202.122 2455.99L534.815 2386.36L864.518 2469.49L1070.8 2545.46C1059.25 2553.6 1050.79 2557.38 1028.09 2561.07C1019.12 2558.12 997.338 2555.42 981.964 2568.24C966.589 2581.07 926.301 2576.12 908.079 2572.04C893.986 2567.82 863.493 2561.15 854.268 2568.24C845.043 2575.33 813.126 2571.2 798.321 2568.24L342.203 2526.89C331.669 2525.76 307.097 2523.17 293.089 2521.82C275.579 2520.14 261.059 2489.33 246.538 2489.33Z" fill="#DEDBDC" stroke="#43090A" stroke-width="8"/>
<path d="M584.783 1293.35C587.175 1271.06 574.96 1241.3 568.554 1229.2L718.885 1143.95C719.739 1172.65 722.814 1241.44 752.197 1261.7C788.926 1287.02 835.05 1303.47 873.06 1306.43C911.07 1309.38 965.308 1354.12 965.308 1410.67V1500.55L392.599 1483.25L379.359 1452.44C384.769 1428.25 396.259 1369.18 420.786 1344.41C442.23 1322.75 539.989 1306.23 584.783 1293.35Z" fill="url(#paint4_linear_2415_1918)" stroke="#43090A" stroke-width="10"/>
<g filter="url(#filter0_f_2415_1918)">
<path d="M589.908 1294.19L730.843 1239.75C730.843 1239.75 722.574 1227.44 720.166 1213.16C717.759 1198.89 715.041 1186.58 715.041 1173.49C642.011 1222.45 579.658 1242.7 579.658 1242.7C581.729 1243.05 589.908 1269.29 589.908 1294.19Z" fill="#E5BAB9"/>
<path d="M589.908 1294.19L730.843 1239.75C730.843 1239.75 722.574 1227.44 720.166 1213.16C717.759 1198.89 715.041 1186.58 715.041 1173.49C642.011 1222.45 579.658 1242.7 579.658 1242.7C581.729 1243.05 589.908 1269.29 589.908 1294.19Z" stroke="#FDD8DE"/>
</g>
<path d="M770.134 1116.94C772.406 1112.87 825.224 1086.81 836.331 1039.29L777.395 1030.85L729.989 1135.51C746.218 1146.2 792.404 1176.42 785.936 1154.5C782.947 1144.38 762.38 1130.86 770.134 1116.94Z" fill="#FD4994" stroke="#43090A" stroke-width="10"/>
<path d="M844.599 439.02C772.895 427.308 726.926 486.369 712.905 517.364L859.144 932.43C854.296 962.501 861.188 1052.08 927.546 1169.84C993.904 1287.59 1114.28 1294.08 1166.17 1282.6C1128.43 1275.01 1092.43 1240.66 1079.15 1224.44C1150.6 1271.62 1234.6 1246.09 1271.52 1224.44C1064.74 1180.92 1093.44 1015.92 1098.94 789.195C1104.45 562.471 934.229 453.66 844.599 439.02Z" fill="url(#paint5_linear_2415_1918)"/>
<path d="M1050.2 1200.3C1059.5 1209.9 1069.2 1217.87 1079.15 1224.44M1079.15 1224.44C1150.6 1271.62 1234.6 1246.09 1271.52 1224.44C1064.74 1180.92 1093.44 1015.92 1098.94 789.195C1104.45 562.471 934.229 453.66 844.599 439.02C772.895 427.308 726.926 486.369 712.905 517.364L859.144 932.43C854.296 962.501 861.188 1052.08 927.546 1169.84C993.904 1287.59 1114.28 1294.08 1166.17 1282.6C1128.43 1275.01 1092.43 1240.66 1079.15 1224.44Z" stroke="#43090A" stroke-width="10"/>
<path d="M337.158 504.984C405.866 471.468 460.952 501.295 479.907 520.398C485.659 701.416 452.941 1072.12 435.592 1150.8C418.337 1229.06 367.486 1263.08 347.354 1272.78C344.077 1276.41 332.495 1281.8 329.315 1283.99C313.236 1295.06 301.993 1310.74 295.98 1320.35C284.514 1301.63 280.675 1278.38 280.92 1255.54C281.26 1223.99 289.385 1193.21 295.98 1176.09C281.304 1193.56 262.865 1204.72 244.998 1211.62C222.763 1220.21 201.415 1222.2 189.311 1221.55C292.216 1164.63 276.633 985.986 260.293 922.353V676.911C257.286 633.567 268.45 538.5 337.158 504.984Z" fill="url(#paint6_linear_2415_1918)"/>
<path d="M377.551 1210.48C372.888 1226.61 361.401 1257.22 347.354 1272.78M347.354 1272.78C344.077 1276.41 332.495 1281.8 329.315 1283.99C313.236 1295.06 301.993 1310.74 295.98 1320.35C284.514 1301.63 280.675 1278.38 280.92 1255.54C281.26 1224 289.385 1193.21 295.98 1176.09C281.304 1193.56 262.865 1204.72 244.998 1211.62C222.763 1220.21 201.415 1222.2 189.311 1221.55C292.216 1164.63 276.633 985.985 260.293 922.353V676.911C257.286 633.567 268.45 538.5 337.158 504.984C405.866 471.468 460.952 501.295 479.907 520.398C485.659 701.416 452.941 1072.12 435.592 1150.8C418.337 1229.06 367.486 1263.08 347.354 1272.78Z" stroke="#43090A" stroke-width="10"/>
<rect x="342.204" y="631.63" width="173.897" height="116.63" fill="#FE368F"/>
<path d="M334.356 986.695C320.842 970.866 298.083 917.839 288.393 893.304C290.881 843.311 313.825 755.925 368.534 735.015C444.484 705.986 541.364 702.295 617.994 758.362C675.085 800.133 762.694 864.416 804.598 917.443C829.741 848.192 925.989 865.604 915.382 961.369C906.896 1037.98 830.395 1058.72 793.206 1059.51C784.943 1079.97 762.572 1117.83 738.206 1146.96C703.244 1188.77 562.995 1249.46 525.281 1249.46C487.568 1249.46 390.141 1164.38 368.534 1135.49C346.927 1106.6 351.249 1006.48 334.356 986.695Z" fill="url(#paint7_linear_2415_1918)" stroke="#43090A" stroke-width="10"/>
<path d="M384.447 1058.01C373.641 1056.06 365.601 1052.46 358.927 1046.12C352.524 1040.03 342.877 998.643 338.904 983.878L336.548 977.535C337.564 956.815 385.896 947.566 416.641 989.031C441.154 1022.09 426.325 1047.7 418.997 1055.63C408.031 1057.22 406.433 1061.98 384.447 1058.01Z" fill="white"/>
<path d="M664.173 1018.51L693.26 975.383V946.106C676.751 938.72 634.377 926.561 596.956 937.006C559.535 947.451 540.221 969.844 535.242 979.736C566.689 1068.99 634.298 1042.78 664.173 1018.51Z" fill="white"/>
<path d="M552.325 978.517C552.327 951.067 557.436 954.647 561.76 948.282L583.775 934.757C591.897 933.488 612.434 942.246 624.268 957.83C635.975 973.249 649.428 998.806 641.172 1018.3C634.079 1035.05 600.945 1042.48 583.775 1034.21C567.264 1026.26 552.324 990.217 552.325 978.517Z" fill="#50C1EF" stroke="#43090A" stroke-width="8"/>
<path d="M408.221 675.059L445.549 712.637L474.625 659.237C490.08 727.272 552.032 872.676 676.197 910.016C648.037 882.328 587.081 810.179 568.535 743.094C596.171 795.438 652.229 901.18 823.545 910.016C821.611 904.793 819.165 898.633 816.262 891.821C853.185 855.747 890.465 879.954 904.489 896.568C922.17 857.408 950.068 601.882 730.029 521.981C553.997 458.06 415.162 533.927 367.749 579.851C341.179 587.179 314.597 612.46 269.516 659.237C208.219 722.842 196.301 837.367 198.003 886.679C198.946 868.009 246.072 796.098 269.516 762.476C225.194 857.092 264.146 949.308 289.163 983.589C287.984 978.579 290.813 958.827 311.56 919.905C332.306 880.983 343.256 771.837 346.137 722.13C342.994 830.036 411.102 892.348 445.549 910.016C388.967 822.995 397.088 717.119 408.221 675.059Z" fill="url(#paint8_linear_2415_1918)"/>
<path d="M429.831 589.62C404.922 578.385 386.338 574.724 367.749 579.851M504.881 589.62C514.311 589.62 541.585 512.117 632.975 562.723C724.857 613.601 755.129 666.713 781.502 712.637C801.246 747.016 813.722 810.865 813.722 841.19C789.203 804.8 747.71 773.551 730.028 762.476C766.797 790.034 799.308 852.04 816.262 891.821M367.749 579.851C341.179 587.179 314.597 612.46 269.516 659.237C208.219 722.842 196.301 837.367 198.003 886.679C198.946 868.009 246.072 796.098 269.516 762.476C225.194 857.092 264.146 949.308 289.163 983.589C287.984 978.579 290.813 958.827 311.56 919.905C332.306 880.983 343.256 771.837 346.137 722.13C342.994 830.036 411.102 892.348 445.549 910.016C388.967 822.995 397.088 717.119 408.221 675.059L445.549 712.637L474.625 659.237C490.08 727.272 552.032 872.676 676.197 910.016C648.037 882.328 587.081 810.179 568.535 743.094C596.171 795.438 652.229 901.18 823.545 910.016C821.611 904.793 819.165 898.633 816.262 891.821M367.749 579.851C415.162 533.927 553.997 458.06 730.028 521.981C950.068 601.882 922.17 857.408 904.489 896.568C890.465 879.954 853.185 855.747 816.262 891.821" stroke="#43090A" stroke-width="10"/>
<path d="M317.433 873.865C332.131 864.312 372.867 850.936 418.223 873.865" stroke="#43090A" stroke-width="10"/>
<path d="M536.951 872.177C556.108 847.467 609.064 805.458 667.637 835.111" stroke="#43090A" stroke-width="10"/>
<path d="M363.239 1033.06C353.907 1017.98 338.698 973.646 344.24 962.951C344.068 957.362 356.485 956.862 371.553 957.802C390.275 958.97 437.445 1047.12 413.109 1054.85C389.794 1062.26 373.476 1049.61 363.239 1033.06Z" fill="#50C1EF" stroke="#43090A" stroke-width="8"/>
<g filter="url(#filter1_f_2415_1918)">
<path d="M392.496 997.069C392.526 997.25 392.556 997.432 392.583 997.613C398.261 1012.62 398.654 1023.81 385.298 1026.07C371.942 1028.33 363.327 1017.5 358.026 1002.9C355.486 987.667 357.248 974.776 366.767 973.166C376.285 971.557 380.862 973.536 392.496 997.069Z" fill="#3B93C1"/>
<path d="M358.026 1002.9C355.486 987.667 357.248 974.776 366.767 973.166C376.285 971.557 380.862 973.536 392.496 997.069C392.526 997.25 392.556 997.432 392.583 997.613C392.084 994.379 395.248 988.415 401.011 997.069C398.538 991.56 396.69 987.701 390.012 978.208C381.08 965.512 370.152 957.306 364.871 957.64C355.104 958.259 347.551 951.663 346.802 966.736C346.016 982.558 352.381 996.583 354.658 1005.1C353.765 995.373 356.417 1000.2 358.026 1002.9Z" fill="#3B93C1"/>
</g>
<g filter="url(#filter2_f_2415_1918)">
<path d="M391.718 991.774C395.632 997.737 395.917 1007.45 391.719 1010.25C387.521 1013.04 389.471 1001.84 385.557 995.874C381.642 989.91 372.064 982.979 376.261 980.185C380.459 977.392 387.803 985.81 391.718 991.774Z" fill="white"/>
</g>
<path d="M364.344 962.038C379.446 960.443 406.556 980.242 418.223 990.341C397.773 941.309 350.186 941.708 338.781 947.289C327.376 952.87 323.05 959.646 323.05 966.024L308.892 977.983L332.095 990.341C341.14 962.038 349.242 963.633 364.344 962.038Z" fill="#43090A"/>
<g filter="url(#filter3_f_2415_1918)">
<path d="M623.972 983.692C624.012 983.929 624.05 984.165 624.086 984.401C624.086 1004.31 621.465 1017.73 607.248 1020.13C595.07 1021.32 579.357 1011.43 571.867 992.501C568.557 972.655 571.646 955.722 586.035 953.289C600.423 950.857 607.248 953.289 623.972 983.692Z" fill="#3B93C1"/>
<path d="M571.867 992.501C568.557 972.655 571.646 955.722 586.035 953.289C600.423 950.857 607.248 953.289 623.972 983.692C624.012 983.929 624.05 984.165 624.086 984.401C623.443 980.186 627.149 972.227 635.534 983.356C631.996 976.23 631.605 970.945 621.39 958.827C607.899 942.82 592.713 938.654 584.749 939.273C570.02 940.418 561.74 940.958 557.752 960.554C553.434 981.774 558.146 986.52 561.287 997.595C560.272 984.889 569.535 989.029 571.867 992.501Z" fill="#3B93C1"/>
</g>
<path d="M600.807 938.405C568.058 942.963 541.656 965.944 534.311 980.106C536.509 965.642 543.361 952.568 548.083 948.633L528.409 956.501C548.083 927.783 592.985 914.856 618.907 914.408C642.983 913.992 675.069 918.122 686.977 922.27L715.306 922.276L700.748 938.405L733.406 943.126L707.437 956.501C701.604 968.043 697.607 974.3 686.977 984.433C690.103 972.68 691.397 966.516 690.518 958.468C686.19 949.814 674.616 942.986 663.762 940.372C638.37 934.258 621.33 935.549 600.807 938.405Z" fill="#43090A"/>
<path d="M353.876 929.429C353.873 931.097 353.869 932.764 353.866 934.431C354.888 934.389 355.91 934.365 356.935 934.359C375.182 934.321 394.708 939.607 407.627 953.65C408.33 954.428 409.006 955.231 409.653 956.058C409.073 955.182 408.461 954.325 407.82 953.49C395.984 938.329 376.264 931.07 357.11 929.611C356.033 929.531 354.956 929.471 353.876 929.429Z" fill="#43090A"/>
<path d="M594.762 902.537C594.852 904.202 594.943 905.866 595.033 907.53C593.871 907.551 592.675 907.602 591.505 907.676C570.966 909.765 546.542 915.406 535.609 934.756C535.158 935.876 534.821 937.044 534.627 938.243C534.738 937.034 534.995 935.835 535.374 934.67C545.236 914.142 569.635 906.622 591.037 902.949C592.265 902.786 593.527 902.646 594.762 902.537Z" fill="#43090A"/>
<g filter="url(#filter4_f_2415_1918)">
<path d="M621.259 972.678C625.514 984.61 623.393 996.298 616.521 998.782C609.65 1001.27 615.429 988.257 611.174 976.325C606.918 964.392 594.24 958.056 601.112 955.572C607.984 953.087 617.004 960.746 621.259 972.678Z" fill="white"/>
</g>
<path d="M571.971 1037.61C573.679 1037.61 626.636 1035.92 653.969 1012.29" stroke="#43090A" stroke-width="5"/>
<path d="M340.856 2746.33C311.473 2692.32 313.808 2511.7 318.648 2428.14L556.957 2404.08L625.289 2823.56L714.121 3104.2C703.53 3156.19 637.959 3162.44 606.498 3159.06C530.193 3043.99 370.239 2800.35 340.856 2746.33Z" fill="url(#paint9_linear_2415_1918)" stroke="#43090A" stroke-width="10"/>
<g filter="url(#filter5_f_2415_1918)">
<ellipse cx="369.11" cy="2726.5" rx="34.5932" ry="36.2931" fill="#FED1D0"/>
</g>
<g filter="url(#filter6_f_2415_1918)">
<path d="M533.318 2455.92L535.285 2562.44L488.262 2617.2C475.905 2541.26 446.921 2514.82 319.994 2522.67C322.13 2460.21 316.818 2440.91 339.64 2382.98L533.318 2455.92Z" fill="url(#paint10_linear_2415_1918)"/>
</g>
<path d="M494.177 2745.49C470.602 2707 526.207 2473.71 556.957 2361.88L898.191 2426.03C841.674 2508.88 727.104 2677.12 720.954 2687.25C714.804 2697.38 714.121 2714.11 720.954 2718.9C829.858 2795.29 870.858 2939.19 874.274 2956.07C877.691 2972.95 920.826 3040.9 930.221 3076.35C939.617 3111.8 850.358 3157.37 833.702 3137.12C820.377 3120.91 687.215 2974.22 622.299 2902.9C589.414 2866.47 517.751 2783.98 494.177 2745.49Z" fill="url(#paint11_linear_2415_1918)" stroke="#43090A" stroke-width="10"/>
<g filter="url(#filter7_f_2415_1918)">
<ellipse cx="536.523" cy="2726.5" rx="34.5932" ry="36.2931" fill="#FED1D0"/>
</g>
<g filter="url(#filter8_f_2415_1918)">
<path d="M868.363 2458.94L797.468 2560.23L734.688 2650.96C783.639 2517.18 723.784 2428.76 527.556 2501.99C529.692 2439.53 536.338 2402.93 559.16 2345L868.363 2458.94Z" fill="url(#paint12_linear_2415_1918)"/>
</g>
<path fill-rule="evenodd" clip-rule="evenodd" d="M603.243 2445.02C602.696 2445.79 602.119 2446.73 601.631 2447.74C602.21 2446.97 602.743 2446.05 603.243 2445.02Z" fill="url(#paint13_linear_2415_1918)"/>
<path fill-rule="evenodd" clip-rule="evenodd" d="M253.236 2453.88H201.987C198.143 2454.16 193.531 2450.92 205.831 2435.73C218.13 2420.54 228.608 2408.58 232.31 2404.5C264.625 2401.27 319.18 2393.91 342.203 2404.5C379.809 2421.8 490.027 2458.44 497.097 2435.73C508.56 2398.91 717.865 2363.9 781.957 2404.5C787.971 2408.31 796.489 2409.87 805.203 2413.1C875.943 2439.38 986.058 2482.15 1036.63 2482.15C1082.07 2482.15 1153.51 2450.64 1154.93 2436.58C1163.99 2452.07 1181.36 2472.91 1187.81 2482.15C1195.35 2492.95 1143.69 2510.29 1130.88 2510.01C1129.63 2518.34 1116.39 2521.19 1108.26 2521.73C1109.65 2524.76 1110.46 2527.68 1110.38 2530.26C1109.95 2544.19 1040.34 2555.16 1028.81 2550.52C1019.58 2546.81 1022.4 2542.78 1024.96 2541.23H973.271C973.233 2544.32 972.849 2547.45 972.006 2550.52C967.564 2566.72 899.81 2543.77 866.488 2530.26V2504.94C864.409 2512.22 862.142 2518.73 860.966 2521.82L808.633 2500.3C805.736 2504.48 802.376 2506.63 798.613 2504.94C787.338 2499.88 748.017 2478.07 729.766 2467.8V2452.19C727.202 2456.15 724.127 2458.28 720.885 2455.99C715.258 2452.02 700.106 2450.99 689.299 2450.25C686.327 2450.05 683.683 2449.87 681.657 2449.66C681.646 2449.71 681.635 2449.77 681.624 2449.83L681.601 2449.94C681.587 2450.01 681.573 2450.08 681.559 2450.15L681.544 2450.22C680.967 2452.97 680.153 2455.04 679.032 2455.99C673.949 2460.29 630.91 2457.58 612.345 2456.42C609.07 2456.21 606.556 2456.05 605.147 2455.99C599.278 2455.72 599.891 2451.33 601.631 2447.74C601.01 2448.56 600.337 2449.22 599.595 2449.66C593.189 2453.46 564.575 2458.1 561.996 2458.1C561.622 2462.36 561.062 2466.33 559.877 2469.49C556.461 2478.61 512.329 2494.67 490.691 2501.57C462.504 2501.99 405.874 2501.06 404.849 2493.97C391.865 2499.97 366.127 2473.12 358.724 2461.26L352.745 2477.09C315.731 2468.87 295.124 2462.93 258.788 2449.52L253.236 2453.88Z" fill="url(#paint14_linear_2415_1918)"/>
<path d="M265.194 2416.74L253.236 2453.88M253.236 2453.88H201.987C198.143 2454.16 193.531 2450.92 205.831 2435.73C218.13 2420.54 228.608 2408.58 232.31 2404.5C264.625 2401.27 319.18 2393.91 342.203 2404.5C379.809 2421.8 490.027 2458.44 497.097 2435.73C508.56 2398.91 717.865 2363.9 781.957 2404.5C787.971 2408.31 796.489 2409.87 805.203 2413.1C875.943 2439.38 986.058 2482.15 1036.63 2482.15C1082.07 2482.15 1153.51 2450.64 1154.93 2436.58C1163.99 2452.07 1181.36 2472.91 1187.81 2482.15C1195.35 2492.95 1143.69 2510.29 1130.88 2510.01M253.236 2453.88L258.788 2449.52M296.798 2419.7L258.788 2449.52M258.788 2449.52C295.124 2462.93 315.731 2468.87 352.745 2477.09L358.724 2461.26M364.703 2445.44L358.724 2461.26M358.724 2461.26C366.127 2473.12 391.865 2499.97 404.849 2493.97M404.849 2493.97C403.824 2486.88 411.255 2469.21 415.098 2461.26M404.849 2493.97C405.873 2501.06 462.504 2501.99 490.691 2501.57M490.691 2501.57C488.641 2485.02 498.663 2465.69 503.93 2458.1M490.691 2501.57C512.329 2494.67 556.461 2478.61 559.877 2469.49C561.062 2466.33 561.622 2462.36 561.996 2458.1M568.846 2428.14C562.674 2433.93 562.969 2447 561.996 2458.1M561.996 2458.1C564.575 2458.1 593.189 2453.46 599.595 2449.66C600.337 2449.22 601.01 2448.56 601.631 2447.74M613.689 2418.85C608.717 2424.42 606.832 2437.61 603.243 2445.02M603.243 2445.02C602.696 2445.79 602.119 2446.73 601.631 2447.74M603.243 2445.02C602.743 2446.05 602.21 2446.97 601.631 2447.74M682.021 2415.9C682.773 2424.71 683.412 2440.75 681.624 2449.83M736.687 2428.14C737.232 2432.45 734.295 2445.19 729.766 2452.19M729.766 2452.19C727.202 2456.15 724.127 2458.28 720.885 2455.99C715.258 2452.02 700.106 2450.99 689.299 2450.25C686.327 2450.05 683.683 2449.87 681.657 2449.66C681.646 2449.71 681.635 2449.77 681.624 2449.83M729.766 2452.19V2467.8C748.017 2478.07 787.338 2499.88 798.613 2504.94C802.376 2506.63 805.736 2504.48 808.633 2500.3M819.967 2465.27C818.354 2475.49 814.417 2491.95 808.633 2500.3M808.633 2500.3L860.966 2521.82C862.142 2518.73 864.409 2512.22 866.488 2504.94M869.081 2494.81C868.334 2498.18 867.43 2501.64 866.488 2504.94M866.488 2504.94V2530.26C899.81 2543.77 967.564 2566.72 972.006 2550.52C972.849 2547.45 973.233 2544.32 973.271 2541.23M963.465 2510.01C967.271 2515.48 973.434 2528.04 973.271 2541.23M973.271 2541.23H1024.96M1024.96 2541.23L1013.86 2510.01M1024.96 2541.23C1022.4 2542.78 1019.58 2546.81 1028.81 2550.52C1040.34 2555.16 1109.95 2544.19 1110.38 2530.26C1110.46 2527.67 1109.65 2524.76 1108.26 2521.73M1086.46 2494.81C1092.69 2500.32 1103.65 2511.7 1108.26 2521.73M1106.11 2521.82C1106.77 2521.81 1107.49 2521.78 1108.26 2521.73M1130.88 2510.01C1132.25 2500.89 1121.77 2491.02 1116.36 2487.22M1130.88 2510.01C1129.63 2518.34 1116.39 2521.19 1108.26 2521.73M601.631 2447.74C599.891 2451.33 599.278 2455.72 605.147 2455.99C606.556 2456.05 609.07 2456.21 612.345 2456.42C630.91 2457.58 673.949 2460.29 679.032 2455.99C680.153 2455.04 680.967 2452.97 681.544 2450.22M681.544 2450.22L681.559 2450.15M681.544 2450.22C681.549 2450.19 681.554 2450.17 681.559 2450.15M681.624 2449.83C681.616 2449.87 681.609 2449.9 681.601 2449.94M681.624 2449.83L681.601 2449.94M681.601 2449.94C681.587 2450.01 681.573 2450.08 681.559 2450.15" stroke="#43090A" stroke-width="8"/>
<path d="M407.118 1972.79C417.368 1950.5 452.673 1902.73 469.044 1881.63L478.867 1867.28C592.469 1858.98 834.793 1854.45 895.267 1902.73C970.859 1963.08 1011 2061.41 1023.39 2112.89C1035.77 2164.38 1071.65 2255.11 1085.32 2290.14C1098.98 2325.17 1167.74 2413.79 1154.93 2438.69C1142.12 2463.59 993.067 2530.26 825.653 2432.78C691.722 2354.79 563.713 2404.22 516.45 2438.69C514.062 2440.43 510.909 2442.24 507.054 2443.9C487.011 2452.53 448.004 2457.16 399.004 2428.56C340.58 2394.46 262.766 2398.03 231.162 2404.08C223.646 2333.18 288.391 2195.61 321.703 2135.68C345.904 2090.67 396.868 1995.07 407.118 1972.79Z" fill="url(#paint15_linear_2415_1918)" stroke="#43090A" stroke-width="10"/>
<g filter="url(#filter9_f_2415_1918)">
<path d="M643.293 1975.32C546.603 1889.9 447.692 1943.53 409.255 1979.12C422.067 1956.33 462.639 1877.49 476.306 1887.96C493.389 1901.04 619.376 1930.16 704.365 1924.67C772.355 1920.28 829.213 1886.7 867.508 1879.94C883.981 1895.54 926.444 1931.85 964.881 1987.98C980.284 2010.47 1000.89 2070.78 1031.08 2157.62C1054.99 2226.41 1071.22 2272.41 1090.87 2309.13C1106.59 2338.5 1118.66 2350.52 1143.4 2404.5C1153.65 2426.87 1156.88 2432.36 1145.11 2444.6C1096.95 2494.65 913.632 2485.96 866.654 2446.28C947.371 2376.23 930.288 2206.58 937.548 2137.79C944.809 2069 885.018 2014.14 840.602 1975.32C805.069 1944.25 694.257 1962.37 643.293 1975.32Z" fill="#242D74"/>
<path d="M502.785 2086.3C518.501 2188.94 450.112 2358.92 413.953 2431.09C439.765 2443.19 445.983 2453.04 504.066 2441.22C531.057 2360.87 626.779 2159.03 671.907 2069.42C669.344 2068.44 660.034 2072.63 643.293 2097.28C622.366 2128.08 551.471 2217.55 549.336 2204.47C547.628 2194 517.59 2121.33 502.785 2086.3Z" fill="#242D74"/>
</g>
<path d="M799.605 1481.99C656.107 1444.51 502.359 1456.24 443.423 1466.79C411.107 1584.82 421.47 1826.01 460.077 1836.48C498.685 1846.94 538.661 1857.44 586.493 1862.64C817.115 1871.76 848.007 1816.36 834.625 1787.52L799.605 1481.99Z" fill="#F9FCFF" stroke="#43090A" stroke-width="10"/>
<path d="M825.227 1831.83C770.846 1877.05 555.176 1881.67 470.755 1842.81L472.462 1884.16C545.065 1936.07 672.832 1944.23 840.175 1892.6L825.227 1831.83Z" fill="url(#paint16_linear_2415_1918)" stroke="#43090A" stroke-width="10"/>
<path d="M453.01 1489.75C453.496 1489.94 453.86 1489.06 454.45 1489.17C455.041 1489.29 455.138 1489.75 455.809 1489.64C456.481 1489.52 457.161 1489.83 457.457 1489.64C457.753 1489.44 457.796 1490.02 458.219 1489.88C458.643 1489.75 458.902 1489.82 459.278 1490C459.654 1490.19 460.801 1490.33 461.213 1490.09C461.625 1489.85 462.107 1490.25 462.394 1490.34C462.484 1490.37 462.554 1490.41 462.609 1490.45C462.632 1490.47 462.643 1490.5 462.644 1490.54C462.644 1490.54 462.644 1490.54 462.644 1490.54C462.645 1490.59 462.629 1490.63 462.6 1490.64C462.459 1490.67 462.249 1490.75 462.001 1490.92C461.541 1491.24 461.483 1490.89 460.856 1491.06C460.229 1491.23 459.856 1491.56 459.111 1491.36C458.366 1491.17 458.212 1492.04 457.156 1491.56C456.1 1491.09 456.007 1492 454.967 1492.13C453.926 1492.27 452.6 1491.79 451.972 1491.84C451.344 1491.89 450.502 1492.01 449.608 1491.9C448.715 1491.8 447.62 1492.12 446.632 1491.92C445.644 1491.72 444.248 1491.47 443.602 1491.3C442.956 1491.13 442.799 1491.09 442.183 1491.21C441.828 1491.28 441.337 1491.23 440.919 1491C440.709 1490.89 440.753 1490.72 440.961 1490.64C441.265 1490.52 441.518 1490.59 441.672 1490.39C441.98 1489.97 442.111 1489.82 442.514 1490.05C442.917 1490.28 443.094 1489.74 443.327 1489.79C443.561 1489.85 443.563 1490.17 444.739 1489.91C445.915 1489.64 446.561 1489.57 447.007 1489.51C447.453 1489.44 448.391 1489.7 449.118 1489.59C449.845 1489.48 451.328 1489.55 451.922 1489.38C452.516 1489.2 452.524 1489.56 453.01 1489.75ZM474.872 1489.42C475.358 1489.61 475.721 1488.72 476.312 1488.84C476.902 1488.95 476.999 1489.42 477.671 1489.3C478.342 1489.19 479.022 1489.5 479.318 1489.3C479.615 1489.1 479.657 1489.68 480.081 1489.55C480.504 1489.41 480.764 1489.48 481.14 1489.67C481.516 1489.85 482.663 1489.99 483.075 1489.76C483.486 1489.52 483.969 1489.91 484.256 1490C484.345 1490.03 484.416 1490.07 484.47 1490.11C484.493 1490.13 484.505 1490.17 484.505 1490.2C484.505 1490.2 484.505 1490.2 484.505 1490.2C484.506 1490.25 484.491 1490.3 484.462 1490.3C484.32 1490.33 484.11 1490.41 483.863 1490.58C483.402 1490.9 483.345 1490.56 482.718 1490.73C482.09 1490.9 481.718 1491.22 480.973 1491.03C480.227 1490.83 480.073 1491.7 479.017 1491.23C477.962 1490.75 477.869 1491.66 476.828 1491.8C475.787 1491.93 474.461 1491.45 473.833 1491.5C473.205 1491.56 472.363 1491.67 471.47 1491.57C470.576 1491.46 469.481 1491.78 468.494 1491.58C467.506 1491.38 466.11 1491.14 465.464 1490.96C464.818 1490.79 464.66 1490.76 464.044 1490.88C463.69 1490.94 463.199 1490.89 462.781 1490.67C462.57 1490.55 462.614 1490.39 462.822 1490.31C463.127 1490.19 463.38 1490.26 463.534 1490.05C463.841 1489.64 463.973 1489.48 464.375 1489.71C464.778 1489.94 464.956 1489.4 465.189 1489.46C465.422 1489.52 465.425 1489.84 466.6 1489.57C467.776 1489.31 468.422 1489.24 468.868 1489.17C469.314 1489.1 470.253 1489.37 470.98 1489.26C471.706 1489.14 473.189 1489.21 473.783 1489.04C474.377 1488.87 474.385 1489.22 474.872 1489.42ZM459.959 1626.62C460.515 1631.98 462.046 1636.03 463.164 1642.45C464.344 1648.89 464.075 1649.97 466.009 1657.2C467.978 1664.46 470.036 1671.66 471.363 1674.74C472.696 1677.82 472.235 1678.32 474.158 1682.69C476.108 1687.02 477.258 1689.66 478.955 1693.43C480.534 1697.31 487.064 1708.3 490.236 1711.75C493.21 1715.31 496.443 1719.49 498.657 1721.8C499.339 1722.52 499.874 1723.09 500.279 1723.54C500.451 1723.72 500.511 1723.83 500.486 1723.86C500.486 1723.86 500.486 1723.86 500.486 1723.86C500.454 1723.89 500.29 1723.8 500.049 1723.58C498.88 1722.51 497.137 1720.9 495.116 1718.92C491.426 1715.2 491.249 1714.57 486.973 1708.93C482.835 1703.2 480.325 1699.66 476.777 1692.11C473.405 1684.48 471.736 1683.09 468.309 1671.8C465.186 1660.45 464.033 1659.51 461.294 1648.09C458.622 1636.65 457.171 1621.91 456.457 1614.9C455.688 1607.9 454.862 1598.45 454.643 1588.47C454.401 1578.49 454.105 1566.15 454.741 1555.14C455.308 1544.13 456.807 1528.68 457.783 1521.55C458.742 1514.37 458.99 1512.68 459.819 1505.8C460.301 1501.89 461.194 1496.5 462.251 1491.95C462.772 1489.74 462.84 1490.26 462.512 1492.54C462.021 1495.97 461.519 1498.66 461.446 1500.47C461.317 1504.04 461.258 1505.52 460.438 1509.88C459.631 1514.25 459.935 1516.39 459.585 1518.96C459.266 1521.56 458.821 1521.43 457.972 1534.59C457.21 1547.78 457.095 1554.91 456.998 1559.93C456.902 1564.89 456.508 1575.31 456.821 1583.43C457.022 1591.54 457.976 1608.03 458.908 1614.62C459.779 1621.21 459.441 1621.26 459.959 1626.62ZM665.158 1621.88C664.343 1627.05 664.681 1631.27 663.554 1637.57C662.389 1643.85 661.776 1644.73 660.433 1651.91C659.064 1659.11 656.922 1666.09 656.216 1669.3C655.512 1672.5 654.885 1672.64 653.625 1677.12C652.35 1681.54 651.33 1684.21 649.739 1687.89C648.218 1691.68 643.044 1702.91 640.977 1706.94C639.047 1711.05 635.985 1715.22 634.154 1717.72C633.59 1718.5 633.124 1719.1 632.757 1719.54C632.601 1719.73 632.505 1719.8 632.475 1719.78C632.475 1719.78 632.475 1719.78 632.474 1719.78C632.437 1719.75 632.501 1719.58 632.677 1719.32C633.531 1718.07 634.762 1716.14 636.061 1713.74C638.388 1709.32 639.027 1709 641.991 1702.9C644.851 1696.74 646.197 1692.88 649.191 1685.47C652.073 1677.97 651.878 1676.03 655.311 1665.26C658.54 1654.43 657.879 1653.05 659.801 1641.98C661.676 1630.9 663.764 1616.84 664.288 1610.06C664.853 1603.29 665.368 1594.18 665.816 1584.57C666.283 1574.95 666.057 1563.05 666.004 1552.41C666.008 1541.75 665.387 1526.73 664.965 1519.77C664.561 1512.81 664.438 1511.11 663.607 1504.48C663.116 1500.64 662.535 1495.47 662.103 1490.92C661.897 1488.73 662.133 1489.18 662.534 1491.39C663.131 1494.72 663.386 1497.34 663.808 1499.07C664.625 1502.38 664.963 1503.92 665.17 1508.16C665.38 1512.54 666.088 1514.43 666.25 1517C666.379 1519.54 666.171 1519.51 667.217 1532.27C668.191 1545.01 668.353 1552.09 668.504 1556.91C668.656 1561.81 668.405 1571.89 668.283 1579.81C668.249 1587.73 667.228 1603.78 666.748 1610.25C666.316 1616.73 665.946 1616.7 665.158 1621.88ZM787.965 1607.11C787.277 1611.97 787.696 1615.91 786.642 1621.8C785.533 1627.68 784.927 1628.49 783.589 1635.18C782.216 1641.89 780.007 1648.37 779.275 1651.35C778.545 1654.3 777.913 1654.43 776.612 1658.56C775.29 1662.66 774.254 1665.1 772.634 1668.5C771.082 1671.97 765.927 1682.3 763.975 1686.05C762.139 1689.85 759.255 1693.74 757.588 1696.09C757.069 1696.83 756.64 1697.4 756.3 1697.82C756.156 1698.01 756.065 1698.07 756.034 1698.05C756.034 1698.05 756.034 1698.05 756.034 1698.05C755.996 1698.03 756.051 1697.86 756.212 1697.61C756.991 1696.41 758.111 1694.57 759.293 1692.35C761.473 1688.17 762.059 1687.93 764.936 1682.26C767.72 1676.56 769.081 1672.99 772.119 1666.18C775.044 1659.3 774.904 1657.44 778.414 1647.52C781.708 1637.5 781.069 1636.18 782.932 1625.88C784.75 1615.58 786.474 1602.42 786.721 1596.1C787.033 1589.77 787.12 1581.26 786.928 1572.29C786.766 1563.34 785.544 1552.22 784.344 1542.45C783.237 1532.54 780.52 1518.77 778.783 1512.54C778.427 1511.19 778.104 1510.05 777.831 1509.12L778.018 1509.34C774.666 1507.51 772.86 1506.57 768.433 1504.39C765.199 1502.79 760.813 1500.47 757.191 1498.34C755.368 1497.27 755.868 1497.35 757.792 1498.25C760.606 1499.57 762.838 1500.8 764.355 1501.35C767.385 1502.45 768.665 1502.94 772.146 1505C775.08 1506.73 776.918 1507.28 778.659 1508.09L779.028 1508.27L779.169 1508.69C779.288 1509.01 779.399 1509.34 779.499 1509.7C780.086 1512.03 780.05 1511.94 783.02 1523.62C785.802 1535.29 786.637 1541.87 787.297 1546.34C787.953 1550.82 788.624 1560.3 789.059 1567.69C789.636 1575.07 789.458 1590.15 789.187 1596.21C788.989 1602.25 788.61 1602.27 787.965 1607.11ZM612.855 1481.09C614.24 1481.21 615.266 1480.27 616.946 1480.3C618.626 1480.33 618.905 1480.78 620.814 1480.56C622.723 1480.35 624.659 1480.56 625.5 1480.31C626.341 1480.07 626.466 1480.65 627.669 1480.45C628.872 1480.25 629.611 1480.28 630.682 1480.41C631.752 1480.54 635.016 1480.51 636.185 1480.21C637.354 1479.91 638.728 1480.23 639.546 1480.28C639.8 1480.3 640.002 1480.33 640.157 1480.36C640.223 1480.38 640.255 1480.41 640.257 1480.45C640.257 1480.45 640.257 1480.45 640.257 1480.45C640.26 1480.49 640.216 1480.54 640.134 1480.55C639.732 1480.6 639.134 1480.71 638.433 1480.92C637.125 1481.31 636.959 1480.97 635.177 1481.24C633.395 1481.5 632.338 1481.88 630.217 1481.8C628.096 1481.71 627.665 1482.61 624.659 1482.29C621.652 1481.97 621.395 1482.89 618.436 1483.19C615.478 1483.48 611.704 1483.19 609.918 1483.34C608.133 1483.48 605.738 1483.73 603.197 1483.75C600.655 1483.78 597.545 1484.26 594.734 1484.21C591.923 1484.16 587.952 1484.12 586.113 1484.05C584.275 1483.97 583.827 1483.96 582.075 1484.17C581.068 1484.29 579.672 1484.31 578.481 1484.14C577.882 1484.06 578.006 1483.89 578.597 1483.78C579.461 1483.61 580.181 1483.65 580.618 1483.42C581.49 1482.96 581.862 1482.78 583.009 1482.95C584.156 1483.12 584.656 1482.55 585.32 1482.58C585.984 1482.6 585.993 1482.92 589.335 1482.48C592.677 1482.04 594.514 1481.87 595.781 1481.74C597.049 1481.61 599.72 1481.73 601.786 1481.51C603.852 1481.29 608.07 1481.14 609.758 1480.88C611.446 1480.62 611.471 1480.97 612.855 1481.09Z" fill="#43090A"/>
<path d="M377.651 1449.07C391.317 1454.47 419.931 1463.84 445.129 1467.21L431.889 1517.01L356.297 1502.66C357.72 1482.55 363.984 1443.67 377.651 1449.07Z" fill="#334399" stroke="#43090A" stroke-width="10"/>
<path d="M20.3765 1459.2C58.1928 1491.87 131.351 1555.46 156.852 1579.05C184.222 1604.36 204.384 1600.9 218.996 1598.39C222.169 1597.85 225.081 1597.35 227.747 1597.19C238.734 1596.57 415.194 1533.92 523.284 1495.05C525.676 1488.29 512.892 1481.27 506.201 1478.61C382.861 1473.21 254.653 1548.38 205.966 1586.64C192.641 1534.99 95.9228 1474.81 49.2291 1451.18L20.3765 1459.2Z" fill="url(#paint17_linear_2415_1918)"/>
<path fill-rule="evenodd" clip-rule="evenodd" d="M556.596 1500.13L690.271 1775.71C610.835 1798.64 418.223 1857.58 380.641 1872.77C349.356 1885.42 323.201 1876.91 309.319 1868.19C306.524 1866.43 304.227 1864.67 302.486 1863.06L191.446 1763.05L6.52148 1459.2L158.988 1600.99C170.519 1609.15 203.66 1621.59 243.976 1606.06C284.292 1590.53 469.188 1528.97 556.596 1500.13Z" fill="url(#paint18_linear_2415_1918)"/>
<path d="M6.52148 1459.2L158.988 1600.99C170.519 1609.15 203.66 1621.59 243.976 1606.06C284.292 1590.53 469.188 1528.97 556.596 1500.13L550.19 1485.36C541.863 1488.37 532.841 1491.62 523.284 1495.05C415.194 1533.92 238.734 1596.57 227.747 1597.19C225.081 1597.35 222.169 1597.85 218.996 1598.39C204.384 1600.9 184.222 1604.36 156.852 1579.05C131.351 1555.46 58.1928 1491.87 20.3765 1459.2C18.6735 1457.73 17.0422 1456.32 15.4901 1454.98L6.52148 1459.2Z" fill="url(#paint19_linear_2415_1918)"/>
<path d="M6.52148 1459.2L158.988 1600.99M6.52148 1459.2L15.4901 1454.98C17.0422 1456.32 18.6735 1457.73 20.3765 1459.2M6.52148 1459.2L191.446 1763.05L302.485 1863.06C304.227 1864.67 306.524 1866.43 309.319 1868.19M158.988 1600.99C170.519 1609.15 203.66 1621.59 243.976 1606.06M158.988 1600.99L309.319 1868.19M243.976 1606.06C284.292 1590.53 469.188 1528.97 556.596 1500.13M243.976 1606.06L380.64 1872.77M556.596 1500.13L550.19 1485.36C541.863 1488.37 532.841 1491.62 523.284 1495.05M556.596 1500.13L690.271 1775.71C610.835 1798.64 418.223 1857.58 380.64 1872.77M380.64 1872.77C349.356 1885.42 323.201 1876.91 309.319 1868.19M20.3765 1459.2C58.1928 1491.87 131.351 1555.46 156.852 1579.05C184.222 1604.36 204.384 1600.9 218.996 1598.39C222.169 1597.85 225.081 1597.35 227.747 1597.19C238.734 1596.57 415.194 1533.92 523.284 1495.05M20.3765 1459.2L49.2291 1451.18C95.9228 1474.81 192.641 1534.99 205.966 1586.64C254.653 1548.38 382.861 1473.21 506.201 1478.61C512.892 1481.27 525.676 1488.29 523.284 1495.05M59.479 1475.66C94.2145 1496.19 167.615 1545.63 183.331 1579.05M240.132 1579.05C271.451 1559.92 348.012 1518.62 403.703 1506.46" stroke="#43090A" stroke-width="8"/>
<path d="M480.149 1636.44C486.128 1633.49 548.909 1624.63 559.158 1622.94C566.425 1621.74 601.626 1631.45 625.782 1639.82C625.782 1639.82 595.745 1587.49 602.72 1588.33C609.696 1589.18 621.511 1595.42 628.345 1603.53C636.886 1613.65 671.052 1619.98 679.594 1651.21C686.427 1676.2 698.1 1694.54 703.083 1700.59C716.607 1712.83 747.414 1737.81 762.447 1739.84C771.016 1740.99 796.815 1746.27 824.373 1754.87L831.206 1708.03L951.214 1748.28C954.531 1792 940.488 1884.53 930.288 1901.89C922.6 1914.97 912.74 1925.67 895.267 1922.99C858.539 1917.34 847.008 1910.33 831.206 1901.89C810.662 1890.92 736.68 1845.34 703.083 1822.13L656.959 1790.38C638.069 1790.49 610.639 1783.59 596.314 1779.08C572.682 1772.75 523.113 1759.42 513.888 1756.72C504.663 1754.02 495.809 1739.08 492.534 1731.95C484.168 1729.64 476.553 1727.24 471.608 1725.07C462.383 1721.01 458.368 1712.02 457.514 1708.03C456.998 1707.93 456.569 1707.85 456.233 1707.76C445.983 1705.23 447.691 1688.77 449.4 1686.24C451.108 1683.71 548.481 1682.86 568.981 1680.33C585.381 1678.31 585.78 1672.17 583.929 1669.36L539.513 1651.21C529.69 1653.6 506.543 1658.3 492.534 1657.97C475.024 1657.54 474.17 1639.4 480.149 1636.44Z" fill="url(#paint20_linear_2415_1918)"/>
<path d="M636.886 1645.3C634.326 1644.39 628.885 1640.89 625.782 1639.82M573.679 1716.63C563.398 1720.9 472.387 1713.38 457.514 1708.03M457.514 1708.03C456.998 1707.93 456.569 1707.85 456.233 1707.76C445.983 1705.23 447.691 1688.77 449.4 1686.24C451.108 1683.71 548.481 1682.86 568.981 1680.33C585.381 1678.31 585.78 1672.17 583.929 1669.36L539.513 1651.21C529.69 1653.6 506.543 1658.3 492.534 1657.97C475.024 1657.54 474.17 1639.4 480.149 1636.44C486.128 1633.49 548.909 1624.63 559.158 1622.94C566.425 1621.74 601.626 1631.45 625.782 1639.82M457.514 1708.03C458.368 1712.02 462.383 1721.01 471.608 1725.07C476.553 1727.24 484.168 1729.64 492.534 1731.95M574.533 1748.28C563.563 1748.07 536.95 1743.21 524.565 1740.68C515.289 1738.78 503.677 1735.02 492.534 1731.95M492.534 1731.95C495.809 1739.08 504.663 1754.02 513.888 1756.72C523.113 1759.42 572.682 1772.75 596.314 1779.08C610.639 1783.59 638.069 1790.49 656.959 1790.38M671.479 1787.95C667.907 1789.63 662.848 1790.35 656.959 1790.38M656.959 1790.38L703.083 1822.13C736.68 1845.34 810.662 1890.92 831.206 1901.89C847.008 1910.33 858.539 1917.34 895.267 1922.99C912.74 1925.67 922.6 1914.97 930.288 1901.89C940.488 1884.53 954.531 1792 951.214 1748.28L831.206 1708.03L824.373 1754.87M625.782 1639.82C625.782 1639.82 595.745 1587.49 602.72 1588.33C609.696 1589.18 621.511 1595.42 628.345 1603.53C636.886 1613.65 671.052 1619.98 679.594 1651.21C686.427 1676.2 698.1 1694.54 703.083 1700.59C716.607 1712.83 747.414 1737.81 762.447 1739.84C771.016 1740.99 796.815 1746.27 824.373 1754.87M904.236 1798.5C892.62 1780.13 857.245 1765.14 824.373 1754.87" stroke="#43090A" stroke-width="10"/>
<path d="M791.061 1745.74L821.81 1709.45H946.089C952.923 1720 967.699 1745.07 972.141 1760.94C977.693 1780.77 990.078 1795.96 984.099 1802.29C979.316 1807.36 955.058 1795.12 946.089 1788.37C939.598 1789.38 922.173 1780.91 916.621 1776.55C905.09 1776.55 882.882 1745.74 878.611 1749.54C874.34 1753.34 860.674 1753.76 851.705 1745.74C842.737 1737.73 827.789 1745.74 815.831 1749.54C806.264 1752.58 795.331 1748.28 791.061 1745.74Z" fill="white"/>
<path d="M878.611 1749.54C874.34 1753.34 860.674 1753.76 851.705 1745.74C842.737 1737.73 827.789 1745.74 815.831 1749.54C806.264 1752.58 795.331 1748.28 791.061 1745.74L821.81 1709.45H946.089C952.923 1720 967.699 1745.07 972.141 1760.94C977.693 1780.77 990.078 1795.96 984.099 1802.29C979.316 1807.36 955.058 1795.12 946.089 1788.37M878.611 1749.54C882.882 1745.74 905.09 1776.55 916.621 1776.55M878.611 1749.54L888.861 1720M916.621 1776.55C925.846 1776.55 920.465 1761.36 916.621 1753.76M916.621 1776.55C922.173 1780.91 939.598 1789.38 946.089 1788.37M946.089 1788.37C954.204 1787.1 929.433 1745.32 929.006 1736.04M849.57 1741.95C851.421 1738.57 855.72 1731.14 858.112 1728.44" stroke="#43090A" stroke-width="10"/>
<path d="M970.86 1479.46C951.044 1489.59 850.424 1485.93 802.592 1482.83C803.019 1507.03 801.567 1560.74 792.342 1582.01C780.811 1608.59 756.468 1714.1 802.592 1720.85C848.716 1727.6 878.611 1693.42 970.86 1757.56C1038.34 1722.54 1020.65 1664.96 1013.99 1652.9C996.057 1620.41 987.943 1571.87 984.953 1538.12C983.879 1525.98 995.63 1466.8 970.86 1479.46Z" fill="url(#paint21_linear_2415_1918)" stroke="#43090A" stroke-width="10"/>
<g filter="url(#filter10_f_2415_1918)">
<path d="M453.447 1382.12C435.028 1400.55 409.187 1409.98 392.172 1416.15C395.588 1407.29 397.549 1392.11 404.984 1379.01C407.974 1368.89 414.807 1359.6 420.359 1351.16C429.255 1340.23 454.952 1330.9 477.587 1324.15C472.274 1337.82 470.431 1365.13 453.447 1382.12Z" fill="#FEC1BF"/>
</g>
<g filter="url(#filter11_f_2415_1918)">
<path d="M961.595 1408.97C910.536 1404.72 863.237 1337.16 863.236 1310.23C896.548 1312.34 915.649 1327.65 934.131 1346.1C951.173 1363.11 959.329 1384.92 961.595 1408.97Z" fill="#FEC1BF"/>
</g>
<g filter="url(#filter12_f_2415_1918)">
<path d="M849.43 959.731C843.466 946.162 871.288 938.576 878.068 937.071C842.875 885.364 823.413 945.408 818.081 981.893C838.087 982.374 840.391 1008.78 839.395 1021.84C860.481 1003.36 858.029 979.294 849.43 959.731Z" fill="#F7BDCE"/>
</g>
<path d="M880.084 934.504C865.826 913.115 833.179 892.368 816.648 980.493C827.651 984.814 846.307 1000.28 832.902 1027.59M849.237 962.157C857.005 965.852 866.671 983.039 843.194 1022.23" stroke="#43090A" stroke-width="10" stroke-linecap="round"/>
<g filter="url(#filter13_f_2415_1918)">
<ellipse cx="5.37925" cy="7.91018" rx="5.37925" ry="7.91018" transform="matrix(0.856504 0.516141 -0.510948 0.859612 290.153 680.83)" fill="white"/>
</g>
<g filter="url(#filter14_f_2415_1918)">
<ellipse cx="5.37925" cy="14.7065" rx="5.37925" ry="14.7065" transform="matrix(0.856504 0.516141 -0.510948 0.859612 279.728 667.712)" fill="white"/>
</g>
<g filter="url(#filter15_f_2415_1918)">
<ellipse cx="6.68271" cy="3.4556" rx="6.68271" ry="3.4556" transform="matrix(0.8423 -0.539008 0.516713 0.856159 805.233 624.52)" fill="white"/>
</g>
<g filter="url(#filter16_f_2415_1918)">
<ellipse cx="6.68271" cy="14.7345" rx="6.68271" ry="14.7345" transform="matrix(0.8423 -0.539008 0.516713 0.856159 811.617 606.092)" fill="white"/>
</g>
<g filter="url(#filter17_f_2415_1918)">
<ellipse cx="6.51505" cy="11.6581" rx="6.51505" ry="11.6581" transform="matrix(0.987086 -0.160191 0.158061 0.987429 1001.65 858.503)" fill="white"/>
</g>
<g filter="url(#filter18_f_2415_1918)">
<ellipse cx="6.52482" cy="4.3653" rx="6.52482" ry="4.3653" transform="matrix(0.868981 -0.494845 0.489722 0.871879 1036.32 857.676)" fill="white"/>
</g>
<g filter="url(#filter19_f_2415_1918)">
<ellipse cx="6.51505" cy="21.4946" rx="6.51505" ry="21.4946" transform="matrix(0.987086 -0.160191 0.158061 0.987429 1057.62 828.014)" fill="white"/>
</g>
<g filter="url(#filter20_f_2415_1918)">
<path d="M984.364 1166.09C938.502 1101.72 901.869 1010.64 901.869 1010.64C901.869 1010.64 893.229 1020.53 887.336 1026.46C881.749 1032.09 875.946 1036.75 875.946 1036.75C881.057 1052.17 880.66 1058.5 926.226 1156.99C948.796 1205.78 987.637 1234.34 1002.43 1243.61C1066.81 1283.96 1109.68 1281.59 1147.39 1281.59C1129.32 1276.84 1022.4 1219.47 984.364 1166.09Z" fill="#FE3A8E"/>
</g>
<g filter="url(#filter21_f_2415_1918)">
<path d="M1058.61 1202.48C1013.04 1164.9 989.267 1069.95 989.196 1066.2C1013.38 1116.11 1087.29 1214.74 1105.75 1233.33C1080.21 1224.63 1070.28 1211.04 1058.61 1202.48Z" fill="#FE3A8E"/>
</g>
<g filter="url(#filter22_f_2415_1918)">
<ellipse cx="6.52219" cy="3.90232" rx="6.52219" ry="3.90232" transform="matrix(0.965019 0.26218 -0.258845 0.965919 310.722 1010.98)" fill="white"/>
</g>
<g filter="url(#filter23_f_2415_1918)">
<ellipse cx="6.51913" cy="17.4082" rx="6.51913" ry="17.4082" transform="matrix(0.999975 -0.00707359 0.0069771 0.999976 281.198 1010.34)" fill="white"/>
</g>
<g filter="url(#filter24_f_2415_1918)">
<path d="M673.615 2078.29C621.084 2165.22 513.462 2332.34 504.067 2446.28C500.225 2353.44 619.748 2142.49 673.615 2078.29Z" fill="#181D53"/>
</g>
<path d="M477.161 1087.4L460.932 1103.44" stroke="#43090A" stroke-width="5" stroke-linecap="round"/>
<g filter="url(#filter25_f_2415_1918)">
<path d="M552.292 1165.86C553.454 1169.5 546.52 1177.44 530.278 1179.61C514.036 1181.78 499.6 1178.25 498.437 1174.6C503.579 1175.3 511.111 1177.01 527.241 1175.02C543.601 1171.44 546.336 1168.54 552.292 1165.86Z" fill="#FF93BD"/>
</g>
<g filter="url(#filter26_f_2415_1918)">
<ellipse cx="3.63739" cy="1.2797" rx="3.63739" ry="1.2797" transform="matrix(0.953315 -0.301978 0.602571 0.798065 539.533 1173.69)" fill="white"/>
</g>
<g filter="url(#filter27_f_2415_1918)">
<path d="M549.295 1163.38C545.403 1165.28 539.475 1170.19 523.39 1172.61C507.647 1173.81 504.484 1172.65 497.56 1171.54C502.266 1171.58 511.872 1166.24 520.937 1164.81C537.014 1162.26 543.337 1163.54 549.295 1163.38Z" fill="#FF93BD"/>
</g>
<path d="M483.218 1169.22C498.558 1175.56 536.686 1181.3 566.478 1153.53" stroke="#43090A" stroke-width="7" stroke-linecap="round"/>
<g filter="url(#filter28_f_2415_1918)">
<ellipse cx="29.7885" cy="15.9977" rx="29.7885" ry="15.9977" transform="matrix(0.840439 0.541907 -0.536654 0.843802 370.648 1055.34)" fill="#FED1D0"/>
</g>
<g filter="url(#filter29_f_2415_1918)">
<ellipse cx="40.6035" cy="24.7373" rx="40.6035" ry="24.7373" transform="matrix(0.842571 -0.538585 0.533338 0.845902 661.457 1043.7)" fill="#FED1D0"/>
</g>
<path d="M580.945 1288.28C580.94 1311.07 594.61 1375.21 615.538 1405.18C647.569 1395.89 739.657 1328.23 753.484 1262.11" stroke="#43090A" stroke-width="5"/>
<path d="M614.171 1407.55C571.63 1413.15 556.789 1486.5 592.53 1501.39C628.272 1516.29 646.735 1443.77 614.171 1407.55Z" fill="url(#paint22_linear_2415_1918)" stroke="#43090A" stroke-width="10"/>
<g filter="url(#filter30_f_2415_1918)">
<path d="M612.126 1414.39C600.94 1420.21 604.036 1432.68 612.279 1432.4C620.523 1432.12 623.562 1420.46 612.126 1414.39Z" fill="white"/>
</g>
<path d="M536.096 1358.34C555.314 1365.93 588.626 1376.9 609.126 1371M664.219 1371C679.166 1374.79 740.238 1368.46 759.457 1362.98" stroke="#43090A" stroke-opacity="0.62" stroke-width="2" stroke-linecap="round"/>
<path d="M680.448 3384.84C680.448 3365.59 655.108 3266.53 642.438 3219.41L637.74 3202.53L737.676 3154.42L781.238 3210.97L791.915 3389.48L720.166 3431.68C706.927 3424.09 680.448 3404.08 680.448 3384.84Z" fill="#FFDFDD"/>
<path d="M904.663 3350.66C908.763 3311.16 881.601 3217.72 867.507 3175.94L944.808 3112.22L984.099 3133.32L1010.58 3253.17L1007.59 3375.55L918.757 3410.16C912.35 3406.78 900.563 3390.16 904.663 3350.66Z" fill="#FFDFDD"/>
<path d="M680.448 3384.84C680.448 3365.59 655.108 3266.53 642.438 3219.41L637.74 3202.53L737.676 3154.42L781.238 3210.97L791.915 3389.48L720.166 3431.68C706.927 3424.09 680.448 3404.08 680.448 3384.84Z" stroke="#43090A" stroke-width="10"/>
<path d="M904.663 3350.66C908.763 3311.16 881.601 3217.72 867.507 3175.94L944.808 3112.22L984.099 3133.32L1010.58 3253.17L1007.59 3375.55L918.757 3410.16C912.35 3406.78 900.563 3390.16 904.663 3350.66Z" stroke="#43090A" stroke-width="10"/>
<path d="M934.985 3083.52C913.802 3139.9 862.382 3143.59 837.611 3141.34L872.205 3189.87C907.51 3181.71 974.447 3155.1 959.755 3113.91L934.985 3083.52Z" fill="#1E2D7B" stroke="#43090A" stroke-width="10"/>
<path d="M638.168 3210.13L604.429 3154C632.046 3161.17 697.873 3160.16 714.614 3105.47L737.677 3154C710.418 3211.42 656.082 3215.16 638.168 3210.13Z" fill="#1E2D7B" stroke="#43090A" stroke-width="10" stroke-linecap="round"/>
<path d="M680.066 3388.64C699 3416.77 742.334 3450.84 764.2 3362.05C786.067 3273.26 759.645 3189.17 743.701 3158.22C774.735 3174.82 839.28 3218.23 849.189 3259.08C859.097 3299.93 827.408 3335.04 821.811 3329.56C821.054 3328.81 820.4 3327.8 819.836 3326.61C823.907 3344.93 835.955 3410.69 824.418 3442.23C811.606 3477.26 797.085 3521.15 747.971 3531.28C698.858 3541.41 669.389 3470.51 680.066 3388.64Z" fill="#1F2B7A"/>
<path d="M989.27 3324.91C969.795 3397.84 924.496 3383.71 904.281 3367.54C878.657 3500.47 943.145 3531.28 992.686 3500.89C1032.32 3476.58 1050.03 3436.49 1054.99 3384.84C1057.78 3355.86 1050.75 3312.24 1048.16 3300.44C1045.39 3287.78 1039.19 3275.54 1041.33 3271.74C1041.33 3271.74 1048.54 3304.23 1051.58 3300.44C1063.06 3286.09 1083.57 3263.55 1081.52 3229.12C1079.47 3194.68 1004.88 3138.52 964.454 3116.44C983.103 3154.42 1008.74 3251.99 989.27 3324.91Z" fill="#1F2B7A"/>
<path d="M680.066 3388.64C699 3416.77 742.334 3450.84 764.2 3362.05C786.067 3273.26 759.645 3189.17 743.701 3158.22C774.735 3174.82 839.28 3218.23 849.189 3259.08C859.097 3299.93 827.408 3335.04 821.811 3329.56C821.054 3328.81 820.4 3327.8 819.836 3326.61C823.907 3344.93 835.955 3410.69 824.418 3442.23C811.606 3477.26 797.085 3521.15 747.971 3531.28C698.858 3541.41 669.389 3470.51 680.066 3388.64Z" stroke="#43090A" stroke-width="10"/>
<path d="M989.27 3324.91C969.795 3397.84 924.496 3383.71 904.281 3367.54C878.657 3500.47 943.145 3531.28 992.686 3500.89C1032.32 3476.58 1050.03 3436.49 1054.99 3384.84C1057.78 3355.86 1050.75 3312.24 1048.16 3300.44C1045.39 3287.78 1039.19 3275.54 1041.33 3271.74C1041.33 3271.74 1048.54 3304.23 1051.58 3300.44C1063.06 3286.09 1083.57 3263.55 1081.52 3229.12C1079.47 3194.68 1004.88 3138.52 964.454 3116.44C983.103 3154.42 1008.74 3251.99 989.27 3324.91Z" stroke="#43090A" stroke-width="10"/>
<defs>
<filter id="filter0_f_2415_1918" x="539.404" y="1132.46" width="232.304" height="202.562" filterUnits="userSpaceOnUse" color-interpolation-filters="sRGB">
<feFlood flood-opacity="0" result="BackgroundImageFix"/>
<feBlend mode="normal" in="SourceGraphic" in2="BackgroundImageFix" result="shape"/>
<feGaussianBlur stdDeviation="20.05" result="effect1_foregroundBlur_2415_1918"/>
</filter>
<filter id="filter1_f_2415_1918" x="336.235" y="946.225" width="75.2754" height="90.6421" filterUnits="userSpaceOnUse" color-interpolation-filters="sRGB">
<feFlood flood-opacity="0" result="BackgroundImageFix"/>
<feBlend mode="normal" in="SourceGraphic" in2="BackgroundImageFix" result="shape"/>
<feGaussianBlur stdDeviation="5.25" result="effect1_foregroundBlur_2415_1918"/>
</filter>
<filter id="filter2_f_2415_1918" x="366.919" y="971.333" width="36.143" height="47.6527" filterUnits="userSpaceOnUse" color-interpolation-filters="sRGB">
<feFlood flood-opacity="0" result="BackgroundImageFix"/>
<feBlend mode="normal" in="SourceGraphic" in2="BackgroundImageFix" result="shape"/>
<feGaussianBlur stdDeviation="4.15" result="effect1_foregroundBlur_2415_1918"/>
</filter>
<filter id="filter3_f_2415_1918" x="545.515" y="928.715" width="100.52" height="102.016" filterUnits="userSpaceOnUse" color-interpolation-filters="sRGB">
<feFlood flood-opacity="0" result="BackgroundImageFix"/>
<feBlend mode="normal" in="SourceGraphic" in2="BackgroundImageFix" result="shape"/>
<feGaussianBlur stdDeviation="5.25" result="effect1_foregroundBlur_2415_1918"/>
</filter>
<filter id="filter4_f_2415_1918" x="590.809" y="946.804" width="40.9438" height="60.5858" filterUnits="userSpaceOnUse" color-interpolation-filters="sRGB">
<feFlood flood-opacity="0" result="BackgroundImageFix"/>
<feBlend mode="normal" in="SourceGraphic" in2="BackgroundImageFix" result="shape"/>
<feGaussianBlur stdDeviation="4.15" result="effect1_foregroundBlur_2415_1918"/>
</filter>
<filter id="filter5_f_2415_1918" x="309.817" y="2665.51" width="118.587" height="121.986" filterUnits="userSpaceOnUse" color-interpolation-filters="sRGB">
<feFlood flood-opacity="0" result="BackgroundImageFix"/>
<feBlend mode="normal" in="SourceGraphic" in2="BackgroundImageFix" result="shape"/>
<feGaussianBlur stdDeviation="12.35" result="effect1_foregroundBlur_2415_1918"/>
</filter>
<filter id="filter6_f_2415_1918" x="297.194" y="2360.18" width="260.891" height="279.817" filterUnits="userSpaceOnUse" color-interpolation-filters="sRGB">
<feFlood flood-opacity="0" result="BackgroundImageFix"/>
<feBlend mode="normal" in="SourceGraphic" in2="BackgroundImageFix" result="shape"/>
<feGaussianBlur stdDeviation="11.4" result="effect1_foregroundBlur_2415_1918"/>
</filter>
<filter id="filter7_f_2415_1918" x="477.23" y="2665.51" width="118.587" height="121.986" filterUnits="userSpaceOnUse" color-interpolation-filters="sRGB">
<feFlood flood-opacity="0" result="BackgroundImageFix"/>
<feBlend mode="normal" in="SourceGraphic" in2="BackgroundImageFix" result="shape"/>
<feGaussianBlur stdDeviation="12.35" result="effect1_foregroundBlur_2415_1918"/>
</filter>
<filter id="filter8_f_2415_1918" x="504.756" y="2322.2" width="386.407" height="351.559" filterUnits="userSpaceOnUse" color-interpolation-filters="sRGB">
<feFlood flood-opacity="0" result="BackgroundImageFix"/>
<feBlend mode="normal" in="SourceGraphic" in2="BackgroundImageFix" result="shape"/>
<feGaussianBlur stdDeviation="11.4" result="effect1_foregroundBlur_2415_1918"/>
</filter>
<filter id="filter9_f_2415_1918" x="386.655" y="1857.34" width="788.56" height="644.396" filterUnits="userSpaceOnUse" color-interpolation-filters="sRGB">
<feFlood flood-opacity="0" result="BackgroundImageFix"/>
<feBlend mode="normal" in="SourceGraphic" in2="BackgroundImageFix" result="shape"/>
<feGaussianBlur stdDeviation="11.3" result="effect1_foregroundBlur_2415_1918"/>
</filter>
<filter id="filter10_f_2415_1918" x="349.072" y="1281.05" width="171.615" height="178.199" filterUnits="userSpaceOnUse" color-interpolation-filters="sRGB">
<feFlood flood-opacity="0" result="BackgroundImageFix"/>
<feBlend mode="normal" in="SourceGraphic" in2="BackgroundImageFix" result="shape"/>
<feGaussianBlur stdDeviation="21.55" result="effect1_foregroundBlur_2415_1918"/>
</filter>
<filter id="filter11_f_2415_1918" x="820.136" y="1267.13" width="184.558" height="184.947" filterUnits="userSpaceOnUse" color-interpolation-filters="sRGB">
<feFlood flood-opacity="0" result="BackgroundImageFix"/>
<feBlend mode="normal" in="SourceGraphic" in2="BackgroundImageFix" result="shape"/>
<feGaussianBlur stdDeviation="21.55" result="effect1_foregroundBlur_2415_1918"/>
</filter>
<filter id="filter12_f_2415_1918" x="814.081" y="912.95" width="67.9873" height="112.892" filterUnits="userSpaceOnUse" color-interpolation-filters="sRGB">
<feFlood flood-opacity="0" result="BackgroundImageFix"/>
<feBlend mode="normal" in="SourceGraphic" in2="BackgroundImageFix" result="shape"/>
<feGaussianBlur stdDeviation="2" result="effect1_foregroundBlur_2415_1918"/>
</filter>
<filter id="filter13_f_2415_1918" x="271.59" y="670.06" width="38.2578" height="40.6934" filterUnits="userSpaceOnUse" color-interpolation-filters="sRGB">
<feFlood flood-opacity="0" result="BackgroundImageFix"/>
<feBlend mode="normal" in="SourceGraphic" in2="BackgroundImageFix" result="shape"/>
<feGaussianBlur stdDeviation="6.5" result="effect1_foregroundBlur_2415_1918"/>
</filter>
<filter id="filter14_f_2415_1918" x="255.005" y="657.185" width="43.6309" height="51.8916" filterUnits="userSpaceOnUse" color-interpolation-filters="sRGB">
<feFlood flood-opacity="0" result="BackgroundImageFix"/>
<feBlend mode="normal" in="SourceGraphic" in2="BackgroundImageFix" result="shape"/>
<feGaussianBlur stdDeviation="6.5" result="effect1_foregroundBlur_2415_1918"/>
</filter>
<filter id="filter15_f_2415_1918" x="793.741" y="606.215" width="37.8135" height="35.3228" filterUnits="userSpaceOnUse" color-interpolation-filters="sRGB">
<feFlood flood-opacity="0" result="BackgroundImageFix"/>
<feBlend mode="normal" in="SourceGraphic" in2="BackgroundImageFix" result="shape"/>
<feGaussianBlur stdDeviation="6.5" result="effect1_foregroundBlur_2415_1918"/>
</filter>
<filter id="filter16_f_2415_1918" x="802.391" y="588.983" width="44.9375" height="52.2451" filterUnits="userSpaceOnUse" color-interpolation-filters="sRGB">
<feFlood flood-opacity="0" result="BackgroundImageFix"/>
<feBlend mode="normal" in="SourceGraphic" in2="BackgroundImageFix" result="shape"/>
<feGaussianBlur stdDeviation="6.5" result="effect1_foregroundBlur_2415_1918"/>
</filter>
<filter id="filter17_f_2415_1918" x="990.229" y="844.411" width="39.3828" height="49.1191" filterUnits="userSpaceOnUse" color-interpolation-filters="sRGB">
<feFlood flood-opacity="0" result="BackgroundImageFix"/>
<feBlend mode="normal" in="SourceGraphic" in2="BackgroundImageFix" result="shape"/>
<feGaussianBlur stdDeviation="6.5" result="effect1_foregroundBlur_2415_1918"/>
</filter>
<filter id="filter18_f_2415_1918" x="1025.07" y="840.262" width="38.123" height="35.9824" filterUnits="userSpaceOnUse" color-interpolation-filters="sRGB">
<feFlood flood-opacity="0" result="BackgroundImageFix"/>
<feBlend mode="normal" in="SourceGraphic" in2="BackgroundImageFix" result="shape"/>
<feGaussianBlur stdDeviation="6.5" result="effect1_foregroundBlur_2415_1918"/>
</filter>
<filter id="filter19_f_2415_1918" x="1047.17" y="813.944" width="40.5488" height="68.501" filterUnits="userSpaceOnUse" color-interpolation-filters="sRGB">
<feFlood flood-opacity="0" result="BackgroundImageFix"/>
<feBlend mode="normal" in="SourceGraphic" in2="BackgroundImageFix" result="shape"/>
<feGaussianBlur stdDeviation="6.5" result="effect1_foregroundBlur_2415_1918"/>
</filter>
<filter id="filter20_f_2415_1918" x="855.546" y="990.242" width="312.242" height="311.77" filterUnits="userSpaceOnUse" color-interpolation-filters="sRGB">
<feFlood flood-opacity="0" result="BackgroundImageFix"/>
<feBlend mode="normal" in="SourceGraphic" in2="BackgroundImageFix" result="shape"/>
<feGaussianBlur stdDeviation="10.2" result="effect1_foregroundBlur_2415_1918"/>
</filter>
<filter id="filter21_f_2415_1918" x="973.696" y="1050.7" width="147.552" height="198.13" filterUnits="userSpaceOnUse" color-interpolation-filters="sRGB">
<feFlood flood-opacity="0" result="BackgroundImageFix"/>
<feBlend mode="normal" in="SourceGraphic" in2="BackgroundImageFix" result="shape"/>
<feGaussianBlur stdDeviation="7.75" result="effect1_foregroundBlur_2415_1918"/>
</filter>
<filter id="filter22_f_2415_1918" x="296.63" y="999.315" width="38.751" height="34.2803" filterUnits="userSpaceOnUse" color-interpolation-filters="sRGB">
<feFlood flood-opacity="0" result="BackgroundImageFix"/>
<feBlend mode="normal" in="SourceGraphic" in2="BackgroundImageFix" result="shape"/>
<feGaussianBlur stdDeviation="6.5" result="effect1_foregroundBlur_2415_1918"/>
</filter>
<filter id="filter23_f_2415_1918" x="268.318" y="997.292" width="39.04" height="60.8159" filterUnits="userSpaceOnUse" color-interpolation-filters="sRGB">
<feFlood flood-opacity="0" result="BackgroundImageFix"/>
<feBlend mode="normal" in="SourceGraphic" in2="BackgroundImageFix" result="shape"/>
<feGaussianBlur stdDeviation="6.5" result="effect1_foregroundBlur_2415_1918"/>
</filter>
<filter id="filter24_f_2415_1918" x="491.077" y="2065.39" width="195.438" height="393.794" filterUnits="userSpaceOnUse" color-interpolation-filters="sRGB">
<feFlood flood-opacity="0" result="BackgroundImageFix"/>
<feBlend mode="normal" in="SourceGraphic" in2="BackgroundImageFix" result="shape"/>
<feGaussianBlur stdDeviation="6.45" result="effect1_foregroundBlur_2415_1918"/>
</filter>
<filter id="filter25_f_2415_1918" x="479.837" y="1147.26" width="91.1785" height="51.617" filterUnits="userSpaceOnUse" color-interpolation-filters="sRGB">
<feFlood flood-opacity="0" result="BackgroundImageFix"/>
<feBlend mode="normal" in="SourceGraphic" in2="BackgroundImageFix" result="shape"/>
<feGaussianBlur stdDeviation="9.3" result="effect1_foregroundBlur_2415_1918"/>
</filter>
<filter id="filter26_f_2415_1918" x="535.019" y="1166.91" width="17.5064" height="13.4" filterUnits="userSpaceOnUse" color-interpolation-filters="sRGB">
<feFlood flood-opacity="0" result="BackgroundImageFix"/>
<feBlend mode="normal" in="SourceGraphic" in2="BackgroundImageFix" result="shape"/>
<feGaussianBlur stdDeviation="2.6" result="effect1_foregroundBlur_2415_1918"/>
</filter>
<filter id="filter27_f_2415_1918" x="478.96" y="1144.6" width="88.9354" height="47.1224" filterUnits="userSpaceOnUse" color-interpolation-filters="sRGB">
<feFlood flood-opacity="0" result="BackgroundImageFix"/>
<feBlend mode="normal" in="SourceGraphic" in2="BackgroundImageFix" result="shape"/>
<feGaussianBlur stdDeviation="9.3" result="effect1_foregroundBlur_2415_1918"/>
</filter>
<filter id="filter28_f_2415_1918" x="342.325" y="1045.64" width="89.5473" height="78.6869" filterUnits="userSpaceOnUse" color-interpolation-filters="sRGB">
<feFlood flood-opacity="0" result="BackgroundImageFix"/>
<feBlend mode="normal" in="SourceGraphic" in2="BackgroundImageFix" result="shape"/>
<feGaussianBlur stdDeviation="9.15" result="effect1_foregroundBlur_2415_1918"/>
</filter>
<filter id="filter29_f_2415_1918" x="638.785" y="979.089" width="140.154" height="127.335" filterUnits="userSpaceOnUse" color-interpolation-filters="sRGB">
<feFlood flood-opacity="0" result="BackgroundImageFix"/>
<feBlend mode="normal" in="SourceGraphic" in2="BackgroundImageFix" result="shape"/>
<feGaussianBlur stdDeviation="16.7" result="effect1_foregroundBlur_2415_1918"/>
</filter>
<filter id="filter30_f_2415_1918" x="599.666" y="1409.19" width="25.1559" height="28.4127" filterUnits="userSpaceOnUse" color-interpolation-filters="sRGB">
<feFlood flood-opacity="0" result="BackgroundImageFix"/>
<feBlend mode="normal" in="SourceGraphic" in2="BackgroundImageFix" result="shape"/>
<feGaussianBlur stdDeviation="2.6" result="effect1_foregroundBlur_2415_1918"/>
</filter>
<linearGradient id="paint0_linear_2415_1918" x1="347.131" y1="150.713" x2="393.311" y2="1639.26" gradientUnits="userSpaceOnUse">
<stop offset="0.514423" stop-color="#FBE4EB"/>
<stop offset="1" stop-color="white"/>
</linearGradient>
<linearGradient id="paint1_linear_2415_1918" x1="107.016" y1="2168.94" x2="718.79" y2="2029.45" gradientUnits="userSpaceOnUse">
<stop offset="0.379808" stop-color="#FBE4EB"/>
<stop offset="1" stop-color="white"/>
</linearGradient>
<linearGradient id="paint2_linear_2415_1918" x1="1144.66" y1="86.6284" x2="1154.92" y2="1612.21" gradientUnits="userSpaceOnUse">
<stop offset="0.514423" stop-color="#FBE4EB"/>
<stop offset="1" stop-color="white"/>
</linearGradient>
<linearGradient id="paint3_linear_2415_1918" x1="1535.48" y1="2142.92" x2="783.168" y2="1970.72" gradientUnits="userSpaceOnUse">
<stop offset="0.379808" stop-color="#FBE4EB"/>
<stop offset="1" stop-color="white"/>
</linearGradient>
<linearGradient id="paint4_linear_2415_1918" x1="648.418" y1="1044.36" x2="672.188" y2="1650.81" gradientUnits="userSpaceOnUse">
<stop stop-color="#FFD4D1"/>
<stop offset="0.5" stop-color="#FFF1F0"/>
<stop offset="1" stop-color="#FFD4D1"/>
</linearGradient>
<linearGradient id="paint5_linear_2415_1918" x1="992.213" y1="437.505" x2="992.213" y2="1286.59" gradientUnits="userSpaceOnUse">
<stop stop-color="#FD4994"/>
<stop offset="0.504808" stop-color="#FE80B3"/>
<stop offset="1" stop-color="#FD4994"/>
</linearGradient>
<linearGradient id="paint6_linear_2415_1918" x1="327.296" y1="489.834" x2="327.296" y2="1320.35" gradientUnits="userSpaceOnUse">
<stop stop-color="#FD4994"/>
<stop offset="0.504808" stop-color="#FE80B3"/>
<stop offset="1" stop-color="#FD4994"/>
</linearGradient>
<linearGradient id="paint7_linear_2415_1918" x1="494.639" y1="595.324" x2="661.158" y2="1381.14" gradientUnits="userSpaceOnUse">
<stop offset="0.169598" stop-color="#FFD4D1"/>
<stop offset="0.480769" stop-color="#FFF1F0"/>
<stop offset="1" stop-color="#FFD4D1"/>
</linearGradient>
<linearGradient id="paint8_linear_2415_1918" x1="523.426" y1="506.519" x2="727.555" y2="1126.38" gradientUnits="userSpaceOnUse">
<stop offset="0.0961538" stop-color="#FD4994"/>
<stop offset="0.447115" stop-color="#FF93BD"/>
<stop offset="0.826923" stop-color="#FD4994"/>
</linearGradient>
<linearGradient id="paint9_linear_2415_1918" x1="391.678" y1="2316.3" x2="666.07" y2="3374.21" gradientUnits="userSpaceOnUse">
<stop stop-color="#FFD4D1"/>
<stop offset="0.471154" stop-color="#FFF1F0"/>
<stop offset="0.932692" stop-color="#FFD4D1"/>
</linearGradient>
<linearGradient id="paint10_linear_2415_1918" x1="598.63" y1="2486.63" x2="597.477" y2="2568.66" gradientUnits="userSpaceOnUse">
<stop stop-color="#EDACB6"/>
<stop offset="1" stop-color="#F8C4CC"/>
</linearGradient>
<linearGradient id="paint11_linear_2415_1918" x1="650.486" y1="2186.32" x2="885.906" y2="3339.11" gradientUnits="userSpaceOnUse">
<stop stop-color="#FFD4D1"/>
<stop offset="0.495192" stop-color="#FFF1F0"/>
<stop offset="0.985577" stop-color="#FFD4D1"/>
</linearGradient>
<linearGradient id="paint12_linear_2415_1918" x1="818.149" y1="2448.65" x2="816.997" y2="2530.68" gradientUnits="userSpaceOnUse">
<stop stop-color="#EDACB6"/>
<stop offset="1" stop-color="#F8C4CC"/>
</linearGradient>
<linearGradient id="paint13_linear_2415_1918" x1="197.852" y1="2484.11" x2="1172.87" y2="2484.11" gradientUnits="userSpaceOnUse">
<stop stop-color="#F7F5F7"/>
<stop offset="1" stop-color="#6F6D6F"/>
</linearGradient>
<linearGradient id="paint14_linear_2415_1918" x1="572.398" y1="2261.02" x2="554.883" y2="2759.85" gradientUnits="userSpaceOnUse">
<stop offset="0.163457" stop-color="white"/>
<stop offset="1" stop-color="#CFCBCF"/>
</linearGradient>
<linearGradient id="paint15_linear_2415_1918" x1="639.875" y1="1968.14" x2="610.265" y2="2456.88" gradientUnits="userSpaceOnUse">
<stop stop-color="#1F2D7B"/>
<stop offset="0.846154" stop-color="#2A398B"/>
</linearGradient>
<linearGradient id="paint16_linear_2415_1918" x1="533.347" y1="1884.33" x2="794.149" y2="1924.49" gradientUnits="userSpaceOnUse">
<stop offset="0.211571" stop-color="#4A2E2E"/>
<stop offset="0.475962" stop-color="#634040"/>
<stop offset="0.875" stop-color="#4A2E2E"/>
</linearGradient>
<linearGradient id="paint17_linear_2415_1918" x1="348.396" y1="1451.18" x2="348.396" y2="1879.18" gradientUnits="userSpaceOnUse">
<stop offset="0.125" stop-color="white"/>
<stop offset="0.908654" stop-color="#3D3737"/>
</linearGradient>
<linearGradient id="paint18_linear_2415_1918" x1="348.396" y1="1451.18" x2="348.396" y2="1879.18" gradientUnits="userSpaceOnUse">
<stop stop-color="#8D605A"/>
<stop offset="1" stop-color="#5C2E28"/>
</linearGradient>
<linearGradient id="paint19_linear_2415_1918" x1="348.396" y1="1451.18" x2="348.396" y2="1879.18" gradientUnits="userSpaceOnUse">
<stop offset="1" stop-color="#6B3B34"/>
</linearGradient>
<linearGradient id="paint20_linear_2415_1918" x1="406.265" y1="1686.66" x2="948.482" y2="2023.71" gradientUnits="userSpaceOnUse">
<stop stop-color="#FFD4D1"/>
<stop offset="0.495192" stop-color="#FFF1F0"/>
<stop offset="0.942308" stop-color="#FFD4D1"/>
</linearGradient>
<linearGradient id="paint21_linear_2415_1918" x1="891.357" y1="1477.8" x2="888.92" y2="1885.85" gradientUnits="userSpaceOnUse">
<stop offset="0.1875" stop-color="#33439A"/>
<stop offset="1" stop-color="#1E2C7A"/>
</linearGradient>
<linearGradient id="paint22_linear_2415_1918" x1="605.379" y1="1405.67" x2="617.181" y2="1494.71" gradientUnits="userSpaceOnUse">
<stop offset="0.598789" stop-color="#D60926"/>
<stop offset="1" stop-color="#700514"/>
</linearGradient>
</defs>
</svg>
