<svg width="510" height="484" viewBox="0 0 510 484" fill="none" xmlns="http://www.w3.org/2000/svg">
<ellipse cx="251.5" cy="262" rx="225.5" ry="222" fill="white"/>
<ellipse cx="251" cy="262" rx="205" ry="202" fill="#E399BC"/>
<path d="M498.128 2.15082C454.628 19.1508 382.128 125.651 381.128 126.651C367.128 136.251 305.961 245.317 277.128 298.65C270.128 345.317 263.594 434.473 286.128 443.65C316.633 456.074 344.281 434.738 361.628 419.65C375.83 407.299 412.628 355.65 430.628 323.15C445.028 297.15 465.628 231.65 474.128 202.15C483.461 166.151 503.028 84.5508 506.628 46.1508C510.228 7.75082 502.461 0.817483 498.128 2.15082Z" fill="url(#paint0_linear_4154_2811)" stroke="#43090A" stroke-width="3" stroke-linecap="round"/>
<path d="M11.4254 6.15082C54.9254 23.1508 127.425 129.651 128.425 130.651C142.425 140.251 203.592 249.317 232.425 302.65C239.425 349.317 246.423 439.707 223.425 447.65C192.586 458.303 164.9 436.821 148.169 423.839L147.925 423.65C133.055 412.113 96.9254 359.65 78.9254 327.15C64.5255 301.15 43.9254 235.65 35.4254 206.15C26.0921 170.151 6.52545 88.5508 2.92545 50.1508C-0.674561 11.7508 7.09212 4.81748 11.4254 6.15082Z" fill="url(#paint1_linear_4154_2811)" stroke="#43090A" stroke-width="3" stroke-linecap="round"/>
<path d="M229 300.5C234.2 296.1 231.167 283.333 229 277.5L272.5 275C271.5 281.5 270.1 295.7 272.5 300.5C275.5 306.5 301.605 309.55 326 315.5C340.842 319.12 345.5 332 353 345.5C347.167 346.833 335.3 347.2 308.5 356C281.7 364.8 214 358 183.5 353.5L148.5 345.5C153.5 337.333 169.1 319.5 173.5 315.5C179 310.5 222.5 306 229 300.5Z" fill="url(#paint2_linear_4154_2811)" stroke="#43090A" stroke-width="3"/>
<path d="M316 353.5C272.4 362.7 212.333 358.333 188.5 354.5C182.833 362.333 179 379 182 396C185.765 417.333 189.157 425 190.157 434C210.197 445.896 307.082 442.201 309.657 435.5C309.657 435.5 318.657 405 319.657 398.5C320.657 392 323.999 374.5 316 353.5Z" fill="url(#paint3_linear_4154_2811)" stroke="#43090A" stroke-width="3"/>
<path d="M139.5 105.384C155.066 90.6027 180.167 91.0318 191 94.5318L174.5 169.884V235.384C174.5 265.884 164 285.884 160.5 292.384C157 298.884 132 312.884 123 323.884C115.8 332.684 115.667 341.218 116.5 344.384C106.9 337.984 105.5 319.051 106 310.384C99.2 315.984 88.5 316.384 84 315.884C99.6 309.084 106.167 281.384 107.5 268.384C109 254.551 112.3 218.684 113.5 185.884C115 144.884 132.5 112.032 139.5 105.384Z" fill="url(#paint4_linear_4154_2811)"/>
<path d="M330 89.8844C324.596 91.6994 318.5 96.8844 318 97.3844C324.833 131.384 330.8 199.632 328 216.032C324.5 236.532 337 265.384 342.5 281.884C348 298.384 373 305.884 385.5 318.884C395.5 329.284 393.667 340.884 391.5 345.384C404.3 335.784 402.5 317.718 400 309.884C409.2 317.084 419.5 317.218 423.5 316.384C418.333 310.551 406.7 296.184 401.5 285.384C395 271.884 398.296 216.862 396.5 194.884C395 176.532 386.5 138.884 384 127.884C381.5 116.884 375.932 99.3634 361 92.0326C350.107 86.6846 337.371 87.409 330 89.8844Z" fill="url(#paint5_linear_4154_2811)"/>
<path d="M139.5 105.384C155.066 90.6027 180.167 91.0318 191 94.5318L174.5 169.884V235.384C174.5 265.884 164 285.884 160.5 292.384C157 298.884 132 312.884 123 323.884C115.8 332.684 115.667 341.218 116.5 344.384C106.9 337.984 105.5 319.051 106 310.384C99.2 315.984 88.5 316.384 84 315.884C99.6 309.084 106.167 281.384 107.5 268.384C109 254.551 112.3 218.684 113.5 185.884C115 144.884 132.5 112.032 139.5 105.384Z" stroke="#43090A" stroke-width="3"/>
<path d="M330 89.8844C324.596 91.6994 318.5 96.8844 318 97.3844C324.833 131.384 330.8 199.632 328 216.032C324.5 236.532 337 265.384 342.5 281.884C348 298.384 373 305.884 385.5 318.884C395.5 329.284 393.667 340.884 391.5 345.384C404.3 335.784 402.5 317.718 400 309.884C409.2 317.084 419.5 317.218 423.5 316.384C418.333 310.551 406.7 296.184 401.5 285.384C395 271.884 398.296 216.862 396.5 194.884C395 176.532 386.5 138.884 384 127.884C381.5 116.884 375.932 99.3634 361 92.0326C350.107 86.6846 337.371 87.409 330 89.8844Z" stroke="#43090A" stroke-width="3"/>
<g filter="url(#filter0_f_4154_2811)">
<path d="M234.397 292.632L232.5 279.408V275L269.5 277.939C269.5 282.836 269.31 292.926 268.551 294.101C267.603 295.571 249.577 299.489 247.679 299.979C246.162 300.371 238.192 295.244 234.397 292.632Z" fill="#EBBDC2"/>
</g>
<path d="M191 246.19C188.159 241.397 176.5 201.69 170.5 182.69L167 147.69C172.5 140.523 188.5 125.69 208.5 123.69C228.5 121.69 239.833 119.334 245 121.001C309.4 109.001 337 153 341.5 171C332.833 198 317.054 248.43 312.5 254.19C300 270 261 284.69 249 285.19C237 285.69 198 258 191 246.19Z" fill="url(#paint6_linear_4154_2811)" stroke="#43090A" stroke-width="3"/>
<path d="M157.164 189.998C157.425 183.46 165.208 181.304 169.164 181.998L185.664 232.998C185.164 232.998 182.726 233.679 179.164 231.498C171 226.5 163.509 218.027 160.664 211.498C157.538 204.323 156.905 196.512 157.164 189.998Z" fill="#FDECEA" stroke="#43090A" stroke-width="3"/>
<path d="M350.009 190.017C349.85 183.476 342.102 181.199 338.135 181.831L320.841 232.567C321.341 232.575 323.769 233.293 327.364 231.169C335.605 226.298 343.227 217.944 346.174 211.46C349.411 204.335 350.166 196.534 350.009 190.017Z" fill="#FDECEA" stroke="#43090A" stroke-width="3"/>
<path fill-rule="evenodd" clip-rule="evenodd" d="M321 179.238C314.823 174.019 304.618 163.425 297.845 151.238C303.665 159.586 318.067 174.785 337 182.599C342.634 184.924 348.67 186.596 355 187.238C352.815 184.366 349.742 180.054 346.647 175.238C341.479 167.194 336.251 157.742 335 151.238C338.005 153.241 343.19 156.339 348.449 158.738C352.816 160.729 357.234 162.238 360.5 162.238C357.251 158.478 352.759 152.873 348.449 146.756C341.487 136.873 335 118.738 335 118.738C335 118.738 325.289 105.251 316 94.5352C311.757 89.64 307.601 85.3232 304.5 83.1346C303.211 82.225 302.075 81.3985 301.048 80.6522C295.048 76.2887 292.822 74.6703 286 75.24C284.141 75.3952 282.329 75.7423 280.564 76.2387C274.216 72.6373 258.543 77.7392 251.5 80.7403C244.663 76.2659 231.109 76.5461 223.36 77.4282C219.842 76.2718 215.92 75.7651 211.5 76.2387C205.245 76.9088 196.594 83.7676 188 92.8905C177.36 104.185 166.808 118.951 161 129.738C152.6 145.337 147.833 166.571 146.5 175.238C148.667 169.754 154.6 157.583 161 152.771C157.95 168.851 161.124 186.41 163.5 194.238C163.21 193.223 163.271 187.845 171 181.917C172.154 181.032 173.479 180.135 175 179.238C186.879 172.23 195.905 150.017 198.051 134.341C198.322 159.325 214.584 171.913 223.5 175.238C216.816 166.228 217.395 142.523 220.722 124.74C223.118 111.928 227.989 100.507 230.5 103.238C232.026 104.897 232.647 105.713 234.929 108.712C237.133 111.609 240.886 116.542 248.5 126.238C251.483 123.906 259.304 119.942 266.724 122.74C274.324 142.372 290.448 171.851 321 179.238Z" fill="url(#paint7_linear_4154_2811)"/>
<path d="M230.5 103.238C227.989 100.507 223.118 111.928 220.722 124.74C234.899 119.14 245.148 123.405 248.5 126.238C240.886 116.542 237.133 111.609 234.929 108.712C232.647 105.713 232.026 104.897 230.5 103.238Z" fill="url(#paint8_linear_4154_2811)"/>
<path d="M248.5 126.238C252.333 117.904 260.2 101.938 261 104.738C261.329 105.888 263.006 113.135 266.724 122.74M248.5 126.238C245.148 123.405 234.899 119.14 220.722 124.74M248.5 126.238C251.483 123.906 259.304 119.942 266.724 122.74M248.5 126.238C240.886 116.542 237.133 111.609 234.929 108.712C232.647 105.713 232.026 104.897 230.5 103.238C227.989 100.507 223.118 111.928 220.722 124.74M291 129.738C291.289 136.958 294.019 144.352 297.845 151.238M297.845 151.238C304.618 163.425 314.823 174.019 321 179.238C290.448 171.851 274.324 142.372 266.724 122.74M297.845 151.238C303.665 159.586 318.067 174.785 337 182.599C342.634 184.924 348.67 186.596 355 187.238C352.815 184.366 349.742 180.054 346.647 175.238C341.479 167.194 336.251 157.742 335 151.238C338.005 153.241 343.19 156.339 348.449 158.738C352.816 160.729 357.234 162.238 360.5 162.238C357.251 158.478 352.759 152.873 348.449 146.756C341.487 136.873 335 118.738 335 118.738C335 118.738 325.289 105.251 316 94.5352C311.757 89.64 307.601 85.3232 304.5 83.1346C303.211 82.225 302.075 81.3985 301.048 80.6522C295.048 76.2887 292.822 74.6703 286 75.24C284.141 75.3952 282.329 75.7423 280.564 76.2387M255.5 90.7377C262.683 86.0898 270.937 78.9456 280.564 76.2387M163.5 143.738C162.403 146.641 161.587 149.679 161 152.771M241.5 90.7377C236.71 85.4917 230.984 79.9343 223.36 77.4282M161 152.771C157.95 168.851 161.124 186.41 163.5 194.238C163.21 193.223 163.271 187.845 171 181.917C172.154 181.032 173.479 180.135 175 179.238C186.879 172.23 195.905 150.017 198.051 134.341M161 152.771C154.6 157.583 148.667 169.754 146.5 175.238C147.833 166.571 152.6 145.337 161 129.738C166.808 118.951 177.36 104.185 188 92.8905C196.594 83.7676 205.245 76.9088 211.5 76.2387C215.92 75.7651 219.842 76.2718 223.36 77.4282M221 77.7403C221.703 77.6326 222.495 77.5266 223.36 77.4282M280.564 76.2387C274.216 72.6373 258.543 77.7392 251.5 80.7403C244.663 76.2659 231.109 76.5461 223.36 77.4282M220.722 124.74C217.395 142.523 216.816 166.228 223.5 175.238C214.584 171.913 198.322 159.325 198.051 134.341M198.051 134.341C198.46 131.352 198.619 128.601 198.5 126.238C198.164 129.072 198.023 131.772 198.051 134.341Z" stroke="#43090A" stroke-width="3"/>
<path d="M211.315 400.463C211.981 400.44 212.647 400.417 213.313 400.394C213.274 399.722 213.238 399.078 213.204 398.409C212.367 386.533 213.963 374.668 216.361 362.958C216.491 362.297 216.615 361.667 216.749 361C216.583 361.659 216.426 362.283 216.263 362.937C213.286 374.48 211.061 386.417 211.304 398.458C211.305 399.134 211.308 399.784 211.315 400.463Z" fill="#43090A"/>
<path d="M213.314 400.41C212.647 400.422 211.981 400.434 211.314 400.446C211.343 401.127 211.399 401.819 211.472 402.502C213.147 414.645 217.334 425.983 221.837 437.124C222.094 437.738 222.359 438.36 222.62 438.964C222.39 438.348 222.156 437.713 221.93 437.088C217.993 425.781 214.386 414.127 213.366 402.346C213.329 401.693 213.309 401.039 213.314 400.41Z" fill="#43090A"/>
<path d="M288.055 400.462C287.389 400.439 286.722 400.416 286.056 400.393C286.096 399.721 286.132 399.077 286.166 398.408C287.002 386.532 285.407 374.667 283.009 362.957C282.879 362.296 282.754 361.666 282.62 360.999C282.787 361.658 282.944 362.282 283.107 362.936C286.084 374.479 288.308 386.416 288.065 398.457C288.065 399.133 288.062 399.783 288.055 400.462Z" fill="#43090A"/>
<path d="M286.056 400.409C286.722 400.421 287.389 400.433 288.055 400.445C288.026 401.126 287.97 401.818 287.897 402.502C286.223 414.644 282.035 425.982 277.532 437.123C277.275 437.737 277.011 438.359 276.749 438.963C276.98 438.347 277.213 437.712 277.439 437.087C281.376 425.78 284.984 414.126 286.004 402.345C286.041 401.692 286.061 401.038 286.056 400.409Z" fill="#43090A"/>
<path d="M310 436.5C279.5 446 208.036 444.5 190.036 435C189.536 440 188.236 450.1 187.036 450.5C185.536 451 231.036 471.5 308.536 456.5L310 436.5Z" fill="url(#paint9_linear_4154_2811)" stroke="#43090A" stroke-width="3"/>
<path d="M188 355.5C188.833 355 191.7 349.2 192.5 344" stroke="#43090A" stroke-width="3" stroke-linecap="round"/>
<path d="M316.5 354.5C315.667 353.333 313.8 349.6 313 344" stroke="#43090A" stroke-width="3" stroke-linecap="round"/>
<path d="M250.256 213.816C249.844 215.037 248.741 217.913 247.619 219.65C246.497 221.388 247.715 225.342 248.464 227.102" stroke="#43090A" stroke-width="2" stroke-linecap="round"/>
<path d="M273 160.076C278.833 155.743 295.4 150.176 315 162.576" stroke="#43090A" stroke-width="3" stroke-linecap="round"/>
<path d="M181 166C184 165 195.5 151.077 227 160.077" stroke="#43090A" stroke-width="3" stroke-linecap="round"/>
<g filter="url(#filter1_f_4154_2811)">
<path d="M176 209C175.667 212 175.6 217.6 174 218C172.492 218.377 167.313 208.717 164.489 203C164.16 202.833 163.6 201.7 164 198.5C164.5 194.5 166 197.5 170 198.5C173.2 199.3 175.5 206 176 209Z" fill="#F3D0CB"/>
</g>
<g filter="url(#filter2_f_4154_2811)">
<path d="M331 209.521C331.333 212.521 331.4 218.122 333 218.522C334.508 218.899 339.687 209.239 342.511 203.521C342.84 203.355 343.4 202.222 343 199.022C342.5 195.022 341 198.022 337 199.022C333.8 199.822 331.5 206.521 331 209.521Z" fill="#F3D0CB"/>
</g>
<path d="M164.227 200.463C163.727 198.13 163.727 194.163 167.727 196.963C171.727 199.763 175.727 203.796 177.227 205.463M174.227 203.463C173.06 206.63 171.627 213.963 175.227 217.963" stroke="#43090A" stroke-width="3" stroke-linecap="round"/>
<path d="M344 200.463C344.5 198.13 344.5 194.163 340.5 196.963C336.5 199.763 332.5 203.796 331 205.463M334 203.463C335.167 206.63 336.6 213.963 333 217.963" stroke="#43090A" stroke-width="3" stroke-linecap="round"/>
<path d="M270.267 246.257C258.453 242.871 238.517 242.719 228.619 246.772C229.408 252.748 235.752 264.392 244.95 266.056C255.498 267.964 268.663 261.641 270.267 246.257Z" fill="#59171B" stroke="#43090A" stroke-width="3" stroke-linecap="round"/>
<path d="M248.007 251.13C241.863 250.429 233.87 248.604 232.713 247.316C246.019 242.75 262.23 245.78 268.672 247.866C262.964 249.554 254.152 251.831 248.007 251.13Z" fill="white"/>
<path d="M250.964 255.016C244.409 254.302 239.733 257.944 237.946 260.177C248.462 268.321 256.592 262.826 262.118 259.717C260.796 258.215 257.519 255.73 250.964 255.016Z" fill="#DA7B85"/>
<g filter="url(#filter3_f_4154_2811)">
<ellipse cx="231.434" cy="326.5" rx="10.4474" ry="4.64521" transform="rotate(24.0529 231.434 326.5)" fill="#FFB9CF"/>
</g>
<g filter="url(#filter4_f_4154_2811)">
<ellipse cx="10.4474" cy="4.64521" rx="10.4474" ry="4.64521" transform="matrix(-0.913169 0.40758 0.40758 0.913169 274.081 320)" fill="#FFB9CF"/>
</g>
<path d="M208 318C215.5 319.333 231.3 322.5 234.5 324.5C237.7 326.5 238.833 327.667 239 328" stroke="#43090A" stroke-linecap="round"/>
<path d="M289 319C281.5 320.333 265.7 323.5 262.5 325.5C259.3 327.5 258.167 328.667 258 329" stroke="#43090A" stroke-linecap="round"/>
<g filter="url(#filter5_f_4154_2811)">
<ellipse cx="17.6083" cy="10.9989" rx="17.6083" ry="10.9989" transform="matrix(-0.930612 0.366007 0.252018 0.967723 318.773 205)" fill="#F39EB9"/>
</g>
<g filter="url(#filter6_f_4154_2811)">
<ellipse cx="17.6083" cy="10.9989" rx="17.6083" ry="10.9989" transform="matrix(0.930612 0.366007 -0.252018 0.967723 182.544 205)" fill="#F39EB9"/>
</g>
<g filter="url(#filter7_f_4154_2811)">
<path d="M228.754 196.618C228.353 201.93 221.883 199.657 213.5 198C205.117 196.343 189.1 204.33 189.5 199.018C189.9 193.706 203.117 186.343 211.5 188C219.883 189.657 229.154 191.306 228.754 196.618Z" fill="#F4AAC1"/>
</g>
<g filter="url(#filter8_f_4154_2811)">
<path d="M268.011 200.303C269.057 205.526 275.201 202.479 283.319 199.811C291.437 197.142 308.309 203.112 307.263 197.889C306.217 192.666 292.2 186.972 284.082 189.641C275.964 192.31 266.965 195.079 268.011 200.303Z" fill="#F4AAC1"/>
</g>
<path d="M235.5 350C237.238 341.743 243.833 337.5 246.5 336.5C257.5 341 259.5 351.5 259 359C258.5 366.5 250.5 371 244.5 370C238.5 369 233.5 359.5 235.5 350Z" fill="#D9142A"/>
<path d="M221.5 305C221.5 306.5 234.5 336.5 246.5 336.5M246.5 336.5C258.5 336.5 275.5 317 279 305.5M246.5 336.5C243.833 337.5 237.238 341.743 235.5 350C233.5 359.5 238.5 369 244.5 370C250.5 371 258.5 366.5 259 359C259.5 351.5 257.5 341 246.5 336.5Z" stroke="#43090A" stroke-width="3" stroke-linecap="round"/>
<path d="M145.676 347.027C149.201 341.868 164.277 349.89 169.444 351.223C164.777 360.057 159.035 374.785 153.945 373.724C146.418 372.154 139.655 391.901 138.945 392.724C135.336 396.903 125.97 375.928 131.945 372.224C136.142 369.622 141.981 352.434 145.676 347.027Z" fill="#181D53" stroke="#43090A" stroke-width="3" stroke-linecap="round"/>
<path d="M353.752 346.027C350.227 340.868 335.151 348.89 329.984 350.223C334.651 359.057 340.393 373.785 345.484 372.724C353.01 371.154 359.773 390.901 360.484 391.724C364.093 395.903 373.459 374.928 367.483 371.224C363.286 368.622 357.447 351.434 353.752 346.027Z" fill="#181D53" stroke="#43090A" stroke-width="3" stroke-linecap="round"/>
<path d="M158.496 369.725C157.068 375.117 153.739 386.003 151.352 388.423C152.037 387.886 153.322 386.91 152.945 387.225C153.271 393.364 155.849 406.233 154.945 407.225C153.374 408.948 147.445 403.725 145.445 401.725L142.496 396.725C141.162 396.558 138.896 395.125 140.496 390.725C142.496 385.225 151.996 369.725 158.496 369.725Z" fill="#DEDBDE"/>
<path d="M142.496 396.725C141.162 396.558 138.896 395.125 140.496 390.725C142.496 385.225 151.996 369.725 158.496 369.725C156.996 375.391 153.396 387.125 150.996 388.725C150.551 389.021 153.491 386.769 152.945 387.225M142.496 396.725L145.445 401.725C147.445 403.725 153.374 408.948 154.945 407.225C155.849 406.233 153.271 393.364 152.945 387.225M142.496 396.725C143.989 395.095 150.547 389.228 152.945 387.225" stroke="#43090A" stroke-width="3" stroke-linecap="round"/>
<path d="M340.933 368.725C342.36 374.117 345.689 385.003 348.076 387.423C347.391 386.886 346.106 385.91 346.483 386.225C346.157 392.364 343.58 405.233 344.483 406.225C346.054 407.948 351.983 402.725 353.983 400.725L356.933 395.725C358.266 395.558 360.533 394.125 358.933 389.725C356.933 384.225 347.433 368.725 340.933 368.725Z" fill="#DEDBDE"/>
<path d="M356.933 395.725C358.266 395.558 360.533 394.125 358.933 389.725C356.933 384.225 347.433 368.725 340.933 368.725C342.433 374.391 346.033 386.125 348.433 387.725C348.878 388.021 345.937 385.769 346.483 386.225M356.933 395.725L353.983 400.725C351.983 402.725 346.054 407.948 344.483 406.225C343.58 405.233 346.157 392.364 346.483 386.225M356.933 395.725C355.439 394.095 348.882 388.228 346.483 386.225" stroke="#43090A" stroke-width="3" stroke-linecap="round"/>
<path d="M155.715 409.068C148.215 401.568 158.215 375.068 159.215 372.068C173.215 346.468 195.381 307.401 204.715 291.068C200.715 289.068 179.715 261.568 178.215 258.568C176.715 255.568 170.215 229.568 169.715 227.568C169.315 225.968 171.215 224.568 172.215 224.068C171.881 222.735 171.815 221.023 172.215 220.223C172.715 219.223 176.252 217.645 178.215 221.225C179.945 224.38 180 224.91 180.445 227.225C179.839 224.068 184.796 222.355 185.945 225.724C187.691 230.842 189.945 236.724 200.215 250.568C226.031 271.767 231.344 281.446 233.215 287.568C235.281 294.33 221.715 320.568 220.215 328.068C218.715 335.568 197.215 394.568 185.715 406.068C174.215 417.568 163.215 416.568 155.715 409.068Z" fill="url(#paint10_linear_4154_2811)"/>
<path d="M180.445 227.225C180 224.91 179.945 224.38 178.215 221.225C176.252 217.645 172.715 219.223 172.215 220.223C171.815 221.023 171.881 222.735 172.215 224.068C171.215 224.568 169.315 225.968 169.715 227.568C170.215 229.568 176.715 255.568 178.215 258.568C179.715 261.568 200.715 289.068 204.715 291.068C195.381 307.401 173.215 346.468 159.215 372.068C158.215 375.068 148.215 401.568 155.715 409.068C163.215 416.568 174.215 417.568 185.715 406.068C197.215 394.568 218.715 335.568 220.215 328.068C221.715 320.568 235.281 294.33 233.215 287.568C231.344 281.446 226.031 271.767 200.215 250.568C189.945 236.724 187.691 230.842 185.945 225.724C184.796 222.355 179.839 224.068 180.445 227.225ZM180.445 227.225C181.445 228.826 180.945 229.826 180.445 227.225Z" stroke="#43090A" stroke-width="3" stroke-linecap="round"/>
<path d="M172.445 224.724C175.612 235.557 182.545 257.324 184.945 259.724" stroke="#43090A" stroke-width="3" stroke-linecap="round"/>
<path d="M178.445 221.725C181.279 230.558 189.745 256.424 192.945 259.224" stroke="#43090A" stroke-width="3" stroke-linecap="round"/>
<path d="M343.714 408.068C351.214 400.568 341.214 374.068 340.214 371.068C326.214 345.468 304.047 306.401 294.714 290.068C298.714 288.068 319.714 260.568 321.214 257.568C322.714 254.568 329.214 228.568 329.714 226.568C330.114 224.968 328.214 223.568 327.214 223.068C327.547 221.735 327.614 220.023 327.214 219.223C326.714 218.223 323.177 216.645 321.214 220.225C319.483 223.38 319.428 223.91 318.983 226.225C319.59 223.068 314.632 221.355 313.483 224.724C311.737 229.842 309.483 235.724 299.214 249.568C273.397 270.767 268.085 280.446 266.214 286.568C264.147 293.33 277.714 319.568 279.214 327.068C280.714 334.568 302.214 393.568 313.714 405.068C325.214 416.568 336.214 415.568 343.714 408.068Z" fill="url(#paint11_linear_4154_2811)"/>
<path d="M318.983 226.225C319.428 223.91 319.483 223.38 321.214 220.225C323.177 216.645 326.714 218.223 327.214 219.223C327.614 220.023 327.547 221.735 327.214 223.068C328.214 223.568 330.114 224.968 329.714 226.568C329.214 228.568 322.714 254.568 321.214 257.568C319.714 260.568 298.714 288.068 294.714 290.068C304.047 306.401 326.214 345.468 340.214 371.068C341.214 374.068 351.214 400.568 343.714 408.068C336.214 415.568 325.214 416.568 313.714 405.068C302.214 393.568 280.714 334.568 279.214 327.068C277.714 319.568 264.147 293.33 266.214 286.568C268.085 280.446 273.397 270.767 299.214 249.568C309.483 235.724 311.737 229.842 313.483 224.724C314.632 221.355 319.59 223.068 318.983 226.225ZM318.983 226.225C317.983 227.826 318.483 228.826 318.983 226.225Z" stroke="#43090A" stroke-width="3" stroke-linecap="round"/>
<path d="M326.983 223.724C323.816 234.557 316.883 256.324 314.483 258.724" stroke="#43090A" stroke-width="3" stroke-linecap="round"/>
<path d="M320.983 220.725C318.15 229.558 309.683 255.424 306.483 258.224" stroke="#43090A" stroke-width="3" stroke-linecap="round"/>
<path d="M308.793 205.559C311.336 203.639 314.819 199.957 315 199.312L309.31 198.351C306.471 195.951 300.962 193.541 294.827 193.066C284.337 192.254 274.975 199.184 272.586 201.718C271.223 203.164 270 205.719 270 207C274.666 203.529 285.249 200.359 291.724 200.273C298.199 200.187 305.707 202.402 308.793 205.559Z" fill="#43090A"/>
<path d="M191.207 205.559C188.664 203.639 185.181 199.957 185 199.312L190.69 198.351C193.529 195.951 199.038 193.541 205.173 193.066C215.663 192.254 225.025 199.184 227.414 201.718C228.777 203.164 230 205.719 230 207C225.334 203.529 214.751 200.359 208.276 200.273C201.801 200.187 194.293 202.402 191.207 205.559Z" fill="#43090A"/>
<path d="M214 189C217.393 189.167 225.143 190.6 229 195" stroke="#43090A" stroke-linecap="round"/>
<path d="M286 189C282.607 189.167 274.857 190.6 271 195" stroke="#43090A" stroke-linecap="round"/>
<g filter="url(#filter9_f_4154_2811)">
<path d="M251.5 343.363C251.5 345.734 248.867 341.778 246.5 341.778C244.133 341.778 241.5 345.734 241.5 343.363C242.214 342.279 244.714 339.61 246.5 339C248.286 339.61 250.071 341.556 251.5 343.363Z" fill="white"/>
</g>
<defs>
<filter id="filter0_f_4154_2811" x="222.8" y="265.3" width="56.4" height="44.4" filterUnits="userSpaceOnUse" color-interpolation-filters="sRGB">
<feFlood flood-opacity="0" result="BackgroundImageFix"/>
<feBlend mode="normal" in="SourceGraphic" in2="BackgroundImageFix" result="shape"/>
<feGaussianBlur stdDeviation="4.85" result="effect1_foregroundBlur_4154_2811"/>
</filter>
<filter id="filter1_f_4154_2811" x="162.161" y="194.779" width="15.5387" height="24.9322" filterUnits="userSpaceOnUse" color-interpolation-filters="sRGB">
<feFlood flood-opacity="0" result="BackgroundImageFix"/>
<feBlend mode="normal" in="SourceGraphic" in2="BackgroundImageFix" result="shape"/>
<feGaussianBlur stdDeviation="0.85" result="effect1_foregroundBlur_4154_2811"/>
</filter>
<filter id="filter2_f_4154_2811" x="329.3" y="195.3" width="15.5387" height="24.9322" filterUnits="userSpaceOnUse" color-interpolation-filters="sRGB">
<feFlood flood-opacity="0" result="BackgroundImageFix"/>
<feBlend mode="normal" in="SourceGraphic" in2="BackgroundImageFix" result="shape"/>
<feGaussianBlur stdDeviation="0.85" result="effect1_foregroundBlur_4154_2811"/>
</filter>
<filter id="filter3_f_4154_2811" x="210.905" y="309.689" width="41.0562" height="33.6215" filterUnits="userSpaceOnUse" color-interpolation-filters="sRGB">
<feFlood flood-opacity="0" result="BackgroundImageFix"/>
<feBlend mode="normal" in="SourceGraphic" in2="BackgroundImageFix" result="shape"/>
<feGaussianBlur stdDeviation="5.4" result="effect1_foregroundBlur_4154_2811"/>
</filter>
<filter id="filter4_f_4154_2811" x="245.906" y="311.689" width="41.0562" height="33.6215" filterUnits="userSpaceOnUse" color-interpolation-filters="sRGB">
<feFlood flood-opacity="0" result="BackgroundImageFix"/>
<feBlend mode="normal" in="SourceGraphic" in2="BackgroundImageFix" result="shape"/>
<feGaussianBlur stdDeviation="5.4" result="effect1_foregroundBlur_4154_2811"/>
</filter>
<filter id="filter5_f_4154_2811" x="274.036" y="195.144" width="62.2438" height="53.8896" filterUnits="userSpaceOnUse" color-interpolation-filters="sRGB">
<feFlood flood-opacity="0" result="BackgroundImageFix"/>
<feBlend mode="normal" in="SourceGraphic" in2="BackgroundImageFix" result="shape"/>
<feGaussianBlur stdDeviation="7.25" result="effect1_foregroundBlur_4154_2811"/>
</filter>
<filter id="filter6_f_4154_2811" x="165.036" y="195.144" width="62.2438" height="53.8896" filterUnits="userSpaceOnUse" color-interpolation-filters="sRGB">
<feFlood flood-opacity="0" result="BackgroundImageFix"/>
<feBlend mode="normal" in="SourceGraphic" in2="BackgroundImageFix" result="shape"/>
<feGaussianBlur stdDeviation="7.25" result="effect1_foregroundBlur_4154_2811"/>
</filter>
<filter id="filter7_f_4154_2811" x="175.993" y="174.262" width="66.2734" height="40.1064" filterUnits="userSpaceOnUse" color-interpolation-filters="sRGB">
<feFlood flood-opacity="0" result="BackgroundImageFix"/>
<feBlend mode="normal" in="SourceGraphic" in2="BackgroundImageFix" result="shape"/>
<feGaussianBlur stdDeviation="6.75" result="effect1_foregroundBlur_4154_2811"/>
</filter>
<filter id="filter8_f_4154_2811" x="254.427" y="175.461" width="66.3824" height="41.1934" filterUnits="userSpaceOnUse" color-interpolation-filters="sRGB">
<feFlood flood-opacity="0" result="BackgroundImageFix"/>
<feBlend mode="normal" in="SourceGraphic" in2="BackgroundImageFix" result="shape"/>
<feGaussianBlur stdDeviation="6.75" result="effect1_foregroundBlur_4154_2811"/>
</filter>
<filter id="filter9_f_4154_2811" x="239.1" y="336.6" width="14.8" height="9.92012" filterUnits="userSpaceOnUse" color-interpolation-filters="sRGB">
<feFlood flood-opacity="0" result="BackgroundImageFix"/>
<feBlend mode="normal" in="SourceGraphic" in2="BackgroundImageFix" result="shape"/>
<feGaussianBlur stdDeviation="1.2" result="effect1_foregroundBlur_4154_2811"/>
</filter>
<linearGradient id="paint0_linear_4154_2811" x1="500.5" y1="14.5" x2="285" y2="436" gradientUnits="userSpaceOnUse">
<stop offset="0.466387" stop-color="#FAE5EA"/>
<stop offset="1" stop-color="#FAF5F6"/>
</linearGradient>
<linearGradient id="paint1_linear_4154_2811" x1="9.05343" y1="18.5" x2="224.553" y2="440" gradientUnits="userSpaceOnUse">
<stop offset="0.466387" stop-color="#FAE5EA"/>
<stop offset="1" stop-color="#FAF5F6"/>
</linearGradient>
<linearGradient id="paint2_linear_4154_2811" x1="255.639" y1="247.991" x2="256" y2="401.5" gradientUnits="userSpaceOnUse">
<stop stop-color="#F7D3CE"/>
<stop offset="0.485577" stop-color="#FDECEA"/>
<stop offset="1" stop-color="#F7D3CE"/>
</linearGradient>
<linearGradient id="paint3_linear_4154_2811" x1="249.521" y1="352" x2="250" y2="504.5" gradientUnits="userSpaceOnUse">
<stop offset="0.197112" stop-color="white"/>
<stop offset="1" stop-color="#999999"/>
</linearGradient>
<linearGradient id="paint4_linear_4154_2811" x1="253.75" y1="89.0322" x2="253.75" y2="345.385" gradientUnits="userSpaceOnUse">
<stop offset="0.187496" stop-color="#FB5598"/>
<stop offset="0.4375" stop-color="#FF96B9"/>
<stop offset="0.67308" stop-color="#FB5598"/>
</linearGradient>
<linearGradient id="paint5_linear_4154_2811" x1="253.75" y1="89.0322" x2="253.75" y2="345.385" gradientUnits="userSpaceOnUse">
<stop offset="0.187496" stop-color="#FB5598"/>
<stop offset="0.4375" stop-color="#FF96B9"/>
<stop offset="0.67308" stop-color="#FB5598"/>
</linearGradient>
<linearGradient id="paint6_linear_4154_2811" x1="255" y1="102" x2="255" y2="370.5" gradientUnits="userSpaceOnUse">
<stop offset="0.0913462" stop-color="#F7D3CE"/>
<stop offset="0.363375" stop-color="#FDECEA"/>
<stop offset="1" stop-color="#F7D3CE"/>
</linearGradient>
<linearGradient id="paint7_linear_4154_2811" x1="254" y1="18" x2="255" y2="345.24" gradientUnits="userSpaceOnUse">
<stop offset="0.26442" stop-color="#FB5598"/>
<stop offset="0.376176" stop-color="#FD8BB1"/>
<stop offset="0.461538" stop-color="#FB5598"/>
</linearGradient>
<linearGradient id="paint8_linear_4154_2811" x1="254" y1="18" x2="255" y2="345.24" gradientUnits="userSpaceOnUse">
<stop offset="0.26442" stop-color="#FB5598"/>
<stop offset="0.376176" stop-color="#FD8BB1"/>
<stop offset="0.461538" stop-color="#FB5598"/>
</linearGradient>
<linearGradient id="paint9_linear_4154_2811" x1="187" y1="448.49" x2="308.536" y2="448.49" gradientUnits="userSpaceOnUse">
<stop offset="0.173073" stop-color="#4D2E2C"/>
<stop offset="0.524039" stop-color="#694543"/>
<stop offset="0.879813" stop-color="#4D2E2C"/>
</linearGradient>
<linearGradient id="paint10_linear_4154_2811" x1="219.5" y1="225" x2="130" y2="435" gradientUnits="userSpaceOnUse">
<stop stop-color="#F7D3CE"/>
<stop offset="0.586538" stop-color="#FDECEA"/>
<stop offset="1" stop-color="#F7D3CE"/>
</linearGradient>
<linearGradient id="paint11_linear_4154_2811" x1="290.5" y1="201.5" x2="359" y2="439.5" gradientUnits="userSpaceOnUse">
<stop stop-color="#F7D3CE"/>
<stop offset="0.586538" stop-color="#FDECEA"/>
<stop offset="1" stop-color="#F7D3CE"/>
</linearGradient>
</defs>
</svg>
