<svg width="1459" height="3234" viewBox="0 0 1459 3234" fill="none" xmlns="http://www.w3.org/2000/svg">
<path d="M251.147 79.8998C400.95 243.588 589.875 663.237 664.74 896.463C720.317 1081.53 798.411 1459.72 592.313 1485.94C356.893 1508.02 234.493 833.806 187.238 507.717C172.717 407.512 148.513 220.145 148.083 122.521C141.62 -59.7373 177.902 -0.134387 251.147 79.8998Z" fill="url(#paint0_linear_2699_384)" stroke="#471F1E" stroke-width="4"/>
<path d="M181.163 1871.46C241.074 1784.43 448.54 1575.77 546.978 1512.13C579.216 1491.29 656.948 1469.61 676.457 1618.59C686.735 1697.07 674.401 1756.79 638.077 1801.14C638.077 1801.14 577.897 1873.92 536.447 1910.24C491.459 1949.66 416.834 1991.44 416.834 1991.44C359.684 2030.31 270.393 2049.4 194.651 2028.98C98.2913 2003.02 123.552 1955.15 181.163 1871.46Z" fill="url(#paint1_linear_2699_384)" stroke="#471F1E" stroke-width="4"/>
<path d="M1315.01 95.8597C1144.1 255.95 924.087 671.015 835.499 902.41C769.484 1086.12 674.247 1462.36 904.115 1493.48C1166.85 1521.16 1317.83 849.997 1377.5 525.102C1395.83 425.264 1426.82 238.515 1429.35 140.922C1440.39 -41.1425 1398.58 17.5846 1315.01 95.8597Z" fill="url(#paint2_linear_2699_384)" stroke="#471F1E" stroke-width="4"/>
<path d="M1355.7 1888.69C1290.55 1800.26 1062.97 1586.71 954.254 1520.74C918.648 1499.14 832.198 1475.62 807.263 1624.1C794.128 1702.32 806.665 1762.32 846.346 1807.53C846.346 1807.53 912.103 1881.72 957.683 1919.02C1007.15 1959.5 1089.71 2003.05 1089.71 2003.05C1152.79 2043.26 1252.21 2064.47 1337.32 2045.86C1445.6 2022.19 1418.36 1973.74 1355.7 1888.69Z" fill="url(#paint3_linear_2699_384)" stroke="#471F1E" stroke-width="4"/>
<path d="M366.639 300.602C406.76 193.089 477.129 173.525 507.298 177.182L525.321 354.279C512 436.559 487.238 616.008 494.76 675.563C504.164 750.006 462.632 872.642 421.884 915.349C389.285 949.515 388.45 987.573 392.106 1002.33C349.478 970.986 348.224 891.841 352.926 856.186C325.342 890.352 294.938 904.901 283.184 907.905C293.527 890.352 297.68 829.282 298.464 800.941C294.546 754.055 287.023 642.102 288.277 569.382C289.844 478.483 316.487 434.992 366.639 300.602Z" fill="url(#paint4_linear_2699_384)" stroke="#43090A" stroke-width="10"/>
<g filter="url(#filter0_f_2699_384)">
<path d="M352.926 644.597C364.837 783.14 305.518 874.98 290.629 900.84C311.003 894.571 348.225 860.092 358.412 842.852C346.658 934.535 371.342 976.459 387.014 992.915C384.806 981.875 388.973 960.003 398.376 941.196C408.833 920.282 418.924 915.682 432.072 896.53C444.787 878.008 458.885 845.306 463.417 834.624C474.387 808.765 481.832 776.245 488.492 742.157C488.492 742.157 469.686 704.544 468.118 699.45C464.931 689.092 457.696 726.642 452.054 761.748C445.002 805.63 439.908 826.788 414.832 865.577C394.772 896.608 383.488 921.606 380.353 930.225C369.774 929.834 378.394 824.045 380.353 760.572C381.92 709.794 362.722 662.098 352.926 644.597Z" fill="#FE3B8E"/>
</g>
<path d="M1060.92 1628.04C1033.97 1590.11 1005.55 1503.83 994.709 1465.44L983.738 1417.64L1101.28 1393.74C1105.59 1406.93 1115.93 1436.44 1122.83 1448.98C1129.73 1461.52 1155.74 1536.48 1167.89 1572.4C1184.74 1625.42 1219.45 1733.75 1223.53 1742.84C1228.62 1754.2 1258 1768.7 1326.57 1809.84C1381.42 1842.75 1382.99 1870.17 1377.52 1879.58C1384.56 1893.68 1384.14 1904.61 1381.01 1910.14C1393.56 1929.06 1383.23 1929.88 1374.76 1927.19C1376.11 1930.3 1376.23 1933.36 1374.76 1936.39C1365.05 1956.45 1263.62 1894.6 1214.12 1861.16C1259.57 1919.46 1242.46 1944.49 1228.23 1949.71C1219.74 1931.82 1195.79 1891.41 1167.89 1872.92C1139.99 1854.42 1135.37 1800.17 1136.54 1775.36C1122.57 1742.05 1087.88 1665.96 1060.92 1628.04Z" fill="url(#paint5_linear_2699_384)"/>
<path d="M1316.78 1877.62C1325.4 1882.71 1364.92 1904.52 1374.76 1927.19M1374.76 1927.19C1376.11 1930.3 1376.23 1933.36 1374.76 1936.39C1365.05 1956.45 1263.62 1894.6 1214.12 1861.16C1259.57 1919.46 1242.46 1944.49 1228.23 1949.71C1219.74 1931.82 1195.79 1891.41 1167.89 1872.92C1139.99 1854.42 1135.37 1800.17 1136.54 1775.36C1122.57 1742.05 1087.88 1665.96 1060.92 1628.04C1033.97 1590.11 1005.55 1503.83 994.709 1465.44L983.738 1417.64L1101.28 1393.74C1105.59 1406.93 1115.93 1436.44 1122.83 1448.98C1129.73 1461.52 1155.74 1536.48 1167.89 1572.4C1184.74 1625.42 1219.45 1733.75 1223.53 1742.84C1228.62 1754.2 1258 1768.7 1326.57 1809.84C1381.42 1842.75 1382.99 1870.17 1377.52 1879.58M1374.76 1927.19C1383.23 1929.88 1393.56 1929.06 1381.01 1910.14M1330.49 1857.64C1334.02 1860.77 1335.97 1859.2 1368.1 1893.68C1374.08 1900.1 1378.07 1905.71 1381.01 1910.14M1381.01 1910.14C1384.14 1904.61 1384.56 1893.68 1377.52 1879.58M1345.77 1849.8C1374.34 1868.23 1370.26 1865.9 1377.52 1879.58" stroke="#43090A" stroke-width="10"/>
<path d="M1279.16 1854.5C1279.78 1854.97 1280.36 1855.43 1280.92 1855.87C1291.48 1863.97 1301.69 1872.65 1312.45 1880.58C1313.02 1881.01 1313.61 1881.46 1314.23 1881.93C1315.93 1879.05 1317.62 1876.18 1319.32 1873.31C1318.62 1873 1317.94 1872.69 1317.28 1872.4C1305.09 1867.11 1293.36 1861.02 1281.18 1855.44C1280.53 1855.14 1279.86 1854.83 1279.16 1854.5Z" fill="#43090A"/>
<path d="M1298.36 1840.4C1298.84 1840.77 1299.36 1841.12 1299.88 1841.46C1303.36 1843.75 1307.12 1845.79 1310.42 1848.01C1315.89 1851.9 1321.64 1856.16 1326.32 1860.42C1326.69 1860.78 1327.08 1861.18 1327.17 1861.38C1329.38 1858.88 1331.59 1856.39 1333.8 1853.89C1332.99 1853.3 1332.39 1852.98 1331.76 1852.64C1325.08 1849.3 1318.81 1846.94 1312.16 1844.54C1308.04 1843.17 1304.06 1842.27 1300.09 1841.01C1299.51 1840.82 1298.92 1840.62 1298.36 1840.4Z" fill="#43090A"/>
<path d="M1317.17 1835.3C1317.59 1835.64 1318.04 1835.95 1318.49 1836.26C1321.88 1838.53 1325.63 1840.5 1328.75 1842.7C1333.21 1845.96 1337.72 1849.51 1341.96 1853.03C1342.35 1853.36 1342.76 1853.71 1343.06 1854C1344.87 1851.2 1346.67 1848.4 1348.48 1845.6C1347.9 1845.32 1347.38 1845.11 1346.85 1844.89C1341.43 1842.7 1336.17 1840.72 1330.66 1838.88C1326.52 1837.6 1322.62 1836.94 1318.7 1835.81C1318.19 1835.66 1317.67 1835.49 1317.17 1835.3Z" fill="#43090A"/>
<path d="M529.464 1051.29C517.553 1026.22 485.749 1015.77 471.644 1013.68C461.195 1035.62 432.06 1085.54 396.641 1109.67C352.366 1139.84 354.717 1136.32 359.027 1173.15C362.475 1202.61 364.643 1214.94 365.297 1217.42C378.618 1215.07 408.396 1217.11 420.934 1244.06C433.471 1271.02 462.988 1279.33 476.179 1280.11L508.307 1224.08L529.464 1051.29Z" fill="url(#paint6_linear_2699_384)" stroke="#43090A" stroke-width="10"/>
<path d="M464.985 2347.01C447.118 2298.11 410.392 2099.51 395.242 2011.23L634.637 2028.86C633.723 2087.24 637.52 2203.2 638.947 2211.05C640.514 2219.67 658.015 2285.49 664.023 2319.19C669.154 2336.63 677.173 2580.17 668.781 2756.45C667.562 2782.07 665.995 2806.27 664.023 2828.15C664.023 2828.15 620.299 2839.61 591.714 2839.51C563.73 2839.41 521.972 2828.54 521.972 2828.54V2818.74C521.189 2800.33 518.888 2779.19 516.727 2756.45C502.667 2608.49 480.47 2389.39 464.985 2347.01Z" fill="url(#paint7_linear_2699_384)" stroke="#43090A" stroke-width="10" stroke-linecap="round"/>
<path d="M664.806 2826.97C618.102 2849.85 549.222 2838.46 522.188 2828.93V2904.16C566.07 2922.34 633.461 2908.86 661.671 2899.85L664.806 2826.97Z" fill="#1E2D7B" stroke="#43090A" stroke-width="10" stroke-linecap="round"/>
<path d="M520.345 2907.93C516.427 2914.98 480.381 3014.11 441.592 3042.71C435.052 3047.53 428.301 3052.92 421.609 3058.69C431.404 3102.87 465.884 3090.51 533.667 3056.03C587.893 3028.45 641.428 2944.2 658.929 2903.98C660.307 2903.98 660.695 2903.72 660.722 2903.46C660.647 2903.38 660.572 2903.31 660.496 2903.23C616.104 2924.95 547.217 2915.45 520.345 2907.93Z" fill="#FFDFDD"/>
<path d="M359.312 3148.11C362.054 3176.32 380.861 3226.47 492.135 3201.39C520.345 3189.25 582.251 3154.53 604.192 3112.85V3133.61C627.178 3138.18 673.856 3135.96 676.677 3090.51C680.127 3034.92 700.739 2945.46 660.722 2903.46C660.695 2903.72 660.307 2903.98 658.929 2903.98C641.428 2944.2 587.893 3028.45 533.667 3056.03C465.884 3090.51 431.404 3102.87 421.609 3058.69C388.606 3087.12 357.031 3124.65 359.312 3148.11Z" fill="#1F2B7A"/>
<path d="M421.609 3058.69C428.301 3052.92 435.052 3047.53 441.592 3042.71C480.381 3014.11 516.427 2914.98 520.345 2907.93C547.217 2915.45 616.104 2924.95 660.496 2903.23M421.609 3058.69C388.606 3087.12 357.031 3124.65 359.312 3148.11C362.054 3176.32 380.861 3226.47 492.135 3201.39C520.345 3189.25 582.251 3154.53 604.192 3112.85V3133.61C627.178 3138.18 673.856 3135.96 676.677 3090.51C680.127 3034.92 700.739 2945.46 660.722 2903.46M421.609 3058.69C431.404 3102.87 465.884 3090.51 533.667 3056.03C587.893 3028.45 641.428 2944.2 658.929 2903.98C660.307 2903.98 660.695 2903.72 660.722 2903.46M660.496 2903.23C660.572 2903.31 660.647 2903.38 660.722 2903.46M660.496 2903.23C660.014 2902.73 660.76 2903.09 660.722 2903.46" stroke="#43090A" stroke-width="10" stroke-linecap="round"/>
<path d="M956.703 2836.77C952.785 2820.7 853.658 2538.21 800.372 2403.43C778.653 2348.49 764.401 2286.67 762.759 2235.34C760.609 2168.1 770.419 2108.87 762.759 2090.76L973.159 2035.52C967.674 2108.66 974.099 2301.87 1043.68 2489.62C1113.27 2677.38 1083.65 2825.8 1083.65 2825.8C1083.65 2825.8 1061.71 2854.4 956.703 2836.77Z" fill="url(#paint8_linear_2699_384)" stroke="#43090A" stroke-width="10"/>
<g filter="url(#filter1_f_2699_384)">
<path d="M629.934 2161.68L421.492 2122.5C411.305 2059.42 392.496 2027.29 415.224 1968.91L627.975 2054.32L629.934 2161.68Z" fill="url(#paint9_linear_2699_384)"/>
<path d="M964.931 2124.85L771.769 2146.79C772.547 2089.6 771.515 2052.26 782.348 1968.91L968.065 1972.44L964.931 2124.85Z" fill="url(#paint10_linear_2699_384)"/>
</g>
<path d="M542.562 1036.07C484.574 1080.26 493.847 1180.91 505.732 1225.7C556.537 1248.17 699.521 1288.23 865.021 1268.8C875.757 1228.12 896.773 1173.4 909.295 1143.42C816.515 1004.25 626.148 1013.87 542.562 1036.07Z" fill="url(#paint11_linear_2699_384)"/>
<path d="M1102.85 1863.18C1057.09 1710.53 920.788 1431.01 858.36 1310.33C676.874 1357.67 531.975 1297.14 482.212 1260.97C331.708 1493.33 246.544 1756.3 222.062 1863.18C330.202 2005.17 559.149 2037.53 660.105 2035.96C965.089 2029.38 1082.34 1918.03 1102.85 1863.18Z" fill="url(#paint12_linear_2699_384)"/>
<path d="M858.36 1310.33C857.701 1301.11 860.415 1286.25 865.021 1268.8C699.521 1288.23 556.537 1248.17 505.732 1225.7C497.722 1237.36 489.882 1249.12 482.212 1260.97C531.975 1297.14 676.874 1357.67 858.36 1310.33Z" fill="url(#paint13_linear_2699_384)"/>
<path d="M505.732 1225.7C493.847 1180.91 484.574 1080.26 542.562 1036.07C626.148 1013.87 816.515 1004.25 909.295 1143.42C896.773 1173.4 875.757 1228.12 865.021 1268.8M505.732 1225.7C556.537 1248.17 699.521 1288.23 865.021 1268.8M505.732 1225.7C497.722 1237.36 489.882 1249.12 482.212 1260.97M858.36 1310.33C920.788 1431.01 1057.09 1710.53 1102.85 1863.18C1082.34 1918.03 965.089 2029.38 660.105 2035.96C559.149 2037.53 330.202 2005.17 222.062 1863.18C246.544 1756.3 331.708 1493.33 482.212 1260.97M858.36 1310.33C857.701 1301.11 860.415 1286.25 865.021 1268.8M858.36 1310.33C676.874 1357.67 531.975 1297.14 482.212 1260.97" stroke="#43090A" stroke-width="10"/>
<path d="M417.182 1242.54C399.316 1208.37 372.124 1213.15 360.762 1219.82L397.2 1300.14C412.559 1283.21 426.586 1322.86 431.679 1344.8L470.076 1279.37C459.889 1281.33 435.049 1276.71 417.182 1242.54Z" fill="#F9FCFF" stroke="#43090A" stroke-width="10"/>
<path d="M312.483 1107.85C322.279 1137.76 366.945 1238.72 366.945 1238.72C366.945 1238.72 384.625 1278.21 389.364 1293.43C389.364 1293.43 399.16 1288.73 411.61 1299.84C411.61 1299.84 419.642 1313.91 422.668 1323.74C423.996 1328.05 425.411 1334.96 425.411 1334.96C417.27 1357.16 385.098 1401.06 366.945 1409.15C309.898 1433.29 261.547 1323.74 261.547 1323.74C261.547 1323.74 233.86 1242.24 228.636 1213.64L201.601 1111.77L171.823 1006.37C165.816 999.714 146.443 988.213 137.736 979.732C125.279 967.598 115.331 944.016 107.958 921.352C102.56 904.758 92.5474 900.709 86.801 900.84C72.3042 904.366 27.6378 874.727 12.3573 855.92C-2.92324 837.114 7.26378 811.254 27.6378 829.277C48.0119 847.301 82.0993 855.92 86.801 855.92C119.713 870.025 117.231 855.267 111.877 846.125C92.9393 819.482 54.4375 760.319 51.9299 736.81C49.4223 713.302 66.5575 713.694 75.4384 716.828C77.6587 723.228 88.995 747.233 116.578 792.055C144.162 836.878 147.662 835.546 145.964 829.277C128.333 794.406 93.0698 719.022 93.0698 696.454C93.0698 673.886 108.742 673.468 116.578 676.08C123.37 692.536 142.438 736.81 164.379 782.26C186.32 827.71 198.336 829.147 201.601 824.184C186.713 812.038 172.608 724.664 173.391 690.577C174.018 663.307 187.758 669.55 194.549 676.08C201.863 696.585 219.076 749.27 229.42 795.974C239.764 842.677 256.716 860.511 263.899 863.59C269.178 860.307 274.059 857.721 278.004 855.92L300.337 824.184C330.115 792.839 339.518 824.184 339.518 824.184C339.518 824.184 301.278 879.272 300.337 908.423C299.397 937.573 285.057 968.108 278.004 979.732C283.96 1040.54 303.472 1090.48 312.483 1107.85Z" fill="url(#paint14_linear_2699_384)"/>
<path d="M396.722 1323.74C395.932 1316.36 392.041 1305.58 389.364 1293.43M216.49 921.352C221.142 895.89 245.061 875.304 263.899 863.59M263.899 863.59C269.178 860.307 274.059 857.721 278.004 855.92L300.337 824.184C330.115 792.839 339.518 824.184 339.518 824.184C339.518 824.184 301.278 879.272 300.337 908.423C299.397 937.573 285.057 968.108 278.004 979.732C283.96 1040.54 303.472 1090.48 312.483 1107.85C322.279 1137.76 366.945 1238.72 366.945 1238.72C366.945 1238.72 384.625 1278.21 389.364 1293.43M263.899 863.59C256.716 860.511 239.764 842.677 229.42 795.974C219.076 749.27 201.863 696.585 194.549 676.08C187.758 669.55 174.018 663.307 173.391 690.577C172.608 724.664 186.713 812.038 201.601 824.184C198.336 829.147 186.32 827.71 164.379 782.26C142.438 736.81 123.37 692.536 116.578 676.08C108.742 673.468 93.0698 673.886 93.0698 696.454C93.0698 719.022 128.333 794.406 145.964 829.277C147.662 835.546 144.162 836.878 116.578 792.055C88.995 747.233 77.6587 723.228 75.4384 716.828C66.5575 713.694 49.4223 713.302 51.9299 736.81C54.4375 760.319 92.9393 819.482 111.877 846.125C117.231 855.267 119.713 870.025 86.801 855.92C82.0993 855.92 48.0119 847.301 27.6378 829.277C7.26378 811.254 -2.92324 837.114 12.3573 855.92C27.6378 874.727 72.3042 904.366 86.801 900.84C92.5474 900.709 102.56 904.758 107.958 921.352C115.331 944.016 125.279 967.598 137.736 979.732C146.443 988.213 165.816 999.714 171.823 1006.37L201.601 1111.77L228.636 1213.64C233.86 1242.24 261.547 1323.74 261.547 1323.74C261.547 1323.74 309.898 1433.29 366.945 1409.15C385.098 1401.06 417.27 1357.16 425.411 1334.96C425.411 1334.96 423.996 1328.05 422.668 1323.74C419.642 1313.91 411.61 1299.84 411.61 1299.84C399.16 1288.73 389.364 1293.43 389.364 1293.43" stroke="#43090A" stroke-width="10"/>
<g filter="url(#filter2_f_2699_384)">
<path d="M950.825 1313.22C924.181 1316.94 994.317 1370.62 1022.53 1375.71C1047.21 1382.37 1063.28 1378.45 1064.84 1362.39C1070.59 1340.97 1077.07 1308.29 1063.27 1302.65C1049.48 1297 1023.31 1332.95 1011.95 1351.62C990.946 1324.67 977.469 1309.51 950.825 1313.22Z" fill="#171F6A"/>
</g>
<g filter="url(#filter3_f_2699_384)">
<path d="M1042.51 1312.57C1050.35 1300.88 1070.33 1300.9 1070.33 1316.88C1070.33 1332.87 1064.45 1355.79 1065.63 1361.22" stroke="#1C174C" stroke-opacity="0.47" stroke-width="3" stroke-linecap="round"/>
</g>
<rect x="525.322" y="226.145" width="173.179" height="117.543" fill="#FE368F"/>
<path d="M447.829 382.877C479.174 313.605 606.8 300.205 662.568 302.164C909.878 282.731 933.83 447.917 914.892 532.94C975.231 420.099 1060.65 481.221 1046.54 554.881C1035.26 613.809 960.865 640.034 925.079 645.781C914 690.822 887.081 726.472 852.927 754.312C844.557 793.62 832.84 878.977 852.927 905.933C878.035 939.629 984.999 962.354 1006.55 1003.89C1023.79 1037.11 1034.63 1076.5 1037.89 1092.04C1022.61 1110.98 974.655 1145.17 905.07 1130.44C810.722 1008.2 627.8 1012.9 548.132 1030.53L528.933 1045.03C524.545 1035.62 496.805 1019.43 483.484 1012.51C491.059 998.139 508.638 964.548 518.355 945.114C530.501 920.822 648.043 918.471 683.306 897.314C711.516 880.388 697.672 845.682 687.224 830.445C664.961 835.669 644.506 838.911 627.697 840.509C608.89 829.408 549.919 798.009 510.938 754.312C462.353 699.85 467.811 619.13 467.811 619.13C467.811 619.13 408.649 469.467 447.829 382.877Z" fill="url(#paint15_linear_2699_384)"/>
<path d="M852.927 754.312C887.081 726.472 914 690.822 925.079 645.781C960.865 640.034 1035.26 613.809 1046.54 554.881C1060.65 481.221 975.231 420.099 914.892 532.94C933.83 447.917 909.878 282.731 662.568 302.164C606.8 300.205 479.174 313.605 447.829 382.877C408.649 469.467 467.811 619.13 467.811 619.13C467.811 619.13 462.353 699.85 510.938 754.312C549.919 798.009 608.89 829.408 627.697 840.509C644.506 838.911 664.961 835.669 687.224 830.445M852.927 754.312C844.557 793.62 832.84 878.977 852.927 905.933C878.035 939.629 984.999 962.354 1006.55 1003.89C1023.79 1037.11 1034.63 1076.5 1037.89 1092.04C1022.61 1110.98 974.655 1145.17 905.07 1130.44C810.722 1008.2 627.8 1012.9 548.132 1030.53L528.933 1045.03C524.545 1035.62 496.805 1019.43 483.484 1012.51C491.059 998.139 508.638 964.548 518.355 945.114C530.501 920.822 648.043 918.471 683.306 897.314C711.516 880.388 697.672 845.682 687.224 830.445M852.927 754.312C804.1 794.111 740.486 817.948 687.224 830.445" stroke="#43090A" stroke-width="10"/>
<g filter="url(#filter4_f_2699_384)">
<path d="M552.746 971.09C534.403 989.662 510.176 998.725 493.23 1004.94C497.086 997.34 502.695 985.835 510.1 972.637C515.142 963.65 518.773 955.061 524.077 945.559C538.579 932.71 558.927 929.805 580.238 925C574.946 938.771 569.659 953.965 552.746 971.09Z" fill="#FEC1BF"/>
</g>
<g filter="url(#filter5_f_2699_384)">
<path d="M1016.65 1052.08C965.802 1047.79 918.698 979.7 918.697 952.559C935.669 958.749 967.209 974.443 985.615 993.033C1002.59 1010.18 1011.32 1038.27 1016.65 1052.08Z" fill="#FEC1BF"/>
</g>
<g filter="url(#filter6_f_2699_384)">
<path d="M690.72 721.727C692.225 729.011 683.251 744.859 662.232 749.201C641.214 753.543 622.532 746.482 621.027 739.198C627.68 740.592 637.428 744 658.301 740.022C679.473 732.881 683.013 727.09 690.72 721.727Z" fill="#FF93BD"/>
</g>
<g filter="url(#filter7_f_2699_384)">
<ellipse cx="679.694" cy="737.218" rx="4.99531" ry="2.27142" transform="rotate(-26.061 679.694 737.218)" fill="white"/>
</g>
<g filter="url(#filter8_f_2699_384)">
<path d="M686.841 716.766C681.804 720.56 674.133 730.37 653.317 735.223C632.945 737.615 628.851 735.285 619.89 733.07C625.98 733.163 638.412 722.488 650.143 719.624C670.948 714.546 679.131 717.083 686.841 716.766Z" fill="#FF93BD"/>
</g>
<path d="M601.332 728.444C621.184 741.113 670.525 752.579 709.079 697.099" stroke="#43090A" stroke-width="10" stroke-linecap="round"/>
<path d="M604.86 300.981L575.055 245.854C556.248 273.803 522.552 361.751 538.225 489.951C523.912 481.592 497.354 445.5 492.078 387.856C490.024 449.235 428.014 531.108 388.162 562.043C379.15 531.09 390.306 451.67 420.71 391.489C397.201 398.541 354.345 449.333 339.969 479.372C338.272 447.113 346.238 367.863 391.688 308.935C437.138 250.007 481.675 203.147 498.263 187.083C509.891 175.042 537.687 159.645 571.034 172.977C591.181 160.647 657.57 138.822 761.947 150.171C782.691 150.468 794.532 160.763 804.263 164.358C806.392 165.144 809.456 166.912 813.274 169.54C836.996 162.225 888.805 153.71 933.168 167.389C988.021 154.363 1112.93 164.436 1173.74 308.935C1234.55 453.434 1225.2 579.152 1212.92 623.949C1209.13 687.422 1207.12 823.223 1229.38 858.643C1257.19 902.917 1343 1011.45 1310.09 1063.17C1306.69 1037.05 1285.8 980.26 1229.38 962.08C1172.95 943.9 1126.72 901.48 1110.66 882.543C1120.92 907.351 1143.67 955.371 1157.34 961.444C1158.26 961.672 1159.15 961.884 1160.03 962.08C1159.18 962.08 1158.28 961.861 1157.34 961.444C1118.53 951.769 1039.86 912.646 1015.06 826.906C989.667 739.141 996.902 648.241 1003.69 613.762C1019.1 599.004 1047.18 557.498 1036.21 509.541C994.839 424.91 903.782 536.968 903.782 536.968C903.782 536.968 903.782 474.67 900.563 464.875C897.823 475.228 894.46 483.604 891.244 489.559C854.885 477.334 762.731 396.7 745.436 364.572C747.976 377.869 751.679 391.193 757.246 402.577C764.799 418.023 787.293 443.325 787.293 443.325C787.293 443.325 807.981 463.522 814.45 470.752C696.907 435.097 653.416 300.185 642.054 239.193L604.86 300.981Z" fill="url(#paint16_linear_2699_384)"/>
<path d="M489.277 356.618C489.202 360.097 491.135 369.09 491.208 372.408M491.208 372.408C492.665 439.045 522.674 480.869 538.225 489.951C522.552 361.751 556.248 273.803 575.055 245.854L604.86 300.981L642.054 239.193C653.416 300.185 696.907 435.097 814.45 470.752C807.981 463.522 787.293 443.325 787.293 443.325C787.293 443.325 764.799 418.023 757.246 402.577C751.679 391.193 747.976 377.869 745.436 364.572M491.208 372.408C500.937 434.663 431.467 528.428 388.162 562.043C379.15 531.09 390.306 451.67 420.71 391.489C397.201 398.541 354.345 449.333 339.969 479.372C338.272 447.113 346.238 367.863 391.688 308.935C437.138 250.007 481.675 203.147 498.263 187.083C509.891 175.042 537.687 159.645 571.034 172.977M598.955 190.609C589.384 182.234 580.008 176.565 571.034 172.977M739.614 313.245C740.538 326.413 741.786 345.466 745.436 364.572M745.436 364.572C762.731 396.7 854.885 477.334 891.244 489.559C894.46 483.604 897.823 475.228 900.563 464.875M877.139 308.935C881.368 316.6 885.053 324.186 888.245 331.66M888.245 331.66C913.015 344.328 969.92 385.181 985.278 415.899C986.062 403.491 978.618 364.729 942.571 308.935C903.168 247.945 839.886 187.854 813.274 169.54M888.245 331.66C911.36 385.771 908.715 434.073 900.563 464.875M698.083 172.977C726.161 155.261 746.517 149.95 761.947 150.171M571.034 172.977C591.181 160.647 657.57 138.822 761.947 150.171M761.947 150.171C782.691 150.468 794.532 160.763 804.263 164.358C806.392 165.144 809.456 166.912 813.274 169.54M813.274 169.54C836.996 162.225 888.805 153.71 933.168 167.389M1036.21 509.541C1065.36 469.106 1060.64 380.114 1054.63 340.672C1042.61 298.356 1006.59 206.673 958.635 178.463C950.635 173.757 942.051 170.128 933.168 167.389M1036.21 509.541C994.839 424.91 903.782 536.968 903.782 536.968C903.782 536.968 903.782 474.67 900.563 464.875M1036.21 509.541C1047.18 557.498 1019.1 599.004 1003.69 613.762C996.902 648.241 989.667 739.141 1015.06 826.906C1040.45 914.671 1122.28 953.591 1160.03 962.08C1146.86 962.08 1121.63 909.055 1110.66 882.543C1126.72 901.48 1172.95 943.9 1229.38 962.08C1285.8 980.26 1306.69 1037.05 1310.09 1063.17C1343 1011.45 1257.19 902.917 1229.38 858.643C1207.12 823.223 1209.13 687.422 1212.92 623.949C1225.2 579.152 1234.55 453.434 1173.74 308.935C1112.93 164.436 988.021 154.363 933.168 167.389" stroke="#43090A" stroke-width="10"/>
<g filter="url(#filter9_f_2699_384)">
<path d="M1110.35 876.548C1067.64 812.683 1115.44 715.514 1117.4 711.988C1113.09 771.543 1125.57 894.963 1164.36 924.348C1141.24 908.676 1119.23 888.171 1110.35 876.548Z" fill="#FE3A8E"/>
</g>
<g filter="url(#filter10_f_2699_384)">
<path d="M1056.33 794.098C1029.23 713.339 1033.11 577.206 1033.11 577.206C1033.11 577.206 1026.45 590.528 1021.74 598.364C1017.34 605.699 1007.64 615.603 1007.64 615.603C1006.07 632.451 990.007 681.427 1013.12 800.145C1017.69 823.622 1024.34 842.989 1033.1 859.7C1062.49 915.729 1117.34 943.155 1143.59 952.559C1111.46 938.062 1078.8 861.073 1056.33 794.098Z" fill="#FE3A8E"/>
</g>
<path d="M1107.56 1866.35L1156.15 1887.51C1155.76 1904.36 1145.49 1941.82 1107.56 1956.86C1103.65 1966.53 1090.56 1985.93 1069.56 1986.25C1065.25 1998.79 1039.08 2026.21 968.863 2035.62C963.639 2040.84 945.12 2051.76 912.835 2053.64C894.681 2072.58 847.559 2102.3 804.304 2069.7C798.174 2080.96 778.14 2097.6 742.79 2087.82C726.595 2091.32 687.466 2094.7 660.51 2080.28C641.442 2093.73 593.667 2112.57 555.113 2080.28C555.5 2079.17 555.917 2077.6 556.302 2075.58C543.759 2078.45 510.134 2079.26 475.968 2059.52C448.019 2061.74 383.423 2060.38 348.63 2037.18C350.323 2034.67 352.538 2030.95 354.979 2026.21C327.147 2004.37 306.238 1999.87 299.262 2000.35C254.688 2009.76 230.799 1973.54 224.426 1954.25C200.069 1942.9 167.214 1917.95 168.006 1878.89C182.373 1872.49 215.95 1845.16 229.114 1850.49C265.15 1891.32 321.581 1939.88 377.218 1963.33C414.356 1978.98 452.2 1994.01 494.774 2003.2C549.916 2015.11 608.417 2021.44 667.17 2021.81C687.819 2021.93 708.5 2021.33 729.076 2019.97C750.794 2018.53 772.396 2016.25 793.725 2013.11C826.981 2008.22 859.166 2003.43 890.488 1994.28C906.108 1989.72 923.765 1984.65 938.68 1979C971.833 1966.44 1005.02 1954.77 1033.5 1936.68C1044.64 1929.61 1056.15 1919.16 1066.41 1911.22C1082.99 1898.37 1093.65 1881.51 1107.56 1866.35Z" fill="url(#paint17_linear_2699_384)"/>
<path d="M1107.56 1956.86C1145.49 1941.82 1155.76 1904.36 1156.15 1887.51L1107.56 1866.35C1093.65 1881.51 1082.99 1898.37 1066.41 1911.22M1107.56 1956.86C1103.65 1966.53 1090.56 1985.93 1069.56 1986.25M1107.56 1956.86C1108.48 1947.63 1105.28 1927.87 1066.41 1911.22M1069.56 1986.25C1065.25 1998.79 1039.08 2026.21 968.863 2035.62M1069.56 1986.25C1068.51 1978.45 1062.96 1962.28 1033.5 1936.68M968.863 2035.62C963.639 2040.84 945.12 2051.76 912.835 2053.64M968.863 2035.62C966.12 2023.95 957.8 1998.06 938.68 1979M912.835 2053.64C894.681 2072.58 847.559 2102.3 804.304 2069.7M912.835 2053.64C913.879 2042.78 910.548 2017.45 890.488 1994.28M804.304 2069.7C798.174 2080.96 778.14 2097.6 742.79 2087.82M804.304 2069.7C804.826 2061.1 803.441 2037.74 793.725 2013.11M742.79 2087.82C736.714 2086.14 730.187 2083.68 723.199 2080.28C727.117 2068.28 733.778 2039.42 729.076 2019.97M742.79 2087.82C726.595 2091.32 687.466 2094.7 660.51 2080.28M660.51 2080.28C641.442 2093.73 593.667 2112.57 555.113 2080.28C555.5 2079.17 555.917 2077.6 556.302 2075.58M660.51 2080.28C664.95 2069.12 672.499 2041.79 667.17 2021.81M555.113 2031.31C558.887 2051.94 557.865 2067.38 556.302 2075.58M556.302 2075.58C543.759 2078.45 510.134 2079.26 475.968 2059.52M475.968 2059.52C448.019 2061.74 383.423 2060.38 348.63 2037.18C350.323 2034.67 352.538 2030.95 354.979 2026.21M475.968 2059.52L494.774 2003.2M377.218 1963.33C321.581 1939.88 265.15 1891.32 229.114 1850.49C215.95 1845.16 182.373 1872.49 168.006 1878.89C167.214 1917.95 200.069 1942.9 224.426 1954.25M377.218 1963.33C373.503 1988.39 361.956 2012.68 354.979 2026.21M377.218 1963.33C414.356 1978.98 452.2 1994.01 494.774 2003.2M269.485 1919.64C260.081 1926.56 240.412 1944.17 236.965 1959.21C233.27 1958.04 228.998 1956.38 224.426 1954.25M224.426 1954.25C230.799 1973.54 254.688 2009.76 299.262 2000.35M314.934 1954.25C312.453 1966.22 305.844 1992.2 299.262 2000.35M299.262 2000.35C306.238 1999.87 327.147 2004.37 354.979 2026.21M494.774 2003.2C549.916 2015.11 608.417 2021.44 667.17 2021.81M667.17 2021.81C687.819 2021.93 708.5 2021.33 729.076 2019.97M729.076 2019.97C750.794 2018.53 772.396 2016.25 793.725 2013.11M793.725 2013.11C826.981 2008.22 859.166 2003.43 890.488 1994.28M890.488 1994.28C906.108 1989.72 923.765 1984.65 938.68 1979M938.68 1979C971.833 1966.44 1005.02 1954.77 1033.5 1936.68M1033.5 1936.68C1044.64 1929.61 1056.15 1919.16 1066.41 1911.22" stroke="#43090A" stroke-width="10" stroke-linecap="round"/>
<path d="M1084.82 2826.97C1050.03 2851.11 985.304 2841.47 956.311 2836.77L971.199 2905.72C1002.15 2914.87 1069.07 2925.24 1089.13 2893.58L1084.82 2826.97Z" fill="#1E2D7B" stroke="#43090A" stroke-width="10"/>
<path d="M971.193 2904.16C974.981 2965.67 964.837 3036.33 1015.86 3086.35C1035.84 3105.94 1073.72 3103.01 1093.43 3040.9C1109.11 2991.53 1087.66 2920.22 1089.47 2892.01C1061.54 2926.49 998.98 2914.48 971.193 2904.16Z" fill="#FFDFDD"/>
<path d="M971.193 2904.16C972.499 2939.29 962.965 3026.79 959 3044.43C954.822 3063 931.239 3192.42 959 3208.2C970.026 3214.47 1127.48 3274.42 1134.92 3156.09C1140.88 3061.43 1107.1 2940.6 1089.47 2892.01C1087.66 2920.22 1109.11 2991.53 1093.43 3040.9C1073.72 3103.01 1035.84 3105.94 1015.86 3086.35C964.837 3036.33 974.981 2965.67 971.193 2904.16Z" fill="#1F2B7A"/>
<path d="M971.193 2904.16C972.499 2939.29 962.965 3026.79 959 3044.43C954.822 3063 931.239 3192.42 959 3208.2C970.026 3214.47 1127.48 3274.42 1134.92 3156.09C1140.88 3061.43 1107.1 2940.6 1089.47 2892.01M971.193 2904.16C974.981 2965.67 964.837 3036.33 1015.86 3086.35C1035.84 3105.94 1073.72 3103.01 1093.43 3040.9C1109.11 2991.53 1087.66 2920.22 1089.47 2892.01M971.193 2904.16C998.98 2914.48 1061.54 2926.49 1089.47 2892.01" stroke="#43090A" stroke-width="10"/>
<g filter="url(#filter11_f_2699_384)">
<path d="M981.779 1961.86C981.779 1961.86 851.307 1484.63 773.729 1328.3L849.348 1314.98C886.178 1375.71 1038.98 1703.66 1091.88 1862.34C1066.41 1923.46 981.779 1961.86 981.779 1961.86Z" fill="#172471"/>
</g>
<g filter="url(#filter12_f_2699_384)">
<path d="M784.262 1247.98C719.67 1284.02 584.928 1229.79 540.683 1206.84C534.513 1203.64 525.138 1193.91 525.138 1193.91C525.138 1193.91 505.5 1108.2 511.949 1082.64C500.982 1104.58 493.931 1176.67 508.428 1222.51C576.845 1261.14 762.256 1281.67 860.664 1265.61C869.059 1236.26 896.943 1158.23 897.886 1159.43L895.535 1133.18C895.509 1131.57 879.306 1112.41 875.553 1109.67C883.389 1180.2 838.331 1217.81 784.262 1247.98Z" fill="#D5D8EA"/>
</g>
<path d="M583.822 1042.4C584.205 1042.65 584.648 1041.82 585.132 1042.01C585.616 1042.2 585.627 1042.68 586.215 1042.65C586.803 1042.63 587.333 1043.02 587.614 1042.87C587.896 1042.71 587.844 1043.29 588.224 1043.21C588.604 1043.13 588.813 1043.24 589.105 1043.47C589.396 1043.7 590.349 1043.99 590.734 1043.81C591.12 1043.63 591.469 1044.08 591.699 1044.21C591.771 1044.25 591.825 1044.3 591.865 1044.35C591.882 1044.37 591.886 1044.41 591.881 1044.44C591.881 1044.44 591.881 1044.44 591.881 1044.44C591.874 1044.49 591.854 1044.53 591.829 1044.54C591.704 1044.55 591.514 1044.6 591.278 1044.73C590.838 1044.99 590.842 1044.64 590.284 1044.73C589.725 1044.81 589.36 1045.08 588.757 1044.79C588.154 1044.5 587.891 1045.34 587.067 1044.73C586.242 1044.12 586.025 1045.01 585.121 1045.01C584.217 1045.01 583.164 1044.36 582.623 1044.32C582.082 1044.29 581.349 1044.3 580.607 1044.08C579.864 1043.85 578.887 1044.02 578.078 1043.7C577.269 1043.37 576.122 1042.94 575.599 1042.69C575.077 1042.43 574.949 1042.38 574.408 1042.41C574.096 1042.43 573.688 1042.32 573.367 1042.04C573.206 1041.9 573.268 1041.74 573.457 1041.69C573.734 1041.61 573.937 1041.72 574.1 1041.53C574.424 1041.16 574.559 1041.02 574.866 1041.3C575.173 1041.59 575.406 1041.07 575.595 1041.16C575.784 1041.25 575.738 1041.57 576.776 1041.46C577.814 1041.35 578.374 1041.37 578.762 1041.36C579.151 1041.35 579.908 1041.74 580.542 1041.72C581.176 1041.71 582.424 1041.97 582.955 1041.88C583.485 1041.79 583.438 1042.14 583.822 1042.4ZM602.433 1044.94C602.816 1045.2 603.259 1044.37 603.743 1044.56C604.227 1044.75 604.238 1045.22 604.826 1045.2C605.414 1045.17 605.944 1045.57 606.225 1045.41C606.507 1045.26 606.455 1045.84 606.835 1045.76C607.215 1045.68 607.424 1045.79 607.716 1046.02C608.007 1046.25 608.96 1046.54 609.345 1046.36C609.731 1046.18 610.08 1046.63 610.31 1046.76C610.382 1046.8 610.436 1046.85 610.476 1046.9C610.493 1046.92 610.497 1046.95 610.492 1046.99C610.492 1046.99 610.492 1046.99 610.492 1046.99C610.485 1047.04 610.465 1047.08 610.44 1047.08C610.315 1047.09 610.125 1047.14 609.889 1047.28C609.449 1047.53 609.453 1047.19 608.895 1047.27C608.336 1047.36 607.971 1047.63 607.368 1047.34C606.764 1047.05 606.502 1047.89 605.678 1047.28C604.853 1046.67 604.636 1047.56 603.732 1047.55C602.828 1047.55 601.775 1046.9 601.234 1046.87C600.693 1046.84 599.96 1046.84 599.218 1046.62C598.475 1046.4 597.498 1046.57 596.689 1046.24C595.88 1045.92 594.733 1045.49 594.21 1045.23C593.688 1044.98 593.56 1044.92 593.019 1044.96C592.707 1044.98 592.299 1044.86 591.978 1044.59C591.817 1044.44 591.879 1044.29 592.068 1044.23C592.345 1044.16 592.548 1044.26 592.71 1044.08C593.034 1043.71 593.17 1043.57 593.477 1043.85C593.783 1044.13 594.017 1043.62 594.206 1043.71C594.395 1043.8 594.349 1044.11 595.387 1044.01C596.425 1043.9 596.985 1043.91 597.373 1043.91C597.762 1043.9 598.519 1044.28 599.153 1044.27C599.787 1044.26 601.035 1044.52 601.566 1044.43C602.096 1044.33 602.049 1044.69 602.433 1044.94ZM570.984 1155.04C570.692 1159.49 571.558 1162.99 571.609 1168.37C571.71 1173.78 571.27 1174.63 571.937 1180.77C572.631 1186.94 573.35 1193.08 574.084 1195.76C574.82 1198.43 574.28 1198.8 575.335 1202.61C576.417 1206.36 577.024 1208.66 577.923 1211.96C578.71 1215.32 582.729 1225.09 584.958 1228.25C587.01 1231.48 589.112 1235.3 590.644 1237.45C591.114 1238.12 591.481 1238.66 591.757 1239.07C591.874 1239.24 591.905 1239.34 591.876 1239.37C591.876 1239.37 591.876 1239.37 591.876 1239.37C591.84 1239.4 591.71 1239.31 591.538 1239.1C590.699 1238.09 589.448 1236.58 587.997 1234.75C585.358 1231.31 585.337 1230.74 582.469 1225.64C579.726 1220.49 578.038 1217.31 576.077 1210.7C574.28 1204.03 572.935 1202.72 571.628 1193.04C570.59 1183.35 569.615 1182.46 568.835 1172.76C568.115 1163.06 568.98 1150.82 569.333 1145C569.638 1139.18 570.224 1131.35 571.433 1123.17C572.62 1114.99 574.032 1104.87 576.12 1095.98C578.151 1087.07 581.593 1074.68 583.427 1069.02C585.255 1063.3 585.703 1061.97 587.339 1056.47C588.278 1053.34 589.786 1049.07 591.337 1045.53C592.097 1043.81 592.104 1044.25 591.523 1046.07C590.651 1048.8 589.845 1050.92 589.561 1052.39C589.014 1055.3 588.782 1056.51 587.455 1059.94C586.138 1063.37 586.171 1065.19 585.513 1067.22C584.876 1069.3 584.474 1069.12 581.974 1079.74C579.542 1090.39 578.469 1096.19 577.702 1100.27C576.946 1104.3 575.136 1112.74 574.296 1119.41C573.363 1126.05 571.888 1139.62 571.796 1145.12C571.651 1150.61 571.308 1150.61 570.984 1155.04ZM745.768 1178C744.33 1182.1 744.145 1185.63 742.293 1190.62C740.412 1195.58 739.711 1196.18 737.583 1201.86C735.434 1207.55 732.601 1212.93 731.583 1215.46C730.567 1217.98 729.94 1217.97 728.271 1221.45C726.595 1224.88 725.35 1226.91 723.475 1229.66C721.64 1232.52 715.707 1240.9 713.447 1243.91C711.283 1247 708.104 1249.91 706.226 1251.67C705.645 1252.21 705.171 1252.63 704.799 1252.93C704.642 1253.06 704.548 1253.1 704.522 1253.07C704.522 1253.07 704.522 1253.07 704.522 1253.07C704.49 1253.04 704.563 1252.9 704.744 1252.72C705.627 1251.81 706.909 1250.41 708.307 1248.63C710.829 1245.33 711.442 1245.21 714.752 1240.66C717.988 1236.04 719.613 1233.07 723.19 1227.49C726.68 1221.82 726.687 1220.13 731.144 1211.89C735.439 1203.57 734.964 1202.27 738.113 1193.52C741.226 1184.75 745.02 1173.58 746.4 1168.12C747.816 1162.67 749.504 1155.3 751.236 1147.52C752.984 1139.73 754.402 1129.96 755.861 1121.27C757.371 1112.57 758.96 1100.21 759.588 1094.46C760.233 1088.72 760.37 1087.31 760.564 1081.78C760.669 1078.57 760.896 1074.27 761.189 1070.49C761.333 1068.67 761.494 1069.07 761.541 1070.93C761.605 1073.74 761.45 1075.91 761.597 1077.39C761.891 1080.2 761.988 1081.51 761.544 1085.01C761.084 1088.62 761.499 1090.26 761.273 1092.39C761.024 1094.47 760.806 1094.43 759.963 1105.01C759.059 1115.57 758.223 1121.39 757.69 1125.35C757.148 1129.38 755.498 1137.58 754.307 1144.05C753.191 1150.52 750.078 1163.5 748.791 1168.73C747.543 1173.97 747.185 1173.88 745.768 1178ZM862.082 1196.99C860.672 1200.62 860.48 1203.82 858.592 1208.23C856.676 1212.59 855.977 1213.07 853.767 1218.06C851.54 1223.03 848.615 1227.68 847.569 1229.87C846.522 1232.05 845.891 1232.01 844.2 1234.99C842.483 1237.97 841.255 1239.68 839.385 1242.04C837.556 1244.45 831.819 1251.66 829.758 1254.33C827.765 1257.04 824.869 1259.6 823.206 1261.19C822.688 1261.69 822.263 1262.06 821.928 1262.35C821.786 1262.47 821.7 1262.5 821.673 1262.47C821.673 1262.47 821.673 1262.47 821.673 1262.47C821.64 1262.44 821.7 1262.32 821.862 1262.14C822.644 1261.3 823.778 1260.01 825.008 1258.43C827.292 1255.44 827.842 1255.38 830.954 1251.39C834.014 1247.36 835.594 1244.77 839.149 1239.99C842.62 1235.17 842.686 1233.59 847.226 1226.56C851.624 1219.41 851.21 1218.17 854.437 1210.51C857.642 1202.83 861.341 1192.99 862.597 1188.09C863.904 1183.22 865.367 1176.63 866.673 1169.62C868.002 1162.63 868.688 1153.8 869.185 1145.96C869.792 1138.12 869.492 1126.94 868.843 1121.82C868.784 1121.26 868.727 1120.77 868.671 1120.32L868.844 1120.6C865.697 1118.21 864.498 1117.34 860.808 1114.86C858.432 1113.27 855.243 1110.95 852.655 1108.84C851.353 1107.78 851.757 1107.86 853.182 1108.77C855.264 1110.1 856.876 1111.33 858.033 1111.89C860.345 1113.02 861.318 1113.51 863.802 1115.55C866.286 1117.6 867.833 1118.02 869.325 1119.15C869.451 1119.25 869.565 1119.34 869.672 1119.42L870.012 1119.65L870.091 1120.09C870.17 1121.53 870.302 1122.35 871.114 1131.02C871.85 1140.55 871.541 1145.86 871.427 1149.45C871.303 1153.08 870.346 1160.59 869.534 1166.44C868.851 1172.31 866.201 1184.03 864.981 1188.72C863.828 1193.41 863.462 1193.33 862.082 1196.99ZM720.75 1055.96C721.907 1056.27 722.917 1055.49 724.339 1055.75C725.76 1056.01 725.93 1056.49 727.582 1056.55C729.234 1056.6 730.846 1057.07 731.595 1056.95C732.345 1056.83 732.366 1057.42 733.417 1057.39C734.467 1057.36 735.089 1057.49 735.979 1057.77C736.869 1058.04 739.642 1058.47 740.679 1058.34C741.715 1058.2 742.833 1058.71 743.52 1058.88C743.734 1058.93 743.9 1058.98 744.027 1059.04C744.081 1059.06 744.103 1059.1 744.099 1059.14C744.099 1059.14 744.099 1059.14 744.099 1059.14C744.095 1059.18 744.051 1059.22 743.979 1059.22C743.631 1059.22 743.107 1059.24 742.481 1059.35C741.314 1059.55 741.223 1059.2 739.672 1059.21C738.12 1059.22 737.167 1059.46 735.38 1059.08C733.592 1058.7 733.095 1059.52 730.59 1058.79C728.086 1058.05 727.731 1058.93 725.178 1058.81C722.624 1058.69 719.463 1057.88 717.926 1057.78C716.39 1057.67 714.322 1057.58 712.161 1057.25C710 1056.93 707.289 1056.97 704.912 1056.53C702.534 1056.09 699.169 1055.49 697.62 1055.16C696.071 1054.83 695.694 1054.76 694.176 1054.72C693.303 1054.7 692.115 1054.53 691.129 1054.2C690.633 1054.04 690.763 1053.88 691.281 1053.85C692.039 1053.81 692.645 1053.95 693.049 1053.78C693.857 1053.45 694.199 1053.32 695.147 1053.65C696.095 1053.98 696.604 1053.49 697.164 1053.6C697.724 1053.72 697.685 1054.03 700.585 1054.06C703.486 1054.1 705.07 1054.18 706.165 1054.23C707.26 1054.27 709.509 1054.77 711.295 1054.84C713.08 1054.91 716.682 1055.34 718.153 1055.32C719.624 1055.3 719.593 1055.65 720.75 1055.96Z" fill="#43090A"/>
<path d="M682.001 895C676.09 915.561 671.185 955.368 697.902 966.908M699.236 967.447C698.783 967.276 698.338 967.096 697.902 966.908M697.902 966.908C727.079 966.173 797.423 952.637 845.38 904.366" stroke="#43090A" stroke-width="5"/>
<path d="M697.319 969.017C645.484 968.522 614.89 1039.57 655.006 1059.52C695.123 1079.48 729.9 1009.79 697.319 969.017Z" fill="url(#paint18_linear_2699_384)" stroke="#43090A" stroke-width="10"/>
<g filter="url(#filter13_f_2699_384)">
<path d="M696.542 970.973C684.006 969.798 679.719 982.004 686.748 986.254C693.778 990.503 702.733 982.323 696.542 970.973Z" fill="white"/>
</g>
<path d="M537.863 624.864C510.772 616.896 485.751 580.067 479.482 559.04C472.037 543.368 483.008 498.31 526.891 514.374C570.773 530.438 585.663 570.403 583.312 600.572C580.961 630.741 551.184 628.782 537.863 624.864Z" fill="url(#paint19_linear_2699_384)"/>
<path d="M481.832 563.35C465.817 540.608 458.338 527.899 446.961 505.362C455.803 507.078 461.04 508.894 470.861 513.59C476.347 501.836 490.319 497.918 502.99 497.918C526.89 497.918 558.932 509.089 577.041 548.853C596.817 592.274 585.505 625.202 567.246 627.215C550.398 629.072 545.697 627.892 530.416 622.264C551.574 626.574 582.135 630.251 582.135 599.788C582.135 561.751 560.977 537.882 547.264 528.087C533.551 518.292 511.218 515.157 493.194 519.859C478.776 523.62 479.612 550.42 481.832 563.35Z" fill="#48130B"/>
<path d="M534.727 593.911C522.508 574.53 518.182 535.088 527.672 513.59C544.911 517.038 562.153 532.397 568.03 541.017C575.605 561.913 588.063 605.307 577.434 611.934C561.344 621.966 546.951 613.302 534.727 593.911Z" fill="url(#paint20_linear_2699_384)" stroke="#43090A" stroke-width="10"/>
<path d="M547.895 494.646C547.736 496.305 547.577 497.964 547.417 499.623C548.159 499.652 548.955 499.754 549.748 499.908C564.191 503.695 578.04 515.856 582.718 531.324C582.954 532.192 583.153 533.075 583.311 533.965C583.236 533.064 583.118 532.163 582.962 531.27C579.522 515.182 567.26 501.349 550.889 495.297C549.929 495.016 548.921 494.786 547.895 494.646Z" fill="#43090A"/>
<path d="M745.797 464.467C745.874 466.132 745.951 467.797 746.028 469.462C745.159 469.458 744.018 469.663 742.953 469.938C723.223 477.203 702.892 490.646 692.203 510.06C691.712 511.217 691.317 512.394 691.059 513.59C691.235 512.379 691.552 511.169 691.97 509.97C701.681 489.505 720.461 474.835 741.603 465.384C742.864 464.971 744.258 464.587 745.797 464.467Z" fill="#43090A"/>
<g filter="url(#filter14_f_2699_384)">
<path d="M692 898L837 841.5C837 841.5 838.206 818.701 840 804C841.766 789.525 843.138 781.299 846 767C771.165 820.678 695.5 834 695.5 834C697.562 834.344 719.554 875.297 692 898Z" fill="#F2BAC4"/>
<path d="M692 898L837 841.5C837 841.5 838.206 818.701 840 804C841.766 789.525 843.138 781.299 846 767C771.165 820.678 695.5 834 695.5 834C697.562 834.344 719.554 875.297 692 898Z" stroke="#FDD8DE"/>
</g>
<path d="M738.858 605.274C714.14 598.335 706.991 559.694 706.338 541.801C716.995 507.009 743.429 488.385 755.314 483.422C793.842 481.202 862.524 491.055 850.524 553.164C835.634 630.222 776.96 615.971 738.858 605.274Z" fill="url(#paint21_linear_2699_384)"/>
<path d="M600.55 642.103L583.311 658.559" stroke="#43090A" stroke-width="5" stroke-linecap="round"/>
<path d="M749.052 540.624C748.907 506.093 769.948 493.216 783.531 490.865C796.852 488.906 839.559 504.186 838.384 547.285C837.208 590.384 820.38 607.589 794.109 608.799C764.917 610.144 749.228 582.87 749.052 540.624Z" fill="url(#paint22_linear_2699_384)" stroke="#43090A" stroke-width="10" stroke-linecap="round"/>
<path d="M762.76 488.514C737.057 488.2 712.869 527.825 703.988 547.677C717.153 482.167 759.625 468.662 779.216 470.099C813.068 468.218 843.733 490.734 854.835 502.227H892.056L850.133 550.42C833.677 498.701 794.888 488.906 762.76 488.514Z" fill="#43090A" stroke="#43090A" stroke-width="5" stroke-linecap="round"/>
<g filter="url(#filter15_f_2699_384)">
<path d="M822.883 542.956C822.926 543.21 822.967 543.464 823.006 543.718C826.234 564.757 816.556 583.747 801.164 586.332C785.585 588.947 770.052 573.768 766.469 552.428C762.886 531.088 772.61 511.667 788.188 509.052C803.767 506.436 819.3 521.615 822.883 542.956Z" fill="#3B93C1"/>
<path d="M766.469 552.428C762.886 531.088 772.61 511.667 788.188 509.052C803.767 506.436 819.3 521.615 822.883 542.956C822.926 543.21 822.967 543.464 823.006 543.718C836.663 550.209 832.945 563.638 832.945 565.205C833.77 551.686 839.482 538.31 825.889 517.795C816.439 503.534 800.95 493.485 784.665 494.913C768.731 496.309 759.027 506.629 754.196 527.589C748.154 553.8 758.247 577.66 762.417 586.332C760.734 575.618 758.494 560.005 766.469 552.428Z" fill="#3B93C1"/>
</g>
<g filter="url(#filter16_f_2699_384)">
<path d="M824.196 530.839C828.803 543.669 826.507 556.236 819.066 558.908C811.626 561.579 817.884 547.59 813.277 534.76C808.669 521.929 794.943 515.116 802.383 512.444C809.823 509.773 819.589 518.008 824.196 530.839Z" fill="white"/>
</g>
<path d="M1038.59 1095.96C1007.25 1137.02 934.632 1138.41 902.242 1133.97C905.377 1174.71 911.332 1260.91 910.078 1279.72C908.825 1298.53 909.556 1331.18 910.078 1345.15C921.441 1358.34 948.867 1387 967.674 1396.09L971.984 1385.51C985.959 1391.78 1015.55 1399.3 1022.14 1379.24C1038.98 1385.38 1073.62 1391.23 1077.38 1365.52C1087.17 1360.75 1101.2 1351.91 1112.66 1340.45C1125.65 1327.45 1135.34 1311.08 1131.84 1293.43C1123.61 1251.9 1049.17 1153.95 1038.59 1095.96Z" fill="url(#paint23_linear_2699_384)"/>
<path d="M1022.14 1379.24C1015.55 1399.3 985.959 1391.78 971.984 1385.51C970.548 1400.79 965.558 1432.84 957.095 1438.79C960.752 1450.02 980.447 1468.26 1029.97 1451.33C1045.12 1461.65 1082.4 1470.61 1110.29 1423.9C1128.19 1420.64 1164.75 1405.33 1167.89 1370.23C1153.14 1366.44 1121.44 1355.18 1112.66 1340.45C1101.2 1351.91 1087.17 1360.75 1077.38 1365.52C1073.62 1391.23 1038.98 1385.38 1022.14 1379.24Z" fill="#E8EDF6"/>
<path d="M971.984 1385.51L967.674 1396.09C948.867 1387 921.441 1358.34 910.078 1345.15C909.556 1331.18 908.825 1298.53 910.078 1279.72C911.332 1260.91 905.377 1174.71 902.242 1133.97C934.632 1138.41 1007.25 1137.02 1038.59 1095.96C1049.17 1153.95 1123.61 1251.9 1131.84 1293.43C1135.34 1311.08 1125.65 1327.45 1112.66 1340.45M971.984 1385.51C985.959 1391.78 1015.55 1399.3 1022.14 1379.24C1038.98 1385.38 1073.62 1391.23 1077.38 1365.52C1087.17 1360.75 1101.2 1351.91 1112.66 1340.45M971.984 1385.51C970.548 1400.79 965.558 1432.84 957.095 1438.79C960.752 1450.02 980.447 1468.26 1029.97 1451.33M1029.97 1451.33C1030.62 1438.3 1031.15 1409.02 1028.01 1396.09M1029.97 1451.33C1045.12 1461.65 1082.4 1470.61 1110.29 1423.9M1110.29 1423.9C1106.51 1413.85 1095.56 1391.62 1082.08 1383.16M1110.29 1423.9C1128.19 1420.64 1164.75 1405.33 1167.89 1370.23C1153.14 1366.44 1121.44 1355.18 1112.66 1340.45" stroke="#43090A" stroke-width="10"/>
<path d="M450.096 464.748C460.544 453.255 492.803 430.817 538.253 433.012M679.696 433.012C702.029 413.813 762.994 386.151 828.191 429.093" stroke="black" stroke-width="10" stroke-linecap="round"/>
<g filter="url(#filter17_f_2699_384)">
<path d="M968.458 552.13C965.412 536.468 996.595 535.225 1004.11 535.282C979.349 472.593 944.426 530.842 930.061 567.802C951.061 573.131 947.17 601.367 942.99 614.819C969.671 600.533 972.848 574.712 968.458 552.13Z" fill="#F7BDCE"/>
</g>
<path d="M1006.85 533.078C996.929 507.218 967.439 477.598 928.885 565.99C939.464 573.173 955.449 593.886 934.762 619.276M967.674 554.627C974.988 560.374 981.074 580.722 946.908 616.141" stroke="#43090A" stroke-width="10" stroke-linecap="round"/>
<g filter="url(#filter18_f_2699_384)">
<ellipse cx="504.949" cy="2329.77" rx="32.9119" ry="23.9003" fill="#FED1D0"/>
</g>
<g filter="url(#filter19_f_2699_384)">
<ellipse cx="508.104" cy="651.606" rx="41.5234" ry="18.0232" transform="rotate(32.6346 508.104 651.606)" fill="#FED1D0"/>
</g>
<g filter="url(#filter20_f_2699_384)">
<ellipse cx="855.692" cy="627.691" rx="43.874" ry="18.0232" transform="rotate(-32.4091 855.692 627.691)" fill="#FED1D0"/>
</g>
<g filter="url(#filter21_f_2699_384)">
<ellipse cx="817.611" cy="2321.54" rx="32.9119" ry="24.2921" fill="#FED1D0"/>
</g>
<g filter="url(#filter22_f_2699_384)">
<ellipse cx="1131.84" cy="612.469" rx="7.05256" ry="12.5379" fill="white"/>
</g>
<g filter="url(#filter23_f_2699_384)">
<ellipse cx="1170.24" cy="606.983" rx="7.05256" ry="4.7017" transform="rotate(-20.3346 1170.24 606.983)" fill="white"/>
</g>
<g filter="url(#filter24_f_2699_384)">
<ellipse cx="983.213" cy="254.307" rx="6.66075" ry="3.39989" transform="rotate(-14.8783 983.213 254.307)" fill="white"/>
</g>
<g filter="url(#filter25_f_2699_384)">
<ellipse cx="1196.88" cy="600.323" rx="7.05256" ry="23.1167" fill="white"/>
</g>
<g filter="url(#filter26_f_2699_384)">
<ellipse cx="455.54" cy="287.818" rx="5.81348" ry="8.52101" transform="rotate(30.9001 455.54 287.818)" fill="white"/>
</g>
<g filter="url(#filter27_f_2699_384)">
<ellipse cx="997.453" cy="249.703" rx="6.66075" ry="14.4969" transform="rotate(-14.8783 997.453 249.703)" fill="white"/>
</g>
<g filter="url(#filter28_f_2699_384)">
<ellipse cx="345.162" cy="627.764" rx="7.05821" ry="4.19804" transform="rotate(15.1002 345.162 627.764)" fill="white"/>
</g>
<g filter="url(#filter29_f_2699_384)">
<ellipse cx="440.493" cy="279.995" rx="5.81348" ry="15.8421" transform="rotate(30.9001 440.493 279.995)" fill="white"/>
</g>
<g filter="url(#filter30_f_2699_384)">
<ellipse cx="314.666" cy="639.856" rx="7.05821" ry="18.7187" transform="rotate(-0.402516 314.666 639.856)" fill="white"/>
</g>
<g opacity="0.67" filter="url(#filter31_f_2699_384)">
<path d="M418.358 1167.49C412.089 1160.28 391.454 1193.74 381.92 1211.37C392.891 1210.76 409.347 1222.91 413.265 1227.22C417.575 1210.76 424.627 1174.7 418.358 1167.49Z" fill="#251D53"/>
</g>
<g filter="url(#filter32_f_2699_384)">
<path d="M561.363 553.166C561.392 553.338 561.42 553.51 561.447 553.681C563.666 567.899 558.674 580.478 550.175 581.905C541.574 583.349 532.637 572.824 530.214 558.396C527.792 543.968 532.801 531.101 541.403 529.657C550.004 528.212 558.941 538.738 561.363 553.166Z" fill="#3B93C1"/>
<path d="M530.214 558.396C527.792 543.968 532.801 531.101 541.403 529.657C550.004 528.212 558.941 538.738 561.363 553.166C561.392 553.338 561.42 553.51 561.447 553.681C569.166 558.324 573.849 575.065 573.881 576.119C571.852 568.595 565.14 543.532 564.477 543.599C554.041 530.384 546.094 525.637 530.214 519.307C530.214 519.307 526.043 527.463 526.473 541.64C527.015 559.472 532.944 577.439 533.526 583.172C532.374 575.931 525.937 563.332 530.214 558.396Z" fill="#3B93C1"/>
</g>
<g filter="url(#filter33_f_2699_384)">
<path d="M560.523 552.941C563.308 560.698 561.92 568.294 557.422 569.909C552.925 571.524 556.707 563.068 553.922 555.312C551.137 547.555 542.839 543.437 547.337 541.822C551.834 540.207 557.738 545.185 560.523 552.941Z" fill="white"/>
</g>
<g filter="url(#filter34_f_2699_384)">
<path d="M571.968 1267.5C527.049 1365.59 392.122 1643.25 404.267 1777.2C383.153 1668.61 514.867 1329.17 571.968 1267.5Z" fill="#181D53"/>
</g>
<g filter="url(#filter35_f_2699_384)">
<path d="M641.428 1305.59C628.693 1412.71 587.495 1625.67 611.264 1755.32C575.363 1673.15 605.947 1381.77 641.428 1305.59Z" fill="#181D53"/>
</g>
<g filter="url(#filter36_f_2699_384)">
<path d="M721.104 1295.11C731.021 1402.53 766.613 1616.5 739.448 1745.47C777.494 1664.28 754.572 1372.2 721.104 1295.11Z" fill="#181D53"/>
</g>
<g filter="url(#filter37_f_2699_384)">
<path d="M779.364 1303.32C812.366 1399.7 921.823 1629.75 920.357 1751.7C894.411 1611.28 788.772 1373.61 779.364 1303.32Z" fill="#181D53"/>
</g>
<path d="M863.845 1268.36C744.727 1285.09 537.468 1241.71 504.556 1225.26L483.207 1259.35C538.558 1299.78 690.922 1367.61 857.575 1315.58L863.845 1268.36Z" fill="url(#paint24_linear_2699_384)" stroke="#43090A" stroke-width="10"/>
<defs>
<filter id="filter0_f_2699_384" x="279.429" y="633.397" width="220.263" height="370.718" filterUnits="userSpaceOnUse" color-interpolation-filters="sRGB">
<feFlood flood-opacity="0" result="BackgroundImageFix"/>
<feBlend mode="normal" in="SourceGraphic" in2="BackgroundImageFix" result="shape"/>
<feGaussianBlur stdDeviation="5.6" result="effect1_foregroundBlur_2699_384"/>
</filter>
<filter id="filter1_f_2699_384" x="381.673" y="1946.11" width="609.192" height="238.37" filterUnits="userSpaceOnUse" color-interpolation-filters="sRGB">
<feFlood flood-opacity="0" result="BackgroundImageFix"/>
<feBlend mode="normal" in="SourceGraphic" in2="BackgroundImageFix" result="shape"/>
<feGaussianBlur stdDeviation="11.4" result="effect1_foregroundBlur_2699_384"/>
</filter>
<filter id="filter2_f_2699_384" x="931.895" y="1289.05" width="152.6" height="102.758" filterUnits="userSpaceOnUse" color-interpolation-filters="sRGB">
<feFlood flood-opacity="0" result="BackgroundImageFix"/>
<feBlend mode="normal" in="SourceGraphic" in2="BackgroundImageFix" result="shape"/>
<feGaussianBlur stdDeviation="6.5" result="effect1_foregroundBlur_2699_384"/>
</filter>
<filter id="filter3_f_2699_384" x="1037.81" y="1299.58" width="37.2184" height="66.3326" filterUnits="userSpaceOnUse" color-interpolation-filters="sRGB">
<feFlood flood-opacity="0" result="BackgroundImageFix"/>
<feBlend mode="normal" in="SourceGraphic" in2="BackgroundImageFix" result="shape"/>
<feGaussianBlur stdDeviation="1.6" result="effect1_foregroundBlur_2699_384"/>
</filter>
<filter id="filter4_f_2699_384" x="450.13" y="881.9" width="173.208" height="166.14" filterUnits="userSpaceOnUse" color-interpolation-filters="sRGB">
<feFlood flood-opacity="0" result="BackgroundImageFix"/>
<feBlend mode="normal" in="SourceGraphic" in2="BackgroundImageFix" result="shape"/>
<feGaussianBlur stdDeviation="21.55" result="effect1_foregroundBlur_2699_384"/>
</filter>
<filter id="filter5_f_2699_384" x="875.597" y="909.459" width="184.153" height="185.72" filterUnits="userSpaceOnUse" color-interpolation-filters="sRGB">
<feFlood flood-opacity="0" result="BackgroundImageFix"/>
<feBlend mode="normal" in="SourceGraphic" in2="BackgroundImageFix" result="shape"/>
<feGaussianBlur stdDeviation="21.55" result="effect1_foregroundBlur_2699_384"/>
</filter>
<filter id="filter6_f_2699_384" x="602.427" y="703.127" width="107.054" height="66.0047" filterUnits="userSpaceOnUse" color-interpolation-filters="sRGB">
<feFlood flood-opacity="0" result="BackgroundImageFix"/>
<feBlend mode="normal" in="SourceGraphic" in2="BackgroundImageFix" result="shape"/>
<feGaussianBlur stdDeviation="9.3" result="effect1_foregroundBlur_2699_384"/>
</filter>
<filter id="filter7_f_2699_384" x="669.896" y="729.021" width="19.5973" height="16.3932" filterUnits="userSpaceOnUse" color-interpolation-filters="sRGB">
<feFlood flood-opacity="0" result="BackgroundImageFix"/>
<feBlend mode="normal" in="SourceGraphic" in2="BackgroundImageFix" result="shape"/>
<feGaussianBlur stdDeviation="2.6" result="effect1_foregroundBlur_2699_384"/>
</filter>
<filter id="filter8_f_2699_384" x="601.291" y="697.808" width="104.149" height="57.0237" filterUnits="userSpaceOnUse" color-interpolation-filters="sRGB">
<feFlood flood-opacity="0" result="BackgroundImageFix"/>
<feBlend mode="normal" in="SourceGraphic" in2="BackgroundImageFix" result="shape"/>
<feGaussianBlur stdDeviation="9.3" result="effect1_foregroundBlur_2699_384"/>
</filter>
<filter id="filter9_f_2699_384" x="1077.16" y="696.488" width="102.701" height="243.36" filterUnits="userSpaceOnUse" color-interpolation-filters="sRGB">
<feFlood flood-opacity="0" result="BackgroundImageFix"/>
<feBlend mode="normal" in="SourceGraphic" in2="BackgroundImageFix" result="shape"/>
<feGaussianBlur stdDeviation="7.75" result="effect1_foregroundBlur_2699_384"/>
</filter>
<filter id="filter10_f_2699_384" x="980.35" y="556.806" width="183.642" height="416.153" filterUnits="userSpaceOnUse" color-interpolation-filters="sRGB">
<feFlood flood-opacity="0" result="BackgroundImageFix"/>
<feBlend mode="normal" in="SourceGraphic" in2="BackgroundImageFix" result="shape"/>
<feGaussianBlur stdDeviation="10.2" result="effect1_foregroundBlur_2699_384"/>
</filter>
<filter id="filter11_f_2699_384" x="731.229" y="1272.48" width="403.148" height="731.876" filterUnits="userSpaceOnUse" color-interpolation-filters="sRGB">
<feFlood flood-opacity="0" result="BackgroundImageFix"/>
<feBlend mode="normal" in="SourceGraphic" in2="BackgroundImageFix" result="shape"/>
<feGaussianBlur stdDeviation="21.25" result="effect1_foregroundBlur_2699_384"/>
</filter>
<filter id="filter12_f_2699_384" x="490.346" y="1072.74" width="417.441" height="208.275" filterUnits="userSpaceOnUse" color-interpolation-filters="sRGB">
<feFlood flood-opacity="0" result="BackgroundImageFix"/>
<feBlend mode="normal" in="SourceGraphic" in2="BackgroundImageFix" result="shape"/>
<feGaussianBlur stdDeviation="4.95" result="effect1_foregroundBlur_2699_384"/>
</filter>
<filter id="filter13_f_2699_384" x="678.175" y="965.694" width="25.6441" height="26.9005" filterUnits="userSpaceOnUse" color-interpolation-filters="sRGB">
<feFlood flood-opacity="0" result="BackgroundImageFix"/>
<feBlend mode="normal" in="SourceGraphic" in2="BackgroundImageFix" result="shape"/>
<feGaussianBlur stdDeviation="2.6" result="effect1_foregroundBlur_2699_384"/>
</filter>
<filter id="filter14_f_2699_384" x="673.382" y="747.554" width="191.657" height="169.211" filterUnits="userSpaceOnUse" color-interpolation-filters="sRGB">
<feFlood flood-opacity="0" result="BackgroundImageFix"/>
<feBlend mode="normal" in="SourceGraphic" in2="BackgroundImageFix" result="shape"/>
<feGaussianBlur stdDeviation="9.15" result="effect1_foregroundBlur_2699_384"/>
</filter>
<filter id="filter15_f_2699_384" x="741.816" y="484.278" width="103.52" height="112.847" filterUnits="userSpaceOnUse" color-interpolation-filters="sRGB">
<feFlood flood-opacity="0" result="BackgroundImageFix"/>
<feBlend mode="normal" in="SourceGraphic" in2="BackgroundImageFix" result="shape"/>
<feGaussianBlur stdDeviation="5.25" result="effect1_foregroundBlur_2699_384"/>
</filter>
<filter id="filter16_f_2699_384" x="791.915" y="503.641" width="42.9574" height="63.8976" filterUnits="userSpaceOnUse" color-interpolation-filters="sRGB">
<feFlood flood-opacity="0" result="BackgroundImageFix"/>
<feBlend mode="normal" in="SourceGraphic" in2="BackgroundImageFix" result="shape"/>
<feGaussianBlur stdDeviation="4.15" result="effect1_foregroundBlur_2699_384"/>
</filter>
<filter id="filter17_f_2699_384" x="926.061" y="503.592" width="82.0508" height="115.228" filterUnits="userSpaceOnUse" color-interpolation-filters="sRGB">
<feFlood flood-opacity="0" result="BackgroundImageFix"/>
<feBlend mode="normal" in="SourceGraphic" in2="BackgroundImageFix" result="shape"/>
<feGaussianBlur stdDeviation="2" result="effect1_foregroundBlur_2699_384"/>
</filter>
<filter id="filter18_f_2699_384" x="447.337" y="2281.17" width="115.224" height="97.2008" filterUnits="userSpaceOnUse" color-interpolation-filters="sRGB">
<feFlood flood-opacity="0" result="BackgroundImageFix"/>
<feBlend mode="normal" in="SourceGraphic" in2="BackgroundImageFix" result="shape"/>
<feGaussianBlur stdDeviation="12.35" result="effect1_foregroundBlur_2699_384"/>
</filter>
<filter id="filter19_f_2699_384" x="438.401" y="591.152" width="139.405" height="120.909" filterUnits="userSpaceOnUse" color-interpolation-filters="sRGB">
<feFlood flood-opacity="0" result="BackgroundImageFix"/>
<feBlend mode="normal" in="SourceGraphic" in2="BackgroundImageFix" result="shape"/>
<feGaussianBlur stdDeviation="16.7" result="effect1_foregroundBlur_2699_384"/>
</filter>
<filter id="filter20_f_2699_384" x="784.004" y="566.279" width="143.376" height="122.823" filterUnits="userSpaceOnUse" color-interpolation-filters="sRGB">
<feFlood flood-opacity="0" result="BackgroundImageFix"/>
<feBlend mode="normal" in="SourceGraphic" in2="BackgroundImageFix" result="shape"/>
<feGaussianBlur stdDeviation="16.7" result="effect1_foregroundBlur_2699_384"/>
</filter>
<filter id="filter21_f_2699_384" x="759.999" y="2272.55" width="115.224" height="97.9845" filterUnits="userSpaceOnUse" color-interpolation-filters="sRGB">
<feFlood flood-opacity="0" result="BackgroundImageFix"/>
<feBlend mode="normal" in="SourceGraphic" in2="BackgroundImageFix" result="shape"/>
<feGaussianBlur stdDeviation="12.35" result="effect1_foregroundBlur_2699_384"/>
</filter>
<filter id="filter22_f_2699_384" x="1111.79" y="586.931" width="40.1055" height="51.0757" filterUnits="userSpaceOnUse" color-interpolation-filters="sRGB">
<feFlood flood-opacity="0" result="BackgroundImageFix"/>
<feBlend mode="normal" in="SourceGraphic" in2="BackgroundImageFix" result="shape"/>
<feGaussianBlur stdDeviation="6.5" result="effect1_foregroundBlur_2699_384"/>
</filter>
<filter id="filter23_f_2699_384" x="1150.43" y="588.938" width="39.627" height="36.0901" filterUnits="userSpaceOnUse" color-interpolation-filters="sRGB">
<feFlood flood-opacity="0" result="BackgroundImageFix"/>
<feBlend mode="normal" in="SourceGraphic" in2="BackgroundImageFix" result="shape"/>
<feGaussianBlur stdDeviation="6.5" result="effect1_foregroundBlur_2699_384"/>
</filter>
<filter id="filter24_f_2699_384" x="963.715" y="237.602" width="38.9941" height="33.4102" filterUnits="userSpaceOnUse" color-interpolation-filters="sRGB">
<feFlood flood-opacity="0" result="BackgroundImageFix"/>
<feBlend mode="normal" in="SourceGraphic" in2="BackgroundImageFix" result="shape"/>
<feGaussianBlur stdDeviation="6.5" result="effect1_foregroundBlur_2699_384"/>
</filter>
<filter id="filter25_f_2699_384" x="1176.83" y="564.206" width="40.1055" height="72.2334" filterUnits="userSpaceOnUse" color-interpolation-filters="sRGB">
<feFlood flood-opacity="0" result="BackgroundImageFix"/>
<feBlend mode="normal" in="SourceGraphic" in2="BackgroundImageFix" result="shape"/>
<feGaussianBlur stdDeviation="6.5" result="effect1_foregroundBlur_2699_384"/>
</filter>
<filter id="filter26_f_2699_384" x="435.904" y="266.919" width="39.2715" height="41.7993" filterUnits="userSpaceOnUse" color-interpolation-filters="sRGB">
<feFlood flood-opacity="0" result="BackgroundImageFix"/>
<feBlend mode="normal" in="SourceGraphic" in2="BackgroundImageFix" result="shape"/>
<feGaussianBlur stdDeviation="6.5" result="effect1_foregroundBlur_2699_384"/>
</filter>
<filter id="filter27_f_2699_384" x="977.016" y="222.586" width="40.875" height="54.2327" filterUnits="userSpaceOnUse" color-interpolation-filters="sRGB">
<feFlood flood-opacity="0" result="BackgroundImageFix"/>
<feBlend mode="normal" in="SourceGraphic" in2="BackgroundImageFix" result="shape"/>
<feGaussianBlur stdDeviation="6.5" result="effect1_foregroundBlur_2699_384"/>
</filter>
<filter id="filter28_f_2699_384" x="325.26" y="610.312" width="39.8047" height="34.9036" filterUnits="userSpaceOnUse" color-interpolation-filters="sRGB">
<feFlood flood-opacity="0" result="BackgroundImageFix"/>
<feBlend mode="normal" in="SourceGraphic" in2="BackgroundImageFix" result="shape"/>
<feGaussianBlur stdDeviation="6.5" result="effect1_foregroundBlur_2699_384"/>
</filter>
<filter id="filter29_f_2699_384" x="417.949" y="253.075" width="45.0879" height="53.8411" filterUnits="userSpaceOnUse" color-interpolation-filters="sRGB">
<feFlood flood-opacity="0" result="BackgroundImageFix"/>
<feBlend mode="normal" in="SourceGraphic" in2="BackgroundImageFix" result="shape"/>
<feGaussianBlur stdDeviation="6.5" result="effect1_foregroundBlur_2699_384"/>
</filter>
<filter id="filter30_f_2699_384" x="294.607" y="608.138" width="40.1172" height="63.4365" filterUnits="userSpaceOnUse" color-interpolation-filters="sRGB">
<feFlood flood-opacity="0" result="BackgroundImageFix"/>
<feBlend mode="normal" in="SourceGraphic" in2="BackgroundImageFix" result="shape"/>
<feGaussianBlur stdDeviation="6.5" result="effect1_foregroundBlur_2699_384"/>
</filter>
<filter id="filter31_f_2699_384" x="364.52" y="1149.09" width="73.7238" height="95.5305" filterUnits="userSpaceOnUse" color-interpolation-filters="sRGB">
<feFlood flood-opacity="0" result="BackgroundImageFix"/>
<feBlend mode="normal" in="SourceGraphic" in2="BackgroundImageFix" result="shape"/>
<feGaussianBlur stdDeviation="8.7" result="effect1_foregroundBlur_2699_384"/>
</filter>
<filter id="filter32_f_2699_384" x="515.941" y="508.807" width="68.4395" height="84.865" filterUnits="userSpaceOnUse" color-interpolation-filters="sRGB">
<feFlood flood-opacity="0" result="BackgroundImageFix"/>
<feBlend mode="normal" in="SourceGraphic" in2="BackgroundImageFix" result="shape"/>
<feGaussianBlur stdDeviation="5.25" result="effect1_foregroundBlur_2699_384"/>
</filter>
<filter id="filter33_f_2699_384" x="537.725" y="533.218" width="32.5336" height="45.1918" filterUnits="userSpaceOnUse" color-interpolation-filters="sRGB">
<feFlood flood-opacity="0" result="BackgroundImageFix"/>
<feBlend mode="normal" in="SourceGraphic" in2="BackgroundImageFix" result="shape"/>
<feGaussianBlur stdDeviation="4.15" result="effect1_foregroundBlur_2699_384"/>
</filter>
<filter id="filter34_f_2699_384" x="389.098" y="1254.6" width="195.769" height="535.5" filterUnits="userSpaceOnUse" color-interpolation-filters="sRGB">
<feFlood flood-opacity="0" result="BackgroundImageFix"/>
<feBlend mode="normal" in="SourceGraphic" in2="BackgroundImageFix" result="shape"/>
<feGaussianBlur stdDeviation="6.45" result="effect1_foregroundBlur_2699_384"/>
</filter>
<filter id="filter35_f_2699_384" x="582.303" y="1292.68" width="72.0246" height="475.53" filterUnits="userSpaceOnUse" color-interpolation-filters="sRGB">
<feFlood flood-opacity="0" result="BackgroundImageFix"/>
<feBlend mode="normal" in="SourceGraphic" in2="BackgroundImageFix" result="shape"/>
<feGaussianBlur stdDeviation="6.45" result="effect1_foregroundBlur_2699_384"/>
</filter>
<filter id="filter36_f_2699_384" x="708.204" y="1282.21" width="63.8898" height="476.167" filterUnits="userSpaceOnUse" color-interpolation-filters="sRGB">
<feFlood flood-opacity="0" result="BackgroundImageFix"/>
<feBlend mode="normal" in="SourceGraphic" in2="BackgroundImageFix" result="shape"/>
<feGaussianBlur stdDeviation="6.45" result="effect1_foregroundBlur_2699_384"/>
</filter>
<filter id="filter37_f_2699_384" x="766.465" y="1290.42" width="166.806" height="474.176" filterUnits="userSpaceOnUse" color-interpolation-filters="sRGB">
<feFlood flood-opacity="0" result="BackgroundImageFix"/>
<feBlend mode="normal" in="SourceGraphic" in2="BackgroundImageFix" result="shape"/>
<feGaussianBlur stdDeviation="6.45" result="effect1_foregroundBlur_2699_384"/>
</filter>
<linearGradient id="paint0_linear_2699_384" x1="436.677" y1="63.3106" x2="438.59" y2="1486.65" gradientUnits="userSpaceOnUse">
<stop offset="0.514423" stop-color="#FBE4EB"/>
<stop offset="1" stop-color="white"/>
</linearGradient>
<linearGradient id="paint1_linear_2699_384" x1="160.18" y1="1984.53" x2="729.631" y2="1876.18" gradientUnits="userSpaceOnUse">
<stop offset="0.379808" stop-color="#FBE4EB"/>
<stop offset="1" stop-color="white"/>
</linearGradient>
<linearGradient id="paint2_linear_2699_384" x1="1107.94" y1="74.8629" x2="1075.96" y2="1497.85" gradientUnits="userSpaceOnUse">
<stop offset="0.514423" stop-color="#FBE4EB"/>
<stop offset="1" stop-color="white"/>
</linearGradient>
<linearGradient id="paint3_linear_2699_384" x1="1376.79" y1="2002.24" x2="748.443" y2="1854.7" gradientUnits="userSpaceOnUse">
<stop offset="0.379808" stop-color="#FBE4EB"/>
<stop offset="1" stop-color="white"/>
</linearGradient>
<linearGradient id="paint4_linear_2699_384" x1="404.253" y1="176.777" x2="352.534" y2="945.114" gradientUnits="userSpaceOnUse">
<stop offset="0.0384615" stop-color="#FD4994"/>
<stop offset="0.456307" stop-color="#FF93BD"/>
<stop offset="0.975962" stop-color="#FD4994"/>
</linearGradient>
<linearGradient id="paint5_linear_2699_384" x1="983.738" y1="1308.32" x2="1314.82" y2="1916.02" gradientUnits="userSpaceOnUse">
<stop offset="0.0673077" stop-color="#FFD4D1"/>
<stop offset="0.552885" stop-color="#FFF1F0"/>
<stop offset="1" stop-color="#FFD4D1"/>
</linearGradient>
<linearGradient id="paint6_linear_2699_384" x1="559.409" y1="985.862" x2="443.154" y2="1280.11" gradientUnits="userSpaceOnUse">
<stop stop-color="#33439A"/>
<stop offset="1" stop-color="#1E2C7A"/>
</linearGradient>
<linearGradient id="paint7_linear_2699_384" x1="533.942" y1="1795.73" x2="568.422" y2="3196.45" gradientUnits="userSpaceOnUse">
<stop offset="0.168269" stop-color="#FFD4D1"/>
<stop offset="0.475962" stop-color="#FFF1F1"/>
<stop offset="0.831731" stop-color="#FFD4D1"/>
</linearGradient>
<linearGradient id="paint8_linear_2699_384" x1="861.886" y1="1830.99" x2="1059.75" y2="3327.31" gradientUnits="userSpaceOnUse">
<stop stop-color="#FFD4D1"/>
<stop offset="0.413462" stop-color="#FFEFEE"/>
<stop offset="1" stop-color="#FFD4D1"/>
</linearGradient>
<linearGradient id="paint9_linear_2699_384" x1="693.015" y1="2085.28" x2="691.84" y2="2167.95" gradientUnits="userSpaceOnUse">
<stop stop-color="#EDACB6"/>
<stop offset="1" stop-color="#F8C4CC"/>
</linearGradient>
<linearGradient id="paint10_linear_2699_384" x1="693.015" y1="2085.28" x2="691.84" y2="2167.95" gradientUnits="userSpaceOnUse">
<stop stop-color="#EDACB6"/>
<stop offset="1" stop-color="#F8C4CC"/>
</linearGradient>
<linearGradient id="paint11_linear_2699_384" x1="662.456" y1="1023.08" x2="662.456" y2="2036.02" gradientUnits="userSpaceOnUse">
<stop offset="0.134615" stop-color="#F9FCFF"/>
<stop offset="0.860577" stop-color="#959799"/>
</linearGradient>
<linearGradient id="paint12_linear_2699_384" x1="662.456" y1="1023.08" x2="662.456" y2="2036.02" gradientUnits="userSpaceOnUse">
<stop offset="0.663462" stop-color="#1F2D7B"/>
<stop offset="1" stop-color="#2A398B"/>
</linearGradient>
<linearGradient id="paint13_linear_2699_384" x1="662.456" y1="1023.08" x2="662.456" y2="2036.02" gradientUnits="userSpaceOnUse">
<stop offset="0.0913462" stop-color="#3E2527"/>
<stop offset="0.490385" stop-color="#5B3937"/>
<stop offset="0.865385" stop-color="#3E2527"/>
</linearGradient>
<linearGradient id="paint14_linear_2699_384" x1="142.133" y1="700.234" x2="350.967" y2="1395.69" gradientUnits="userSpaceOnUse">
<stop stop-color="#FFD4D1"/>
<stop offset="0.490385" stop-color="#FFF0EF"/>
<stop offset="1" stop-color="#FFD4D1"/>
</linearGradient>
<linearGradient id="paint15_linear_2699_384" x1="706.729" y1="-17.5595" x2="709.472" y2="1542.62" gradientUnits="userSpaceOnUse">
<stop offset="0.110577" stop-color="#FFD4D1"/>
<stop offset="0.485577" stop-color="#FFF1F0"/>
<stop offset="0.875" stop-color="#FFD4D1" stop-opacity="0.819608"/>
</linearGradient>
<linearGradient id="paint16_linear_2699_384" x1="828.628" y1="147" x2="828.628" y2="1063.17" gradientUnits="userSpaceOnUse">
<stop stop-color="#FD4994"/>
<stop offset="0.423077" stop-color="#FF93BD"/>
<stop offset="0.807692" stop-color="#FD4994"/>
</linearGradient>
<linearGradient id="paint17_linear_2699_384" x1="662.455" y1="2297.93" x2="703.595" y2="1481.01" gradientUnits="userSpaceOnUse">
<stop offset="0.307692" stop-color="#F8FDFF"/>
<stop offset="1" stop-color="#959899"/>
</linearGradient>
<linearGradient id="paint18_linear_2699_384" x1="687.139" y1="965.88" x2="686.355" y2="1056.39" gradientUnits="userSpaceOnUse">
<stop offset="0.598789" stop-color="#D60926"/>
<stop offset="1" stop-color="#700514"/>
</linearGradient>
<linearGradient id="paint19_linear_2699_384" x1="556.669" y1="627.215" x2="511.611" y2="143.331" gradientUnits="userSpaceOnUse">
<stop offset="0.134615" stop-color="white"/>
<stop offset="0.677885" stop-color="#999999"/>
</linearGradient>
<linearGradient id="paint20_linear_2699_384" x1="569.598" y1="627.998" x2="551.966" y2="497.134" gradientUnits="userSpaceOnUse">
<stop stop-color="#57CDF5"/>
<stop offset="1" stop-color="#2F8ED3"/>
</linearGradient>
<linearGradient id="paint21_linear_2699_384" x1="792.536" y1="613.893" x2="781.957" y2="491.648" gradientUnits="userSpaceOnUse">
<stop offset="0.759615" stop-color="white"/>
<stop offset="1" stop-color="#999999" stop-opacity="0.47"/>
</linearGradient>
<linearGradient id="paint22_linear_2699_384" x1="799.588" y1="609.191" x2="794.103" y2="468.924" gradientUnits="userSpaceOnUse">
<stop stop-color="#B4F0FD"/>
<stop offset="0.649038" stop-color="#3998DB"/>
</linearGradient>
<linearGradient id="paint23_linear_2699_384" x1="1035.07" y1="1095.96" x2="1035.07" y2="1459.59" gradientUnits="userSpaceOnUse">
<stop offset="0.00480769" stop-color="#33439A"/>
<stop offset="0.480769" stop-color="#1E2C7A"/>
</linearGradient>
<linearGradient id="paint24_linear_2699_384" x1="548.665" y1="1269.96" x2="808.532" y2="1309.49" gradientUnits="userSpaceOnUse">
<stop offset="0.211571" stop-color="#4A2E2E"/>
<stop offset="0.475962" stop-color="#634040"/>
<stop offset="0.875" stop-color="#4A2E2E"/>
</linearGradient>
</defs>
</svg>
