<svg width="1553" height="3421" viewBox="0 0 1553 3421" fill="none" xmlns="http://www.w3.org/2000/svg">
<g id="Fadinha">
<g id="Asa_direita">
<path id="Vector 3" d="M1381.95 109.149C1179.41 269.239 918.685 684.304 813.704 915.699C735.473 1099.41 622.613 1475.65 895.018 1506.76C1206.38 1534.45 1385.29 863.286 1456 538.391C1477.73 438.554 1514.45 251.804 1517.44 154.211C1530.53 -27.8535 1480.98 30.8737 1381.95 109.149Z" fill="url(#paint0_linear_2673_374)" stroke="#471F1E" stroke-width="4"/>
<path id="Vector 4" d="M1430.17 1901.99C1352.96 1813.55 1083.27 1600 954.435 1534.03C912.24 1512.43 809.792 1488.91 780.244 1637.39C764.678 1715.61 779.535 1775.61 826.559 1820.82C826.559 1820.82 904.484 1895.01 958.498 1932.31C1017.12 1972.79 1114.95 2016.34 1114.95 2016.34C1189.71 2056.55 1307.53 2077.76 1408.39 2059.15C1536.7 2035.48 1504.42 1987.03 1430.17 1901.99Z" fill="url(#paint1_linear_2673_374)" stroke="#471F1E" stroke-width="4"/>
</g>
<g id="Asa_esquerda">
<path id="Vector 3_2" d="M165.676 79.8996C343.2 243.587 567.085 663.237 655.804 896.463C721.665 1081.53 814.21 1459.72 569.975 1485.94C290.99 1508.02 145.941 833.806 89.941 507.716C72.7327 407.511 44.0494 220.145 43.5403 122.521C35.8813 -59.7375 78.8769 -0.134632 165.676 79.8996Z" fill="url(#paint2_linear_2673_374)" stroke="#471F1E" stroke-width="4"/>
<path id="Vector 4_2" d="M82.7405 1871.46C153.739 1784.43 399.595 1575.77 516.249 1512.13C554.454 1491.29 646.57 1469.61 669.689 1618.59C681.868 1697.07 667.253 1756.79 624.207 1801.14C624.207 1801.14 552.89 1873.92 503.77 1910.24C450.457 1949.66 362.023 1991.44 362.023 1991.44C294.297 2030.31 188.483 2049.4 98.7253 2028.98C-15.4659 2003.02 14.4692 1955.15 82.7405 1871.46Z" fill="url(#paint3_linear_2673_374)" stroke="#471F1E" stroke-width="4"/>
</g>
<g id="Corpo">
<path id="Vector 10" d="M366.639 487.601C406.761 380.089 477.129 360.525 507.299 364.181L525.322 541.279C512 623.559 487.238 803.007 494.761 862.562C504.164 937.006 462.633 1059.64 421.884 1102.35C389.286 1136.51 388.45 1174.57 392.107 1189.33C349.478 1157.99 348.224 1078.84 352.926 1043.19C325.343 1077.35 294.938 1091.9 283.184 1094.9C293.528 1077.35 297.681 1016.28 298.465 987.941C294.546 941.054 287.024 829.102 288.278 756.382C289.845 665.482 316.488 621.992 366.639 487.601Z" fill="url(#paint4_linear_2673_374)" stroke="#43090A" stroke-width="10"/>
<g id="Vector 11" filter="url(#filter0_f_2673_374)">
<path d="M352.926 831.597C364.837 970.14 305.517 1061.98 290.629 1087.84C311.003 1081.57 348.225 1047.09 358.412 1029.85C346.657 1121.54 371.341 1163.46 387.014 1179.91C384.806 1168.87 388.973 1147 398.376 1128.2C408.833 1107.28 418.924 1102.68 432.072 1083.53C444.786 1065.01 458.885 1032.31 463.416 1021.62C474.387 995.765 481.831 963.244 488.492 929.157C488.492 929.157 469.685 891.543 468.118 886.45C464.931 876.091 457.696 913.641 452.054 948.747C445.001 992.63 439.908 1013.79 414.832 1052.58C394.771 1083.61 383.487 1108.61 380.353 1117.23C369.774 1116.83 378.394 1011.05 380.353 947.572C381.92 896.794 362.721 849.097 352.926 831.597Z" fill="#FE3B8E"/>
</g>
<g id="bra&#195;&#167;o">
<g id="bra&#195;&#167;o_2">
<path d="M1060.92 1815.04C1033.97 1777.11 1005.55 1690.83 994.709 1652.44L983.738 1604.63L1101.28 1580.73C1105.59 1593.93 1115.93 1623.44 1122.83 1635.98C1129.73 1648.52 1155.74 1723.48 1167.89 1759.4C1184.74 1812.42 1219.45 1920.75 1223.53 1929.84C1228.62 1941.2 1258 1955.7 1326.57 1996.84C1381.42 2029.75 1382.99 2057.17 1377.52 2066.58C1384.56 2080.68 1384.14 2091.61 1381.01 2097.14C1393.56 2116.06 1383.23 2116.88 1374.76 2114.19C1376.11 2117.3 1376.23 2120.36 1374.76 2123.39C1365.05 2143.45 1263.62 2081.6 1214.12 2048.16C1259.57 2106.46 1242.46 2131.49 1228.23 2136.71C1219.74 2118.82 1195.79 2078.41 1167.89 2059.92C1139.99 2041.42 1135.37 1987.17 1136.54 1962.36C1122.57 1929.05 1087.88 1852.96 1060.92 1815.04Z" fill="url(#paint5_linear_2673_374)"/>
<path d="M1316.78 2064.62C1325.4 2069.71 1364.92 2091.52 1374.76 2114.19M1374.76 2114.19C1376.11 2117.3 1376.23 2120.36 1374.76 2123.39C1365.05 2143.45 1263.62 2081.6 1214.12 2048.16C1259.57 2106.46 1242.46 2131.49 1228.23 2136.71C1219.74 2118.82 1195.79 2078.41 1167.89 2059.92C1139.99 2041.42 1135.37 1987.17 1136.54 1962.36C1122.57 1929.05 1087.88 1852.96 1060.92 1815.04C1033.97 1777.11 1005.55 1690.83 994.709 1652.44L983.738 1604.63L1101.28 1580.73C1105.59 1593.93 1115.93 1623.44 1122.83 1635.98C1129.73 1648.52 1155.74 1723.48 1167.89 1759.4C1184.74 1812.42 1219.45 1920.75 1223.53 1929.84C1228.62 1941.2 1258 1955.7 1326.57 1996.84C1381.42 2029.75 1382.99 2057.17 1377.52 2066.58M1374.76 2114.19C1383.23 2116.88 1393.56 2116.06 1381.01 2097.14M1330.49 2044.64C1334.02 2047.77 1335.97 2046.2 1368.1 2080.68C1374.08 2087.1 1378.07 2092.71 1381.01 2097.14M1381.01 2097.14C1384.14 2091.61 1384.56 2080.68 1377.52 2066.58M1345.77 2036.8C1374.34 2055.23 1370.26 2052.9 1377.52 2066.58" stroke="#43090A" stroke-width="10"/>
</g>
<path id="Vector 22" d="M1279.16 2041.5C1279.78 2041.97 1280.36 2042.43 1280.92 2042.86C1291.48 2050.97 1301.69 2059.65 1312.45 2067.58C1313.02 2068.01 1313.62 2068.46 1314.23 2068.92C1315.93 2066.05 1317.62 2063.18 1319.32 2060.31C1318.62 2059.99 1317.94 2059.69 1317.28 2059.4C1305.09 2054.11 1293.36 2048.01 1281.18 2042.44C1280.53 2042.14 1279.86 2041.83 1279.16 2041.5Z" fill="#43090A"/>
<path id="Vector 23" d="M1298.36 2027.4C1298.84 2027.77 1299.36 2028.12 1299.87 2028.46C1303.36 2030.75 1307.12 2032.79 1310.42 2035.01C1315.89 2038.9 1321.64 2043.16 1326.32 2047.42C1326.69 2047.78 1327.08 2048.18 1327.17 2048.38C1329.38 2045.88 1331.59 2043.39 1333.8 2040.89C1332.99 2040.3 1332.39 2039.98 1331.76 2039.64C1325.08 2036.3 1318.81 2033.94 1312.16 2031.53C1308.04 2030.17 1304.06 2029.27 1300.09 2028.01C1299.51 2027.82 1298.92 2027.62 1298.36 2027.4Z" fill="#43090A"/>
<path id="Vector 24" d="M1317.17 2022.3C1317.59 2022.64 1318.04 2022.95 1318.49 2023.26C1321.88 2025.53 1325.63 2027.49 1328.75 2029.69C1333.21 2032.96 1337.72 2036.51 1341.96 2040.03C1342.35 2040.36 1342.76 2040.71 1343.06 2041C1344.87 2038.2 1346.67 2035.4 1348.48 2032.6C1347.9 2032.32 1347.38 2032.11 1346.85 2031.89C1341.43 2029.69 1336.17 2027.72 1330.66 2025.88C1326.52 2024.6 1322.62 2023.94 1318.7 2022.81C1318.19 2022.66 1317.67 2022.49 1317.17 2022.3Z" fill="#43090A"/>
</g>
<path id="manda" d="M529.464 1238.29C517.553 1213.22 485.749 1202.77 471.644 1200.68C461.196 1222.62 432.061 1272.54 396.641 1296.67C352.367 1326.84 354.718 1323.32 359.027 1360.15C362.475 1389.61 364.644 1401.94 365.297 1404.42C378.618 1402.07 408.396 1404.11 420.934 1431.06C433.472 1458.02 462.988 1466.33 476.179 1467.11L508.307 1411.08L529.464 1238.29Z" fill="url(#paint6_linear_2673_374)" stroke="#43090A" stroke-width="10"/>
<g id="perna">
<path id="perna_2" d="M464.984 2534.01C447.118 2485.11 410.392 2286.51 395.242 2198.23L634.637 2215.86C633.723 2274.24 637.519 2390.2 638.947 2398.05C640.514 2406.67 658.015 2472.49 664.022 2506.19C669.154 2523.63 677.172 2767.17 668.781 2943.45C667.561 2969.07 665.995 2993.27 664.022 3015.15C664.022 3015.15 620.299 3026.6 591.714 3026.51C563.729 3026.41 521.972 3015.54 521.972 3015.54V3005.74C521.188 2987.33 518.888 2966.19 516.726 2943.45C502.666 2795.49 480.47 2576.39 464.984 2534.01Z" fill="url(#paint7_linear_2673_374)" stroke="#43090A" stroke-width="10" stroke-linecap="round"/>
<path id="Vector 29" d="M664.806 3013.97C618.102 3036.85 549.222 3025.46 522.188 3015.93V3091.16C566.07 3109.34 633.461 3095.86 661.671 3086.85L664.806 3013.97Z" fill="#1E2D7B" stroke="#43090A" stroke-width="10" stroke-linecap="round"/>
<g id="Vector 30">
<path d="M520.345 3094.93C516.427 3101.98 480.38 3201.11 441.591 3229.71C435.052 3234.53 428.301 3239.92 421.609 3245.69C431.404 3289.87 465.883 3277.51 533.666 3243.03C587.893 3215.45 641.428 3131.2 658.929 3090.98C660.307 3090.98 660.695 3090.72 660.721 3090.46C660.646 3090.38 660.571 3090.31 660.496 3090.23C616.104 3111.95 547.216 3102.45 520.345 3094.93Z" fill="#FFDFDD"/>
<path d="M359.312 3335.11C362.054 3363.32 380.861 3413.47 492.135 3388.39C520.345 3376.25 582.251 3341.53 604.192 3299.85V3320.61C627.178 3325.18 673.855 3322.96 676.676 3277.51C680.127 3221.92 700.739 3132.46 660.721 3090.46C660.695 3090.72 660.307 3090.98 658.929 3090.98C641.428 3131.2 587.893 3215.45 533.666 3243.03C465.883 3277.51 431.404 3289.87 421.609 3245.69C388.606 3274.12 357.031 3311.65 359.312 3335.11Z" fill="#1F2B7A"/>
<path d="M421.609 3245.69C428.301 3239.92 435.052 3234.53 441.591 3229.71C480.38 3201.11 516.427 3101.98 520.345 3094.93C547.216 3102.45 616.104 3111.95 660.496 3090.23M421.609 3245.69C388.606 3274.12 357.031 3311.65 359.312 3335.11C362.054 3363.32 380.861 3413.47 492.135 3388.39C520.345 3376.25 582.251 3341.53 604.192 3299.85V3320.61C627.178 3325.18 673.855 3322.96 676.676 3277.51C680.127 3221.92 700.739 3132.46 660.721 3090.46M421.609 3245.69C431.404 3289.87 465.883 3277.51 533.666 3243.03C587.893 3215.45 641.428 3131.2 658.929 3090.98C660.307 3090.98 660.695 3090.72 660.721 3090.46M660.496 3090.23C660.571 3090.31 660.646 3090.38 660.721 3090.46M660.496 3090.23C660.014 3089.73 660.76 3090.09 660.721 3090.46" stroke="#43090A" stroke-width="10" stroke-linecap="round"/>
</g>
</g>
<path id="Vector 31" d="M956.702 3023.77C952.784 3007.7 853.658 2725.21 800.372 2590.43C778.653 2535.49 764.401 2473.67 762.759 2422.34C760.608 2355.1 770.418 2295.87 762.758 2277.76L973.158 2222.52C967.673 2295.65 974.099 2488.87 1043.68 2676.62C1113.27 2864.38 1083.65 3012.8 1083.65 3012.8C1083.65 3012.8 1061.71 3041.4 956.702 3023.77Z" fill="url(#paint8_linear_2673_374)" stroke="#43090A" stroke-width="10"/>
<g id="Vector 34" filter="url(#filter1_f_2673_374)">
<path d="M629.935 2348.68L421.493 2309.5C411.306 2246.42 392.497 2214.29 415.224 2155.91L627.976 2241.32L629.935 2348.68Z" fill="url(#paint9_linear_2673_374)"/>
<path d="M964.931 2311.85L771.77 2333.79C772.548 2276.59 771.516 2239.26 782.349 2155.91L968.066 2159.44L964.931 2311.85Z" fill="url(#paint10_linear_2673_374)"/>
</g>
<g id="vestido">
<path d="M542.562 1223.07C484.574 1267.26 493.847 1367.91 505.732 1412.7C556.536 1435.17 699.52 1475.23 865.02 1455.8C875.757 1415.12 896.773 1360.4 909.294 1330.42C816.514 1191.25 626.147 1200.87 542.562 1223.07Z" fill="url(#paint11_linear_2673_374)"/>
<path d="M1102.85 2050.18C1057.08 1897.53 920.788 1618.01 858.359 1497.33C676.874 1544.66 531.975 1484.14 482.211 1447.97C331.707 1680.33 246.543 1943.3 222.062 2050.18C330.201 2192.17 559.148 2224.53 660.104 2222.96C965.088 2216.38 1082.34 2105.03 1102.85 2050.18Z" fill="url(#paint12_linear_2673_374)"/>
<path d="M858.359 1497.33C857.701 1488.11 860.415 1473.25 865.02 1455.8C699.52 1475.23 556.536 1435.17 505.732 1412.7C497.721 1424.36 489.881 1436.12 482.211 1447.97C531.975 1484.14 676.874 1544.66 858.359 1497.33Z" fill="url(#paint13_linear_2673_374)"/>
<path d="M505.732 1412.7C493.847 1367.91 484.574 1267.26 542.562 1223.07C626.147 1200.87 816.514 1191.25 909.295 1330.42C896.773 1360.4 875.757 1415.12 865.02 1455.8M505.732 1412.7C556.536 1435.17 699.52 1475.23 865.02 1455.8M505.732 1412.7C497.721 1424.36 489.881 1436.12 482.211 1447.97M858.359 1497.33C920.788 1618.01 1057.08 1897.53 1102.85 2050.18C1082.34 2105.03 965.088 2216.38 660.104 2222.96C559.148 2224.53 330.201 2192.17 222.062 2050.18C246.543 1943.3 331.707 1680.33 482.211 1447.97M858.359 1497.33C857.701 1488.11 860.415 1473.25 865.02 1455.8M858.359 1497.33C676.874 1544.66 531.975 1484.14 482.211 1447.97" stroke="#43090A" stroke-width="10"/>
</g>
<path id="Vector 20" d="M417.183 1429.54C399.316 1395.37 372.125 1400.15 360.762 1406.82L397.201 1487.14C412.56 1470.21 426.586 1509.86 431.68 1531.8L470.077 1466.37C459.89 1468.33 435.049 1463.71 417.183 1429.54Z" fill="#F9FCFF" stroke="#43090A" stroke-width="10"/>
<g id="Vector 21">
<path d="M312.483 1294.85C322.279 1324.76 366.945 1425.72 366.945 1425.72C366.945 1425.72 384.625 1465.21 389.364 1480.43C389.364 1480.43 399.16 1475.73 411.61 1486.84C411.61 1486.84 419.642 1500.91 422.668 1510.74C423.996 1515.05 425.411 1521.96 425.411 1521.96C417.27 1544.16 385.098 1588.06 366.945 1596.15C309.898 1620.29 261.547 1510.74 261.547 1510.74C261.547 1510.74 233.86 1429.24 228.636 1400.64L201.601 1298.77L171.823 1193.37C165.816 1186.71 146.443 1175.21 137.736 1166.73C125.279 1154.6 115.331 1131.02 107.958 1108.35C102.56 1091.76 92.5474 1087.71 86.801 1087.84C72.3042 1091.37 27.6378 1061.73 12.3573 1042.92C-2.92324 1024.11 7.26378 998.254 27.6378 1016.28C48.0119 1034.3 82.0993 1042.92 86.801 1042.92C119.713 1057.03 117.231 1042.27 111.877 1033.12C92.9393 1006.48 54.4375 947.319 51.9299 923.81C49.4223 900.302 66.5575 900.694 75.4384 903.828C77.6587 910.228 88.995 934.232 116.578 979.055C144.162 1023.88 147.662 1022.55 145.964 1016.28C128.333 981.406 93.0698 906.022 93.0698 883.454C93.0698 860.886 108.742 860.468 116.578 863.08C123.37 879.536 142.438 923.81 164.379 969.26C186.32 1014.71 198.336 1016.15 201.601 1011.18C186.713 999.038 172.608 911.664 173.391 877.577C174.018 850.307 187.758 856.55 194.549 863.08C201.863 883.585 219.076 936.27 229.42 982.973C239.764 1029.68 256.716 1047.51 263.899 1050.59C269.178 1047.31 274.059 1044.72 278.004 1042.92L300.337 1011.18C330.115 979.839 339.518 1011.18 339.518 1011.18C339.518 1011.18 301.278 1066.27 300.337 1095.42C299.397 1124.57 285.057 1155.11 278.004 1166.73C283.96 1227.54 303.472 1277.48 312.483 1294.85Z" fill="url(#paint14_linear_2673_374)"/>
<path d="M396.722 1510.74C395.932 1503.36 392.041 1492.58 389.364 1480.43M216.49 1108.35C221.142 1082.89 245.061 1062.3 263.899 1050.59M263.899 1050.59C269.178 1047.31 274.059 1044.72 278.004 1042.92L300.337 1011.18C330.115 979.839 339.518 1011.18 339.518 1011.18C339.518 1011.18 301.278 1066.27 300.337 1095.42C299.397 1124.57 285.057 1155.11 278.004 1166.73C283.96 1227.54 303.472 1277.48 312.483 1294.85C322.279 1324.76 366.945 1425.72 366.945 1425.72C366.945 1425.72 384.625 1465.21 389.364 1480.43M263.899 1050.59C256.716 1047.51 239.764 1029.68 229.42 982.973C219.076 936.27 201.863 883.585 194.549 863.08C187.758 856.55 174.018 850.307 173.391 877.577C172.608 911.664 186.713 999.038 201.601 1011.18C198.336 1016.15 186.32 1014.71 164.379 969.26C142.438 923.81 123.37 879.536 116.578 863.08C108.742 860.468 93.0698 860.886 93.0698 883.454C93.0698 906.022 128.333 981.406 145.964 1016.28C147.662 1022.55 144.162 1023.88 116.578 979.055C88.995 934.232 77.6587 910.228 75.4384 903.828C66.5575 900.694 49.4223 900.302 51.9299 923.81C54.4375 947.319 92.9393 1006.48 111.877 1033.12C117.231 1042.27 119.713 1057.03 86.801 1042.92C82.0993 1042.92 48.0119 1034.3 27.6378 1016.28C7.26378 998.254 -2.92324 1024.11 12.3573 1042.92C27.6378 1061.73 72.3042 1091.37 86.801 1087.84C92.5474 1087.71 102.56 1091.76 107.958 1108.35C115.331 1131.02 125.279 1154.6 137.736 1166.73C146.443 1175.21 165.816 1186.71 171.823 1193.37L201.601 1298.77L228.636 1400.64C233.86 1429.24 261.547 1510.74 261.547 1510.74C261.547 1510.74 309.898 1620.29 366.945 1596.15C385.098 1588.06 417.27 1544.16 425.411 1521.96C425.411 1521.96 423.996 1515.05 422.668 1510.74C419.642 1500.91 411.61 1486.84 411.61 1486.84C399.16 1475.73 389.364 1480.43 389.364 1480.43" stroke="#43090A" stroke-width="10"/>
</g>
<g id="Vector 26" filter="url(#filter2_f_2673_374)">
<path d="M950.825 1500.22C924.181 1503.94 994.316 1557.62 1022.53 1562.71C1047.21 1569.37 1063.28 1565.45 1064.84 1549.39C1070.59 1527.97 1077.07 1495.29 1063.27 1489.65C1049.48 1484 1023.31 1519.95 1011.95 1538.62C990.946 1511.66 977.469 1496.51 950.825 1500.22Z" fill="#171F6A"/>
</g>
<g id="Vector 27" filter="url(#filter3_f_2673_374)">
<path d="M1042.51 1499.57C1050.35 1487.88 1070.33 1487.9 1070.33 1503.88C1070.33 1519.87 1064.45 1542.79 1065.63 1548.21" stroke="#1C174C" stroke-opacity="0.47" stroke-width="3" stroke-linecap="round"/>
</g>
<rect id="Rectangle 1" x="525.322" y="413.145" width="173.179" height="117.543" fill="#FE368F"/>
<g id="rosto">
<path d="M447.83 569.876C479.175 500.604 606.801 487.205 662.568 489.164C909.878 469.73 933.831 634.916 914.893 719.939C975.231 607.098 1060.65 668.22 1046.54 741.88C1035.26 800.808 960.865 827.033 925.08 832.78C914.001 877.822 887.082 913.471 852.927 941.311C844.558 980.62 832.841 1065.98 852.927 1092.93C878.036 1126.63 984.999 1149.35 1006.55 1190.88C1023.79 1224.11 1034.63 1263.5 1037.89 1279.04C1022.61 1297.98 974.656 1332.17 905.07 1317.44C810.723 1195.19 627.8 1199.9 548.133 1217.53L528.934 1232.02C524.546 1222.62 496.806 1206.43 483.484 1199.5C491.059 1185.14 508.638 1151.55 518.355 1132.11C530.501 1107.82 648.044 1105.47 683.307 1084.31C711.517 1067.39 697.673 1032.68 687.225 1017.44C664.961 1022.67 644.507 1025.91 627.697 1027.51C608.89 1016.41 549.92 985.008 510.938 941.311C462.354 886.849 467.812 806.129 467.812 806.129C467.812 806.129 408.649 656.466 447.83 569.876Z" fill="url(#paint15_linear_2673_374)"/>
<path d="M852.927 941.311C887.082 913.471 914.001 877.822 925.08 832.78C960.865 827.033 1035.26 800.808 1046.54 741.88C1060.65 668.22 975.231 607.098 914.893 719.939C933.831 634.916 909.878 469.73 662.568 489.164C606.801 487.205 479.175 500.604 447.83 569.876C408.649 656.466 467.812 806.129 467.812 806.129C467.812 806.129 462.354 886.849 510.938 941.311C549.92 985.008 608.89 1016.41 627.697 1027.51C644.507 1025.91 664.961 1022.67 687.225 1017.44M852.927 941.311C844.558 980.62 832.841 1065.98 852.927 1092.93C878.036 1126.63 984.999 1149.35 1006.55 1190.88C1023.79 1224.11 1034.63 1263.5 1037.89 1279.04C1022.61 1297.98 974.656 1332.17 905.07 1317.44C810.723 1195.19 627.8 1199.9 548.133 1217.53L528.934 1232.02C524.546 1222.62 496.806 1206.43 483.484 1199.5C491.059 1185.14 508.638 1151.55 518.355 1132.11C530.501 1107.82 648.044 1105.47 683.307 1084.31C711.517 1067.39 697.673 1032.68 687.225 1017.44M852.927 941.311C804.1 981.11 740.486 1004.95 687.225 1017.44" stroke="#43090A" stroke-width="10"/>
</g>
<g id="Vector 9" filter="url(#filter4_f_2673_374)">
<path d="M547.746 1155.09C529.404 1173.66 505.176 1182.72 488.231 1188.94C492.086 1181.34 497.696 1169.83 505.1 1156.64C510.143 1147.65 513.773 1139.06 519.077 1129.56C533.58 1116.71 553.927 1113.8 575.238 1109C569.947 1122.77 564.66 1137.96 547.746 1155.09Z" fill="#FEC1BF"/>
</g>
<g id="Vector 8" filter="url(#filter5_f_2673_374)">
<path d="M1016.65 1239.08C965.803 1234.79 918.699 1166.7 918.698 1139.56C935.67 1145.75 967.21 1161.44 985.616 1180.03C1002.59 1197.17 1011.32 1225.27 1016.65 1239.08Z" fill="#FEC1BF"/>
</g>
<g id="Group 8">
<g id="Ellipse 15" filter="url(#filter6_f_2673_374)">
<path d="M690.72 908.726C692.225 916.01 683.251 931.858 662.232 936.2C641.214 940.542 622.532 933.481 621.027 926.197C627.68 927.591 637.428 930.999 658.301 927.021C679.473 919.88 683.013 914.089 690.72 908.726Z" fill="#FF93BD"/>
</g>
<g id="Ellipse 17" filter="url(#filter7_f_2673_374)">
<ellipse cx="679.695" cy="924.217" rx="4.99531" ry="2.27142" transform="rotate(-26.061 679.695 924.217)" fill="white"/>
</g>
<g id="Ellipse 16" filter="url(#filter8_f_2673_374)">
<path d="M686.842 903.765C681.806 907.559 674.135 917.369 653.319 922.222C632.946 924.614 628.853 922.284 619.892 920.069C625.982 920.162 638.413 909.487 650.145 906.623C670.95 901.545 679.133 904.082 686.842 903.765Z" fill="#FF93BD"/>
</g>
<path id="boca" d="M601.333 915.443C621.185 928.112 670.526 939.579 709.08 884.099" stroke="#43090A" stroke-width="10" stroke-linecap="round"/>
</g>
<g id="cabelo">
<path d="M604.859 487.98L575.054 432.853C556.247 460.802 522.551 548.75 538.224 676.95C523.911 668.592 497.353 632.5 492.077 574.855C490.023 636.234 428.013 718.108 388.161 749.043C379.149 718.09 390.305 638.67 420.709 578.488C397.201 585.541 354.344 636.333 339.968 666.371C338.271 634.112 346.237 554.863 391.687 495.935C437.137 437.007 481.674 390.146 498.262 374.082C509.89 362.042 537.686 346.644 571.033 359.977C591.18 347.646 657.569 325.822 761.947 337.171C782.69 337.468 794.531 347.762 804.262 351.357C806.391 352.144 809.455 353.911 813.273 356.539C836.995 349.224 888.804 340.71 933.167 354.389C988.02 341.363 1112.93 351.436 1173.74 495.935C1234.55 640.434 1225.19 766.152 1212.92 810.949C1209.13 874.422 1207.12 1010.22 1229.37 1045.64C1257.19 1089.92 1343 1198.45 1310.09 1250.17C1306.69 1224.05 1285.79 1167.26 1229.37 1149.08C1172.95 1130.9 1126.72 1088.48 1110.66 1069.54C1120.92 1094.35 1143.67 1142.37 1157.34 1148.44C1158.26 1148.67 1159.15 1148.88 1160.02 1149.08C1159.18 1149.08 1158.28 1148.86 1157.34 1148.44C1118.53 1138.77 1039.86 1099.65 1015.05 1013.91C989.666 926.14 996.901 835.241 1003.69 800.762C1019.1 786.004 1047.18 744.498 1036.21 696.541C994.838 611.91 903.781 723.967 903.781 723.967C903.781 723.967 903.781 661.67 900.562 651.874C897.822 662.227 894.459 670.603 891.243 676.558C854.884 664.334 762.73 583.7 745.435 551.571C747.975 564.869 751.678 578.193 757.245 589.577C764.798 605.022 787.292 630.325 787.292 630.325C787.292 630.325 807.98 650.522 814.449 657.751C696.906 622.097 653.415 487.184 642.053 426.193L604.859 487.98Z" fill="url(#paint16_linear_2673_374)"/>
<path d="M489.276 543.617C489.201 547.096 491.134 556.089 491.207 559.408M491.207 559.408C492.664 626.044 522.673 667.868 538.224 676.95C522.551 548.75 556.247 460.802 575.054 432.853L604.859 487.98L642.053 426.193C653.415 487.184 696.906 622.097 814.449 657.751C807.98 650.522 787.292 630.325 787.292 630.325C787.292 630.325 764.798 605.022 757.245 589.577C751.678 578.193 747.975 564.869 745.435 551.571M491.207 559.408C500.936 621.663 431.466 715.427 388.161 749.043C379.149 718.09 390.305 638.67 420.709 578.488C397.201 585.541 354.344 636.333 339.968 666.371C338.271 634.112 346.237 554.863 391.687 495.935C437.137 437.007 481.674 390.146 498.262 374.082C509.89 362.042 537.686 346.644 571.033 359.977M598.954 377.608C589.383 369.234 580.007 363.565 571.033 359.977M739.613 500.244C740.537 513.413 741.785 532.465 745.435 551.571M745.435 551.571C762.73 583.7 854.884 664.334 891.243 676.558C894.459 670.603 897.822 662.227 900.562 651.874M877.138 495.935C881.367 503.6 885.052 511.185 888.244 518.659M888.244 518.659C913.014 531.328 969.919 572.18 985.278 602.898C986.061 590.491 978.617 551.728 942.57 495.935C903.167 434.944 839.885 374.853 813.273 356.539M888.244 518.659C911.359 572.77 908.714 621.072 900.562 651.874M698.082 359.977C726.16 342.261 746.516 336.95 761.947 337.171M571.033 359.977C591.18 347.646 657.569 325.822 761.947 337.171M761.947 337.171C782.69 337.468 794.531 347.762 804.262 351.357C806.391 352.144 809.455 353.911 813.273 356.539M813.273 356.539C836.995 349.224 888.804 340.71 933.167 354.389M1036.21 696.541C1065.36 656.106 1060.64 567.113 1054.63 527.671C1042.61 485.356 1006.59 393.672 958.635 365.462C950.634 360.756 942.05 357.127 933.167 354.389M1036.21 696.541C994.838 611.91 903.781 723.967 903.781 723.967C903.781 723.967 903.781 661.67 900.562 651.874M1036.21 696.541C1047.18 744.498 1019.1 786.004 1003.69 800.762C996.901 835.241 989.666 926.14 1015.05 1013.91C1040.44 1101.67 1122.28 1140.59 1160.02 1149.08C1146.86 1149.08 1121.63 1096.05 1110.66 1069.54C1126.72 1088.48 1172.95 1130.9 1229.37 1149.08C1285.79 1167.26 1306.69 1224.05 1310.09 1250.17C1343 1198.45 1257.19 1089.92 1229.37 1045.64C1207.12 1010.22 1209.13 874.422 1212.92 810.949C1225.19 766.152 1234.55 640.434 1173.74 495.935C1112.93 351.436 988.02 341.363 933.167 354.389" stroke="#43090A" stroke-width="10"/>
</g>
<g id="Vector 19" filter="url(#filter9_f_2673_374)">
<path d="M1110.35 1063.55C1067.64 999.683 1115.44 902.514 1117.4 898.988C1113.09 958.543 1125.57 1081.96 1164.36 1111.35C1141.25 1095.68 1119.23 1075.17 1110.35 1063.55Z" fill="#FE3A8E"/>
</g>
<g id="Vector 12" filter="url(#filter10_f_2673_374)">
<path d="M1056.33 981.098C1029.23 900.338 1033.11 764.206 1033.11 764.206C1033.11 764.206 1026.45 777.527 1021.74 785.363C1017.34 792.698 1007.64 802.603 1007.64 802.603C1006.07 819.451 990.007 868.427 1013.12 987.145C1017.69 1010.62 1024.34 1029.99 1033.1 1046.7C1062.49 1102.73 1117.34 1130.15 1143.59 1139.56C1111.46 1125.06 1078.8 1048.07 1056.33 981.098Z" fill="#FE3A8E"/>
</g>
<g id="Vector 28">
<path d="M1107.56 2053.35L1156.15 2074.51C1155.76 2091.36 1145.49 2128.82 1107.56 2143.86C1103.65 2153.53 1090.56 2172.93 1069.56 2173.25C1065.25 2185.78 1039.08 2213.21 968.864 2222.61C963.639 2227.84 945.12 2238.76 912.835 2240.64C894.681 2259.58 847.56 2289.3 804.304 2256.7C798.174 2267.96 778.14 2284.6 742.79 2274.82C726.595 2278.32 687.467 2281.7 660.51 2267.28C641.442 2280.73 593.667 2299.57 555.114 2267.28C555.5 2266.17 555.917 2264.6 556.302 2262.58C543.76 2265.45 510.134 2266.26 475.968 2246.52C448.019 2248.74 383.423 2247.38 348.63 2224.18C350.323 2221.67 352.538 2217.95 354.979 2213.21C327.147 2191.37 306.238 2186.87 299.262 2187.35C254.688 2196.76 230.799 2160.54 224.427 2141.25C200.069 2129.9 167.215 2104.95 168.006 2065.89C182.373 2059.49 215.95 2032.16 229.115 2037.48C265.151 2078.31 321.581 2126.88 377.218 2150.33C414.357 2165.98 452.2 2181.01 494.775 2190.2C549.916 2202.11 608.417 2208.44 667.171 2208.8C687.82 2208.93 708.5 2208.33 729.076 2206.96C750.794 2205.53 772.397 2203.25 793.725 2200.11C826.982 2195.22 859.166 2190.43 890.488 2181.28C906.109 2176.72 923.765 2171.65 938.68 2166C971.833 2153.44 1005.02 2141.76 1033.5 2123.68C1044.64 2116.6 1056.15 2106.16 1066.41 2098.21C1082.99 2085.37 1093.65 2068.51 1107.56 2053.35Z" fill="url(#paint17_linear_2673_374)"/>
<path d="M1107.56 2143.86C1145.49 2128.82 1155.76 2091.36 1156.15 2074.51L1107.56 2053.35C1093.65 2068.51 1082.99 2085.37 1066.41 2098.21M1107.56 2143.86C1103.65 2153.53 1090.56 2172.93 1069.56 2173.25M1107.56 2143.86C1108.48 2134.63 1105.28 2114.87 1066.41 2098.21M1069.56 2173.25C1065.25 2185.78 1039.08 2213.21 968.864 2222.61M1069.56 2173.25C1068.51 2165.45 1062.96 2149.27 1033.5 2123.68M968.864 2222.61C963.639 2227.84 945.12 2238.76 912.835 2240.64M968.864 2222.61C966.121 2210.95 957.8 2185.06 938.68 2166M912.835 2240.64C894.681 2259.58 847.56 2289.3 804.304 2256.7M912.835 2240.64C913.88 2229.78 910.548 2204.45 890.488 2181.28M804.304 2256.7C798.174 2267.96 778.14 2284.6 742.79 2274.82M804.304 2256.7C804.826 2248.1 803.442 2224.74 793.725 2200.11M742.79 2274.82C736.715 2273.14 730.187 2270.68 723.199 2267.28C727.117 2255.28 733.778 2226.42 729.076 2206.96M742.79 2274.82C726.595 2278.32 687.467 2281.7 660.51 2267.28M660.51 2267.28C641.442 2280.73 593.667 2299.57 555.114 2267.28C555.5 2266.17 555.917 2264.6 556.302 2262.58M660.51 2267.28C664.95 2256.12 672.499 2228.79 667.171 2208.8M555.114 2218.3C558.887 2238.93 557.865 2254.38 556.302 2262.58M556.302 2262.58C543.76 2265.45 510.134 2266.26 475.968 2246.52M475.968 2246.52C448.019 2248.74 383.423 2247.38 348.63 2224.18C350.323 2221.67 352.538 2217.95 354.979 2213.21M475.968 2246.52L494.775 2190.2M377.218 2150.33C321.581 2126.88 265.151 2078.31 229.115 2037.48C215.95 2032.16 182.373 2059.49 168.006 2065.89C167.215 2104.95 200.069 2129.9 224.427 2141.25M377.218 2150.33C373.503 2175.39 361.956 2199.68 354.979 2213.21M377.218 2150.33C414.357 2165.98 452.2 2181.01 494.775 2190.2M269.485 2106.64C260.082 2113.56 240.413 2131.17 236.965 2146.21C233.27 2145.04 228.998 2143.38 224.427 2141.25M224.427 2141.25C230.799 2160.54 254.688 2196.76 299.262 2187.35M314.934 2141.25C312.453 2153.22 305.845 2179.2 299.262 2187.35M299.262 2187.35C306.238 2186.87 327.147 2191.37 354.979 2213.21M494.775 2190.2C549.916 2202.11 608.417 2208.44 667.171 2208.8M667.171 2208.8C687.82 2208.93 708.5 2208.33 729.076 2206.96M729.076 2206.96C750.794 2205.53 772.397 2203.25 793.725 2200.11M793.725 2200.11C826.982 2195.22 859.166 2190.43 890.488 2181.28M890.488 2181.28C906.109 2176.72 923.765 2171.65 938.68 2166M938.68 2166C971.833 2153.44 1005.02 2141.76 1033.5 2123.68M1033.5 2123.68C1044.64 2116.6 1056.15 2106.16 1066.41 2098.21" stroke="#43090A" stroke-width="10" stroke-linecap="round"/>
</g>
<path id="Vector 32" d="M1084.82 3013.97C1050.03 3038.11 985.305 3028.47 956.312 3023.77L971.2 3092.72C1002.15 3101.87 1069.07 3112.24 1089.13 3080.58L1084.82 3013.97Z" fill="#1E2D7B" stroke="#43090A" stroke-width="10"/>
<g id="Vector 33">
<path d="M971.192 3091.16C974.981 3152.67 964.836 3223.33 1015.86 3273.35C1035.84 3292.94 1073.71 3290.01 1093.43 3227.9C1109.11 3178.53 1087.66 3107.22 1089.47 3079.01C1061.54 3113.49 998.979 3101.47 971.192 3091.16Z" fill="#FFDFDD"/>
<path d="M971.192 3091.16C972.498 3126.29 962.964 3213.79 959 3231.42C954.822 3250 931.238 3379.42 959 3395.2C970.026 3401.47 1127.48 3461.42 1134.92 3343.09C1140.88 3248.43 1107.1 3127.6 1089.47 3079.01C1087.66 3107.22 1109.11 3178.53 1093.43 3227.9C1073.71 3290.01 1035.84 3292.94 1015.86 3273.35C964.836 3223.33 974.981 3152.67 971.192 3091.16Z" fill="#1F2B7A"/>
<path d="M971.192 3091.16C972.498 3126.29 962.964 3213.79 959 3231.42C954.822 3250 931.238 3379.42 959 3395.2C970.026 3401.47 1127.48 3461.42 1134.92 3343.09C1140.88 3248.43 1107.1 3127.6 1089.47 3079.01M971.192 3091.16C974.981 3152.67 964.836 3223.33 1015.86 3273.35C1035.84 3292.94 1073.71 3290.01 1093.43 3227.9C1109.11 3178.53 1087.66 3107.22 1089.47 3079.01M971.192 3091.16C998.979 3101.47 1061.54 3113.49 1089.47 3079.01" stroke="#43090A" stroke-width="10"/>
</g>
<g id="sombra vestido" filter="url(#filter11_f_2673_374)">
<path d="M981.779 2148.86C981.779 2148.86 851.307 1671.63 773.729 1515.3L849.348 1501.98C886.178 1562.71 1038.98 1890.66 1091.88 2049.34C1066.41 2110.46 981.779 2148.86 981.779 2148.86Z" fill="#172471"/>
</g>
<g id="Vector 50" filter="url(#filter12_f_2673_374)">
<path d="M784.262 1434.98C719.67 1471.02 584.928 1416.79 540.683 1393.84C534.513 1390.64 525.138 1380.91 525.138 1380.91C525.138 1380.91 505.5 1295.2 511.949 1269.64C500.982 1291.58 493.931 1363.67 508.428 1409.51C576.845 1448.14 762.256 1468.67 860.664 1452.61C869.059 1423.26 896.943 1345.23 897.886 1346.43L895.535 1320.18C895.509 1318.57 879.306 1299.41 875.553 1296.67C883.389 1367.2 838.331 1404.81 784.262 1434.98Z" fill="#D5D8EA"/>
</g>
<path id="Vector 35" d="M583.822 1229.4C584.205 1229.65 584.648 1228.82 585.132 1229.01C585.616 1229.2 585.627 1229.68 586.215 1229.65C586.803 1229.63 587.333 1230.02 587.614 1229.87C587.896 1229.71 587.844 1230.29 588.224 1230.21C588.604 1230.13 588.813 1230.24 589.105 1230.47C589.396 1230.7 590.349 1230.99 590.734 1230.81C591.12 1230.63 591.469 1231.08 591.699 1231.21C591.771 1231.25 591.825 1231.3 591.865 1231.35C591.882 1231.37 591.886 1231.41 591.881 1231.44C591.881 1231.44 591.881 1231.44 591.881 1231.44C591.874 1231.49 591.854 1231.53 591.829 1231.54C591.704 1231.55 591.514 1231.6 591.278 1231.73C590.838 1231.99 590.842 1231.64 590.284 1231.73C589.725 1231.81 589.36 1232.08 588.757 1231.79C588.154 1231.5 587.891 1232.34 587.067 1231.73C586.242 1231.12 586.025 1232.01 585.121 1232.01C584.217 1232.01 583.164 1231.36 582.623 1231.32C582.082 1231.29 581.349 1231.3 580.607 1231.08C579.864 1230.85 578.887 1231.02 578.078 1230.7C577.269 1230.37 576.122 1229.94 575.599 1229.69C575.077 1229.43 574.949 1229.38 574.408 1229.41C574.096 1229.43 573.688 1229.32 573.367 1229.04C573.206 1228.9 573.268 1228.74 573.457 1228.69C573.734 1228.61 573.937 1228.72 574.1 1228.53C574.424 1228.16 574.559 1228.02 574.866 1228.3C575.173 1228.59 575.406 1228.07 575.595 1228.16C575.784 1228.25 575.738 1228.57 576.776 1228.46C577.814 1228.35 578.374 1228.37 578.762 1228.36C579.151 1228.35 579.908 1228.74 580.542 1228.72C581.176 1228.71 582.424 1228.97 582.955 1228.88C583.485 1228.79 583.438 1229.14 583.822 1229.4ZM602.433 1231.94C602.816 1232.2 603.259 1231.37 603.743 1231.56C604.227 1231.75 604.238 1232.22 604.826 1232.2C605.414 1232.17 605.944 1232.57 606.225 1232.41C606.507 1232.26 606.455 1232.84 606.835 1232.76C607.215 1232.68 607.424 1232.79 607.716 1233.02C608.007 1233.25 608.96 1233.54 609.345 1233.36C609.731 1233.18 610.08 1233.63 610.31 1233.76C610.382 1233.8 610.436 1233.85 610.476 1233.9C610.493 1233.92 610.497 1233.95 610.492 1233.99C610.492 1233.99 610.492 1233.99 610.492 1233.99C610.485 1234.04 610.465 1234.08 610.44 1234.08C610.315 1234.09 610.125 1234.14 609.889 1234.28C609.449 1234.53 609.453 1234.19 608.895 1234.27C608.336 1234.36 607.971 1234.63 607.368 1234.34C606.764 1234.05 606.502 1234.89 605.678 1234.28C604.853 1233.67 604.636 1234.56 603.732 1234.55C602.828 1234.55 601.775 1233.9 601.234 1233.87C600.693 1233.84 599.96 1233.84 599.218 1233.62C598.475 1233.4 597.498 1233.57 596.689 1233.24C595.88 1232.92 594.733 1232.49 594.21 1232.23C593.688 1231.98 593.56 1231.92 593.019 1231.96C592.707 1231.98 592.299 1231.86 591.978 1231.59C591.817 1231.44 591.879 1231.29 592.068 1231.23C592.345 1231.16 592.548 1231.26 592.71 1231.08C593.034 1230.71 593.17 1230.57 593.477 1230.85C593.783 1231.13 594.017 1230.62 594.206 1230.71C594.395 1230.8 594.349 1231.11 595.387 1231.01C596.425 1230.9 596.985 1230.91 597.373 1230.91C597.762 1230.9 598.519 1231.28 599.153 1231.27C599.787 1231.26 601.035 1231.52 601.566 1231.43C602.096 1231.33 602.049 1231.69 602.433 1231.94ZM570.984 1342.04C570.692 1346.49 571.558 1349.99 571.609 1355.37C571.71 1360.78 571.27 1361.63 571.937 1367.77C572.631 1373.94 573.35 1380.08 574.084 1382.76C574.82 1385.43 574.28 1385.8 575.335 1389.61C576.417 1393.36 577.024 1395.66 577.923 1398.96C578.71 1402.32 582.729 1412.09 584.958 1415.25C587.01 1418.48 589.112 1422.3 590.644 1424.45C591.114 1425.12 591.481 1425.66 591.757 1426.07C591.874 1426.24 591.905 1426.34 591.876 1426.37C591.876 1426.37 591.876 1426.37 591.876 1426.37C591.84 1426.4 591.71 1426.31 591.538 1426.1C590.699 1425.09 589.448 1423.58 587.997 1421.75C585.358 1418.31 585.337 1417.74 582.469 1412.64C579.726 1407.49 578.038 1404.31 576.077 1397.7C574.28 1391.03 572.935 1389.72 571.628 1380.04C570.59 1370.35 569.615 1369.46 568.835 1359.76C568.115 1350.06 568.98 1337.82 569.333 1332C569.638 1326.18 570.224 1318.35 571.433 1310.17C572.62 1301.99 574.032 1291.87 576.12 1282.98C578.151 1274.07 581.593 1261.68 583.427 1256.02C585.255 1250.3 585.703 1248.97 587.339 1243.47C588.278 1240.34 589.786 1236.07 591.337 1232.53C592.097 1230.81 592.104 1231.25 591.523 1233.07C590.651 1235.8 589.845 1237.92 589.561 1239.39C589.014 1242.3 588.782 1243.51 587.455 1246.94C586.138 1250.37 586.171 1252.19 585.513 1254.22C584.876 1256.3 584.474 1256.12 581.974 1266.74C579.542 1277.39 578.469 1283.19 577.702 1287.27C576.946 1291.3 575.136 1299.74 574.296 1306.41C573.363 1313.05 571.888 1326.62 571.796 1332.12C571.651 1337.61 571.308 1337.61 570.984 1342.04ZM745.768 1365C744.33 1369.1 744.145 1372.63 742.293 1377.62C740.412 1382.58 739.711 1383.18 737.583 1388.86C735.434 1394.55 732.601 1399.93 731.583 1402.46C730.567 1404.98 729.94 1404.97 728.271 1408.45C726.595 1411.88 725.35 1413.91 723.475 1416.66C721.64 1419.52 715.707 1427.9 713.447 1430.91C711.283 1434 708.104 1436.91 706.226 1438.67C705.645 1439.21 705.171 1439.63 704.799 1439.93C704.642 1440.06 704.548 1440.1 704.522 1440.07C704.522 1440.07 704.522 1440.07 704.522 1440.07C704.49 1440.04 704.563 1439.9 704.744 1439.72C705.627 1438.81 706.909 1437.41 708.307 1435.63C710.829 1432.33 711.442 1432.21 714.752 1427.66C717.988 1423.04 719.613 1420.07 723.19 1414.49C726.68 1408.82 726.687 1407.13 731.144 1398.89C735.439 1390.57 734.964 1389.27 738.113 1380.52C741.226 1371.75 745.02 1360.58 746.4 1355.12C747.816 1349.67 749.504 1342.3 751.236 1334.52C752.984 1326.73 754.402 1316.96 755.861 1308.27C757.371 1299.57 758.96 1287.21 759.588 1281.46C760.233 1275.72 760.37 1274.31 760.564 1268.78C760.669 1265.57 760.896 1261.27 761.189 1257.49C761.333 1255.67 761.494 1256.07 761.541 1257.93C761.605 1260.74 761.45 1262.91 761.597 1264.39C761.891 1267.2 761.988 1268.51 761.544 1272.01C761.084 1275.62 761.499 1277.26 761.273 1279.39C761.024 1281.47 760.806 1281.43 759.963 1292.01C759.059 1302.57 758.223 1308.39 757.69 1312.35C757.148 1316.38 755.498 1324.58 754.307 1331.05C753.191 1337.52 750.078 1350.5 748.791 1355.73C747.543 1360.97 747.185 1360.88 745.768 1365ZM862.082 1383.99C860.672 1387.62 860.48 1390.82 858.592 1395.23C856.676 1399.59 855.977 1400.07 853.767 1405.06C851.54 1410.03 848.615 1414.68 847.569 1416.87C846.522 1419.05 845.891 1419.01 844.2 1421.99C842.483 1424.97 841.255 1426.68 839.385 1429.04C837.556 1431.45 831.819 1438.66 829.758 1441.33C827.765 1444.04 824.869 1446.6 823.206 1448.19C822.688 1448.69 822.263 1449.06 821.928 1449.35C821.786 1449.47 821.7 1449.5 821.673 1449.47C821.673 1449.47 821.673 1449.47 821.673 1449.47C821.64 1449.44 821.7 1449.32 821.862 1449.14C822.644 1448.3 823.778 1447.01 825.008 1445.43C827.292 1442.44 827.842 1442.38 830.954 1438.39C834.014 1434.36 835.594 1431.77 839.149 1426.99C842.62 1422.17 842.686 1420.59 847.226 1413.56C851.624 1406.41 851.21 1405.17 854.437 1397.51C857.642 1389.83 861.341 1379.99 862.597 1375.09C863.904 1370.22 865.367 1363.63 866.673 1356.62C868.002 1349.63 868.688 1340.8 869.185 1332.96C869.792 1325.12 869.492 1313.94 868.843 1308.82C868.784 1308.26 868.727 1307.77 868.671 1307.32L868.844 1307.6C865.697 1305.21 864.498 1304.34 860.808 1301.86C858.432 1300.27 855.243 1297.95 852.655 1295.84C851.353 1294.78 851.757 1294.86 853.182 1295.77C855.264 1297.1 856.876 1298.33 858.033 1298.89C860.345 1300.02 861.318 1300.51 863.802 1302.55C866.286 1304.6 867.833 1305.02 869.325 1306.15C869.451 1306.25 869.565 1306.34 869.672 1306.42L870.012 1306.65L870.091 1307.09C870.17 1308.53 870.302 1309.35 871.114 1318.02C871.85 1327.55 871.541 1332.86 871.427 1336.45C871.303 1340.08 870.346 1347.59 869.534 1353.44C868.851 1359.31 866.201 1371.03 864.981 1375.72C863.828 1380.41 863.462 1380.33 862.082 1383.99ZM720.75 1242.96C721.907 1243.27 722.917 1242.49 724.339 1242.75C725.76 1243.01 725.93 1243.49 727.582 1243.55C729.234 1243.6 730.846 1244.07 731.595 1243.95C732.345 1243.83 732.366 1244.42 733.417 1244.39C734.467 1244.36 735.089 1244.49 735.979 1244.77C736.869 1245.04 739.642 1245.47 740.679 1245.34C741.715 1245.2 742.833 1245.71 743.52 1245.88C743.734 1245.93 743.9 1245.98 744.027 1246.04C744.081 1246.06 744.103 1246.1 744.099 1246.14C744.099 1246.14 744.099 1246.14 744.099 1246.14C744.095 1246.18 744.051 1246.22 743.979 1246.22C743.631 1246.22 743.107 1246.24 742.481 1246.35C741.314 1246.55 741.223 1246.2 739.672 1246.21C738.12 1246.22 737.167 1246.46 735.38 1246.08C733.592 1245.7 733.095 1246.52 730.59 1245.79C728.086 1245.05 727.731 1245.93 725.178 1245.81C722.624 1245.69 719.463 1244.88 717.926 1244.78C716.39 1244.67 714.322 1244.58 712.161 1244.25C710 1243.93 707.289 1243.97 704.912 1243.53C702.534 1243.09 699.169 1242.49 697.62 1242.16C696.071 1241.83 695.694 1241.76 694.176 1241.72C693.303 1241.7 692.115 1241.53 691.129 1241.2C690.633 1241.04 690.763 1240.88 691.281 1240.85C692.039 1240.81 692.645 1240.95 693.049 1240.78C693.857 1240.45 694.199 1240.32 695.147 1240.65C696.095 1240.98 696.604 1240.49 697.164 1240.6C697.724 1240.72 697.685 1241.03 700.585 1241.06C703.486 1241.1 705.07 1241.18 706.165 1241.23C707.26 1241.27 709.509 1241.77 711.295 1241.84C713.08 1241.91 716.682 1242.34 718.153 1242.32C719.624 1242.3 719.593 1242.65 720.75 1242.96Z" fill="#43090A"/>
<path id="Vector 36" d="M682.5 1083.5C676.589 1104.06 671.185 1142.37 697.901 1153.91M699.235 1154.45C698.782 1154.28 698.337 1154.1 697.901 1153.91M697.901 1153.91C727.078 1153.17 800.543 1138.27 848.5 1090" stroke="#43090A" stroke-width="5"/>
<path id="Vector 37" d="M697.319 1156.02C645.484 1155.52 614.89 1226.57 655.006 1246.52C695.123 1266.48 729.9 1196.79 697.319 1156.02Z" fill="url(#paint18_linear_2673_374)" stroke="#43090A" stroke-width="10"/>
<g id="Vector 38" filter="url(#filter13_f_2673_374)">
<path d="M696.541 1157.97C684.005 1156.8 679.718 1169 686.747 1173.25C693.777 1177.5 702.732 1169.32 696.541 1157.97Z" fill="white"/>
</g>
<g id="Group 6">
<path id="Vector 42" d="M537.862 811.863C510.771 803.895 485.75 767.067 479.481 746.04C472.037 730.367 483.008 685.309 526.89 701.373C570.773 717.437 585.662 757.402 583.311 787.571C580.96 817.741 551.184 815.781 537.862 811.863Z" fill="url(#paint19_linear_2673_374)"/>
<path id="Vector 39" d="M481.831 750.349C465.816 727.607 458.337 714.898 446.96 692.362C455.802 694.077 461.04 695.893 470.861 700.59C476.346 688.836 490.318 684.917 502.989 684.917C526.889 684.918 558.931 696.089 577.041 735.852C596.816 779.274 585.504 812.201 567.245 814.214C550.398 816.071 545.696 814.891 530.415 809.263C551.573 813.573 582.134 817.25 582.134 786.788C582.134 748.751 560.977 724.882 547.263 715.087C533.55 705.291 511.217 702.157 493.194 706.859C478.775 710.62 479.611 737.42 481.831 750.349Z" fill="#48130B"/>
<path id="Vector 40" d="M534.725 780.911C522.507 761.53 518.181 722.087 527.67 700.59C544.91 704.038 562.152 719.397 568.029 728.016C575.604 748.913 588.062 792.306 577.433 798.934C561.343 808.966 546.95 800.301 534.725 780.911Z" fill="url(#paint20_linear_2673_374)" stroke="#43090A" stroke-width="10"/>
<path id="Vector 41" d="M547.894 681.645C547.735 683.304 547.575 684.963 547.416 686.622C548.158 686.651 548.954 686.753 549.747 686.907C564.19 690.695 578.038 702.856 582.717 718.323C582.953 719.191 583.152 720.074 583.31 720.964C583.235 720.063 583.117 719.162 582.961 718.269C579.521 702.181 567.259 688.348 550.888 682.296C549.928 682.016 548.919 681.786 547.894 681.645Z" fill="#43090A"/>
<path id="Vector 43" d="M745.796 651.467C745.873 653.131 745.95 654.796 746.027 656.461C745.158 656.457 744.017 656.663 742.952 656.937C723.222 664.202 702.891 677.645 692.202 697.059C691.711 698.216 691.317 699.394 691.058 700.589C691.234 699.379 691.551 698.168 691.969 696.969C701.68 676.504 720.46 661.835 741.602 652.383C742.863 651.97 744.257 651.586 745.796 651.467Z" fill="#43090A"/>
</g>
<g id="Vector 7" filter="url(#filter14_f_2673_374)">
<path d="M692.5 1083.5L830.149 1027.11L833.284 989.495L839.161 951.882C764.325 1005.56 697 1021 697 1021C697 1021 717.576 1060.38 692.5 1083.5Z" fill="#F2BAC4"/>
<path d="M692.5 1083.5L830.149 1027.11L833.284 989.495L839.161 951.882C764.325 1005.56 697 1021 697 1021C697 1021 717.576 1060.38 692.5 1083.5Z" stroke="#FDD8DE"/>
</g>
<g id="olho">
<path id="Vector 46" d="M738.858 792.274C714.139 785.335 706.991 746.694 706.338 728.801C716.995 694.008 743.429 675.385 755.314 670.422C793.842 668.201 862.524 678.054 850.523 740.164C835.634 817.222 776.959 802.97 738.858 792.274Z" fill="url(#paint21_linear_2673_374)"/>
<path id="Vector 43_2" d="M600.549 829.103L583.31 845.559" stroke="#43090A" stroke-width="5" stroke-linecap="round"/>
<path id="Vector 45" d="M749.052 727.624C748.908 693.092 769.948 680.215 783.531 677.864C796.852 675.905 839.56 691.186 838.384 734.285C837.209 777.384 820.38 794.589 794.11 795.799C764.917 797.143 749.228 769.87 749.052 727.624Z" fill="url(#paint22_linear_2673_374)" stroke="#43090A" stroke-width="10" stroke-linecap="round"/>
<path id="Vector 44" d="M762.758 675.514C737.055 675.2 712.868 714.825 703.987 734.677C717.152 669.166 759.624 655.662 779.214 657.099C813.066 655.218 843.732 677.734 854.833 689.227H892.055L850.131 737.419C833.676 685.701 794.886 675.905 762.758 675.514Z" fill="#43090A" stroke="#43090A" stroke-width="5" stroke-linecap="round"/>
<g id="Ellipse 18" filter="url(#filter15_f_2673_374)">
<path d="M822.883 729.956C822.926 730.21 822.967 730.464 823.006 730.718C826.234 751.756 816.557 770.747 801.164 773.332C785.586 775.947 770.052 760.768 766.469 739.428C762.886 718.087 772.61 698.667 788.189 696.052C803.767 693.436 819.3 708.615 822.883 729.956Z" fill="#3B93C1"/>
<path d="M766.469 739.428C762.886 718.087 772.61 698.667 788.189 696.052C803.767 693.436 819.3 708.615 822.883 729.956C822.926 730.21 822.967 730.464 823.006 730.718C836.664 737.208 832.945 750.637 832.945 752.205C833.77 738.686 839.482 725.31 825.889 704.795C816.44 690.533 800.95 680.485 784.665 681.912C768.731 683.309 759.027 693.628 754.196 714.589C748.154 740.8 758.247 764.66 762.417 773.331C760.735 762.618 758.494 747.005 766.469 739.428Z" fill="#3B93C1"/>
</g>
<g id="Ellipse 19" filter="url(#filter16_f_2673_374)">
<path d="M824.195 717.838C828.802 730.669 826.506 743.236 819.065 745.907C811.625 748.579 817.883 734.59 813.276 721.759C808.668 708.929 794.942 702.115 802.382 699.444C809.822 696.772 819.588 705.008 824.195 717.838Z" fill="white"/>
</g>
</g>
<g id="manga">
<path d="M1038.59 1282.96C1007.25 1324.02 934.632 1325.41 902.242 1320.97C905.377 1361.71 911.332 1447.91 910.078 1466.72C908.825 1485.53 909.556 1518.18 910.078 1532.15C921.441 1545.34 948.867 1574 967.674 1583.09L971.984 1572.51C985.959 1578.78 1015.55 1586.3 1022.14 1566.24C1038.98 1572.38 1073.62 1578.23 1077.38 1552.52C1087.17 1547.75 1101.2 1538.91 1112.66 1527.45C1125.65 1514.45 1135.34 1498.08 1131.84 1480.43C1123.61 1438.9 1049.17 1340.95 1038.59 1282.96Z" fill="url(#paint23_linear_2673_374)"/>
<path d="M1022.14 1566.24C1015.55 1586.3 985.959 1578.78 971.984 1572.51C970.548 1587.79 965.558 1619.84 957.095 1625.79C960.752 1637.02 980.447 1655.26 1029.97 1638.33C1045.12 1648.65 1082.4 1657.61 1110.29 1610.9C1128.19 1607.64 1164.75 1592.33 1167.89 1557.23C1153.14 1553.44 1121.44 1542.18 1112.66 1527.45C1101.2 1538.91 1087.17 1547.75 1077.38 1552.52C1073.62 1578.23 1038.98 1572.38 1022.14 1566.24Z" fill="#E8EDF6"/>
<path d="M971.984 1572.51L967.674 1583.09C948.867 1574 921.441 1545.34 910.078 1532.15C909.556 1518.18 908.825 1485.53 910.078 1466.72C911.332 1447.91 905.377 1361.71 902.242 1320.97C934.632 1325.41 1007.25 1324.02 1038.59 1282.96C1049.17 1340.95 1123.61 1438.9 1131.84 1480.43C1135.34 1498.08 1125.65 1514.45 1112.66 1527.45M971.984 1572.51C985.959 1578.78 1015.55 1586.3 1022.14 1566.24C1038.98 1572.38 1073.62 1578.23 1077.38 1552.52C1087.17 1547.75 1101.2 1538.91 1112.66 1527.45M971.984 1572.51C970.548 1587.79 965.558 1619.84 957.095 1625.79C960.752 1637.02 980.447 1655.26 1029.97 1638.33M1029.97 1638.33C1030.62 1625.3 1031.15 1596.02 1028.01 1583.09M1029.97 1638.33C1045.12 1648.65 1082.4 1657.61 1110.29 1610.9M1110.29 1610.9C1106.51 1600.85 1095.56 1578.62 1082.08 1570.16M1110.29 1610.9C1128.19 1607.64 1164.75 1592.33 1167.89 1557.23C1153.14 1553.44 1121.44 1542.18 1112.66 1527.45" stroke="#43090A" stroke-width="10"/>
</g>
<path id="Vector 51" d="M450.095 651.748C460.543 640.255 492.802 617.817 538.252 620.011M679.695 620.011C702.028 600.813 762.993 573.151 828.19 616.093" stroke="black" stroke-width="10" stroke-linecap="round"/>
<g id="Vector 53" filter="url(#filter17_f_2673_374)">
<path d="M968.458 739.13C965.412 723.467 996.595 722.225 1004.11 722.282C979.349 659.592 944.426 717.841 930.061 754.802C951.061 760.13 947.17 788.367 942.99 801.819C969.671 787.533 972.848 761.711 968.458 739.13Z" fill="#F7BDCE"/>
</g>
<path id="Vector 52" d="M1006.85 720.077C996.929 694.218 967.439 664.597 928.885 752.989C939.464 760.172 955.449 780.886 934.762 806.275M967.674 741.627C974.988 747.373 981.074 767.721 946.908 803.14" stroke="#43090A" stroke-width="10" stroke-linecap="round"/>
<g id="Ellipse 1" filter="url(#filter18_f_2673_374)">
<ellipse cx="504.948" cy="2516.77" rx="32.9119" ry="23.9003" fill="#FED1D0"/>
</g>
<g id="Ellipse 3" filter="url(#filter19_f_2673_374)">
<ellipse cx="508.104" cy="838.606" rx="41.5234" ry="18.0232" transform="rotate(32.6346 508.104 838.606)" fill="#FED1D0"/>
</g>
<g id="Ellipse 4" filter="url(#filter20_f_2673_374)">
<ellipse cx="855.692" cy="814.69" rx="43.874" ry="18.0232" transform="rotate(-32.4091 855.692 814.69)" fill="#FED1D0"/>
</g>
<g id="Ellipse 2" filter="url(#filter21_f_2673_374)">
<ellipse cx="817.611" cy="2508.54" rx="32.9119" ry="24.2921" fill="#FED1D0"/>
</g>
<g id="Ellipse 13" filter="url(#filter22_f_2673_374)">
<ellipse cx="1131.84" cy="799.468" rx="7.05256" ry="12.5379" fill="white"/>
</g>
<g id="Ellipse 12" filter="url(#filter23_f_2673_374)">
<ellipse cx="1170.24" cy="793.983" rx="7.05256" ry="4.7017" transform="rotate(-20.3346 1170.24 793.983)" fill="white"/>
</g>
<g id="Ellipse 10" filter="url(#filter24_f_2673_374)">
<ellipse cx="983.213" cy="441.307" rx="6.66075" ry="3.39989" transform="rotate(-14.8783 983.213 441.307)" fill="white"/>
</g>
<g id="Ellipse 11" filter="url(#filter25_f_2673_374)">
<ellipse cx="1196.88" cy="787.322" rx="7.05256" ry="23.1167" fill="white"/>
</g>
<g id="Ellipse 8" filter="url(#filter26_f_2673_374)">
<ellipse cx="455.541" cy="474.818" rx="5.81348" ry="8.52101" transform="rotate(30.9001 455.541 474.818)" fill="white"/>
</g>
<g id="Ellipse 9" filter="url(#filter27_f_2673_374)">
<ellipse cx="997.452" cy="436.702" rx="6.66075" ry="14.4969" transform="rotate(-14.8783 997.452 436.702)" fill="white"/>
</g>
<g id="Ellipse 6" filter="url(#filter28_f_2673_374)">
<ellipse cx="345.162" cy="814.763" rx="7.05821" ry="4.19804" transform="rotate(15.1002 345.162 814.763)" fill="white"/>
</g>
<g id="Ellipse 7" filter="url(#filter29_f_2673_374)">
<ellipse cx="440.493" cy="466.995" rx="5.81348" ry="15.8421" transform="rotate(30.9001 440.493 466.995)" fill="white"/>
</g>
<g id="Ellipse 5" filter="url(#filter30_f_2673_374)">
<ellipse cx="314.666" cy="826.856" rx="7.05821" ry="18.7187" transform="rotate(-0.402516 314.666 826.856)" fill="white"/>
</g>
<g id="Vector 54" opacity="0.67" filter="url(#filter31_f_2673_374)">
<path d="M418.358 1354.49C412.089 1347.28 391.454 1380.74 381.92 1398.37C392.891 1397.76 409.347 1409.91 413.265 1414.22C417.575 1397.76 424.627 1361.7 418.358 1354.49Z" fill="#251D53"/>
</g>
<g id="Ellipse 21" filter="url(#filter32_f_2673_374)">
<path d="M561.363 740.165C561.392 740.337 561.42 740.509 561.447 740.681C563.666 754.899 558.674 767.478 550.175 768.905C541.573 770.349 532.637 759.823 530.214 745.395C527.792 730.967 532.801 718.1 541.402 716.656C550.004 715.212 558.941 725.737 561.363 740.165Z" fill="#3B93C1"/>
<path d="M530.214 745.395C527.792 730.967 532.801 718.1 541.402 716.656C550.004 715.212 558.941 725.737 561.363 740.165C561.392 740.337 561.42 740.509 561.447 740.681C569.165 745.323 573.849 762.064 573.88 763.119C571.852 755.594 565.14 730.532 564.477 730.599C554.041 717.384 546.093 712.636 530.214 706.306C530.214 706.306 526.043 714.463 526.473 728.64C527.015 746.471 532.944 764.439 533.525 770.171C532.374 762.93 525.937 750.331 530.214 745.395Z" fill="#3B93C1"/>
</g>
<g id="Ellipse 22" filter="url(#filter33_f_2673_374)">
<path d="M560.523 739.941C563.308 747.697 561.919 755.294 557.422 756.909C552.924 758.524 556.707 750.067 553.922 742.311C551.137 734.555 542.839 730.436 547.336 728.821C551.834 727.206 557.737 732.185 560.523 739.941Z" fill="white"/>
</g>
<g id="Vector 70" filter="url(#filter34_f_2673_374)">
<path d="M571.967 1454.5C527.049 1552.59 392.121 1830.25 404.267 1964.2C383.153 1855.61 514.866 1516.17 571.967 1454.5Z" fill="#181D53"/>
</g>
<g id="Vector 71" filter="url(#filter35_f_2673_374)">
<path d="M641.427 1492.58C628.692 1599.71 587.494 1812.67 611.263 1942.31C575.362 1860.15 605.946 1568.77 641.427 1492.58Z" fill="#181D53"/>
</g>
<g id="Vector 72" filter="url(#filter36_f_2673_374)">
<path d="M721.105 1482.11C731.022 1589.53 766.614 1803.5 739.449 1932.47C777.494 1851.28 754.573 1559.2 721.105 1482.11Z" fill="#181D53"/>
</g>
<g id="Vector 73" filter="url(#filter37_f_2673_374)">
<path d="M779.364 1490.32C812.365 1586.7 921.822 1816.75 920.356 1938.7C894.41 1798.28 788.772 1560.61 779.364 1490.32Z" fill="#181D53"/>
</g>
<path id="Vector 74" d="M863.845 1455.36C744.727 1472.09 537.468 1428.71 504.556 1412.26L483.207 1446.35C538.558 1486.77 690.922 1554.61 857.575 1502.58L863.845 1455.36Z" fill="url(#paint24_linear_2673_374)" stroke="#43090A" stroke-width="10"/>
</g>
</g>
<defs>
<filter id="filter0_f_2673_374" x="279.429" y="820.397" width="220.264" height="370.718" filterUnits="userSpaceOnUse" color-interpolation-filters="sRGB">
<feFlood flood-opacity="0" result="BackgroundImageFix"/>
<feBlend mode="normal" in="SourceGraphic" in2="BackgroundImageFix" result="shape"/>
<feGaussianBlur stdDeviation="5.6" result="effect1_foregroundBlur_2673_374"/>
</filter>
<filter id="filter1_f_2673_374" x="381.673" y="2133.11" width="609.193" height="238.37" filterUnits="userSpaceOnUse" color-interpolation-filters="sRGB">
<feFlood flood-opacity="0" result="BackgroundImageFix"/>
<feBlend mode="normal" in="SourceGraphic" in2="BackgroundImageFix" result="shape"/>
<feGaussianBlur stdDeviation="11.4" result="effect1_foregroundBlur_2673_374"/>
</filter>
<filter id="filter2_f_2673_374" x="931.894" y="1476.05" width="152.601" height="102.758" filterUnits="userSpaceOnUse" color-interpolation-filters="sRGB">
<feFlood flood-opacity="0" result="BackgroundImageFix"/>
<feBlend mode="normal" in="SourceGraphic" in2="BackgroundImageFix" result="shape"/>
<feGaussianBlur stdDeviation="6.5" result="effect1_foregroundBlur_2673_374"/>
</filter>
<filter id="filter3_f_2673_374" x="1037.81" y="1486.58" width="37.2184" height="66.3326" filterUnits="userSpaceOnUse" color-interpolation-filters="sRGB">
<feFlood flood-opacity="0" result="BackgroundImageFix"/>
<feBlend mode="normal" in="SourceGraphic" in2="BackgroundImageFix" result="shape"/>
<feGaussianBlur stdDeviation="1.6" result="effect1_foregroundBlur_2673_374"/>
</filter>
<filter id="filter4_f_2673_374" x="445.131" y="1065.9" width="173.207" height="166.14" filterUnits="userSpaceOnUse" color-interpolation-filters="sRGB">
<feFlood flood-opacity="0" result="BackgroundImageFix"/>
<feBlend mode="normal" in="SourceGraphic" in2="BackgroundImageFix" result="shape"/>
<feGaussianBlur stdDeviation="21.55" result="effect1_foregroundBlur_2673_374"/>
</filter>
<filter id="filter5_f_2673_374" x="875.598" y="1096.46" width="184.152" height="185.72" filterUnits="userSpaceOnUse" color-interpolation-filters="sRGB">
<feFlood flood-opacity="0" result="BackgroundImageFix"/>
<feBlend mode="normal" in="SourceGraphic" in2="BackgroundImageFix" result="shape"/>
<feGaussianBlur stdDeviation="21.55" result="effect1_foregroundBlur_2673_374"/>
</filter>
<filter id="filter6_f_2673_374" x="602.427" y="890.126" width="107.055" height="66.0047" filterUnits="userSpaceOnUse" color-interpolation-filters="sRGB">
<feFlood flood-opacity="0" result="BackgroundImageFix"/>
<feBlend mode="normal" in="SourceGraphic" in2="BackgroundImageFix" result="shape"/>
<feGaussianBlur stdDeviation="9.3" result="effect1_foregroundBlur_2673_374"/>
</filter>
<filter id="filter7_f_2673_374" x="669.897" y="916.02" width="19.596" height="16.3937" filterUnits="userSpaceOnUse" color-interpolation-filters="sRGB">
<feFlood flood-opacity="0" result="BackgroundImageFix"/>
<feBlend mode="normal" in="SourceGraphic" in2="BackgroundImageFix" result="shape"/>
<feGaussianBlur stdDeviation="2.6" result="effect1_foregroundBlur_2673_374"/>
</filter>
<filter id="filter8_f_2673_374" x="601.292" y="884.807" width="104.151" height="57.0237" filterUnits="userSpaceOnUse" color-interpolation-filters="sRGB">
<feFlood flood-opacity="0" result="BackgroundImageFix"/>
<feBlend mode="normal" in="SourceGraphic" in2="BackgroundImageFix" result="shape"/>
<feGaussianBlur stdDeviation="9.3" result="effect1_foregroundBlur_2673_374"/>
</filter>
<filter id="filter9_f_2673_374" x="1077.16" y="883.488" width="102.701" height="243.36" filterUnits="userSpaceOnUse" color-interpolation-filters="sRGB">
<feFlood flood-opacity="0" result="BackgroundImageFix"/>
<feBlend mode="normal" in="SourceGraphic" in2="BackgroundImageFix" result="shape"/>
<feGaussianBlur stdDeviation="7.75" result="effect1_foregroundBlur_2673_374"/>
</filter>
<filter id="filter10_f_2673_374" x="980.35" y="743.806" width="183.642" height="416.153" filterUnits="userSpaceOnUse" color-interpolation-filters="sRGB">
<feFlood flood-opacity="0" result="BackgroundImageFix"/>
<feBlend mode="normal" in="SourceGraphic" in2="BackgroundImageFix" result="shape"/>
<feGaussianBlur stdDeviation="10.2" result="effect1_foregroundBlur_2673_374"/>
</filter>
<filter id="filter11_f_2673_374" x="731.229" y="1459.48" width="403.149" height="731.876" filterUnits="userSpaceOnUse" color-interpolation-filters="sRGB">
<feFlood flood-opacity="0" result="BackgroundImageFix"/>
<feBlend mode="normal" in="SourceGraphic" in2="BackgroundImageFix" result="shape"/>
<feGaussianBlur stdDeviation="21.25" result="effect1_foregroundBlur_2673_374"/>
</filter>
<filter id="filter12_f_2673_374" x="490.346" y="1259.74" width="417.44" height="208.275" filterUnits="userSpaceOnUse" color-interpolation-filters="sRGB">
<feFlood flood-opacity="0" result="BackgroundImageFix"/>
<feBlend mode="normal" in="SourceGraphic" in2="BackgroundImageFix" result="shape"/>
<feGaussianBlur stdDeviation="4.95" result="effect1_foregroundBlur_2673_374"/>
</filter>
<filter id="filter13_f_2673_374" x="678.174" y="1152.69" width="25.6439" height="26.9005" filterUnits="userSpaceOnUse" color-interpolation-filters="sRGB">
<feFlood flood-opacity="0" result="BackgroundImageFix"/>
<feBlend mode="normal" in="SourceGraphic" in2="BackgroundImageFix" result="shape"/>
<feGaussianBlur stdDeviation="2.6" result="effect1_foregroundBlur_2673_374"/>
</filter>
<filter id="filter14_f_2673_374" x="673.861" y="932.48" width="184.278" height="169.782" filterUnits="userSpaceOnUse" color-interpolation-filters="sRGB">
<feFlood flood-opacity="0" result="BackgroundImageFix"/>
<feBlend mode="normal" in="SourceGraphic" in2="BackgroundImageFix" result="shape"/>
<feGaussianBlur stdDeviation="9.15" result="effect1_foregroundBlur_2673_374"/>
</filter>
<filter id="filter15_f_2673_374" x="741.816" y="671.277" width="103.52" height="112.847" filterUnits="userSpaceOnUse" color-interpolation-filters="sRGB">
<feFlood flood-opacity="0" result="BackgroundImageFix"/>
<feBlend mode="normal" in="SourceGraphic" in2="BackgroundImageFix" result="shape"/>
<feGaussianBlur stdDeviation="5.25" result="effect1_foregroundBlur_2673_374"/>
</filter>
<filter id="filter16_f_2673_374" x="791.914" y="690.641" width="42.9569" height="63.8974" filterUnits="userSpaceOnUse" color-interpolation-filters="sRGB">
<feFlood flood-opacity="0" result="BackgroundImageFix"/>
<feBlend mode="normal" in="SourceGraphic" in2="BackgroundImageFix" result="shape"/>
<feGaussianBlur stdDeviation="4.15" result="effect1_foregroundBlur_2673_374"/>
</filter>
<filter id="filter17_f_2673_374" x="926.061" y="690.591" width="82.0513" height="115.228" filterUnits="userSpaceOnUse" color-interpolation-filters="sRGB">
<feFlood flood-opacity="0" result="BackgroundImageFix"/>
<feBlend mode="normal" in="SourceGraphic" in2="BackgroundImageFix" result="shape"/>
<feGaussianBlur stdDeviation="2" result="effect1_foregroundBlur_2673_374"/>
</filter>
<filter id="filter18_f_2673_374" x="447.336" y="2468.17" width="115.224" height="97.2008" filterUnits="userSpaceOnUse" color-interpolation-filters="sRGB">
<feFlood flood-opacity="0" result="BackgroundImageFix"/>
<feBlend mode="normal" in="SourceGraphic" in2="BackgroundImageFix" result="shape"/>
<feGaussianBlur stdDeviation="12.35" result="effect1_foregroundBlur_2673_374"/>
</filter>
<filter id="filter19_f_2673_374" x="438.401" y="778.152" width="139.406" height="120.909" filterUnits="userSpaceOnUse" color-interpolation-filters="sRGB">
<feFlood flood-opacity="0" result="BackgroundImageFix"/>
<feBlend mode="normal" in="SourceGraphic" in2="BackgroundImageFix" result="shape"/>
<feGaussianBlur stdDeviation="16.7" result="effect1_foregroundBlur_2673_374"/>
</filter>
<filter id="filter20_f_2673_374" x="784.003" y="753.279" width="143.377" height="122.823" filterUnits="userSpaceOnUse" color-interpolation-filters="sRGB">
<feFlood flood-opacity="0" result="BackgroundImageFix"/>
<feBlend mode="normal" in="SourceGraphic" in2="BackgroundImageFix" result="shape"/>
<feGaussianBlur stdDeviation="16.7" result="effect1_foregroundBlur_2673_374"/>
</filter>
<filter id="filter21_f_2673_374" x="759.999" y="2459.55" width="115.224" height="97.9845" filterUnits="userSpaceOnUse" color-interpolation-filters="sRGB">
<feFlood flood-opacity="0" result="BackgroundImageFix"/>
<feBlend mode="normal" in="SourceGraphic" in2="BackgroundImageFix" result="shape"/>
<feGaussianBlur stdDeviation="12.35" result="effect1_foregroundBlur_2673_374"/>
</filter>
<filter id="filter22_f_2673_374" x="1111.79" y="773.93" width="40.105" height="51.0757" filterUnits="userSpaceOnUse" color-interpolation-filters="sRGB">
<feFlood flood-opacity="0" result="BackgroundImageFix"/>
<feBlend mode="normal" in="SourceGraphic" in2="BackgroundImageFix" result="shape"/>
<feGaussianBlur stdDeviation="6.5" result="effect1_foregroundBlur_2673_374"/>
</filter>
<filter id="filter23_f_2673_374" x="1150.43" y="775.938" width="39.627" height="36.0898" filterUnits="userSpaceOnUse" color-interpolation-filters="sRGB">
<feFlood flood-opacity="0" result="BackgroundImageFix"/>
<feBlend mode="normal" in="SourceGraphic" in2="BackgroundImageFix" result="shape"/>
<feGaussianBlur stdDeviation="6.5" result="effect1_foregroundBlur_2673_374"/>
</filter>
<filter id="filter24_f_2673_374" x="963.716" y="424.602" width="38.9941" height="33.4102" filterUnits="userSpaceOnUse" color-interpolation-filters="sRGB">
<feFlood flood-opacity="0" result="BackgroundImageFix"/>
<feBlend mode="normal" in="SourceGraphic" in2="BackgroundImageFix" result="shape"/>
<feGaussianBlur stdDeviation="6.5" result="effect1_foregroundBlur_2673_374"/>
</filter>
<filter id="filter25_f_2673_374" x="1176.83" y="751.206" width="40.105" height="72.2334" filterUnits="userSpaceOnUse" color-interpolation-filters="sRGB">
<feFlood flood-opacity="0" result="BackgroundImageFix"/>
<feBlend mode="normal" in="SourceGraphic" in2="BackgroundImageFix" result="shape"/>
<feGaussianBlur stdDeviation="6.5" result="effect1_foregroundBlur_2673_374"/>
</filter>
<filter id="filter26_f_2673_374" x="435.905" y="453.918" width="39.2717" height="41.7993" filterUnits="userSpaceOnUse" color-interpolation-filters="sRGB">
<feFlood flood-opacity="0" result="BackgroundImageFix"/>
<feBlend mode="normal" in="SourceGraphic" in2="BackgroundImageFix" result="shape"/>
<feGaussianBlur stdDeviation="6.5" result="effect1_foregroundBlur_2673_374"/>
</filter>
<filter id="filter27_f_2673_374" x="977.014" y="409.586" width="40.875" height="54.2329" filterUnits="userSpaceOnUse" color-interpolation-filters="sRGB">
<feFlood flood-opacity="0" result="BackgroundImageFix"/>
<feBlend mode="normal" in="SourceGraphic" in2="BackgroundImageFix" result="shape"/>
<feGaussianBlur stdDeviation="6.5" result="effect1_foregroundBlur_2673_374"/>
</filter>
<filter id="filter28_f_2673_374" x="325.259" y="797.312" width="39.8054" height="34.9038" filterUnits="userSpaceOnUse" color-interpolation-filters="sRGB">
<feFlood flood-opacity="0" result="BackgroundImageFix"/>
<feBlend mode="normal" in="SourceGraphic" in2="BackgroundImageFix" result="shape"/>
<feGaussianBlur stdDeviation="6.5" result="effect1_foregroundBlur_2673_374"/>
</filter>
<filter id="filter29_f_2673_374" x="417.949" y="440.074" width="45.0889" height="53.8408" filterUnits="userSpaceOnUse" color-interpolation-filters="sRGB">
<feFlood flood-opacity="0" result="BackgroundImageFix"/>
<feBlend mode="normal" in="SourceGraphic" in2="BackgroundImageFix" result="shape"/>
<feGaussianBlur stdDeviation="6.5" result="effect1_foregroundBlur_2673_374"/>
</filter>
<filter id="filter30_f_2673_374" x="294.607" y="795.137" width="40.1184" height="63.437" filterUnits="userSpaceOnUse" color-interpolation-filters="sRGB">
<feFlood flood-opacity="0" result="BackgroundImageFix"/>
<feBlend mode="normal" in="SourceGraphic" in2="BackgroundImageFix" result="shape"/>
<feGaussianBlur stdDeviation="6.5" result="effect1_foregroundBlur_2673_374"/>
</filter>
<filter id="filter31_f_2673_374" x="364.52" y="1336.09" width="73.7238" height="95.5305" filterUnits="userSpaceOnUse" color-interpolation-filters="sRGB">
<feFlood flood-opacity="0" result="BackgroundImageFix"/>
<feBlend mode="normal" in="SourceGraphic" in2="BackgroundImageFix" result="shape"/>
<feGaussianBlur stdDeviation="8.7" result="effect1_foregroundBlur_2673_374"/>
</filter>
<filter id="filter32_f_2673_374" x="515.942" y="695.807" width="68.4385" height="84.8647" filterUnits="userSpaceOnUse" color-interpolation-filters="sRGB">
<feFlood flood-opacity="0" result="BackgroundImageFix"/>
<feBlend mode="normal" in="SourceGraphic" in2="BackgroundImageFix" result="shape"/>
<feGaussianBlur stdDeviation="5.25" result="effect1_foregroundBlur_2673_374"/>
</filter>
<filter id="filter33_f_2673_374" x="537.726" y="720.217" width="32.5331" height="45.1918" filterUnits="userSpaceOnUse" color-interpolation-filters="sRGB">
<feFlood flood-opacity="0" result="BackgroundImageFix"/>
<feBlend mode="normal" in="SourceGraphic" in2="BackgroundImageFix" result="shape"/>
<feGaussianBlur stdDeviation="4.15" result="effect1_foregroundBlur_2673_374"/>
</filter>
<filter id="filter34_f_2673_374" x="389.098" y="1441.6" width="195.77" height="535.5" filterUnits="userSpaceOnUse" color-interpolation-filters="sRGB">
<feFlood flood-opacity="0" result="BackgroundImageFix"/>
<feBlend mode="normal" in="SourceGraphic" in2="BackgroundImageFix" result="shape"/>
<feGaussianBlur stdDeviation="6.45" result="effect1_foregroundBlur_2673_374"/>
</filter>
<filter id="filter35_f_2673_374" x="582.302" y="1479.68" width="72.0246" height="475.53" filterUnits="userSpaceOnUse" color-interpolation-filters="sRGB">
<feFlood flood-opacity="0" result="BackgroundImageFix"/>
<feBlend mode="normal" in="SourceGraphic" in2="BackgroundImageFix" result="shape"/>
<feGaussianBlur stdDeviation="6.45" result="effect1_foregroundBlur_2673_374"/>
</filter>
<filter id="filter36_f_2673_374" x="708.204" y="1469.21" width="63.8901" height="476.167" filterUnits="userSpaceOnUse" color-interpolation-filters="sRGB">
<feFlood flood-opacity="0" result="BackgroundImageFix"/>
<feBlend mode="normal" in="SourceGraphic" in2="BackgroundImageFix" result="shape"/>
<feGaussianBlur stdDeviation="6.45" result="effect1_foregroundBlur_2673_374"/>
</filter>
<filter id="filter37_f_2673_374" x="766.464" y="1477.42" width="166.807" height="474.176" filterUnits="userSpaceOnUse" color-interpolation-filters="sRGB">
<feFlood flood-opacity="0" result="BackgroundImageFix"/>
<feBlend mode="normal" in="SourceGraphic" in2="BackgroundImageFix" result="shape"/>
<feGaussianBlur stdDeviation="6.45" result="effect1_foregroundBlur_2673_374"/>
</filter>
<linearGradient id="paint0_linear_2673_374" x1="1136.56" y1="88.1519" x2="1109.57" y2="1511.34" gradientUnits="userSpaceOnUse">
<stop offset="0.514423" stop-color="#FBE4EB"/>
<stop offset="1" stop-color="white"/>
</linearGradient>
<linearGradient id="paint1_linear_2673_374" x1="1455.16" y1="2015.53" x2="725.946" y2="1812.62" gradientUnits="userSpaceOnUse">
<stop offset="0.379808" stop-color="#FBE4EB"/>
<stop offset="1" stop-color="white"/>
</linearGradient>
<linearGradient id="paint2_linear_2673_374" x1="385.538" y1="63.3104" x2="387.152" y2="1486.65" gradientUnits="userSpaceOnUse">
<stop offset="0.514423" stop-color="#FBE4EB"/>
<stop offset="1" stop-color="white"/>
</linearGradient>
<linearGradient id="paint3_linear_2673_374" x1="57.8747" y1="1984.53" x2="723.302" y2="1834.49" gradientUnits="userSpaceOnUse">
<stop offset="0.379808" stop-color="#FBE4EB"/>
<stop offset="1" stop-color="white"/>
</linearGradient>
<linearGradient id="paint4_linear_2673_374" x1="404.253" y1="363.777" x2="352.534" y2="1132.11" gradientUnits="userSpaceOnUse">
<stop offset="0.0384615" stop-color="#FD4994"/>
<stop offset="0.456307" stop-color="#FF93BD"/>
<stop offset="0.975962" stop-color="#FD4994"/>
</linearGradient>
<linearGradient id="paint5_linear_2673_374" x1="983.738" y1="1495.32" x2="1314.82" y2="2103.02" gradientUnits="userSpaceOnUse">
<stop offset="0.0673077" stop-color="#FFD4D1"/>
<stop offset="0.552885" stop-color="#FFF1F0"/>
<stop offset="1" stop-color="#FFD4D1"/>
</linearGradient>
<linearGradient id="paint6_linear_2673_374" x1="559.409" y1="1172.86" x2="443.154" y2="1467.11" gradientUnits="userSpaceOnUse">
<stop stop-color="#33439A"/>
<stop offset="1" stop-color="#1E2C7A"/>
</linearGradient>
<linearGradient id="paint7_linear_2673_374" x1="533.942" y1="1982.73" x2="568.421" y2="3383.45" gradientUnits="userSpaceOnUse">
<stop offset="0.168269" stop-color="#FFD4D1"/>
<stop offset="0.475962" stop-color="#FFF1F1"/>
<stop offset="0.831731" stop-color="#FFD4D1"/>
</linearGradient>
<linearGradient id="paint8_linear_2673_374" x1="861.886" y1="2017.99" x2="1059.75" y2="3514.31" gradientUnits="userSpaceOnUse">
<stop stop-color="#FFD4D1"/>
<stop offset="0.413462" stop-color="#FFEFEE"/>
<stop offset="1" stop-color="#FFD4D1"/>
</linearGradient>
<linearGradient id="paint9_linear_2673_374" x1="693.016" y1="2272.28" x2="691.841" y2="2354.95" gradientUnits="userSpaceOnUse">
<stop stop-color="#EDACB6"/>
<stop offset="1" stop-color="#F8C4CC"/>
</linearGradient>
<linearGradient id="paint10_linear_2673_374" x1="693.016" y1="2272.28" x2="691.841" y2="2354.95" gradientUnits="userSpaceOnUse">
<stop stop-color="#EDACB6"/>
<stop offset="1" stop-color="#F8C4CC"/>
</linearGradient>
<linearGradient id="paint11_linear_2673_374" x1="662.455" y1="1210.08" x2="662.455" y2="2223.02" gradientUnits="userSpaceOnUse">
<stop offset="0.134615" stop-color="#F9FCFF"/>
<stop offset="0.860577" stop-color="#959799"/>
</linearGradient>
<linearGradient id="paint12_linear_2673_374" x1="662.455" y1="1210.08" x2="662.455" y2="2223.02" gradientUnits="userSpaceOnUse">
<stop offset="0.663462" stop-color="#1F2D7B"/>
<stop offset="1" stop-color="#2A398B"/>
</linearGradient>
<linearGradient id="paint13_linear_2673_374" x1="662.455" y1="1210.08" x2="662.455" y2="2223.02" gradientUnits="userSpaceOnUse">
<stop offset="0.0913462" stop-color="#3E2527"/>
<stop offset="0.490385" stop-color="#5B3937"/>
<stop offset="0.865385" stop-color="#3E2527"/>
</linearGradient>
<linearGradient id="paint14_linear_2673_374" x1="142.133" y1="887.234" x2="350.967" y2="1582.69" gradientUnits="userSpaceOnUse">
<stop stop-color="#FFD4D1"/>
<stop offset="0.490385" stop-color="#FFF0EF"/>
<stop offset="1" stop-color="#FFD4D1"/>
</linearGradient>
<linearGradient id="paint15_linear_2673_374" x1="706.729" y1="169.44" x2="709.472" y2="1729.62" gradientUnits="userSpaceOnUse">
<stop offset="0.110577" stop-color="#FFD4D1"/>
<stop offset="0.485577" stop-color="#FFF1F0"/>
<stop offset="0.875" stop-color="#FFD4D1"/>
</linearGradient>
<linearGradient id="paint16_linear_2673_374" x1="828.627" y1="334" x2="828.627" y2="1250.17" gradientUnits="userSpaceOnUse">
<stop stop-color="#FD4994"/>
<stop offset="0.423077" stop-color="#FF93BD"/>
<stop offset="0.807692" stop-color="#FD4994"/>
</linearGradient>
<linearGradient id="paint17_linear_2673_374" x1="662.455" y1="2484.93" x2="703.595" y2="1668.01" gradientUnits="userSpaceOnUse">
<stop offset="0.307692" stop-color="#F8FDFF"/>
<stop offset="1" stop-color="#959899"/>
</linearGradient>
<linearGradient id="paint18_linear_2673_374" x1="687.139" y1="1152.88" x2="686.355" y2="1243.39" gradientUnits="userSpaceOnUse">
<stop offset="0.598789" stop-color="#D60926"/>
<stop offset="1" stop-color="#700514"/>
</linearGradient>
<linearGradient id="paint19_linear_2673_374" x1="556.668" y1="814.214" x2="511.61" y2="330.33" gradientUnits="userSpaceOnUse">
<stop offset="0.134615" stop-color="white"/>
<stop offset="0.677885" stop-color="#999999"/>
</linearGradient>
<linearGradient id="paint20_linear_2673_374" x1="569.596" y1="814.998" x2="551.965" y2="684.133" gradientUnits="userSpaceOnUse">
<stop stop-color="#57CDF5"/>
<stop offset="1" stop-color="#2F8ED3"/>
</linearGradient>
<linearGradient id="paint21_linear_2673_374" x1="792.536" y1="800.892" x2="781.957" y2="678.648" gradientUnits="userSpaceOnUse">
<stop offset="0.759615" stop-color="white"/>
<stop offset="1" stop-color="#999999" stop-opacity="0.47"/>
</linearGradient>
<linearGradient id="paint22_linear_2673_374" x1="799.588" y1="796.191" x2="794.103" y2="655.923" gradientUnits="userSpaceOnUse">
<stop stop-color="#B4F0FD"/>
<stop offset="0.649038" stop-color="#3998DB"/>
</linearGradient>
<linearGradient id="paint23_linear_2673_374" x1="1035.07" y1="1282.96" x2="1035.07" y2="1646.59" gradientUnits="userSpaceOnUse">
<stop offset="0.00480769" stop-color="#33439A"/>
<stop offset="0.480769" stop-color="#1E2C7A"/>
</linearGradient>
<linearGradient id="paint24_linear_2673_374" x1="548.665" y1="1456.96" x2="808.532" y2="1496.49" gradientUnits="userSpaceOnUse">
<stop offset="0.211571" stop-color="#4A2E2E"/>
<stop offset="0.475962" stop-color="#634040"/>
<stop offset="0.875" stop-color="#4A2E2E"/>
</linearGradient>
</defs>
</svg>
