<svg width="510" height="484" viewBox="0 0 510 484" fill="none" xmlns="http://www.w3.org/2000/svg">
<ellipse cx="251.5" cy="262" rx="225.5" ry="222" fill="white"/>
<ellipse cx="251" cy="262" rx="205" ry="202" fill="#E399BC"/>
<path d="M498.128 2.15082C454.628 19.1508 382.128 125.651 381.128 126.651C367.128 136.251 305.961 245.317 277.128 298.65C270.128 345.317 262.128 439.65 286.128 443.65C316.128 448.65 343.628 425.15 361.628 419.65C379.628 414.15 412.628 355.65 430.628 323.15C445.028 297.15 465.628 231.65 474.128 202.15C483.461 166.151 503.028 84.5508 506.628 46.1508C510.228 7.75082 502.461 0.817483 498.128 2.15082Z" fill="url(#paint0_linear_4154_2749)" stroke="#43090A" stroke-width="3" stroke-linecap="round"/>
<path d="M11.4254 6.15082C54.9254 23.1508 127.425 129.651 128.425 130.651C142.425 140.251 203.592 249.317 232.425 302.65C239.425 349.317 247.425 443.65 223.425 447.65C193.425 452.65 165.925 429.15 147.925 423.65C129.925 418.15 96.9254 359.65 78.9254 327.15C64.5254 301.15 43.9254 235.65 35.4254 206.15C26.0921 170.151 6.52544 88.5508 2.92543 50.1508C-0.674576 11.7508 7.0921 4.81748 11.4254 6.15082Z" fill="url(#paint1_linear_4154_2749)" stroke="#43090A" stroke-width="3" stroke-linecap="round"/>
<path d="M352.5 460.5L341 430L338.5 422.5L376.5 407.5C382 415.833 393.5 434 391.5 436C388.5 439 364.833 454.667 352.5 460.5Z" fill="#FCE7E4" stroke="#43090A" stroke-width="3"/>
<path d="M348.042 410.5C338.093 411.921 333 418 332.5 419C331.167 422.167 329.642 430.5 330.042 434.5C330.542 439.5 336.042 434 338.542 430.5C341.042 427 340.042 427.5 350.042 430C360.042 432.5 359.376 420.93 367.042 419C373 417.5 374 418.66 376.042 419C385.042 420.5 389.042 413 388.542 410.5C388.142 408.5 384.5 401.5 381 399.5C375.054 401.616 356.682 409.266 348.042 410.5Z" fill="#EFEFEF" stroke="#43090A" stroke-width="3" stroke-linecap="round"/>
<path d="M158.542 413C168.491 414.421 173.583 420.5 174.083 421.5C175.417 424.667 176.942 433 176.542 437C176.042 442 170.542 436.5 168.042 433C165.542 429.5 166.542 430 156.542 432.5C146.542 435 147.208 423.43 139.542 421.5C133.583 420 132.583 421.16 130.542 421.5C121.542 423 117.542 415.5 118.042 413C118.442 411 122.083 404 125.583 402C131.53 404.116 149.901 411.766 158.542 413Z" fill="#EFEFEF" stroke="#43090A" stroke-width="3" stroke-linecap="round"/>
<path d="M147.525 344.173C151.525 345.773 178.191 353.201 189.525 356.868C185.525 361.368 184.525 388.867 187.025 402.367C189.525 415.867 175.025 425.367 174.025 420.867C173.025 416.367 157.025 410.867 150.525 410.867C144.025 410.867 141.525 408.867 138.525 406.867C135.525 404.867 131.025 405.367 126.525 402.367C122.025 399.367 119.803 381.185 125.025 379.867C131.417 378.254 136.819 366.675 138.525 362.674C140.465 358.12 142.525 342.173 147.525 344.173Z" fill="url(#paint2_linear_4154_2749)"/>
<path d="M138.525 406.867C135.525 404.867 131.025 405.367 126.525 402.367C122.025 399.367 119.803 381.185 125.025 379.867C131.417 378.254 136.819 366.675 138.525 362.674C140.465 358.12 142.525 342.173 147.525 344.173C151.525 345.773 178.191 353.201 189.525 356.868C185.525 361.368 184.525 388.867 187.025 402.367C189.525 415.867 175.025 425.367 174.025 420.867C173.025 416.367 157.025 410.867 150.525 410.867C144.025 410.867 141.525 408.867 138.525 406.867ZM138.525 406.867C136.691 405.034 133.225 399.967 134.025 394.367" stroke="#43090A" stroke-width="3" stroke-linecap="round"/>
<path d="M359 341.499C355 343.099 328.333 350.527 317 354.194C321 358.694 322 386.194 319.5 399.694C317 413.194 331.5 422.694 332.5 418.194C333.5 413.694 349.5 408.194 356 408.194C362.5 408.194 365 406.194 368 404.194C371 402.194 375.5 402.694 380 399.694C384.5 396.694 386.721 378.512 381.5 377.194C375.108 375.58 369.706 364.002 368 360C366.059 355.446 364 339.499 359 341.499Z" fill="url(#paint3_linear_4154_2749)"/>
<path d="M368 404.194C371 402.194 375.5 402.694 380 399.694C384.5 396.694 386.721 378.512 381.5 377.194C375.108 375.58 369.706 364.002 368 360C366.059 355.446 364 339.499 359 341.499C355 343.099 328.333 350.527 317 354.194C321 358.694 322 386.194 319.5 399.694C317 413.194 331.5 422.694 332.5 418.194C333.5 413.694 349.5 408.194 356 408.194C362.5 408.194 365 406.194 368 404.194ZM368 404.194C369.833 402.36 373.3 397.294 372.5 391.694" stroke="#43090A" stroke-width="3" stroke-linecap="round"/>
<path d="M229 300.5C234.2 296.1 231.167 283.333 229 277.5L272.5 275C271.5 281.5 270.1 295.7 272.5 300.5C275.5 306.5 301.605 309.55 326 315.5C340.842 319.12 346.428 334.704 358 342.5C352.167 343.833 335.3 347.2 308.5 356C281.7 364.8 214 358 183.5 353.5L153 345C158 336.833 169.1 319.5 173.5 315.5C179 310.5 222.5 306 229 300.5Z" fill="url(#paint4_linear_4154_2749)" stroke="#43090A" stroke-width="3"/>
<path d="M316 353.5C272.4 362.7 212.333 358.333 188.5 354.5C182.833 362.333 179 379 182 396C185.765 417.333 189.157 425 190.157 434C210.197 445.896 307.082 442.201 309.657 435.5C309.657 435.5 318.657 405 319.657 398.5C320.657 392 323.999 374.5 316 353.5Z" fill="url(#paint5_linear_4154_2749)" stroke="#43090A" stroke-width="3"/>
<path d="M140.5 104.352C156.066 89.5705 181.167 89.9995 192 93.4995L175.5 168.852V234.352C175.5 264.852 165 284.852 161.5 291.352C158 297.852 133 311.852 124 322.852C116.8 331.652 116.667 340.186 117.5 343.352C107.9 336.952 106.5 318.019 107 309.352C100.2 314.952 89.5 315.352 85 314.852C100.6 308.052 107.167 280.352 108.5 267.352C110 253.519 113.3 217.652 114.5 184.852C116 143.852 133.5 111 140.5 104.352Z" fill="url(#paint6_linear_4154_2749)"/>
<path d="M331 88.8522C325.596 90.6671 319.5 95.8522 319 96.3522C325.833 130.352 331.8 198.6 329 215C325.5 235.5 338 264.352 343.5 280.852C349 297.352 374 304.852 386.5 317.852C396.5 328.252 394.667 339.852 392.5 344.352C405.3 334.752 403.5 316.685 401 308.852C410.2 316.052 420.5 316.185 424.5 315.352C419.333 309.519 407.7 295.152 402.5 284.352C396 270.852 399.296 215.83 397.5 193.852C396 175.5 387.5 137.852 385 126.852C382.5 115.852 376.932 98.3312 362 91.0004C351.107 85.6524 338.371 86.3767 331 88.8522Z" fill="url(#paint7_linear_4154_2749)"/>
<path d="M140.5 104.352C156.066 89.5705 181.167 89.9995 192 93.4995L175.5 168.852V234.352C175.5 264.852 165 284.852 161.5 291.352C158 297.852 133 311.852 124 322.852C116.8 331.652 116.667 340.186 117.5 343.352C107.9 336.952 106.5 318.019 107 309.352C100.2 314.952 89.5 315.352 85 314.852C100.6 308.052 107.167 280.352 108.5 267.352C110 253.519 113.3 217.652 114.5 184.852C116 143.852 133.5 111 140.5 104.352Z" stroke="#43090A" stroke-width="3"/>
<path d="M331 88.8522C325.596 90.6671 319.5 95.8522 319 96.3522C325.833 130.352 331.8 198.6 329 215C325.5 235.5 338 264.352 343.5 280.852C349 297.352 374 304.852 386.5 317.852C396.5 328.252 394.667 339.852 392.5 344.352C405.3 334.752 403.5 316.685 401 308.852C410.2 316.052 420.5 316.185 424.5 315.352C419.333 309.519 407.7 295.152 402.5 284.352C396 270.852 399.296 215.83 397.5 193.852C396 175.5 387.5 137.852 385 126.852C382.5 115.852 376.932 98.3312 362 91.0004C351.107 85.6524 338.371 86.3767 331 88.8522Z" stroke="#43090A" stroke-width="3"/>
<g filter="url(#filter0_f_4154_2749)">
<path d="M234.397 292.632L232.5 279.408V275L269.5 277.939C269.5 282.836 269.31 292.926 268.551 294.101C267.603 295.571 249.577 299.489 247.679 299.979C246.162 300.371 238.192 295.244 234.397 292.632Z" fill="#EBBDC2"/>
</g>
<path d="M191 246.19C188.159 241.397 176.5 201.69 170.5 182.69L167 147.69C172.5 140.523 188.5 125.69 208.5 123.69C228.5 121.69 239.833 119.334 245 121.001C309.4 109.001 337 153 341.5 171C332.833 198 317.054 248.43 312.5 254.19C300 270 261 284.69 249 285.19C237 285.69 198 258 191 246.19Z" fill="url(#paint8_linear_4154_2749)" stroke="#43090A" stroke-width="3"/>
<path d="M157.164 189.998C157.425 183.46 165.208 181.304 169.164 181.998L185.664 232.998C185.164 232.998 182.726 233.679 179.164 231.498C171 226.5 163.509 218.027 160.664 211.498C157.538 204.323 156.905 196.512 157.164 189.998Z" fill="#FDECEA" stroke="#43090A" stroke-width="3"/>
<path d="M350.009 190.017C349.85 183.476 342.102 181.199 338.135 181.831L320.841 232.567C321.341 232.575 323.769 233.293 327.364 231.169C335.605 226.298 343.227 217.944 346.174 211.46C349.411 204.335 350.166 196.534 350.009 190.017Z" fill="#FDECEA" stroke="#43090A" stroke-width="3"/>
<path fill-rule="evenodd" clip-rule="evenodd" d="M321 179.238C314.823 174.019 304.618 163.425 297.845 151.238C303.665 159.586 318.067 174.785 337 182.599C342.634 184.924 348.67 186.596 355 187.238C352.815 184.366 349.742 180.054 346.647 175.238C341.479 167.194 336.251 157.742 335 151.238C338.005 153.241 343.19 156.339 348.449 158.738C352.816 160.729 357.234 162.238 360.5 162.238C357.251 158.478 352.759 152.873 348.449 146.756C341.487 136.873 335 118.738 335 118.738C335 118.738 325.289 105.251 316 94.5352C311.757 89.64 307.601 85.3232 304.5 83.1346C303.211 82.225 302.075 81.3985 301.048 80.6522C295.048 76.2887 292.822 74.6703 286 75.24C284.141 75.3952 282.329 75.7423 280.564 76.2387C274.216 72.6373 258.543 77.7392 251.5 80.7403C244.663 76.2659 231.109 76.5461 223.36 77.4282C219.842 76.2718 215.92 75.7651 211.5 76.2387C205.245 76.9088 196.594 83.7676 188 92.8905C177.36 104.185 166.808 118.951 161 129.738C152.6 145.337 147.833 166.571 146.5 175.238C148.667 169.754 154.6 157.583 161 152.771C157.95 168.851 161.124 186.41 163.5 194.238C163.21 193.223 163.271 187.845 171 181.917C172.154 181.032 173.479 180.135 175 179.238C186.879 172.23 195.905 150.017 198.051 134.341C198.322 159.325 214.584 171.913 223.5 175.238C216.816 166.228 217.395 142.523 220.722 124.74C223.118 111.928 227.989 100.507 230.5 103.238C232.026 104.897 232.647 105.713 234.929 108.712C237.133 111.609 240.886 116.542 248.5 126.238C251.483 123.906 259.304 119.942 266.724 122.74C274.324 142.372 290.448 171.851 321 179.238Z" fill="url(#paint9_linear_4154_2749)"/>
<path d="M230.5 103.238C227.989 100.507 223.118 111.928 220.722 124.74C234.899 119.14 245.148 123.405 248.5 126.238C240.886 116.542 237.133 111.609 234.929 108.712C232.647 105.713 232.026 104.897 230.5 103.238Z" fill="url(#paint10_linear_4154_2749)"/>
<path d="M248.5 126.238C252.333 117.904 260.2 101.938 261 104.738C261.329 105.888 263.006 113.135 266.724 122.74M248.5 126.238C245.148 123.405 234.899 119.14 220.722 124.74M248.5 126.238C251.483 123.906 259.304 119.942 266.724 122.74M248.5 126.238C240.886 116.542 237.133 111.609 234.929 108.712C232.647 105.713 232.026 104.897 230.5 103.238C227.989 100.507 223.118 111.928 220.722 124.74M291 129.738C291.289 136.958 294.019 144.352 297.845 151.238M297.845 151.238C304.618 163.425 314.823 174.019 321 179.238C290.448 171.851 274.324 142.372 266.724 122.74M297.845 151.238C303.665 159.586 318.067 174.785 337 182.599C342.634 184.924 348.67 186.596 355 187.238C352.815 184.366 349.742 180.054 346.647 175.238C341.479 167.194 336.251 157.742 335 151.238C338.005 153.241 343.19 156.339 348.449 158.738C352.816 160.729 357.234 162.238 360.5 162.238C357.251 158.478 352.759 152.873 348.449 146.756C341.487 136.873 335 118.738 335 118.738C335 118.738 325.289 105.251 316 94.5352C311.757 89.64 307.601 85.3232 304.5 83.1346C303.211 82.225 302.075 81.3985 301.048 80.6522C295.048 76.2887 292.822 74.6703 286 75.24C284.141 75.3952 282.329 75.7423 280.564 76.2387M255.5 90.7377C262.683 86.0898 270.937 78.9456 280.564 76.2387M163.5 143.738C162.403 146.641 161.587 149.679 161 152.771M241.5 90.7377C236.71 85.4917 230.984 79.9343 223.36 77.4282M161 152.771C157.95 168.851 161.124 186.41 163.5 194.238C163.21 193.223 163.271 187.845 171 181.917C172.154 181.032 173.479 180.135 175 179.238C186.879 172.23 195.905 150.017 198.051 134.341M161 152.771C154.6 157.583 148.667 169.754 146.5 175.238C147.833 166.571 152.6 145.337 161 129.738C166.808 118.951 177.36 104.185 188 92.8905C196.594 83.7676 205.245 76.9088 211.5 76.2387C215.92 75.7651 219.842 76.2718 223.36 77.4282M221 77.7403C221.703 77.6326 222.495 77.5266 223.36 77.4282M280.564 76.2387C274.216 72.6373 258.543 77.7392 251.5 80.7403C244.663 76.2659 231.109 76.5461 223.36 77.4282M220.722 124.74C217.395 142.523 216.816 166.228 223.5 175.238C214.584 171.913 198.322 159.325 198.051 134.341M198.051 134.341C198.46 131.352 198.619 128.601 198.5 126.238C198.164 129.072 198.023 131.772 198.051 134.341Z" stroke="#43090A" stroke-width="3"/>
<path d="M211.315 400.464C211.981 400.441 212.647 400.418 213.313 400.395C213.274 399.723 213.238 399.079 213.204 398.41C212.367 386.534 213.963 374.669 216.361 362.959C216.491 362.298 216.615 361.668 216.749 361.001C216.583 361.66 216.426 362.284 216.263 362.938C213.286 374.481 211.061 386.418 211.304 398.459C211.305 399.135 211.308 399.785 211.315 400.464Z" fill="#43090A"/>
<path d="M213.314 400.41C212.648 400.422 211.981 400.434 211.314 400.446C211.343 401.127 211.399 401.819 211.472 402.502C213.147 414.645 217.334 425.983 221.837 437.124C222.094 437.738 222.359 438.36 222.621 438.964C222.39 438.348 222.156 437.713 221.931 437.088C217.993 425.781 214.386 414.127 213.366 402.346C213.329 401.693 213.309 401.039 213.314 400.41Z" fill="#43090A"/>
<path d="M288.055 400.462C287.389 400.439 286.722 400.416 286.056 400.393C286.096 399.721 286.132 399.077 286.166 398.408C287.002 386.532 285.407 374.667 283.009 362.957C282.879 362.296 282.754 361.666 282.62 360.999C282.787 361.658 282.944 362.282 283.107 362.936C286.084 374.479 288.308 386.416 288.065 398.457C288.065 399.133 288.062 399.783 288.055 400.462Z" fill="#43090A"/>
<path d="M286.056 400.409C286.722 400.421 287.389 400.433 288.055 400.445C288.026 401.126 287.97 401.818 287.897 402.502C286.223 414.644 282.035 425.982 277.532 437.123C277.275 437.737 277.011 438.359 276.749 438.963C276.98 438.347 277.213 437.712 277.439 437.087C281.376 425.78 284.984 414.126 286.004 402.345C286.041 401.692 286.061 401.038 286.056 400.409Z" fill="#43090A"/>
<path d="M310 436.5C279.5 446 208.036 444.5 190.036 435C189.536 440 188.236 450.1 187.036 450.5C185.536 451 231.036 471.5 308.536 456.5L310 436.5Z" fill="url(#paint11_linear_4154_2749)" stroke="#43090A" stroke-width="3"/>
<path d="M188 355.5C188.833 355 191.7 349.2 192.5 344" stroke="#43090A" stroke-width="3" stroke-linecap="round"/>
<path d="M316.5 354.5C315.667 353.333 313.8 349.6 313 344" stroke="#43090A" stroke-width="3" stroke-linecap="round"/>
<path d="M202.197 218.713C198.692 216.621 192.21 208.865 192.307 207.006L191 199.552C191.495 195.472 194.165 186.78 200.891 184.652C209.298 181.991 223.514 187.969 228.584 193.698C234.684 200.591 226.915 216.739 222.5 218C215.5 220 207.979 219.426 202.197 218.713Z" fill="white"/>
<path d="M202.179 218.5C203.179 219 213 219.5 219 218.5" stroke="#43090A" stroke-linecap="round"/>
<path d="M214.679 176C218 175.5 229.379 179.1 232.179 185.5" stroke="#43090A" stroke-width="2" stroke-linecap="round"/>
<path d="M213.63 185.004C216.408 184.756 219.201 186.147 221.458 188.925C223.71 191.699 225.32 195.746 225.655 200.418C225.991 205.09 224.98 209.372 223.151 212.51C221.32 215.654 218.761 217.524 215.983 217.772C213.204 218.021 210.411 216.63 208.154 213.851C205.901 211.078 204.292 207.03 203.957 202.358C203.621 197.686 204.632 193.404 206.46 190.266C208.292 187.122 210.851 185.252 213.63 185.004Z" fill="url(#paint12_linear_4154_2749)" stroke="#43090A" stroke-width="3"/>
<path d="M196.679 191.502C191.079 197.102 190.589 200.245 192.5 205.5C194.5 211 182.179 193 179.179 187.5C177.963 185.272 183.229 188.475 186.179 187C189.179 185.5 188.679 185.5 191.679 184C201.681 179 210.39 179.318 217.679 180.501C225.713 181.805 231.179 191.001 233.179 194.501C234.779 197.301 233.179 197.334 232.179 197.001C219.679 182.001 203.679 184.502 196.679 191.502Z" fill="#43090A" stroke="#43090A" stroke-linecap="round"/>
<g filter="url(#filter1_f_4154_2749)">
<ellipse cx="211" cy="194" rx="4" ry="5" fill="white"/>
</g>
<path d="M302.803 218.713C306.308 216.621 312.79 208.865 312.694 207.006L314 199.552C313.506 195.472 310.835 186.78 304.11 184.652C295.703 181.991 281.486 187.969 276.416 193.698C270.316 200.591 277.183 216.274 281.361 218.177C285.876 220.233 298.321 220.125 302.803 218.713Z" fill="white"/>
<path d="M304.5 219C303.5 219.5 292 220 286 219" stroke="#43090A" stroke-linecap="round"/>
<path d="M290.179 176C284.5 176 277 179.5 272.679 185.5" stroke="#43090A" stroke-width="2" stroke-linecap="round"/>
<path d="M291.803 185.633C289.025 185.385 286.232 186.776 283.975 189.554C281.723 192.328 280.113 196.375 279.778 201.047C279.442 205.719 280.454 210.001 282.282 213.139C284.114 216.283 286.672 218.153 289.451 218.401C292.229 218.65 295.022 217.259 297.28 214.48C299.532 211.707 301.141 207.658 301.476 202.986C301.812 198.315 300.801 194.033 298.973 190.895C297.141 187.751 294.582 185.881 291.803 185.633Z" fill="url(#paint13_linear_4154_2749)" stroke="#43090A" stroke-width="3"/>
<path d="M308.179 191.502C313.779 197.102 314.268 200.245 312.358 205.5C310.358 211 322.679 193 325.679 187.5C326.894 185.272 321.629 188.475 318.679 187C315.679 185.5 316.179 185.5 313.179 184C303.176 179 294.468 179.318 287.179 180.501C279.145 181.805 273.679 191.001 271.679 194.501C270.079 197.301 271.679 197.334 272.679 197.001C285.179 182.001 301.179 184.502 308.179 191.502Z" fill="#43090A" stroke="#43090A" stroke-linecap="round"/>
<g filter="url(#filter2_f_4154_2749)">
<ellipse cx="4" cy="5" rx="4" ry="5" transform="matrix(-1 0 0 1 291 189)" fill="white"/>
</g>
<path d="M250.256 213.816C249.844 215.037 248.741 217.913 247.619 219.65C246.497 221.388 247.715 225.342 248.464 227.102" stroke="#43090A" stroke-width="2" stroke-linecap="round"/>
<path d="M273 160.076C278.833 155.743 295.4 150.176 315 162.576" stroke="#43090A" stroke-width="3" stroke-linecap="round"/>
<path d="M181 166C184 165 195.5 151.077 227 160.077" stroke="#43090A" stroke-width="3" stroke-linecap="round"/>
<g filter="url(#filter3_f_4154_2749)">
<path d="M176 209C175.667 212 175.6 217.6 174 218C172.492 218.377 167.313 208.717 164.489 203C164.16 202.833 163.6 201.7 164 198.5C164.5 194.5 166 197.5 170 198.5C173.2 199.3 175.5 206 176 209Z" fill="#F3D0CB"/>
</g>
<g filter="url(#filter4_f_4154_2749)">
<path d="M331 209.521C331.333 212.521 331.4 218.122 333 218.522C334.508 218.899 339.687 209.239 342.511 203.521C342.84 203.355 343.4 202.222 343 199.022C342.5 195.022 341 198.022 337 199.022C333.8 199.822 331.5 206.521 331 209.521Z" fill="#F3D0CB"/>
</g>
<path d="M164.227 200.463C163.727 198.13 163.727 194.163 167.727 196.963C171.727 199.763 175.727 203.796 177.227 205.463M174.227 203.463C173.06 206.63 171.627 213.963 175.227 217.963" stroke="#43090A" stroke-width="3" stroke-linecap="round"/>
<path d="M344 200.463C344.5 198.13 344.5 194.163 340.5 196.963C336.5 199.763 332.5 203.796 331 205.463M334 203.463C335.167 206.63 336.6 213.963 333 217.963" stroke="#43090A" stroke-width="3" stroke-linecap="round"/>
<path d="M272.235 249.009C259.809 246.101 238.878 245.834 228.516 249.146C229.387 254.138 236.129 263.9 245.796 265.353C256.884 267.02 270.659 261.836 272.235 249.009Z" fill="#59171B" stroke="#43090A" stroke-width="3" stroke-linecap="round"/>
<path d="M248.901 252.919C242.445 252.291 234.042 250.712 232.818 249.629C246.755 245.913 263.794 248.555 270.572 250.341C264.591 251.71 255.356 253.547 248.901 252.919Z" fill="white"/>
<path d="M252.032 256.183C245.145 255.541 240.262 258.547 238.403 260.398C249.499 267.268 257.995 262.739 263.774 260.184C262.376 258.921 258.919 256.825 252.032 256.183Z" fill="#DA7B85"/>
<g filter="url(#filter5_f_4154_2749)">
<ellipse cx="231.434" cy="326.5" rx="10.4474" ry="4.64521" transform="rotate(24.0529 231.434 326.5)" fill="#FFB9CF"/>
</g>
<g filter="url(#filter6_f_4154_2749)">
<ellipse cx="10.4474" cy="4.64521" rx="10.4474" ry="4.64521" transform="matrix(-0.913169 0.40758 0.40758 0.913169 274.081 320)" fill="#FFB9CF"/>
</g>
<path d="M208 318C215.5 319.333 231.3 322.5 234.5 324.5C237.7 326.5 238.833 327.667 239 328" stroke="#43090A" stroke-linecap="round"/>
<path d="M289 319C281.5 320.333 265.7 323.5 262.5 325.5C259.3 327.5 258.167 328.667 258 329" stroke="#43090A" stroke-linecap="round"/>
<g filter="url(#filter7_f_4154_2749)">
<ellipse cx="200.128" cy="227.79" rx="15.0061" ry="8.40391" transform="rotate(24.0529 200.128 227.79)" fill="#FFB9CF"/>
</g>
<g filter="url(#filter8_f_4154_2749)">
<ellipse cx="15.0061" cy="8.40391" rx="15.0061" ry="8.40391" transform="matrix(-0.913169 0.40758 0.40758 0.913169 316.406 213)" fill="#FFB9CF"/>
</g>
<path d="M235.5 350C237.238 341.743 243.833 337.5 246.5 336.5C257.5 341 259.989 351.549 259 359C258.016 366.41 250.07 370.927 244.5 370C238.5 369.002 233.5 359.5 235.5 350Z" fill="#D9142A"/>
<path d="M221.5 305C221.5 306.5 234.5 336.5 246.5 336.5M246.5 336.5C258.5 336.5 275.5 317 279 305.5M246.5 336.5C243.833 337.5 237.238 341.743 235.5 350C233.5 359.5 238.5 369.002 244.5 370C250.07 370.927 258.016 366.41 259 359C259.989 351.549 257.5 341 246.5 336.5Z" stroke="#43090A" stroke-width="3" stroke-linecap="round"/>
<path d="M130.511 436.933C120.633 417.191 135.708 361.524 139.611 342.691C135.565 337.181 125.743 320.704 124.049 314.882C121.706 306.828 118.369 297.768 124.925 296.811C126.107 296.638 127.478 296.64 128.953 297.039C129.546 295.699 131.731 293.117 135.726 293.518C136.648 293.61 137.556 293.785 138.427 294.029C138.643 292.439 140.157 289.464 144.48 290.282C147.155 290.789 150.439 293.767 152.133 295.191C151.527 282.029 151.108 253.667 150.813 251.449C150.327 247.802 153.569 242.472 158.259 249.745C161.439 254.675 162.386 285.166 163.633 299.191C165.081 298.951 170.217 298.216 171.013 297.973C173.713 297.15 180.839 299.833 180.436 304.649C180.033 309.466 177.133 333.691 166.633 338.691C165.521 343.67 164.547 353.691 164.547 359.02C164.547 364.85 168.191 401.389 165.396 418.339C164.992 420.789 164.226 425.523 163.718 427.206C162.803 433.26 159.011 441.48 155.133 444.691C150.927 448.173 138.526 452.951 130.511 436.933Z" fill="url(#paint14_linear_4154_2749)"/>
<path d="M128.951 307.803C129.662 308.531 131.312 310.385 132.231 311.982C133.38 313.979 135.352 319.69 139.611 321.386C142.585 322.57 143.16 320.697 142.731 316.639M128.953 297.039C127.478 296.64 126.107 296.638 124.925 296.811C118.369 297.768 121.706 306.828 124.049 314.882C125.743 320.704 135.565 337.181 139.611 342.691C135.708 361.524 120.633 417.191 130.511 436.933C138.526 452.951 150.927 448.173 155.133 444.691C159.011 441.48 162.803 433.26 163.718 427.206C164.226 425.523 164.992 420.789 165.396 418.339C168.191 401.389 164.547 364.85 164.547 359.02C164.547 353.691 165.521 343.67 166.633 338.691C177.133 333.691 180.033 309.466 180.436 304.649C180.839 299.833 173.713 297.15 171.013 297.973C170.217 298.216 165.081 298.951 163.633 299.191M128.953 297.039C134.213 298.463 140.565 303.748 141.724 310.221C142.173 312.722 142.546 314.884 142.731 316.639M128.953 297.039C129.546 295.699 131.731 293.117 135.726 293.518C136.648 293.61 137.556 293.785 138.427 294.029M142.731 316.639C145.42 318.328 146.918 317.671 147.7 316.29M138.427 294.029C142.272 295.107 145.423 297.545 146.148 300.294C146.858 302.991 147.972 309.476 148.44 312.382C148.495 313.585 148.332 315.174 147.7 316.29M138.427 294.029C138.643 292.439 140.157 289.464 144.48 290.282C147.155 290.789 150.439 293.767 152.133 295.191M154.808 300.243C154.632 298.458 153.861 296.644 152.133 295.191M154.808 300.243C149.745 300.733 151.783 302.784 154.324 305.489M154.808 300.243C159.195 299.819 160.169 299.764 163.633 299.191M154.324 305.489C156.865 308.194 167.345 309.288 167.836 309.381C162.418 309.435 154.276 317.318 156 322.5M154.324 305.489C154.193 305.02 154.416 313.068 152.946 315.459C151.75 316.764 149.765 316.699 147.7 316.29M152.133 295.191C151.527 282.029 151.108 253.667 150.813 251.449C150.327 247.802 153.569 242.472 158.259 249.745C161.439 254.675 162.386 285.166 163.633 299.191" stroke="#43090A" stroke-width="3" stroke-linecap="round"/>
<defs>
<filter id="filter0_f_4154_2749" x="222.8" y="265.3" width="56.4" height="44.4" filterUnits="userSpaceOnUse" color-interpolation-filters="sRGB">
<feFlood flood-opacity="0" result="BackgroundImageFix"/>
<feBlend mode="normal" in="SourceGraphic" in2="BackgroundImageFix" result="shape"/>
<feGaussianBlur stdDeviation="4.85" result="effect1_foregroundBlur_4154_2749"/>
</filter>
<filter id="filter1_f_4154_2749" x="202.6" y="184.6" width="16.8" height="18.8" filterUnits="userSpaceOnUse" color-interpolation-filters="sRGB">
<feFlood flood-opacity="0" result="BackgroundImageFix"/>
<feBlend mode="normal" in="SourceGraphic" in2="BackgroundImageFix" result="shape"/>
<feGaussianBlur stdDeviation="2.2" result="effect1_foregroundBlur_4154_2749"/>
</filter>
<filter id="filter2_f_4154_2749" x="278.6" y="184.6" width="16.8" height="18.8" filterUnits="userSpaceOnUse" color-interpolation-filters="sRGB">
<feFlood flood-opacity="0" result="BackgroundImageFix"/>
<feBlend mode="normal" in="SourceGraphic" in2="BackgroundImageFix" result="shape"/>
<feGaussianBlur stdDeviation="2.2" result="effect1_foregroundBlur_4154_2749"/>
</filter>
<filter id="filter3_f_4154_2749" x="162.161" y="194.779" width="15.5387" height="24.9322" filterUnits="userSpaceOnUse" color-interpolation-filters="sRGB">
<feFlood flood-opacity="0" result="BackgroundImageFix"/>
<feBlend mode="normal" in="SourceGraphic" in2="BackgroundImageFix" result="shape"/>
<feGaussianBlur stdDeviation="0.85" result="effect1_foregroundBlur_4154_2749"/>
</filter>
<filter id="filter4_f_4154_2749" x="329.3" y="195.3" width="15.5387" height="24.9322" filterUnits="userSpaceOnUse" color-interpolation-filters="sRGB">
<feFlood flood-opacity="0" result="BackgroundImageFix"/>
<feBlend mode="normal" in="SourceGraphic" in2="BackgroundImageFix" result="shape"/>
<feGaussianBlur stdDeviation="0.85" result="effect1_foregroundBlur_4154_2749"/>
</filter>
<filter id="filter5_f_4154_2749" x="210.905" y="309.689" width="41.0562" height="33.6215" filterUnits="userSpaceOnUse" color-interpolation-filters="sRGB">
<feFlood flood-opacity="0" result="BackgroundImageFix"/>
<feBlend mode="normal" in="SourceGraphic" in2="BackgroundImageFix" result="shape"/>
<feGaussianBlur stdDeviation="5.4" result="effect1_foregroundBlur_4154_2749"/>
</filter>
<filter id="filter6_f_4154_2749" x="245.906" y="311.689" width="41.0562" height="33.6215" filterUnits="userSpaceOnUse" color-interpolation-filters="sRGB">
<feFlood flood-opacity="0" result="BackgroundImageFix"/>
<feBlend mode="normal" in="SourceGraphic" in2="BackgroundImageFix" result="shape"/>
<feGaussianBlur stdDeviation="5.4" result="effect1_foregroundBlur_4154_2749"/>
</filter>
<filter id="filter7_f_4154_2749" x="175.2" y="207.177" width="49.8561" height="41.2274" filterUnits="userSpaceOnUse" color-interpolation-filters="sRGB">
<feFlood flood-opacity="0" result="BackgroundImageFix"/>
<feBlend mode="normal" in="SourceGraphic" in2="BackgroundImageFix" result="shape"/>
<feGaussianBlur stdDeviation="5.4" result="effect1_foregroundBlur_4154_2749"/>
</filter>
<filter id="filter8_f_4154_2749" x="281.2" y="206.177" width="49.8561" height="41.2274" filterUnits="userSpaceOnUse" color-interpolation-filters="sRGB">
<feFlood flood-opacity="0" result="BackgroundImageFix"/>
<feBlend mode="normal" in="SourceGraphic" in2="BackgroundImageFix" result="shape"/>
<feGaussianBlur stdDeviation="5.4" result="effect1_foregroundBlur_4154_2749"/>
</filter>
<linearGradient id="paint0_linear_4154_2749" x1="500.5" y1="14.5" x2="285" y2="436" gradientUnits="userSpaceOnUse">
<stop offset="0.466387" stop-color="#FAE5EA"/>
<stop offset="1" stop-color="#FAF5F6"/>
</linearGradient>
<linearGradient id="paint1_linear_4154_2749" x1="9.05347" y1="18.5" x2="224.553" y2="440" gradientUnits="userSpaceOnUse">
<stop offset="0.466387" stop-color="#FAE5EA"/>
<stop offset="1" stop-color="#FAF5F6"/>
</linearGradient>
<linearGradient id="paint2_linear_4154_2749" x1="148.525" y1="400.174" x2="189.525" y2="252.674" gradientUnits="userSpaceOnUse">
<stop stop-color="#28337F"/>
<stop offset="1" stop-color="#485CE5"/>
</linearGradient>
<linearGradient id="paint3_linear_4154_2749" x1="358" y1="397.5" x2="317" y2="250" gradientUnits="userSpaceOnUse">
<stop stop-color="#28337F"/>
<stop offset="1" stop-color="#485CE5"/>
</linearGradient>
<linearGradient id="paint4_linear_4154_2749" x1="255.639" y1="247.991" x2="256" y2="401.5" gradientUnits="userSpaceOnUse">
<stop stop-color="#F7D3CE"/>
<stop offset="0.485577" stop-color="#FDECEA"/>
<stop offset="1" stop-color="#F7D3CE"/>
</linearGradient>
<linearGradient id="paint5_linear_4154_2749" x1="249.521" y1="352" x2="250" y2="504.5" gradientUnits="userSpaceOnUse">
<stop offset="0.197112" stop-color="white"/>
<stop offset="1" stop-color="#999999"/>
</linearGradient>
<linearGradient id="paint6_linear_4154_2749" x1="254.75" y1="88" x2="254.75" y2="344.353" gradientUnits="userSpaceOnUse">
<stop offset="0.187496" stop-color="#FB5598"/>
<stop offset="0.4375" stop-color="#FF96B9"/>
<stop offset="0.67308" stop-color="#FB5598"/>
</linearGradient>
<linearGradient id="paint7_linear_4154_2749" x1="254.75" y1="88" x2="254.75" y2="344.353" gradientUnits="userSpaceOnUse">
<stop offset="0.187496" stop-color="#FB5598"/>
<stop offset="0.4375" stop-color="#FF96B9"/>
<stop offset="0.67308" stop-color="#FB5598"/>
</linearGradient>
<linearGradient id="paint8_linear_4154_2749" x1="255" y1="102" x2="255" y2="370.5" gradientUnits="userSpaceOnUse">
<stop stop-color="#F7D3CE"/>
<stop offset="0.363375" stop-color="#FDECEA"/>
<stop offset="1" stop-color="#F7D3CE"/>
</linearGradient>
<linearGradient id="paint9_linear_4154_2749" x1="254" y1="18" x2="255" y2="345.24" gradientUnits="userSpaceOnUse">
<stop offset="0.26442" stop-color="#FB5598"/>
<stop offset="0.376176" stop-color="#FD8BB1"/>
<stop offset="0.461538" stop-color="#FB5598"/>
</linearGradient>
<linearGradient id="paint10_linear_4154_2749" x1="254" y1="18" x2="255" y2="345.24" gradientUnits="userSpaceOnUse">
<stop offset="0.26442" stop-color="#FB5598"/>
<stop offset="0.376176" stop-color="#FD8BB1"/>
<stop offset="0.461538" stop-color="#FB5598"/>
</linearGradient>
<linearGradient id="paint11_linear_4154_2749" x1="187" y1="448.49" x2="308.536" y2="448.49" gradientUnits="userSpaceOnUse">
<stop offset="0.173073" stop-color="#4D2E2C"/>
<stop offset="0.524039" stop-color="#694543"/>
<stop offset="0.879813" stop-color="#4D2E2C"/>
</linearGradient>
<linearGradient id="paint12_linear_4154_2749" x1="213.522" y1="183.508" x2="216.714" y2="219.212" gradientUnits="userSpaceOnUse">
<stop stop-color="#21719B"/>
<stop offset="1" stop-color="#6DBBDF"/>
</linearGradient>
<linearGradient id="paint13_linear_4154_2749" x1="291.911" y1="184.137" x2="288.719" y2="219.841" gradientUnits="userSpaceOnUse">
<stop stop-color="#21719B"/>
<stop offset="1" stop-color="#6DBBDF"/>
</linearGradient>
<linearGradient id="paint14_linear_4154_2749" x1="154" y1="249" x2="146" y2="458.5" gradientUnits="userSpaceOnUse">
<stop offset="0.115385" stop-color="#F7D3CE"/>
<stop offset="0.514423" stop-color="#FDECEA"/>
<stop offset="1" stop-color="#F7D3CE"/>
</linearGradient>
</defs>
</svg>
