<svg width="506" height="687" viewBox="0 0 506 687" fill="none" xmlns="http://www.w3.org/2000/svg">
<path d="M402.142 87.5607C369.407 113.492 325.364 182.963 307.045 222.034C293.291 253.096 272.436 317.116 314.22 324.794C362.049 332.21 395.79 217.822 409.668 162.314C413.932 145.257 421.304 113.318 422.655 96.4897C426.334 65.1595 418.148 74.8817 402.142 87.5607Z" fill="url(#paint0_linear_2611_38)" stroke="#471F1E" stroke-width="1.5"/>
<path d="M393.27 397.573C382.15 381.647 342.446 342.487 323.149 330.006C316.829 325.918 301.222 320.988 295.306 346.379C292.19 359.754 293.938 370.241 300.789 378.447C300.789 378.447 312.147 391.918 320.15 398.816C328.835 406.303 343.547 414.651 343.547 414.651C354.725 422.229 372.729 426.888 388.474 424.529C408.506 421.527 403.962 412.887 393.27 397.573Z" fill="url(#paint1_linear_2611_38)" stroke="#471F1E" stroke-width="1.5"/>
<path d="M184.494 74.0082C217.354 104.233 256.95 179.18 272.062 220.44C283.177 253.13 297.774 319.471 250.39 321.313C196.332 322.061 174.16 204.011 166.169 147.071C163.714 129.573 159.797 96.8949 160.543 80.0271C160.641 48.462 168.427 59.2298 184.494 74.0082Z" fill="url(#paint2_linear_2611_38)" stroke="#471F1E" stroke-width="1.5"/>
<path d="M152.98 382.545C167.442 368.293 216.719 334.954 239.794 325.245C247.351 322.066 265.324 319.333 268.499 345.32C270.172 359.01 266.833 369.165 258.138 376.353C258.138 376.353 243.738 388.139 233.939 393.872C223.304 400.095 205.867 406.34 205.867 406.34C192.454 412.308 171.858 414.442 154.704 409.929C132.88 404.188 139.074 396.25 152.98 382.545Z" fill="url(#paint3_linear_2611_38)" stroke="#471F1E" stroke-width="1.5"/>
<path d="M378.487 286.773C375.625 291.896 362.548 307.967 362.548 307.967C362.548 307.967 361.675 309.213 360.571 310.836L348.337 304.041L345.106 311.319L338.957 321.045C339.565 325.407 353.223 337.045 356.138 339.189C365.346 345.686 378.039 327.376 378.039 327.376C378.039 327.376 386.014 313.454 388.016 308.405L399.162 278.446C401.943 278.105 406.948 274.452 408.915 271.929C410.49 269.912 410.343 265.106 410.073 262.956C410.59 262.791 411.223 262.129 411.748 261.639C413.732 259.786 414.504 256.192 414.951 252.945C415.285 250.523 412.455 250.886 411.181 250.783C411.382 249.276 411.773 246.937 411.27 246.079C410.147 244.16 408.097 244.611 406.817 244.462C406.848 243.971 406.746 243.152 406.757 242.686C406.838 239.18 402.943 239.477 400.285 239.476C400.138 238.875 399.425 238.764 398.943 238.43C395.965 236.366 391.686 240.938 389.4 242.897C387.114 244.855 385.097 251.565 384.888 256.226C384.721 259.955 385.567 268.306 386.011 272.016C382.668 282.938 380.816 282.604 378.487 286.773Z" fill="url(#paint4_linear_2611_38)"/>
<path d="M356.515 317.174C357.313 315.696 359.137 312.947 360.571 310.836M360.571 310.836C361.675 309.213 362.548 307.967 362.548 307.967C362.548 307.967 375.625 291.896 378.487 286.773C380.816 282.604 382.668 282.938 386.011 272.016C385.567 268.306 384.721 259.955 384.888 256.226C385.097 251.565 387.114 244.855 389.4 242.897C391.686 240.938 395.965 236.366 398.943 238.43C399.425 238.764 400.138 238.875 400.285 239.476M360.571 310.836L348.337 304.041L345.106 311.319L338.957 321.045C339.565 325.407 353.223 337.045 356.138 339.189C365.346 345.686 378.039 327.376 378.039 327.376C378.039 327.376 386.014 313.454 388.016 308.405L399.162 278.446C401.943 278.105 406.948 274.452 408.915 271.929C410.49 269.912 410.343 265.106 410.073 262.956M400.501 253.065C401.719 251.32 401.3 243.631 400.285 239.476M400.501 253.065C400.957 257.149 400.873 258.6 402.959 257.655M400.501 253.065C400.133 253.484 397.914 255.261 397.026 255.002M400.285 239.476C402.943 239.477 406.838 239.18 406.757 242.686C406.746 243.152 406.848 243.971 406.817 244.462M406.817 244.462C406.505 249.471 404.769 254.616 403.458 256.882C403.239 257.259 403.291 257.505 402.959 257.655M406.817 244.462C408.097 244.611 410.147 244.16 411.27 246.079C411.773 246.937 411.382 249.276 411.181 250.783M402.959 257.655C403.112 261.924 405.297 262.221 406.194 262.123C406.428 262.098 406.927 261.677 407.547 261.055M411.181 250.783C410.98 252.29 410.347 254.627 409.915 255.809C409.198 257.769 408.835 259.764 407.547 261.055M411.181 250.783C412.455 250.886 415.285 250.523 414.951 252.945C414.504 256.192 413.732 259.786 411.748 261.639C411.223 262.129 410.59 262.791 410.073 262.956M407.547 261.055C408.084 263.37 408.76 263.374 410.073 262.956M397.447 270.318C399.051 268.512 401.792 264.207 399.924 261.431C398.18 258.841 396.682 257.329 397.026 255.002M388.587 254.508C389.833 253.282 393.641 248.073 395.825 244.129C396.718 242.517 398.038 240.498 398.787 240.357C399.834 240.159 400.49 241.812 400.911 243.051C401.692 245.346 399.131 248.759 397.532 251.874C397.026 252.862 396.662 254.202 397.026 255.002M393.538 242.897C393.825 243.745 393.691 244.991 394.609 246.57" stroke="#43090A" stroke-width="1.5"/>
<g filter="url(#filter0_f_2611_38)">
<path d="M397.707 255.671L399.907 254.527C400.674 258.935 402.22 258.504 402.311 258.743C402.403 258.981 402.675 260.108 402.939 261.024C403.52 261.807 405.017 263.827 407.163 262.514C407.526 263.395 408.618 264.068 409.491 263.667C409.573 265.824 409.524 267.383 409.228 269.475C405.414 269.969 399.678 267.491 399.678 267.491C402.168 262.953 399.976 260.701 399.976 260.701C399.976 260.701 397.917 258.484 397.707 255.671Z" fill="#F2BAC4" fill-opacity="0.52"/>
</g>
<path d="M349.414 142.759C341.103 121.987 322.189 121.968 317.564 125.396L322.013 153.252C324.915 167.558 330.494 198.788 329.591 209.262C328.461 222.354 336.581 243.526 344.009 250.717C349.952 256.469 356.835 262.235 360.641 265.145C357.243 256.93 356.738 246.092 355.668 239.885C360.733 245.673 371.514 245.866 373.592 246.31C371.66 243.31 367.405 236.653 364.817 229.84C359.789 216.603 359.667 206.399 358.943 193.682C358.039 177.786 358.746 166.083 349.414 142.759Z" fill="url(#paint5_linear_2611_38)" stroke="#43090A" stroke-width="1.5"/>
<g filter="url(#filter1_f_2611_38)">
<path d="M354.2 202.859C352.921 229.937 368.992 243.433 371.92 245.279C368.703 246.069 357.002 242.367 354.615 237.59C357.309 253.552 356.214 253.499 359.079 263.2C356.837 260.968 351.172 256.799 348.771 254.33C345.915 251.395 344.529 250.754 342.095 247.494C339.742 244.341 337.202 238.635 336.18 236.878C332.447 230.464 329.743 215.588 330.017 211.679C330.017 211.679 330.992 208.924 331.081 207.899C331.262 205.817 333.761 217.652 336.199 224.531C338.799 231.867 340.24 235.344 344.898 241.958C348.624 247.249 350.773 251.545 351.381 253.032C353.23 252.89 350.988 234.437 350.204 223.344C349.578 214.469 352.607 205.99 354.2 202.859Z" fill="#FE3B8E"/>
</g>
<path d="M205.078 371.544C211.001 365.945 218.822 352.091 221.992 345.864L225.504 338.025L206.123 329.919C204.933 332.039 202.151 336.757 200.539 338.676C198.927 340.596 191.905 352.589 188.595 358.345C183.895 366.881 174.242 384.309 173.232 385.731C171.97 387.51 166.428 389 153.246 393.734C142.701 397.522 141.498 402.18 142.117 403.981C140.428 406.165 140.127 408.057 140.478 409.113C137.677 411.936 139.424 412.429 140.97 412.254C140.632 412.743 140.358 413.328 140.657 413.835C141.52 415.297 161.084 408.698 170.819 406.379C161.025 414.848 163.113 419.729 165.381 421.111C167.448 418.326 172.94 412.199 178.362 409.972C183.785 407.744 186.427 398.581 187.07 394.278C190.605 389.033 199.156 377.142 205.078 371.544Z" fill="url(#paint6_linear_2611_38)"/>
<path d="M152.621 405.712C150.967 406.294 143.433 408.695 140.97 412.254M140.97 412.254C140.632 412.743 140.358 413.328 140.657 413.835C141.52 415.297 161.084 408.698 170.819 406.379C161.025 414.848 163.113 419.729 165.381 421.111C167.448 418.326 172.94 412.199 178.362 409.972C183.785 407.744 186.427 398.581 187.07 394.278C190.605 389.033 199.156 377.142 205.078 371.544C211.001 365.945 218.822 352.091 221.992 345.864L225.504 338.025L206.123 329.919C204.933 332.039 202.151 336.757 200.539 338.676C198.927 340.596 191.905 352.589 188.595 358.345C183.895 366.881 174.242 384.309 173.232 385.731C171.97 387.51 166.428 389 153.246 393.734C142.701 397.522 141.498 402.18 142.117 403.981M140.97 412.254C139.424 412.429 137.677 411.936 140.478 409.113M150.946 401.813C150.233 402.231 149.95 401.895 143.256 406.725C142.01 407.624 141.134 408.452 140.478 409.113M140.478 409.113C140.127 408.057 140.428 406.165 142.117 403.981M148.587 399.947C143.051 402.141 143.832 401.878 142.117 403.981" stroke="#43090A" stroke-width="1.5"/>
<path d="M159.871 403.02C159.749 403.078 159.632 403.134 159.52 403.188C157.416 404.186 155.354 405.295 153.224 406.254C153.111 406.308 152.992 406.363 152.87 406.419C152.704 405.947 152.538 405.475 152.373 405.004C152.504 404.971 152.63 404.94 152.751 404.91C155.015 404.38 157.225 403.697 159.494 403.118C159.615 403.087 159.74 403.054 159.871 403.02Z" fill="#43090A"/>
<path d="M157.053 399.943C156.957 399.989 156.854 400.03 156.755 400.068C156.074 400.329 155.36 400.537 154.708 400.794C153.625 401.254 152.491 401.766 151.519 402.323C151.44 402.371 151.356 402.425 151.324 402.459C151.072 402.028 150.819 401.596 150.567 401.164C150.717 401.093 150.829 401.057 150.945 401.019C152.184 400.657 153.34 400.44 154.554 400.232C155.3 400.126 156.015 400.092 156.736 399.996C156.841 399.981 156.949 399.965 157.053 399.943Z" fill="#43090A"/>
<path d="M153.995 398.428C153.91 398.47 153.822 398.506 153.734 398.542C153.07 398.801 152.361 398.994 151.738 399.252C150.851 399.641 149.95 400.076 149.091 400.518C149.011 400.56 148.928 400.603 148.863 400.643C148.679 400.178 148.494 399.713 148.31 399.248C148.416 399.22 148.512 399.198 148.608 399.177C149.603 398.965 150.569 398.784 151.569 398.636C152.313 398.542 153.008 398.546 153.715 398.469C153.809 398.458 153.902 398.446 153.995 398.428Z" fill="#43090A"/>
<path d="M316.689 288.11C320.83 283.711 325.737 283.171 332.231 279.35C334.526 277.999 333.897 284.709 343.194 288.674C349.314 291.285 352.038 298.299 352.454 301.998C349.608 306.285 343.066 316.699 339.665 324.059C339.42 324.59 339.129 325.035 338.797 325.403C334.526 330.138 323.551 322.003 318.238 316.962L316.689 288.11Z" fill="url(#paint7_linear_2611_38)"/>
<path d="M339.665 324.059C343.066 316.699 349.608 306.285 352.454 301.998C354.106 301.891 357.546 301.377 358.091 300.176C358.773 298.673 361.284 305.922 357.129 307.523C356.952 310.107 355.922 315.254 353.219 315.177C353.239 318.017 351.86 324.175 346.182 326.089C346.17 327.771 344.727 332.127 342.551 332.672C341.892 330.305 340.219 325.537 338.797 325.403C339.129 325.035 339.42 324.59 339.665 324.059Z" fill="url(#paint8_linear_2611_38)"/>
<path d="M352.454 301.998C349.608 306.285 343.066 316.699 339.665 324.059C339.42 324.59 339.129 325.035 338.797 325.403M352.454 301.998C352.038 298.299 349.314 291.285 343.194 288.674C333.897 284.709 334.526 277.999 332.231 279.35C325.737 283.171 320.83 283.711 316.689 288.11L318.238 316.962C323.551 322.003 334.526 330.138 338.797 325.403M352.454 301.998C354.106 301.891 357.546 301.377 358.091 300.176C358.773 298.673 361.284 305.922 357.129 307.523M357.129 307.523C355.918 307.78 353.067 307.988 351.344 306.766M357.129 307.523C356.952 310.107 355.922 315.254 353.219 315.177M353.219 315.177C352.678 315.429 351.023 315.665 348.727 314.589M353.219 315.177C353.239 318.017 351.86 324.175 346.182 326.089M346.182 326.089C345.404 325.687 343.873 324.278 343.969 321.855M346.182 326.089C346.17 327.771 344.727 332.127 342.551 332.672C341.892 330.305 340.219 325.537 338.797 325.403" stroke="#43090A" stroke-width="1.5"/>
<path d="M284.419 514.686C289.826 507.344 305.763 475.766 312.65 461.67L271.54 452.871C268.823 462.729 262.484 482.035 261.859 483.285C261.171 484.656 254.994 494.861 252.327 500.23C250.607 502.91 237.287 543.454 230.032 573.497C228.977 577.863 228.051 582.008 227.307 585.783C227.307 585.783 234.094 589.857 238.904 591.246C243.613 592.605 251.167 592.828 251.167 592.828L251.649 591.182C252.686 588.125 254.111 584.685 255.593 580.968C265.23 556.788 279.732 521.049 284.419 514.686Z" fill="url(#paint9_linear_2611_38)" stroke="#43090A" stroke-width="1.5" stroke-linecap="round"/>
<path d="M227.234 585.544C233.961 591.686 246.1 593.156 251.114 592.881L247.416 605.527C239.145 606.427 228.478 600.85 224.178 597.949L227.234 585.544Z" fill="#1E2D7B" stroke="#43090A" stroke-width="1.5" stroke-linecap="round"/>
<path d="M247.542 606.251C247.854 607.629 249.041 626.063 254.156 632.777C255.018 633.909 255.888 635.147 256.73 636.445C252.911 643.391 247.722 639.619 238.021 630.492C230.261 623.191 225.403 606.399 224.438 598.777C224.207 598.709 224.154 598.646 224.162 598.602C224.179 598.593 224.195 598.583 224.212 598.574C230.607 604.406 242.655 606.194 247.542 606.251Z" fill="#FFDFDD"/>
<path d="M262.807 654.537C260.959 659.144 255.331 666.651 237.857 656.968C233.712 653.54 225.011 644.663 223.372 636.577L222.351 640.068C218.262 639.707 210.524 637.04 212.284 629.261C214.437 619.747 215.37 603.695 224.162 598.602C224.154 598.646 224.207 598.709 224.438 598.777C225.403 606.399 230.261 623.191 238.021 630.492C247.722 639.619 252.911 643.391 256.73 636.445C260.88 642.845 264.343 650.706 262.807 654.537Z" fill="#1F2B7A"/>
<path d="M256.73 636.445C255.888 635.147 255.018 633.909 254.156 632.777C249.041 626.063 247.854 607.629 247.542 606.251C242.655 606.194 230.607 604.406 224.212 598.574M256.73 636.445C260.88 642.845 264.343 650.706 262.807 654.537C260.959 659.144 255.331 666.651 237.857 656.968C233.712 653.54 225.011 644.663 223.372 636.577L222.351 640.068C218.262 639.707 210.524 637.04 212.284 629.261C214.437 619.747 215.37 603.695 224.162 598.602M256.73 636.445C252.911 643.391 247.722 639.619 238.021 630.492C230.261 623.191 225.403 606.399 224.438 598.777C224.207 598.709 224.154 598.646 224.162 598.602M224.212 598.574C224.195 598.583 224.179 598.593 224.162 598.602M224.212 598.574C224.317 598.513 224.174 598.537 224.162 598.602" stroke="#43090A" stroke-width="1.5" stroke-linecap="round"/>
<g filter="url(#filter2_f_2611_38)">
<path d="M265.797 475.43L302.766 479.086C307.58 468.983 312.322 464.507 311.371 453.576L271.404 457.48L265.797 475.43Z" fill="url(#paint10_linear_2611_38)"/>
</g>
<path d="M151.288 601.017C149.644 603.444 143.733 610.402 134.566 598.103C127.323 588.385 124.655 583.679 133.32 560.228L128.711 559.542C127.802 557.209 126.535 551.998 128.733 549.82C131.48 547.099 147.098 534.75 159.626 537.256C155.309 540.675 146.04 549.968 145.207 557.772C144.165 567.527 143.223 592.953 157.919 578.138C155.442 587.587 152.785 598.807 151.288 601.017Z" fill="#1F2B7A"/>
<path d="M171.276 554.245C167.954 558.008 160.777 567.51 158.642 575.415C158.404 576.299 158.162 577.21 157.919 578.138C143.223 592.953 144.165 567.527 145.207 557.772C146.04 549.968 155.309 540.675 159.626 537.256C159.37 540.225 161 548.181 171.276 554.245Z" fill="#FFDFDD"/>
<path d="M159.626 537.256C147.098 534.75 131.48 547.099 128.733 549.82C126.535 551.998 127.802 557.209 128.711 559.542L133.32 560.228C124.655 583.679 127.323 588.385 134.566 598.103C143.733 610.402 149.644 603.444 151.288 601.017C152.785 598.807 155.442 587.587 157.919 578.138M159.626 537.256C155.309 540.675 146.04 549.968 145.207 557.772C144.165 567.527 143.223 592.953 157.919 578.138M159.626 537.256C159.37 540.225 161 548.181 171.276 554.245C167.954 558.008 160.777 567.51 158.642 575.415C158.404 576.299 158.162 577.21 157.919 578.138" stroke="#43090A" stroke-width="1.5"/>
<path d="M170.741 554.588L178.798 548.421C172.477 546.75 168.623 536.177 167.485 531.1L160.399 537.075C158.606 544.118 166.546 551.685 170.741 554.588Z" fill="#1E2D7B" stroke="#43090A" stroke-width="1.5"/>
<path d="M264.312 498.798C266.473 491.994 271.082 470.512 273.117 460.621L227.809 438.299C228.001 448.888 228.581 471.597 229.365 477.717C230.15 483.837 228.536 487.317 227.631 488.291C211.306 492.528 180.739 513.644 167.62 531.448C170.853 542.688 175.547 547.777 178.857 548.03C189.223 540.455 222.71 531.621 238.573 523.732C258.402 513.871 261.61 507.302 264.312 498.798Z" fill="url(#paint11_linear_2611_38)" stroke="#43090A" stroke-width="1.5"/>
<g filter="url(#filter3_f_2611_38)">
<path d="M228.756 461.743L269.468 474.5C270.267 464.957 268.532 466.239 272.879 455.122L229.218 449.652L228.756 461.743Z" fill="url(#paint12_linear_2611_38)"/>
</g>
<g filter="url(#filter4_f_2611_38)">
<ellipse cx="6.31363" cy="4.18591" rx="6.31363" ry="4.18591" transform="matrix(-0.95984 -0.280547 -0.280692 0.959798 283.965 508.906)" fill="#FFDEDD"/>
</g>
<g filter="url(#filter5_f_2611_38)">
<ellipse cx="4.5118" cy="5.88849" rx="4.5118" ry="5.88849" transform="matrix(-0.774491 -0.632525 -0.632729 0.774422 262.198 503.631)" fill="#FFDEDD"/>
</g>
<g filter="url(#filter6_f_2611_38)">
<path d="M261.588 506.94C261.301 507.447 260.978 508.002 260.624 508.598C257.51 512.819 248.615 519.839 245.864 520.859L237.718 546.067C237.664 546.213 237.621 546.346 237.589 546.465L237.718 546.067C239.617 540.864 254.611 518.737 260.624 508.598C261.084 507.975 261.418 507.412 261.588 506.94Z" fill="#EEAEB8"/>
</g>
<rect width="30.3343" height="28.6355" transform="matrix(-0.991532 -0.129862 -0.129912 0.991526 327.391 132.134)" fill="#FE368F"/>
<path d="M336.237 161.714C331.083 148.886 308.331 145.148 298.556 145.249C255.346 140.548 254.311 171.766 257.216 187.421C247.197 166.481 230.91 178.002 233.023 191.554C234.714 202.396 247.614 207.541 253.852 208.759C255.574 217.057 258.647 219.206 264.493 224.461C265.769 231.697 270.216 247.797 266.569 252.639C262.009 258.693 243.653 258.093 239.389 265.422C235.93 271.368 228.548 280.506 227.301 282.927C227.744 284.672 233.193 292.351 248.773 292.758C266.89 273.021 301.475 281.593 314.429 284.022L317.729 286.986C318.543 285.285 328.462 280.739 330.829 279.533C329.572 276.868 321.528 266.734 319.129 263.404C316.27 259.436 302.383 255.882 296.311 251.845C291.453 248.616 289.995 241.248 291.898 238.507C295.771 239.566 295.257 239.53 297.267 239.244C301.817 238.312 318.746 232.767 325.783 224.946C334.553 215.199 333.635 196.972 333.635 196.972C333.635 196.972 342.679 177.75 336.237 161.714Z" fill="url(#paint13_linear_2611_38)"/>
<path d="M264.493 224.461C258.647 219.206 255.574 217.057 253.852 208.759C247.614 207.541 234.714 202.396 233.023 191.554C230.91 178.002 247.197 166.481 257.216 187.421C254.311 171.766 255.346 140.548 298.556 145.249C308.331 145.148 331.083 148.886 336.237 161.714C342.679 177.75 333.635 196.972 333.635 196.972C333.635 196.972 334.553 215.199 325.783 224.946C318.746 232.767 301.817 238.312 297.267 239.244C295.257 239.53 295.771 239.566 291.898 238.507M264.493 224.461C265.769 231.697 270.216 247.797 266.569 252.639C262.009 258.693 243.653 258.093 239.389 265.422C235.93 271.368 228.548 280.506 227.301 282.927C227.744 284.672 233.193 292.351 248.773 292.758C266.89 273.021 301.475 281.593 314.429 284.022L317.729 286.986C318.543 285.285 328.462 280.739 330.829 279.533C329.572 276.868 321.528 266.734 319.129 263.404C316.27 259.436 302.383 255.882 296.311 251.845C291.453 248.616 289.995 241.248 291.898 238.507M264.493 224.461C272.85 231.974 282.633 235.972 291.898 238.507" stroke="#43090A" stroke-width="1.5"/>
<path d="M325.88 195.748L329.44 188.71C327.22 183.343 324.881 183.517 317.979 183.645C312.458 183.746 310.329 192.037 309.955 196.169C316.126 193.454 323.143 194.757 325.88 195.748Z" fill="url(#paint14_linear_2611_38)"/>
<path d="M266.37 195.081C273.901 192.021 286.945 195.877 286.945 195.877C288.486 194.496 288.733 193.217 289.468 191.896C287.659 189.198 283.202 183.687 279.849 183.222C275.657 182.64 267.122 183.219 265.902 185.436C264.925 187.21 265.709 192.862 266.37 195.081Z" fill="url(#paint15_linear_2611_38)"/>
<path d="M315.3 284.5C324.326 293.533 320.35 310.781 317.234 318.276C307.887 320.98 282.127 324.572 253.857 317.309C252.949 309.997 250.404 298.061 248.936 292.564C270.331 272.622 303.529 280.909 315.3 284.5Z" fill="url(#paint16_linear_2611_38)"/>
<path d="M198.6 414.867C210.133 389.452 240.363 344.148 254.036 324.673C284.425 337.153 310.999 330.057 320.487 324.948C341.148 368.811 349.747 416.45 351.484 435.573C329.375 457.672 288.874 457.907 271.387 455.261C218.604 446.949 200.869 424.869 198.6 414.867Z" fill="url(#paint17_linear_2611_38)"/>
<path d="M254.036 324.673C254.367 323.089 254.246 320.445 253.857 317.309C282.127 324.572 307.887 320.98 317.234 318.276C318.35 320.487 319.434 322.713 320.487 324.948C310.999 330.057 284.425 337.153 254.036 324.673Z" fill="url(#paint18_linear_2611_38)"/>
<path d="M317.234 318.276C320.35 310.781 324.326 293.533 315.3 284.5C303.529 280.909 270.331 272.622 248.936 292.564C250.404 298.061 252.949 309.997 253.857 317.309M317.234 318.276C307.887 320.98 282.127 324.572 253.857 317.309M317.234 318.276C318.35 320.487 319.434 322.713 320.487 324.948M254.036 324.673C240.363 344.148 210.133 389.452 198.6 414.867C200.869 424.869 218.604 446.949 271.387 455.261C288.874 457.907 329.375 457.672 351.484 435.573C349.747 416.45 341.148 368.811 320.487 324.948M254.036 324.673C254.367 323.089 254.246 320.445 253.857 317.309M254.036 324.673C284.425 337.153 310.999 330.057 320.487 324.948" stroke="#43090A" stroke-width="1.5"/>
<g filter="url(#filter7_f_2611_38)">
<path d="M314.688 272.038C317.451 275.68 324.08 275.712 326.965 275.626C325.522 274.202 325.655 274.241 323.94 272.524C322.224 270.808 321.553 269.785 320.071 268.391C317.272 265.757 314.864 264.438 311.076 262.473C311.682 264.985 312.14 268.679 314.688 272.038Z" fill="#FEC1BF"/>
</g>
<g filter="url(#filter8_f_2611_38)">
<path d="M235.048 273.809C243.904 275.023 254.562 265.19 255.602 260.552C252.464 260.96 246.472 262.434 242.614 264.906C239.057 267.186 236.489 271.653 235.048 273.809Z" fill="#FEC1BF"/>
</g>
<path d="M309.852 143.948L315.038 134.275C318.35 139.157 324.308 154.538 321.645 176.999C324.146 175.526 328.775 169.188 329.663 159.09C330.062 169.838 340.976 184.137 347.976 189.529C349.535 184.102 347.53 170.201 342.166 159.681C346.288 160.901 353.827 169.769 356.365 175.02C356.641 169.37 355.195 155.496 347.197 145.205C339.198 134.914 331.367 126.736 328.452 123.933C326.407 121.832 321.529 119.153 315.696 121.51C312.159 119.363 300.517 115.583 282.241 117.637C278.608 117.702 276.54 119.513 274.838 120.149C274.465 120.288 273.93 120.599 273.263 121.062C269.103 119.796 262.52 119.895 254.758 122.319C245.142 120.073 224.285 118.928 213.726 144.272C203.167 169.617 210.407 179.926 210.624 201.853C210.78 217.5 210.729 234.603 211.097 241.919C211.546 250.865 206.114 261.37 199.883 268.543C205.933 265.613 212.303 261.136 212.303 261.136C212.303 261.136 227.875 249.757 230.677 246.43C228.9 250.767 224.967 259.148 222.574 260.266C222.409 260.312 222.244 260.353 222.08 260.391C222.236 260.39 222.401 260.347 222.574 260.266C229.044 258.486 236.03 250.671 240.312 235.668C244.704 220.282 244.305 210.902 243.093 204.868C238.296 203.415 231.401 193.713 235.44 184.178C243.145 170.817 255.797 184.235 257.033 186.423C257.025 186.598 257.02 186.694 257.02 186.694C257.167 186.762 257.165 186.656 257.033 186.423C257.123 184.621 257.653 174.403 258.161 172.838C258.648 174.65 259.242 176.114 259.809 177.155C266.17 174.991 282.261 160.811 285.27 155.174C284.833 157.504 284.193 159.84 283.225 161.837C281.912 164.547 277.988 168.992 277.988 168.992C277.988 168.992 274.377 172.542 273.249 173.813C293.815 167.494 301.347 143.839 303.298 133.151L309.852 143.948Z" fill="url(#paint19_linear_2611_38)"/>
<path d="M330.134 153.618C330.149 154.227 329.816 155.803 329.805 156.384M329.805 156.384C329.593 168.055 324.363 175.399 321.645 176.999C324.308 154.538 318.35 139.157 315.038 134.275L309.852 143.948L303.298 133.151C301.347 143.839 293.815 167.494 273.249 173.813C274.377 172.542 277.988 168.992 277.988 168.992C277.988 168.992 281.912 164.547 283.225 161.837C284.193 159.84 284.833 157.504 285.27 155.174M329.805 156.384C328.141 167.293 340.369 183.669 347.976 189.529C349.535 184.102 347.53 170.201 342.166 159.681C346.288 160.901 353.827 169.769 356.365 175.02C356.641 169.37 355.195 155.496 347.197 145.205C339.198 134.914 331.367 126.736 328.452 123.933C326.407 121.832 321.529 119.153 315.696 121.51M310.817 124.615C312.488 123.142 314.126 122.144 315.696 121.51M286.257 146.181C286.103 148.488 285.897 151.825 285.27 155.174M285.27 155.174C282.261 160.811 266.17 174.991 259.809 177.155C259.242 176.114 258.648 174.65 258.161 172.838M262.165 145.514C261.429 146.859 260.789 148.19 260.234 149.501M260.234 149.501C255.904 151.735 245.962 158.926 243.291 164.315C243.146 162.143 244.425 155.35 250.704 145.556C257.567 134.85 268.613 124.286 273.263 121.062M260.234 149.501C256.22 158.992 256.714 167.449 258.161 172.838M293.442 121.59C288.513 118.506 284.944 117.589 282.241 117.637M315.696 121.51C312.159 119.363 300.517 115.583 282.241 117.637M282.241 117.637C278.608 117.702 276.54 119.513 274.838 120.149C274.465 120.288 273.93 120.599 273.263 121.062M273.263 121.062C269.103 119.796 262.52 119.895 254.758 122.319M235.44 184.178C230.309 177.116 232.809 156.266 233.836 149.355C235.914 141.937 240.161 129.895 248.543 124.924C249.941 124.095 253.204 122.805 254.758 122.319M235.44 184.178C243.966 169.394 258.549 187.397 257.02 186.694C257.02 186.694 257.604 174.556 258.161 172.838M235.44 184.178C231.401 193.713 238.296 203.415 243.093 204.868C244.305 210.902 244.704 220.282 240.312 235.668C235.921 251.054 228.686 258.88 222.08 260.391C224.386 260.383 228.772 251.08 230.677 246.43C227.875 249.757 212.303 261.136 212.303 261.136C212.303 261.136 205.933 265.613 199.883 268.543C206.114 261.37 211.546 250.865 211.097 241.919C210.729 234.603 210.78 217.5 210.624 201.853C210.407 179.926 203.167 169.617 213.726 144.272C224.285 118.928 245.142 120.073 254.758 122.319" stroke="#43090A" stroke-width="1.5"/>
<g filter="url(#filter9_f_2611_38)">
<path d="M224.621 248.785C232.469 237.855 224.666 220.57 224.344 219.941C224.752 230.39 221.849 251.92 214.887 256.838C219.025 254.229 222.999 250.768 224.621 248.785Z" fill="#FE3A8E"/>
</g>
<g filter="url(#filter10_f_2611_38)">
<path d="M235.274 233C238.42 218.417 236.311 200.386 236.311 200.386C236.311 200.386 238.673 202.681 239.644 203.953C240.553 205.144 242.082 205.172 242.082 205.172C242.692 208.829 243.606 213.626 241.473 226.504C240.788 230.636 238.81 240.07 237.206 242.96C232.009 252.323 230.01 255.439 225.624 257.587C229.797 253.874 232.665 245.094 235.274 233Z" fill="#FE3A8E"/>
</g>
<path d="M197.702 415.306L188.772 417.836C188.444 420.769 189.345 427.511 195.574 431.013C196.027 432.783 197.842 436.458 201.48 437.006C201.933 439.283 205.832 444.658 217.798 447.941C218.582 448.97 221.539 451.3 227.099 452.386C229.805 456.099 237.285 462.365 245.56 457.725C246.359 459.822 249.445 463.181 255.811 462.316C258.54 463.303 265.252 464.81 270.27 462.941C273.264 465.724 281.114 470.115 288.565 465.419C288.524 465.217 288.488 464.934 288.469 464.575C290.579 465.368 296.396 466.299 302.791 463.676C307.59 464.718 318.834 466.001 325.419 462.793C325.184 462.318 324.887 461.619 324.575 460.74C329.919 457.603 333.654 457.315 334.854 457.562C342.37 460.242 347.368 454.518 348.927 451.321C353.422 449.924 359.712 446.366 360.493 439.569C358.149 438.121 352.964 432.588 350.554 433.203C343.339 439.441 332.402 446.543 322.193 449.304C315.379 451.147 308.456 452.867 300.85 453.461C290.999 454.23 280.696 453.954 270.489 452.636C266.902 452.173 263.327 451.582 259.787 450.862C256.051 450.102 252.355 449.199 248.727 448.153C243.069 446.522 237.595 444.934 232.374 442.61C229.77 441.451 226.824 440.156 224.368 438.825C218.909 435.866 213.423 433.06 208.905 429.252C207.136 427.762 205.384 425.679 203.791 424.059C201.215 421.441 199.761 418.263 197.702 415.306Z" fill="url(#paint20_linear_2611_38)"/>
<path d="M195.574 431.013C189.345 427.511 188.444 420.769 188.772 417.836L197.702 415.306C199.761 418.263 201.215 421.441 203.791 424.059M195.574 431.013C196.027 432.783 197.842 436.458 201.48 437.006M195.574 431.013C195.633 429.389 196.653 426.036 203.791 424.059M201.48 437.006C201.933 439.283 205.832 444.658 217.798 447.941M201.48 437.006C201.845 435.678 203.189 433.001 208.905 429.252M217.798 447.941C218.582 448.97 221.539 451.3 227.099 452.386M217.798 447.941C218.548 445.98 220.601 441.684 224.368 438.825M227.099 452.386C229.805 456.099 237.285 462.365 245.56 457.725M227.099 452.386C227.173 450.476 228.347 446.159 232.374 442.61M245.56 457.725C246.359 459.822 249.445 463.181 255.811 462.316M245.56 457.725C245.671 456.22 246.461 452.199 248.727 448.153M255.811 462.316C256.905 462.167 258.096 461.893 259.389 461.467C258.991 459.293 258.514 454.127 259.787 450.862M255.811 462.316C258.54 463.303 265.252 464.81 270.27 462.941M270.27 462.941C273.264 465.724 281.114 470.115 288.565 465.419C288.524 465.217 288.488 464.934 288.469 464.575M270.27 462.941C269.762 460.899 269.094 455.979 270.489 452.636M289.716 456.919C288.576 460.411 288.39 463.115 288.469 464.575M288.469 464.575C290.579 465.368 296.396 466.299 302.791 463.676M302.791 463.676C307.59 464.718 318.834 466.001 325.419 462.793C325.184 462.318 324.887 461.619 324.575 460.74M302.791 463.676L300.85 453.461M322.193 449.304C332.402 446.543 343.339 439.441 350.554 433.203C352.964 432.588 358.149 438.121 360.493 439.569C359.712 446.366 353.422 449.924 348.927 451.321M322.193 449.304C322.249 453.741 323.682 458.228 324.575 460.74M322.193 449.304C315.379 451.147 308.456 452.867 300.85 453.461M341.92 444.255C343.39 445.677 346.39 449.195 346.635 451.887C347.303 451.77 348.084 451.584 348.927 451.321M348.927 451.321C347.368 454.518 342.37 460.242 334.854 457.562M333.217 449.194C333.367 451.329 333.903 455.993 334.854 457.562M334.854 457.562C333.654 457.315 329.919 457.603 324.575 460.74M300.85 453.461C290.999 454.23 280.696 453.954 270.489 452.636M270.489 452.636C266.902 452.173 263.327 451.582 259.787 450.862M259.787 450.862C256.051 450.102 252.355 449.199 248.727 448.153M248.727 448.153C243.069 446.522 237.595 444.934 232.374 442.61M232.374 442.61C229.77 441.451 226.824 440.156 224.368 438.825M224.368 438.825C218.909 435.866 213.423 433.06 208.905 429.252M208.905 429.252C207.136 427.762 205.384 425.679 203.791 424.059" stroke="#43090A" stroke-width="1.5" stroke-linecap="round"/>
<g filter="url(#filter11_f_2611_38)">
<path d="M217.703 434.268C217.558 432.569 251.853 350.128 266.461 329.285L254.209 325.703C246.388 335.377 212.122 388.707 199.209 415.001C202.111 425.899 216.893 433.84 217.703 434.268C217.706 434.296 217.717 434.302 217.738 434.286C217.738 434.286 217.726 434.28 217.703 434.268Z" fill="#172471"/>
</g>
<g filter="url(#filter12_f_2611_38)">
<path d="M268.23 315.507C278.594 323.28 303.257 317.036 311.477 314.093C312.623 313.683 314.479 312.215 314.479 312.215C314.479 312.215 319.903 297.802 319.384 293.214C320.772 297.28 320.301 309.957 316.707 317.571C303.923 322.666 271.257 321.871 254.553 316.771C253.787 311.479 250.781 297.282 250.589 297.469L249.811 292.82C249.854 292.541 253.69 289.474 254.406 289.087C251.388 301.142 259.554 309 268.23 315.507Z" fill="#D5D8EA"/>
</g>
<g filter="url(#filter13_f_2611_38)">
<path d="M304.883 324.121C310.07 342.289 326.099 393.922 320.458 416.792C326.982 398.549 313.141 336.305 304.883 324.121Z" fill="#181D53"/>
</g>
<g filter="url(#filter14_f_2611_38)">
<path d="M291.85 328.88C291.225 347.763 292.734 385.72 285.194 407.536C293.58 394.26 295.981 343.007 291.85 328.88Z" fill="#181D53"/>
</g>
<g filter="url(#filter15_f_2611_38)">
<path d="M278.325 324.96C273.77 343.297 261.955 379.4 263.252 402.446C258.809 387.385 270.493 337.423 278.325 324.96Z" fill="#181D53"/>
</g>
<g filter="url(#filter16_f_2611_38)">
<path d="M268.024 324.845C259.764 340.66 234.734 377.595 231.766 398.747C239.968 375.122 264.538 336.766 268.024 324.845Z" fill="#181D53"/>
</g>
<path d="M306.747 284.296C306.674 284.396 306.617 283.955 306.528 284.018C306.44 284.08 306.427 284.314 306.325 284.261C306.224 284.209 306.123 284.369 306.077 284.273C306.032 284.177 306.028 284.468 305.964 284.403C305.899 284.339 305.861 284.377 305.805 284.471C305.749 284.566 305.577 284.647 305.514 284.531C305.451 284.415 305.38 284.616 305.337 284.664C305.324 284.679 305.313 284.699 305.305 284.72C305.302 284.729 305.3 284.748 305.3 284.767C305.3 284.767 305.3 284.767 305.3 284.767C305.3 284.79 305.303 284.812 305.307 284.815C305.328 284.829 305.36 284.867 305.398 284.95C305.469 285.106 305.476 284.934 305.571 285.014C305.666 285.094 305.723 285.254 305.835 285.151C305.946 285.047 305.972 285.481 306.129 285.234C306.287 284.988 306.304 285.442 306.461 285.502C306.618 285.562 306.816 285.312 306.91 285.332C307.005 285.353 307.132 285.406 307.266 285.346C307.4 285.286 307.566 285.436 307.714 285.329C307.862 285.222 308.071 285.087 308.168 284.997C308.264 284.906 308.288 284.886 308.381 284.941C308.435 284.972 308.508 284.942 308.57 284.825C308.602 284.767 308.594 284.685 308.563 284.646C308.517 284.588 308.479 284.627 308.455 284.525C308.407 284.32 308.387 284.242 308.327 284.361C308.267 284.48 308.239 284.21 308.204 284.241C308.169 284.272 308.17 284.431 307.992 284.309C307.814 284.186 307.717 284.155 307.649 284.125C307.582 284.096 307.442 284.235 307.332 284.185C307.222 284.135 306.999 284.181 306.909 284.099C306.819 284.018 306.819 284.196 306.747 284.296ZM303.457 284.301C303.384 284.4 303.326 283.96 303.238 284.022C303.149 284.085 303.136 284.318 303.035 284.266C302.934 284.213 302.832 284.374 302.787 284.278C302.742 284.181 302.737 284.472 302.673 284.408C302.609 284.343 302.57 284.381 302.514 284.476C302.458 284.57 302.286 284.651 302.224 284.535C302.161 284.419 302.09 284.621 302.047 284.668C302.033 284.683 302.023 284.704 302.015 284.725C302.011 284.734 302.01 284.753 302.01 284.771C302.01 284.771 302.01 284.771 302.01 284.771C302.01 284.794 302.012 284.817 302.017 284.82C302.038 284.834 302.07 284.871 302.108 284.955C302.178 285.111 302.186 284.938 302.281 285.018C302.376 285.099 302.433 285.259 302.544 285.155C302.656 285.051 302.682 285.485 302.839 285.239C302.996 284.993 303.013 285.447 303.171 285.507C303.328 285.567 303.525 285.316 303.62 285.337C303.715 285.357 303.842 285.41 303.976 285.35C304.11 285.29 304.276 285.441 304.424 285.334C304.572 285.227 304.781 285.092 304.877 285.001C304.974 284.91 304.998 284.89 305.091 284.945C305.144 284.977 305.218 284.947 305.28 284.83C305.311 284.771 305.304 284.689 305.272 284.65C305.226 284.593 305.188 284.631 305.165 284.529C305.117 284.325 305.097 284.246 305.037 284.365C304.977 284.484 304.948 284.214 304.913 284.245C304.879 284.276 304.879 284.436 304.701 284.313C304.524 284.191 304.426 284.159 304.359 284.13C304.292 284.1 304.151 284.239 304.042 284.189C303.932 284.139 303.709 284.186 303.619 284.104C303.529 284.022 303.529 284.201 303.457 284.301ZM306.027 304.416C306.038 305.198 305.522 305.741 305.429 306.667C305.326 307.596 305.531 307.784 305.24 308.817C304.944 309.851 304.778 310.917 304.531 311.34C304.283 311.759 304.546 311.9 304.236 312.515C303.924 313.119 303.791 313.507 303.615 314.079C303.458 314.665 302.577 316.288 302.059 316.734C301.573 317.193 301.226 317.883 300.931 318.243C300.841 318.355 300.774 318.448 300.726 318.523C300.706 318.555 300.707 318.58 300.719 318.593C300.719 318.593 300.719 318.593 300.719 318.593C300.735 318.61 300.77 318.609 300.806 318.578C300.982 318.429 301.252 318.214 301.59 317.964C302.211 317.489 302.143 317.318 302.807 316.525C303.453 315.717 303.919 315.243 304.362 314.096C304.773 312.945 305.303 312.845 305.614 311.121C305.874 309.404 306.348 309.35 306.756 307.666C307.152 305.98 307.131 303.795 307.22 302.773C307.318 301.748 307.435 300.366 307.379 298.908C307.326 297.453 307.417 295.648 307.193 294.052C306.98 292.454 306.586 290.226 306.342 289.206C306.101 288.177 306.042 287.938 305.922 286.937C305.853 286.367 305.672 285.592 305.411 284.956C305.283 284.647 305.219 284.737 305.252 285.07C305.303 285.572 305.417 285.953 305.366 286.227C305.262 286.769 305.224 286.99 305.449 287.6C305.673 288.212 305.451 288.554 305.536 288.917C305.618 289.287 305.795 289.252 305.899 291.155C305.99 293.062 306.019 294.088 306.037 294.812C306.054 295.525 306.259 297.019 306.216 298.19C306.189 299.358 306.156 301.732 305.991 302.676C305.834 303.62 306.01 303.636 306.027 304.416ZM275.15 304.371C275.368 305.109 275.035 305.78 275.281 306.693C275.533 307.599 275.789 307.686 275.993 308.738C276.202 309.793 276.669 310.773 276.728 311.258C276.787 311.743 277.075 311.696 277.245 312.356C277.418 313.01 277.611 313.388 277.93 313.89C278.24 314.409 279.121 315.983 279.38 316.6C279.622 317.233 280.219 317.747 280.529 318.077C280.625 318.18 280.708 318.255 280.776 318.308C280.805 318.331 280.83 318.332 280.845 318.321C280.845 318.321 280.845 318.321 280.845 318.321C280.863 318.306 280.865 318.272 280.839 318.235C280.715 318.052 280.545 317.765 280.39 317.394C280.118 316.71 279.921 316.736 279.502 315.847C279.097 314.95 278.983 314.361 278.437 313.346C277.904 312.312 278.21 311.928 277.484 310.46C276.784 308.97 277.181 308.678 276.883 307.095C276.591 305.511 276.037 303.527 275.939 302.549C275.836 301.574 275.751 300.261 275.596 298.879C275.437 297.496 275.519 295.773 275.401 294.239C275.274 292.701 275.201 290.523 275.168 289.511C275.132 288.497 275.129 288.248 275.261 287.288C275.338 286.731 275.38 285.98 275.343 285.31C275.323 284.986 275.233 285.045 275.155 285.363C275.041 285.846 275.042 286.23 274.915 286.477C274.666 286.947 274.567 287.171 274.639 287.796C274.711 288.442 274.425 288.706 274.434 289.083C274.448 289.454 274.591 289.456 274.408 291.315C274.237 293.174 274.225 294.21 274.205 294.914C274.185 295.631 274.369 297.096 274.392 298.254C274.401 299.412 274.667 301.748 274.716 302.699C274.757 303.651 274.936 303.63 275.15 304.371ZM254.516 304.94C254.739 305.597 254.419 306.221 254.686 307.036C254.958 307.841 255.215 307.9 255.451 308.837C255.692 309.774 256.191 310.621 256.265 311.052C256.339 311.485 256.624 311.419 256.811 311.997C257.002 312.577 257.2 312.895 257.525 313.324C257.843 313.762 258.715 315.123 258.948 315.677C259.17 316.239 259.723 316.682 259.999 316.978C260.085 317.072 260.161 317.14 260.224 317.188C260.25 317.209 260.274 317.21 260.289 317.199C260.289 317.199 260.289 317.199 260.289 317.199C260.307 317.185 260.312 317.153 260.289 317.118C260.181 316.948 260.034 316.684 259.903 316.35C259.663 315.724 259.476 315.763 259.076 314.972C258.686 314.177 258.568 313.648 258.008 312.775C257.461 311.89 257.746 311.505 256.982 310.255C256.242 308.979 256.621 308.676 256.286 307.286C255.955 305.892 255.389 304.153 255.301 303.279C255.203 302.411 255.14 301.245 255.04 300.015C254.935 298.784 255.121 297.258 255.148 295.898C255.156 294.534 255.381 292.604 255.555 291.723C255.572 291.628 255.588 291.542 255.603 291.465L255.498 291.591C256.081 291.212 256.306 291.083 257.019 290.768C257.479 290.565 258.078 290.22 258.542 289.848C258.775 289.66 258.678 289.618 258.398 289.72C257.988 289.868 257.691 290.066 257.447 290.077C256.957 290.101 256.754 290.119 256.31 290.483C255.867 290.847 255.507 290.729 255.231 290.908C255.207 290.923 255.187 290.938 255.167 290.953L254.995 291.032L254.915 291.257C254.894 291.52 254.929 291.681 254.509 293.169C254.074 294.812 253.982 295.752 253.897 296.385C253.814 297.025 253.893 298.37 253.864 299.414C253.812 300.462 254.028 302.58 254.078 303.44C254.117 304.3 254.297 304.278 254.516 304.94ZM282.673 283.432C282.462 283.524 282.316 283.077 282.062 283.129C281.807 283.181 281.76 283.414 281.474 283.35C281.187 283.286 280.892 283.434 280.767 283.333C280.643 283.232 280.618 283.522 280.438 283.45C280.258 283.379 280.146 283.412 279.982 283.5C279.819 283.588 279.325 283.649 279.152 283.527C278.978 283.404 278.767 283.597 278.642 283.64C278.604 283.653 278.573 283.672 278.549 283.692C278.539 283.701 278.534 283.72 278.533 283.738C278.533 283.738 278.533 283.738 278.533 283.738C278.532 283.761 278.538 283.784 278.551 283.788C278.611 283.804 278.7 283.845 278.804 283.933C278.998 284.097 279.027 283.925 279.294 284.016C279.56 284.107 279.716 284.273 280.038 284.182C280.36 284.091 280.416 284.528 280.874 284.3C281.332 284.072 281.362 284.527 281.806 284.605C282.251 284.683 282.825 284.455 283.094 284.486C283.362 284.517 283.722 284.584 284.106 284.54C284.491 284.495 284.956 284.664 285.382 284.574C285.808 284.484 286.409 284.373 286.688 284.293C286.967 284.214 287.035 284.196 287.298 284.261C287.449 284.299 287.66 284.278 287.842 284.168C287.933 284.113 287.916 284.03 287.828 283.987C287.699 283.925 287.59 283.959 287.526 283.854C287.399 283.644 287.345 283.564 287.169 283.676C286.994 283.788 286.924 283.515 286.823 283.542C286.723 283.569 286.718 283.729 286.217 283.586C285.716 283.443 285.44 283.401 285.249 283.364C285.059 283.327 284.653 283.449 284.343 283.387C284.033 283.325 283.396 283.346 283.143 283.254C282.891 283.162 282.883 283.341 282.673 283.432Z" fill="#43090A"/>
<path d="M296.336 251.727C296.895 255.431 296.442 264.545 291.539 265.941M291.295 266.005C291.378 265.985 291.459 265.964 291.539 265.941M291.539 265.941C286.489 265.15 274.579 261.199 267.349 251.727" stroke="#43090A" stroke-width="1.5"/>
<path d="M290.928 266.578C299.942 267.672 303.639 280.704 296.217 283.257C288.796 285.81 284.341 272.917 290.928 266.578Z" fill="url(#paint21_linear_2611_38)" stroke="#43090A" stroke-width="1.5"/>
<g filter="url(#filter17_f_2611_38)">
<path d="M291.018 266.936C293.222 267.017 293.689 269.234 292.371 269.812C291.054 270.39 289.685 268.766 291.018 266.936Z" fill="white"/>
</g>
<g filter="url(#filter18_f_2611_38)">
<path d="M293.717 250.466C279.054 246.66 272.577 245.884 268.426 242.786L267.503 235.94L265.695 226.476C278.499 236.007 290.822 238.797 290.855 238.977C290.575 239.06 289.267 245.172 293.717 250.466Z" fill="#F2BAC4"/>
<path d="M293.717 250.466C279.054 246.66 272.577 245.884 268.426 242.786L267.503 235.94L265.695 226.476C278.499 236.007 290.822 238.797 290.855 238.977C290.575 239.06 289.267 245.172 293.717 250.466Z" stroke="#FDD8DE" stroke-width="1.5"/>
</g>
<g filter="url(#filter19_f_2611_38)">
<path d="M244.47 191.993C244.668 189.206 239.22 189.651 237.914 189.82C240.89 178.397 248.197 187.783 251.479 193.903C247.94 195.275 249.216 200.101 250.228 202.351C245.286 200.433 244.186 196.012 244.47 191.993Z" fill="#F7BDCE"/>
</g>
<path d="M237.39 189.495C238.568 184.789 243.067 179.015 251.645 193.563C249.958 195.036 247.618 198.976 251.753 202.951M244.66 192.41C243.51 193.564 242.884 197.231 249.575 202.664" stroke="#43090A" stroke-width="1.5" stroke-linecap="round"/>
<g filter="url(#filter20_f_2611_38)">
<ellipse cx="7.27305" cy="3.15647" rx="7.27305" ry="3.15647" transform="matrix(-0.905071 0.42526 0.425398 0.905006 329.641 195.632)" fill="#FFDEDD"/>
</g>
<g filter="url(#filter21_f_2611_38)">
<ellipse cx="7.68475" cy="3.15648" rx="7.68475" ry="3.15648" transform="matrix(-0.890761 -0.454472 -0.454615 0.890688 269.524 201.917)" fill="#FFDEDD"/>
</g>
<g filter="url(#filter22_f_2611_38)">
<ellipse cx="1.23533" cy="2.19573" rx="1.23533" ry="2.19573" transform="matrix(-0.999449 -0.033199 -0.0332108 0.999448 224.253 190.484)" fill="white"/>
</g>
<g filter="url(#filter23_f_2611_38)">
<ellipse cx="1.2353" cy="0.823417" rx="1.2353" ry="0.823417" transform="matrix(-0.925649 -0.378383 -0.37851 0.925597 217.71 191.16)" fill="white"/>
</g>
<g filter="url(#filter24_f_2611_38)">
<ellipse cx="1.16668" cy="0.595421" rx="1.16668" ry="0.595421" transform="matrix(-0.95743 -0.288666 -0.288768 0.957399 245.358 138.675)" fill="white"/>
</g>
<g filter="url(#filter25_f_2611_38)">
<ellipse cx="1.23534" cy="4.04837" rx="1.23534" ry="4.04837" transform="matrix(-0.999449 -0.0331988 -0.0332111 0.999448 212.184 187.877)" fill="white"/>
</g>
<g filter="url(#filter26_f_2611_38)">
<ellipse cx="1.01825" cy="1.49233" rx="1.01825" ry="1.49233" transform="matrix(-0.874682 0.484696 0.484839 0.874604 336.437 146.049)" fill="white"/>
</g>
<g filter="url(#filter27_f_2611_38)">
<ellipse cx="1.16669" cy="2.53885" rx="1.16669" ry="2.53885" transform="matrix(-0.95743 -0.288666 -0.288768 0.957399 243.453 135.926)" fill="white"/>
</g>
<g filter="url(#filter28_f_2611_38)">
<ellipse cx="1.23609" cy="0.735331" rx="1.23609" ry="0.735331" transform="matrix(0.191213 0.981549 0.981563 -0.191139 348.908 188.735)" fill="white"/>
</g>
<g filter="url(#filter29_f_2611_38)">
<ellipse cx="1.01825" cy="2.77451" rx="1.01825" ry="2.77451" transform="matrix(-0.874683 0.484695 0.48484 0.874603 338.495 143.646)" fill="white"/>
</g>
<g filter="url(#filter30_f_2611_38)">
<ellipse cx="1.2363" cy="3.27823" rx="1.2363" ry="3.27823" transform="matrix(-0.942145 0.335206 0.335326 0.942102 355.388 188.69)" fill="white"/>
</g>
<g filter="url(#filter31_f_2611_38)">
<path d="M329.298 309.956C325.615 306.18 322.036 293.249 320.317 286.621L318.603 287.836C320.135 288.977 321.964 297.547 321.286 302.938C320.631 308.154 320.852 312.198 318.804 316.49C319.182 316.54 322.706 319.775 324.695 321.286L328.421 323.948C329.249 324.445 331.214 325.072 334.482 325.72C337.749 326.367 338.635 324.777 339.523 322.904C340.412 321.031 341.895 318.999 341.547 318.92C339.841 317.782 332.98 313.731 329.298 309.956Z" fill="#171B66"/>
</g>
<g filter="url(#filter32_f_2611_38)">
<path d="M341.929 297.38C350.439 301.121 349.711 305.029 348.283 306.516C349.551 305.74 349.892 304.748 349.904 304.349C351.781 298.321 345.37 297.191 341.929 297.38Z" fill="#051463"/>
<path d="M341.929 297.38C350.439 301.121 349.711 305.029 348.283 306.516C349.551 305.74 349.892 304.748 349.904 304.349C351.781 298.321 345.37 297.191 341.929 297.38Z" stroke="#051463" stroke-width="1.5"/>
</g>
<g filter="url(#filter33_f_2611_38)">
<path d="M343.63 317.787C342.885 319.141 340.394 320.117 336.39 313.191" stroke="#050E3C" stroke-width="1.5"/>
</g>
<path d="M328.075 169.646C324.973 167.136 315.667 167.285 310.33 170.178M285.804 171.443C285.432 171.453 277.852 163.383 266.547 171.256" stroke="#43090A" stroke-width="1.5" stroke-linecap="round"/>
<path d="M253.913 317.181C274.097 323.224 311.321 320.88 317.277 318.117L320.468 325.055C309.816 330.591 281.641 338.312 254.158 324.902L253.913 317.181Z" fill="url(#paint22_linear_2611_38)" stroke="#43090A" stroke-width="1.5"/>
<path d="M226.685 282.66C228.025 281.106 235.284 293.971 249.305 292.1C247.833 299.104 245.034 314.198 244.824 317.492C244.614 320.786 243.744 326.439 243.335 328.854C241.062 330.886 235.647 335.238 232.173 336.388L231.666 334.453C229.096 335.224 223.785 335.857 223.098 332.224C220.032 332.906 213.884 333.135 213.815 328.586C212.223 327.534 209.988 325.681 208.259 323.429C206.299 320.877 205.57 317.951 205.997 314.829C207.273 305.496 224.627 285.046 226.685 282.66Z" fill="url(#paint23_linear_2611_38)"/>
<path d="M223.098 332.224C223.785 335.857 229.096 335.224 231.666 334.453C231.567 337.139 231.705 342.818 233.039 344.045C232.148 345.912 228.313 348.63 220.097 344.564C217.231 346.011 210.553 346.719 206.771 337.975C203.738 337.001 197.735 333.511 197.989 327.344C200.637 327.021 206.398 325.788 208.259 323.429C209.988 325.681 212.223 327.534 213.815 328.586C213.884 333.135 220.032 332.906 223.098 332.224Z" fill="#E8EDF6"/>
<path d="M231.666 334.453L232.173 336.388C235.647 335.238 241.062 330.886 243.335 328.854C243.744 326.439 244.614 320.786 244.824 317.492C245.034 314.198 247.833 299.104 249.305 292.1C235.284 293.971 228.025 281.106 226.685 282.66C224.627 285.046 207.273 305.496 205.997 314.829C205.57 317.951 206.299 320.877 208.259 323.429M231.666 334.453C229.096 335.224 223.785 335.857 223.098 332.224C220.032 332.906 213.884 333.135 213.815 328.586C212.223 327.534 209.988 325.681 208.259 323.429M231.666 334.453C231.567 337.139 231.705 342.818 233.039 344.045C232.148 345.912 228.313 348.63 220.097 344.564M220.097 344.564C220.28 342.287 220.855 337.19 221.694 335.016M220.097 344.564C217.231 346.011 210.553 346.719 206.771 337.975M206.771 337.975C207.657 336.314 210.064 332.704 212.597 331.541M206.771 337.975C203.738 337.001 197.735 333.511 197.989 327.344C200.637 327.021 206.398 325.788 208.259 323.429" stroke="#43090A" stroke-width="1.5"/>
<g filter="url(#filter34_f_2611_38)">
<path d="M235.551 322.787C240.094 324.039 226.691 331.764 221.676 332.007C217.237 332.602 214.536 331.556 214.63 328.731C214.119 324.881 213.738 319.059 216.261 318.393C218.785 317.727 222.513 324.563 224.061 328.064C228.322 323.861 231.008 321.536 235.551 322.787Z" fill="#171F6A"/>
</g>
<g filter="url(#filter35_f_2611_38)">
<path d="M219.642 320.589C218.547 318.38 215.076 317.929 214.713 320.704C214.349 323.48 214.848 327.594 214.521 328.509" stroke="#1C174C" stroke-opacity="0.47" stroke-width="1.5" stroke-linecap="round"/>
</g>
<path d="M317.368 179.185C317.365 179.685 317.362 180.185 317.359 180.685C317.25 180.672 317.126 180.669 316.999 180.675C314.594 180.944 311.919 182.679 310.773 185.203C310.712 185.346 310.658 185.492 310.61 185.641C310.633 185.487 310.664 185.333 310.702 185.18C311.497 182.434 313.747 180.153 316.798 179.264C316.979 179.226 317.171 179.197 317.368 179.185Z" fill="#43090A"/>
<path d="M282.255 179.616C282.143 180.103 282.03 180.59 281.917 181.077C282.041 181.093 282.171 181.116 282.303 181.143C284.684 181.728 287.135 183.087 288.769 185.163C288.857 185.28 288.942 185.402 289.022 185.526C288.964 185.391 288.9 185.255 288.832 185.123C287.527 182.752 285.345 180.929 282.724 179.781C282.572 179.721 282.415 179.665 282.255 179.616Z" fill="#43090A"/>
<path d="M304.965 202.002C306.044 202.778 306.439 203.366 306.929 204.578" stroke="#43090A" stroke-width="1.5"/>
<path d="M307.014 214.244C307.147 214.297 309.542 214.689 309.671 214.744C313.221 216.254 306.334 221.685 303.483 224.01C303.623 222.353 301.172 220.221 297.754 218.839C293.872 217.268 288.749 215.676 285.353 216.936C284.995 216.097 284.128 214.744 284.569 214.27C284.882 213.932 286.104 213.786 287.098 213.515C288.599 214.417 290.85 215.793 292.575 216.404C294.731 217.168 301.027 217.525 303.465 217.491C305.416 217.463 306.616 215.043 307.014 214.244Z" fill="#661D1F"/>
<path d="M307.014 214.244C306.616 215.043 305.416 217.463 303.465 217.491C301.027 217.525 294.731 217.168 292.575 216.404C290.85 215.793 288.599 214.417 287.098 213.515C290.951 212.465 300.904 213.182 307.014 214.244Z" fill="white"/>
<path d="M301.68 225.209C298.702 227.056 292.22 225.473 289.712 223.232C287.932 221.642 286.229 218.984 285.353 216.936C288.749 215.676 293.872 217.268 297.754 218.839C301.172 220.221 303.623 222.353 303.483 224.01C303.003 224.401 302.024 224.996 301.68 225.209Z" fill="#E77B7B"/>
<path d="M307.014 214.244C307.147 214.297 309.542 214.689 309.671 214.744C313.221 216.254 306.334 221.685 303.483 224.01M307.014 214.244C306.616 215.043 305.416 217.463 303.465 217.491C301.027 217.525 294.731 217.168 292.575 216.404C290.85 215.793 288.599 214.417 287.098 213.515M307.014 214.244C300.904 213.182 290.951 212.465 287.098 213.515M287.098 213.515C286.104 213.786 284.882 213.932 284.569 214.27C284.128 214.744 284.995 216.097 285.353 216.936M303.483 224.01C303.003 224.401 302.024 224.996 301.68 225.209C298.702 227.056 292.22 225.473 289.712 223.232C287.932 221.642 286.229 218.984 285.353 216.936M303.483 224.01C303.623 222.353 301.172 220.221 297.754 218.839C293.872 217.268 288.749 215.676 285.353 216.936" stroke="#43090A" stroke-width="1.5"/>
<path d="M317.815 183.377C323.915 185.85 322.72 192.13 321.27 194.4C317.93 194.082 312.423 194.914 310.284 195.779C309.823 195.526 309.667 193.162 311.204 189.133C312.739 185.108 315.957 183.48 317.815 183.377Z" fill="#A2E3F8"/>
<path d="M274.394 182.367C280.695 183.157 281.467 191.022 279.909 194.106C275.756 193.392 269.382 194.016 266.904 194.808C266.904 194.808 264.712 189.381 265.094 187.654C265.178 185.823 268.093 181.577 274.394 182.367Z" fill="#A2E3F8"/>
<path d="M317.815 183.377C323.915 185.85 322.72 192.13 321.27 194.4C317.93 194.082 312.423 194.914 310.284 195.779C309.823 195.526 309.667 193.162 311.204 189.133C312.739 185.108 315.957 183.48 317.815 183.377Z" stroke="#43090A" stroke-width="1.5"/>
<path d="M274.394 182.367C280.695 183.157 281.467 191.022 279.909 194.106C275.756 193.392 269.382 194.016 266.904 194.808C266.904 194.808 264.712 189.381 265.094 187.654C265.178 185.823 268.093 181.577 274.394 182.367Z" stroke="#43090A" stroke-width="1.5"/>
<g filter="url(#filter36_f_2611_38)">
<path d="M288.597 212.731C289.199 212.62 294.168 212.391 297.712 212.607C301.622 212.844 304.56 213.393 307.621 213.931C307.014 213.549 301.153 210.641 297.936 210.2C294.816 210.29 289.012 212.28 288.597 212.731Z" fill="#FFABCA"/>
</g>
<g filter="url(#filter37_f_2611_38)">
<path d="M299.637 226.323C298.75 226.422 297.443 226.476 296.155 226.235C294.804 225.983 293.335 225.625 292.037 225.174C292.375 225.488 294.609 227.057 296.003 227.263C297.439 227.474 299.206 226.728 299.637 226.323Z" fill="#FFABCA"/>
</g>
<g filter="url(#filter38_f_2611_38)">
<path d="M313.251 190.283C313.283 192.541 314.748 194.352 316.522 194.327C318.296 194.301 319.708 192.449 319.676 190.191C319.644 187.932 318.18 186.121 316.405 186.147C314.631 186.172 313.219 188.024 313.251 190.283Z" fill="#3B93C1"/>
<path d="M318.067 187.744C320.397 187.796 321.33 190.199 321.617 191.499C322.37 190.146 321.993 187.033 320.515 185.242C319.036 183.452 316.066 183.585 314.572 184.292C313.377 184.858 311.644 189.251 310.927 191.377C312.336 190.144 315.737 187.692 318.067 187.744Z" fill="#3B93C1"/>
<path d="M266.044 189.84C270.959 184.184 277.691 187.096 280.443 189.259C280.565 187.864 279.416 186.17 279.062 185.423C278.31 184.655 276.631 182.782 274.049 182.028C270.821 181.084 267.746 183.946 266.514 185.545C265.489 186.875 265.362 188.936 266.044 189.84Z" fill="#3B93C1"/>
<ellipse cx="4.33156" cy="4.12292" rx="4.33156" ry="4.12292" transform="matrix(-0.999927 0.0143032 0.0142222 0.999869 277.132 185.001)" fill="#3B93C1"/>
<ellipse cx="0.96074" cy="2.05858" rx="0.96074" ry="2.05858" transform="matrix(-0.95984 -0.280547 -0.280692 0.959798 315.803 186.44)" fill="white"/>
<ellipse cx="0.96074" cy="2.05857" rx="0.96074" ry="2.05857" transform="matrix(-0.959841 -0.280546 -0.280693 0.959798 270.706 186.126)" fill="white"/>
</g>
<path d="M316.508 184.263C320.456 182.955 322.409 182.968 326.547 185.01C329.548 186.491 328.874 190.15 328.239 192.603C329.335 191.545 331.21 188.19 332.011 186.646L333.437 183.357L330.409 184.917C329.274 184.031 325.981 181.656 321.565 181.076C316.211 180.373 313.108 183.778 311.046 187.2C309.473 189.809 309.164 194.614 309.829 196.132C309.899 192.072 313.352 185.309 316.508 184.263Z" fill="#43090A"/>
<path d="M328.158 192.789C328.182 192.727 328.216 192.668 328.239 192.603M309.829 196.132C309.899 192.072 313.352 185.309 316.508 184.263C320.456 182.955 322.409 182.968 326.547 185.01C329.548 186.491 328.874 190.15 328.239 192.603M309.829 196.132C309.164 194.614 309.473 189.809 311.046 187.2C313.108 183.778 316.211 180.373 321.565 181.076C325.981 181.656 329.274 184.031 330.409 184.917L333.437 183.357L332.011 186.646C331.21 188.19 329.335 191.545 328.239 192.603M309.829 196.132C312.559 195.204 319.708 193.285 325.879 195.729" stroke="#43090A" stroke-width="1.5"/>
<path d="M279.739 184.018C275.422 182.664 271.745 183.673 267.627 185.263C263.938 186.686 265.102 192.674 266.404 195.456C265.389 194.323 262.725 189.501 262.041 187.904L259.933 184.09L263.354 185.145C264.551 184.341 266.671 181.338 271.049 180.5C276.286 179.498 281.542 181.637 284.934 184.362C286.668 185.755 289.17 190.77 289.592 192.154C286.843 188.068 282.959 185.029 279.739 184.018Z" fill="#43090A"/>
<path d="M266.404 195.456C265.102 192.674 263.938 186.686 267.627 185.263C271.745 183.673 275.422 182.664 279.739 184.018C282.959 185.029 286.843 188.068 289.592 192.154C289.17 190.77 286.668 185.755 284.934 184.362C281.542 181.637 276.286 179.498 271.049 180.5C266.671 181.338 264.551 184.341 263.354 185.145L259.933 184.09L262.041 187.904C262.725 189.501 265.389 194.323 266.404 195.456ZM266.404 195.456C268.973 193.38 281.484 193.195 286.953 196.093" stroke="#43090A" stroke-width="1.5"/>
<defs>
<filter id="filter0_f_2611_38" x="393.707" y="250.527" width="19.8191" height="23.0132" filterUnits="userSpaceOnUse" color-interpolation-filters="sRGB">
<feFlood flood-opacity="0" result="BackgroundImageFix"/>
<feBlend mode="normal" in="SourceGraphic" in2="BackgroundImageFix" result="shape"/>
<feGaussianBlur stdDeviation="2" result="effect1_foregroundBlur_2611_38"/>
</filter>
<filter id="filter1_f_2611_38" x="326.697" y="199.559" width="48.5222" height="66.9411" filterUnits="userSpaceOnUse" color-interpolation-filters="sRGB">
<feFlood flood-opacity="0" result="BackgroundImageFix"/>
<feBlend mode="normal" in="SourceGraphic" in2="BackgroundImageFix" result="shape"/>
<feGaussianBlur stdDeviation="1.65" result="effect1_foregroundBlur_2611_38"/>
</filter>
<filter id="filter2_f_2611_38" x="242.997" y="430.776" width="91.296" height="71.11" filterUnits="userSpaceOnUse" color-interpolation-filters="sRGB">
<feFlood flood-opacity="0" result="BackgroundImageFix"/>
<feBlend mode="normal" in="SourceGraphic" in2="BackgroundImageFix" result="shape"/>
<feGaussianBlur stdDeviation="11.4" result="effect1_foregroundBlur_2611_38"/>
</filter>
<filter id="filter3_f_2611_38" x="205.956" y="426.852" width="89.7234" height="70.4478" filterUnits="userSpaceOnUse" color-interpolation-filters="sRGB">
<feFlood flood-opacity="0" result="BackgroundImageFix"/>
<feBlend mode="normal" in="SourceGraphic" in2="BackgroundImageFix" result="shape"/>
<feGaussianBlur stdDeviation="11.4" result="effect1_foregroundBlur_2611_38"/>
</filter>
<filter id="filter4_f_2611_38" x="248.356" y="484.56" width="56.7482" height="53.1837" filterUnits="userSpaceOnUse" color-interpolation-filters="sRGB">
<feFlood flood-opacity="0" result="BackgroundImageFix"/>
<feBlend mode="normal" in="SourceGraphic" in2="BackgroundImageFix" result="shape"/>
<feGaussianBlur stdDeviation="11.1" result="effect1_foregroundBlur_2611_38"/>
</filter>
<filter id="filter5_f_2611_38" x="227.669" y="477.757" width="54.6162" height="55.1606" filterUnits="userSpaceOnUse" color-interpolation-filters="sRGB">
<feFlood flood-opacity="0" result="BackgroundImageFix"/>
<feBlend mode="normal" in="SourceGraphic" in2="BackgroundImageFix" result="shape"/>
<feGaussianBlur stdDeviation="11.1" result="effect1_foregroundBlur_2611_38"/>
</filter>
<filter id="filter6_f_2611_38" x="225.089" y="494.44" width="48.9988" height="64.5253" filterUnits="userSpaceOnUse" color-interpolation-filters="sRGB">
<feFlood flood-opacity="0" result="BackgroundImageFix"/>
<feBlend mode="normal" in="SourceGraphic" in2="BackgroundImageFix" result="shape"/>
<feGaussianBlur stdDeviation="6.25" result="effect1_foregroundBlur_2611_38"/>
</filter>
<filter id="filter7_f_2611_38" x="267.976" y="219.373" width="102.089" height="99.3728" filterUnits="userSpaceOnUse" color-interpolation-filters="sRGB">
<feFlood flood-opacity="0" result="BackgroundImageFix"/>
<feBlend mode="normal" in="SourceGraphic" in2="BackgroundImageFix" result="shape"/>
<feGaussianBlur stdDeviation="21.55" result="effect1_foregroundBlur_2611_38"/>
</filter>
<filter id="filter8_f_2611_38" x="191.948" y="217.452" width="106.753" height="99.5601" filterUnits="userSpaceOnUse" color-interpolation-filters="sRGB">
<feFlood flood-opacity="0" result="BackgroundImageFix"/>
<feBlend mode="normal" in="SourceGraphic" in2="BackgroundImageFix" result="shape"/>
<feGaussianBlur stdDeviation="21.55" result="effect1_foregroundBlur_2611_38"/>
</filter>
<filter id="filter9_f_2611_38" x="213.487" y="218.541" width="16.0216" height="39.6965" filterUnits="userSpaceOnUse" color-interpolation-filters="sRGB">
<feFlood flood-opacity="0" result="BackgroundImageFix"/>
<feBlend mode="normal" in="SourceGraphic" in2="BackgroundImageFix" result="shape"/>
<feGaussianBlur stdDeviation="0.7" result="effect1_foregroundBlur_2611_38"/>
</filter>
<filter id="filter10_f_2611_38" x="222.224" y="196.986" width="23.9859" height="64.0009" filterUnits="userSpaceOnUse" color-interpolation-filters="sRGB">
<feFlood flood-opacity="0" result="BackgroundImageFix"/>
<feBlend mode="normal" in="SourceGraphic" in2="BackgroundImageFix" result="shape"/>
<feGaussianBlur stdDeviation="1.7" result="effect1_foregroundBlur_2611_38"/>
</filter>
<filter id="filter11_f_2611_38" x="156.709" y="283.203" width="152.252" height="193.591" filterUnits="userSpaceOnUse" color-interpolation-filters="sRGB">
<feFlood flood-opacity="0" result="BackgroundImageFix"/>
<feBlend mode="normal" in="SourceGraphic" in2="BackgroundImageFix" result="shape"/>
<feGaussianBlur stdDeviation="21.25" result="effect1_foregroundBlur_2611_38"/>
</filter>
<filter id="filter12_f_2611_38" x="239.911" y="279.187" width="90.0942" height="51.7302" filterUnits="userSpaceOnUse" color-interpolation-filters="sRGB">
<feFlood flood-opacity="0" result="BackgroundImageFix"/>
<feBlend mode="normal" in="SourceGraphic" in2="BackgroundImageFix" result="shape"/>
<feGaussianBlur stdDeviation="4.95" result="effect1_foregroundBlur_2611_38"/>
</filter>
<filter id="filter13_f_2611_38" x="291.983" y="311.221" width="43.0704" height="118.471" filterUnits="userSpaceOnUse" color-interpolation-filters="sRGB">
<feFlood flood-opacity="0" result="BackgroundImageFix"/>
<feBlend mode="normal" in="SourceGraphic" in2="BackgroundImageFix" result="shape"/>
<feGaussianBlur stdDeviation="6.45" result="effect1_foregroundBlur_2611_38"/>
</filter>
<filter id="filter14_f_2611_38" x="272.294" y="315.98" width="34.4335" height="104.456" filterUnits="userSpaceOnUse" color-interpolation-filters="sRGB">
<feFlood flood-opacity="0" result="BackgroundImageFix"/>
<feBlend mode="normal" in="SourceGraphic" in2="BackgroundImageFix" result="shape"/>
<feGaussianBlur stdDeviation="6.45" result="effect1_foregroundBlur_2611_38"/>
</filter>
<filter id="filter15_f_2611_38" x="249.374" y="312.06" width="41.8511" height="103.285" filterUnits="userSpaceOnUse" color-interpolation-filters="sRGB">
<feFlood flood-opacity="0" result="BackgroundImageFix"/>
<feBlend mode="normal" in="SourceGraphic" in2="BackgroundImageFix" result="shape"/>
<feGaussianBlur stdDeviation="6.45" result="effect1_foregroundBlur_2611_38"/>
</filter>
<filter id="filter16_f_2611_38" x="218.866" y="311.945" width="62.0577" height="99.7015" filterUnits="userSpaceOnUse" color-interpolation-filters="sRGB">
<feFlood flood-opacity="0" result="BackgroundImageFix"/>
<feBlend mode="normal" in="SourceGraphic" in2="BackgroundImageFix" result="shape"/>
<feGaussianBlur stdDeviation="6.45" result="effect1_foregroundBlur_2611_38"/>
</filter>
<filter id="filter17_f_2611_38" x="285.273" y="261.736" width="13.0307" height="13.3949" filterUnits="userSpaceOnUse" color-interpolation-filters="sRGB">
<feFlood flood-opacity="0" result="BackgroundImageFix"/>
<feBlend mode="normal" in="SourceGraphic" in2="BackgroundImageFix" result="shape"/>
<feGaussianBlur stdDeviation="2.6" result="effect1_foregroundBlur_2611_38"/>
</filter>
<filter id="filter18_f_2611_38" x="246.297" y="206.423" width="67.8061" height="63.6591" filterUnits="userSpaceOnUse" color-interpolation-filters="sRGB">
<feFlood flood-opacity="0" result="BackgroundImageFix"/>
<feBlend mode="normal" in="SourceGraphic" in2="BackgroundImageFix" result="shape"/>
<feGaussianBlur stdDeviation="9.15" result="effect1_foregroundBlur_2611_38"/>
</filter>
<filter id="filter19_f_2611_38" x="233.914" y="180.439" width="21.5652" height="25.9121" filterUnits="userSpaceOnUse" color-interpolation-filters="sRGB">
<feFlood flood-opacity="0" result="BackgroundImageFix"/>
<feBlend mode="normal" in="SourceGraphic" in2="BackgroundImageFix" result="shape"/>
<feGaussianBlur stdDeviation="2" result="effect1_foregroundBlur_2611_38"/>
</filter>
<filter id="filter20_f_2611_38" x="284.282" y="163.972" width="80.239" height="75.2207" filterUnits="userSpaceOnUse" color-interpolation-filters="sRGB">
<feFlood flood-opacity="0" result="BackgroundImageFix"/>
<feBlend mode="normal" in="SourceGraphic" in2="BackgroundImageFix" result="shape"/>
<feGaussianBlur stdDeviation="16.7" result="effect1_foregroundBlur_2611_38"/>
</filter>
<filter id="filter21_f_2611_38" x="220.848" y="163.353" width="80.7909" height="75.7673" filterUnits="userSpaceOnUse" color-interpolation-filters="sRGB">
<feFlood flood-opacity="0" result="BackgroundImageFix"/>
<feBlend mode="normal" in="SourceGraphic" in2="BackgroundImageFix" result="shape"/>
<feGaussianBlur stdDeviation="16.7" result="effect1_foregroundBlur_2611_38"/>
</filter>
<filter id="filter22_f_2611_38" x="208.708" y="177.443" width="28.4737" height="30.3898" filterUnits="userSpaceOnUse" color-interpolation-filters="sRGB">
<feFlood flood-opacity="0" result="BackgroundImageFix"/>
<feBlend mode="normal" in="SourceGraphic" in2="BackgroundImageFix" result="shape"/>
<feGaussianBlur stdDeviation="6.5" result="effect1_foregroundBlur_2611_38"/>
</filter>
<filter id="filter23_f_2611_38" x="202.069" y="177.56" width="28.3709" height="27.7885" filterUnits="userSpaceOnUse" color-interpolation-filters="sRGB">
<feFlood flood-opacity="0" result="BackgroundImageFix"/>
<feBlend mode="normal" in="SourceGraphic" in2="BackgroundImageFix" result="shape"/>
<feGaussianBlur stdDeviation="6.5" result="effect1_foregroundBlur_2611_38"/>
</filter>
<filter id="filter24_f_2611_38" x="229.938" y="125.246" width="28.2607" height="27.3245" filterUnits="userSpaceOnUse" color-interpolation-filters="sRGB">
<feFlood flood-opacity="0" result="BackgroundImageFix"/>
<feBlend mode="normal" in="SourceGraphic" in2="BackgroundImageFix" result="shape"/>
<feGaussianBlur stdDeviation="6.5" result="effect1_foregroundBlur_2611_38"/>
</filter>
<filter id="filter25_f_2611_38" x="196.573" y="174.836" width="28.4841" height="34.0928" filterUnits="userSpaceOnUse" color-interpolation-filters="sRGB">
<feFlood flood-opacity="0" result="BackgroundImageFix"/>
<feBlend mode="normal" in="SourceGraphic" in2="BackgroundImageFix" result="shape"/>
<feGaussianBlur stdDeviation="6.5" result="effect1_foregroundBlur_2611_38"/>
</filter>
<filter id="filter26_f_2611_38" x="322.122" y="133.452" width="28.2951" height="28.7915" filterUnits="userSpaceOnUse" color-interpolation-filters="sRGB">
<feFlood flood-opacity="0" result="BackgroundImageFix"/>
<feBlend mode="normal" in="SourceGraphic" in2="BackgroundImageFix" result="shape"/>
<feGaussianBlur stdDeviation="6.5" result="effect1_foregroundBlur_2611_38"/>
</filter>
<filter id="filter27_f_2611_38" x="227.267" y="122.565" width="28.6725" height="30.9084" filterUnits="userSpaceOnUse" color-interpolation-filters="sRGB">
<feFlood flood-opacity="0" result="BackgroundImageFix"/>
<feBlend mode="normal" in="SourceGraphic" in2="BackgroundImageFix" result="shape"/>
<feGaussianBlur stdDeviation="6.5" result="effect1_foregroundBlur_2611_38"/>
</filter>
<filter id="filter28_f_2611_38" x="336.107" y="175.587" width="27.5194" height="28.443" filterUnits="userSpaceOnUse" color-interpolation-filters="sRGB">
<feFlood flood-opacity="0" result="BackgroundImageFix"/>
<feBlend mode="normal" in="SourceGraphic" in2="BackgroundImageFix" result="shape"/>
<feGaussianBlur stdDeviation="6.5" result="effect1_foregroundBlur_2611_38"/>
</filter>
<filter id="filter29_f_2611_38" x="324.336" y="131.09" width="29.227" height="30.9535" filterUnits="userSpaceOnUse" color-interpolation-filters="sRGB">
<feFlood flood-opacity="0" result="BackgroundImageFix"/>
<feBlend mode="normal" in="SourceGraphic" in2="BackgroundImageFix" result="shape"/>
<feGaussianBlur stdDeviation="6.5" result="effect1_foregroundBlur_2611_38"/>
</filter>
<filter id="filter30_f_2611_38" x="340.721" y="176.076" width="29.2032" height="32.2329" filterUnits="userSpaceOnUse" color-interpolation-filters="sRGB">
<feFlood flood-opacity="0" result="BackgroundImageFix"/>
<feBlend mode="normal" in="SourceGraphic" in2="BackgroundImageFix" result="shape"/>
<feGaussianBlur stdDeviation="6.5" result="effect1_foregroundBlur_2611_38"/>
</filter>
<filter id="filter31_f_2611_38" x="291.503" y="259.521" width="77.1955" height="93.4454" filterUnits="userSpaceOnUse" color-interpolation-filters="sRGB">
<feFlood flood-opacity="0" result="BackgroundImageFix"/>
<feBlend mode="normal" in="SourceGraphic" in2="BackgroundImageFix" result="shape"/>
<feGaussianBlur stdDeviation="13.55" result="effect1_foregroundBlur_2611_38"/>
</filter>
<filter id="filter32_f_2611_38" x="334.428" y="289.411" width="23.7639" height="24.9452" filterUnits="userSpaceOnUse" color-interpolation-filters="sRGB">
<feFlood flood-opacity="0" result="BackgroundImageFix"/>
<feBlend mode="normal" in="SourceGraphic" in2="BackgroundImageFix" result="shape"/>
<feGaussianBlur stdDeviation="3.6" result="effect1_foregroundBlur_2611_38"/>
</filter>
<filter id="filter33_f_2611_38" x="326.441" y="303.516" width="27.147" height="25.2882" filterUnits="userSpaceOnUse" color-interpolation-filters="sRGB">
<feFlood flood-opacity="0" result="BackgroundImageFix"/>
<feBlend mode="normal" in="SourceGraphic" in2="BackgroundImageFix" result="shape"/>
<feGaussianBlur stdDeviation="4.65" result="effect1_foregroundBlur_2611_38"/>
</filter>
<filter id="filter34_f_2611_38" x="201.256" y="305.347" width="48.2197" height="39.8208" filterUnits="userSpaceOnUse" color-interpolation-filters="sRGB">
<feFlood flood-opacity="0" result="BackgroundImageFix"/>
<feBlend mode="normal" in="SourceGraphic" in2="BackgroundImageFix" result="shape"/>
<feGaussianBlur stdDeviation="6.5" result="effect1_foregroundBlur_2611_38"/>
</filter>
<filter id="filter35_f_2611_38" x="210.57" y="314.825" width="13.0219" height="17.6345" filterUnits="userSpaceOnUse" color-interpolation-filters="sRGB">
<feFlood flood-opacity="0" result="BackgroundImageFix"/>
<feBlend mode="normal" in="SourceGraphic" in2="BackgroundImageFix" result="shape"/>
<feGaussianBlur stdDeviation="1.6" result="effect1_foregroundBlur_2611_38"/>
</filter>
<filter id="filter36_f_2611_38" x="280.597" y="202.2" width="35.0233" height="19.7307" filterUnits="userSpaceOnUse" color-interpolation-filters="sRGB">
<feFlood flood-opacity="0" result="BackgroundImageFix"/>
<feBlend mode="normal" in="SourceGraphic" in2="BackgroundImageFix" result="shape"/>
<feGaussianBlur stdDeviation="4" result="effect1_foregroundBlur_2611_38"/>
</filter>
<filter id="filter37_f_2611_38" x="284.037" y="217.174" width="23.5999" height="18.1255" filterUnits="userSpaceOnUse" color-interpolation-filters="sRGB">
<feFlood flood-opacity="0" result="BackgroundImageFix"/>
<feBlend mode="normal" in="SourceGraphic" in2="BackgroundImageFix" result="shape"/>
<feGaussianBlur stdDeviation="4" result="effect1_foregroundBlur_2611_38"/>
</filter>
<filter id="filter38_f_2611_38" x="255.419" y="171.641" width="76.7751" height="32.8857" filterUnits="userSpaceOnUse" color-interpolation-filters="sRGB">
<feFlood flood-opacity="0" result="BackgroundImageFix"/>
<feBlend mode="normal" in="SourceGraphic" in2="BackgroundImageFix" result="shape"/>
<feGaussianBlur stdDeviation="5.1" result="effect1_foregroundBlur_2611_38"/>
</filter>
<linearGradient id="paint0_linear_2611_38" x1="364.438" y1="81.8573" x2="345.759" y2="327.283" gradientUnits="userSpaceOnUse">
<stop offset="0.514423" stop-color="#FBE4EB"/>
<stop offset="1" stop-color="white"/>
</linearGradient>
<linearGradient id="paint1_linear_2611_38" x1="396.095" y1="417.392" x2="283.271" y2="382.896" gradientUnits="userSpaceOnUse">
<stop offset="0.379808" stop-color="#FBE4EB"/>
<stop offset="1" stop-color="white"/>
</linearGradient>
<linearGradient id="paint2_linear_2611_38" x1="227.088" y1="73.5605" x2="213.342" y2="319.329" gradientUnits="userSpaceOnUse">
<stop offset="0.514423" stop-color="#FBE4EB"/>
<stop offset="1" stop-color="white"/>
</linearGradient>
<linearGradient id="paint3_linear_2611_38" x1="147.201" y1="401.802" x2="275.596" y2="376.237" gradientUnits="userSpaceOnUse">
<stop offset="0.379808" stop-color="#FBE4EB"/>
<stop offset="1" stop-color="white"/>
</linearGradient>
<linearGradient id="paint4_linear_2611_38" x1="422.664" y1="217.503" x2="357.36" y2="336.14" gradientUnits="userSpaceOnUse">
<stop stop-color="#FFD4D1"/>
<stop offset="0.490385" stop-color="#FFF0EF"/>
<stop offset="1" stop-color="#FFD4D1"/>
</linearGradient>
<linearGradient id="paint5_linear_2611_38" x1="341.972" y1="121.352" x2="356.348" y2="255.445" gradientUnits="userSpaceOnUse">
<stop offset="0.0384615" stop-color="#FD4994"/>
<stop offset="0.456307" stop-color="#FF93BD"/>
<stop offset="0.975962" stop-color="#FD4994"/>
</linearGradient>
<linearGradient id="paint6_linear_2611_38" x1="229.226" y1="319.246" x2="151.665" y2="412.388" gradientUnits="userSpaceOnUse">
<stop offset="0.0673077" stop-color="#FFD4D1"/>
<stop offset="0.552885" stop-color="#FFF1F0"/>
<stop offset="1" stop-color="#FFD4D1"/>
</linearGradient>
<linearGradient id="paint7_linear_2611_38" x1="348.373" y1="311.982" x2="295.704" y2="254.945" gradientUnits="userSpaceOnUse">
<stop offset="0.259615" stop-color="#1F2D7B"/>
<stop offset="1" stop-color="#3952E1"/>
</linearGradient>
<linearGradient id="paint8_linear_2611_38" x1="349.612" y1="317.324" x2="317.893" y2="289.748" gradientUnits="userSpaceOnUse">
<stop stop-color="white"/>
<stop offset="0.346154" stop-color="#9FA3BA"/>
</linearGradient>
<linearGradient id="paint9_linear_2611_38" x1="299.927" y1="418.632" x2="225.31" y2="652.401" gradientUnits="userSpaceOnUse">
<stop offset="0.168269" stop-color="#FFD4D1"/>
<stop offset="0.475962" stop-color="#FFF1F1"/>
<stop offset="0.831731" stop-color="#FFD4D1"/>
</linearGradient>
<linearGradient id="paint10_linear_2611_38" x1="258.948" y1="459.487" x2="255.084" y2="473.442" gradientUnits="userSpaceOnUse">
<stop stop-color="#EDACB6"/>
<stop offset="1" stop-color="#F8C4CC"/>
</linearGradient>
<linearGradient id="paint11_linear_2611_38" x1="274.191" y1="451.856" x2="161.258" y2="573.065" gradientUnits="userSpaceOnUse">
<stop stop-color="#FFD6D3"/>
<stop offset="0.519231" stop-color="#FFECEA"/>
<stop offset="1" stop-color="#FFD6D3"/>
</linearGradient>
<linearGradient id="paint12_linear_2611_38" x1="225.65" y1="454.901" x2="221.785" y2="468.856" gradientUnits="userSpaceOnUse">
<stop stop-color="#EDACB6"/>
<stop offset="1" stop-color="#F8C4CC"/>
</linearGradient>
<linearGradient id="paint13_linear_2611_38" x1="296.635" y1="84.2257" x2="288.569" y2="369.878" gradientUnits="userSpaceOnUse">
<stop offset="0.110577" stop-color="#FFD4D1"/>
<stop offset="0.485577" stop-color="#FFF1F0"/>
<stop offset="0.875" stop-color="#FFD4D1"/>
</linearGradient>
<linearGradient id="paint14_linear_2611_38" x1="299.988" y1="190.396" x2="299.898" y2="165.277" gradientUnits="userSpaceOnUse">
<stop stop-color="white"/>
<stop offset="1" stop-color="#999999"/>
</linearGradient>
<linearGradient id="paint15_linear_2611_38" x1="299.988" y1="190.396" x2="299.898" y2="165.277" gradientUnits="userSpaceOnUse">
<stop stop-color="white"/>
<stop offset="1" stop-color="#999999"/>
</linearGradient>
<linearGradient id="paint16_linear_2611_38" x1="294.797" y1="279.429" x2="270.989" y2="455.217" gradientUnits="userSpaceOnUse">
<stop offset="0.134615" stop-color="#F9FCFF"/>
<stop offset="0.860577" stop-color="#959799"/>
</linearGradient>
<linearGradient id="paint17_linear_2611_38" x1="294.694" y1="280.167" x2="270.987" y2="455.216" gradientUnits="userSpaceOnUse">
<stop offset="0.663462" stop-color="#1F2D7B"/>
<stop offset="1" stop-color="#2A398B"/>
</linearGradient>
<linearGradient id="paint18_linear_2611_38" x1="294.694" y1="280.167" x2="270.987" y2="455.216" gradientUnits="userSpaceOnUse">
<stop offset="0.0913462" stop-color="#3E2527"/>
<stop offset="0.490385" stop-color="#5B3937"/>
<stop offset="0.865385" stop-color="#3E2527"/>
</linearGradient>
<linearGradient id="paint19_linear_2611_38" x1="270.559" y1="117.124" x2="271.142" y2="277.569" gradientUnits="userSpaceOnUse">
<stop stop-color="#FD4994"/>
<stop offset="0.423077" stop-color="#FF93BD"/>
<stop offset="0.807692" stop-color="#FD4994"/>
</linearGradient>
<linearGradient id="paint20_linear_2611_38" x1="264.815" y1="500.667" x2="276.878" y2="357.929" gradientUnits="userSpaceOnUse">
<stop offset="0.307692" stop-color="#F8FDFF"/>
<stop offset="1" stop-color="#959899"/>
</linearGradient>
<linearGradient id="paint21_linear_2611_38" x1="292.767" y1="266.265" x2="290.845" y2="281.999" gradientUnits="userSpaceOnUse">
<stop offset="0.598789" stop-color="#D60926"/>
<stop offset="1" stop-color="#700514"/>
</linearGradient>
<linearGradient id="paint22_linear_2611_38" x1="308.853" y1="325.163" x2="262.81" y2="325.144" gradientUnits="userSpaceOnUse">
<stop offset="0.211571" stop-color="#4A2E2E"/>
<stop offset="0.475962" stop-color="#634040"/>
<stop offset="0.875" stop-color="#4A2E2E"/>
</linearGradient>
<linearGradient id="paint23_linear_2611_38" x1="227.299" y1="282.741" x2="219.029" y2="345.884" gradientUnits="userSpaceOnUse">
<stop offset="0.00480769" stop-color="#33439A"/>
<stop offset="0.480769" stop-color="#1E2C7A"/>
</linearGradient>
</defs>
</svg>
