<svg width="411" height="748" viewBox="0 0 411 748" fill="none" xmlns="http://www.w3.org/2000/svg">
<path d="M109.142 22.0888C140.207 62.7469 171.586 158.525 181.572 210.448C188.548 251.484 194.031 333.804 142.096 330.342C83.0585 324.747 77.446 178.721 77.6858 108.611C77.7595 87.0674 78.6264 46.9115 82.0911 26.5171C87.1593 -11.8037 93.953 2.20924 109.142 22.0888Z" fill="url(#paint0_linear_2441_378)" stroke="#471F1E" stroke-width="1.5"/>
<path d="M26.2986 392.986C44.3007 377.418 103.248 342.859 129.923 333.844C138.66 330.892 158.679 329.736 158.055 361.676C157.726 378.501 152.491 390.432 141.884 398.115C141.884 398.115 124.337 410.696 112.756 416.48C100.187 422.757 80.201 428.244 80.201 428.244C64.6438 433.878 41.8603 433.992 23.873 426.448C0.989152 416.851 8.98788 407.956 26.2986 392.986Z" fill="url(#paint1_linear_2441_378)" stroke="#471F1E" stroke-width="1.5"/>
<path d="M371.695 71.5359C323.566 97.5409 253.965 174.635 223.589 219.092C200.542 254.573 163.223 328.974 218.941 345.432C282.914 362.598 344.807 229.06 371.449 163.835C379.636 143.792 394.131 106.157 398.326 85.8973C407.718 48.3759 395.228 58.8209 371.695 71.5359Z" fill="url(#paint2_linear_2441_378)" stroke="#471F1E" stroke-width="1.5"/>
<path d="M316.181 447.496C303.3 426.213 254.823 371.777 230.345 353.297C222.328 347.245 201.806 338.587 190.208 368.497C184.098 384.253 185.004 397.32 193.165 408.476C193.165 408.476 206.716 426.811 216.625 436.572C227.38 447.165 246.207 459.833 246.207 459.833C260.338 470.961 284.154 479.697 305.885 479.503C333.532 479.256 328.567 467.962 316.181 447.496Z" fill="url(#paint3_linear_2441_378)" stroke="#471F1E" stroke-width="1.5"/>
<path d="M77.0665 261.205C78.6702 268.214 88.5221 291.61 88.5221 291.61C88.5221 291.61 89.1207 293.376 89.8599 295.665L106.584 291.878L107.881 301.549L111.767 315.102C109.551 320.023 89.4872 329.015 85.3226 330.534C72.26 335.01 63.6294 309.113 63.6294 309.113C63.6294 309.113 59.0393 289.998 58.4215 283.371L55.6169 244.305C52.4634 242.947 47.835 236.93 46.3884 233.287C45.2312 230.373 47.0563 224.772 48.1135 222.336C47.5615 221.964 47.0447 220.967 46.5964 220.211C44.9003 217.35 45.2288 212.857 45.8191 208.885C46.2597 205.921 49.4627 207.321 50.9962 207.638C51.2782 205.797 51.6236 202.911 52.5097 202.074C54.4903 200.204 56.7456 201.439 58.3019 201.704C58.4349 201.115 58.8366 200.188 58.9841 199.636C60.0936 195.484 64.5728 197.173 67.6986 198.086C68.0783 197.429 68.9543 197.544 69.6362 197.316C73.8481 195.913 77.308 202.761 79.3227 205.85C81.3373 208.939 81.402 217.524 80.0443 223.078C78.9581 227.521 75.0918 237.052 73.2944 241.262C73.4692 255.258 75.7615 255.502 77.0665 261.205Z" fill="url(#paint4_linear_2441_378)"/>
<path d="M92.4506 304.513C92.0199 302.5 90.821 298.64 89.8599 295.665M89.8599 295.665C89.1207 293.376 88.5222 291.61 88.5222 291.61C88.5222 291.61 78.6702 268.214 77.0665 261.205C75.7615 255.502 73.4692 255.258 73.2944 241.262C75.0918 237.052 78.9581 227.521 80.0443 223.078C81.402 217.524 81.3373 208.939 79.3227 205.85C77.308 202.761 73.8481 195.913 69.6362 197.316C68.9543 197.544 68.0783 197.429 67.6986 198.086M89.8599 295.665L106.584 291.878L107.881 301.549L111.767 315.102C109.551 320.023 89.4872 329.015 85.3226 330.534C72.26 335.01 63.6294 309.113 63.6294 309.113C63.6294 309.113 59.0393 289.998 58.4215 283.371L55.6169 244.305C52.4634 242.947 47.835 236.93 46.3884 233.287C45.2312 230.373 47.0563 224.772 48.1135 222.336M62.7709 213.993C61.9386 211.521 65.0759 202.622 67.6986 198.086M62.7709 213.993C60.8305 218.639 60.4297 220.375 58.3016 218.546M62.7709 213.993C63.0598 214.612 65.0577 217.465 66.1914 217.466M67.6986 198.086C64.5728 197.173 60.0936 195.484 58.9841 199.636C58.8366 200.188 58.4349 201.115 58.3019 201.704M58.3019 201.704C56.9469 207.702 57.2182 214.35 57.9816 217.466C58.1088 217.985 57.963 218.255 58.3016 218.546M58.3019 201.704C56.7456 201.439 54.4903 200.204 52.5097 202.074C51.6236 202.911 51.2782 205.797 50.9962 207.638M58.3016 218.546C56.6543 223.514 53.9828 223.112 52.9609 222.689C52.6952 222.579 52.2526 221.913 51.737 220.968M50.9962 207.638C50.7143 209.479 50.6552 212.445 50.7572 213.984C50.9263 216.536 50.6668 219.007 51.737 220.968M50.9962 207.638C49.4627 207.321 46.2597 205.921 45.8191 208.885C45.2288 212.857 44.9003 217.35 46.5964 220.211C47.0447 220.967 47.5615 221.964 48.1135 222.336M51.737 220.968C50.3093 223.506 49.5134 223.279 48.1135 222.336M60.4297 235.335C59.164 232.659 57.4207 226.653 60.5731 224.031C63.5145 221.584 65.7961 220.321 66.1914 217.466M76.2857 219.786C75.2426 217.915 72.5551 210.48 71.3429 205.09C70.8474 202.887 69.9894 200.06 69.1577 199.636C67.9944 199.043 66.654 200.762 65.7324 202.074C64.025 204.505 65.8631 209.399 66.6718 213.613C66.928 214.949 66.895 216.65 66.1914 217.466M74.456 204.428C73.827 205.326 73.5569 206.838 71.9335 208.38" stroke="#43090A" stroke-width="1.5"/>
<g filter="url(#filter0_f_2441_378)">
<path d="M65.1617 218.016L62.9684 215.915C60.5504 220.835 58.8807 219.798 58.6907 220.047C58.5006 220.295 57.794 221.528 57.1682 222.514C56.2157 223.236 53.7604 225.096 51.6879 222.814C50.9589 223.726 49.4433 224.142 48.5547 223.37C47.7164 225.879 47.2376 227.729 46.8658 230.291C51.1809 232.184 58.7789 231.24 58.7789 231.24C57.4111 225.047 60.7632 223.153 60.7632 223.153C60.7632 223.153 63.947 221.253 65.1617 218.016Z" fill="#F2BAC4" fill-opacity="0.52"/>
</g>
<path d="M160.775 101.82C177.691 80.246 199.938 86.7262 204.199 92.3488L189.388 123.582C181.055 139.41 163.756 174.222 161.217 186.852C158.044 202.638 141.215 224.748 130.008 230.651C121.042 235.374 110.965 239.789 105.489 241.904C112.309 233.409 116.63 220.836 120.022 213.904C112.076 218.969 99.3328 215.49 96.7364 215.298C100.04 212.434 107.333 206.067 112.718 198.944C123.183 185.104 126.834 173.144 132.058 158.436C138.588 140.052 141.781 126.044 160.775 101.82Z" fill="url(#paint5_linear_2441_378)" stroke="#43090A" stroke-width="1.5"/>
<g filter="url(#filter1_f_2441_378)">
<path d="M134.481 170.86C126.673 203.148 103.135 213.496 99.0572 214.66C102.568 216.695 117.601 216.363 122.05 211.566C113.394 229.413 114.7 229.728 107.995 240.153C111.398 238.297 119.493 235.343 123.166 233.264C127.533 230.793 129.383 230.516 133.366 227.518C137.219 224.619 142.167 218.781 143.973 217.067C150.568 210.806 158.864 194.239 159.886 189.548C159.886 189.548 159.686 185.973 159.934 184.736C160.437 182.226 153.428 195.286 148.196 202.538C142.616 210.273 139.726 213.866 131.974 220.044C125.773 224.986 121.77 229.3 120.543 230.839C118.418 230.037 127.4 209.105 132.135 196.327C135.924 186.104 135.277 175.09 134.481 170.86Z" fill="#FE3B8E"/>
</g>
<path d="M251.828 420.525C246.788 411.905 242.356 392.922 240.77 384.508L239.335 374.082L264.915 371.211C265.585 374.113 267.234 380.619 268.469 383.43C269.705 386.241 273.838 402.761 275.751 410.669C278.343 422.324 283.701 446.139 284.399 448.159C285.271 450.685 291.276 454.343 305.149 464.442C316.247 472.521 316.06 478.414 314.712 480.319C315.948 483.468 315.651 485.796 314.876 486.918C317.199 491.201 314.974 491.181 313.216 490.443C313.446 491.134 313.567 491.917 313.041 492.411C311.524 493.833 290.787 479.347 280.136 473.272C288.741 486.6 284.607 491.623 281.465 492.468C279.991 488.482 275.64 479.389 270.03 474.905C264.419 470.421 264.463 458.736 265.187 453.454C262.834 446.07 256.868 429.145 251.828 420.525Z" fill="url(#paint6_linear_2441_378)"/>
<path d="M301.765 478.744C303.51 479.997 311.544 485.411 313.216 490.443M313.216 490.443C313.446 491.134 313.567 491.917 313.041 492.411C311.524 493.833 290.787 479.347 280.136 473.272C288.741 486.6 284.607 491.623 281.465 492.468C279.991 488.482 275.64 479.389 270.03 474.905C264.419 470.421 264.463 458.736 265.187 453.454C262.834 446.07 256.868 429.145 251.828 420.525C246.788 411.905 242.356 392.922 240.77 384.508L239.335 374.082L264.915 371.211C265.585 374.113 267.234 380.619 268.469 383.43C269.705 386.241 273.838 402.761 275.751 410.669C278.343 422.324 283.701 446.139 284.399 448.159C285.271 450.685 291.276 454.343 305.149 464.442C316.247 472.521 316.06 478.414 314.712 480.319M313.216 490.443C314.974 491.181 317.199 491.201 314.876 486.918M305.077 474.734C305.771 475.471 306.219 475.173 312.43 483.155C313.586 484.64 314.331 485.915 314.876 486.918M314.876 486.918C315.651 485.796 315.948 483.468 314.712 480.319M308.492 473.35C314.248 477.834 313.42 477.257 314.712 480.319" stroke="#43090A" stroke-width="1.5"/>
<path d="M294.165 473.087C294.29 473.195 294.41 473.299 294.525 473.399C296.688 475.255 298.76 477.227 300.962 479.046C301.079 479.145 301.201 479.248 301.328 479.354C301.619 478.948 301.911 478.541 302.202 478.135C302.061 478.049 301.925 477.967 301.794 477.888C299.342 476.444 297.008 474.839 294.569 473.339C294.44 473.258 294.305 473.175 294.165 473.087Z" fill="#43090A"/>
<path d="M298.537 470.438C298.636 470.522 298.743 470.602 298.849 470.68C299.569 471.203 300.343 471.675 301.036 472.188C302.173 473.078 303.343 474.04 304.329 475.015C304.41 475.1 304.493 475.191 304.531 475.249C304.895 474.906 305.258 474.563 305.621 474.219C305.481 474.091 305.366 474.01 305.246 473.925C303.949 473.061 302.676 472.377 301.342 471.692C300.516 471.297 299.693 470.993 298.887 470.615C298.77 470.56 298.65 470.501 298.537 470.438Z" fill="#43090A"/>
<path d="M302.654 469.707C302.741 469.782 302.833 469.854 302.926 469.923C303.628 470.438 304.401 470.887 305.062 471.39C305.992 472.13 306.916 472.926 307.797 473.72C307.879 473.796 307.963 473.873 308.031 473.942C308.338 473.548 308.646 473.153 308.953 472.759C308.843 472.689 308.74 472.629 308.636 472.569C307.561 471.958 306.503 471.387 305.398 470.846C304.573 470.466 303.759 470.21 302.964 469.858C302.86 469.811 302.755 469.762 302.654 469.707Z" fill="#43090A"/>
<path d="M149.276 284.023C145.919 277.426 140.334 275.104 134.012 268.377C131.778 265.999 130.209 274.108 117.914 275.575C109.819 276.541 104.204 283.854 102.444 288.061C104.316 294.082 108.428 308.579 109.896 318.406C110.002 319.114 110.191 319.738 110.455 320.284C113.85 327.322 129.552 321.528 137.533 317.425L149.276 284.023Z" fill="url(#paint7_linear_2441_378)"/>
<path d="M109.896 318.406C108.428 308.579 104.316 294.082 102.444 288.061C100.538 287.368 96.669 285.581 96.4414 283.98C96.1568 281.979 90.7113 289.642 95.0468 292.953C94.3665 296.053 93.8073 302.461 97.0125 303.299C96.0123 306.633 95.5163 314.35 101.534 318.553C100.971 320.536 101.17 326.154 103.54 327.544C105.129 324.986 108.736 319.953 110.455 320.284C110.191 319.738 110.002 319.114 109.896 318.406Z" fill="url(#paint8_linear_2441_378)"/>
<path d="M102.444 288.061C104.316 294.082 108.428 308.579 109.896 318.406C110.002 319.114 110.191 319.738 110.455 320.284M102.444 288.061C104.204 283.854 109.819 276.541 117.914 275.575C130.209 274.108 131.778 265.999 134.012 268.377C140.334 275.104 145.919 277.426 149.276 284.023L137.533 317.425C129.552 321.528 113.85 327.322 110.455 320.284M102.444 288.061C100.538 287.368 96.669 285.581 96.4414 283.98C96.1568 281.979 90.7113 289.642 95.0468 292.953M95.0468 292.953C96.3817 293.671 99.663 294.896 102.109 294.051M95.0468 292.953C94.3665 296.053 93.8073 302.461 97.0125 303.299M97.0125 303.299C97.5616 303.782 99.4269 304.628 102.496 304.152M97.0125 303.299C96.0123 306.633 95.5163 314.35 101.534 318.553M101.534 318.553C102.587 318.347 104.873 317.217 105.594 314.333M101.534 318.553C100.971 320.536 101.17 326.154 103.54 327.544C105.129 324.986 108.736 319.953 110.455 320.284" stroke="#43090A" stroke-width="1.5"/>
<path d="M109.309 561.603C105.475 551.109 97.5939 508.492 94.3428 489.545L145.716 493.329C145.52 505.857 146.335 530.742 146.641 532.427C146.978 534.276 150.733 548.402 152.022 555.633C153.124 559.377 154.844 611.64 153.044 649.467C152.782 654.966 152.446 660.159 152.022 664.854C152.022 664.854 142.639 667.313 136.505 667.292C130.5 667.272 121.539 664.938 121.539 664.938V662.836C121.371 658.884 120.877 654.349 120.413 649.467C117.396 617.717 112.632 570.698 109.309 561.603Z" fill="url(#paint9_linear_2441_378)" stroke="#43090A" stroke-width="1.5" stroke-linecap="round"/>
<path d="M152.19 664.602C142.168 669.512 127.387 667.068 121.585 665.022V681.166C131.002 685.067 145.464 682.175 151.518 680.241L152.19 664.602Z" fill="#1E2D7B" stroke="#43090A" stroke-width="1.5" stroke-linecap="round"/>
<path d="M121.19 681.975C120.349 683.489 112.613 704.761 104.289 710.899C102.886 711.934 101.437 713.09 100.001 714.327C102.103 723.81 109.502 721.157 124.048 713.758C135.685 707.838 147.174 689.759 150.929 681.127C151.225 681.127 151.308 681.071 151.314 681.017C151.298 681 151.282 680.983 151.266 680.966C141.739 685.627 126.956 683.589 121.19 681.975Z" fill="#FFDFDD"/>
<path d="M86.6324 733.517C87.221 739.571 91.2568 750.333 115.136 744.952C121.19 742.345 134.475 734.896 139.183 725.949V730.406C144.116 731.387 154.133 730.91 154.738 721.157C155.479 709.227 159.902 690.028 151.314 681.017C151.308 681.071 151.225 681.127 150.929 681.127C147.174 689.759 135.685 707.838 124.048 713.758C109.502 721.157 102.103 723.81 100.001 714.327C92.9188 720.428 86.1431 728.484 86.6324 733.517Z" fill="#1F2B7A"/>
<path d="M100.001 714.327C101.437 713.09 102.886 711.934 104.289 710.899C112.613 704.761 120.349 683.489 121.19 681.975C126.956 683.589 141.739 685.627 151.266 680.966M100.001 714.327C92.9188 720.428 86.1431 728.484 86.6324 733.517C87.221 739.571 91.2568 750.333 115.136 744.952C121.19 742.345 134.475 734.896 139.183 725.949V730.406C144.116 731.387 154.133 730.91 154.738 721.157C155.479 709.227 159.902 690.028 151.314 681.017M100.001 714.327C102.103 723.81 109.502 721.157 124.048 713.758C135.685 707.838 147.174 689.759 150.929 681.127C151.225 681.127 151.308 681.071 151.314 681.017M151.266 680.966C151.282 680.983 151.298 681 151.314 681.017M151.266 680.966C151.162 680.859 151.322 680.936 151.314 681.017" stroke="#43090A" stroke-width="1.5" stroke-linecap="round"/>
<g filter="url(#filter2_f_2441_378)">
<path d="M144.708 521.832L99.9765 513.424C97.7904 499.887 93.7541 492.993 98.6314 480.465L144.287 498.794L144.708 521.832Z" fill="url(#paint10_linear_2441_378)"/>
</g>
<path d="M236.172 708.909C237.27 712.329 241.829 722.543 256.839 711.229C268.699 702.289 273.455 697.673 271.332 667.114L276.987 667.891C278.858 665.459 282.141 659.766 280.305 656.45C278.01 652.304 263.891 632.412 248.296 631.053C252.196 636.559 259.901 650.674 258.197 660.139C256.066 671.97 248.43 702.197 236.243 679.721C235.906 691.687 235.171 705.795 236.172 708.909Z" fill="#1F2B7A"/>
<path d="M228.752 647.03C231.365 652.597 236.538 666.239 236.329 676.27C236.305 677.392 236.276 678.546 236.243 679.721C248.43 702.197 256.066 671.97 258.197 660.139C259.901 650.674 252.196 636.559 248.296 631.053C247.576 634.633 242.923 643.43 228.752 647.03Z" fill="#FFDFDD"/>
<path d="M248.296 631.053C263.891 632.412 278.01 652.304 280.305 656.45C282.141 659.766 278.858 665.459 276.987 667.891L271.332 667.114C273.455 697.673 268.699 702.289 256.839 711.229C241.829 722.543 237.27 712.329 236.172 708.909C235.171 705.795 235.906 691.687 236.243 679.721M248.296 631.053C252.196 636.559 259.901 650.674 258.197 660.139C256.066 671.97 248.43 702.197 236.243 679.721M248.296 631.053C247.576 634.633 242.923 643.43 228.752 647.03C231.365 652.597 236.538 666.239 236.329 676.27C236.305 677.392 236.276 678.546 236.243 679.721" stroke="#43090A" stroke-width="1.5"/>
<path d="M229.264 647.615L221.911 637.592C229.918 637.8 238.087 626.69 241.171 621.109L247.449 630.573C247.135 639.471 235.195 645.642 229.264 647.615Z" fill="#1E2D7B" stroke="#43090A" stroke-width="1.5"/>
<path d="M138.416 549.831C138.214 541.087 140.181 514.237 141.19 501.905L202.149 491.227C198.282 503.615 189.789 530.123 186.762 537.051C183.736 543.979 184.436 548.626 185.165 550.084C202.906 560.678 231.591 596.02 240.896 621.468C233.228 633.576 225.958 637.948 221.978 637.107C212.393 624.635 176.051 602.735 160.109 588.004C140.182 569.59 138.668 560.762 138.416 549.831Z" fill="url(#paint11_linear_2441_378)" stroke="#43090A" stroke-width="1.5"/>
<g filter="url(#filter3_f_2441_378)">
<path d="M192.972 518.469L140.71 519.478C143.052 507.981 144.651 510.085 143.362 495.515L196.586 504.092L192.972 518.469Z" fill="url(#paint12_linear_2441_378)"/>
</g>
<g filter="url(#filter4_f_2441_378)">
<ellipse cx="119.567" cy="560.089" rx="7.73546" ry="5.12893" fill="#FED1D0"/>
</g>
<g filter="url(#filter5_f_2441_378)">
<ellipse cx="5.52808" cy="7.21504" rx="5.52808" ry="7.21504" transform="matrix(0.920866 -0.389879 0.389881 0.920865 139.242 556.241)" fill="#FED1D0"/>
</g>
<g filter="url(#filter6_f_2441_378)">
<path d="M138.821 560.342C138.984 561.037 139.173 561.801 139.384 562.624C141.595 568.658 149.641 579.973 152.526 582.118L153.436 614.566C153.449 614.756 153.454 614.927 153.451 615.078L153.436 614.566C152.992 607.794 142.969 576.615 139.384 562.624C139.057 561.732 138.858 560.956 138.821 560.342Z" fill="#EEAEB8"/>
</g>
<rect x="189.717" y="100.812" width="37.1638" height="31.1249" transform="rotate(8.83409 189.717 100.812)" fill="#FE368F"/>
<path d="M169.752 128.644C180.223 115.328 208.264 118.754 219.723 122.233C272.151 131.559 262.633 168.632 253.833 186.046C272.816 164.863 288.007 184.012 280.861 199.224C275.145 211.394 258.207 213.011 250.453 212.299C245.574 221.467 241.221 222.937 232.54 227.108C228.552 235.18 217.786 252.586 220.41 259.536C223.689 268.224 245.481 273.829 247.975 283.915C249.998 292.097 255.536 305.382 256.17 308.659C255.049 310.559 246.001 317.718 227.54 312.84C213.023 283.398 169.407 281.589 153.339 279.992L148.439 282.344C148.067 280.063 137.966 271.306 135.598 269.075C137.993 266.372 150.935 257.219 154.901 254.127C159.628 250.443 177.18 251.037 185.708 248.377C192.531 246.248 196.779 238.085 195.484 234.206C190.565 234.12 191.183 234.255 188.918 233.228C183.887 230.567 165.888 218.225 160.302 206.607C153.341 192.128 160.688 171.007 160.688 171.007C160.688 171.007 156.663 145.289 169.752 128.644Z" fill="url(#paint13_linear_2441_378)"/>
<path d="M232.54 227.108C241.221 222.937 245.574 221.467 250.453 212.299C258.207 213.011 275.145 211.394 280.861 199.224C288.007 184.012 272.816 164.863 253.833 186.046C262.633 168.632 272.151 131.559 219.723 122.233C208.264 118.754 180.223 115.328 169.752 128.644C156.663 145.289 160.688 171.007 160.688 171.007C160.688 171.007 153.341 192.128 160.302 206.607C165.888 218.225 183.887 230.567 188.918 233.228C191.183 234.255 190.565 234.121 195.484 234.206M232.54 227.108C228.552 235.18 217.786 252.586 220.41 259.536C223.689 268.224 245.481 273.829 247.975 283.915C249.998 292.097 255.536 305.382 256.17 308.659C255.049 310.559 246.001 317.718 227.54 312.84C213.023 283.398 169.407 281.589 153.339 279.992L148.439 282.344C148.067 280.063 137.966 271.306 135.598 269.075C137.993 266.372 150.935 257.219 154.901 254.127C159.628 250.443 177.18 251.037 185.708 248.377C192.531 246.248 196.779 238.085 195.484 234.206M232.54 227.108C220.129 233.071 207.251 234.411 195.484 234.206" stroke="#43090A" stroke-width="1.5"/>
<path d="M170.228 172.233L168.462 162.732C172.918 157.183 175.609 158.192 183.681 160.714C190.138 162.732 189.79 173.214 188.81 178.203C182.487 172.889 173.787 172.009 170.228 172.233Z" fill="url(#paint14_linear_2441_378)"/>
<path d="M240.435 191.908C232.633 185.72 215.968 185.77 215.968 185.77C214.631 183.616 214.78 182.028 214.37 180.221C217.425 177.67 224.561 172.721 228.664 173.326C233.793 174.083 243.63 177.698 244.303 180.725C244.841 183.147 241.977 189.526 240.435 191.908Z" fill="url(#paint15_linear_2441_378)"/>
<path d="M152.15 280.255C138.43 287.776 137.175 309.429 138.262 319.315C148.323 325.709 177.38 338.79 213.121 339.967C216.702 331.679 223.799 318.516 227.416 312.555C209.115 281.745 167.227 280.078 152.15 280.255Z" fill="url(#paint16_linear_2441_378)"/>
<path d="M244.55 473.706C239.729 439.85 219.759 376.173 210.377 348.567C170.351 352.798 141.543 335.315 132.142 326.044C92.7639 370.53 66.2704 423.604 57.6529 445.498C76.0519 479.091 123.597 493.29 145.069 496.191C209.996 504.562 238.443 484.689 244.55 473.706Z" fill="url(#paint17_linear_2441_378)"/>
<path d="M210.377 348.567C210.533 346.589 211.585 343.522 213.121 339.967C177.38 338.79 148.323 325.709 138.262 319.315C136.189 321.533 134.149 323.777 132.142 326.044C141.543 335.315 170.351 352.798 210.377 348.567Z" fill="url(#paint18_linear_2441_378)"/>
<path d="M138.262 319.315C137.175 309.429 138.43 287.776 152.15 280.255C167.227 280.078 209.115 281.745 227.416 312.555C223.799 318.516 216.702 331.679 213.121 339.967M138.262 319.315C148.323 325.709 177.38 338.79 213.121 339.967M138.262 319.315C136.189 321.533 134.149 323.777 132.142 326.044M210.377 348.567C219.759 376.173 239.729 439.85 244.55 473.706C238.443 484.689 209.996 504.562 145.069 496.191C123.597 493.29 76.0519 479.091 57.6529 445.498C66.2704 423.604 92.7639 370.53 132.142 326.044M210.377 348.567C210.533 346.589 211.585 343.522 213.121 339.967M210.377 348.567C170.351 352.798 141.543 335.315 132.142 326.044" stroke="#43090A" stroke-width="1.5"/>
<g filter="url(#filter7_f_2441_378)">
<path d="M157.155 265.808C152.654 269.142 144.849 266.901 141.485 265.808C143.671 264.629 143.502 264.629 146.109 263.2C148.717 261.77 149.858 260.798 152.079 259.668C156.277 257.533 159.563 256.81 164.692 255.801C163.116 258.546 161.306 262.734 157.155 265.808Z" fill="#FEC1BF"/>
</g>
<g filter="url(#filter8_f_2441_378)">
<path d="M250.195 295.271C239.365 293.655 230.212 278.425 230.585 272.613C234.135 274.171 240.674 277.966 244.36 282.2C247.759 286.104 249.242 292.24 250.195 295.271Z" fill="#FEC1BF"/>
</g>
<path d="M206.887 116.819L204.115 103.659C198.541 108.263 186.246 124.305 181.655 151.638C179.22 149.045 175.956 140 178.384 127.818C174.22 140.322 156.469 153.387 146.383 157.322C146.416 150.404 153.554 134.743 163.479 124.214C158.212 124.232 146.297 132.07 141.508 137.374C143.125 130.633 149.596 114.813 162.541 105.459C175.485 96.1053 187.506 89.179 191.898 86.8851C195.025 85.1167 201.682 83.6433 207.731 88.4196C212.628 87.1109 227.618 86.6681 248.403 95.3669C252.652 96.6927 254.461 99.5328 256.244 100.866C256.634 101.157 257.157 101.708 257.782 102.481C263.109 102.423 270.816 104.803 279.11 110.322C291.19 110.986 316.11 116.81 319.811 150.249C323.513 183.688 311.454 193.323 303.658 219.038C298.095 237.388 292.274 257.52 289.326 265.999C285.721 276.366 288.497 290.589 293.357 301.167C287.251 295.642 281.299 288.186 281.299 288.186C281.299 288.186 266.901 269.449 264.75 264.573C265.348 270.284 267.091 281.494 269.52 283.632C269.699 283.742 269.878 283.848 270.059 283.948C269.876 283.894 269.696 283.787 269.52 283.632C262.524 279.314 256.996 267.721 257.12 248.603C257.247 228.997 260.942 218.101 264.441 211.421C270.581 211.362 282.026 202.321 280.555 189.718C276.089 171.355 256.597 182.786 254.391 184.935C254.341 185.144 254.314 185.258 254.314 185.258C254.118 185.287 254.157 185.164 254.391 184.935C254.905 182.785 257.796 170.585 257.736 168.57C256.541 170.533 255.339 172.051 254.314 173.08C247.578 168.348 233.533 146.139 231.934 138.474C231.645 141.365 231.595 144.332 232.046 147.014C232.659 150.652 235.744 157.23 235.744 157.23C235.744 157.23 238.77 162.647 239.66 164.529C217.649 150.026 216.926 119.616 218.306 106.374L206.887 116.819Z" fill="url(#paint19_linear_2441_378)"/>
<path d="M179.713 121.22C179.485 121.931 179.335 123.899 179.147 124.586M179.147 124.586C175.384 138.386 179.009 148.821 181.655 151.638C186.246 124.305 198.541 108.263 204.115 103.659L206.887 116.819L218.306 106.374C216.926 119.616 217.649 150.026 239.66 164.529C238.77 162.647 235.744 157.23 235.744 157.23C235.744 157.23 232.659 150.652 232.046 147.014C231.595 144.332 231.645 141.365 231.934 138.474M179.147 124.586C177.353 137.989 157.343 153.046 146.383 157.322C146.416 150.404 153.554 134.743 163.479 124.214C158.212 124.232 146.297 132.07 141.508 137.374C143.125 130.633 149.596 114.813 162.541 105.459C175.485 96.1053 187.506 89.179 191.898 86.8851C195.025 85.1167 201.682 83.6433 207.731 88.4196M212.401 93.7497C210.942 91.443 209.359 89.705 207.731 88.4196M233.865 127.558C233.252 130.324 232.348 134.32 231.934 138.474M231.934 138.474C233.533 146.139 247.578 168.348 254.314 173.08C255.339 172.051 256.541 170.533 257.736 168.57M262.424 135.056C262.827 136.891 263.123 138.677 263.324 140.409M263.324 140.409C267.648 144.526 276.866 156.401 278.153 163.657C279.071 161.152 279.902 152.723 275.887 139.046C271.498 124.094 262.141 107.872 257.782 102.481M263.324 140.409C264.781 152.952 261.292 162.729 257.736 168.57M233.872 96.1656C240.729 94.2324 245.241 94.3807 248.403 95.3669M207.731 88.4196C212.628 87.1109 227.618 86.6681 248.403 95.3669M248.403 95.3669C252.652 96.6927 254.461 99.5328 256.244 100.866C256.634 101.157 257.157 101.708 257.782 102.481M257.782 102.481C263.109 102.423 270.816 104.803 279.11 110.322M280.555 189.718C289.018 183.176 293.247 157.795 294.416 149.313C294.523 139.874 293.67 124.251 285.523 115.523C284.164 114.067 280.77 111.427 279.11 110.322M280.555 189.718C275.613 169.399 252.275 185.559 254.314 185.258C254.314 185.258 257.801 170.781 257.736 168.57M280.555 189.718C282.026 202.321 270.581 211.362 264.441 211.421C260.942 218.101 257.247 228.997 257.12 248.603C256.993 268.208 262.81 279.9 270.059 283.948C267.35 283.146 265.391 270.697 264.75 264.573C266.901 269.449 281.299 288.186 281.299 288.186C281.299 288.186 287.251 295.642 293.357 301.167C288.497 290.589 285.721 276.366 289.326 265.999C292.274 257.52 298.095 237.388 303.658 219.038C311.454 193.323 323.513 183.688 319.811 150.249C316.11 116.81 291.19 110.986 279.11 110.322" stroke="#43090A" stroke-width="1.5"/>
<g filter="url(#filter9_f_2441_378)">
<path d="M271.061 269.425C265.591 253.872 280.71 236.224 281.306 235.596C277.233 247.745 273.243 274.065 279.738 282.242C275.769 277.752 272.287 272.315 271.061 269.425Z" fill="#FE3A8E"/>
</g>
<g filter="url(#filter10_f_2441_378)">
<path d="M267.426 248.356C268.741 230.123 277.421 209.641 277.421 209.641C277.421 209.641 272.862 213.356 271.283 214.518C269.804 215.606 266.153 216.62 266.153 216.62C264.899 222.322 263.139 223.022 261.219 238.902C260.604 243.997 260.622 255.747 261.219 259.752C263.237 273.29 266.637 280.354 271.057 284.388C267.426 278.587 266.335 263.477 267.426 248.356Z" fill="#FE3A8E"/>
</g>
<path d="M245.455 474.532L255.087 480.577C254.464 484.139 251.087 491.759 242.557 493.737C241.416 495.662 238.017 499.361 233.551 498.755C232.235 501.277 225.803 506.259 210.603 506.006C209.327 506.947 205.048 508.67 198.137 508.036C193.678 511.473 182.728 516.271 174.593 507.968C172.932 510.161 168.148 513.05 160.96 509.843C157.411 510.066 149 509.531 143.742 505.608C139.265 507.852 128.524 510.318 121.377 502.232C121.495 502.01 121.634 501.688 121.78 501.273C119.027 501.481 111.866 500.576 105.248 495.291C99.2466 494.867 85.5832 492.51 78.9433 486.474C79.3828 485.996 79.9723 485.276 80.6419 484.35C75.4356 478.823 71.1428 477.199 69.6472 477.078C59.8877 477.646 55.9786 469.196 55.244 464.899C50.4391 461.71 44.2666 455.364 45.6855 447.101C48.939 446.203 56.9393 441.478 59.5621 443.03C65.9011 452.848 76.32 464.961 87.3749 471.718C94.7542 476.228 102.303 480.631 111.042 483.945C122.362 488.236 134.573 491.453 147.028 493.413C151.406 494.102 155.813 494.635 160.223 495.005C164.878 495.396 169.534 495.604 174.16 495.622C181.374 495.649 188.357 495.662 195.296 494.724C198.757 494.256 202.666 493.746 206.012 493.025C213.449 491.422 220.864 490.008 227.487 487.083C230.079 485.938 232.855 484.09 235.286 482.733C239.215 480.539 242.017 477.301 245.455 474.532Z" fill="url(#paint20_linear_2441_378)"/>
<path d="M242.557 493.737C251.087 491.759 254.464 484.139 255.087 480.577L245.455 474.532C242.017 477.301 239.215 480.539 235.286 482.733M242.557 493.737C241.416 495.662 238.017 499.361 233.551 498.755M242.557 493.737C243.047 491.806 243 487.512 235.286 482.733M233.551 498.755C232.235 501.277 225.803 506.259 210.603 506.006M233.551 498.755C233.579 497.067 232.919 493.457 227.487 487.083M210.603 506.006C209.327 506.947 205.048 508.67 198.137 508.036M210.603 506.006C210.395 503.442 209.458 497.683 206.012 493.025M198.137 508.036C193.678 511.473 182.728 516.271 174.593 507.968M198.137 508.036C198.707 505.764 198.811 500.283 195.296 494.724M174.593 507.968C172.932 510.161 168.148 513.05 160.96 509.843M174.593 507.968C174.979 506.16 175.434 501.159 174.16 495.622M160.96 509.843C159.724 509.292 158.418 508.561 157.044 507.616C158.26 505.195 160.598 499.283 160.223 495.005M160.96 509.843C157.411 510.066 149 509.531 143.742 505.608M143.742 505.608C139.265 507.852 128.524 510.318 121.377 502.232C121.495 502.01 121.634 501.688 121.78 501.273M143.742 505.608C145.042 503.381 147.519 497.824 147.028 493.413M122.946 491.84C123.086 496.338 122.374 499.583 121.78 501.273M121.78 501.273C119.027 501.481 111.866 500.576 105.248 495.291M105.248 495.291C99.2466 494.867 85.5832 492.51 78.9433 486.474C79.3828 485.996 79.9723 485.276 80.6419 484.35M105.248 495.291L111.042 483.945M87.3749 471.718C76.32 464.961 65.9011 452.848 59.5621 443.03C56.9393 441.478 48.939 446.203 45.6855 447.101C44.2666 455.364 50.4391 461.71 55.244 464.899M87.3749 471.718C85.7838 476.918 82.5557 481.702 80.6419 484.35M87.3749 471.718C94.7542 476.228 102.303 480.631 111.042 483.945M65.9136 458.998C63.6966 460.165 58.9592 463.271 57.7457 466.353C56.9994 465.985 56.1458 465.498 55.244 464.899M55.244 464.899C55.9786 469.196 59.8877 477.646 69.6472 477.078M74.4492 467.798C73.5393 470.259 71.305 475.56 69.6472 477.078M69.6472 477.078C71.1428 477.199 75.4356 478.823 80.6419 484.35M111.042 483.945C122.362 488.236 134.573 491.453 147.028 493.413M147.028 493.413C151.406 494.102 155.813 494.635 160.223 495.005M160.223 495.005C164.878 495.396 169.534 495.604 174.16 495.622M174.16 495.622C181.374 495.649 188.357 495.662 195.296 494.724M195.296 494.724C198.757 494.256 202.666 493.746 206.012 493.025M206.012 493.025C213.449 491.422 220.864 490.008 227.487 487.083M227.487 487.083C230.079 485.938 232.855 484.09 235.286 482.733" stroke="#43090A" stroke-width="1.5" stroke-linecap="round"/>
<g filter="url(#filter11_f_2441_378)">
<path d="M215.415 489.956C216.17 488.009 204.191 379.256 194.18 349.719L209.819 349.719C215.689 363.785 237.646 438.289 243.787 473.654C236.628 485.474 216.515 489.731 215.415 489.956C215.403 489.988 215.387 489.992 215.368 489.966C215.368 489.966 215.384 489.963 215.415 489.956Z" fill="#172471"/>
</g>
<g filter="url(#filter12_f_2441_378)">
<path d="M196.837 332.906C181.977 338.485 155.122 322.662 146.469 316.375C145.262 315.499 143.584 313.134 143.584 313.134C143.584 313.134 142.162 294.318 144.35 289.1C141.32 293.404 137.515 308.476 139.123 318.668C152.403 329.055 191.089 339.35 212.485 339.094C215.206 333.134 223.622 317.47 223.784 317.755L226.297 312.555C226.343 312.212 222.886 307.286 222.177 306.585C221.582 321.801 209.277 328.236 196.837 332.906Z" fill="#D5D8EA"/>
</g>
<g filter="url(#filter13_f_2441_378)">
<path d="M150.776 330.437C138.429 350.021 101.825 405.238 100.594 434.075C99.195 410.377 136.875 341.928 150.776 330.437Z" fill="#181D53"/>
</g>
<g filter="url(#filter14_f_2441_378)">
<path d="M164.465 340.515C158.706 362.939 143.88 407.062 145.245 435.313C139.948 416.816 154.749 355.71 164.465 340.515Z" fill="#181D53"/>
</g>
<g filter="url(#filter15_f_2441_378)">
<path d="M181.717 340.554C180.768 363.686 182.247 410.21 172.797 436.869C183.201 420.683 186.641 357.905 181.717 340.554Z" fill="#181D53"/>
</g>
<g filter="url(#filter16_f_2441_378)">
<path d="M193.869 343.96C198.144 365.401 214.876 417.447 211.092 443.344C209.571 412.739 193.869 359.179 193.869 343.96Z" fill="#181D53"/>
</g>
<path d="M162.248 283.056C162.305 283.177 162.497 282.774 162.583 282.864C162.67 282.955 162.619 283.184 162.753 283.168C162.887 283.153 162.961 283.341 163.042 283.265C163.122 283.188 163.045 283.468 163.139 283.429C163.232 283.389 163.267 283.439 163.307 283.549C163.346 283.659 163.526 283.795 163.632 283.706C163.738 283.616 163.765 283.834 163.803 283.895C163.814 283.913 163.821 283.937 163.824 283.96C163.826 283.969 163.822 283.988 163.817 284.006C163.817 284.006 163.817 284.006 163.817 284.006C163.811 284.028 163.801 284.049 163.795 284.05C163.766 284.056 163.718 284.081 163.65 284.149C163.524 284.274 163.563 284.106 163.429 284.15C163.295 284.194 163.183 284.328 163.081 284.19C162.979 284.052 162.827 284.46 162.711 284.17C162.595 283.879 162.448 284.309 162.246 284.313C162.045 284.316 161.882 284.008 161.765 283.995C161.648 283.982 161.484 283.989 161.343 283.885C161.202 283.781 160.965 283.869 160.821 283.715C160.677 283.562 160.469 283.36 160.381 283.24C160.293 283.12 160.271 283.092 160.146 283.113C160.074 283.125 159.996 283.071 159.955 282.937C159.935 282.87 159.967 282.794 160.015 282.767C160.085 282.728 160.119 282.778 160.176 282.688C160.289 282.508 160.335 282.44 160.372 282.575C160.409 282.71 160.518 282.46 160.55 282.502C160.583 282.544 160.537 282.697 160.781 282.64C161.024 282.584 161.147 282.587 161.235 282.582C161.322 282.577 161.448 282.758 161.591 282.748C161.734 282.738 161.983 282.859 162.112 282.812C162.241 282.764 162.191 282.936 162.248 283.056ZM166.116 284.193C166.173 284.314 166.364 283.91 166.451 284.001C166.537 284.091 166.487 284.32 166.621 284.305C166.755 284.289 166.829 284.478 166.909 284.401C166.989 284.324 166.913 284.605 167.006 284.565C167.1 284.525 167.135 284.575 167.174 284.685C167.214 284.795 167.393 284.932 167.5 284.842C167.606 284.753 167.633 284.97 167.67 285.031C167.682 285.05 167.688 285.073 167.692 285.096C167.693 285.106 167.69 285.124 167.685 285.142C167.685 285.142 167.685 285.142 167.685 285.142C167.678 285.164 167.669 285.185 167.663 285.187C167.634 285.193 167.586 285.218 167.518 285.285C167.391 285.41 167.431 285.242 167.297 285.287C167.163 285.331 167.051 285.465 166.949 285.327C166.847 285.189 166.694 285.596 166.578 285.306C166.463 285.016 166.315 285.445 166.114 285.449C165.912 285.453 165.75 285.144 165.633 285.131C165.516 285.118 165.351 285.125 165.211 285.022C165.07 284.918 164.832 285.006 164.689 284.852C164.545 284.698 164.337 284.496 164.248 284.376C164.16 284.256 164.138 284.228 164.013 284.249C163.941 284.261 163.863 284.207 163.823 284.074C163.803 284.006 163.834 283.93 163.882 283.904C163.953 283.865 163.986 283.914 164.043 283.824C164.157 283.645 164.202 283.576 164.239 283.711C164.276 283.846 164.386 283.596 164.418 283.638C164.45 283.68 164.405 283.833 164.648 283.777C164.892 283.72 165.015 283.724 165.102 283.719C165.19 283.713 165.316 283.895 165.459 283.885C165.602 283.875 165.851 283.996 165.98 283.948C166.108 283.901 166.058 284.072 166.116 284.193ZM156.103 306.849C155.843 307.77 156.164 308.574 155.969 309.701C155.783 310.835 155.529 310.99 155.505 312.308C155.485 313.629 155.35 314.945 155.474 315.529C155.599 316.111 155.307 316.183 155.446 317.015C155.591 317.837 155.623 318.341 155.655 319.073C155.66 319.815 156.154 322.024 156.586 322.738C156.977 323.457 157.191 324.373 157.423 324.893C157.494 325.054 157.545 325.184 157.579 325.286C157.594 325.329 157.588 325.357 157.572 325.366C157.572 325.366 157.572 325.366 157.572 325.366C157.552 325.378 157.516 325.361 157.485 325.312C157.332 325.075 157.096 324.725 156.802 324.308C156.268 323.524 156.372 323.363 155.881 322.197C155.418 321.023 155.069 320.302 154.921 318.811C154.81 317.322 154.319 317.017 154.492 314.892C154.722 312.789 154.284 312.564 154.397 310.454C154.523 308.346 155.243 305.781 155.494 304.551C155.735 303.316 156.083 301.657 156.637 299.961C157.185 298.266 157.73 296.127 158.518 294.321C159.294 292.51 160.495 290.015 161.113 288.892C161.732 287.757 161.88 287.494 162.376 286.364C162.66 285.721 163.133 284.869 163.634 284.198C163.88 283.873 163.908 283.991 163.746 284.368C163.503 284.934 163.245 285.347 163.19 285.678C163.085 286.33 163.038 286.596 162.587 287.249C162.137 287.904 162.226 288.357 162.006 288.758C161.789 289.169 161.626 289.081 160.822 291.275C160.033 293.478 159.638 294.676 159.362 295.519C159.09 296.352 158.363 298.051 158 299.442C157.619 300.824 156.849 303.636 156.701 304.802C156.541 305.965 156.369 305.932 156.103 306.849ZM192.435 317.385C191.946 318.186 192.017 319.045 191.428 320.036C190.835 321.02 190.55 321.06 189.939 322.218C189.323 323.379 188.468 324.387 188.215 324.925C187.961 325.461 187.693 325.345 187.255 326.053C186.816 326.752 186.467 327.134 185.937 327.627C185.411 328.144 183.849 329.703 183.315 330.32C182.797 330.96 181.949 331.392 181.478 331.682C181.332 331.774 181.211 331.837 181.115 331.88C181.075 331.898 181.048 331.894 181.037 331.879C181.037 331.879 181.037 331.879 181.037 331.879C181.023 331.86 181.035 331.824 181.079 331.789C181.29 331.619 181.594 331.346 181.916 330.977C182.495 330.293 182.693 330.361 183.506 329.472C184.304 328.567 184.67 327.935 185.646 326.91C186.611 325.861 186.464 325.361 187.781 323.847C189.071 322.302 188.792 321.876 189.702 320.118C190.605 318.355 191.89 316.183 192.346 315.066C192.808 313.955 193.371 312.442 194.018 310.863C194.668 309.284 195.197 307.237 195.842 305.463C196.497 303.689 197.303 301.143 197.67 299.958C198.041 298.773 198.127 298.48 198.314 297.308C198.421 296.627 198.623 295.728 198.872 294.947C198.994 294.572 199.061 294.668 199.034 295.068C198.99 295.672 198.866 296.125 198.907 296.455C198.993 297.084 199.015 297.377 198.742 298.092C198.462 298.832 198.648 299.228 198.515 299.669C198.377 300.101 198.244 300.063 197.793 302.303C197.329 304.539 196.981 305.758 196.756 306.589C196.527 307.436 195.837 309.104 195.403 310.452C194.984 311.805 193.879 314.46 193.479 315.552C193.087 316.648 192.92 316.578 192.435 317.385ZM216.505 325.145C216.036 325.85 216.112 326.645 215.533 327.515C214.95 328.371 214.673 328.379 214.065 329.391C213.452 330.4 212.604 331.244 212.353 331.712C212.101 332.18 211.84 332.046 211.411 332.651C210.977 333.256 210.642 333.567 210.129 333.974C209.621 334.393 208.14 335.706 207.659 336.258C207.19 336.822 206.417 337.186 205.997 337.449C205.865 337.531 205.756 337.589 205.668 337.629C205.631 337.645 205.605 337.641 205.594 337.626C205.594 337.626 205.594 337.626 205.594 337.626C205.58 337.608 205.589 337.573 205.628 337.54C205.816 337.38 206.085 337.126 206.366 336.793C206.887 336.166 207.068 336.246 207.824 335.466C208.569 334.677 208.917 334.119 209.861 333.266C210.793 332.397 210.665 331.908 211.954 330.661C213.222 329.377 212.963 328.95 213.852 327.43C214.736 325.904 215.953 324.02 216.363 323.022C216.783 322.033 217.271 320.683 217.801 319.261C218.336 317.841 218.676 315.985 219.089 314.365C219.526 312.748 219.896 310.39 219.974 309.291C219.985 309.173 219.993 309.067 220.001 308.97L220.066 309.12C219.501 308.486 219.278 308.258 218.555 307.634C218.09 307.233 217.499 306.626 217.064 306.047C216.844 305.756 216.96 305.753 217.249 305.975C217.671 306.3 217.958 306.628 218.226 306.743C218.761 306.972 218.983 307.076 219.397 307.638C219.812 308.199 220.233 308.228 220.502 308.528C220.524 308.553 220.544 308.577 220.563 308.601L220.708 308.729L220.719 308.963C220.664 309.278 220.595 309.455 220.553 311.342C220.472 313.413 220.251 314.545 220.127 315.314C219.999 316.091 219.476 317.648 219.141 318.879C218.832 320.122 217.862 322.535 217.492 323.518C217.136 324.505 216.968 324.434 216.505 325.145ZM190.858 290.318C191.08 290.476 191.381 290.097 191.665 290.232C191.95 290.368 191.938 290.606 192.294 290.641C192.65 290.676 192.955 290.917 193.131 290.862C193.308 290.807 193.253 291.093 193.486 291.084C193.719 291.076 193.841 291.146 194.008 291.285C194.175 291.424 194.739 291.648 194.979 291.589C195.219 291.529 195.412 291.785 195.546 291.868C195.588 291.893 195.618 291.922 195.641 291.949C195.65 291.961 195.651 291.981 195.646 291.999C195.646 291.999 195.646 291.999 195.646 291.999C195.641 292.021 195.627 292.041 195.611 292.04C195.536 292.036 195.419 292.045 195.271 292.094C194.995 292.186 195.011 292.012 194.67 292.01C194.329 292.007 194.098 292.115 193.745 291.919C193.392 291.724 193.2 292.124 192.726 291.752C192.252 291.38 192.086 291.806 191.54 291.731C190.993 291.657 190.383 291.246 190.058 291.186C189.732 291.126 189.289 291.07 188.849 290.898C188.409 290.726 187.812 290.733 187.336 290.504C186.861 290.274 186.184 289.966 185.879 289.796C185.573 289.627 185.498 289.587 185.17 289.562C184.981 289.547 184.738 289.456 184.556 289.29C184.464 289.206 184.508 289.133 184.624 289.121C184.794 289.105 184.913 289.174 185.018 289.095C185.229 288.937 185.316 288.878 185.49 289.044C185.665 289.21 185.826 288.972 185.937 289.032C186.047 289.092 186.007 289.246 186.638 289.277C187.27 289.308 187.607 289.361 187.843 289.389C188.078 289.417 188.52 289.671 188.903 289.715C189.287 289.76 190.031 289.993 190.355 289.99C190.679 289.986 190.637 290.16 190.858 290.318Z" fill="#43090A"/>
<path d="M185.341 248.452C183.41 252.617 181.187 263.269 186.472 266.596M186.737 266.755C186.647 266.703 186.558 266.651 186.472 266.596M186.472 266.596C192.683 267.402 208.046 266.85 219.806 258.195" stroke="#43090A" stroke-width="1.5"/>
<path d="M186.972 267.556C175.997 265.743 167.168 279.799 175.017 285.354C182.866 290.908 192.537 277.276 186.972 267.556Z" fill="url(#paint21_linear_2441_378)" stroke="#43090A" stroke-width="1.5"/>
<g filter="url(#filter17_f_2441_378)">
<path d="M186.743 267.945C184.123 267.283 182.812 269.73 184.162 270.862C185.513 271.995 187.681 270.556 186.743 267.945Z" fill="white"/>
</g>
<g filter="url(#filter18_f_2441_378)">
<path d="M189.233 247.646C207.784 248.211 215.667 249.526 221.613 247.309L225.052 239.574L230.433 229.064C212.1 235.873 196.649 234.917 196.549 235.118C196.85 235.312 196.286 242.95 189.233 247.646Z" fill="#F2BAC4"/>
<path d="M189.233 247.646C207.784 248.211 215.667 249.526 221.613 247.309L225.052 239.574L230.433 229.064C212.1 235.873 196.649 234.917 196.549 235.118C196.85 235.312 196.286 242.95 189.233 247.646Z" stroke="#FDD8DE" stroke-width="1.5"/>
</g>
<g filter="url(#filter19_f_2441_378)">
<path d="M267.249 195.805C267.975 192.459 274.229 194.855 275.706 195.503C276.134 181.045 264.314 189.572 258.35 195.642C262.04 198.472 258.88 203.709 256.917 206.008C263.388 205.451 266.202 200.629 267.249 195.805Z" fill="#F7BDCE"/>
</g>
<path d="M276.434 195.301C276.667 189.362 273.362 181.023 258.273 195.185C259.75 197.498 261.147 202.936 254.917 206.189M266.883 196.231C267.838 197.983 267.315 202.511 257.578 206.6" stroke="#43090A" stroke-width="1.5" stroke-linecap="round"/>
<g filter="url(#filter20_f_2441_378)">
<ellipse cx="8.9108" cy="3.86772" rx="8.9108" ry="3.86772" transform="matrix(0.749319 0.66221 -0.662212 0.749317 165.844 170.804)" fill="#FED1D0"/>
</g>
<g filter="url(#filter21_f_2441_378)">
<ellipse cx="9.41525" cy="3.86772" rx="9.41525" ry="3.86772" transform="matrix(0.982488 -0.186324 0.186325 0.982488 234.376 198.864)" fill="#FED1D0"/>
</g>
<g filter="url(#filter22_f_2441_378)">
<ellipse cx="1.51346" cy="2.69059" rx="1.51346" ry="2.69059" transform="matrix(0.968608 0.248594 -0.248595 0.968608 291.542 200.981)" fill="white"/>
</g>
<g filter="url(#filter23_f_2441_378)">
<ellipse cx="300.614" cy="204.872" rx="1.51346" ry="1.00897" transform="rotate(-5.94027 300.614 204.872)" fill="white"/>
</g>
<g filter="url(#filter24_f_2441_378)">
<ellipse cx="285.977" cy="133.508" rx="1.42938" ry="0.729605" transform="rotate(-0.483956 285.977 133.508)" fill="white"/>
</g>
<g filter="url(#filter25_f_2441_378)">
<ellipse cx="1.51346" cy="4.96077" rx="1.51346" ry="4.96077" transform="matrix(0.968608 0.248594 -0.248595 0.968608 306.63 202.064)" fill="white"/>
</g>
<g filter="url(#filter26_f_2441_378)">
<ellipse cx="1.24756" cy="1.82858" rx="1.24756" ry="1.82858" transform="matrix(0.703465 0.71073 -0.710732 0.703463 174.903 110.151)" fill="white"/>
</g>
<g filter="url(#filter27_f_2441_378)">
<ellipse cx="289.18" cy="133.31" rx="1.42938" ry="3.11099" transform="rotate(-0.483956 289.18 133.31)" fill="white"/>
</g>
<g filter="url(#filter28_f_2441_378)">
<ellipse cx="1.51467" cy="0.900887" rx="1.51467" ry="0.900887" transform="matrix(-0.458939 0.888468 -0.888469 -0.458937 145.56 156.068)" fill="white"/>
</g>
<g filter="url(#filter29_f_2441_378)">
<ellipse cx="1.24756" cy="3.39967" rx="1.24756" ry="3.39967" transform="matrix(0.703465 0.71073 -0.710732 0.703463 173.31 106.617)" fill="white"/>
</g>
<g filter="url(#filter30_f_2441_378)">
<ellipse cx="1.51467" cy="4.01698" rx="1.51467" ry="4.01698" transform="matrix(0.810187 0.586172 -0.586174 0.810185 137.956 153.787)" fill="white"/>
</g>
<g filter="url(#filter31_f_2441_378)">
<path d="M126.936 305.382C132.564 302.208 141.219 288.229 145.52 281.025L147.118 283.043C144.925 283.858 139.827 293.309 138.77 299.882C137.747 306.243 136.097 310.923 137.028 316.675C136.567 316.603 131.311 319.198 128.452 320.291L123.155 322.14C122.01 322.441 119.485 322.502 115.42 322.14C111.354 321.779 110.859 319.604 110.459 317.096C110.058 314.588 109.013 311.687 109.45 311.715C111.847 310.962 121.308 308.556 126.936 305.382Z" fill="#171B66"/>
</g>
<g filter="url(#filter32_f_2441_378)">
<path d="M116.408 286.248C105.115 287.723 104.627 292.57 105.794 294.809C104.57 293.46 104.511 292.176 104.634 291.703C104.499 283.968 112.427 284.843 116.408 286.248Z" fill="#051463"/>
<path d="M116.408 286.248C105.115 287.723 104.627 292.57 105.794 294.809C104.57 293.46 104.511 292.176 104.634 291.703C104.499 283.968 112.427 284.843 116.408 286.248Z" stroke="#051463" stroke-width="1.5"/>
</g>
<g filter="url(#filter33_f_2441_378)">
<path d="M107.389 309.665C107.8 311.513 110.394 313.518 117.484 306.749" stroke="#050E3C" stroke-width="1.5"/>
</g>
<path d="M176.622 140.779C181.133 138.893 192.026 142.267 197.306 147.506M225.711 157.426C226.145 157.565 237.834 150.68 248.42 163.825" stroke="#43090A" stroke-width="1.5" stroke-linecap="round"/>
<path d="M213.098 339.798C187.285 339.966 144.32 324.411 138.266 319.114L132.128 326.177C142.75 336.35 173.227 355.117 210.155 348.794L213.098 339.798Z" fill="url(#paint22_linear_2441_378)" stroke="#43090A" stroke-width="1.5"/>
<path d="M256.986 308.557C255.944 306.268 242.985 318.904 227.141 311.883C226.463 320.627 224.564 339.341 223.679 343.287C222.793 347.234 221.872 354.182 221.522 357.162C223.497 360.334 228.369 367.314 232.057 369.861L233.32 367.76C236.076 369.55 242.104 372.121 244.161 368.084C247.531 369.941 254.683 372.323 256.328 366.996C258.562 366.307 261.827 364.895 264.634 362.842C267.817 360.514 269.681 357.323 270.252 353.504C271.961 342.088 258.586 312.07 256.986 308.557Z" fill="url(#paint23_linear_2441_378)"/>
<path d="M244.161 368.084C242.104 372.121 236.076 369.55 233.32 367.76C232.511 370.953 230.397 377.585 228.406 378.569C228.812 381.071 232.387 385.586 243.447 383.629C246.319 386.316 253.928 389.445 261.383 380.461C265.284 380.358 273.543 378.317 275.365 370.976C272.362 369.687 266.012 366.255 264.634 362.842C261.827 364.895 258.562 366.307 256.328 366.996C254.683 372.323 247.531 369.941 244.161 368.084Z" fill="#E8EDF6"/>
<path d="M233.32 367.76L232.057 369.861C228.369 367.314 223.497 360.334 221.522 357.162C221.872 354.182 222.793 347.234 223.679 343.287C224.564 339.341 226.463 320.627 227.141 311.883C242.985 318.904 255.944 306.268 256.986 308.557C258.586 312.07 271.961 342.088 270.252 353.504C269.681 357.323 267.817 360.514 264.634 362.842M233.32 367.76C236.076 369.55 242.104 372.121 244.161 368.084C247.531 369.941 254.683 372.323 256.328 366.996C258.562 366.307 261.827 364.895 264.634 362.842M233.32 367.76C232.511 370.953 230.397 377.585 228.406 378.569C228.812 381.071 232.387 385.586 243.447 383.629M243.447 383.629C244.014 380.888 245.09 374.695 244.852 371.85M243.447 383.629C246.319 386.316 253.928 389.445 261.383 380.461M261.383 380.461C260.911 378.203 259.323 373.129 256.744 370.89M261.383 380.461C265.284 380.358 273.543 378.317 275.365 370.976C272.362 369.687 266.012 366.255 264.634 362.842" stroke="#43090A" stroke-width="1.5"/>
<g filter="url(#filter34_f_2441_378)">
<path d="M232.762 352.704C226.99 352.614 240.093 366.308 245.907 368.318C250.922 370.543 254.458 370.242 255.319 366.887C257.244 362.535 259.695 355.818 256.956 354.167C254.217 352.516 247.483 359.275 244.458 362.861C240.893 356.452 238.535 352.794 232.762 352.704Z" fill="#171F6A"/>
</g>
<g filter="url(#filter35_f_2441_378)">
<path d="M252.225 355.588C254.272 353.366 258.509 354.029 257.982 357.418C257.455 360.808 255.453 365.475 255.524 366.664" stroke="#1C174C" stroke-opacity="0.47" stroke-width="1.5" stroke-linecap="round"/>
</g>
<path d="M185.886 155.842C185.748 156.322 185.611 156.803 185.474 157.284C185.615 157.311 185.768 157.356 185.92 157.411C188.706 158.643 191.192 161.649 191.627 165.025C191.646 165.214 191.657 165.404 191.659 165.595C191.682 165.406 191.696 165.214 191.702 165.022C191.666 161.532 189.741 158.121 186.509 156.114C186.314 156.012 186.105 155.918 185.886 155.842Z" fill="#43090A"/>
<path d="M227.063 168.426C227.035 168.925 227.006 169.424 226.978 169.924C226.822 169.902 226.657 169.887 226.49 169.877C223.445 169.8 220.11 170.614 217.501 172.536C217.359 172.646 217.218 172.762 217.084 172.882C217.2 172.745 217.324 172.61 217.451 172.48C219.826 170.183 223.034 168.847 226.467 168.452C226.664 168.436 226.864 168.427 227.063 168.426Z" fill="#43090A"/>
<path d="M192.672 186.779C191.136 187.321 190.469 187.877 189.477 189.133" stroke="#43090A" stroke-width="1.5"/>
<path d="M186.053 200.473C185.878 200.489 182.926 200.128 182.756 200.148C178.062 200.703 184.293 209.458 186.846 213.173C187.251 211.177 190.866 209.512 195.361 209.06C200.466 208.548 207.038 208.437 210.598 211.086C211.307 210.223 212.791 208.929 212.436 208.219C212.184 207.715 210.798 207.123 209.722 206.462C207.647 207.007 204.527 207.852 202.288 207.978C199.491 208.135 191.963 206.39 189.108 205.511C186.824 204.808 186.245 201.549 186.053 200.473Z" fill="#661D1F"/>
<path d="M186.053 200.473C186.245 201.549 186.824 204.808 189.108 205.511C191.963 206.39 199.491 208.135 202.288 207.978C204.527 207.852 207.647 207.007 209.722 206.462C205.552 203.903 193.602 201.325 186.053 200.473Z" fill="white"/>
<path d="M188.554 215.203C191.421 218.399 199.587 218.766 203.307 216.993C205.947 215.734 208.863 213.194 210.598 211.086C207.038 208.437 200.466 208.548 195.361 209.06C190.866 209.512 187.251 211.177 186.846 213.173C187.275 213.798 188.223 214.834 188.554 215.203Z" fill="#E77B7B"/>
<path d="M186.053 200.473C185.878 200.489 182.926 200.128 182.756 200.148C178.062 200.703 184.293 209.458 186.846 213.173M186.053 200.473C186.245 201.549 186.824 204.808 189.108 205.511C191.963 206.39 199.491 208.135 202.288 207.978C204.527 207.852 207.647 207.007 209.722 206.462M186.053 200.473C193.602 201.325 205.552 203.903 209.722 206.462M209.722 206.462C210.798 207.123 212.184 207.715 212.436 208.219C212.791 208.929 211.307 210.223 210.598 211.086M186.846 213.173C187.275 213.798 188.223 214.834 188.554 215.203C191.421 218.399 199.587 218.766 203.307 216.993C205.947 215.734 208.863 213.194 210.598 211.086M186.846 213.173C187.251 211.177 190.866 209.512 195.361 209.06C200.466 208.548 207.038 208.437 210.598 211.086" stroke="#43090A" stroke-width="1.5"/>
<path d="M183.966 160.456C175.942 161.267 175.188 169.064 176.112 172.233C180.148 173.007 186.339 175.878 188.557 177.631C189.186 177.492 190.182 174.765 189.76 169.499C189.339 164.236 186.115 161.215 183.966 160.456Z" fill="#A2E3F8"/>
<path d="M235.372 174.196C227.691 172.958 224.079 181.943 224.851 186.106C229.98 186.695 237.26 189.62 239.901 191.403C239.901 191.403 244.345 185.774 244.49 183.612C245.021 181.428 243.053 175.433 235.372 174.196Z" fill="#A2E3F8"/>
<path d="M183.966 160.456C175.942 161.267 175.188 169.064 176.112 172.233C180.148 173.007 186.339 175.878 188.557 177.631C189.186 177.492 190.182 174.765 189.76 169.499C189.339 164.236 186.115 161.215 183.966 160.456Z" stroke="#43090A" stroke-width="1.5"/>
<path d="M235.372 174.196C227.691 172.958 224.079 181.943 224.851 186.106C229.98 186.695 237.26 189.62 239.901 191.403C239.901 191.403 244.345 185.774 244.49 183.612C245.021 181.428 243.053 175.433 235.372 174.196Z" stroke="#43090A" stroke-width="1.5"/>
<g filter="url(#filter36_f_2441_378)">
<path d="M208.228 205.025C207.559 204.688 201.795 202.711 197.553 201.745C192.874 200.68 189.229 200.316 185.446 199.896C186.29 199.656 194.182 198.25 198.117 198.838C201.755 200.016 207.895 204.352 208.228 205.025Z" fill="#FFABCA"/>
</g>
<g filter="url(#filter37_f_2441_378)">
<path d="M190.573 217.216C191.582 217.637 193.1 218.149 194.697 218.31C196.373 218.478 198.223 218.562 199.905 218.478C199.399 218.73 196.233 219.808 194.523 219.571C192.761 219.325 190.941 217.84 190.573 217.216Z" fill="#FFABCA"/>
</g>
<g filter="url(#filter38_f_2441_378)">
<path d="M186.957 170.146C186.142 172.792 183.797 174.418 181.72 173.778C179.642 173.138 178.619 170.475 179.433 167.829C180.248 165.184 182.592 163.558 184.67 164.197C186.747 164.837 187.771 167.5 186.957 170.146Z" fill="#3B93C1"/>
<path d="M182.166 165.506C179.408 164.766 177.486 167.272 176.701 168.701C176.28 166.852 177.794 163.32 180.148 161.723C182.503 160.125 185.95 161.302 187.463 162.648C188.674 163.724 189.201 169.486 189.313 172.233C188.08 170.299 184.924 166.246 182.166 165.506Z" fill="#3B93C1"/>
<path d="M242.621 185.854C238.787 177.513 229.869 178.623 225.889 180.22C226.225 178.539 228.159 176.941 228.832 176.185C229.981 175.54 232.598 173.914 235.894 173.914C240.014 173.914 242.647 178.337 243.546 180.641C244.294 182.557 243.734 185.025 242.621 185.854Z" fill="#3B93C1"/>
<ellipse cx="5.3067" cy="5.05221" rx="5.3067" ry="5.05221" transform="matrix(0.955719 0.29428 -0.294282 0.955719 231.246 176.353)" fill="#3B93C1"/>
<ellipse cx="186.454" cy="167.272" rx="1.17714" ry="2.52243" fill="white"/>
<ellipse cx="239.592" cy="182.407" rx="1.17714" ry="2.52243" fill="white"/>
</g>
<path d="M185.198 161.947C181.005 159.051 178.704 158.395 173.136 159.374C169.098 160.085 168.632 164.62 168.536 167.723C167.611 166.102 166.559 161.512 166.149 159.42L165.603 155.061L168.627 157.938C170.266 157.286 174.956 155.624 180.348 156.461C186.885 157.474 189.363 162.545 190.612 167.279C191.564 170.888 190.274 176.646 188.971 178.203C190.284 173.404 188.549 164.263 185.198 161.947Z" fill="#43090A"/>
<path d="M168.567 167.969C168.56 167.889 168.541 167.808 168.536 167.723M188.971 178.203C190.284 173.404 188.549 164.263 185.198 161.947C181.005 159.051 178.704 158.395 173.136 159.374C169.098 160.085 168.632 164.62 168.536 167.723M188.971 178.203C190.274 176.646 191.564 170.888 190.612 167.279C189.363 162.545 186.885 157.474 180.348 156.461C174.956 155.624 170.266 157.286 168.627 157.938L165.603 155.061L166.149 159.42C166.559 161.512 167.611 166.102 168.536 167.723M188.971 178.203C186.079 176.173 178.333 171.458 170.235 172.211" stroke="#43090A" stroke-width="1.5"/>
<path d="M228.518 174.3C234.061 174.191 238.037 176.643 242.333 179.928C246.181 182.871 242.753 189.513 240.266 192.337C241.849 191.354 246.64 186.599 247.993 184.955L251.783 181.194L247.399 181.258C246.267 179.902 244.807 175.64 239.947 173.15C234.133 170.17 227.217 170.879 222.291 172.918C219.773 173.961 215.107 178.999 214.135 180.481C218.772 176.621 224.384 174.382 228.518 174.3Z" fill="#43090A"/>
<path d="M240.266 192.337C242.753 189.513 246.181 182.871 242.333 179.928C238.037 176.643 234.061 174.191 228.518 174.3C224.384 174.382 218.772 176.621 214.135 180.481C215.107 178.999 219.773 173.961 222.291 172.918C227.217 170.879 234.133 170.17 239.947 173.15C244.807 175.64 246.267 179.902 247.399 181.258L251.783 181.194L247.993 184.955C246.64 186.599 241.849 191.354 240.266 192.337ZM240.266 192.337C237.959 189.012 223.31 184.494 215.883 186.022" stroke="#43090A" stroke-width="1.5"/>
<defs>
<filter id="filter0_f_2441_378" x="42.8662" y="211.915" width="26.2959" height="23.5603" filterUnits="userSpaceOnUse" color-interpolation-filters="sRGB">
<feFlood flood-opacity="0" result="BackgroundImageFix"/>
<feBlend mode="normal" in="SourceGraphic" in2="BackgroundImageFix" result="shape"/>
<feGaussianBlur stdDeviation="2" result="effect1_foregroundBlur_2441_378"/>
</filter>
<filter id="filter1_f_2441_378" x="87.8576" y="159.66" width="83.3023" height="91.6922" filterUnits="userSpaceOnUse" color-interpolation-filters="sRGB">
<feFlood flood-opacity="0" result="BackgroundImageFix"/>
<feBlend mode="normal" in="SourceGraphic" in2="BackgroundImageFix" result="shape"/>
<feGaussianBlur stdDeviation="5.6" result="effect1_foregroundBlur_2441_378"/>
</filter>
<filter id="filter2_f_2441_378" x="73.5242" y="457.665" width="93.9838" height="86.9677" filterUnits="userSpaceOnUse" color-interpolation-filters="sRGB">
<feFlood flood-opacity="0" result="BackgroundImageFix"/>
<feBlend mode="normal" in="SourceGraphic" in2="BackgroundImageFix" result="shape"/>
<feGaussianBlur stdDeviation="11.4" result="effect1_foregroundBlur_2441_378"/>
</filter>
<filter id="filter3_f_2441_378" x="117.91" y="472.715" width="101.476" height="69.5631" filterUnits="userSpaceOnUse" color-interpolation-filters="sRGB">
<feFlood flood-opacity="0" result="BackgroundImageFix"/>
<feBlend mode="normal" in="SourceGraphic" in2="BackgroundImageFix" result="shape"/>
<feGaussianBlur stdDeviation="11.4" result="effect1_foregroundBlur_2441_378"/>
</filter>
<filter id="filter4_f_2441_378" x="89.632" y="532.76" width="59.8707" height="54.6578" filterUnits="userSpaceOnUse" color-interpolation-filters="sRGB">
<feFlood flood-opacity="0" result="BackgroundImageFix"/>
<feBlend mode="normal" in="SourceGraphic" in2="BackgroundImageFix" result="shape"/>
<feGaussianBlur stdDeviation="11.1" result="effect1_foregroundBlur_2441_378"/>
</filter>
<filter id="filter5_f_2441_378" x="119.128" y="531.543" width="56.0348" height="58.3736" filterUnits="userSpaceOnUse" color-interpolation-filters="sRGB">
<feFlood flood-opacity="0" result="BackgroundImageFix"/>
<feBlend mode="normal" in="SourceGraphic" in2="BackgroundImageFix" result="shape"/>
<feGaussianBlur stdDeviation="11.1" result="effect1_foregroundBlur_2441_378"/>
</filter>
<filter id="filter6_f_2441_378" x="126.321" y="547.842" width="39.6299" height="79.7366" filterUnits="userSpaceOnUse" color-interpolation-filters="sRGB">
<feFlood flood-opacity="0" result="BackgroundImageFix"/>
<feBlend mode="normal" in="SourceGraphic" in2="BackgroundImageFix" result="shape"/>
<feGaussianBlur stdDeviation="6.25" result="effect1_foregroundBlur_2441_378"/>
</filter>
<filter id="filter7_f_2441_378" x="98.3854" y="212.701" width="109.407" height="97.9629" filterUnits="userSpaceOnUse" color-interpolation-filters="sRGB">
<feFlood flood-opacity="0" result="BackgroundImageFix"/>
<feBlend mode="normal" in="SourceGraphic" in2="BackgroundImageFix" result="shape"/>
<feGaussianBlur stdDeviation="21.55" result="effect1_foregroundBlur_2441_378"/>
</filter>
<filter id="filter8_f_2441_378" x="187.474" y="229.513" width="105.821" height="108.858" filterUnits="userSpaceOnUse" color-interpolation-filters="sRGB">
<feFlood flood-opacity="0" result="BackgroundImageFix"/>
<feBlend mode="normal" in="SourceGraphic" in2="BackgroundImageFix" result="shape"/>
<feGaussianBlur stdDeviation="21.55" result="effect1_foregroundBlur_2441_378"/>
</filter>
<filter id="filter9_f_2441_378" x="254.37" y="220.096" width="42.4355" height="77.6465" filterUnits="userSpaceOnUse" color-interpolation-filters="sRGB">
<feFlood flood-opacity="0" result="BackgroundImageFix"/>
<feBlend mode="normal" in="SourceGraphic" in2="BackgroundImageFix" result="shape"/>
<feGaussianBlur stdDeviation="7.75" result="effect1_foregroundBlur_2441_378"/>
</filter>
<filter id="filter10_f_2441_378" x="240.365" y="189.241" width="57.4562" height="115.547" filterUnits="userSpaceOnUse" color-interpolation-filters="sRGB">
<feFlood flood-opacity="0" result="BackgroundImageFix"/>
<feBlend mode="normal" in="SourceGraphic" in2="BackgroundImageFix" result="shape"/>
<feGaussianBlur stdDeviation="10.2" result="effect1_foregroundBlur_2441_378"/>
</filter>
<filter id="filter11_f_2441_378" x="151.68" y="307.219" width="134.607" height="225.264" filterUnits="userSpaceOnUse" color-interpolation-filters="sRGB">
<feFlood flood-opacity="0" result="BackgroundImageFix"/>
<feBlend mode="normal" in="SourceGraphic" in2="BackgroundImageFix" result="shape"/>
<feGaussianBlur stdDeviation="21.25" result="effect1_foregroundBlur_2441_378"/>
</filter>
<filter id="filter12_f_2441_378" x="128.841" y="279.2" width="107.356" height="69.7988" filterUnits="userSpaceOnUse" color-interpolation-filters="sRGB">
<feFlood flood-opacity="0" result="BackgroundImageFix"/>
<feBlend mode="normal" in="SourceGraphic" in2="BackgroundImageFix" result="shape"/>
<feGaussianBlur stdDeviation="4.95" result="effect1_foregroundBlur_2441_378"/>
</filter>
<filter id="filter13_f_2441_378" x="87.6566" y="317.537" width="76.0187" height="129.439" filterUnits="userSpaceOnUse" color-interpolation-filters="sRGB">
<feFlood flood-opacity="0" result="BackgroundImageFix"/>
<feBlend mode="normal" in="SourceGraphic" in2="BackgroundImageFix" result="shape"/>
<feGaussianBlur stdDeviation="6.45" result="effect1_foregroundBlur_2441_378"/>
</filter>
<filter id="filter14_f_2441_378" x="131.232" y="327.615" width="46.133" height="120.599" filterUnits="userSpaceOnUse" color-interpolation-filters="sRGB">
<feFlood flood-opacity="0" result="BackgroundImageFix"/>
<feBlend mode="normal" in="SourceGraphic" in2="BackgroundImageFix" result="shape"/>
<feGaussianBlur stdDeviation="6.45" result="effect1_foregroundBlur_2441_378"/>
</filter>
<filter id="filter15_f_2441_378" x="159.897" y="327.654" width="36.9309" height="122.115" filterUnits="userSpaceOnUse" color-interpolation-filters="sRGB">
<feFlood flood-opacity="0" result="BackgroundImageFix"/>
<feBlend mode="normal" in="SourceGraphic" in2="BackgroundImageFix" result="shape"/>
<feGaussianBlur stdDeviation="6.45" result="effect1_foregroundBlur_2441_378"/>
</filter>
<filter id="filter16_f_2441_378" x="180.969" y="331.06" width="43.5754" height="125.184" filterUnits="userSpaceOnUse" color-interpolation-filters="sRGB">
<feFlood flood-opacity="0" result="BackgroundImageFix"/>
<feBlend mode="normal" in="SourceGraphic" in2="BackgroundImageFix" result="shape"/>
<feGaussianBlur stdDeviation="6.45" result="effect1_foregroundBlur_2441_378"/>
</filter>
<filter id="filter17_f_2441_378" x="178.424" y="262.633" width="13.7477" height="13.8199" filterUnits="userSpaceOnUse" color-interpolation-filters="sRGB">
<feFlood flood-opacity="0" result="BackgroundImageFix"/>
<feBlend mode="normal" in="SourceGraphic" in2="BackgroundImageFix" result="shape"/>
<feGaussianBlur stdDeviation="2.6" result="effect1_foregroundBlur_2441_378"/>
</filter>
<filter id="filter18_f_2441_378" x="168.561" y="209.39" width="81.7182" height="58.2106" filterUnits="userSpaceOnUse" color-interpolation-filters="sRGB">
<feFlood flood-opacity="0" result="BackgroundImageFix"/>
<feBlend mode="normal" in="SourceGraphic" in2="BackgroundImageFix" result="shape"/>
<feGaussianBlur stdDeviation="9.15" result="effect1_foregroundBlur_2441_378"/>
</filter>
<filter id="filter19_f_2441_378" x="252.917" y="183.557" width="26.8008" height="26.4507" filterUnits="userSpaceOnUse" color-interpolation-filters="sRGB">
<feFlood flood-opacity="0" result="BackgroundImageFix"/>
<feBlend mode="normal" in="SourceGraphic" in2="BackgroundImageFix" result="shape"/>
<feGaussianBlur stdDeviation="2" result="effect1_foregroundBlur_2441_378"/>
</filter>
<filter id="filter20_f_2441_378" x="129.407" y="139.627" width="81.1066" height="79.9511" filterUnits="userSpaceOnUse" color-interpolation-filters="sRGB">
<feFlood flood-opacity="0" result="BackgroundImageFix"/>
<feBlend mode="normal" in="SourceGraphic" in2="BackgroundImageFix" result="shape"/>
<feGaussianBlur stdDeviation="16.7" result="effect1_foregroundBlur_2441_378"/>
</filter>
<filter id="filter21_f_2441_378" x="201.668" y="163.323" width="85.3576" height="75.1728" filterUnits="userSpaceOnUse" color-interpolation-filters="sRGB">
<feFlood flood-opacity="0" result="BackgroundImageFix"/>
<feBlend mode="normal" in="SourceGraphic" in2="BackgroundImageFix" result="shape"/>
<feGaussianBlur stdDeviation="16.7" result="effect1_foregroundBlur_2441_378"/>
</filter>
<filter id="filter22_f_2441_378" x="277.728" y="188.33" width="29.2236" height="31.2668" filterUnits="userSpaceOnUse" color-interpolation-filters="sRGB">
<feFlood flood-opacity="0" result="BackgroundImageFix"/>
<feBlend mode="normal" in="SourceGraphic" in2="BackgroundImageFix" result="shape"/>
<feGaussianBlur stdDeviation="6.5" result="effect1_foregroundBlur_2441_378"/>
</filter>
<filter id="filter23_f_2441_378" x="286.104" y="190.856" width="29.0186" height="28.0317" filterUnits="userSpaceOnUse" color-interpolation-filters="sRGB">
<feFlood flood-opacity="0" result="BackgroundImageFix"/>
<feBlend mode="normal" in="SourceGraphic" in2="BackgroundImageFix" result="shape"/>
<feGaussianBlur stdDeviation="6.5" result="effect1_foregroundBlur_2441_378"/>
</filter>
<filter id="filter24_f_2441_378" x="271.547" y="119.778" width="28.8594" height="27.4595" filterUnits="userSpaceOnUse" color-interpolation-filters="sRGB">
<feFlood flood-opacity="0" result="BackgroundImageFix"/>
<feBlend mode="normal" in="SourceGraphic" in2="BackgroundImageFix" result="shape"/>
<feGaussianBlur stdDeviation="6.5" result="effect1_foregroundBlur_2441_378"/>
</filter>
<filter id="filter25_f_2441_378" x="291.947" y="189.426" width="29.8311" height="35.6399" filterUnits="userSpaceOnUse" color-interpolation-filters="sRGB">
<feFlood flood-opacity="0" result="BackgroundImageFix"/>
<feBlend mode="normal" in="SourceGraphic" in2="BackgroundImageFix" result="shape"/>
<feGaussianBlur stdDeviation="6.5" result="effect1_foregroundBlur_2441_378"/>
</filter>
<filter id="filter26_f_2441_378" x="159.913" y="97.7617" width="29.1367" height="29.125" filterUnits="userSpaceOnUse" color-interpolation-filters="sRGB">
<feFlood flood-opacity="0" result="BackgroundImageFix"/>
<feBlend mode="normal" in="SourceGraphic" in2="BackgroundImageFix" result="shape"/>
<feGaussianBlur stdDeviation="6.5" result="effect1_foregroundBlur_2441_378"/>
</filter>
<filter id="filter27_f_2441_378" x="274.751" y="117.199" width="28.8584" height="32.2219" filterUnits="userSpaceOnUse" color-interpolation-filters="sRGB">
<feFlood flood-opacity="0" result="BackgroundImageFix"/>
<feBlend mode="normal" in="SourceGraphic" in2="BackgroundImageFix" result="shape"/>
<feGaussianBlur stdDeviation="6.5" result="effect1_foregroundBlur_2441_378"/>
</filter>
<filter id="filter28_f_2441_378" x="130.004" y="142.592" width="28.1201" height="28.8164" filterUnits="userSpaceOnUse" color-interpolation-filters="sRGB">
<feFlood flood-opacity="0" result="BackgroundImageFix"/>
<feBlend mode="normal" in="SourceGraphic" in2="BackgroundImageFix" result="shape"/>
<feGaussianBlur stdDeviation="6.5" result="effect1_foregroundBlur_2441_378"/>
</filter>
<filter id="filter29_f_2441_378" x="156.199" y="94.344" width="31.1436" height="31.1028" filterUnits="userSpaceOnUse" color-interpolation-filters="sRGB">
<feFlood flood-opacity="0" result="BackgroundImageFix"/>
<feBlend mode="normal" in="SourceGraphic" in2="BackgroundImageFix" result="shape"/>
<feGaussianBlur stdDeviation="6.5" result="effect1_foregroundBlur_2441_378"/>
</filter>
<filter id="filter30_f_2441_378" x="121.173" y="141.555" width="31.3115" height="32.7485" filterUnits="userSpaceOnUse" color-interpolation-filters="sRGB">
<feFlood flood-opacity="0" result="BackgroundImageFix"/>
<feBlend mode="normal" in="SourceGraphic" in2="BackgroundImageFix" result="shape"/>
<feGaussianBlur stdDeviation="6.5" result="effect1_foregroundBlur_2441_378"/>
</filter>
<filter id="filter31_f_2441_378" x="82.2447" y="253.925" width="91.9734" height="95.5643" filterUnits="userSpaceOnUse" color-interpolation-filters="sRGB">
<feFlood flood-opacity="0" result="BackgroundImageFix"/>
<feBlend mode="normal" in="SourceGraphic" in2="BackgroundImageFix" result="shape"/>
<feGaussianBlur stdDeviation="13.55" result="effect1_foregroundBlur_2441_378"/>
</filter>
<filter id="filter32_f_2441_378" x="96.6398" y="277.364" width="27.2174" height="25.1498" filterUnits="userSpaceOnUse" color-interpolation-filters="sRGB">
<feFlood flood-opacity="0" result="BackgroundImageFix"/>
<feBlend mode="normal" in="SourceGraphic" in2="BackgroundImageFix" result="shape"/>
<feGaussianBlur stdDeviation="3.6" result="effect1_foregroundBlur_2441_378"/>
</filter>
<filter id="filter33_f_2441_378" x="97.3572" y="296.906" width="29.9447" height="24.5915" filterUnits="userSpaceOnUse" color-interpolation-filters="sRGB">
<feFlood flood-opacity="0" result="BackgroundImageFix"/>
<feBlend mode="normal" in="SourceGraphic" in2="BackgroundImageFix" result="shape"/>
<feGaussianBlur stdDeviation="4.65" result="effect1_foregroundBlur_2441_378"/>
</filter>
<filter id="filter34_f_2441_378" x="218.326" y="339.704" width="52.8516" height="43.0422" filterUnits="userSpaceOnUse" color-interpolation-filters="sRGB">
<feFlood flood-opacity="0" result="BackgroundImageFix"/>
<feBlend mode="normal" in="SourceGraphic" in2="BackgroundImageFix" result="shape"/>
<feGaussianBlur stdDeviation="6.5" result="effect1_foregroundBlur_2441_378"/>
</filter>
<filter id="filter35_f_2441_378" x="248.275" y="350.345" width="13.7018" height="20.2694" filterUnits="userSpaceOnUse" color-interpolation-filters="sRGB">
<feFlood flood-opacity="0" result="BackgroundImageFix"/>
<feBlend mode="normal" in="SourceGraphic" in2="BackgroundImageFix" result="shape"/>
<feGaussianBlur stdDeviation="1.6" result="effect1_foregroundBlur_2441_378"/>
</filter>
<filter id="filter36_f_2441_378" x="177.446" y="190.695" width="38.7822" height="22.3293" filterUnits="userSpaceOnUse" color-interpolation-filters="sRGB">
<feFlood flood-opacity="0" result="BackgroundImageFix"/>
<feBlend mode="normal" in="SourceGraphic" in2="BackgroundImageFix" result="shape"/>
<feGaussianBlur stdDeviation="4" result="effect1_foregroundBlur_2441_378"/>
</filter>
<filter id="filter37_f_2441_378" x="182.572" y="209.216" width="25.332" height="18.3882" filterUnits="userSpaceOnUse" color-interpolation-filters="sRGB">
<feFlood flood-opacity="0" result="BackgroundImageFix"/>
<feBlend mode="normal" in="SourceGraphic" in2="BackgroundImageFix" result="shape"/>
<feGaussianBlur stdDeviation="4" result="effect1_foregroundBlur_2441_378"/>
</filter>
<filter id="filter38_f_2441_378" x="175.431" y="159.753" width="69.6559" height="29.2662" filterUnits="userSpaceOnUse" color-interpolation-filters="sRGB">
<feFlood flood-opacity="0" result="BackgroundImageFix"/>
<feBlend mode="normal" in="SourceGraphic" in2="BackgroundImageFix" result="shape"/>
<feGaussianBlur stdDeviation="0.6" result="effect1_foregroundBlur_2441_378"/>
</filter>
<linearGradient id="paint0_linear_2441_378" x1="155.638" y1="26.6686" x2="103.911" y2="323.804" gradientUnits="userSpaceOnUse">
<stop offset="0.514423" stop-color="#FBE4EB"/>
<stop offset="1" stop-color="white"/>
</linearGradient>
<linearGradient id="paint1_linear_2441_378" x1="16.9727" y1="415.676" x2="161.347" y2="408.7" gradientUnits="userSpaceOnUse">
<stop offset="0.379808" stop-color="#FBE4EB"/>
<stop offset="1" stop-color="white"/>
</linearGradient>
<linearGradient id="paint2_linear_2441_378" x1="321.245" y1="58.1773" x2="263.555" y2="354.235" gradientUnits="userSpaceOnUse">
<stop offset="0.514423" stop-color="#FBE4EB"/>
<stop offset="1" stop-color="white"/>
</linearGradient>
<linearGradient id="paint3_linear_2441_378" x1="317.244" y1="472.109" x2="172.465" y2="403.085" gradientUnits="userSpaceOnUse">
<stop offset="0.379808" stop-color="#FBE4EB"/>
<stop offset="1" stop-color="white"/>
</linearGradient>
<linearGradient id="paint4_linear_2441_378" x1="48.9387" y1="164.549" x2="84.9592" y2="326.523" gradientUnits="userSpaceOnUse">
<stop stop-color="#FFD4D1"/>
<stop offset="0.490385" stop-color="#FFF0EF"/>
<stop offset="1" stop-color="#FFD4D1"/>
</linearGradient>
<linearGradient id="paint5_linear_2441_378" x1="176.886" y1="79.2007" x2="113.865" y2="231.968" gradientUnits="userSpaceOnUse">
<stop offset="0.0384615" stop-color="#FD4994"/>
<stop offset="0.456307" stop-color="#FF93BD"/>
<stop offset="0.975962" stop-color="#FD4994"/>
</linearGradient>
<linearGradient id="paint6_linear_2441_378" x1="241.416" y1="350.716" x2="300.615" y2="486.914" gradientUnits="userSpaceOnUse">
<stop offset="0.0673077" stop-color="#FFD4D1"/>
<stop offset="0.552885" stop-color="#FFF1F0"/>
<stop offset="1" stop-color="#FFD4D1"/>
</linearGradient>
<linearGradient id="paint7_linear_2441_378" x1="103.809" y1="301.207" x2="185.366" y2="252.247" gradientUnits="userSpaceOnUse">
<stop offset="0.259615" stop-color="#1F2D7B"/>
<stop offset="1" stop-color="#3952E1"/>
</linearGradient>
<linearGradient id="paint8_linear_2441_378" x1="100.515" y1="307.064" x2="147.301" y2="285.545" gradientUnits="userSpaceOnUse">
<stop stop-color="white"/>
<stop offset="0.346154" stop-color="#9FA3BA"/>
</linearGradient>
<linearGradient id="paint9_linear_2441_378" x1="124.107" y1="443.301" x2="131.507" y2="743.89" gradientUnits="userSpaceOnUse">
<stop offset="0.168269" stop-color="#FFD4D1"/>
<stop offset="0.475962" stop-color="#FFF1F1"/>
<stop offset="0.831731" stop-color="#FFD4D1"/>
</linearGradient>
<linearGradient id="paint10_linear_2441_378" x1="158.245" y1="505.437" x2="157.992" y2="523.178" gradientUnits="userSpaceOnUse">
<stop stop-color="#EDACB6"/>
<stop offset="1" stop-color="#F8C4CC"/>
</linearGradient>
<linearGradient id="paint11_linear_2441_378" x1="142.942" y1="491.227" x2="234.085" y2="672.59" gradientUnits="userSpaceOnUse">
<stop stop-color="#FFD6D3"/>
<stop offset="0.519231" stop-color="#FFECEA"/>
<stop offset="1" stop-color="#FFD6D3"/>
</linearGradient>
<linearGradient id="paint12_linear_2441_378" x1="198.977" y1="511.491" x2="198.725" y2="529.232" gradientUnits="userSpaceOnUse">
<stop stop-color="#EDACB6"/>
<stop offset="1" stop-color="#F8C4CC"/>
</linearGradient>
<linearGradient id="paint13_linear_2441_378" x1="242.966" y1="51.1217" x2="154.229" y2="389.863" gradientUnits="userSpaceOnUse">
<stop offset="0.110577" stop-color="#FFD4D1"/>
<stop offset="0.485577" stop-color="#FFF1F0"/>
<stop offset="0.875" stop-color="#FFD4D1"/>
</linearGradient>
<linearGradient id="paint14_linear_2441_378" x1="202.515" y1="174.84" x2="211.259" y2="145.327" gradientUnits="userSpaceOnUse">
<stop stop-color="white"/>
<stop offset="1" stop-color="#999999"/>
</linearGradient>
<linearGradient id="paint15_linear_2441_378" x1="202.515" y1="174.84" x2="211.259" y2="145.327" gradientUnits="userSpaceOnUse">
<stop stop-color="white"/>
<stop offset="1" stop-color="#999999"/>
</linearGradient>
<linearGradient id="paint16_linear_2441_378" x1="178.004" y1="281.34" x2="145.563" y2="496.278" gradientUnits="userSpaceOnUse">
<stop offset="0.134615" stop-color="#F9FCFF"/>
<stop offset="0.860577" stop-color="#959799"/>
</linearGradient>
<linearGradient id="paint17_linear_2441_378" x1="177.871" y1="282.243" x2="145.566" y2="496.278" gradientUnits="userSpaceOnUse">
<stop offset="0.663462" stop-color="#1F2D7B"/>
<stop offset="1" stop-color="#2A398B"/>
</linearGradient>
<linearGradient id="paint18_linear_2441_378" x1="177.871" y1="282.243" x2="145.566" y2="496.278" gradientUnits="userSpaceOnUse">
<stop offset="0.0913462" stop-color="#3E2527"/>
<stop offset="0.490385" stop-color="#5B3937"/>
<stop offset="0.865385" stop-color="#3E2527"/>
</linearGradient>
<linearGradient id="paint19_linear_2441_378" x1="262.316" y1="98.7798" x2="206.459" y2="287.285" gradientUnits="userSpaceOnUse">
<stop stop-color="#FD4994"/>
<stop offset="0.423077" stop-color="#FF93BD"/>
<stop offset="0.807692" stop-color="#FD4994"/>
</linearGradient>
<linearGradient id="paint20_linear_2441_378" x1="137.184" y1="551.854" x2="172.077" y2="379.826" gradientUnits="userSpaceOnUse">
<stop offset="0.307692" stop-color="#F8FDFF"/>
<stop offset="1" stop-color="#959899"/>
</linearGradient>
<linearGradient id="paint21_linear_2441_378" x1="184.917" y1="266.555" x2="181.768" y2="285.722" gradientUnits="userSpaceOnUse">
<stop offset="0.598789" stop-color="#D60926"/>
<stop offset="1" stop-color="#700514"/>
</linearGradient>
<linearGradient id="paint22_linear_2441_378" x1="145.749" y1="330.297" x2="199.897" y2="346.104" gradientUnits="userSpaceOnUse">
<stop offset="0.211571" stop-color="#4A2E2E"/>
<stop offset="0.475962" stop-color="#634040"/>
<stop offset="0.875" stop-color="#4A2E2E"/>
</linearGradient>
<linearGradient id="paint23_linear_2441_378" x1="256.236" y1="308.441" x2="244.252" y2="385.549" gradientUnits="userSpaceOnUse">
<stop offset="0.00480769" stop-color="#33439A"/>
<stop offset="0.480769" stop-color="#1E2C7A"/>
</linearGradient>
</defs>
</svg>
