<svg width="510" height="484" viewBox="0 0 510 484" fill="none" xmlns="http://www.w3.org/2000/svg">
<ellipse cx="251.5" cy="262" rx="225.5" ry="222" fill="white"/>
<ellipse cx="251" cy="262" rx="205" ry="202" fill="#E399BC"/>
<path d="M498.128 2.15082C454.628 19.1508 382.128 125.651 381.128 126.651C367.128 136.251 305.961 245.317 277.128 298.65C270.128 345.317 262.128 439.65 286.128 443.65C316.128 448.65 343.628 425.15 361.628 419.65C379.628 414.15 412.628 355.65 430.628 323.15C445.028 297.15 465.628 231.65 474.128 202.15C483.461 166.151 503.028 84.5508 506.628 46.1508C510.228 7.75082 502.461 0.817483 498.128 2.15082Z" fill="url(#paint0_linear_4154_2680)" stroke="#43090A" stroke-width="3" stroke-linecap="round"/>
<path d="M11.4254 6.15082C54.9254 23.1508 127.425 129.651 128.425 130.651C142.425 140.251 203.592 249.317 232.425 302.65C239.425 349.317 247.425 443.65 223.425 447.65C193.425 452.65 165.925 429.15 147.925 423.65C129.925 418.15 96.9254 359.65 78.9254 327.15C64.5254 301.15 43.9254 235.65 35.4254 206.15C26.0921 170.151 6.52544 88.5508 2.92543 50.1508C-0.674576 11.7508 7.0921 4.81748 11.4254 6.15082Z" fill="url(#paint1_linear_4154_2680)" stroke="#43090A" stroke-width="3" stroke-linecap="round"/>
<path d="M348.042 410.5C338.093 411.921 333 418 332.5 419C331.167 422.167 329.642 430.5 330.042 434.5C330.542 439.5 336.042 434 338.542 430.5C341.042 427 340.042 427.5 350.042 430C360.042 432.5 359.376 420.93 367.042 419C373 417.5 374 418.66 376.042 419C385.042 420.5 389.042 413 388.542 410.5C388.142 408.5 384.5 401.5 381 399.5C375.054 401.616 356.682 409.266 348.042 410.5Z" fill="#EFEFEF" stroke="#43090A" stroke-width="3" stroke-linecap="round"/>
<path d="M157.542 411C167.491 412.421 172.584 418.5 173.084 419.5C174.417 422.667 175.942 431 175.542 435C175.042 440 169.542 434.5 167.042 431C164.542 427.5 165.542 428 155.542 430.5C145.542 433 146.208 421.43 138.542 419.5C132.584 418 131.584 419.16 129.542 419.5C120.542 421 116.542 413.5 117.042 411C117.442 409 121.084 402 124.584 400C130.53 402.116 148.902 409.766 157.542 411Z" fill="#EFEFEF" stroke="#43090A" stroke-width="3" stroke-linecap="round"/>
<path d="M146.525 342.173C150.525 343.773 177.192 351.201 188.525 354.868C184.525 359.368 183.525 386.867 186.025 400.367C188.525 413.867 174.025 423.367 173.025 418.867C172.025 414.367 156.025 408.867 149.525 408.867C143.025 408.867 140.525 406.867 137.525 404.867C134.525 402.867 130.025 403.367 125.525 400.367C121.025 397.367 118.804 379.185 124.025 377.867C130.417 376.254 135.819 364.675 137.525 360.674C139.466 356.12 141.525 340.173 146.525 342.173Z" fill="url(#paint2_linear_4154_2680)"/>
<path d="M137.525 404.867C134.525 402.867 130.025 403.367 125.525 400.367C121.025 397.367 118.804 379.185 124.025 377.867C130.417 376.254 135.819 364.675 137.525 360.674C139.466 356.12 141.525 340.173 146.525 342.173C150.525 343.773 177.192 351.201 188.525 354.868C184.525 359.368 183.525 386.867 186.025 400.367C188.525 413.867 174.025 423.367 173.025 418.867C172.025 414.367 156.025 408.867 149.525 408.867C143.025 408.867 140.525 406.867 137.525 404.867ZM137.525 404.867C135.692 403.034 132.225 397.967 133.025 392.367" stroke="#43090A" stroke-width="3" stroke-linecap="round"/>
<path d="M359 341.499C355 343.099 328.333 350.527 317 354.194C321 358.694 322 386.194 319.5 399.694C317 413.194 331.5 422.694 332.5 418.194C333.5 413.694 349.5 408.194 356 408.194C362.5 408.194 365 406.194 368 404.194C371 402.194 375.5 402.694 380 399.694C384.5 396.694 386.721 378.512 381.5 377.194C375.108 375.58 369.706 364.002 368 360C366.059 355.446 364 339.499 359 341.499Z" fill="url(#paint3_linear_4154_2680)"/>
<path d="M368 404.194C371 402.194 375.5 402.694 380 399.694C384.5 396.694 386.721 378.512 381.5 377.194C375.108 375.58 369.706 364.002 368 360C366.059 355.446 364 339.499 359 341.499C355 343.099 328.333 350.527 317 354.194C321 358.694 322 386.194 319.5 399.694C317 413.194 331.5 422.694 332.5 418.194C333.5 413.694 349.5 408.194 356 408.194C362.5 408.194 365 406.194 368 404.194ZM368 404.194C369.833 402.36 373.3 397.294 372.5 391.694" stroke="#43090A" stroke-width="3" stroke-linecap="round"/>
<path d="M229 300.5C234.2 296.1 231.167 283.333 229 277.5L272.5 275C271.5 281.5 270.1 295.7 272.5 300.5C275.5 306.5 296.5 310 321 315.5C340.6 319.9 354.833 334.333 359.5 341C353.667 342.333 335.3 347.2 308.5 356C281.7 364.8 214 358 183.5 353.5L153 345C158 336.833 169.1 319.5 173.5 315.5C179 310.5 222.5 306 229 300.5Z" fill="url(#paint4_linear_4154_2680)" stroke="#43090A" stroke-width="3"/>
<path d="M316 353.5C272.4 362.7 212.333 358.333 188.5 354.5C182.833 362.333 179 379 182 396C185.765 417.333 189.157 425 190.157 434C210.197 445.896 307.082 442.201 309.657 435.5C309.657 435.5 318.657 405 319.657 398.5C320.657 392 323.999 374.5 316 353.5Z" fill="url(#paint5_linear_4154_2680)" stroke="#43090A" stroke-width="3"/>
<path d="M140.5 104.352C156.066 89.5705 181.167 89.9995 192 93.4995L175.5 168.852V234.352C175.5 264.852 165 284.852 161.5 291.352C158 297.852 133 311.852 124 322.852C116.8 331.652 116.667 340.186 117.5 343.352C107.9 336.952 106.5 318.019 107 309.352C100.2 314.952 89.5 315.352 85 314.852C100.6 308.052 107.167 280.352 108.5 267.352C110 253.519 113.3 217.652 114.5 184.852C116 143.852 133.5 111 140.5 104.352Z" fill="url(#paint6_linear_4154_2680)"/>
<path d="M331 88.8522C325.596 90.6671 319.5 95.8522 319 96.3522C325.833 130.352 331.8 198.6 329 215C325.5 235.5 338 264.352 343.5 280.852C349 297.352 374 304.852 386.5 317.852C396.5 328.252 394.667 339.852 392.5 344.352C405.3 334.752 403.5 316.685 401 308.852C410.2 316.052 420.5 316.185 424.5 315.352C419.333 309.519 407.7 295.152 402.5 284.352C396 270.852 399.296 215.83 397.5 193.852C396 175.5 387.5 137.852 385 126.852C382.5 115.852 376.932 98.3312 362 91.0004C351.107 85.6524 338.371 86.3767 331 88.8522Z" fill="url(#paint7_linear_4154_2680)"/>
<path d="M140.5 104.352C156.066 89.5705 181.167 89.9995 192 93.4995L175.5 168.852V234.352C175.5 264.852 165 284.852 161.5 291.352C158 297.852 133 311.852 124 322.852C116.8 331.652 116.667 340.186 117.5 343.352C107.9 336.952 106.5 318.019 107 309.352C100.2 314.952 89.5 315.352 85 314.852C100.6 308.052 107.167 280.352 108.5 267.352C110 253.519 113.3 217.652 114.5 184.852C116 143.852 133.5 111 140.5 104.352Z" stroke="#43090A" stroke-width="3"/>
<path d="M331 88.8522C325.596 90.6671 319.5 95.8522 319 96.3522C325.833 130.352 331.8 198.6 329 215C325.5 235.5 338 264.352 343.5 280.852C349 297.352 374 304.852 386.5 317.852C396.5 328.252 394.667 339.852 392.5 344.352C405.3 334.752 403.5 316.685 401 308.852C410.2 316.052 420.5 316.185 424.5 315.352C419.333 309.519 407.7 295.152 402.5 284.352C396 270.852 399.296 215.83 397.5 193.852C396 175.5 387.5 137.852 385 126.852C382.5 115.852 376.932 98.3312 362 91.0004C351.107 85.6524 338.371 86.3767 331 88.8522Z" stroke="#43090A" stroke-width="3"/>
<g filter="url(#filter0_f_4154_2680)">
<path d="M234.397 292.632L232.5 279.408V275L269.5 277.939C269.5 282.836 269.31 292.926 268.551 294.101C267.603 295.571 249.577 299.489 247.679 299.979C246.162 300.371 238.192 295.244 234.397 292.632Z" fill="#EBBDC2"/>
</g>
<path d="M191 246.19C188.159 241.397 176.5 201.69 170.5 182.69L167 147.69C172.5 140.523 188.5 125.69 208.5 123.69C228.5 121.69 239.833 119.334 245 121.001C309.4 109.001 337 153 341.5 171C332.833 198 317.054 248.43 312.5 254.19C300 270 261 284.69 249 285.19C237 285.69 198 258 191 246.19Z" fill="url(#paint8_linear_4154_2680)" stroke="#43090A" stroke-width="3"/>
<path d="M157.164 189.998C157.425 183.46 165.208 181.304 169.164 181.998L185.664 232.998C185.164 232.998 182.726 233.679 179.164 231.498C171 226.5 163.509 218.027 160.664 211.498C157.538 204.323 156.905 196.512 157.164 189.998Z" fill="#FDECEA" stroke="#43090A" stroke-width="3"/>
<path d="M350.009 190.017C349.85 183.476 342.102 181.199 338.135 181.831L320.841 232.567C321.341 232.575 323.769 233.293 327.364 231.169C335.605 226.298 343.227 217.944 346.174 211.46C349.411 204.335 350.166 196.534 350.009 190.017Z" fill="#FDECEA" stroke="#43090A" stroke-width="3"/>
<path fill-rule="evenodd" clip-rule="evenodd" d="M321 179.238C314.823 174.019 304.618 163.425 297.845 151.238C303.665 159.586 318.067 174.785 337 182.599C342.634 184.924 348.67 186.596 355 187.238C352.815 184.366 349.742 180.054 346.647 175.238C341.479 167.194 336.251 157.742 335 151.238C338.005 153.241 343.19 156.339 348.449 158.738C352.816 160.729 357.234 162.238 360.5 162.238C357.251 158.478 352.759 152.873 348.449 146.756C341.487 136.873 335 118.738 335 118.738C335 118.738 325.289 105.251 316 94.5352C311.757 89.64 307.601 85.3232 304.5 83.1346C303.211 82.225 302.075 81.3985 301.048 80.6522C295.048 76.2887 292.822 74.6703 286 75.24C284.141 75.3952 282.329 75.7423 280.564 76.2387C274.216 72.6373 258.543 77.7392 251.5 80.7403C244.663 76.2659 231.109 76.5461 223.36 77.4282C219.842 76.2718 215.92 75.7651 211.5 76.2387C205.245 76.9088 196.594 83.7676 188 92.8905C177.36 104.185 166.808 118.951 161 129.738C152.6 145.337 147.833 166.571 146.5 175.238C148.667 169.754 154.6 157.583 161 152.771C157.95 168.851 161.124 186.41 163.5 194.238C163.21 193.223 163.271 187.845 171 181.917C172.154 181.032 173.479 180.135 175 179.238C186.879 172.23 195.905 150.017 198.051 134.341C198.322 159.325 214.584 171.913 223.5 175.238C216.816 166.228 217.395 142.523 220.722 124.74C223.118 111.928 227.989 100.507 230.5 103.238C232.026 104.897 232.647 105.713 234.929 108.712C237.133 111.609 240.886 116.542 248.5 126.238C251.483 123.906 259.304 119.942 266.724 122.74C274.324 142.372 290.448 171.851 321 179.238Z" fill="url(#paint9_linear_4154_2680)"/>
<path d="M230.5 103.238C227.989 100.507 223.118 111.928 220.722 124.74C234.899 119.14 245.148 123.405 248.5 126.238C240.886 116.542 237.133 111.609 234.929 108.712C232.647 105.713 232.026 104.897 230.5 103.238Z" fill="url(#paint10_linear_4154_2680)"/>
<path d="M248.5 126.238C252.333 117.904 260.2 101.938 261 104.738C261.329 105.888 263.006 113.135 266.724 122.74M248.5 126.238C245.148 123.405 234.899 119.14 220.722 124.74M248.5 126.238C251.483 123.906 259.304 119.942 266.724 122.74M248.5 126.238C240.886 116.542 237.133 111.609 234.929 108.712C232.647 105.713 232.026 104.897 230.5 103.238C227.989 100.507 223.118 111.928 220.722 124.74M291 129.738C291.289 136.958 294.019 144.352 297.845 151.238M297.845 151.238C304.618 163.425 314.823 174.019 321 179.238C290.448 171.851 274.324 142.372 266.724 122.74M297.845 151.238C303.665 159.586 318.067 174.785 337 182.599C342.634 184.924 348.67 186.596 355 187.238C352.815 184.366 349.742 180.054 346.647 175.238C341.479 167.194 336.251 157.742 335 151.238C338.005 153.241 343.19 156.339 348.449 158.738C352.816 160.729 357.234 162.238 360.5 162.238C357.251 158.478 352.759 152.873 348.449 146.756C341.487 136.873 335 118.738 335 118.738C335 118.738 325.289 105.251 316 94.5352C311.757 89.64 307.601 85.3232 304.5 83.1346C303.211 82.225 302.075 81.3985 301.048 80.6522C295.048 76.2887 292.822 74.6703 286 75.24C284.141 75.3952 282.329 75.7423 280.564 76.2387M255.5 90.7377C262.683 86.0898 270.937 78.9456 280.564 76.2387M163.5 143.738C162.403 146.641 161.587 149.679 161 152.771M241.5 90.7377C236.71 85.4917 230.984 79.9343 223.36 77.4282M161 152.771C157.95 168.851 161.124 186.41 163.5 194.238C163.21 193.223 163.271 187.845 171 181.917C172.154 181.032 173.479 180.135 175 179.238C186.879 172.23 195.905 150.017 198.051 134.341M161 152.771C154.6 157.583 148.667 169.754 146.5 175.238C147.833 166.571 152.6 145.337 161 129.738C166.808 118.951 177.36 104.185 188 92.8905C196.594 83.7676 205.245 76.9088 211.5 76.2387C215.92 75.7651 219.842 76.2718 223.36 77.4282M221 77.7403C221.703 77.6326 222.495 77.5266 223.36 77.4282M280.564 76.2387C274.216 72.6373 258.543 77.7392 251.5 80.7403C244.663 76.2659 231.109 76.5461 223.36 77.4282M220.722 124.74C217.395 142.523 216.816 166.228 223.5 175.238C214.584 171.913 198.322 159.325 198.051 134.341M198.051 134.341C198.46 131.352 198.619 128.601 198.5 126.238C198.164 129.072 198.023 131.772 198.051 134.341Z" stroke="#43090A" stroke-width="3"/>
<path d="M117.616 311.694C118.816 318.094 131.449 339.027 137.616 348.694L127.116 399.694C125.116 408.361 122.716 428.994 129.116 442.194C137.116 458.694 152.9 450.5 155.616 447.194C162.104 439.297 166.616 417.028 166.616 405.194L165.116 344.194C167.616 340.694 173.016 333.294 174.616 331.694C176.616 329.694 177.616 309.694 177.616 303.194C177.616 296.694 189.116 284.694 181.616 282.694C174.116 280.694 168.616 292.694 167.616 296.194C166.816 298.994 164.616 300.694 163.616 301.194C156.782 287.194 142.316 257.894 139.116 252.694C135.116 246.194 131.616 249.194 130.616 251.194C129.816 252.794 138.449 276.528 142.616 287.694C137.616 276.528 125.816 252.194 120.616 248.194C115.416 244.194 114.782 251.194 115.116 255.194C113.449 254.528 109.816 253.994 108.616 257.194C107.416 260.394 116.616 287.028 121.116 299.694C114.616 292.194 101.057 277.766 98.6157 279.194C90.3997 284 116.116 303.694 117.616 311.694Z" fill="url(#paint11_linear_4154_2680)"/>
<path d="M115.116 255.194C113.449 254.528 109.816 253.994 108.616 257.194C107.416 260.394 116.616 287.028 121.116 299.694C114.616 292.194 101.057 277.766 98.6157 279.194C90.3997 284 116.116 303.694 117.616 311.694C118.816 318.094 131.449 339.027 137.616 348.694L127.116 399.694C125.116 408.361 122.716 428.994 129.116 442.194C137.116 458.694 152.9 450.5 155.616 447.194C162.104 439.297 166.616 417.028 166.616 405.194L165.116 344.194C167.616 340.694 173.016 333.294 174.616 331.694C176.616 329.694 177.616 309.694 177.616 303.194C177.616 296.694 189.116 284.694 181.616 282.694C174.116 280.694 168.616 292.694 167.616 296.194C166.816 298.994 164.616 300.694 163.616 301.194C156.782 287.194 142.316 257.894 139.116 252.694C135.116 246.194 131.616 249.194 130.616 251.194C129.816 252.794 138.449 276.528 142.616 287.694C137.616 276.528 125.816 252.194 120.616 248.194C115.416 244.194 114.782 251.194 115.116 255.194ZM115.116 255.194L131.116 293.694" stroke="#43090A" stroke-width="3"/>
<path d="M130.879 292.754C131.037 293.048 131.195 293.341 131.353 293.635C131.62 293.481 131.873 293.336 132.141 293.184C136.839 290.465 141.741 288.117 146.777 286.045C147.06 285.926 147.331 285.813 147.616 285.694C147.325 285.797 147.048 285.895 146.759 285.998C141.622 287.787 136.558 289.878 131.694 292.346C131.417 292.484 131.155 292.615 130.879 292.754Z" fill="#43090A"/>
<path d="M131.301 293.659C131.178 293.349 131.054 293.04 130.93 292.73C130.66 292.847 130.403 292.985 130.16 293.125C125.953 295.795 122.369 299.052 118.294 301.75C118.071 301.899 117.841 302.05 117.616 302.194C117.849 302.064 118.088 301.927 118.32 301.792C122.538 299.358 126.43 296.264 130.61 293.962C130.84 293.847 131.079 293.738 131.301 293.659Z" fill="#43090A"/>
<path d="M164.616 301.194C163.616 301.694 156.655 305.165 154.616 306.694C152.616 308.194 146.616 311.694 148.116 317.694" stroke="#43090A" stroke-width="2"/>
<path d="M390.54 315.694C389.34 322.094 376.706 343.027 370.54 352.694L381.04 403.694C383.04 412.361 385.44 432.994 379.04 446.194C371.04 462.694 355.256 454.5 352.54 451.194C346.051 443.297 341.54 421.028 341.54 409.194L343.04 348.194C340.54 344.694 335.14 337.294 333.54 335.694C331.54 333.694 330.54 313.694 330.54 307.194C330.54 300.694 319.04 288.694 326.54 286.694C334.04 284.694 339.54 296.694 340.54 300.194C341.34 302.994 343.54 304.694 344.54 305.194C351.373 291.194 365.84 261.894 369.04 256.694C373.04 250.194 376.54 253.194 377.54 255.194C378.34 256.794 369.706 280.528 365.54 291.694C370.54 280.528 382.34 256.194 387.54 252.194C392.74 248.194 393.373 255.194 393.04 259.194C394.706 258.528 398.34 257.994 399.54 261.194C400.74 264.394 391.54 291.028 387.04 303.694C393.54 296.194 407.098 281.766 409.54 283.194C417.756 288 392.04 307.694 390.54 315.694Z" fill="url(#paint12_linear_4154_2680)"/>
<path d="M393.04 259.194C394.706 258.528 398.34 257.994 399.54 261.194C400.74 264.394 391.54 291.028 387.04 303.694C393.54 296.194 407.098 281.766 409.54 283.194C417.756 288 392.04 307.694 390.54 315.694C389.34 322.094 376.706 343.027 370.54 352.694L381.04 403.694C383.04 412.361 385.44 432.994 379.04 446.194C371.04 462.694 355.256 454.5 352.54 451.194C346.051 443.297 341.54 421.028 341.54 409.194L343.04 348.194C340.54 344.694 335.14 337.294 333.54 335.694C331.54 333.694 330.54 313.694 330.54 307.194C330.54 300.694 319.04 288.694 326.54 286.694C334.04 284.694 339.54 296.694 340.54 300.194C341.34 302.994 343.54 304.694 344.54 305.194C351.373 291.194 365.84 261.894 369.04 256.694C373.04 250.194 376.54 253.194 377.54 255.194C378.34 256.794 369.706 280.528 365.54 291.694C370.54 280.528 382.34 256.194 387.54 252.194C392.74 248.194 393.373 255.194 393.04 259.194ZM393.04 259.194L377.04 297.694" stroke="#43090A" stroke-width="3"/>
<path d="M377.277 296.754C377.119 297.048 376.961 297.341 376.803 297.635C376.535 297.481 376.283 297.336 376.015 297.184C371.316 294.465 366.414 292.117 361.379 290.045C361.095 289.926 360.824 289.813 360.54 289.694C360.83 289.797 361.107 289.895 361.397 289.998C366.533 291.787 371.597 293.878 376.462 296.346C376.739 296.484 377 296.615 377.277 296.754Z" fill="#43090A"/>
<path d="M376.854 297.659C376.978 297.349 377.101 297.04 377.225 296.73C377.495 296.847 377.752 296.985 377.995 297.125C382.203 299.795 385.786 303.052 389.861 305.75C390.084 305.899 390.315 306.05 390.54 306.194C390.306 306.064 390.067 305.927 389.835 305.792C385.617 303.358 381.725 300.264 377.545 297.962C377.315 297.847 377.076 297.738 376.854 297.659Z" fill="#43090A"/>
<path d="M343.54 305.194C344.54 305.694 351.5 309.165 353.54 310.694C355.54 312.194 361.54 315.694 360.04 321.694" stroke="#43090A" stroke-width="2"/>
<path d="M211.315 400.463C211.981 400.44 212.647 400.417 213.313 400.394C213.274 399.722 213.238 399.078 213.204 398.409C212.367 386.533 213.963 374.668 216.361 362.958C216.491 362.297 216.615 361.667 216.749 361C216.583 361.659 216.426 362.283 216.263 362.937C213.286 374.48 211.061 386.417 211.304 398.458C211.305 399.134 211.308 399.784 211.315 400.463Z" fill="#43090A"/>
<path d="M213.314 400.409C212.647 400.421 211.981 400.434 211.314 400.446C211.343 401.126 211.399 401.818 211.472 402.502C213.147 414.645 217.334 425.983 221.837 437.124C222.094 437.737 222.359 438.36 222.62 438.963C222.39 438.347 222.156 437.713 221.93 437.087C217.993 425.78 214.386 414.127 213.366 402.345C213.329 401.692 213.309 401.039 213.314 400.409Z" fill="#43090A"/>
<path d="M288.055 400.462C287.389 400.439 286.722 400.416 286.056 400.393C286.096 399.721 286.132 399.077 286.166 398.408C287.002 386.532 285.407 374.667 283.009 362.957C282.879 362.296 282.754 361.666 282.62 360.999C282.787 361.658 282.944 362.282 283.106 362.936C286.083 374.479 288.308 386.416 288.065 398.457C288.064 399.133 288.061 399.783 288.055 400.462Z" fill="#43090A"/>
<path d="M286.055 400.408C286.722 400.42 287.389 400.433 288.055 400.445C288.026 401.125 287.97 401.817 287.897 402.501C286.223 414.644 282.035 425.982 277.532 437.123C277.275 437.736 277.011 438.359 276.749 438.962C276.98 438.346 277.213 437.712 277.439 437.086C281.376 425.779 284.983 414.126 286.003 402.344C286.041 401.692 286.061 401.038 286.055 400.408Z" fill="#43090A"/>
<path d="M310 436.5C279.5 446 208.036 444.5 190.036 435C189.536 440 188.236 450.1 187.036 450.5C185.536 451 231.036 471.5 308.536 456.5L310 436.5Z" fill="url(#paint13_linear_4154_2680)" stroke="#43090A" stroke-width="3"/>
<path d="M188 355.5C188.833 355 191.7 349.2 192.5 344" stroke="#43090A" stroke-width="3" stroke-linecap="round"/>
<path d="M316.5 354.5C315.667 353.333 313.8 349.6 313 344" stroke="#43090A" stroke-width="3" stroke-linecap="round"/>
<path d="M202.197 218.713C198.692 216.621 192.21 208.865 192.307 207.006L191 199.552C191.495 195.472 194.165 186.78 200.891 184.652C209.298 181.991 223.514 187.969 228.584 193.698C234.684 200.591 226.915 216.739 222.5 218C215.5 220 207.979 219.426 202.197 218.713Z" fill="white"/>
<path d="M202.179 218.5C203.179 219 213 219.5 219 218.5" stroke="#43090A" stroke-linecap="round"/>
<path d="M214.679 176C218 175.5 229.379 179.1 232.179 185.5" stroke="#43090A" stroke-width="2" stroke-linecap="round"/>
<path d="M213.63 185.004C216.408 184.756 219.201 186.147 221.458 188.925C223.71 191.699 225.32 195.746 225.655 200.418C225.991 205.09 224.98 209.372 223.151 212.51C221.32 215.654 218.761 217.524 215.983 217.772C213.204 218.021 210.411 216.63 208.154 213.851C205.901 211.078 204.292 207.03 203.957 202.358C203.621 197.686 204.632 193.404 206.46 190.266C208.292 187.122 210.851 185.252 213.63 185.004Z" fill="url(#paint14_linear_4154_2680)" stroke="#43090A" stroke-width="3"/>
<path d="M196.679 191.502C191.079 197.102 190.589 200.245 192.5 205.5C194.5 211 182.179 193 179.179 187.5C177.963 185.272 183.229 188.475 186.179 187C189.179 185.5 188.679 185.5 191.679 184C201.681 179 210.39 179.318 217.679 180.501C225.713 181.805 231.179 191.001 233.179 194.501C234.779 197.301 233.179 197.334 232.179 197.001C219.679 182.001 203.679 184.502 196.679 191.502Z" fill="#43090A" stroke="#43090A" stroke-linecap="round"/>
<g filter="url(#filter1_f_4154_2680)">
<ellipse cx="211" cy="194" rx="4" ry="5" fill="white"/>
</g>
<path d="M302.803 218.713C306.308 216.621 312.79 208.865 312.694 207.006L314 199.552C313.506 195.472 310.835 186.78 304.11 184.652C295.703 181.991 281.486 187.969 276.416 193.698C270.316 200.591 277.183 216.274 281.361 218.177C285.876 220.233 298.321 220.125 302.803 218.713Z" fill="white"/>
<path d="M304.5 219C303.5 219.5 292 220 286 219" stroke="#43090A" stroke-linecap="round"/>
<path d="M290.179 176C284.5 176 277 179.5 272.679 185.5" stroke="#43090A" stroke-width="2" stroke-linecap="round"/>
<path d="M291.803 185.633C289.025 185.385 286.232 186.776 283.975 189.554C281.723 192.328 280.113 196.375 279.778 201.047C279.442 205.719 280.454 210.001 282.282 213.139C284.114 216.283 286.672 218.153 289.451 218.401C292.229 218.65 295.022 217.259 297.28 214.48C299.532 211.707 301.141 207.658 301.476 202.986C301.812 198.315 300.801 194.033 298.973 190.895C297.141 187.751 294.582 185.881 291.803 185.633Z" fill="url(#paint15_linear_4154_2680)" stroke="#43090A" stroke-width="3"/>
<path d="M308.179 191.502C313.779 197.102 314.268 200.245 312.358 205.5C310.358 211 322.679 193 325.679 187.5C326.894 185.272 321.629 188.475 318.679 187C315.679 185.5 316.179 185.5 313.179 184C303.176 179 294.468 179.318 287.179 180.501C279.145 181.805 273.679 191.001 271.679 194.501C270.079 197.301 271.679 197.334 272.679 197.001C285.179 182.001 301.179 184.502 308.179 191.502Z" fill="#43090A" stroke="#43090A" stroke-linecap="round"/>
<g filter="url(#filter2_f_4154_2680)">
<ellipse cx="4" cy="5" rx="4" ry="5" transform="matrix(-1 0 0 1 291 189)" fill="white"/>
</g>
<path d="M250.256 213.816C249.844 215.037 248.741 217.913 247.619 219.65C246.497 221.388 247.715 225.342 248.464 227.102" stroke="#43090A" stroke-width="2" stroke-linecap="round"/>
<path d="M273 160.076C278.833 155.743 295.4 150.176 315 162.576" stroke="#43090A" stroke-width="3" stroke-linecap="round"/>
<path d="M181 166C184 165 195.5 151.077 227 160.077" stroke="#43090A" stroke-width="3" stroke-linecap="round"/>
<g filter="url(#filter3_f_4154_2680)">
<path d="M176 209C175.667 212 175.6 217.6 174 218C172.492 218.377 167.313 208.717 164.489 203C164.16 202.833 163.6 201.7 164 198.5C164.5 194.5 166 197.5 170 198.5C173.2 199.3 175.5 206 176 209Z" fill="#F3D0CB"/>
</g>
<g filter="url(#filter4_f_4154_2680)">
<path d="M331 209.521C331.333 212.521 331.4 218.122 333 218.522C334.508 218.899 339.687 209.239 342.511 203.521C342.84 203.355 343.4 202.222 343 199.022C342.5 195.022 341 198.022 337 199.022C333.8 199.822 331.5 206.521 331 209.521Z" fill="#F3D0CB"/>
</g>
<path d="M164.227 200.463C163.727 198.13 163.727 194.163 167.727 196.963C171.727 199.763 175.727 203.796 177.227 205.463M174.227 203.463C173.06 206.63 171.627 213.963 175.227 217.963" stroke="#43090A" stroke-width="3" stroke-linecap="round"/>
<path d="M344 200.463C344.5 198.13 344.5 194.163 340.5 196.963C336.5 199.763 332.5 203.796 331 205.463M334 203.463C335.167 206.63 336.6 213.963 333 217.963" stroke="#43090A" stroke-width="3" stroke-linecap="round"/>
<path d="M272.235 249.009C259.809 246.101 238.878 245.834 228.516 249.146C229.387 254.138 236.129 263.9 245.796 265.353C256.884 267.02 270.659 261.836 272.235 249.009Z" fill="#59171B" stroke="#43090A" stroke-width="3" stroke-linecap="round"/>
<path d="M248.901 252.919C242.445 252.291 234.042 250.712 232.818 249.629C246.755 245.913 263.794 248.555 270.572 250.341C264.591 251.71 255.356 253.547 248.901 252.919Z" fill="white"/>
<path d="M252.032 256.183C245.145 255.541 240.262 258.547 238.403 260.399C249.499 267.268 257.995 262.74 263.774 260.184C262.376 258.922 258.919 256.825 252.032 256.183Z" fill="#DA7B85"/>
<g filter="url(#filter5_f_4154_2680)">
<ellipse cx="231.434" cy="326.5" rx="10.4474" ry="4.64521" transform="rotate(24.0529 231.434 326.5)" fill="#FFB9CF"/>
</g>
<g filter="url(#filter6_f_4154_2680)">
<ellipse cx="10.4474" cy="4.64521" rx="10.4474" ry="4.64521" transform="matrix(-0.913169 0.40758 0.40758 0.913169 274.081 320)" fill="#FFB9CF"/>
</g>
<path d="M208 318C215.5 319.333 231.3 322.5 234.5 324.5C237.7 326.5 238.833 327.667 239 328" stroke="#43090A" stroke-linecap="round"/>
<path d="M289 319C281.5 320.333 265.7 323.5 262.5 325.5C259.3 327.5 258.167 328.667 258 329" stroke="#43090A" stroke-linecap="round"/>
<g filter="url(#filter7_f_4154_2680)">
<ellipse cx="200.128" cy="227.79" rx="15.0061" ry="8.40391" transform="rotate(24.0529 200.128 227.79)" fill="#FFB9CF"/>
</g>
<g filter="url(#filter8_f_4154_2680)">
<ellipse cx="15.0061" cy="8.40391" rx="15.0061" ry="8.40391" transform="matrix(-0.913169 0.40758 0.40758 0.913169 316.406 213)" fill="#FFB9CF"/>
</g>
<path d="M235.5 350C237.111 341.717 243.833 337.5 246.5 336.5C257.5 341 258.965 351.483 259 359C259.038 367.103 251.03 371.233 244.5 370C238.657 368.897 233.589 359.829 235.5 350Z" fill="#D9142A"/>
<path d="M221.5 305C221.5 306.5 234.5 336.5 246.5 336.5M246.5 336.5C258.5 336.5 275.5 317 279 305.5M246.5 336.5C243.833 337.5 237.111 341.717 235.5 350C233.589 359.829 238.657 368.897 244.5 370C251.03 371.233 259.038 367.103 259 359C258.965 351.483 257.5 341 246.5 336.5Z" stroke="#43090A" stroke-width="3" stroke-linecap="round"/>
<defs>
<filter id="filter0_f_4154_2680" x="222.8" y="265.3" width="56.4" height="44.4" filterUnits="userSpaceOnUse" color-interpolation-filters="sRGB">
<feFlood flood-opacity="0" result="BackgroundImageFix"/>
<feBlend mode="normal" in="SourceGraphic" in2="BackgroundImageFix" result="shape"/>
<feGaussianBlur stdDeviation="4.85" result="effect1_foregroundBlur_4154_2680"/>
</filter>
<filter id="filter1_f_4154_2680" x="202.6" y="184.6" width="16.8" height="18.8" filterUnits="userSpaceOnUse" color-interpolation-filters="sRGB">
<feFlood flood-opacity="0" result="BackgroundImageFix"/>
<feBlend mode="normal" in="SourceGraphic" in2="BackgroundImageFix" result="shape"/>
<feGaussianBlur stdDeviation="2.2" result="effect1_foregroundBlur_4154_2680"/>
</filter>
<filter id="filter2_f_4154_2680" x="278.6" y="184.6" width="16.8" height="18.8" filterUnits="userSpaceOnUse" color-interpolation-filters="sRGB">
<feFlood flood-opacity="0" result="BackgroundImageFix"/>
<feBlend mode="normal" in="SourceGraphic" in2="BackgroundImageFix" result="shape"/>
<feGaussianBlur stdDeviation="2.2" result="effect1_foregroundBlur_4154_2680"/>
</filter>
<filter id="filter3_f_4154_2680" x="162.161" y="194.779" width="15.5387" height="24.9322" filterUnits="userSpaceOnUse" color-interpolation-filters="sRGB">
<feFlood flood-opacity="0" result="BackgroundImageFix"/>
<feBlend mode="normal" in="SourceGraphic" in2="BackgroundImageFix" result="shape"/>
<feGaussianBlur stdDeviation="0.85" result="effect1_foregroundBlur_4154_2680"/>
</filter>
<filter id="filter4_f_4154_2680" x="329.3" y="195.3" width="15.5387" height="24.9322" filterUnits="userSpaceOnUse" color-interpolation-filters="sRGB">
<feFlood flood-opacity="0" result="BackgroundImageFix"/>
<feBlend mode="normal" in="SourceGraphic" in2="BackgroundImageFix" result="shape"/>
<feGaussianBlur stdDeviation="0.85" result="effect1_foregroundBlur_4154_2680"/>
</filter>
<filter id="filter5_f_4154_2680" x="210.905" y="309.69" width="41.0562" height="33.6205" filterUnits="userSpaceOnUse" color-interpolation-filters="sRGB">
<feFlood flood-opacity="0" result="BackgroundImageFix"/>
<feBlend mode="normal" in="SourceGraphic" in2="BackgroundImageFix" result="shape"/>
<feGaussianBlur stdDeviation="5.4" result="effect1_foregroundBlur_4154_2680"/>
</filter>
<filter id="filter6_f_4154_2680" x="245.906" y="311.69" width="41.0562" height="33.6205" filterUnits="userSpaceOnUse" color-interpolation-filters="sRGB">
<feFlood flood-opacity="0" result="BackgroundImageFix"/>
<feBlend mode="normal" in="SourceGraphic" in2="BackgroundImageFix" result="shape"/>
<feGaussianBlur stdDeviation="5.4" result="effect1_foregroundBlur_4154_2680"/>
</filter>
<filter id="filter7_f_4154_2680" x="175.2" y="207.177" width="49.8561" height="41.2274" filterUnits="userSpaceOnUse" color-interpolation-filters="sRGB">
<feFlood flood-opacity="0" result="BackgroundImageFix"/>
<feBlend mode="normal" in="SourceGraphic" in2="BackgroundImageFix" result="shape"/>
<feGaussianBlur stdDeviation="5.4" result="effect1_foregroundBlur_4154_2680"/>
</filter>
<filter id="filter8_f_4154_2680" x="281.2" y="206.177" width="49.8561" height="41.2274" filterUnits="userSpaceOnUse" color-interpolation-filters="sRGB">
<feFlood flood-opacity="0" result="BackgroundImageFix"/>
<feBlend mode="normal" in="SourceGraphic" in2="BackgroundImageFix" result="shape"/>
<feGaussianBlur stdDeviation="5.4" result="effect1_foregroundBlur_4154_2680"/>
</filter>
<linearGradient id="paint0_linear_4154_2680" x1="500.5" y1="14.5" x2="285" y2="436" gradientUnits="userSpaceOnUse">
<stop offset="0.466387" stop-color="#FAE5EA"/>
<stop offset="1" stop-color="#FAF5F6"/>
</linearGradient>
<linearGradient id="paint1_linear_4154_2680" x1="9.05347" y1="18.5" x2="224.553" y2="440" gradientUnits="userSpaceOnUse">
<stop offset="0.466387" stop-color="#FAE5EA"/>
<stop offset="1" stop-color="#FAF5F6"/>
</linearGradient>
<linearGradient id="paint2_linear_4154_2680" x1="147.525" y1="398.174" x2="188.525" y2="250.674" gradientUnits="userSpaceOnUse">
<stop stop-color="#28337F"/>
<stop offset="1" stop-color="#485CE5"/>
</linearGradient>
<linearGradient id="paint3_linear_4154_2680" x1="358" y1="397.5" x2="317" y2="250" gradientUnits="userSpaceOnUse">
<stop stop-color="#28337F"/>
<stop offset="1" stop-color="#485CE5"/>
</linearGradient>
<linearGradient id="paint4_linear_4154_2680" x1="255.639" y1="247.991" x2="256" y2="401.5" gradientUnits="userSpaceOnUse">
<stop stop-color="#F7D3CE"/>
<stop offset="0.485577" stop-color="#FDECEA"/>
<stop offset="1" stop-color="#F7D3CE"/>
</linearGradient>
<linearGradient id="paint5_linear_4154_2680" x1="249.521" y1="352" x2="250" y2="504.5" gradientUnits="userSpaceOnUse">
<stop offset="0.197112" stop-color="white"/>
<stop offset="1" stop-color="#999999"/>
</linearGradient>
<linearGradient id="paint6_linear_4154_2680" x1="254.75" y1="88" x2="254.75" y2="344.353" gradientUnits="userSpaceOnUse">
<stop offset="0.187496" stop-color="#FB5598"/>
<stop offset="0.4375" stop-color="#FF96B9"/>
<stop offset="0.67308" stop-color="#FB5598"/>
</linearGradient>
<linearGradient id="paint7_linear_4154_2680" x1="254.75" y1="88" x2="254.75" y2="344.353" gradientUnits="userSpaceOnUse">
<stop offset="0.187496" stop-color="#FB5598"/>
<stop offset="0.4375" stop-color="#FF96B9"/>
<stop offset="0.67308" stop-color="#FB5598"/>
</linearGradient>
<linearGradient id="paint8_linear_4154_2680" x1="255" y1="102" x2="255" y2="370.5" gradientUnits="userSpaceOnUse">
<stop stop-color="#F7D3CE"/>
<stop offset="0.363375" stop-color="#FDECEA"/>
<stop offset="1" stop-color="#F7D3CE"/>
</linearGradient>
<linearGradient id="paint9_linear_4154_2680" x1="254" y1="18" x2="255" y2="345.24" gradientUnits="userSpaceOnUse">
<stop offset="0.26442" stop-color="#FB5598"/>
<stop offset="0.376176" stop-color="#FD8BB1"/>
<stop offset="0.461538" stop-color="#FB5598"/>
</linearGradient>
<linearGradient id="paint10_linear_4154_2680" x1="254" y1="18" x2="255" y2="345.24" gradientUnits="userSpaceOnUse">
<stop offset="0.26442" stop-color="#FB5598"/>
<stop offset="0.376176" stop-color="#FD8BB1"/>
<stop offset="0.461538" stop-color="#FB5598"/>
</linearGradient>
<linearGradient id="paint11_linear_4154_2680" x1="135.721" y1="247" x2="146.834" y2="453.319" gradientUnits="userSpaceOnUse">
<stop stop-color="#F7D3CE"/>
<stop offset="0.528847" stop-color="#FDECEA"/>
<stop offset="1" stop-color="#F7D3CE"/>
</linearGradient>
<linearGradient id="paint12_linear_4154_2680" x1="372.434" y1="251" x2="361.322" y2="457.319" gradientUnits="userSpaceOnUse">
<stop stop-color="#F7D3CE"/>
<stop offset="0.528847" stop-color="#FDECEA"/>
<stop offset="1" stop-color="#F7D3CE"/>
</linearGradient>
<linearGradient id="paint13_linear_4154_2680" x1="187" y1="448.49" x2="308.536" y2="448.49" gradientUnits="userSpaceOnUse">
<stop offset="0.173073" stop-color="#4D2E2C"/>
<stop offset="0.524039" stop-color="#694543"/>
<stop offset="0.879813" stop-color="#4D2E2C"/>
</linearGradient>
<linearGradient id="paint14_linear_4154_2680" x1="213.522" y1="183.508" x2="216.714" y2="219.212" gradientUnits="userSpaceOnUse">
<stop stop-color="#21719B"/>
<stop offset="1" stop-color="#6DBBDF"/>
</linearGradient>
<linearGradient id="paint15_linear_4154_2680" x1="291.911" y1="184.137" x2="288.719" y2="219.841" gradientUnits="userSpaceOnUse">
<stop stop-color="#21719B"/>
<stop offset="1" stop-color="#6DBBDF"/>
</linearGradient>
</defs>
</svg>
