<svg width="599" height="1098" viewBox="0 0 599 1098" fill="none" xmlns="http://www.w3.org/2000/svg">
<g clip-path="url(#clip0_2232_811)">
<path d="M94.8669 103.024C151.933 155.671 223.919 290.63 252.45 365.634C273.631 425.15 303.402 546.77 224.909 555.189C135.248 562.279 88.5805 345.461 70.5585 240.596C65.0204 208.372 55.7879 148.118 55.617 116.725C53.1418 58.1147 66.9646 77.2835 94.8669 103.024Z" fill="url(#paint0_linear_2232_811)" stroke="#471F1E" stroke-width="3"/>
<path d="M68.2065 679.117C91.0333 651.137 170.086 584.058 207.598 563.603C219.883 556.904 249.506 549.936 256.952 597.838C260.875 623.071 256.179 642.273 242.339 656.532C242.339 656.532 219.408 679.928 203.614 691.604C186.471 704.276 158.034 717.706 158.034 717.706C136.256 730.199 102.227 736.332 73.3591 729.765C36.6328 721.409 46.2565 706.022 68.2065 679.117Z" fill="url(#paint1_linear_2232_811)" stroke="#471F1E" stroke-width="3"/>
<path d="M500.494 107.728C435.628 159.423 351.865 293.248 318.059 367.822C292.854 427.024 256.352 548.237 343.29 558.041C442.668 566.71 500.625 350.505 523.604 245.857C530.665 213.699 542.622 153.55 543.699 122.13C548.104 63.508 532.21 82.4525 500.494 107.728Z" fill="url(#paint2_linear_2232_811)" stroke="#471F1E" stroke-width="3"/>
<path d="M515.889 684.378C491.108 656.05 404.435 587.712 362.983 566.638C349.407 559.736 316.41 552.264 306.699 599.948C301.583 625.067 306.297 644.316 321.4 658.792C321.4 658.792 346.428 682.546 363.795 694.476C382.643 707.425 414.127 721.328 414.127 721.328C438.175 734.179 476.133 740.895 508.67 734.844C550.064 727.146 539.719 711.618 515.889 684.378Z" fill="url(#paint3_linear_2232_811)" stroke="#471F1E" stroke-width="3"/>
<path d="M172.538 521.275C166.793 510.289 158.049 511.826 154.396 513.967L166.112 539.795C171.051 534.352 175.561 547.102 177.199 554.157L189.546 533.118C186.27 533.747 178.283 532.261 172.538 521.275Z" fill="#F9FCFF" stroke="#43090A" stroke-width="3"/>
<path d="M156.285 218.391C169.186 183.82 191.814 177.529 201.515 178.705L207.31 235.651C203.026 262.109 195.064 319.811 197.483 338.961C200.507 362.898 187.152 402.333 174.05 416.065C163.567 427.051 163.299 439.289 164.475 444.034C150.767 433.955 150.364 408.506 151.876 397.041C143.006 408.027 133.23 412.706 129.45 413.671C132.776 408.027 134.112 388.39 134.364 379.277C133.104 364.2 130.685 328.202 131.088 304.818C131.592 275.589 140.159 261.605 156.285 218.391Z" fill="url(#paint4_linear_2232_811)" stroke="#43090A" stroke-width="3"/>
<g filter="url(#filter0_f_2232_811)">
<path d="M151.876 329.004C155.706 373.553 136.632 403.084 131.844 411.4C138.395 409.384 150.364 398.297 153.64 392.753C149.86 422.234 157.797 435.715 162.837 441.007C162.127 437.457 163.467 430.424 166.49 424.376C169.853 417.651 173.098 416.172 177.325 410.014C181.414 404.058 185.947 393.542 187.404 390.108C190.932 381.793 193.325 371.336 195.467 360.375C195.467 360.375 189.42 348.28 188.916 346.642C187.891 343.311 185.565 355.386 183.751 366.674C181.483 380.785 179.845 387.588 171.782 400.061C165.331 410.039 161.703 418.077 160.695 420.849C157.293 420.723 160.065 386.706 160.695 366.296C161.199 349.968 155.026 334.631 151.876 329.004Z" fill="#FE3B8E"/>
</g>
<path d="M379.533 645.232C370.865 633.037 361.727 605.294 358.242 592.947L354.714 577.577L392.51 569.892C393.896 574.133 397.222 583.624 399.439 587.656C401.657 591.688 410.022 615.793 413.928 627.342C419.345 644.392 430.507 679.224 431.818 682.147C433.455 685.8 442.904 690.462 464.952 703.69C482.59 714.273 483.094 723.092 481.336 726.116C483.598 730.652 483.464 734.166 482.457 735.943C486.494 742.026 483.171 742.292 480.448 741.425C480.883 742.425 480.92 743.411 480.448 744.384C477.324 750.835 444.71 730.946 428.794 720.195C443.408 738.942 437.907 746.988 433.329 748.668C430.6 742.914 422.898 729.921 413.928 723.974C404.957 718.028 403.471 700.583 403.849 692.603C399.355 681.895 388.201 657.428 379.533 645.232Z" fill="url(#paint5_linear_2232_811)"/>
<path d="M461.802 725.486C464.574 727.124 477.284 734.136 480.448 741.425M480.448 741.425C480.883 742.425 480.92 743.411 480.448 744.384C477.324 750.835 444.71 730.946 428.794 720.195C443.408 738.942 437.907 746.988 433.329 748.668C430.6 742.914 422.898 729.921 413.928 723.974C404.957 718.028 403.471 700.583 403.849 692.603C399.355 681.895 388.201 657.428 379.533 645.232C370.865 633.037 361.727 605.294 358.242 592.947L354.714 577.577L392.51 569.892C393.896 574.133 397.222 583.624 399.439 587.656C401.657 591.688 410.022 615.793 413.928 627.342C419.345 644.392 430.507 679.224 431.818 682.147C433.455 685.8 442.904 690.462 464.952 703.69C482.59 714.273 483.094 723.092 481.336 726.116M480.448 741.425C483.17 742.292 486.494 742.026 482.457 735.943M466.212 719.061C467.346 720.069 467.976 719.565 478.307 730.652C480.229 732.714 481.511 734.518 482.457 735.943M482.457 735.943C483.465 734.166 483.598 730.652 481.336 726.116M471.125 716.541C480.312 722.468 478.999 721.717 481.336 726.116" stroke="#43090A" stroke-width="3"/>
<path d="M449.708 718.053C449.906 718.203 450.095 718.347 450.276 718.487C453.69 721.065 456.989 723.829 460.463 726.35C460.648 726.488 460.84 726.631 461.04 726.778C461.548 725.917 462.057 725.056 462.565 724.195C462.34 724.091 462.123 723.992 461.914 723.897C458.009 722.167 454.254 720.179 450.355 718.359C450.147 718.262 449.932 718.16 449.708 718.053Z" fill="#43090A"/>
<path d="M455.881 713.518C456.037 713.635 456.205 713.747 456.37 713.854C457.496 714.578 458.706 715.223 459.778 715.929C461.549 717.162 463.402 718.512 464.929 719.872C465.052 719.988 465.18 720.117 465.217 720.184C465.88 719.435 466.544 718.687 467.207 717.938C466.953 717.751 466.762 717.647 466.563 717.537C464.437 716.455 462.426 715.676 460.299 714.886C458.983 714.439 457.706 714.137 456.435 713.719C456.25 713.658 456.061 713.591 455.881 713.518Z" fill="#43090A"/>
<path d="M461.928 711.88C462.065 711.986 462.21 712.086 462.355 712.182C463.452 712.901 464.658 713.518 465.674 714.215C467.12 715.249 468.578 716.374 469.953 717.492C470.081 717.598 470.212 717.707 470.312 717.801C470.854 716.961 471.397 716.121 471.939 715.281C471.754 715.192 471.588 715.121 471.421 715.049C469.69 714.33 468.007 713.679 466.246 713.071C464.927 712.649 463.672 712.424 462.419 712.047C462.254 711.996 462.089 711.942 461.928 711.88Z" fill="#43090A"/>
<path d="M208.642 459.779C204.812 451.715 194.585 448.356 190.05 447.684C186.69 454.739 177.322 470.79 165.933 478.551C151.696 488.252 152.452 487.118 153.838 498.961C154.946 508.435 155.644 512.399 155.854 513.197C160.137 512.441 169.712 513.097 173.744 521.765C177.775 530.432 187.266 533.103 191.508 533.355L201.839 515.339L208.642 459.779Z" fill="url(#paint6_linear_2232_811)" stroke="#43090A" stroke-width="3"/>
<path d="M187.908 876.419C182.163 860.696 170.354 796.837 165.482 768.448L242.46 774.117C242.166 792.889 243.387 830.177 243.846 832.702C244.35 835.473 249.977 856.639 251.909 867.474C253.559 873.084 256.137 951.395 253.439 1008.08C253.047 1016.31 252.543 1024.1 251.909 1031.13C251.909 1031.13 237.85 1034.82 228.658 1034.79C219.66 1034.76 206.233 1031.26 206.233 1031.26V1028.11C205.981 1022.19 205.241 1015.39 204.546 1008.08C200.025 960.501 192.888 890.047 187.908 876.419Z" fill="url(#paint7_linear_2232_811)" stroke="#43090A" stroke-width="3" stroke-linecap="round"/>
<path d="M252.161 1030.75C237.143 1038.11 214.995 1034.45 206.302 1031.38V1055.57C220.412 1061.42 242.082 1057.09 251.153 1054.19L252.161 1030.75Z" fill="#1E2D7B" stroke="#43090A" stroke-width="3" stroke-linecap="round"/>
<path d="M205.709 1056.79C204.45 1059.05 192.859 1090.93 180.386 1100.13C178.283 1101.68 176.113 1103.41 173.961 1105.26C177.11 1119.47 188.197 1115.5 209.993 1104.41C227.429 1095.54 244.644 1068.45 250.271 1055.52C250.714 1055.52 250.839 1055.43 250.848 1055.35C250.824 1055.32 250.799 1055.3 250.775 1055.27C236.501 1062.26 214.35 1059.2 205.709 1056.79Z" fill="#FFDFDD"/>
<path d="M153.929 1134.02C154.811 1143.09 160.858 1159.21 196.638 1151.15C205.709 1147.25 225.615 1136.08 232.67 1122.68V1129.35C240.062 1130.82 255.071 1130.11 255.978 1115.5C257.087 1097.62 263.715 1068.85 250.848 1055.35C250.839 1055.43 250.714 1055.52 250.271 1055.52C244.644 1068.45 227.429 1095.54 209.993 1104.41C188.197 1115.5 177.11 1119.47 173.961 1105.26C163.349 1114.4 153.196 1126.47 153.929 1134.02Z" fill="#1F2B7A"/>
<path d="M173.961 1105.26C176.113 1103.41 178.283 1101.68 180.386 1100.13C192.859 1090.93 204.45 1059.05 205.709 1056.79C214.35 1059.2 236.501 1062.26 250.775 1055.27M173.961 1105.26C163.349 1114.4 153.196 1126.47 153.929 1134.02C154.811 1143.09 160.858 1159.21 196.638 1151.15C205.709 1147.25 225.615 1136.08 232.67 1122.68V1129.35C240.062 1130.82 255.071 1130.11 255.978 1115.5C257.087 1097.62 263.715 1068.85 250.848 1055.35M173.961 1105.26C177.11 1119.47 188.197 1115.5 209.993 1104.41C227.429 1095.54 244.644 1068.45 250.271 1055.52C250.714 1055.52 250.839 1055.43 250.848 1055.35M250.775 1055.27C250.799 1055.3 250.824 1055.32 250.848 1055.35M250.775 1055.27C250.62 1055.11 250.86 1055.23 250.848 1055.35" stroke="#43090A" stroke-width="3" stroke-linecap="round"/>
<path d="M346.021 1033.9C344.761 1028.74 312.887 937.901 295.752 894.561C288.769 876.896 284.186 857.017 283.658 840.513C282.966 818.893 286.121 799.845 283.658 794.023L351.312 776.259C349.548 799.777 351.615 861.905 373.99 922.279C396.365 982.652 386.84 1030.38 386.84 1030.38C386.84 1030.38 379.785 1039.57 346.021 1033.9Z" fill="url(#paint8_linear_2232_811)" stroke="#43090A" stroke-width="3"/>
<g filter="url(#filter1_f_2232_811)">
<path d="M240.948 816.827L173.923 804.228C170.648 783.944 164.6 773.613 171.908 754.841L240.318 782.307L240.948 816.827Z" fill="url(#paint9_linear_2232_811)"/>
<path d="M348.667 804.984L286.555 812.04C286.806 793.648 286.474 781.644 289.957 754.841L349.675 755.975L348.667 804.984Z" fill="url(#paint10_linear_2232_811)"/>
</g>
<path d="M212.853 454.883C194.207 469.094 197.189 501.456 201.011 515.861C217.347 523.084 263.324 535.967 316.54 529.719C319.993 516.639 326.75 499.043 330.777 489.403C300.943 444.653 239.73 447.744 212.853 454.883Z" fill="url(#paint11_linear_2232_811)"/>
<path d="M393.014 720.842C378.299 671.758 334.472 581.878 314.398 543.074C256.042 558.293 209.449 538.832 193.448 527.2C145.053 601.916 117.668 686.477 109.797 720.842C144.569 766.5 218.187 776.907 250.649 776.403C348.717 774.286 386.421 738.481 393.014 720.842Z" fill="url(#paint12_linear_2232_811)"/>
<path d="M314.398 543.074C314.187 540.109 315.059 535.329 316.54 529.719C263.324 535.967 217.347 523.084 201.011 515.861C198.435 519.61 195.914 523.392 193.448 527.2C209.449 538.832 256.042 558.293 314.398 543.074Z" fill="url(#paint13_linear_2232_811)"/>
<path d="M201.011 515.861C197.189 501.456 194.207 469.094 212.853 454.883C239.731 447.744 300.943 444.653 330.777 489.403C326.75 499.043 319.993 516.639 316.54 529.719M201.011 515.861C217.347 523.084 263.324 535.967 316.54 529.719M201.011 515.861C198.435 519.61 195.914 523.392 193.448 527.2M314.398 543.074C334.472 581.878 378.299 671.758 393.014 720.842C386.421 738.481 348.717 774.286 250.649 776.403C218.187 776.907 144.569 766.5 109.797 720.842C117.668 686.477 145.053 601.916 193.448 527.2M314.398 543.074C314.187 540.109 315.059 535.329 316.54 529.719M314.398 543.074C256.042 558.293 209.449 538.832 193.448 527.2" stroke="#43090A" stroke-width="3"/>
<g filter="url(#filter2_f_2232_811)">
<path d="M344.131 544.003C335.563 545.198 358.116 562.458 367.186 564.096C375.124 566.238 380.289 564.978 380.792 559.813C382.64 552.925 384.724 542.416 380.289 540.602C375.854 538.787 367.438 550.345 363.785 556.35C357.032 547.682 352.698 542.808 344.131 544.003Z" fill="#171F6A"/>
</g>
<g filter="url(#filter3_f_2232_811)">
<path d="M373.612 543.794C376.132 540.033 382.557 540.039 382.557 545.179C382.557 550.32 380.667 557.69 381.045 559.435" stroke="#1C174C" stroke-opacity="0.47" stroke-width="3" stroke-linecap="round"/>
</g>
<rect x="207.31" y="194.449" width="55.686" height="37.7962" fill="#FE368F"/>
<path d="M182.392 244.847C192.471 222.572 233.509 218.263 251.442 218.893C330.964 212.644 338.666 265.761 332.577 293.1C351.979 256.816 379.444 276.47 374.908 300.155C371.28 319.104 347.359 327.537 335.852 329.384C332.29 343.868 323.634 355.331 312.652 364.283C309.96 376.923 306.193 404.369 312.652 413.037C320.725 423.872 355.12 431.18 362.049 444.534C367.592 455.218 371.078 467.884 372.128 472.881C367.214 478.971 351.793 489.965 329.418 485.228C299.081 445.92 240.262 447.432 214.645 453.101L208.471 457.763C207.06 454.739 198.14 449.532 193.857 447.306C196.293 442.686 201.945 431.885 205.07 425.636C208.975 417.825 246.771 417.069 258.11 410.266C267.181 404.823 262.729 393.663 259.37 388.764C252.211 390.444 245.634 391.486 240.229 392C234.181 388.43 215.219 378.334 202.685 364.283C187.062 346.771 188.817 320.815 188.817 320.815C188.817 320.815 169.794 272.69 182.392 244.847Z" fill="url(#paint14_linear_2232_811)"/>
<path d="M312.652 364.283C323.634 355.331 332.29 343.868 335.852 329.384C347.359 327.537 371.28 319.104 374.908 300.155C379.444 276.47 351.979 256.816 332.577 293.1C338.666 265.761 330.964 212.644 251.442 218.893C233.509 218.263 192.471 222.572 182.392 244.847C169.794 272.69 188.817 320.815 188.817 320.815C188.817 320.815 187.062 346.771 202.685 364.283C215.219 378.334 234.181 388.43 240.229 392C245.634 391.486 252.211 390.444 259.37 388.764M312.652 364.283C309.96 376.923 306.193 404.369 312.652 413.037C320.725 423.872 355.12 431.18 362.049 444.534C367.592 455.218 371.078 467.884 372.128 472.881C367.214 478.971 351.793 489.965 329.418 485.228C299.081 445.92 240.262 447.432 214.645 453.101L208.471 457.763C207.06 454.739 198.14 449.532 193.857 447.306C196.293 442.686 201.945 431.885 205.07 425.636C208.975 417.825 246.771 417.069 258.11 410.266C267.181 404.823 262.729 393.663 259.37 388.764M312.652 364.283C296.951 377.08 276.496 384.745 259.37 388.764" stroke="#43090A" stroke-width="3"/>
<g filter="url(#filter4_f_2232_811)">
<path d="M212.915 434.031C207.017 440.003 199.226 442.917 193.778 444.916C195.017 442.472 196.821 438.772 199.202 434.528C200.823 431.639 201.991 428.877 203.696 425.822C208.36 421.69 214.902 420.756 221.755 419.211C220.054 423.639 218.353 428.525 212.915 434.031Z" fill="#FEC1BF"/>
</g>
<g filter="url(#filter5_f_2232_811)">
<path d="M365.297 460.031C348.947 458.653 333.801 436.757 333.8 428.03C339.258 430.02 349.399 435.067 355.318 441.045C360.775 446.557 363.582 455.59 365.297 460.031Z" fill="#FEC1BF"/>
</g>
<g filter="url(#filter6_f_2232_811)">
<path d="M260.494 353.805C260.978 356.147 258.092 361.243 251.333 362.64C244.575 364.036 238.568 361.765 238.084 359.423C240.223 359.871 243.358 360.967 250.07 359.688C256.877 357.392 258.016 355.53 260.494 353.805Z" fill="#FF93BD"/>
</g>
<g filter="url(#filter7_f_2232_811)">
<ellipse cx="1.60625" cy="0.730382" rx="1.60625" ry="0.730382" transform="matrix(0.898325 -0.439331 0.439325 0.898328 255.185 358.836)" fill="white"/>
</g>
<g filter="url(#filter8_f_2232_811)">
<path d="M259.247 352.21C257.627 353.43 255.161 356.584 248.467 358.145C241.917 358.914 240.6 358.165 237.719 357.453C239.677 357.482 243.674 354.05 247.447 353.129C254.137 351.496 256.768 352.312 259.247 352.21Z" fill="#FF93BD"/>
</g>
<path d="M231.751 355.965C238.135 360.039 254.001 363.726 266.398 345.886" stroke="#43090A" stroke-width="3" stroke-linecap="round"/>
<path d="M232.885 218.513L223.301 200.787C217.254 209.774 206.419 238.054 211.458 279.277C206.856 276.589 198.317 264.983 196.62 246.448C195.959 266.184 176.02 292.511 163.206 302.458C160.308 292.505 163.895 266.968 173.672 247.616C166.112 249.884 152.332 266.216 147.709 275.875C147.163 265.502 149.725 240.019 164.34 221.071C178.954 202.122 193.275 187.054 198.609 181.888C202.348 178.017 211.286 173.066 222.008 177.353C228.487 173.388 249.834 166.37 283.397 170.02C290.067 170.115 293.874 173.425 297.003 174.581C297.688 174.834 298.673 175.403 299.901 176.248C307.529 173.895 324.188 171.157 338.453 175.556C356.091 171.367 396.255 174.606 415.808 221.071C435.362 267.535 432.355 307.96 428.407 322.364C427.189 342.774 426.542 386.442 433.698 397.831C442.644 412.067 470.235 446.966 459.652 463.596C458.56 455.197 451.841 436.937 433.698 431.092C415.556 425.246 400.69 411.606 395.525 405.516C398.825 413.493 406.141 428.934 410.536 430.887C410.831 430.96 411.119 431.029 411.399 431.092C411.127 431.092 410.839 431.021 410.536 430.887C398.057 427.776 372.759 415.196 364.784 387.626C356.62 359.405 358.947 330.176 361.13 319.089C366.086 314.343 375.115 300.997 371.587 285.576C358.283 258.363 329.004 294.395 329.004 294.395C329.004 294.395 329.004 274.363 327.969 271.214C327.087 274.543 326.006 277.236 324.972 279.151C313.281 275.22 283.649 249.292 278.087 238.961C278.904 243.237 280.095 247.521 281.885 251.182C284.314 256.148 291.546 264.284 291.546 264.284C291.546 264.284 298.199 270.779 300.279 273.103C262.483 261.638 248.498 218.257 244.845 198.645L232.885 218.513Z" fill="url(#paint15_linear_2232_811)"/>
<path d="M195.719 236.403C195.695 237.522 196.317 240.413 196.34 241.48M196.34 241.48C196.809 262.908 206.458 276.356 211.458 279.277C206.419 238.054 217.254 209.774 223.301 200.787L232.885 218.513L244.845 198.645C248.498 218.257 262.483 261.638 300.279 273.103C298.199 270.779 291.546 264.284 291.546 264.284C291.546 264.284 284.314 256.148 281.885 251.182C280.095 247.521 278.904 243.237 278.087 238.961M196.34 241.48C199.468 261.499 177.131 291.649 163.206 302.458C160.308 292.505 163.895 266.968 173.672 247.616C166.112 249.884 152.332 266.216 147.709 275.875C147.163 265.502 149.725 240.019 164.34 221.071C178.954 202.122 193.275 187.054 198.609 181.888C202.348 178.017 211.286 173.066 222.008 177.353M230.986 183.022C227.909 180.329 224.894 178.507 222.008 177.353M276.215 222.456C276.513 226.691 276.914 232.817 278.087 238.961M278.087 238.961C283.649 249.292 313.281 275.22 324.972 279.151C326.006 277.236 327.087 274.543 327.969 271.214M320.437 221.071C321.797 223.535 322.981 225.974 324.008 228.378M324.008 228.378C331.973 232.451 350.27 245.588 355.209 255.465C355.461 251.475 353.067 239.011 341.476 221.071C328.806 201.459 308.458 182.136 299.901 176.248M324.008 228.378C331.44 245.777 330.59 261.309 327.969 271.214M262.861 177.353C271.89 171.656 278.435 169.948 283.397 170.02M222.008 177.353C228.487 173.388 249.834 166.37 283.397 170.02M283.397 170.02C290.067 170.115 293.874 173.425 297.003 174.581C297.688 174.834 298.673 175.403 299.901 176.248M299.901 176.248C307.529 173.895 324.188 171.157 338.453 175.556M371.587 285.576C380.961 272.574 379.44 243.958 377.509 231.276C373.645 217.669 362.063 188.188 346.642 179.117C344.069 177.603 341.309 176.437 338.453 175.556M371.587 285.576C358.283 258.363 329.004 294.395 329.004 294.395C329.004 294.395 329.004 274.363 327.969 271.214M371.587 285.576C375.115 300.997 366.086 314.343 361.13 319.089C358.947 330.176 356.62 359.405 364.784 387.626C372.948 415.847 399.262 428.362 411.399 431.092C407.166 431.092 399.052 414.041 395.525 405.516C400.69 411.606 415.556 425.246 433.698 431.092C451.841 436.937 458.56 455.197 459.652 463.596C470.235 446.966 442.644 412.067 433.698 397.831C426.542 386.442 427.189 342.774 428.407 322.364C432.355 307.96 435.361 267.535 415.808 221.071C396.255 174.606 356.091 171.367 338.453 175.556" stroke="#43090A" stroke-width="3"/>
<g filter="url(#filter9_f_2232_811)">
<path d="M395.426 403.588C381.693 383.052 397.064 351.808 397.694 350.674C396.308 369.824 400.321 409.51 412.794 418.959C405.361 413.919 398.281 407.326 395.426 403.588Z" fill="#FE3A8E"/>
</g>
<g filter="url(#filter10_f_2232_811)">
<path d="M378.056 377.076C369.341 351.108 370.588 307.334 370.588 307.334C370.588 307.334 368.447 311.618 366.935 314.137C365.519 316.496 362.399 319.681 362.399 319.681C361.895 325.098 356.73 340.847 364.163 379.021C365.633 386.57 367.768 392.797 370.587 398.171C380.037 416.187 397.674 425.006 406.115 428.03C395.784 423.368 385.283 398.612 378.056 377.076Z" fill="#FE3A8E"/>
</g>
<path d="M394.53 721.864L410.153 728.667C410.027 734.085 406.726 746.129 394.53 750.967C393.27 754.075 389.063 760.315 382.31 760.416C380.924 764.448 372.508 773.267 349.931 776.291C348.251 777.971 342.296 781.481 331.915 782.086C326.078 788.175 310.926 797.734 297.017 787.252C295.046 790.871 288.604 796.222 277.237 793.078C272.03 794.202 259.448 795.29 250.78 790.653C244.648 794.979 229.287 801.035 216.889 790.653C217.014 790.297 217.148 789.79 217.272 789.141C213.239 790.065 202.426 790.326 191.44 783.976C182.453 784.69 161.682 784.253 150.495 776.795C151.039 775.988 151.751 774.789 152.536 773.267C143.587 766.243 136.863 764.797 134.62 764.952C120.288 767.976 112.606 756.329 110.557 750.128C102.725 746.478 92.1603 738.455 92.4149 725.896C97.0344 723.838 107.831 715.048 112.064 716.761C123.652 729.89 141.797 745.506 159.687 753.046C171.629 758.078 183.798 762.914 197.487 765.869C215.218 769.696 234.029 771.732 252.922 771.85C259.561 771.892 266.211 771.696 272.827 771.258C279.811 770.796 286.757 770.064 293.615 769.055C304.309 767.482 314.658 765.941 324.729 762.999C329.752 761.531 335.43 759.902 340.226 758.085C350.886 754.047 361.557 750.293 370.714 744.479C374.299 742.203 377.999 738.844 381.297 736.289C386.628 732.16 390.056 726.737 394.53 721.864Z" fill="url(#paint16_linear_2232_811)"/>
<path d="M394.53 750.967C406.726 746.129 410.027 734.085 410.153 728.667L394.53 721.864C390.056 726.737 386.628 732.16 381.297 736.289M394.53 750.967C393.27 754.075 389.063 760.315 382.31 760.416M394.53 750.967C394.824 747.998 393.795 741.646 381.297 736.289M382.31 760.416C380.924 764.448 372.508 773.267 349.931 776.291M382.31 760.416C381.974 757.909 380.189 752.708 370.714 744.479M349.931 776.291C348.251 777.971 342.296 781.481 331.915 782.086M349.931 776.291C349.049 772.538 346.374 764.216 340.226 758.085M331.915 782.086C326.078 788.175 310.926 797.734 297.017 787.252M331.915 782.086C332.251 778.593 331.18 770.449 324.729 762.999M297.017 787.252C295.046 790.871 288.604 796.222 277.237 793.078M297.017 787.252C297.185 784.486 296.74 776.974 293.615 769.055M277.237 793.078C275.283 792.538 273.184 791.747 270.938 790.653C272.197 786.794 274.339 777.513 272.827 771.258M277.237 793.078C272.03 794.202 259.448 795.29 250.78 790.653M250.78 790.653C244.649 794.979 229.287 801.035 216.889 790.653C217.014 790.297 217.148 789.79 217.272 789.141M250.78 790.653C252.208 787.063 254.635 778.276 252.922 771.85M216.889 774.905C218.103 781.538 217.774 786.505 217.272 789.141M217.272 789.141C213.239 790.065 202.426 790.326 191.44 783.976M191.44 783.976C182.453 784.69 161.682 784.253 150.495 776.795C151.039 775.988 151.751 774.789 152.536 773.267M191.44 783.976L197.487 765.869M159.687 753.046C141.797 745.506 123.652 729.89 112.064 716.761C107.831 715.048 97.0344 723.838 92.4149 725.896C92.1603 738.455 102.725 746.478 110.557 750.128M159.687 753.046C158.493 761.106 154.78 768.916 152.536 773.267M159.687 753.046C171.629 758.078 183.798 762.914 197.487 765.869M125.045 738.998C122.022 741.224 115.697 746.885 114.589 751.723C113.401 751.345 112.027 750.814 110.557 750.128M110.557 750.128C112.606 756.329 120.288 767.976 134.62 764.952M139.66 750.128C138.862 753.978 136.737 762.331 134.62 764.952M134.62 764.952C136.863 764.797 143.587 766.243 152.536 773.267M197.487 765.869C215.218 769.696 234.029 771.732 252.922 771.85M252.922 771.85C259.561 771.892 266.211 771.696 272.827 771.258M272.827 771.258C279.811 770.796 286.757 770.064 293.615 769.055M293.615 769.055C304.309 767.482 314.658 765.941 324.729 762.999M324.729 762.999C329.752 761.531 335.43 759.902 340.226 758.085M340.226 758.085C350.886 754.047 361.557 750.293 370.714 744.479M370.714 744.479C374.299 742.203 377.999 738.844 381.297 736.289" stroke="#43090A" stroke-width="3" stroke-linecap="round"/>
<path d="M387.219 1030.75C376.031 1038.51 355.218 1035.42 345.895 1033.9L350.683 1056.08C360.635 1059.02 382.154 1062.35 388.604 1052.17L387.219 1030.75Z" fill="#1E2D7B" stroke="#43090A" stroke-width="3"/>
<path d="M350.68 1055.57C351.898 1075.35 348.636 1098.07 365.042 1114.16C371.468 1120.46 383.646 1119.52 389.987 1099.54C395.026 1083.67 388.13 1060.74 388.713 1051.67C379.73 1062.75 359.615 1058.89 350.68 1055.57Z" fill="#FFDFDD"/>
<path d="M350.68 1055.57C351.1 1066.87 348.034 1095.01 346.759 1100.68C345.416 1106.65 337.833 1148.26 346.759 1153.34C350.305 1155.36 400.933 1174.63 403.327 1136.58C405.242 1106.14 394.382 1067.29 388.713 1051.67C388.13 1060.74 395.026 1083.67 389.987 1099.54C383.646 1119.52 371.468 1120.46 365.042 1114.16C348.636 1098.07 351.898 1075.35 350.68 1055.57Z" fill="#1F2B7A"/>
<path d="M350.68 1055.57C351.1 1066.87 348.034 1095.01 346.759 1100.68C345.416 1106.65 337.833 1148.26 346.759 1153.34C350.305 1155.36 400.933 1174.63 403.327 1136.58C405.242 1106.14 394.382 1067.29 388.713 1051.67M350.68 1055.57C351.898 1075.35 348.636 1098.07 365.042 1114.16C371.468 1120.46 383.646 1119.52 389.987 1099.54C395.026 1083.67 388.13 1060.74 388.713 1051.67M350.68 1055.57C359.615 1058.89 379.73 1062.75 388.713 1051.67" stroke="#43090A" stroke-width="3"/>
<g filter="url(#filter11_f_2232_811)">
<path d="M354.084 752.574C354.084 752.574 312.131 599.121 287.185 548.852L311.501 544.568C323.344 564.096 372.478 669.548 389.486 720.573C381.297 740.227 354.084 752.574 354.084 752.574Z" fill="#172471"/>
</g>
<g filter="url(#filter12_f_2232_811)">
<path d="M290.572 523.024C269 527.5 226.761 514.737 212.249 509.796C210.133 509.075 207.251 505.638 207.251 505.638C207.251 505.638 200.926 480.72 203 472.5C199.474 479.555 198.339 499.759 203 514.5C224.999 526.92 283.496 533.858 315.14 528.694C317.839 519.255 326.805 494.164 327.108 494.551L326.352 486.11C326.344 485.592 321.134 479.43 319.927 478.551C322.447 501.229 310.066 518.98 290.572 523.024Z" fill="#B4B6C2"/>
</g>
<path d="M226.206 456.292C226.311 456.508 226.535 455.648 226.679 455.794C226.823 455.939 226.784 456.406 226.982 456.327C227.181 456.248 227.322 456.59 227.43 456.411C227.538 456.232 227.468 456.809 227.602 456.697C227.736 456.585 227.797 456.67 227.873 456.871C227.949 457.072 228.241 457.275 228.386 457.06C228.531 456.846 228.607 457.263 228.672 457.368C228.692 457.401 228.706 457.444 228.715 457.488C228.719 457.506 228.716 457.544 228.711 457.581C228.711 457.581 228.711 457.581 228.711 457.581C228.705 457.626 228.694 457.671 228.686 457.675C228.643 457.698 228.575 457.764 228.484 457.921C228.314 458.213 228.346 457.869 228.152 458.004C227.958 458.14 227.811 458.443 227.636 458.21C227.461 457.977 227.297 458.83 227.077 458.304C226.857 457.777 226.704 458.672 226.402 458.753C226.1 458.833 225.808 458.288 225.63 458.305C225.452 458.323 225.207 458.396 224.979 458.244C224.751 458.092 224.409 458.35 224.169 458.102C223.929 457.853 223.584 457.534 223.433 457.33C223.282 457.127 223.244 457.081 223.06 457.167C222.954 457.217 222.828 457.139 222.747 456.892C222.706 456.768 222.741 456.607 222.809 456.538C222.908 456.436 222.967 456.521 223.037 456.324C223.179 455.931 223.237 455.78 223.314 456.031C223.391 456.282 223.515 455.753 223.571 455.823C223.626 455.894 223.581 456.21 223.938 456.01C224.294 455.811 224.48 455.773 224.61 455.732C224.741 455.69 224.959 455.999 225.172 455.927C225.385 455.856 225.778 456.002 225.963 455.862C226.149 455.722 226.101 456.076 226.206 456.292ZM232.19 457.111C232.295 457.327 232.519 456.467 232.663 456.613C232.807 456.758 232.768 457.225 232.967 457.146C233.165 457.067 233.306 457.409 233.414 457.23C233.523 457.051 233.452 457.628 233.587 457.516C233.721 457.404 233.781 457.489 233.857 457.69C233.934 457.891 234.225 458.093 234.37 457.879C234.516 457.665 234.591 458.082 234.656 458.187C234.677 458.22 234.69 458.263 234.699 458.307C234.703 458.325 234.701 458.363 234.696 458.4C234.696 458.4 234.696 458.4 234.696 458.4C234.689 458.445 234.679 458.49 234.67 458.494C234.627 458.517 234.559 458.583 234.468 458.74C234.298 459.032 234.331 458.688 234.137 458.823C233.942 458.959 233.795 459.262 233.62 459.029C233.445 458.796 233.281 459.649 233.061 459.123C232.842 458.596 232.688 459.491 232.386 459.572C232.085 459.652 231.792 459.107 231.614 459.124C231.437 459.142 231.191 459.215 230.963 459.063C230.736 458.911 230.394 459.169 230.153 458.921C229.913 458.672 229.569 458.353 229.417 458.149C229.266 457.946 229.229 457.9 229.044 457.986C228.938 458.036 228.812 457.958 228.731 457.711C228.69 457.587 228.725 457.426 228.793 457.357C228.892 457.255 228.951 457.34 229.022 457.143C229.164 456.75 229.222 456.599 229.298 456.85C229.375 457.101 229.5 456.572 229.555 456.642C229.61 456.713 229.566 457.029 229.922 456.829C230.279 456.63 230.464 456.592 230.595 456.55C230.725 456.509 230.943 456.818 231.156 456.746C231.369 456.675 231.762 456.821 231.948 456.681C232.133 456.541 232.085 456.895 232.19 457.111ZM222.623 493.154C222.394 494.574 223.271 495.688 223.202 497.391C223.149 499.104 222.691 499.398 222.975 501.347C223.266 503.296 223.279 505.278 223.641 506.103C224.002 506.923 223.443 507.125 223.865 508.315C224.294 509.487 224.435 510.226 224.598 511.314C224.724 512.421 225.913 515.597 226.761 516.525C227.548 517.468 227.98 518.825 228.422 519.558C228.556 519.784 228.652 519.972 228.718 520.122C228.745 520.186 228.736 520.234 228.707 520.257C228.707 520.257 228.707 520.257 228.707 520.257C228.671 520.286 228.605 520.277 228.546 520.212C228.261 519.899 227.818 519.444 227.253 518.914C226.218 517.91 226.408 517.6 225.382 515.997C224.394 514.371 223.637 513.401 223.129 511.195C222.679 508.993 221.67 508.695 221.568 505.466C221.559 502.268 220.635 502.063 220.298 498.892C219.982 495.721 220.602 491.746 220.688 489.864C220.759 487.973 220.878 485.426 221.35 482.785C221.814 480.15 222.07 476.837 222.888 473.989C223.687 471.136 224.975 467.182 225.684 465.39C226.391 463.581 226.561 463.162 227.017 461.366C227.278 460.345 227.804 458.981 228.452 457.894C228.772 457.367 228.878 457.55 228.741 458.151C228.534 459.053 228.227 459.716 228.267 460.234C228.355 461.256 228.384 461.67 227.805 462.718C227.228 463.771 227.591 464.46 227.34 465.097C227.096 465.749 226.758 465.633 226.119 469.075C225.503 472.524 225.203 474.384 224.998 475.696C224.796 476.989 224.032 479.651 223.831 481.792C223.6 483.922 223.068 488.245 223.15 490.003C223.215 491.757 222.863 491.741 222.623 493.154ZM278.799 500.701C278.206 501.986 278.714 503.312 278.031 504.911C277.339 506.497 276.816 506.579 276.193 508.447C275.561 510.321 274.444 511.98 274.231 512.856C274.017 513.732 273.462 513.555 272.999 514.72C272.533 515.873 272.081 516.512 271.364 517.338C270.658 518.201 268.657 520.839 268.048 521.912C267.465 523.017 266.225 523.785 265.576 524.303C265.374 524.467 265.202 524.58 265.062 524.657C265.002 524.69 264.955 524.684 264.929 524.657C264.929 524.657 264.929 524.657 264.929 524.657C264.897 524.624 264.898 524.559 264.954 524.497C265.223 524.193 265.599 523.708 265.961 523.063C266.605 521.87 266.979 521.985 267.949 520.464C268.895 518.924 269.223 517.868 270.481 516.167C271.718 514.427 271.193 513.621 272.911 511.15C274.586 508.631 273.868 507.972 274.789 505.168C275.699 502.358 277.234 498.901 277.649 497.146C278.074 495.397 278.542 493.03 279.175 490.558C279.814 488.083 280.065 484.927 280.675 482.169C281.302 479.407 281.994 475.466 282.318 473.633C282.647 471.801 282.719 471.347 282.706 469.569C282.697 468.535 282.81 467.161 283.063 465.95C283.189 465.367 283.351 465.496 283.42 466.095C283.518 467.001 283.416 467.7 283.602 468.181C283.974 469.1 284.111 469.533 283.807 470.652C283.498 471.808 283.997 472.363 283.882 473.047C283.759 473.718 283.474 473.685 283.367 477.115C283.241 480.544 283.012 482.434 282.879 483.722C282.743 485.032 282.025 487.651 281.706 489.755C281.412 491.863 280.344 496.048 280.034 497.772C279.736 499.499 279.387 499.409 278.799 500.701ZM316.195 506.822C315.611 507.958 316.108 509.199 315.41 510.617C314.705 512.014 314.189 512.041 313.535 513.694C312.873 515.346 311.731 516.754 311.504 517.53C311.275 518.308 310.733 518.093 310.259 519.105C309.776 520.119 309.332 520.648 308.621 521.34C307.922 522.05 305.988 524.304 305.442 525.269C304.915 526.249 303.773 526.898 303.192 527.364C303.01 527.511 302.854 527.613 302.725 527.684C302.671 527.714 302.625 527.707 302.599 527.681C302.599 527.681 302.599 527.681 302.598 527.681C302.566 527.649 302.563 527.587 302.612 527.528C302.849 527.245 303.177 526.796 303.487 526.212C304.059 525.115 304.411 525.252 305.322 523.903C306.217 522.545 306.54 521.597 307.786 520.158C309.013 518.695 308.527 517.888 310.258 515.825C311.953 513.707 311.272 513.028 312.212 510.584C313.146 508.132 314.64 505.127 315.014 503.56C315.401 502.005 315.794 499.902 316.289 497.693C316.792 495.484 316.804 492.664 317.107 490.189C317.446 487.711 317.535 484.147 317.451 482.501C317.445 482.323 317.439 482.164 317.432 482.019L317.605 482.297C316.646 481.456 316.269 481.164 315.044 480.421C314.255 479.943 313.253 479.164 312.512 478.356C312.139 477.95 312.333 477.886 312.822 478.135C313.536 478.498 314.025 478.936 314.477 479.004C315.38 479.14 315.754 479.212 316.46 480C317.165 480.788 317.874 480.626 318.33 481.023C318.368 481.057 318.402 481.089 318.433 481.122L318.75 481.321L318.851 481.792C318.818 482.278 318.694 482.565 319.11 485.38C319.516 488.481 319.457 490.218 319.46 491.392C319.459 492.581 318.961 495.009 318.764 496.919C318.608 498.843 317.685 502.649 317.393 504.207C317.123 505.769 316.772 505.676 316.195 506.822ZM270.21 460.652C270.569 460.887 270.951 460.037 271.4 460.206C271.849 460.374 271.874 460.846 272.411 460.792C272.949 460.737 273.447 461.106 273.7 460.937C273.954 460.769 273.923 461.349 274.269 461.253C274.615 461.156 274.81 461.251 275.084 461.467C275.358 461.683 276.24 461.929 276.588 461.729C276.936 461.53 277.27 461.966 277.484 462.082C277.551 462.119 277.602 462.164 277.64 462.211C277.656 462.23 277.661 462.268 277.657 462.305C277.657 462.305 277.657 462.305 277.657 462.305C277.653 462.351 277.636 462.395 277.613 462.399C277.499 462.416 277.326 462.475 277.113 462.623C276.718 462.899 276.711 462.551 276.202 462.664C275.693 462.776 275.365 463.067 274.804 462.805C274.243 462.543 274.027 463.394 273.253 462.826C272.48 462.258 272.307 463.154 271.478 463.196C270.649 463.238 269.665 462.641 269.168 462.635C268.672 462.629 268 462.671 267.313 462.485C266.625 462.299 265.734 462.517 264.984 462.231C264.233 461.945 263.168 461.572 262.682 461.344C262.196 461.115 262.077 461.063 261.581 461.127C261.297 461.163 260.919 461.067 260.617 460.803C260.465 460.671 260.517 460.511 260.689 460.449C260.94 460.358 261.13 460.453 261.273 460.261C261.559 459.878 261.679 459.732 261.969 459.998C262.258 460.265 262.457 459.741 262.633 459.82C262.809 459.9 262.776 460.217 263.724 460.061C264.673 459.904 265.186 459.891 265.542 459.865C265.898 459.84 266.603 460.186 267.184 460.141C267.764 460.096 268.917 460.298 269.4 460.18C269.884 460.062 269.851 460.417 270.21 460.652Z" fill="#43090A"/>
<path d="M258 411C256.099 417.611 254.212 428.933 262.803 432.644M263.232 432.817C263.086 432.762 262.943 432.705 262.803 432.644M262.803 432.644C272.185 432.408 294.804 428.055 310.225 412.534" stroke="#43090A" stroke-width="3"/>
<path d="M262.616 433.322C245.948 433.163 236.111 456.007 249.01 462.425C261.91 468.843 273.092 446.433 262.616 433.322Z" fill="url(#paint17_linear_2232_811)" stroke="#43090A" stroke-width="3"/>
<g filter="url(#filter13_f_2232_811)">
<path d="M262.365 433.951C258.334 433.573 256.956 437.498 259.216 438.865C261.477 440.231 264.356 437.601 262.365 433.951Z" fill="white"/>
</g>
<path d="M211.342 322.659C202.631 320.096 194.586 308.254 192.57 301.493C190.176 296.453 193.704 281.965 207.814 287.13C221.925 292.296 226.712 305.146 225.957 314.847C225.201 324.548 215.626 323.918 211.342 322.659Z" fill="url(#paint18_linear_2232_811)"/>
<path d="M193.325 302.878C188.176 295.566 185.771 291.479 182.113 284.232C184.956 284.784 186.64 285.368 189.798 286.878C191.562 283.098 196.055 281.839 200.129 281.839C207.814 281.839 218.117 285.431 223.94 298.217C230.299 312.179 226.662 322.767 220.79 323.414C215.373 324.012 213.861 323.632 208.948 321.822C215.751 323.208 225.578 324.391 225.578 314.595C225.578 302.364 218.775 294.689 214.365 291.54C209.956 288.39 202.774 287.382 196.979 288.894C192.343 290.103 192.612 298.721 193.325 302.878Z" fill="#48130B"/>
<path d="M210.334 312.706C206.405 306.473 205.014 293.791 208.065 286.878C213.608 287.987 219.153 292.926 221.042 295.697C223.478 302.417 227.484 316.37 224.066 318.501C218.893 321.727 214.264 318.941 210.334 312.706Z" fill="url(#paint19_linear_2232_811)" stroke="#43090A" stroke-width="3"/>
<path d="M214.635 280.094C214.539 281.089 214.443 282.084 214.348 283.08C214.547 283.074 214.773 283.089 215.005 283.12C219.381 284.023 224.054 287.701 225.731 292.588C225.818 292.864 225.894 293.145 225.956 293.43C225.943 293.138 225.917 292.846 225.878 292.555C224.944 287.296 221.222 282.615 215.689 280.354C215.358 280.246 215.004 280.154 214.635 280.094Z" fill="#43090A"/>
<path d="M278.171 270.387C278.217 271.386 278.264 272.385 278.31 273.384C278.124 273.365 277.792 273.407 277.477 273.475C271.329 275.507 264.576 279.659 261.003 285.755C260.835 286.122 260.697 286.496 260.602 286.878C260.648 286.487 260.739 286.093 260.863 285.701C263.849 278.975 269.672 274.087 276.667 270.743C277.1 270.591 277.583 270.443 278.171 270.387Z" fill="#43090A"/>
<g filter="url(#filter14_f_2232_811)">
<path d="M261.5 410.5L307 394.5C307 394.5 307.119 387.175 307.5 382.5C307.915 377.4 309.127 369.5 309.127 369.5C286.5 385 262.5 390 262.5 390C262.5 390 269.563 403.067 261.5 410.5Z" fill="#F2BAC4"/>
<path d="M261.5 410.5L307 394.5C307 394.5 307.119 387.175 307.5 382.5C307.915 377.4 309.127 369.5 309.127 369.5C286.5 385 262.5 390 262.5 390C262.5 390 269.563 403.067 261.5 410.5Z" stroke="#FDD8DE" stroke-width="3"/>
</g>
<path d="M275.972 316.359C268.024 314.128 265.726 301.703 265.516 295.949C268.942 284.762 277.442 278.773 281.264 277.177C293.653 276.463 315.737 279.632 311.879 299.603C307.091 324.381 288.224 319.799 275.972 316.359Z" fill="url(#paint20_linear_2232_811)"/>
<path d="M231.499 328.202L225.956 333.493" stroke="#43090A" stroke-width="3" stroke-linecap="round"/>
<path d="M279.25 295.571C279.204 284.467 285.97 280.327 290.337 279.571C294.621 278.941 308.353 283.854 307.975 297.713C307.597 311.571 302.186 317.104 293.739 317.493C284.352 317.925 279.307 309.155 279.25 295.571Z" fill="url(#paint21_linear_2232_811)" stroke="#43090A" stroke-width="3" stroke-linecap="round"/>
<path d="M283.658 278.815C275.393 278.714 267.616 291.455 264.76 297.839C268.993 276.774 282.65 272.431 288.949 272.893C299.834 272.289 309.695 279.529 313.265 283.224H325.233L311.753 298.721C306.461 282.09 293.989 278.941 283.658 278.815Z" fill="#43090A" stroke="#43090A" stroke-width="3" stroke-linecap="round"/>
<g filter="url(#filter15_f_2232_811)">
<path d="M302.991 296.321C303.005 296.402 303.018 296.484 303.031 296.566C304.068 303.331 300.957 309.437 296.007 310.268C290.998 311.109 286.003 306.228 284.851 299.366C283.699 292.504 286.826 286.26 291.835 285.419C296.844 284.578 301.839 289.459 302.991 296.321Z" fill="#3B93C1"/>
<path d="M284.851 299.366C283.699 292.504 286.826 286.26 291.835 285.419C296.844 284.578 301.839 289.459 302.991 296.321C303.005 296.402 303.018 296.484 303.031 296.566C307.422 298.653 306.226 302.971 306.226 303.475C306.492 299.128 308.328 294.827 303.958 288.23C300.919 283.644 295.938 280.413 290.702 280.872C285.578 281.321 282.458 284.64 280.905 291.379C278.962 299.808 282.207 307.48 283.548 310.268C283.007 306.823 282.287 301.803 284.851 299.366Z" fill="#3B93C1"/>
</g>
<g filter="url(#filter16_f_2232_811)">
<path d="M303.413 292.424C304.894 296.55 304.156 300.591 301.763 301.45C299.371 302.309 301.383 297.811 299.902 293.685C298.42 289.559 294.006 287.369 296.399 286.51C298.791 285.651 301.931 288.299 303.413 292.424Z" fill="white"/>
</g>
<path d="M372.352 474.141C362.273 487.345 338.924 487.79 328.509 486.362C329.517 499.465 331.432 527.182 331.029 533.229C330.625 539.277 330.861 549.776 331.029 554.269C334.682 558.511 343.501 567.725 349.549 570.648L350.934 567.246C355.428 569.262 364.944 571.681 367.061 565.23C372.478 567.204 383.615 569.085 384.825 560.821C387.974 559.285 392.483 556.444 396.168 552.758C400.344 548.579 403.461 543.315 402.337 537.639C399.691 524.284 375.754 492.787 372.352 474.141Z" fill="url(#paint22_linear_2232_811)"/>
<path d="M367.061 565.23C364.944 571.681 355.428 569.262 350.934 567.246C350.472 572.16 348.868 582.465 346.147 584.38C347.323 587.992 353.656 593.855 369.58 588.412C374.452 591.73 386.437 594.611 395.408 579.593C401.161 578.543 412.92 573.621 413.928 562.333C409.185 561.115 398.993 557.495 396.168 552.758C392.483 556.444 387.974 559.285 384.825 560.821C383.615 569.085 372.478 567.204 367.061 565.23Z" fill="#E8EDF6"/>
<path d="M350.934 567.246L349.549 570.648C343.501 567.725 334.682 558.511 331.029 554.269C330.861 549.776 330.625 539.277 331.029 533.229C331.432 527.182 329.517 499.465 328.509 486.362C338.924 487.79 362.273 487.345 372.352 474.141C375.754 492.787 399.691 524.284 402.337 537.639C403.461 543.315 400.344 548.579 396.168 552.758M350.934 567.246C355.428 569.262 364.944 571.681 367.061 565.23C372.478 567.204 383.615 569.085 384.825 560.821C387.974 559.285 392.483 556.444 396.168 552.758M350.934 567.246C350.472 572.16 348.868 582.465 346.147 584.38C347.323 587.992 353.656 593.855 369.58 588.412M369.58 588.412C369.79 584.223 369.958 574.806 368.95 570.648M369.58 588.412C374.452 591.73 386.437 594.611 395.408 579.593M395.408 579.593C394.19 576.359 390.67 569.211 386.337 566.49M395.408 579.593C401.161 578.543 412.92 573.621 413.928 562.333C409.185 561.115 398.993 557.495 396.168 552.758" stroke="#43090A" stroke-width="3"/>
<path d="M183.121 271.173C186.48 267.477 196.853 260.262 211.468 260.968M256.949 260.968C264.13 254.794 283.733 245.9 304.697 259.708" stroke="black" stroke-width="3" stroke-linecap="round"/>
<g filter="url(#filter17_f_2232_811)">
<path d="M349.801 299.271C348.821 294.234 358.848 293.835 361.265 293.853C353.303 273.695 342.073 292.425 337.454 304.31C344.207 306.024 342.955 315.103 341.611 319.429C350.191 314.835 351.212 306.532 349.801 299.271Z" fill="#F7BDCE"/>
</g>
<path d="M362.147 293.144C358.955 284.829 349.473 275.305 337.076 303.727C340.477 306.037 345.618 312.698 338.966 320.862M349.548 300.074C351.9 301.922 353.857 308.464 342.871 319.854" stroke="#43090A" stroke-width="3" stroke-linecap="round"/>
<g filter="url(#filter18_f_2232_811)">
<ellipse cx="200.759" cy="870.876" rx="10.5829" ry="7.68523" fill="#FED1D0"/>
</g>
<g filter="url(#filter19_f_2232_811)">
<ellipse cx="13.3519" cy="5.79541" rx="13.3519" ry="5.79541" transform="matrix(0.842125 0.539282 -0.539276 0.842129 193.655 319.177)" fill="#FED1D0"/>
</g>
<g filter="url(#filter20_f_2232_811)">
<ellipse cx="14.1078" cy="5.79541" rx="14.1078" ry="5.79541" transform="matrix(0.844241 -0.535964 0.535957 0.844245 298.524 326.236)" fill="#FED1D0"/>
</g>
<g filter="url(#filter21_f_2232_811)">
<ellipse cx="301.296" cy="868.23" rx="10.5829" ry="7.81122" fill="#FED1D0"/>
</g>
<g filter="url(#filter22_f_2232_811)">
<ellipse cx="402.337" cy="318.673" rx="2.26776" ry="4.0316" fill="white"/>
</g>
<g filter="url(#filter23_f_2232_811)">
<ellipse cx="2.26776" cy="1.51185" rx="2.26776" ry="1.51185" transform="matrix(0.937678 -0.347505 0.3475 0.93768 412.032 316.279)" fill="white"/>
</g>
<g filter="url(#filter24_f_2232_811)">
<ellipse cx="2.14177" cy="1.09324" rx="2.14177" ry="1.09324" transform="matrix(0.966473 -0.256769 0.256765 0.966474 352.194 202.998)" fill="white"/>
</g>
<g filter="url(#filter25_f_2232_811)">
<ellipse cx="423.251" cy="314.767" rx="2.26776" ry="7.43326" fill="white"/>
</g>
<g filter="url(#filter26_f_2232_811)">
<ellipse cx="1.86933" cy="2.73995" rx="1.86933" ry="2.73995" transform="matrix(0.858062 0.513546 -0.513539 0.858066 184.675 210.969)" fill="white"/>
</g>
<g filter="url(#filter27_f_2232_811)">
<ellipse cx="2.14177" cy="4.66153" rx="2.14177" ry="4.66153" transform="matrix(0.966473 -0.256769 0.256765 0.966474 355.857 198.069)" fill="white"/>
</g>
<g filter="url(#filter28_f_2232_811)">
<ellipse cx="2.26957" cy="1.34989" rx="2.26957" ry="1.34989" transform="matrix(0.965471 0.26051 -0.260506 0.965472 147.54 321.696)" fill="white"/>
</g>
<g filter="url(#filter29_f_2232_811)">
<ellipse cx="1.86933" cy="5.09407" rx="1.86933" ry="5.09407" transform="matrix(0.858062 0.513546 -0.513539 0.858066 181.045 206.434)" fill="white"/>
</g>
<g filter="url(#filter30_f_2232_811)">
<ellipse cx="139.573" cy="327.479" rx="2.26957" ry="6.01907" transform="rotate(-0.40252 139.573 327.479)" fill="white"/>
</g>
<g opacity="0.67" filter="url(#filter31_f_2232_811)">
<path d="M172.916 497.141C170.9 494.823 164.265 505.582 161.199 511.252C164.727 511.056 170.018 514.961 171.278 516.347C172.664 511.056 174.931 499.459 172.916 497.141Z" fill="#251D53"/>
</g>
<g filter="url(#filter32_f_2232_811)">
<path d="M218.899 299.604C218.908 299.659 218.917 299.714 218.926 299.769C219.639 304.341 218.034 308.386 215.301 308.845C212.536 309.309 209.662 305.925 208.883 301.285C208.104 296.646 209.715 292.509 212.481 292.044C215.246 291.58 218.12 294.964 218.899 299.604Z" fill="#3B93C1"/>
<path d="M208.883 301.285C208.104 296.646 209.715 292.509 212.481 292.044C215.246 291.58 218.12 294.964 218.899 299.604C218.908 299.659 218.917 299.714 218.926 299.769C221.408 301.262 222.914 306.645 222.924 306.984C222.272 304.565 220.113 296.506 219.9 296.528C216.545 292.278 213.989 290.752 208.883 288.716C208.883 288.716 207.542 291.339 207.68 295.898C207.854 301.631 209.761 307.409 209.948 309.252C209.578 306.924 207.508 302.873 208.883 301.285Z" fill="#3B93C1"/>
</g>
<g filter="url(#filter33_f_2232_811)">
<path d="M218.629 299.532C219.524 302.026 219.078 304.468 217.632 304.988C216.185 305.507 217.402 302.788 216.506 300.294C215.611 297.8 212.942 296.475 214.389 295.956C215.835 295.437 217.733 297.038 218.629 299.532Z" fill="white"/>
</g>
<g filter="url(#filter34_f_2232_811)">
<path d="M222.309 529.301C207.865 560.841 164.479 650.124 168.385 693.196C161.595 658.279 203.948 549.13 222.309 529.301Z" fill="#181D53"/>
</g>
<g filter="url(#filter35_f_2232_811)">
<path d="M244.644 541.547C240.549 575.995 227.301 644.472 234.944 686.159C223.4 659.74 233.235 566.045 244.644 541.547Z" fill="#181D53"/>
</g>
<g filter="url(#filter36_f_2232_811)">
<path d="M270.264 538.177C273.453 572.721 284.897 641.523 276.163 682.994C288.396 656.887 281.026 562.967 270.264 538.177Z" fill="#181D53"/>
</g>
<g filter="url(#filter37_f_2232_811)">
<path d="M288.997 540.818C299.609 571.811 334.805 645.782 334.334 684.995C325.991 639.844 292.023 563.421 288.997 540.818Z" fill="#181D53"/>
</g>
<path d="M316.162 529.576C277.86 534.957 211.216 521.009 200.632 515.717L193.768 526.68C211.566 539.679 260.559 561.492 314.146 544.76L316.162 529.576Z" fill="url(#paint23_linear_2232_811)" stroke="#43090A" stroke-width="3"/>
<path d="M136.227 478.826C140.013 488.211 156.515 519.64 156.515 519.64C156.515 519.64 163.036 531.931 164.884 536.712C164.884 536.712 167.926 534.993 172.159 538.29C172.159 538.29 175.039 542.632 176.221 545.72C176.739 547.075 177.342 549.262 177.342 549.262C175.207 556.558 165.83 571.334 160.18 574.322C142.396 583.292 124.528 549.185 124.528 549.185C124.528 549.185 113.893 523.634 111.601 514.569L100.737 482.467L88.9172 449.293C86.8465 447.285 80.3838 444.012 77.4079 441.478C73.1503 437.853 69.4517 430.501 66.599 423.388C64.5103 418.18 61.2107 417.097 59.3699 417.262C54.7947 418.705 39.827 410.157 34.5201 404.451C29.2132 398.746 31.9254 390.23 38.8496 395.575C45.7738 400.919 56.8955 402.952 58.4039 402.85C69.2664 406.668 68.1529 401.987 66.2384 399.169C59.5897 391.028 45.9649 372.874 44.6549 365.386C43.3448 357.897 48.8507 357.655 51.7674 358.469C52.6174 360.475 56.7706 367.933 66.5841 381.72C76.3976 395.508 77.4919 395.005 76.8123 393.03C70.4058 382.222 57.4713 358.794 56.986 351.554C56.5007 344.313 61.5199 343.842 64.0901 344.511C66.6229 349.645 73.6926 363.44 81.7094 377.55C89.7262 391.66 93.6121 391.862 94.553 390.2C89.5151 386.623 83.1108 358.894 82.6292 347.941C82.2439 339.178 86.7862 340.886 89.1055 342.835C91.8929 349.256 98.5485 365.789 102.871 380.551C107.194 395.312 113.017 400.669 115.387 401.503C117.011 400.336 118.521 399.401 119.748 398.739L126.231 388.076C135.11 377.38 138.801 387.234 138.801 387.234C138.801 387.234 127.717 405.73 128.042 415.103C128.367 424.476 124.423 434.581 122.41 438.462C125.629 457.843 132.963 473.447 136.227 478.826Z" fill="url(#paint24_linear_2232_811)"/>
<path d="M167.896 546.278C167.484 543.929 166.004 540.552 164.884 536.712M101.419 421.054C102.364 412.785 109.595 405.666 115.387 401.503M115.387 401.503C117.011 400.336 118.521 399.401 119.748 398.739L126.231 388.076C135.11 377.38 138.801 387.234 138.801 387.234C138.801 387.234 127.717 405.73 128.042 415.103C128.367 424.476 124.423 434.581 122.41 438.462C125.629 457.843 132.963 473.447 136.227 478.826C140.013 488.211 156.515 519.64 156.515 519.64C156.515 519.64 163.036 531.931 164.884 536.712M115.387 401.503C113.017 400.669 107.194 395.312 102.871 380.551C98.5485 365.789 91.8929 349.256 89.1055 342.835C86.7862 340.886 82.2439 339.178 82.6292 347.941C83.1108 358.894 89.5151 386.623 94.553 390.2C93.6121 391.862 89.7262 391.66 81.7094 377.55C73.6926 363.44 66.6229 349.645 64.0901 344.511C61.5199 343.842 56.5007 344.313 56.986 351.554C57.4713 358.794 70.4058 382.222 76.8123 393.03C77.4919 395.005 76.3976 395.508 66.5841 381.72C56.7706 367.933 52.6174 360.475 51.7674 358.469C48.8507 357.655 43.3448 357.897 44.6549 365.386C45.9649 372.874 59.5897 391.028 66.2384 399.169C68.1529 401.987 69.2664 406.668 58.4039 402.85C56.8955 402.952 45.7738 400.919 38.8496 395.575C31.9254 390.23 29.2132 398.746 34.5201 404.451C39.827 410.157 54.7947 418.705 59.3699 417.262C61.2107 417.097 64.5103 418.18 66.599 423.388C69.4517 430.501 73.1503 437.853 77.4079 441.478C80.3838 444.012 86.8465 447.285 88.9172 449.293L100.737 482.467L111.601 514.569C113.893 523.634 124.528 549.185 124.528 549.185C124.528 549.185 142.396 583.292 160.18 574.322C165.83 571.334 175.207 556.558 177.342 549.262C177.342 549.262 176.739 547.075 176.221 545.72C175.039 542.632 172.159 538.29 172.159 538.29C167.926 534.993 164.884 536.712 164.884 536.712" stroke="#43090A" stroke-width="3"/>
</g>
<defs>
<filter id="filter0_f_2232_811" x="125.944" y="323.104" width="75.4232" height="123.803" filterUnits="userSpaceOnUse" color-interpolation-filters="sRGB">
<feFlood flood-opacity="0" result="BackgroundImageFix"/>
<feBlend mode="normal" in="SourceGraphic" in2="BackgroundImageFix" result="shape"/>
<feGaussianBlur stdDeviation="2.95" result="effect1_foregroundBlur_2232_811"/>
</filter>
<filter id="filter1_f_2232_811" x="145.651" y="732.041" width="226.824" height="107.586" filterUnits="userSpaceOnUse" color-interpolation-filters="sRGB">
<feFlood flood-opacity="0" result="BackgroundImageFix"/>
<feBlend mode="normal" in="SourceGraphic" in2="BackgroundImageFix" result="shape"/>
<feGaussianBlur stdDeviation="11.4" result="effect1_foregroundBlur_2232_811"/>
</filter>
<filter id="filter2_f_2232_811" x="329.224" y="527.411" width="66.7085" height="50.6818" filterUnits="userSpaceOnUse" color-interpolation-filters="sRGB">
<feFlood flood-opacity="0" result="BackgroundImageFix"/>
<feBlend mode="normal" in="SourceGraphic" in2="BackgroundImageFix" result="shape"/>
<feGaussianBlur stdDeviation="6.5" result="effect1_foregroundBlur_2232_811"/>
</filter>
<filter id="filter3_f_2232_811" x="368.912" y="536.428" width="18.3452" height="27.7069" filterUnits="userSpaceOnUse" color-interpolation-filters="sRGB">
<feFlood flood-opacity="0" result="BackgroundImageFix"/>
<feBlend mode="normal" in="SourceGraphic" in2="BackgroundImageFix" result="shape"/>
<feGaussianBlur stdDeviation="1.6" result="effect1_foregroundBlur_2232_811"/>
</filter>
<filter id="filter4_f_2232_811" x="150.678" y="376.111" width="114.177" height="111.905" filterUnits="userSpaceOnUse" color-interpolation-filters="sRGB">
<feFlood flood-opacity="0" result="BackgroundImageFix"/>
<feBlend mode="normal" in="SourceGraphic" in2="BackgroundImageFix" result="shape"/>
<feGaussianBlur stdDeviation="21.55" result="effect1_foregroundBlur_2232_811"/>
</filter>
<filter id="filter5_f_2232_811" x="290.7" y="384.93" width="117.697" height="118.201" filterUnits="userSpaceOnUse" color-interpolation-filters="sRGB">
<feFlood flood-opacity="0" result="BackgroundImageFix"/>
<feBlend mode="normal" in="SourceGraphic" in2="BackgroundImageFix" result="shape"/>
<feGaussianBlur stdDeviation="21.55" result="effect1_foregroundBlur_2232_811"/>
</filter>
<filter id="filter6_f_2232_811" x="219.484" y="335.205" width="59.6618" height="46.4622" filterUnits="userSpaceOnUse" color-interpolation-filters="sRGB">
<feFlood flood-opacity="0" result="BackgroundImageFix"/>
<feBlend mode="normal" in="SourceGraphic" in2="BackgroundImageFix" result="shape"/>
<feGaussianBlur stdDeviation="9.3" result="effect1_foregroundBlur_2232_811"/>
</filter>
<filter id="filter7_f_2232_811" x="250.27" y="352.623" width="13.357" height="12.3272" filterUnits="userSpaceOnUse" color-interpolation-filters="sRGB">
<feFlood flood-opacity="0" result="BackgroundImageFix"/>
<feBlend mode="normal" in="SourceGraphic" in2="BackgroundImageFix" result="shape"/>
<feGaussianBlur stdDeviation="2.6" result="effect1_foregroundBlur_2232_811"/>
</filter>
<filter id="filter8_f_2232_811" x="219.119" y="333.495" width="58.7281" height="43.5745" filterUnits="userSpaceOnUse" color-interpolation-filters="sRGB">
<feFlood flood-opacity="0" result="BackgroundImageFix"/>
<feBlend mode="normal" in="SourceGraphic" in2="BackgroundImageFix" result="shape"/>
<feGaussianBlur stdDeviation="9.3" result="effect1_foregroundBlur_2232_811"/>
</filter>
<filter id="filter9_f_2232_811" x="383.938" y="344.874" width="34.6555" height="79.8852" filterUnits="userSpaceOnUse" color-interpolation-filters="sRGB">
<feFlood flood-opacity="0" result="BackgroundImageFix"/>
<feBlend mode="normal" in="SourceGraphic" in2="BackgroundImageFix" result="shape"/>
<feGaussianBlur stdDeviation="2.9" result="effect1_foregroundBlur_2232_811"/>
</filter>
<filter id="filter10_f_2232_811" x="352.684" y="299.834" width="60.931" height="135.696" filterUnits="userSpaceOnUse" color-interpolation-filters="sRGB">
<feFlood flood-opacity="0" result="BackgroundImageFix"/>
<feBlend mode="normal" in="SourceGraphic" in2="BackgroundImageFix" result="shape"/>
<feGaussianBlur stdDeviation="3.75" result="effect1_foregroundBlur_2232_811"/>
</filter>
<filter id="filter11_f_2232_811" x="244.685" y="502.068" width="187.301" height="293.005" filterUnits="userSpaceOnUse" color-interpolation-filters="sRGB">
<feFlood flood-opacity="0" result="BackgroundImageFix"/>
<feBlend mode="normal" in="SourceGraphic" in2="BackgroundImageFix" result="shape"/>
<feGaussianBlur stdDeviation="21.25" result="effect1_foregroundBlur_2232_811"/>
</filter>
<filter id="filter12_f_2232_811" x="191.915" y="464.5" width="143.193" height="73.9172" filterUnits="userSpaceOnUse" color-interpolation-filters="sRGB">
<feFlood flood-opacity="0" result="BackgroundImageFix"/>
<feBlend mode="normal" in="SourceGraphic" in2="BackgroundImageFix" result="shape"/>
<feGaussianBlur stdDeviation="4" result="effect1_foregroundBlur_2232_811"/>
</filter>
<filter id="filter13_f_2232_811" x="252.932" y="428.726" width="15.3016" height="15.7058" filterUnits="userSpaceOnUse" color-interpolation-filters="sRGB">
<feFlood flood-opacity="0" result="BackgroundImageFix"/>
<feBlend mode="normal" in="SourceGraphic" in2="BackgroundImageFix" result="shape"/>
<feGaussianBlur stdDeviation="2.6" result="effect1_foregroundBlur_2232_811"/>
</filter>
<filter id="filter14_f_2232_811" x="241.923" y="348.007" width="87.511" height="82.2082" filterUnits="userSpaceOnUse" color-interpolation-filters="sRGB">
<feFlood flood-opacity="0" result="BackgroundImageFix"/>
<feBlend mode="normal" in="SourceGraphic" in2="BackgroundImageFix" result="shape"/>
<feGaussianBlur stdDeviation="9.15" result="effect1_foregroundBlur_2232_811"/>
</filter>
<filter id="filter15_f_2232_811" x="269.8" y="270.329" width="47.5343" height="50.5338" filterUnits="userSpaceOnUse" color-interpolation-filters="sRGB">
<feFlood flood-opacity="0" result="BackgroundImageFix"/>
<feBlend mode="normal" in="SourceGraphic" in2="BackgroundImageFix" result="shape"/>
<feGaussianBlur stdDeviation="5.25" result="effect1_foregroundBlur_2232_811"/>
</filter>
<filter id="filter16_f_2232_811" x="287.402" y="278.048" width="25.0752" height="31.8087" filterUnits="userSpaceOnUse" color-interpolation-filters="sRGB">
<feFlood flood-opacity="0" result="BackgroundImageFix"/>
<feBlend mode="normal" in="SourceGraphic" in2="BackgroundImageFix" result="shape"/>
<feGaussianBlur stdDeviation="4.15" result="effect1_foregroundBlur_2232_811"/>
</filter>
<filter id="filter17_f_2232_811" x="333.454" y="280.949" width="31.8113" height="42.4794" filterUnits="userSpaceOnUse" color-interpolation-filters="sRGB">
<feFlood flood-opacity="0" result="BackgroundImageFix"/>
<feBlend mode="normal" in="SourceGraphic" in2="BackgroundImageFix" result="shape"/>
<feGaussianBlur stdDeviation="2" result="effect1_foregroundBlur_2232_811"/>
</filter>
<filter id="filter18_f_2232_811" x="165.476" y="838.49" width="70.5658" height="64.7705" filterUnits="userSpaceOnUse" color-interpolation-filters="sRGB">
<feFlood flood-opacity="0" result="BackgroundImageFix"/>
<feBlend mode="normal" in="SourceGraphic" in2="BackgroundImageFix" result="shape"/>
<feGaussianBlur stdDeviation="12.35" result="effect1_foregroundBlur_2232_811"/>
</filter>
<filter id="filter19_f_2232_811" x="156.7" y="289.158" width="90.1464" height="84.1989" filterUnits="userSpaceOnUse" color-interpolation-filters="sRGB">
<feFlood flood-opacity="0" result="BackgroundImageFix"/>
<feBlend mode="normal" in="SourceGraphic" in2="BackgroundImageFix" result="shape"/>
<feGaussianBlur stdDeviation="16.7" result="effect1_foregroundBlur_2232_811"/>
</filter>
<filter id="filter20_f_2232_811" x="267.829" y="281.16" width="91.4234" height="84.8145" filterUnits="userSpaceOnUse" color-interpolation-filters="sRGB">
<feFlood flood-opacity="0" result="BackgroundImageFix"/>
<feBlend mode="normal" in="SourceGraphic" in2="BackgroundImageFix" result="shape"/>
<feGaussianBlur stdDeviation="16.7" result="effect1_foregroundBlur_2232_811"/>
</filter>
<filter id="filter21_f_2232_811" x="266.013" y="835.719" width="70.5658" height="65.0224" filterUnits="userSpaceOnUse" color-interpolation-filters="sRGB">
<feFlood flood-opacity="0" result="BackgroundImageFix"/>
<feBlend mode="normal" in="SourceGraphic" in2="BackgroundImageFix" result="shape"/>
<feGaussianBlur stdDeviation="12.35" result="effect1_foregroundBlur_2232_811"/>
</filter>
<filter id="filter22_f_2232_811" x="396.269" y="310.841" width="12.1355" height="15.6632" filterUnits="userSpaceOnUse" color-interpolation-filters="sRGB">
<feFlood flood-opacity="0" result="BackgroundImageFix"/>
<feBlend mode="normal" in="SourceGraphic" in2="BackgroundImageFix" result="shape"/>
<feGaussianBlur stdDeviation="1.9" result="effect1_foregroundBlur_2232_811"/>
</filter>
<filter id="filter23_f_2232_811" x="408.693" y="311.487" width="11.9817" height="10.8445" filterUnits="userSpaceOnUse" color-interpolation-filters="sRGB">
<feFlood flood-opacity="0" result="BackgroundImageFix"/>
<feBlend mode="normal" in="SourceGraphic" in2="BackgroundImageFix" result="shape"/>
<feGaussianBlur stdDeviation="1.9" result="effect1_foregroundBlur_2232_811"/>
</filter>
<filter id="filter24_f_2232_811" x="349.656" y="199.513" width="9.77834" height="7.98275" filterUnits="userSpaceOnUse" color-interpolation-filters="sRGB">
<feFlood flood-opacity="0" result="BackgroundImageFix"/>
<feBlend mode="normal" in="SourceGraphic" in2="BackgroundImageFix" result="shape"/>
<feGaussianBlur stdDeviation="1.4" result="effect1_foregroundBlur_2232_811"/>
</filter>
<filter id="filter25_f_2232_811" x="417.183" y="303.534" width="12.1355" height="22.4665" filterUnits="userSpaceOnUse" color-interpolation-filters="sRGB">
<feFlood flood-opacity="0" result="BackgroundImageFix"/>
<feBlend mode="normal" in="SourceGraphic" in2="BackgroundImageFix" result="shape"/>
<feGaussianBlur stdDeviation="1.9" result="effect1_foregroundBlur_2232_811"/>
</filter>
<filter id="filter26_f_2232_811" x="180.038" y="209.04" width="9.66746" height="10.4804" filterUnits="userSpaceOnUse" color-interpolation-filters="sRGB">
<feFlood flood-opacity="0" result="BackgroundImageFix"/>
<feBlend mode="normal" in="SourceGraphic" in2="BackgroundImageFix" result="shape"/>
<feGaussianBlur stdDeviation="1.35" result="effect1_foregroundBlur_2232_811"/>
</filter>
<filter id="filter27_f_2232_811" x="353.932" y="194.685" width="10.383" height="14.6783" filterUnits="userSpaceOnUse" color-interpolation-filters="sRGB">
<feFlood flood-opacity="0" result="BackgroundImageFix"/>
<feBlend mode="normal" in="SourceGraphic" in2="BackgroundImageFix" result="shape"/>
<feGaussianBlur stdDeviation="1.4" result="effect1_foregroundBlur_2232_811"/>
</filter>
<filter id="filter28_f_2232_811" x="143.16" y="318.16" width="12.4391" height="10.863" filterUnits="userSpaceOnUse" color-interpolation-filters="sRGB">
<feFlood flood-opacity="0" result="BackgroundImageFix"/>
<feBlend mode="normal" in="SourceGraphic" in2="BackgroundImageFix" result="shape"/>
<feGaussianBlur stdDeviation="2" result="effect1_foregroundBlur_2232_811"/>
</filter>
<filter id="filter29_f_2232_811" x="174.264" y="204.589" width="11.5381" height="14.3524" filterUnits="userSpaceOnUse" color-interpolation-filters="sRGB">
<feFlood flood-opacity="0" result="BackgroundImageFix"/>
<feBlend mode="normal" in="SourceGraphic" in2="BackgroundImageFix" result="shape"/>
<feGaussianBlur stdDeviation="1.35" result="effect1_foregroundBlur_2232_811"/>
</filter>
<filter id="filter30_f_2232_811" x="133.303" y="317.46" width="12.5398" height="20.0379" filterUnits="userSpaceOnUse" color-interpolation-filters="sRGB">
<feFlood flood-opacity="0" result="BackgroundImageFix"/>
<feBlend mode="normal" in="SourceGraphic" in2="BackgroundImageFix" result="shape"/>
<feGaussianBlur stdDeviation="2" result="effect1_foregroundBlur_2232_811"/>
</filter>
<filter id="filter31_f_2232_811" x="143.799" y="479.419" width="47.316" height="54.3281" filterUnits="userSpaceOnUse" color-interpolation-filters="sRGB">
<feFlood flood-opacity="0" result="BackgroundImageFix"/>
<feBlend mode="normal" in="SourceGraphic" in2="BackgroundImageFix" result="shape"/>
<feGaussianBlur stdDeviation="8.7" result="effect1_foregroundBlur_2232_811"/>
</filter>
<filter id="filter32_f_2232_811" x="197.17" y="278.216" width="36.2539" height="41.536" filterUnits="userSpaceOnUse" color-interpolation-filters="sRGB">
<feFlood flood-opacity="0" result="BackgroundImageFix"/>
<feBlend mode="normal" in="SourceGraphic" in2="BackgroundImageFix" result="shape"/>
<feGaussianBlur stdDeviation="5.25" result="effect1_foregroundBlur_2232_811"/>
</filter>
<filter id="filter33_f_2232_811" x="205.667" y="287.558" width="21.7233" height="25.7938" filterUnits="userSpaceOnUse" color-interpolation-filters="sRGB">
<feFlood flood-opacity="0" result="BackgroundImageFix"/>
<feBlend mode="normal" in="SourceGraphic" in2="BackgroundImageFix" result="shape"/>
<feGaussianBlur stdDeviation="4.15" result="effect1_foregroundBlur_2232_811"/>
</filter>
<filter id="filter34_f_2232_811" x="154.755" y="516.401" width="80.4539" height="189.696" filterUnits="userSpaceOnUse" color-interpolation-filters="sRGB">
<feFlood flood-opacity="0" result="BackgroundImageFix"/>
<feBlend mode="normal" in="SourceGraphic" in2="BackgroundImageFix" result="shape"/>
<feGaussianBlur stdDeviation="6.45" result="effect1_foregroundBlur_2232_811"/>
</filter>
<filter id="filter35_f_2232_811" x="216.88" y="528.647" width="40.6636" height="170.412" filterUnits="userSpaceOnUse" color-interpolation-filters="sRGB">
<feFlood flood-opacity="0" result="BackgroundImageFix"/>
<feBlend mode="normal" in="SourceGraphic" in2="BackgroundImageFix" result="shape"/>
<feGaussianBlur stdDeviation="6.45" result="effect1_foregroundBlur_2232_811"/>
</filter>
<filter id="filter36_f_2232_811" x="257.364" y="525.277" width="38.0479" height="170.617" filterUnits="userSpaceOnUse" color-interpolation-filters="sRGB">
<feFlood flood-opacity="0" result="BackgroundImageFix"/>
<feBlend mode="normal" in="SourceGraphic" in2="BackgroundImageFix" result="shape"/>
<feGaussianBlur stdDeviation="6.45" result="effect1_foregroundBlur_2232_811"/>
</filter>
<filter id="filter37_f_2232_811" x="276.097" y="527.918" width="71.1409" height="169.977" filterUnits="userSpaceOnUse" color-interpolation-filters="sRGB">
<feFlood flood-opacity="0" result="BackgroundImageFix"/>
<feBlend mode="normal" in="SourceGraphic" in2="BackgroundImageFix" result="shape"/>
<feGaussianBlur stdDeviation="6.45" result="effect1_foregroundBlur_2232_811"/>
</filter>
<linearGradient id="paint0_linear_2232_811" x1="165.527" y1="97.7001" x2="165.98" y2="555.411" gradientUnits="userSpaceOnUse">
<stop offset="0.514423" stop-color="#FBE4EB"/>
<stop offset="1" stop-color="white"/>
</linearGradient>
<linearGradient id="paint1_linear_2232_811" x1="60.218" y1="715.471" x2="274.189" y2="667.163" gradientUnits="userSpaceOnUse">
<stop offset="0.379808" stop-color="#FBE4EB"/>
<stop offset="1" stop-color="white"/>
</linearGradient>
<linearGradient id="paint2_linear_2232_811" x1="422.169" y1="101.16" x2="414.522" y2="559.393" gradientUnits="userSpaceOnUse">
<stop offset="0.514423" stop-color="#FBE4EB"/>
<stop offset="1" stop-color="white"/>
</linearGradient>
<linearGradient id="paint3_linear_2232_811" x1="523.804" y1="720.806" x2="289.48" y2="654.454" gradientUnits="userSpaceOnUse">
<stop offset="0.379808" stop-color="#FBE4EB"/>
<stop offset="1" stop-color="white"/>
</linearGradient>
<linearGradient id="paint4_linear_2232_811" x1="168.38" y1="178.575" x2="151.75" y2="425.636" gradientUnits="userSpaceOnUse">
<stop offset="0.0384615" stop-color="#FD4994"/>
<stop offset="0.456307" stop-color="#FF93BD"/>
<stop offset="0.975962" stop-color="#FD4994"/>
</linearGradient>
<linearGradient id="paint5_linear_2232_811" x1="354.714" y1="542.426" x2="461.174" y2="737.832" gradientUnits="userSpaceOnUse">
<stop offset="0.0673077" stop-color="#FFD4D1"/>
<stop offset="0.552885" stop-color="#FFF1F0"/>
<stop offset="1" stop-color="#FFD4D1"/>
</linearGradient>
<linearGradient id="paint6_linear_2232_811" x1="218.271" y1="438.739" x2="180.888" y2="533.355" gradientUnits="userSpaceOnUse">
<stop stop-color="#33439A"/>
<stop offset="1" stop-color="#1E2C7A"/>
</linearGradient>
<linearGradient id="paint7_linear_2232_811" x1="210.082" y1="699.155" x2="221.169" y2="1149.56" gradientUnits="userSpaceOnUse">
<stop offset="0.168269" stop-color="#FFD4D1"/>
<stop offset="0.475962" stop-color="#FFF1F1"/>
<stop offset="0.831731" stop-color="#FFD4D1"/>
</linearGradient>
<linearGradient id="paint8_linear_2232_811" x1="315.532" y1="710.494" x2="379.156" y2="1191.64" gradientUnits="userSpaceOnUse">
<stop stop-color="#FFD4D1"/>
<stop offset="0.413462" stop-color="#FFEFEE"/>
<stop offset="1" stop-color="#FFD4D1"/>
</linearGradient>
<linearGradient id="paint9_linear_2232_811" x1="261.232" y1="792.26" x2="260.854" y2="818.843" gradientUnits="userSpaceOnUse">
<stop stop-color="#EDACB6"/>
<stop offset="1" stop-color="#F8C4CC"/>
</linearGradient>
<linearGradient id="paint10_linear_2232_811" x1="261.232" y1="792.26" x2="260.854" y2="818.843" gradientUnits="userSpaceOnUse">
<stop stop-color="#EDACB6"/>
<stop offset="1" stop-color="#F8C4CC"/>
</linearGradient>
<linearGradient id="paint11_linear_2232_811" x1="251.405" y1="450.708" x2="251.405" y2="776.42" gradientUnits="userSpaceOnUse">
<stop offset="0.134615" stop-color="#F9FCFF"/>
<stop offset="0.860577" stop-color="#959799"/>
</linearGradient>
<linearGradient id="paint12_linear_2232_811" x1="251.405" y1="450.708" x2="251.405" y2="776.42" gradientUnits="userSpaceOnUse">
<stop offset="0.663462" stop-color="#1F2D7B"/>
<stop offset="1" stop-color="#2A398B"/>
</linearGradient>
<linearGradient id="paint13_linear_2232_811" x1="251.405" y1="450.708" x2="251.405" y2="776.42" gradientUnits="userSpaceOnUse">
<stop offset="0.0913462" stop-color="#3E2527"/>
<stop offset="0.490385" stop-color="#5B3937"/>
<stop offset="0.865385" stop-color="#3E2527"/>
</linearGradient>
<linearGradient id="paint14_linear_2232_811" x1="265.642" y1="116.085" x2="266.524" y2="617.767" gradientUnits="userSpaceOnUse">
<stop offset="0.110577" stop-color="#FFD4D1"/>
<stop offset="0.485577" stop-color="#FFF1F0"/>
<stop offset="0.875" stop-color="#FFD4D1"/>
</linearGradient>
<linearGradient id="paint15_linear_2232_811" x1="304.838" y1="169" x2="304.838" y2="463.596" gradientUnits="userSpaceOnUse">
<stop stop-color="#FD4994"/>
<stop offset="0.423077" stop-color="#FF93BD"/>
<stop offset="0.807692" stop-color="#FD4994"/>
</linearGradient>
<linearGradient id="paint16_linear_2232_811" x1="251.405" y1="860.639" x2="264.634" y2="597.955" gradientUnits="userSpaceOnUse">
<stop offset="0.307692" stop-color="#F8FDFF"/>
<stop offset="1" stop-color="#959899"/>
</linearGradient>
<linearGradient id="paint17_linear_2232_811" x1="259.342" y1="432.314" x2="259.09" y2="461.417" gradientUnits="userSpaceOnUse">
<stop offset="0.598789" stop-color="#D60926"/>
<stop offset="1" stop-color="#700514"/>
</linearGradient>
<linearGradient id="paint18_linear_2232_811" x1="217.389" y1="323.414" x2="202.901" y2="167.82" gradientUnits="userSpaceOnUse">
<stop offset="0.134615" stop-color="white"/>
<stop offset="0.677885" stop-color="#999999"/>
</linearGradient>
<linearGradient id="paint19_linear_2232_811" x1="221.546" y1="323.666" x2="215.877" y2="281.586" gradientUnits="userSpaceOnUse">
<stop stop-color="#57CDF5"/>
<stop offset="1" stop-color="#2F8ED3"/>
</linearGradient>
<linearGradient id="paint20_linear_2232_811" x1="293.233" y1="319.131" x2="289.831" y2="279.823" gradientUnits="userSpaceOnUse">
<stop offset="0.759615" stop-color="white"/>
<stop offset="1" stop-color="#999999" stop-opacity="0.47"/>
</linearGradient>
<linearGradient id="paint21_linear_2232_811" x1="295.501" y1="317.619" x2="293.737" y2="272.515" gradientUnits="userSpaceOnUse">
<stop stop-color="#B4F0FD"/>
<stop offset="0.649038" stop-color="#3998DB"/>
</linearGradient>
<linearGradient id="paint22_linear_2232_811" x1="371.218" y1="474.141" x2="371.218" y2="591.069" gradientUnits="userSpaceOnUse">
<stop offset="0.00480769" stop-color="#33439A"/>
<stop offset="0.480769" stop-color="#1E2C7A"/>
</linearGradient>
<linearGradient id="paint23_linear_2232_811" x1="214.816" y1="530.091" x2="298.376" y2="542.803" gradientUnits="userSpaceOnUse">
<stop offset="0.211571" stop-color="#4A2E2E"/>
<stop offset="0.475962" stop-color="#634040"/>
<stop offset="0.875" stop-color="#4A2E2E"/>
</linearGradient>
<linearGradient id="paint24_linear_2232_811" x1="72.8083" y1="351.711" x2="154.765" y2="570.347" gradientUnits="userSpaceOnUse">
<stop stop-color="#FFD4D1"/>
<stop offset="0.490385" stop-color="#FFF0EF"/>
<stop offset="1" stop-color="#FFD4D1"/>
</linearGradient>
<clipPath id="clip0_2232_811">
<rect width="599" height="1098" fill="white"/>
</clipPath>
</defs>
</svg>
