<svg width="1607" height="3372" viewBox="0 0 1607 3372" fill="none" xmlns="http://www.w3.org/2000/svg">
<path d="M175.676 79.8996C353.199 243.587 577.085 663.237 665.803 896.463C731.665 1081.53 824.21 1459.72 579.975 1485.94C300.99 1508.02 155.94 833.806 99.9408 507.716C82.7325 407.511 54.0492 220.145 53.54 122.521C45.8811 -59.7375 88.8766 -0.134632 175.676 79.8996Z" fill="url(#paint0_linear_2204_432)" stroke="#471F1E" stroke-width="4"/>
<path d="M92.7405 1871.46C163.739 1784.43 409.595 1575.77 526.249 1512.13C564.454 1491.29 656.57 1469.61 679.689 1618.59C691.868 1697.07 677.253 1756.79 634.207 1801.14C634.207 1801.14 562.89 1873.92 513.77 1910.24C460.457 1949.66 372.023 1991.44 372.023 1991.44C304.297 2030.31 198.483 2049.4 108.725 2028.98C-5.46591 2003.02 24.4692 1955.15 92.7405 1871.46Z" fill="url(#paint1_linear_2204_432)" stroke="#471F1E" stroke-width="4"/>
<path d="M1436.41 95.8592C1233.87 255.949 973.142 671.014 868.161 902.41C789.931 1086.12 677.07 1462.36 949.475 1493.47C1260.83 1521.16 1439.75 849.996 1510.45 525.102C1532.18 425.264 1568.91 238.514 1571.9 140.922C1584.99 -41.143 1535.44 17.5841 1436.41 95.8592Z" fill="url(#paint2_linear_2204_432)" stroke="#471F1E" stroke-width="4"/>
<path d="M1484.63 1888.7C1407.42 1800.26 1137.73 1586.71 1008.89 1520.75C966.697 1499.14 864.25 1475.62 834.701 1624.1C819.136 1702.32 833.992 1762.32 881.016 1807.53C881.016 1807.53 958.941 1881.72 1012.96 1919.02C1071.58 1959.5 1169.41 2003.05 1169.41 2003.05C1244.16 2043.26 1361.99 2064.47 1462.85 2045.86C1591.16 2022.19 1558.88 1973.74 1484.63 1888.7Z" fill="url(#paint3_linear_2204_432)" stroke="#471F1E" stroke-width="4"/>
<path d="M366.639 438.602C406.761 331.089 477.129 311.525 507.299 315.182L525.322 492.279C512 574.559 487.238 754.008 494.761 813.563C504.164 888.006 462.633 1010.64 421.884 1053.35C389.286 1087.52 388.45 1125.57 392.107 1140.33C349.478 1108.99 348.224 1029.84 352.926 994.186C325.343 1028.35 294.938 1042.9 283.184 1045.91C293.528 1028.35 297.681 967.282 298.465 938.941C294.546 892.055 287.024 780.102 288.278 707.382C289.845 616.483 316.488 572.992 366.639 438.602Z" fill="url(#paint4_linear_2204_432)" stroke="#43090A" stroke-width="10"/>
<g filter="url(#filter0_f_2204_432)">
<path d="M352.926 782.597C364.837 921.141 305.517 1012.98 290.629 1038.84C311.003 1032.57 348.225 998.092 358.412 980.852C346.657 1072.54 371.341 1114.46 387.014 1130.92C384.806 1119.87 388.973 1098 398.376 1079.2C408.833 1058.28 418.924 1053.68 432.072 1034.53C444.786 1016.01 458.885 983.306 463.416 972.624C474.387 946.765 481.831 914.245 488.492 880.158C488.492 880.158 469.685 842.544 468.118 837.45C464.931 827.092 457.696 864.642 452.054 899.748C445.001 943.631 439.908 964.788 414.832 1003.58C394.771 1034.61 383.487 1059.61 380.353 1068.23C369.774 1067.83 378.394 962.046 380.353 898.573C381.92 847.794 362.721 800.098 352.926 782.597Z" fill="#FE3B8E"/>
</g>
<path d="M1060.92 1766.04C1033.97 1728.11 1005.55 1641.83 994.709 1603.44L983.738 1555.64L1101.28 1531.74C1105.59 1544.93 1115.93 1574.44 1122.83 1586.98C1129.73 1599.52 1155.74 1674.48 1167.89 1710.4C1184.74 1763.42 1219.45 1871.75 1223.53 1880.84C1228.62 1892.2 1258 1906.7 1326.57 1947.84C1381.42 1980.75 1382.99 2008.17 1377.52 2017.58C1384.56 2031.68 1384.14 2042.61 1381.01 2048.14C1393.56 2067.06 1383.23 2067.88 1374.76 2065.19C1376.11 2068.3 1376.23 2071.36 1374.76 2074.39C1365.05 2094.45 1263.62 2032.6 1214.12 1999.16C1259.57 2057.46 1242.46 2082.49 1228.23 2087.71C1219.74 2069.82 1195.79 2029.41 1167.89 2010.92C1139.99 1992.42 1135.37 1938.17 1136.54 1913.36C1122.57 1880.05 1087.88 1803.96 1060.92 1766.04Z" fill="url(#paint5_linear_2204_432)"/>
<path d="M1316.78 2015.62C1325.4 2020.71 1364.92 2042.52 1374.76 2065.19M1374.76 2065.19C1376.11 2068.3 1376.23 2071.36 1374.76 2074.39C1365.05 2094.45 1263.62 2032.6 1214.12 1999.16C1259.57 2057.46 1242.46 2082.49 1228.23 2087.71C1219.74 2069.82 1195.79 2029.41 1167.89 2010.92C1139.99 1992.42 1135.37 1938.17 1136.54 1913.36C1122.57 1880.05 1087.88 1803.96 1060.92 1766.04C1033.97 1728.11 1005.55 1641.83 994.709 1603.44L983.738 1555.64L1101.28 1531.74C1105.59 1544.93 1115.93 1574.44 1122.83 1586.98C1129.73 1599.52 1155.74 1674.48 1167.89 1710.4C1184.74 1763.42 1219.45 1871.75 1223.53 1880.84C1228.62 1892.2 1258 1906.7 1326.57 1947.84C1381.42 1980.75 1382.99 2008.17 1377.52 2017.58M1374.76 2065.19C1383.23 2067.88 1393.56 2067.06 1381.01 2048.14M1330.49 1995.64C1334.02 1998.77 1335.97 1997.2 1368.1 2031.68C1374.08 2038.1 1378.07 2043.71 1381.01 2048.14M1381.01 2048.14C1384.14 2042.61 1384.56 2031.68 1377.52 2017.58M1345.77 1987.8C1374.34 2006.23 1370.26 2003.9 1377.52 2017.58" stroke="#43090A" stroke-width="10"/>
<path d="M1279.16 1992.5C1279.78 1992.97 1280.36 1993.43 1280.92 1993.87C1291.48 2001.97 1301.69 2010.65 1312.45 2018.58C1313.02 2019.01 1313.62 2019.46 1314.23 2019.93C1315.93 2017.05 1317.62 2014.18 1319.32 2011.31C1318.62 2011 1317.94 2010.69 1317.28 2010.4C1305.09 2005.11 1293.36 1999.02 1281.18 1993.44C1280.53 1993.14 1279.86 1992.83 1279.16 1992.5Z" fill="#43090A"/>
<path d="M1298.36 1978.4C1298.84 1978.77 1299.36 1979.12 1299.87 1979.46C1303.36 1981.75 1307.12 1983.79 1310.42 1986.01C1315.89 1989.9 1321.64 1994.16 1326.32 1998.42C1326.69 1998.78 1327.08 1999.18 1327.17 1999.38C1329.38 1996.88 1331.59 1994.39 1333.8 1991.89C1332.99 1991.3 1332.39 1990.98 1331.76 1990.64C1325.08 1987.3 1318.81 1984.94 1312.16 1982.54C1308.04 1981.17 1304.06 1980.27 1300.09 1979.01C1299.51 1978.82 1298.92 1978.62 1298.36 1978.4Z" fill="#43090A"/>
<path d="M1317.17 1973.3C1317.59 1973.64 1318.04 1973.95 1318.49 1974.26C1321.88 1976.53 1325.63 1978.5 1328.75 1980.7C1333.21 1983.96 1337.72 1987.51 1341.96 1991.03C1342.35 1991.36 1342.76 1991.71 1343.06 1992C1344.87 1989.2 1346.67 1986.4 1348.48 1983.6C1347.9 1983.32 1347.38 1983.11 1346.85 1982.89C1341.43 1980.7 1336.17 1978.72 1330.66 1976.88C1326.52 1975.6 1322.62 1974.94 1318.7 1973.81C1318.19 1973.66 1317.67 1973.49 1317.17 1973.3Z" fill="#43090A"/>
<path d="M529.464 1189.29C517.553 1164.22 485.749 1153.77 471.644 1151.68C461.196 1173.62 432.061 1223.54 396.641 1247.67C352.367 1277.84 354.718 1274.32 359.027 1311.15C362.475 1340.61 364.644 1352.94 365.297 1355.42C378.618 1353.07 408.396 1355.11 420.934 1382.06C433.472 1409.02 462.988 1417.33 476.179 1418.11L508.307 1362.08L529.464 1189.29Z" fill="url(#paint6_linear_2204_432)" stroke="#43090A" stroke-width="10"/>
<path d="M464.984 2485.01C447.118 2436.11 410.392 2237.51 395.242 2149.23L634.637 2166.86C633.723 2225.24 637.519 2341.2 638.947 2349.05C640.514 2357.67 658.015 2423.49 664.022 2457.19C669.154 2474.63 677.172 2718.17 668.781 2894.45C667.561 2920.07 665.995 2944.27 664.022 2966.15C664.022 2966.15 620.299 2977.61 591.714 2977.51C563.729 2977.41 521.972 2966.54 521.972 2966.54V2956.74C521.188 2938.33 518.888 2917.19 516.726 2894.45C502.666 2746.49 480.47 2527.39 464.984 2485.01Z" fill="url(#paint7_linear_2204_432)" stroke="#43090A" stroke-width="10" stroke-linecap="round"/>
<path d="M664.806 2964.97C618.102 2987.85 549.222 2976.46 522.188 2966.93V3042.16C566.07 3060.34 633.461 3046.86 661.671 3037.85L664.806 2964.97Z" fill="#1E2D7B" stroke="#43090A" stroke-width="10" stroke-linecap="round"/>
<path d="M520.345 3045.93C516.427 3052.98 480.38 3152.11 441.591 3180.71C435.052 3185.53 428.301 3190.92 421.609 3196.69C431.404 3240.87 465.883 3228.51 533.666 3194.03C587.893 3166.45 641.428 3082.2 658.929 3041.98C660.307 3041.98 660.695 3041.72 660.721 3041.46C660.646 3041.38 660.571 3041.31 660.496 3041.23C616.104 3062.95 547.216 3053.45 520.345 3045.93Z" fill="#FFDFDD"/>
<path d="M359.312 3286.11C362.054 3314.32 380.861 3364.47 492.135 3339.39C520.345 3327.25 582.251 3292.53 604.192 3250.85V3271.61C627.178 3276.18 673.855 3273.96 676.676 3228.51C680.127 3172.92 700.739 3083.46 660.721 3041.46C660.695 3041.72 660.307 3041.98 658.929 3041.98C641.428 3082.2 587.893 3166.45 533.666 3194.03C465.883 3228.51 431.404 3240.87 421.609 3196.69C388.606 3225.12 357.031 3262.65 359.312 3286.11Z" fill="#1F2B7A"/>
<path d="M421.609 3196.69C428.301 3190.92 435.052 3185.53 441.591 3180.71C480.38 3152.11 516.427 3052.98 520.345 3045.93C547.216 3053.45 616.104 3062.95 660.496 3041.23M421.609 3196.69C388.606 3225.12 357.031 3262.65 359.312 3286.11C362.054 3314.32 380.861 3364.47 492.135 3339.39C520.345 3327.25 582.251 3292.53 604.192 3250.85V3271.61C627.178 3276.18 673.855 3273.96 676.676 3228.51C680.127 3172.92 700.739 3083.46 660.721 3041.46M421.609 3196.69C431.404 3240.87 465.883 3228.51 533.666 3194.03C587.893 3166.45 641.428 3082.2 658.929 3041.98C660.307 3041.98 660.695 3041.72 660.721 3041.46M660.496 3041.23C660.571 3041.31 660.646 3041.38 660.721 3041.46M660.496 3041.23C660.014 3040.73 660.76 3041.09 660.721 3041.46" stroke="#43090A" stroke-width="10" stroke-linecap="round"/>
<path d="M956.702 2974.77C952.784 2958.7 853.658 2676.21 800.372 2541.43C778.653 2486.49 764.401 2424.67 762.759 2373.34C760.608 2306.1 770.418 2246.87 762.758 2228.76L973.158 2173.52C967.673 2246.66 974.099 2439.87 1043.68 2627.62C1113.27 2815.38 1083.65 2963.8 1083.65 2963.8C1083.65 2963.8 1061.71 2992.4 956.702 2974.77Z" fill="url(#paint8_linear_2204_432)" stroke="#43090A" stroke-width="10"/>
<g filter="url(#filter1_f_2204_432)">
<path d="M629.935 2299.68L421.493 2260.5C411.306 2197.42 392.497 2165.29 415.224 2106.91L627.976 2192.32L629.935 2299.68Z" fill="url(#paint9_linear_2204_432)"/>
<path d="M964.931 2262.85L771.77 2284.79C772.548 2227.6 771.516 2190.26 782.349 2106.91L968.066 2110.44L964.931 2262.85Z" fill="url(#paint10_linear_2204_432)"/>
</g>
<path d="M542.562 1174.07C484.574 1218.26 493.847 1318.91 505.732 1363.7C556.536 1386.17 699.52 1426.23 865.02 1406.8C875.757 1366.12 896.773 1311.4 909.294 1281.42C816.514 1142.25 626.147 1151.87 542.562 1174.07Z" fill="url(#paint11_linear_2204_432)"/>
<path d="M1102.85 2001.18C1057.08 1848.53 920.788 1569.01 858.359 1448.33C676.874 1495.67 531.975 1435.14 482.211 1398.97C331.707 1631.33 246.543 1894.3 222.062 2001.18C330.201 2143.17 559.148 2175.53 660.104 2173.96C965.088 2167.38 1082.34 2056.03 1102.85 2001.18Z" fill="url(#paint12_linear_2204_432)"/>
<path d="M858.359 1448.33C857.701 1439.11 860.415 1424.25 865.02 1406.8C699.52 1426.23 556.536 1386.17 505.732 1363.7C497.721 1375.36 489.881 1387.12 482.211 1398.97C531.975 1435.14 676.874 1495.67 858.359 1448.33Z" fill="url(#paint13_linear_2204_432)"/>
<path d="M505.732 1363.7C493.847 1318.91 484.574 1218.26 542.562 1174.07C626.147 1151.87 816.514 1142.25 909.295 1281.42C896.773 1311.4 875.757 1366.12 865.02 1406.8M505.732 1363.7C556.536 1386.17 699.52 1426.23 865.02 1406.8M505.732 1363.7C497.721 1375.36 489.881 1387.12 482.211 1398.97M858.359 1448.33C920.788 1569.01 1057.08 1848.53 1102.85 2001.18C1082.34 2056.03 965.088 2167.38 660.104 2173.96C559.148 2175.53 330.201 2143.17 222.062 2001.18C246.543 1894.3 331.707 1631.33 482.211 1398.97M858.359 1448.33C857.701 1439.11 860.415 1424.25 865.02 1406.8M858.359 1448.33C676.874 1495.67 531.975 1435.14 482.211 1398.97" stroke="#43090A" stroke-width="10"/>
<path d="M417.183 1380.54C399.316 1346.37 372.125 1351.15 360.762 1357.82L397.201 1438.14C412.56 1421.21 426.586 1460.86 431.68 1482.8L470.077 1417.37C459.89 1419.33 435.049 1414.71 417.183 1380.54Z" fill="#F9FCFF" stroke="#43090A" stroke-width="10"/>
<path d="M312.483 1245.85C322.279 1275.76 366.945 1376.72 366.945 1376.72C366.945 1376.72 384.625 1416.21 389.364 1431.43C389.364 1431.43 399.16 1426.73 411.61 1437.84C411.61 1437.84 419.642 1451.91 422.668 1461.74C423.996 1466.05 425.411 1472.96 425.411 1472.96C417.27 1495.16 385.098 1539.06 366.945 1547.15C309.898 1571.29 261.547 1461.74 261.547 1461.74C261.547 1461.74 233.86 1380.24 228.636 1351.64L201.601 1249.77L171.823 1144.38C165.816 1137.71 146.443 1126.21 137.736 1117.73C125.279 1105.6 115.331 1082.02 107.958 1059.35C102.56 1042.76 92.5474 1038.71 86.801 1038.84C72.3042 1042.37 27.6378 1012.73 12.3573 993.921C-2.92324 975.114 7.26378 949.254 27.6378 967.278C48.0119 985.301 82.0993 993.921 86.801 993.921C119.713 1008.03 117.231 993.268 111.877 984.125C92.9393 957.482 54.4375 898.319 51.9299 874.811C49.4223 851.302 66.5575 851.694 75.4384 854.828C77.6587 861.228 88.995 885.233 116.578 930.056C144.162 974.879 147.662 973.546 145.964 967.278C128.333 932.407 93.0698 857.023 93.0698 834.454C93.0698 811.886 108.742 811.468 116.578 814.08C123.37 830.536 142.438 874.811 164.379 920.261C186.32 965.71 198.336 967.147 201.601 962.184C186.713 950.038 172.608 862.665 173.391 828.577C174.018 801.307 187.758 807.55 194.549 814.08C201.863 834.585 219.076 887.27 229.42 933.974C239.764 980.677 256.716 998.511 263.899 1001.59C269.178 998.308 274.059 995.722 278.004 993.921L300.337 962.184C330.115 930.839 339.518 962.184 339.518 962.184C339.518 962.184 301.278 1017.27 300.337 1046.42C299.397 1075.57 285.057 1106.11 278.004 1117.73C283.96 1178.54 303.472 1228.48 312.483 1245.85Z" fill="url(#paint14_linear_2204_432)"/>
<path d="M396.722 1461.74C395.932 1454.36 392.041 1443.58 389.364 1431.43M216.49 1059.35C221.142 1033.89 245.061 1013.3 263.899 1001.59M263.899 1001.59C269.178 998.308 274.059 995.722 278.004 993.921L300.337 962.184C330.115 930.839 339.518 962.184 339.518 962.184C339.518 962.184 301.278 1017.27 300.337 1046.42C299.397 1075.57 285.057 1106.11 278.004 1117.73C283.96 1178.54 303.472 1228.48 312.483 1245.85C322.279 1275.76 366.945 1376.72 366.945 1376.72C366.945 1376.72 384.625 1416.21 389.364 1431.43M263.899 1001.59C256.716 998.511 239.764 980.677 229.42 933.974C219.076 887.27 201.863 834.585 194.549 814.08C187.758 807.55 174.018 801.307 173.391 828.577C172.608 862.665 186.713 950.038 201.601 962.184C198.336 967.147 186.32 965.71 164.379 920.261C142.438 874.811 123.37 830.536 116.578 814.08C108.742 811.468 93.0698 811.886 93.0698 834.454C93.0698 857.023 128.333 932.407 145.964 967.278C147.662 973.546 144.162 974.879 116.578 930.056C88.995 885.233 77.6587 861.228 75.4384 854.828C66.5575 851.694 49.4223 851.302 51.9299 874.811C54.4375 898.319 92.9393 957.482 111.877 984.125C117.231 993.268 119.713 1008.03 86.801 993.921C82.0993 993.921 48.0119 985.301 27.6378 967.278C7.26378 949.254 -2.92324 975.114 12.3573 993.921C27.6378 1012.73 72.3042 1042.37 86.801 1038.84C92.5474 1038.71 102.56 1042.76 107.958 1059.35C115.331 1082.02 125.279 1105.6 137.736 1117.73C146.443 1126.21 165.816 1137.71 171.823 1144.38L201.601 1249.77L228.636 1351.64C233.86 1380.24 261.547 1461.74 261.547 1461.74C261.547 1461.74 309.898 1571.29 366.945 1547.15C385.098 1539.06 417.27 1495.16 425.411 1472.96C425.411 1472.96 423.996 1466.05 422.668 1461.74C419.642 1451.91 411.61 1437.84 411.61 1437.84C399.16 1426.73 389.364 1431.43 389.364 1431.43" stroke="#43090A" stroke-width="10"/>
<g filter="url(#filter2_f_2204_432)">
<path d="M950.825 1451.22C924.181 1454.94 994.316 1508.62 1022.53 1513.71C1047.21 1520.37 1063.28 1516.45 1064.84 1500.39C1070.59 1478.97 1077.07 1446.29 1063.27 1440.65C1049.48 1435 1023.31 1470.95 1011.95 1489.62C990.946 1462.67 977.469 1447.51 950.825 1451.22Z" fill="#171F6A"/>
</g>
<g filter="url(#filter3_f_2204_432)">
<path d="M1042.51 1450.57C1050.35 1438.88 1070.33 1438.9 1070.33 1454.88C1070.33 1470.87 1064.45 1493.79 1065.63 1499.22" stroke="#1C174C" stroke-opacity="0.47" stroke-width="3" stroke-linecap="round"/>
</g>
<rect x="525.322" y="364.146" width="173.179" height="117.543" fill="#FE368F"/>
<path d="M447.83 520.877C479.175 451.605 606.801 438.205 662.568 440.164C909.878 420.73 933.831 585.917 914.893 670.939C975.231 558.099 1060.65 619.221 1046.54 692.881C1035.26 751.809 960.865 778.034 925.08 783.78C914.001 828.822 887.082 864.472 852.927 892.311C844.558 931.62 832.841 1016.98 852.927 1043.93C878.036 1077.63 984.999 1100.35 1006.55 1141.89C1023.79 1175.11 1034.63 1214.5 1037.89 1230.04C1022.61 1248.98 974.656 1283.17 905.07 1268.44C810.723 1146.2 627.8 1150.9 548.133 1168.53L528.934 1183.03C524.546 1173.62 496.806 1157.43 483.484 1150.51C491.059 1136.14 508.638 1102.55 518.355 1083.11C530.501 1058.82 648.044 1056.47 683.307 1035.31C711.517 1018.39 697.673 983.682 687.225 968.445C664.961 973.668 644.507 976.911 627.697 978.509C608.89 967.408 549.92 936.008 510.938 892.311C462.354 837.85 467.812 757.129 467.812 757.129C467.812 757.129 408.649 607.466 447.83 520.877Z" fill="url(#paint15_linear_2204_432)"/>
<path d="M852.927 892.311C887.082 864.472 914.001 828.822 925.08 783.78C960.865 778.034 1035.26 751.809 1046.54 692.881C1060.65 619.221 975.231 558.099 914.893 670.939C933.831 585.917 909.878 420.73 662.568 440.164C606.801 438.205 479.175 451.605 447.83 520.877C408.649 607.466 467.812 757.129 467.812 757.129C467.812 757.129 462.354 837.85 510.938 892.311C549.92 936.008 608.89 967.408 627.697 978.509C644.507 976.911 664.961 973.668 687.225 968.445M852.927 892.311C844.558 931.62 832.841 1016.98 852.927 1043.93C878.036 1077.63 984.999 1100.35 1006.55 1141.89C1023.79 1175.11 1034.63 1214.5 1037.89 1230.04C1022.61 1248.98 974.656 1283.17 905.07 1268.44C810.723 1146.2 627.8 1150.9 548.133 1168.53L528.934 1183.03C524.546 1173.62 496.806 1157.43 483.484 1150.51C491.059 1136.14 508.638 1102.55 518.355 1083.11C530.501 1058.82 648.044 1056.47 683.307 1035.31C711.517 1018.39 697.673 983.682 687.225 968.445M852.927 892.311C804.1 932.111 740.486 955.948 687.225 968.445" stroke="#43090A" stroke-width="10"/>
<g filter="url(#filter4_f_2204_432)">
<path d="M547.746 1106.09C529.404 1124.66 505.176 1133.72 488.231 1139.94C492.086 1132.34 497.696 1120.83 505.1 1107.64C510.143 1098.65 513.773 1090.06 519.077 1080.56C533.58 1067.71 553.927 1064.81 575.238 1060C569.947 1073.77 564.66 1088.97 547.746 1106.09Z" fill="#FEC1BF"/>
</g>
<g filter="url(#filter5_f_2204_432)">
<path d="M1016.65 1190.08C965.803 1185.79 918.699 1117.7 918.698 1090.56C935.67 1096.75 967.21 1112.44 985.616 1131.03C1002.59 1148.18 1011.32 1176.27 1016.65 1190.08Z" fill="#FEC1BF"/>
</g>
<g filter="url(#filter6_f_2204_432)">
<path d="M690.72 859.727C692.225 867.011 683.251 882.859 662.232 887.201C641.214 891.543 622.532 884.482 621.027 877.198C627.68 878.592 637.428 882 658.301 878.022C679.473 870.881 683.013 865.09 690.72 859.727Z" fill="#FF93BD"/>
</g>
<g filter="url(#filter7_f_2204_432)">
<ellipse cx="679.695" cy="875.218" rx="4.99531" ry="2.27142" transform="rotate(-26.061 679.695 875.218)" fill="white"/>
</g>
<g filter="url(#filter8_f_2204_432)">
<path d="M686.842 854.766C681.806 858.56 674.135 868.37 653.319 873.223C632.946 875.615 628.853 873.285 619.892 871.07C625.982 871.163 638.413 860.488 650.145 857.624C670.95 852.546 679.133 855.083 686.842 854.766Z" fill="#FF93BD"/>
</g>
<path d="M601.333 866.444C621.185 879.113 670.526 890.58 709.08 835.1" stroke="#43090A" stroke-width="10" stroke-linecap="round"/>
<path d="M604.859 438.981L575.054 383.854C556.247 411.803 522.551 499.751 538.224 627.951C523.911 619.592 497.353 583.5 492.077 525.856C490.023 587.235 428.013 669.108 388.161 700.043C379.149 669.09 390.305 589.67 420.709 529.489C397.201 536.541 354.344 587.333 339.968 617.372C338.271 585.113 346.237 505.863 391.687 446.935C437.137 388.007 481.674 341.147 498.262 325.083C509.89 313.042 537.686 297.645 571.033 310.977C591.18 298.647 657.569 276.822 761.947 288.171C782.69 288.468 794.531 298.763 804.262 302.358C806.391 303.144 809.455 304.912 813.273 307.54C836.995 300.225 888.804 291.71 933.167 305.389C988.02 292.363 1112.93 302.436 1173.74 446.935C1234.55 591.434 1225.19 717.152 1212.92 761.949C1209.13 825.422 1207.12 961.223 1229.37 996.643C1257.19 1040.92 1343 1149.45 1310.09 1201.17C1306.69 1175.05 1285.79 1118.26 1229.37 1100.08C1172.95 1081.9 1126.72 1039.48 1110.66 1020.54C1120.92 1045.35 1143.67 1093.37 1157.34 1099.44C1158.26 1099.67 1159.15 1099.88 1160.02 1100.08C1159.18 1100.08 1158.28 1099.86 1157.34 1099.44C1118.53 1089.77 1039.86 1050.65 1015.05 964.906C989.666 877.141 996.901 786.241 1003.69 751.762C1019.1 737.004 1047.18 695.498 1036.21 647.541C994.838 562.91 903.781 674.968 903.781 674.968C903.781 674.968 903.781 612.67 900.562 602.875C897.822 613.228 894.459 621.604 891.243 627.559C854.884 615.334 762.73 534.7 745.435 502.572C747.975 515.869 751.678 529.193 757.245 540.577C764.798 556.023 787.292 581.325 787.292 581.325C787.292 581.325 807.98 601.522 814.449 608.752C696.906 573.097 653.415 438.185 642.053 377.193L604.859 438.981Z" fill="url(#paint16_linear_2204_432)"/>
<path d="M489.276 494.618C489.201 498.097 491.134 507.09 491.207 510.408M491.207 510.408C492.664 577.045 522.673 618.869 538.224 627.951C522.551 499.751 556.247 411.803 575.054 383.854L604.859 438.981L642.053 377.193C653.415 438.185 696.906 573.097 814.449 608.752C807.98 601.522 787.292 581.325 787.292 581.325C787.292 581.325 764.798 556.023 757.245 540.577C751.678 529.193 747.975 515.869 745.435 502.572M491.207 510.408C500.936 572.663 431.466 666.428 388.161 700.043C379.149 669.09 390.305 589.67 420.709 529.489C397.201 536.541 354.344 587.333 339.968 617.372C338.271 585.113 346.237 505.863 391.687 446.935C437.137 388.007 481.674 341.147 498.262 325.083C509.89 313.042 537.686 297.645 571.033 310.977M598.954 328.609C589.383 320.234 580.007 314.565 571.033 310.977M739.613 451.245C740.537 464.413 741.785 483.466 745.435 502.572M745.435 502.572C762.73 534.7 854.884 615.334 891.243 627.559C894.459 621.604 897.822 613.228 900.562 602.875M877.138 446.935C881.367 454.6 885.052 462.186 888.244 469.66M888.244 469.66C913.014 482.328 969.919 523.181 985.278 553.899C986.061 541.491 978.617 502.729 942.57 446.935C903.167 385.945 839.885 325.854 813.273 307.54M888.244 469.66C911.359 523.771 908.714 572.073 900.562 602.875M698.082 310.977C726.16 293.261 746.516 287.95 761.947 288.171M571.033 310.977C591.18 298.647 657.569 276.822 761.947 288.171M761.947 288.171C782.69 288.468 794.531 298.763 804.262 302.358C806.391 303.144 809.455 304.912 813.273 307.54M813.273 307.54C836.995 300.225 888.804 291.71 933.167 305.389M1036.21 647.541C1065.36 607.106 1060.64 518.114 1054.63 478.672C1042.61 436.356 1006.59 344.673 958.635 316.463C950.634 311.757 942.05 308.128 933.167 305.389M1036.21 647.541C994.838 562.91 903.781 674.968 903.781 674.968C903.781 674.968 903.781 612.67 900.562 602.875M1036.21 647.541C1047.18 695.498 1019.1 737.004 1003.69 751.762C996.901 786.241 989.666 877.141 1015.05 964.906C1040.44 1052.67 1122.28 1091.59 1160.02 1100.08C1146.86 1100.08 1121.63 1047.06 1110.66 1020.54C1126.72 1039.48 1172.95 1081.9 1229.37 1100.08C1285.79 1118.26 1306.69 1175.05 1310.09 1201.17C1343 1149.45 1257.19 1040.92 1229.37 996.643C1207.12 961.223 1209.13 825.422 1212.92 761.949C1225.19 717.152 1234.55 591.434 1173.74 446.935C1112.93 302.436 988.02 292.363 933.167 305.389" stroke="#43090A" stroke-width="10"/>
<g filter="url(#filter9_f_2204_432)">
<path d="M1110.35 1014.55C1067.64 950.683 1115.44 853.515 1117.4 849.988C1113.09 909.543 1125.57 1032.96 1164.36 1062.35C1141.25 1046.68 1119.23 1026.17 1110.35 1014.55Z" fill="#FE3A8E"/>
</g>
<g filter="url(#filter10_f_2204_432)">
<path d="M1056.33 932.098C1029.23 851.339 1033.11 715.206 1033.11 715.206C1033.11 715.206 1026.45 728.528 1021.74 736.364C1017.34 743.699 1007.64 753.603 1007.64 753.603C1006.07 770.451 990.007 819.427 1013.12 938.145C1017.69 961.622 1024.34 980.989 1033.1 997.7C1062.49 1053.73 1117.34 1081.16 1143.59 1090.56C1111.46 1076.06 1078.8 999.073 1056.33 932.098Z" fill="#FE3A8E"/>
</g>
<path d="M1107.56 2004.35L1156.15 2025.51C1155.76 2042.36 1145.49 2079.82 1107.56 2094.86C1103.65 2104.53 1090.56 2123.93 1069.56 2124.25C1065.25 2136.79 1039.08 2164.21 968.864 2173.62C963.639 2178.84 945.12 2189.76 912.835 2191.64C894.681 2210.58 847.56 2240.3 804.304 2207.7C798.174 2218.96 778.14 2235.6 742.79 2225.82C726.595 2229.32 687.467 2232.7 660.51 2218.28C641.442 2231.73 593.667 2250.57 555.114 2218.28C555.5 2217.17 555.917 2215.6 556.302 2213.58C543.76 2216.45 510.134 2217.26 475.968 2197.52C448.019 2199.74 383.423 2198.38 348.63 2175.18C350.323 2172.67 352.538 2168.95 354.979 2164.21C327.147 2142.37 306.238 2137.87 299.262 2138.35C254.688 2147.76 230.799 2111.54 224.427 2092.25C200.069 2080.9 167.215 2055.95 168.006 2016.89C182.373 2010.49 215.95 1983.16 229.115 1988.49C265.151 2029.32 321.581 2077.88 377.218 2101.33C414.357 2116.98 452.2 2132.01 494.775 2141.2C549.916 2153.11 608.417 2159.44 667.171 2159.81C687.82 2159.93 708.5 2159.33 729.076 2157.97C750.794 2156.53 772.397 2154.25 793.725 2151.11C826.982 2146.22 859.166 2141.43 890.488 2132.28C906.109 2127.72 923.765 2122.65 938.68 2117C971.833 2104.44 1005.02 2092.77 1033.5 2074.68C1044.64 2067.61 1056.15 2057.16 1066.41 2049.22C1082.99 2036.37 1093.65 2019.51 1107.56 2004.35Z" fill="url(#paint17_linear_2204_432)"/>
<path d="M1107.56 2094.86C1145.49 2079.82 1155.76 2042.36 1156.15 2025.51L1107.56 2004.35C1093.65 2019.51 1082.99 2036.37 1066.41 2049.22M1107.56 2094.86C1103.65 2104.53 1090.56 2123.93 1069.56 2124.25M1107.56 2094.86C1108.48 2085.63 1105.28 2065.87 1066.41 2049.22M1069.56 2124.25C1065.25 2136.79 1039.08 2164.21 968.864 2173.62M1069.56 2124.25C1068.51 2116.45 1062.96 2100.28 1033.5 2074.68M968.864 2173.62C963.639 2178.84 945.12 2189.76 912.835 2191.64M968.864 2173.62C966.121 2161.95 957.8 2136.06 938.68 2117M912.835 2191.64C894.681 2210.58 847.56 2240.3 804.304 2207.7M912.835 2191.64C913.88 2180.78 910.548 2155.45 890.488 2132.28M804.304 2207.7C798.174 2218.96 778.14 2235.6 742.79 2225.82M804.304 2207.7C804.826 2199.1 803.442 2175.74 793.725 2151.11M742.79 2225.82C736.715 2224.14 730.187 2221.68 723.199 2218.28C727.117 2206.28 733.778 2177.42 729.076 2157.97M742.79 2225.82C726.595 2229.32 687.467 2232.7 660.51 2218.28M660.51 2218.28C641.442 2231.73 593.667 2250.57 555.114 2218.28C555.5 2217.17 555.917 2215.6 556.302 2213.58M660.51 2218.28C664.95 2207.12 672.499 2179.79 667.171 2159.81M555.114 2169.31C558.887 2189.94 557.865 2205.38 556.302 2213.58M556.302 2213.58C543.76 2216.45 510.134 2217.26 475.968 2197.52M475.968 2197.52C448.019 2199.74 383.423 2198.38 348.63 2175.18C350.323 2172.67 352.538 2168.95 354.979 2164.21M475.968 2197.52L494.775 2141.2M377.218 2101.33C321.581 2077.88 265.151 2029.32 229.115 1988.49C215.95 1983.16 182.373 2010.49 168.006 2016.89C167.215 2055.95 200.069 2080.9 224.427 2092.25M377.218 2101.33C373.503 2126.39 361.956 2150.68 354.979 2164.21M377.218 2101.33C414.357 2116.98 452.2 2132.01 494.775 2141.2M269.485 2057.64C260.082 2064.56 240.413 2082.17 236.965 2097.21C233.27 2096.04 228.998 2094.38 224.427 2092.25M224.427 2092.25C230.799 2111.54 254.688 2147.76 299.262 2138.35M314.934 2092.25C312.453 2104.22 305.845 2130.2 299.262 2138.35M299.262 2138.35C306.238 2137.87 327.147 2142.37 354.979 2164.21M494.775 2141.2C549.916 2153.11 608.417 2159.44 667.171 2159.81M667.171 2159.81C687.82 2159.93 708.5 2159.33 729.076 2157.97M729.076 2157.97C750.794 2156.53 772.397 2154.25 793.725 2151.11M793.725 2151.11C826.982 2146.22 859.166 2141.43 890.488 2132.28M890.488 2132.28C906.109 2127.72 923.765 2122.65 938.68 2117M938.68 2117C971.833 2104.44 1005.02 2092.77 1033.5 2074.68M1033.5 2074.68C1044.64 2067.61 1056.15 2057.16 1066.41 2049.22" stroke="#43090A" stroke-width="10" stroke-linecap="round"/>
<path d="M1084.82 2964.97C1050.03 2989.11 985.305 2979.47 956.312 2974.77L971.2 3043.72C1002.15 3052.87 1069.07 3063.24 1089.13 3031.58L1084.82 2964.97Z" fill="#1E2D7B" stroke="#43090A" stroke-width="10"/>
<path d="M971.192 3042.16C974.981 3103.67 964.836 3174.33 1015.86 3224.35C1035.84 3243.94 1073.71 3241.01 1093.43 3178.9C1109.11 3129.53 1087.66 3058.22 1089.47 3030.01C1061.54 3064.49 998.979 3052.48 971.192 3042.16Z" fill="#FFDFDD"/>
<path d="M971.192 3042.16C972.498 3077.29 962.964 3164.79 959 3182.43C954.822 3201 931.238 3330.42 959 3346.2C970.026 3352.47 1127.48 3412.42 1134.92 3294.09C1140.88 3199.43 1107.1 3078.6 1089.47 3030.01C1087.66 3058.22 1109.11 3129.53 1093.43 3178.9C1073.71 3241.01 1035.84 3243.94 1015.86 3224.35C964.836 3174.33 974.981 3103.67 971.192 3042.16Z" fill="#1F2B7A"/>
<path d="M971.192 3042.16C972.498 3077.29 962.964 3164.79 959 3182.43C954.822 3201 931.238 3330.42 959 3346.2C970.026 3352.47 1127.48 3412.42 1134.92 3294.09C1140.88 3199.43 1107.1 3078.6 1089.47 3030.01M971.192 3042.16C974.981 3103.67 964.836 3174.33 1015.86 3224.35C1035.84 3243.94 1073.71 3241.01 1093.43 3178.9C1109.11 3129.53 1087.66 3058.22 1089.47 3030.01M971.192 3042.16C998.979 3052.48 1061.54 3064.49 1089.47 3030.01" stroke="#43090A" stroke-width="10"/>
<g filter="url(#filter11_f_2204_432)">
<path d="M981.779 2099.86C981.779 2099.86 851.307 1622.63 773.729 1466.3L849.348 1452.98C886.178 1513.71 1038.98 1841.66 1091.88 2000.34C1066.41 2061.46 981.779 2099.86 981.779 2099.86Z" fill="#172471"/>
</g>
<g filter="url(#filter12_f_2204_432)">
<path d="M784.262 1385.98C719.67 1422.02 584.928 1367.79 540.683 1344.84C534.513 1341.64 525.138 1331.91 525.138 1331.91C525.138 1331.91 505.5 1246.2 511.949 1220.64C500.982 1242.58 493.931 1314.67 508.428 1360.51C576.845 1399.14 762.256 1419.67 860.664 1403.61C869.059 1374.26 896.943 1296.23 897.886 1297.43L895.535 1271.18C895.509 1269.57 879.306 1250.41 875.553 1247.67C883.389 1318.2 838.331 1355.81 784.262 1385.98Z" fill="#D5D8EA"/>
</g>
<path d="M583.822 1180.4C584.205 1180.65 584.648 1179.82 585.132 1180.01C585.616 1180.2 585.627 1180.68 586.215 1180.65C586.803 1180.63 587.333 1181.02 587.614 1180.87C587.896 1180.71 587.844 1181.29 588.224 1181.21C588.604 1181.13 588.813 1181.24 589.105 1181.47C589.396 1181.7 590.349 1181.99 590.734 1181.81C591.12 1181.63 591.469 1182.08 591.699 1182.21C591.771 1182.25 591.825 1182.3 591.865 1182.35C591.882 1182.37 591.886 1182.41 591.881 1182.44C591.881 1182.44 591.881 1182.44 591.881 1182.44C591.874 1182.49 591.854 1182.53 591.829 1182.54C591.704 1182.55 591.514 1182.6 591.278 1182.73C590.838 1182.99 590.842 1182.64 590.284 1182.73C589.725 1182.81 589.36 1183.08 588.757 1182.79C588.154 1182.5 587.891 1183.34 587.067 1182.73C586.242 1182.12 586.025 1183.01 585.121 1183.01C584.217 1183.01 583.164 1182.36 582.623 1182.32C582.082 1182.29 581.349 1182.3 580.607 1182.08C579.864 1181.85 578.887 1182.02 578.078 1181.7C577.269 1181.37 576.122 1180.94 575.599 1180.69C575.077 1180.43 574.949 1180.38 574.408 1180.41C574.096 1180.43 573.688 1180.32 573.367 1180.04C573.206 1179.9 573.268 1179.74 573.457 1179.69C573.734 1179.61 573.937 1179.72 574.1 1179.53C574.424 1179.16 574.559 1179.02 574.866 1179.3C575.173 1179.59 575.406 1179.07 575.595 1179.16C575.784 1179.25 575.738 1179.57 576.776 1179.46C577.814 1179.35 578.374 1179.37 578.762 1179.36C579.151 1179.35 579.908 1179.74 580.542 1179.72C581.176 1179.71 582.424 1179.97 582.955 1179.88C583.485 1179.79 583.438 1180.14 583.822 1180.4ZM602.433 1182.94C602.816 1183.2 603.259 1182.37 603.743 1182.56C604.227 1182.75 604.238 1183.22 604.826 1183.2C605.414 1183.17 605.944 1183.57 606.225 1183.41C606.507 1183.26 606.455 1183.84 606.835 1183.76C607.215 1183.68 607.424 1183.79 607.716 1184.02C608.007 1184.25 608.96 1184.54 609.345 1184.36C609.731 1184.18 610.08 1184.63 610.31 1184.76C610.382 1184.8 610.436 1184.85 610.476 1184.9C610.493 1184.92 610.497 1184.95 610.492 1184.99C610.492 1184.99 610.492 1184.99 610.492 1184.99C610.485 1185.04 610.465 1185.08 610.44 1185.08C610.315 1185.09 610.125 1185.14 609.889 1185.28C609.449 1185.53 609.453 1185.19 608.895 1185.27C608.336 1185.36 607.971 1185.63 607.368 1185.34C606.764 1185.05 606.502 1185.89 605.678 1185.28C604.853 1184.67 604.636 1185.56 603.732 1185.55C602.828 1185.55 601.775 1184.9 601.234 1184.87C600.693 1184.84 599.96 1184.84 599.218 1184.62C598.475 1184.4 597.498 1184.57 596.689 1184.24C595.88 1183.92 594.733 1183.49 594.21 1183.23C593.688 1182.98 593.56 1182.92 593.019 1182.96C592.707 1182.98 592.299 1182.86 591.978 1182.59C591.817 1182.44 591.879 1182.29 592.068 1182.23C592.345 1182.16 592.548 1182.26 592.71 1182.08C593.034 1181.71 593.17 1181.57 593.477 1181.85C593.783 1182.13 594.017 1181.62 594.206 1181.71C594.395 1181.8 594.349 1182.11 595.387 1182.01C596.425 1181.9 596.985 1181.91 597.373 1181.91C597.762 1181.9 598.519 1182.28 599.153 1182.27C599.787 1182.26 601.035 1182.52 601.566 1182.43C602.096 1182.33 602.049 1182.69 602.433 1182.94ZM570.984 1293.04C570.692 1297.49 571.558 1300.99 571.609 1306.37C571.71 1311.78 571.27 1312.63 571.937 1318.77C572.631 1324.94 573.35 1331.08 574.084 1333.76C574.82 1336.43 574.28 1336.8 575.335 1340.61C576.417 1344.36 577.024 1346.66 577.923 1349.96C578.71 1353.32 582.729 1363.09 584.958 1366.25C587.01 1369.48 589.112 1373.3 590.644 1375.45C591.114 1376.12 591.481 1376.66 591.757 1377.07C591.874 1377.24 591.905 1377.34 591.876 1377.37C591.876 1377.37 591.876 1377.37 591.876 1377.37C591.84 1377.4 591.71 1377.31 591.538 1377.1C590.699 1376.09 589.448 1374.58 587.997 1372.75C585.358 1369.31 585.337 1368.74 582.469 1363.64C579.726 1358.49 578.038 1355.31 576.077 1348.7C574.28 1342.03 572.935 1340.72 571.628 1331.04C570.59 1321.35 569.615 1320.46 568.835 1310.76C568.115 1301.06 568.98 1288.82 569.333 1283C569.638 1277.18 570.224 1269.35 571.433 1261.17C572.62 1252.99 574.032 1242.87 576.12 1233.98C578.151 1225.07 581.593 1212.68 583.427 1207.02C585.255 1201.3 585.703 1199.97 587.339 1194.47C588.278 1191.34 589.786 1187.07 591.337 1183.53C592.097 1181.81 592.104 1182.25 591.523 1184.07C590.651 1186.8 589.845 1188.92 589.561 1190.39C589.014 1193.3 588.782 1194.51 587.455 1197.94C586.138 1201.37 586.171 1203.19 585.513 1205.22C584.876 1207.3 584.474 1207.12 581.974 1217.74C579.542 1228.39 578.469 1234.19 577.702 1238.27C576.946 1242.3 575.136 1250.74 574.296 1257.41C573.363 1264.05 571.888 1277.62 571.796 1283.12C571.651 1288.61 571.308 1288.61 570.984 1293.04ZM745.768 1316C744.33 1320.1 744.145 1323.63 742.293 1328.62C740.412 1333.58 739.711 1334.18 737.583 1339.86C735.434 1345.55 732.601 1350.93 731.583 1353.46C730.567 1355.98 729.94 1355.97 728.271 1359.45C726.595 1362.88 725.35 1364.91 723.475 1367.66C721.64 1370.52 715.707 1378.9 713.447 1381.91C711.283 1385 708.104 1387.91 706.226 1389.67C705.645 1390.21 705.171 1390.63 704.799 1390.93C704.642 1391.06 704.548 1391.1 704.522 1391.07C704.522 1391.07 704.522 1391.07 704.522 1391.07C704.49 1391.04 704.563 1390.9 704.744 1390.72C705.627 1389.81 706.909 1388.41 708.307 1386.63C710.829 1383.33 711.442 1383.21 714.752 1378.66C717.988 1374.04 719.613 1371.07 723.19 1365.49C726.68 1359.82 726.687 1358.13 731.144 1349.89C735.439 1341.57 734.964 1340.27 738.113 1331.52C741.226 1322.75 745.02 1311.58 746.4 1306.12C747.816 1300.67 749.504 1293.3 751.236 1285.52C752.984 1277.73 754.402 1267.96 755.861 1259.27C757.371 1250.57 758.96 1238.21 759.588 1232.46C760.233 1226.72 760.37 1225.31 760.564 1219.78C760.669 1216.57 760.896 1212.27 761.189 1208.49C761.333 1206.67 761.494 1207.07 761.541 1208.93C761.605 1211.74 761.45 1213.91 761.597 1215.39C761.891 1218.2 761.988 1219.51 761.544 1223.01C761.084 1226.62 761.499 1228.26 761.273 1230.39C761.024 1232.47 760.806 1232.43 759.963 1243.01C759.059 1253.57 758.223 1259.39 757.69 1263.35C757.148 1267.38 755.498 1275.58 754.307 1282.05C753.191 1288.52 750.078 1301.5 748.791 1306.73C747.543 1311.97 747.185 1311.88 745.768 1316ZM862.082 1334.99C860.672 1338.62 860.48 1341.82 858.592 1346.23C856.676 1350.59 855.977 1351.07 853.767 1356.06C851.54 1361.03 848.615 1365.68 847.569 1367.87C846.522 1370.05 845.891 1370.01 844.2 1372.99C842.483 1375.97 841.255 1377.68 839.385 1380.04C837.556 1382.45 831.819 1389.66 829.758 1392.33C827.765 1395.04 824.869 1397.6 823.206 1399.19C822.688 1399.69 822.263 1400.06 821.928 1400.35C821.786 1400.47 821.7 1400.5 821.673 1400.47C821.673 1400.47 821.673 1400.47 821.673 1400.47C821.64 1400.44 821.7 1400.32 821.862 1400.14C822.644 1399.3 823.778 1398.01 825.008 1396.43C827.292 1393.44 827.842 1393.38 830.954 1389.39C834.014 1385.36 835.594 1382.77 839.149 1377.99C842.62 1373.17 842.686 1371.59 847.226 1364.56C851.624 1357.41 851.21 1356.17 854.437 1348.51C857.642 1340.83 861.341 1330.99 862.597 1326.09C863.904 1321.22 865.367 1314.63 866.673 1307.62C868.002 1300.63 868.688 1291.8 869.185 1283.96C869.792 1276.12 869.492 1264.94 868.843 1259.82C868.784 1259.26 868.727 1258.77 868.671 1258.32L868.844 1258.6C865.697 1256.21 864.498 1255.34 860.808 1252.86C858.432 1251.27 855.243 1248.95 852.655 1246.84C851.353 1245.78 851.757 1245.86 853.182 1246.77C855.264 1248.1 856.876 1249.33 858.033 1249.89C860.345 1251.02 861.318 1251.51 863.802 1253.55C866.286 1255.6 867.833 1256.02 869.325 1257.15C869.451 1257.25 869.565 1257.34 869.672 1257.42L870.012 1257.65L870.091 1258.09C870.17 1259.53 870.302 1260.35 871.114 1269.02C871.85 1278.55 871.541 1283.86 871.427 1287.45C871.303 1291.08 870.346 1298.59 869.534 1304.44C868.851 1310.31 866.201 1322.03 864.981 1326.72C863.828 1331.41 863.462 1331.33 862.082 1334.99ZM720.75 1193.96C721.907 1194.27 722.917 1193.49 724.339 1193.75C725.76 1194.01 725.93 1194.49 727.582 1194.55C729.234 1194.6 730.846 1195.07 731.595 1194.95C732.345 1194.83 732.366 1195.42 733.417 1195.39C734.467 1195.36 735.089 1195.49 735.979 1195.77C736.869 1196.04 739.642 1196.47 740.679 1196.34C741.715 1196.2 742.833 1196.71 743.52 1196.88C743.734 1196.93 743.9 1196.98 744.027 1197.04C744.081 1197.06 744.103 1197.1 744.099 1197.14C744.099 1197.14 744.099 1197.14 744.099 1197.14C744.095 1197.18 744.051 1197.22 743.979 1197.22C743.631 1197.22 743.107 1197.24 742.481 1197.35C741.314 1197.55 741.223 1197.2 739.672 1197.21C738.12 1197.22 737.167 1197.46 735.38 1197.08C733.592 1196.7 733.095 1197.52 730.59 1196.79C728.086 1196.05 727.731 1196.93 725.178 1196.81C722.624 1196.69 719.463 1195.88 717.926 1195.78C716.39 1195.67 714.322 1195.58 712.161 1195.25C710 1194.93 707.289 1194.97 704.912 1194.53C702.534 1194.09 699.169 1193.49 697.62 1193.16C696.071 1192.83 695.694 1192.76 694.176 1192.72C693.303 1192.7 692.115 1192.53 691.129 1192.2C690.633 1192.04 690.763 1191.88 691.281 1191.85C692.039 1191.81 692.645 1191.95 693.049 1191.78C693.857 1191.45 694.199 1191.32 695.147 1191.65C696.095 1191.98 696.604 1191.49 697.164 1191.6C697.724 1191.72 697.685 1192.03 700.585 1192.06C703.486 1192.1 705.07 1192.18 706.165 1192.23C707.26 1192.27 709.509 1192.77 711.295 1192.84C713.08 1192.91 716.682 1193.34 718.153 1193.32C719.624 1193.3 719.593 1193.65 720.75 1193.96Z" fill="#43090A"/>
<path d="M682.5 1034.5C676.589 1055.06 671.185 1093.37 697.901 1104.91M699.235 1105.45C698.782 1105.28 698.337 1105.1 697.901 1104.91M697.901 1104.91C727.078 1104.17 800.543 1089.27 848.5 1041" stroke="#43090A" stroke-width="5"/>
<path d="M697.319 1107.02C645.484 1106.52 614.89 1177.57 655.006 1197.52C695.123 1217.48 729.9 1147.79 697.319 1107.02Z" fill="url(#paint18_linear_2204_432)" stroke="#43090A" stroke-width="10"/>
<g filter="url(#filter13_f_2204_432)">
<path d="M696.541 1108.97C684.005 1107.8 679.718 1120 686.747 1124.25C693.777 1128.5 702.732 1120.32 696.541 1108.97Z" fill="white"/>
</g>
<path d="M537.862 762.864C510.771 754.896 485.75 718.068 479.481 697.04C472.037 681.368 483.008 636.31 526.89 652.374C570.773 668.438 585.662 708.403 583.311 738.572C580.96 768.741 551.184 766.782 537.862 762.864Z" fill="url(#paint19_linear_2204_432)"/>
<path d="M481.831 701.35C465.816 678.608 458.337 665.899 446.96 643.363C455.802 645.078 461.04 646.894 470.861 651.591C476.346 639.837 490.318 635.918 502.989 635.918C526.889 635.919 558.931 647.09 577.041 686.853C596.816 730.275 585.504 763.202 567.245 765.215C550.398 767.072 545.696 765.892 530.415 760.264C551.573 764.574 582.134 768.251 582.134 737.789C582.134 699.752 560.977 675.883 547.263 666.088C533.55 656.292 511.217 653.158 493.194 657.86C478.775 661.621 479.611 688.421 481.831 701.35Z" fill="#48130B"/>
<path d="M534.725 731.912C522.507 712.531 518.181 673.088 527.67 651.591C544.91 655.039 562.152 670.398 568.029 679.017C575.604 699.914 588.062 743.307 577.433 749.935C561.343 759.967 546.95 751.302 534.725 731.912Z" fill="url(#paint20_linear_2204_432)" stroke="#43090A" stroke-width="10"/>
<path d="M547.894 632.646C547.735 634.305 547.575 635.964 547.416 637.623C548.158 637.652 548.954 637.754 549.747 637.908C564.19 641.696 578.038 653.857 582.717 669.324C582.953 670.192 583.152 671.075 583.31 671.965C583.235 671.064 583.117 670.163 582.961 669.27C579.521 653.182 567.259 639.349 550.888 633.297C549.928 633.017 548.919 632.787 547.894 632.646Z" fill="#43090A"/>
<path d="M745.796 602.468C745.873 604.132 745.95 605.797 746.027 607.462C745.158 607.458 744.017 607.664 742.952 607.938C723.222 615.203 702.891 628.646 692.202 648.06C691.711 649.217 691.317 650.395 691.058 651.59C691.234 650.38 691.551 649.169 691.969 647.97C701.68 627.505 720.46 612.836 741.602 603.384C742.863 602.971 744.257 602.587 745.796 602.468Z" fill="#43090A"/>
<g filter="url(#filter14_f_2204_432)">
<path d="M692.5 1034.5L830.149 978.11L833.284 940.496L839.161 902.882C764.325 956.56 697 972 697 972C697 972 717.576 1011.38 692.5 1034.5Z" fill="#F2BAC4"/>
<path d="M692.5 1034.5L830.149 978.11L833.284 940.496L839.161 902.882C764.325 956.56 697 972 697 972C697 972 717.576 1011.38 692.5 1034.5Z" stroke="#FDD8DE"/>
</g>
<path d="M738.858 743.275C714.139 736.335 706.991 697.694 706.338 679.802C716.995 645.009 743.429 626.385 755.314 621.422C793.842 619.202 862.524 629.055 850.523 691.164C835.634 768.222 776.959 753.971 738.858 743.275Z" fill="url(#paint21_linear_2204_432)"/>
<path d="M600.549 780.103L583.31 796.559" stroke="#43090A" stroke-width="5" stroke-linecap="round"/>
<path d="M749.052 678.624C748.908 644.093 769.948 631.216 783.531 628.865C796.852 626.906 839.56 642.186 838.384 685.285C837.209 728.384 820.38 745.589 794.11 746.799C764.917 748.144 749.228 720.87 749.052 678.624Z" fill="url(#paint22_linear_2204_432)" stroke="#43090A" stroke-width="10" stroke-linecap="round"/>
<path d="M762.758 626.514C737.055 626.201 712.868 665.826 703.987 685.677C717.152 620.167 759.624 606.662 779.214 608.099C813.066 606.218 843.732 628.734 854.833 640.227H892.055L850.131 688.42C833.676 636.701 794.886 626.906 762.758 626.514Z" fill="#43090A" stroke="#43090A" stroke-width="5" stroke-linecap="round"/>
<g filter="url(#filter15_f_2204_432)">
<path d="M822.883 680.956C822.926 681.21 822.967 681.465 823.006 681.718C826.234 702.757 816.557 721.748 801.164 724.332C785.586 726.948 770.052 711.768 766.469 690.428C762.886 669.088 772.61 649.668 788.189 647.052C803.767 644.436 819.3 659.616 822.883 680.956Z" fill="#3B93C1"/>
<path d="M766.469 690.428C762.886 669.088 772.61 649.668 788.189 647.052C803.767 644.436 819.3 659.616 822.883 680.956C822.926 681.21 822.967 681.465 823.006 681.718C836.664 688.209 832.945 701.638 832.945 703.205C833.77 689.687 839.482 676.311 825.889 655.796C816.44 641.534 800.95 631.485 784.665 632.913C768.731 634.309 759.027 644.629 754.196 665.589C748.154 691.8 758.247 715.661 762.417 724.332C760.735 713.618 758.494 698.006 766.469 690.428Z" fill="#3B93C1"/>
</g>
<g filter="url(#filter16_f_2204_432)">
<path d="M824.195 668.839C828.802 681.669 826.506 694.236 819.065 696.908C811.625 699.579 817.883 685.59 813.276 672.76C808.668 659.929 794.942 653.116 802.382 650.444C809.822 647.773 819.588 656.008 824.195 668.839Z" fill="white"/>
</g>
<path d="M1038.59 1233.96C1007.25 1275.02 934.632 1276.41 902.242 1271.97C905.377 1312.71 911.332 1398.91 910.078 1417.72C908.825 1436.53 909.556 1469.18 910.078 1483.15C921.441 1496.34 948.867 1525 967.674 1534.09L971.984 1523.51C985.959 1529.78 1015.55 1537.3 1022.14 1517.24C1038.98 1523.38 1073.62 1529.23 1077.38 1503.52C1087.17 1498.75 1101.2 1489.91 1112.66 1478.45C1125.65 1465.45 1135.34 1449.08 1131.84 1431.43C1123.61 1389.9 1049.17 1291.95 1038.59 1233.96Z" fill="url(#paint23_linear_2204_432)"/>
<path d="M1022.14 1517.24C1015.55 1537.3 985.959 1529.78 971.984 1523.51C970.548 1538.79 965.558 1570.84 957.095 1576.79C960.752 1588.02 980.447 1606.26 1029.97 1589.33C1045.12 1599.65 1082.4 1608.61 1110.29 1561.9C1128.19 1558.64 1164.75 1543.33 1167.89 1508.23C1153.14 1504.44 1121.44 1493.18 1112.66 1478.45C1101.2 1489.91 1087.17 1498.75 1077.38 1503.52C1073.62 1529.23 1038.98 1523.38 1022.14 1517.24Z" fill="#E8EDF6"/>
<path d="M971.984 1523.51L967.674 1534.09C948.867 1525 921.441 1496.34 910.078 1483.15C909.556 1469.18 908.825 1436.53 910.078 1417.72C911.332 1398.91 905.377 1312.71 902.242 1271.97C934.632 1276.41 1007.25 1275.02 1038.59 1233.96C1049.17 1291.95 1123.61 1389.9 1131.84 1431.43C1135.34 1449.08 1125.65 1465.45 1112.66 1478.45M971.984 1523.51C985.959 1529.78 1015.55 1537.3 1022.14 1517.24C1038.98 1523.38 1073.62 1529.23 1077.38 1503.52C1087.17 1498.75 1101.2 1489.91 1112.66 1478.45M971.984 1523.51C970.548 1538.79 965.558 1570.84 957.095 1576.79C960.752 1588.02 980.447 1606.26 1029.97 1589.33M1029.97 1589.33C1030.62 1576.3 1031.15 1547.02 1028.01 1534.09M1029.97 1589.33C1045.12 1599.65 1082.4 1608.61 1110.29 1561.9M1110.29 1561.9C1106.51 1551.85 1095.56 1529.62 1082.08 1521.16M1110.29 1561.9C1128.19 1558.64 1164.75 1543.33 1167.89 1508.23C1153.14 1504.44 1121.44 1493.18 1112.66 1478.45" stroke="#43090A" stroke-width="10"/>
<path d="M450.095 602.748C460.543 591.255 492.802 568.818 538.252 571.012M679.695 571.012C702.028 551.813 762.993 524.151 828.19 567.094" stroke="black" stroke-width="10" stroke-linecap="round"/>
<g filter="url(#filter17_f_2204_432)">
<path d="M968.458 690.13C965.412 674.468 996.595 673.225 1004.11 673.282C979.349 610.593 944.426 668.842 930.061 705.802C951.061 711.131 947.17 739.367 942.99 752.819C969.671 738.533 972.848 712.712 968.458 690.13Z" fill="#F7BDCE"/>
</g>
<path d="M1006.85 671.077C996.929 645.218 967.439 615.597 928.885 703.989C939.464 711.173 955.449 731.886 934.762 757.275M967.674 692.627C974.988 698.374 981.074 718.721 946.908 754.141" stroke="#43090A" stroke-width="10" stroke-linecap="round"/>
<g filter="url(#filter18_f_2204_432)">
<ellipse cx="504.948" cy="2467.77" rx="32.9119" ry="23.9003" fill="#FED1D0"/>
</g>
<g filter="url(#filter19_f_2204_432)">
<ellipse cx="508.104" cy="789.607" rx="41.5234" ry="18.0232" transform="rotate(32.6346 508.104 789.607)" fill="#FED1D0"/>
</g>
<g filter="url(#filter20_f_2204_432)">
<ellipse cx="855.692" cy="765.691" rx="43.874" ry="18.0232" transform="rotate(-32.4091 855.692 765.691)" fill="#FED1D0"/>
</g>
<g filter="url(#filter21_f_2204_432)">
<ellipse cx="817.611" cy="2459.54" rx="32.9119" ry="24.2921" fill="#FED1D0"/>
</g>
<g filter="url(#filter22_f_2204_432)">
<ellipse cx="1131.84" cy="750.469" rx="7.05256" ry="12.5379" fill="white"/>
</g>
<g filter="url(#filter23_f_2204_432)">
<ellipse cx="1170.24" cy="744.983" rx="7.05256" ry="4.7017" transform="rotate(-20.3346 1170.24 744.983)" fill="white"/>
</g>
<g filter="url(#filter24_f_2204_432)">
<ellipse cx="983.213" cy="392.307" rx="6.66075" ry="3.39989" transform="rotate(-14.8783 983.213 392.307)" fill="white"/>
</g>
<g filter="url(#filter25_f_2204_432)">
<ellipse cx="1196.88" cy="738.323" rx="7.05256" ry="23.1167" fill="white"/>
</g>
<g filter="url(#filter26_f_2204_432)">
<ellipse cx="455.541" cy="425.819" rx="5.81348" ry="8.52101" transform="rotate(30.9001 455.541 425.819)" fill="white"/>
</g>
<g filter="url(#filter27_f_2204_432)">
<ellipse cx="997.452" cy="387.703" rx="6.66075" ry="14.4969" transform="rotate(-14.8783 997.452 387.703)" fill="white"/>
</g>
<g filter="url(#filter28_f_2204_432)">
<ellipse cx="345.162" cy="765.764" rx="7.05821" ry="4.19804" transform="rotate(15.1002 345.162 765.764)" fill="white"/>
</g>
<g filter="url(#filter29_f_2204_432)">
<ellipse cx="440.493" cy="417.995" rx="5.81348" ry="15.8421" transform="rotate(30.9001 440.493 417.995)" fill="white"/>
</g>
<g filter="url(#filter30_f_2204_432)">
<ellipse cx="314.666" cy="777.856" rx="7.05821" ry="18.7187" transform="rotate(-0.402516 314.666 777.856)" fill="white"/>
</g>
<g opacity="0.67" filter="url(#filter31_f_2204_432)">
<path d="M418.358 1305.49C412.089 1298.28 391.454 1331.74 381.92 1349.37C392.891 1348.76 409.347 1360.91 413.265 1365.22C417.575 1348.76 424.627 1312.7 418.358 1305.49Z" fill="#251D53"/>
</g>
<g filter="url(#filter32_f_2204_432)">
<path d="M561.363 691.166C561.392 691.338 561.42 691.51 561.447 691.681C563.666 705.899 558.674 718.478 550.175 719.905C541.573 721.349 532.637 710.824 530.214 696.396C527.792 681.968 532.801 669.101 541.402 667.657C550.004 666.212 558.941 676.738 561.363 691.166Z" fill="#3B93C1"/>
<path d="M530.214 696.396C527.792 681.968 532.801 669.101 541.402 667.657C550.004 666.212 558.941 676.738 561.363 691.166C561.392 691.338 561.42 691.51 561.447 691.681C569.165 696.324 573.849 713.065 573.88 714.119C571.852 706.595 565.14 681.532 564.477 681.599C554.041 668.384 546.093 663.637 530.214 657.307C530.214 657.307 526.043 665.463 526.473 679.64C527.015 697.472 532.944 715.439 533.525 721.172C532.374 713.931 525.937 701.332 530.214 696.396Z" fill="#3B93C1"/>
</g>
<g filter="url(#filter33_f_2204_432)">
<path d="M560.523 690.941C563.308 698.698 561.919 706.294 557.422 707.909C552.924 709.524 556.707 701.068 553.922 693.312C551.137 685.555 542.839 681.437 547.336 679.822C551.834 678.207 557.737 683.185 560.523 690.941Z" fill="white"/>
</g>
<g filter="url(#filter34_f_2204_432)">
<path d="M571.967 1405.5C527.049 1503.59 392.121 1781.25 404.267 1915.2C383.153 1806.61 514.866 1467.17 571.967 1405.5Z" fill="#181D53"/>
</g>
<g filter="url(#filter35_f_2204_432)">
<path d="M641.427 1443.59C628.692 1550.71 587.494 1763.67 611.263 1893.32C575.362 1811.15 605.946 1519.77 641.427 1443.59Z" fill="#181D53"/>
</g>
<g filter="url(#filter36_f_2204_432)">
<path d="M721.105 1433.11C731.022 1540.53 766.614 1754.5 739.449 1883.47C777.494 1802.28 754.573 1510.2 721.105 1433.11Z" fill="#181D53"/>
</g>
<g filter="url(#filter37_f_2204_432)">
<path d="M779.364 1441.32C812.365 1537.7 921.822 1767.75 920.356 1889.7C894.41 1749.28 788.772 1511.61 779.364 1441.32Z" fill="#181D53"/>
</g>
<path d="M863.845 1406.36C744.727 1423.09 537.468 1379.71 504.556 1363.26L483.207 1397.35C538.558 1437.78 690.922 1505.61 857.575 1453.58L863.845 1406.36Z" fill="url(#paint24_linear_2204_432)" stroke="#43090A" stroke-width="10"/>
<defs>
<filter id="filter0_f_2204_432" x="279.429" y="771.397" width="220.264" height="370.718" filterUnits="userSpaceOnUse" color-interpolation-filters="sRGB">
<feFlood flood-opacity="0" result="BackgroundImageFix"/>
<feBlend mode="normal" in="SourceGraphic" in2="BackgroundImageFix" result="shape"/>
<feGaussianBlur stdDeviation="5.6" result="effect1_foregroundBlur_2204_432"/>
</filter>
<filter id="filter1_f_2204_432" x="381.673" y="2084.11" width="609.193" height="238.37" filterUnits="userSpaceOnUse" color-interpolation-filters="sRGB">
<feFlood flood-opacity="0" result="BackgroundImageFix"/>
<feBlend mode="normal" in="SourceGraphic" in2="BackgroundImageFix" result="shape"/>
<feGaussianBlur stdDeviation="11.4" result="effect1_foregroundBlur_2204_432"/>
</filter>
<filter id="filter2_f_2204_432" x="931.894" y="1427.05" width="152.601" height="102.758" filterUnits="userSpaceOnUse" color-interpolation-filters="sRGB">
<feFlood flood-opacity="0" result="BackgroundImageFix"/>
<feBlend mode="normal" in="SourceGraphic" in2="BackgroundImageFix" result="shape"/>
<feGaussianBlur stdDeviation="6.5" result="effect1_foregroundBlur_2204_432"/>
</filter>
<filter id="filter3_f_2204_432" x="1037.81" y="1437.58" width="37.2184" height="66.3326" filterUnits="userSpaceOnUse" color-interpolation-filters="sRGB">
<feFlood flood-opacity="0" result="BackgroundImageFix"/>
<feBlend mode="normal" in="SourceGraphic" in2="BackgroundImageFix" result="shape"/>
<feGaussianBlur stdDeviation="1.6" result="effect1_foregroundBlur_2204_432"/>
</filter>
<filter id="filter4_f_2204_432" x="445.131" y="1016.9" width="173.207" height="166.14" filterUnits="userSpaceOnUse" color-interpolation-filters="sRGB">
<feFlood flood-opacity="0" result="BackgroundImageFix"/>
<feBlend mode="normal" in="SourceGraphic" in2="BackgroundImageFix" result="shape"/>
<feGaussianBlur stdDeviation="21.55" result="effect1_foregroundBlur_2204_432"/>
</filter>
<filter id="filter5_f_2204_432" x="875.598" y="1047.46" width="184.152" height="185.72" filterUnits="userSpaceOnUse" color-interpolation-filters="sRGB">
<feFlood flood-opacity="0" result="BackgroundImageFix"/>
<feBlend mode="normal" in="SourceGraphic" in2="BackgroundImageFix" result="shape"/>
<feGaussianBlur stdDeviation="21.55" result="effect1_foregroundBlur_2204_432"/>
</filter>
<filter id="filter6_f_2204_432" x="602.427" y="841.127" width="107.055" height="66.0047" filterUnits="userSpaceOnUse" color-interpolation-filters="sRGB">
<feFlood flood-opacity="0" result="BackgroundImageFix"/>
<feBlend mode="normal" in="SourceGraphic" in2="BackgroundImageFix" result="shape"/>
<feGaussianBlur stdDeviation="9.3" result="effect1_foregroundBlur_2204_432"/>
</filter>
<filter id="filter7_f_2204_432" x="669.897" y="867.021" width="19.596" height="16.3937" filterUnits="userSpaceOnUse" color-interpolation-filters="sRGB">
<feFlood flood-opacity="0" result="BackgroundImageFix"/>
<feBlend mode="normal" in="SourceGraphic" in2="BackgroundImageFix" result="shape"/>
<feGaussianBlur stdDeviation="2.6" result="effect1_foregroundBlur_2204_432"/>
</filter>
<filter id="filter8_f_2204_432" x="601.292" y="835.808" width="104.151" height="57.0237" filterUnits="userSpaceOnUse" color-interpolation-filters="sRGB">
<feFlood flood-opacity="0" result="BackgroundImageFix"/>
<feBlend mode="normal" in="SourceGraphic" in2="BackgroundImageFix" result="shape"/>
<feGaussianBlur stdDeviation="9.3" result="effect1_foregroundBlur_2204_432"/>
</filter>
<filter id="filter9_f_2204_432" x="1077.16" y="834.488" width="102.701" height="243.36" filterUnits="userSpaceOnUse" color-interpolation-filters="sRGB">
<feFlood flood-opacity="0" result="BackgroundImageFix"/>
<feBlend mode="normal" in="SourceGraphic" in2="BackgroundImageFix" result="shape"/>
<feGaussianBlur stdDeviation="7.75" result="effect1_foregroundBlur_2204_432"/>
</filter>
<filter id="filter10_f_2204_432" x="980.35" y="694.806" width="183.642" height="416.153" filterUnits="userSpaceOnUse" color-interpolation-filters="sRGB">
<feFlood flood-opacity="0" result="BackgroundImageFix"/>
<feBlend mode="normal" in="SourceGraphic" in2="BackgroundImageFix" result="shape"/>
<feGaussianBlur stdDeviation="10.2" result="effect1_foregroundBlur_2204_432"/>
</filter>
<filter id="filter11_f_2204_432" x="731.229" y="1410.48" width="403.149" height="731.876" filterUnits="userSpaceOnUse" color-interpolation-filters="sRGB">
<feFlood flood-opacity="0" result="BackgroundImageFix"/>
<feBlend mode="normal" in="SourceGraphic" in2="BackgroundImageFix" result="shape"/>
<feGaussianBlur stdDeviation="21.25" result="effect1_foregroundBlur_2204_432"/>
</filter>
<filter id="filter12_f_2204_432" x="490.346" y="1210.74" width="417.44" height="208.275" filterUnits="userSpaceOnUse" color-interpolation-filters="sRGB">
<feFlood flood-opacity="0" result="BackgroundImageFix"/>
<feBlend mode="normal" in="SourceGraphic" in2="BackgroundImageFix" result="shape"/>
<feGaussianBlur stdDeviation="4.95" result="effect1_foregroundBlur_2204_432"/>
</filter>
<filter id="filter13_f_2204_432" x="678.174" y="1103.69" width="25.6439" height="26.9005" filterUnits="userSpaceOnUse" color-interpolation-filters="sRGB">
<feFlood flood-opacity="0" result="BackgroundImageFix"/>
<feBlend mode="normal" in="SourceGraphic" in2="BackgroundImageFix" result="shape"/>
<feGaussianBlur stdDeviation="2.6" result="effect1_foregroundBlur_2204_432"/>
</filter>
<filter id="filter14_f_2204_432" x="673.861" y="883.481" width="184.278" height="169.782" filterUnits="userSpaceOnUse" color-interpolation-filters="sRGB">
<feFlood flood-opacity="0" result="BackgroundImageFix"/>
<feBlend mode="normal" in="SourceGraphic" in2="BackgroundImageFix" result="shape"/>
<feGaussianBlur stdDeviation="9.15" result="effect1_foregroundBlur_2204_432"/>
</filter>
<filter id="filter15_f_2204_432" x="741.816" y="622.278" width="103.52" height="112.847" filterUnits="userSpaceOnUse" color-interpolation-filters="sRGB">
<feFlood flood-opacity="0" result="BackgroundImageFix"/>
<feBlend mode="normal" in="SourceGraphic" in2="BackgroundImageFix" result="shape"/>
<feGaussianBlur stdDeviation="5.25" result="effect1_foregroundBlur_2204_432"/>
</filter>
<filter id="filter16_f_2204_432" x="791.914" y="641.641" width="42.9569" height="63.8974" filterUnits="userSpaceOnUse" color-interpolation-filters="sRGB">
<feFlood flood-opacity="0" result="BackgroundImageFix"/>
<feBlend mode="normal" in="SourceGraphic" in2="BackgroundImageFix" result="shape"/>
<feGaussianBlur stdDeviation="4.15" result="effect1_foregroundBlur_2204_432"/>
</filter>
<filter id="filter17_f_2204_432" x="926.061" y="641.592" width="82.0513" height="115.228" filterUnits="userSpaceOnUse" color-interpolation-filters="sRGB">
<feFlood flood-opacity="0" result="BackgroundImageFix"/>
<feBlend mode="normal" in="SourceGraphic" in2="BackgroundImageFix" result="shape"/>
<feGaussianBlur stdDeviation="2" result="effect1_foregroundBlur_2204_432"/>
</filter>
<filter id="filter18_f_2204_432" x="447.336" y="2419.17" width="115.224" height="97.2008" filterUnits="userSpaceOnUse" color-interpolation-filters="sRGB">
<feFlood flood-opacity="0" result="BackgroundImageFix"/>
<feBlend mode="normal" in="SourceGraphic" in2="BackgroundImageFix" result="shape"/>
<feGaussianBlur stdDeviation="12.35" result="effect1_foregroundBlur_2204_432"/>
</filter>
<filter id="filter19_f_2204_432" x="438.401" y="729.152" width="139.406" height="120.909" filterUnits="userSpaceOnUse" color-interpolation-filters="sRGB">
<feFlood flood-opacity="0" result="BackgroundImageFix"/>
<feBlend mode="normal" in="SourceGraphic" in2="BackgroundImageFix" result="shape"/>
<feGaussianBlur stdDeviation="16.7" result="effect1_foregroundBlur_2204_432"/>
</filter>
<filter id="filter20_f_2204_432" x="784.003" y="704.279" width="143.377" height="122.823" filterUnits="userSpaceOnUse" color-interpolation-filters="sRGB">
<feFlood flood-opacity="0" result="BackgroundImageFix"/>
<feBlend mode="normal" in="SourceGraphic" in2="BackgroundImageFix" result="shape"/>
<feGaussianBlur stdDeviation="16.7" result="effect1_foregroundBlur_2204_432"/>
</filter>
<filter id="filter21_f_2204_432" x="759.999" y="2410.55" width="115.224" height="97.9845" filterUnits="userSpaceOnUse" color-interpolation-filters="sRGB">
<feFlood flood-opacity="0" result="BackgroundImageFix"/>
<feBlend mode="normal" in="SourceGraphic" in2="BackgroundImageFix" result="shape"/>
<feGaussianBlur stdDeviation="12.35" result="effect1_foregroundBlur_2204_432"/>
</filter>
<filter id="filter22_f_2204_432" x="1111.79" y="724.931" width="40.105" height="51.0757" filterUnits="userSpaceOnUse" color-interpolation-filters="sRGB">
<feFlood flood-opacity="0" result="BackgroundImageFix"/>
<feBlend mode="normal" in="SourceGraphic" in2="BackgroundImageFix" result="shape"/>
<feGaussianBlur stdDeviation="6.5" result="effect1_foregroundBlur_2204_432"/>
</filter>
<filter id="filter23_f_2204_432" x="1150.43" y="726.938" width="39.627" height="36.0898" filterUnits="userSpaceOnUse" color-interpolation-filters="sRGB">
<feFlood flood-opacity="0" result="BackgroundImageFix"/>
<feBlend mode="normal" in="SourceGraphic" in2="BackgroundImageFix" result="shape"/>
<feGaussianBlur stdDeviation="6.5" result="effect1_foregroundBlur_2204_432"/>
</filter>
<filter id="filter24_f_2204_432" x="963.716" y="375.602" width="38.9941" height="33.4102" filterUnits="userSpaceOnUse" color-interpolation-filters="sRGB">
<feFlood flood-opacity="0" result="BackgroundImageFix"/>
<feBlend mode="normal" in="SourceGraphic" in2="BackgroundImageFix" result="shape"/>
<feGaussianBlur stdDeviation="6.5" result="effect1_foregroundBlur_2204_432"/>
</filter>
<filter id="filter25_f_2204_432" x="1176.83" y="702.206" width="40.105" height="72.2334" filterUnits="userSpaceOnUse" color-interpolation-filters="sRGB">
<feFlood flood-opacity="0" result="BackgroundImageFix"/>
<feBlend mode="normal" in="SourceGraphic" in2="BackgroundImageFix" result="shape"/>
<feGaussianBlur stdDeviation="6.5" result="effect1_foregroundBlur_2204_432"/>
</filter>
<filter id="filter26_f_2204_432" x="435.905" y="404.919" width="39.2717" height="41.7993" filterUnits="userSpaceOnUse" color-interpolation-filters="sRGB">
<feFlood flood-opacity="0" result="BackgroundImageFix"/>
<feBlend mode="normal" in="SourceGraphic" in2="BackgroundImageFix" result="shape"/>
<feGaussianBlur stdDeviation="6.5" result="effect1_foregroundBlur_2204_432"/>
</filter>
<filter id="filter27_f_2204_432" x="977.014" y="360.586" width="40.875" height="54.2329" filterUnits="userSpaceOnUse" color-interpolation-filters="sRGB">
<feFlood flood-opacity="0" result="BackgroundImageFix"/>
<feBlend mode="normal" in="SourceGraphic" in2="BackgroundImageFix" result="shape"/>
<feGaussianBlur stdDeviation="6.5" result="effect1_foregroundBlur_2204_432"/>
</filter>
<filter id="filter28_f_2204_432" x="325.259" y="748.312" width="39.8054" height="34.9038" filterUnits="userSpaceOnUse" color-interpolation-filters="sRGB">
<feFlood flood-opacity="0" result="BackgroundImageFix"/>
<feBlend mode="normal" in="SourceGraphic" in2="BackgroundImageFix" result="shape"/>
<feGaussianBlur stdDeviation="6.5" result="effect1_foregroundBlur_2204_432"/>
</filter>
<filter id="filter29_f_2204_432" x="417.949" y="391.075" width="45.0889" height="53.8408" filterUnits="userSpaceOnUse" color-interpolation-filters="sRGB">
<feFlood flood-opacity="0" result="BackgroundImageFix"/>
<feBlend mode="normal" in="SourceGraphic" in2="BackgroundImageFix" result="shape"/>
<feGaussianBlur stdDeviation="6.5" result="effect1_foregroundBlur_2204_432"/>
</filter>
<filter id="filter30_f_2204_432" x="294.607" y="746.138" width="40.1184" height="63.437" filterUnits="userSpaceOnUse" color-interpolation-filters="sRGB">
<feFlood flood-opacity="0" result="BackgroundImageFix"/>
<feBlend mode="normal" in="SourceGraphic" in2="BackgroundImageFix" result="shape"/>
<feGaussianBlur stdDeviation="6.5" result="effect1_foregroundBlur_2204_432"/>
</filter>
<filter id="filter31_f_2204_432" x="364.52" y="1287.09" width="73.7238" height="95.5305" filterUnits="userSpaceOnUse" color-interpolation-filters="sRGB">
<feFlood flood-opacity="0" result="BackgroundImageFix"/>
<feBlend mode="normal" in="SourceGraphic" in2="BackgroundImageFix" result="shape"/>
<feGaussianBlur stdDeviation="8.7" result="effect1_foregroundBlur_2204_432"/>
</filter>
<filter id="filter32_f_2204_432" x="515.942" y="646.807" width="68.4385" height="84.8647" filterUnits="userSpaceOnUse" color-interpolation-filters="sRGB">
<feFlood flood-opacity="0" result="BackgroundImageFix"/>
<feBlend mode="normal" in="SourceGraphic" in2="BackgroundImageFix" result="shape"/>
<feGaussianBlur stdDeviation="5.25" result="effect1_foregroundBlur_2204_432"/>
</filter>
<filter id="filter33_f_2204_432" x="537.726" y="671.218" width="32.5331" height="45.1918" filterUnits="userSpaceOnUse" color-interpolation-filters="sRGB">
<feFlood flood-opacity="0" result="BackgroundImageFix"/>
<feBlend mode="normal" in="SourceGraphic" in2="BackgroundImageFix" result="shape"/>
<feGaussianBlur stdDeviation="4.15" result="effect1_foregroundBlur_2204_432"/>
</filter>
<filter id="filter34_f_2204_432" x="389.098" y="1392.6" width="195.77" height="535.5" filterUnits="userSpaceOnUse" color-interpolation-filters="sRGB">
<feFlood flood-opacity="0" result="BackgroundImageFix"/>
<feBlend mode="normal" in="SourceGraphic" in2="BackgroundImageFix" result="shape"/>
<feGaussianBlur stdDeviation="6.45" result="effect1_foregroundBlur_2204_432"/>
</filter>
<filter id="filter35_f_2204_432" x="582.302" y="1430.68" width="72.0246" height="475.53" filterUnits="userSpaceOnUse" color-interpolation-filters="sRGB">
<feFlood flood-opacity="0" result="BackgroundImageFix"/>
<feBlend mode="normal" in="SourceGraphic" in2="BackgroundImageFix" result="shape"/>
<feGaussianBlur stdDeviation="6.45" result="effect1_foregroundBlur_2204_432"/>
</filter>
<filter id="filter36_f_2204_432" x="708.204" y="1420.21" width="63.8901" height="476.167" filterUnits="userSpaceOnUse" color-interpolation-filters="sRGB">
<feFlood flood-opacity="0" result="BackgroundImageFix"/>
<feBlend mode="normal" in="SourceGraphic" in2="BackgroundImageFix" result="shape"/>
<feGaussianBlur stdDeviation="6.45" result="effect1_foregroundBlur_2204_432"/>
</filter>
<filter id="filter37_f_2204_432" x="766.464" y="1428.42" width="166.807" height="474.176" filterUnits="userSpaceOnUse" color-interpolation-filters="sRGB">
<feFlood flood-opacity="0" result="BackgroundImageFix"/>
<feBlend mode="normal" in="SourceGraphic" in2="BackgroundImageFix" result="shape"/>
<feGaussianBlur stdDeviation="6.45" result="effect1_foregroundBlur_2204_432"/>
</filter>
<linearGradient id="paint0_linear_2204_432" x1="395.538" y1="63.3104" x2="397.152" y2="1486.65" gradientUnits="userSpaceOnUse">
<stop offset="0.514423" stop-color="#FBE4EB"/>
<stop offset="1" stop-color="white"/>
</linearGradient>
<linearGradient id="paint1_linear_2204_432" x1="67.8747" y1="1984.53" x2="733.302" y2="1834.49" gradientUnits="userSpaceOnUse">
<stop offset="0.379808" stop-color="#FBE4EB"/>
<stop offset="1" stop-color="white"/>
</linearGradient>
<linearGradient id="paint2_linear_2204_432" x1="1191.02" y1="74.8624" x2="1164.03" y2="1498.05" gradientUnits="userSpaceOnUse">
<stop offset="0.514423" stop-color="#FBE4EB"/>
<stop offset="1" stop-color="white"/>
</linearGradient>
<linearGradient id="paint3_linear_2204_432" x1="1509.62" y1="2002.24" x2="780.403" y2="1799.33" gradientUnits="userSpaceOnUse">
<stop offset="0.379808" stop-color="#FBE4EB"/>
<stop offset="1" stop-color="white"/>
</linearGradient>
<linearGradient id="paint4_linear_2204_432" x1="404.253" y1="314.777" x2="352.534" y2="1083.11" gradientUnits="userSpaceOnUse">
<stop offset="0.0384615" stop-color="#FD4994"/>
<stop offset="0.456307" stop-color="#FF93BD"/>
<stop offset="0.975962" stop-color="#FD4994"/>
</linearGradient>
<linearGradient id="paint5_linear_2204_432" x1="983.738" y1="1446.32" x2="1314.82" y2="2054.02" gradientUnits="userSpaceOnUse">
<stop offset="0.0673077" stop-color="#FFD4D1"/>
<stop offset="0.552885" stop-color="#FFF1F0"/>
<stop offset="1" stop-color="#FFD4D1"/>
</linearGradient>
<linearGradient id="paint6_linear_2204_432" x1="559.409" y1="1123.86" x2="443.154" y2="1418.11" gradientUnits="userSpaceOnUse">
<stop stop-color="#33439A"/>
<stop offset="1" stop-color="#1E2C7A"/>
</linearGradient>
<linearGradient id="paint7_linear_2204_432" x1="533.942" y1="1933.73" x2="568.421" y2="3334.45" gradientUnits="userSpaceOnUse">
<stop offset="0.168269" stop-color="#FFD4D1"/>
<stop offset="0.475962" stop-color="#FFF1F1"/>
<stop offset="0.831731" stop-color="#FFD4D1"/>
</linearGradient>
<linearGradient id="paint8_linear_2204_432" x1="861.886" y1="1968.99" x2="1059.75" y2="3465.31" gradientUnits="userSpaceOnUse">
<stop stop-color="#FFD4D1"/>
<stop offset="0.413462" stop-color="#FFEFEE"/>
<stop offset="1" stop-color="#FFD4D1"/>
</linearGradient>
<linearGradient id="paint9_linear_2204_432" x1="693.016" y1="2223.28" x2="691.841" y2="2305.95" gradientUnits="userSpaceOnUse">
<stop stop-color="#EDACB6"/>
<stop offset="1" stop-color="#F8C4CC"/>
</linearGradient>
<linearGradient id="paint10_linear_2204_432" x1="693.016" y1="2223.28" x2="691.841" y2="2305.95" gradientUnits="userSpaceOnUse">
<stop stop-color="#EDACB6"/>
<stop offset="1" stop-color="#F8C4CC"/>
</linearGradient>
<linearGradient id="paint11_linear_2204_432" x1="662.455" y1="1161.08" x2="662.455" y2="2174.02" gradientUnits="userSpaceOnUse">
<stop offset="0.134615" stop-color="#F9FCFF"/>
<stop offset="0.860577" stop-color="#959799"/>
</linearGradient>
<linearGradient id="paint12_linear_2204_432" x1="662.455" y1="1161.08" x2="662.455" y2="2174.02" gradientUnits="userSpaceOnUse">
<stop offset="0.663462" stop-color="#1F2D7B"/>
<stop offset="1" stop-color="#2A398B"/>
</linearGradient>
<linearGradient id="paint13_linear_2204_432" x1="662.455" y1="1161.08" x2="662.455" y2="2174.02" gradientUnits="userSpaceOnUse">
<stop offset="0.0913462" stop-color="#3E2527"/>
<stop offset="0.490385" stop-color="#5B3937"/>
<stop offset="0.865385" stop-color="#3E2527"/>
</linearGradient>
<linearGradient id="paint14_linear_2204_432" x1="142.133" y1="838.234" x2="350.967" y2="1533.69" gradientUnits="userSpaceOnUse">
<stop stop-color="#FFD4D1"/>
<stop offset="0.490385" stop-color="#FFF0EF"/>
<stop offset="1" stop-color="#FFD4D1"/>
</linearGradient>
<linearGradient id="paint15_linear_2204_432" x1="706.729" y1="120.44" x2="709.472" y2="1680.62" gradientUnits="userSpaceOnUse">
<stop offset="0.110577" stop-color="#FFD4D1"/>
<stop offset="0.485577" stop-color="#FFF1F0"/>
<stop offset="0.875" stop-color="#FFD4D1"/>
</linearGradient>
<linearGradient id="paint16_linear_2204_432" x1="828.627" y1="285" x2="828.627" y2="1201.17" gradientUnits="userSpaceOnUse">
<stop stop-color="#FD4994"/>
<stop offset="0.423077" stop-color="#FF93BD"/>
<stop offset="0.807692" stop-color="#FD4994"/>
</linearGradient>
<linearGradient id="paint17_linear_2204_432" x1="662.455" y1="2435.93" x2="703.595" y2="1619.01" gradientUnits="userSpaceOnUse">
<stop offset="0.307692" stop-color="#F8FDFF"/>
<stop offset="1" stop-color="#959899"/>
</linearGradient>
<linearGradient id="paint18_linear_2204_432" x1="687.139" y1="1103.88" x2="686.355" y2="1194.39" gradientUnits="userSpaceOnUse">
<stop offset="0.598789" stop-color="#D60926"/>
<stop offset="1" stop-color="#700514"/>
</linearGradient>
<linearGradient id="paint19_linear_2204_432" x1="556.668" y1="765.215" x2="511.61" y2="281.331" gradientUnits="userSpaceOnUse">
<stop offset="0.134615" stop-color="white"/>
<stop offset="0.677885" stop-color="#999999"/>
</linearGradient>
<linearGradient id="paint20_linear_2204_432" x1="569.596" y1="765.999" x2="551.965" y2="635.134" gradientUnits="userSpaceOnUse">
<stop stop-color="#57CDF5"/>
<stop offset="1" stop-color="#2F8ED3"/>
</linearGradient>
<linearGradient id="paint21_linear_2204_432" x1="792.536" y1="751.893" x2="781.957" y2="629.649" gradientUnits="userSpaceOnUse">
<stop offset="0.759615" stop-color="white"/>
<stop offset="1" stop-color="#999999" stop-opacity="0.47"/>
</linearGradient>
<linearGradient id="paint22_linear_2204_432" x1="799.588" y1="747.191" x2="794.103" y2="606.924" gradientUnits="userSpaceOnUse">
<stop stop-color="#B4F0FD"/>
<stop offset="0.649038" stop-color="#3998DB"/>
</linearGradient>
<linearGradient id="paint23_linear_2204_432" x1="1035.07" y1="1233.96" x2="1035.07" y2="1597.59" gradientUnits="userSpaceOnUse">
<stop offset="0.00480769" stop-color="#33439A"/>
<stop offset="0.480769" stop-color="#1E2C7A"/>
</linearGradient>
<linearGradient id="paint24_linear_2204_432" x1="548.665" y1="1407.96" x2="808.532" y2="1447.49" gradientUnits="userSpaceOnUse">
<stop offset="0.211571" stop-color="#4A2E2E"/>
<stop offset="0.475962" stop-color="#634040"/>
<stop offset="0.875" stop-color="#4A2E2E"/>
</linearGradient>
</defs>
</svg>
