<svg width="1728" height="195" viewBox="0 0 1728 195" fill="none" xmlns="http://www.w3.org/2000/svg">
<path fill-rule="evenodd" clip-rule="evenodd" d="M-369 213L-337.797 208.464C-306.594 203.928 -249.389 194.857 -186.983 165.374C-129.778 138.16 -67.372 90.5344 -10.1667 76.9271C52.2391 63.3198 109.444 81.4629 171.85 63.3198C229.056 45.1768 291.461 -11.5203 348.667 2.08702C411.072 15.6943 468.278 99.6059 530.683 104.142C587.889 110.945 650.295 33.8374 707.5 24.7658C769.906 15.6943 827.111 72.3913 889.517 110.945C946.722 147.231 1009.13 165.374 1066.33 160.839C1128.74 156.303 1185.94 129.088 1248.35 124.553C1305.56 120.017 1367.96 138.16 1425.17 124.553C1487.57 110.945 1544.78 63.3198 1607.18 29.3016C1717.64 -33.0615 1758 147.235 1784 138.164V213H1752.8C1726.79 213 1664.39 213 1607.18 213C1544.78 213 1487.57 213 1425.17 213C1367.96 213 1305.56 213 1248.35 213C1185.94 213 1128.74 213 1066.33 213C1009.13 213 946.722 213 889.517 213C827.111 213 769.906 213 707.5 213C650.295 213 587.889 213 530.683 213C468.278 213 411.072 213 348.667 213C291.461 213 229.056 213 171.85 213C109.444 213 52.2391 213 -10.1667 213C-67.372 213 -129.778 213 -186.983 213C-249.389 213 -306.594 213 -337.797 213H-369Z" fill="white"/>
</svg>
