<svg width="60" height="59" viewBox="0 0 60 59" fill="none" xmlns="http://www.w3.org/2000/svg">
<path d="M30.1635 24.1613V49.0417M30.1635 24.1613C30.1635 20.063 30.1635 18.0147 30.9617 16.4493C31.6638 15.0724 32.7834 13.9525 34.1614 13.251C35.728 12.4534 37.7791 12.4534 41.8807 12.4534H48.2278C49.595 12.4534 50.2791 12.4534 50.8013 12.7192C51.2606 12.9531 51.6331 13.326 51.8672 13.785C52.1333 14.3067 52.1342 14.9903 52.1342 16.3564V37.8218C52.1342 39.1879 52.1333 39.87 51.8672 40.3918C51.6331 40.8508 51.2614 41.2249 50.8021 41.4588C50.2804 41.7244 49.5978 41.7244 48.2333 41.7244H41.3181C39.0253 41.7244 37.8768 41.7244 36.8362 42.0402C35.915 42.3197 35.0597 42.7774 34.3159 43.3883C33.4757 44.0783 32.8391 45.0314 31.5673 46.9376L30.1635 49.0417M30.1635 24.1613C30.1635 20.063 30.1631 18.0147 29.3648 16.4493C28.6627 15.0724 27.5423 13.9525 26.1643 13.251C24.5977 12.4534 22.5464 12.4534 18.4448 12.4534H12.0977C10.7305 12.4534 10.0476 12.4534 9.52539 12.7192C9.06605 12.9531 8.69287 13.326 8.45882 13.785C8.19275 14.3067 8.19275 14.9903 8.19275 16.3564V37.8218C8.19275 39.1879 8.19275 39.87 8.45882 40.3918C8.69287 40.8508 9.06605 41.2249 9.52539 41.4588C10.0471 41.7244 10.7292 41.7244 12.0937 41.7244H19.009C21.3018 41.7244 22.4479 41.7244 23.4885 42.0402C24.4097 42.3197 25.2692 42.7774 26.013 43.3883C26.8497 44.0755 27.4824 45.0237 28.7439 46.9144L30.1635 49.0417" stroke="white" stroke-width="4" stroke-linecap="round" stroke-linejoin="round"/>
</svg>
