<svg width="742" height="506" viewBox="0 0 742 506" fill="none" xmlns="http://www.w3.org/2000/svg">
<path d="M-33.8743 99.4835C-7.76074 72.3448 29.781 66.7104 59.3463 86.9973C61.284 70.6551 66.5741 55.1044 74.704 41.8518C101.351 -2.02767 151.73 -13.1667 187.224 16.9793C198.644 26.5244 207.622 39.897 213.153 55.6021C218.684 71.3072 220.55 88.726 218.543 105.912C223.756 103.87 229.165 102.798 234.591 102.729C247.875 102.485 260.606 108.538 270.193 119.657C277.831 74.0485 311.768 38.966 351.535 38.485C393.366 37.9798 426.703 75.9963 429.15 124.91C441.253 116.896 454.674 112.629 468.246 112.478C480.444 112.214 492.457 115.435 503.358 121.892C514.259 128.349 523.757 137.87 531.119 149.719C533.977 150.112 536.806 150.743 539.587 151.609C542.778 126.915 561.181 104.64 583.986 98.6896C586.064 98.1509 588.163 97.7582 590.271 97.5134C611.116 95.1355 632.893 105.916 649.095 126.495C657.157 117.577 666.952 111.467 677.447 108.811L678.958 108.443C708.888 101.562 736.597 122.72 740.73 155.617C742.847 172.511 738.327 190.18 728.308 204.112C726.416 207.68 723.872 210.653 720.892 212.779C716.8 216.749 712.319 220.048 707.564 222.59C711.355 239.147 703.66 260.46 688.364 274.715C681.855 280.851 674.37 285.154 666.446 287.315C653.707 290.638 642.337 286.997 635.785 277.542C631.745 284.315 626.854 290.245 621.306 295.096L729.908 381.123L70.3073 505.886L55.2642 418.047C44.3189 415.659 33.9565 410.433 24.8456 402.706C23.0387 401.163 21.3211 399.53 19.6592 397.854C20.6071 403.801 20.8333 409.914 20.3304 415.99L-33.8743 99.4835Z" fill="white"/>
</svg>
