<svg width="1752" height="406" viewBox="0 0 1752 406" fill="none" xmlns="http://www.w3.org/2000/svg">
<path d="M189.405 170.411C125.645 80.5084 36.5684 66.4574 0 70.6697V405.999H1752V83.7588C1689.36 46.9314 1628.39 68.414 1605.73 83.7588C1554.23 41.7462 1474.84 47.2879 1436.01 76.5378C1384.99 114.978 1382.88 174.925 1394.29 210.579C1358.66 195.776 1315.68 223.065 1298.65 238.561C1267.52 204.622 1197.54 193.73 1166.44 192.526C1188.57 108.04 1089.26 85.5638 1045.5 76.5375C941.233 -67.884 834.946 27.345 784 83.7597C617.567 -50.7331 476.795 53.07 483.359 124.376C406.847 87.5486 351.15 142.73 332.866 174.924C282.233 123.293 216.128 150.402 189.405 170.411Z" fill="url(#paint0_linear_4081_485)"/>
<path d="M169.247 306.118C136.992 188.319 42.9759 169.429 0 174.709V405.848H1751.75V110.451C1617.66 64.8678 1521.3 231.589 1492.75 320.784C1478.12 230.206 1400.39 227.507 1360.54 245.107C1292.09 111.351 1194.57 174.514 1159.88 230.441C1085.81 37.4337 974.834 124.401 921.716 195.828C904.37 173.536 862.175 128.951 831.701 110.178C713.122 56.5618 643.148 176.288 653.547 243.933C617.541 221.875 569.157 247.648 549.467 263.292C466.484 21.5943 272.25 206.092 240.04 313.157C214.536 292.038 182.218 299.665 169.247 306.118Z" fill="url(#paint1_linear_4081_485)"/>
<path d="M0.233398 335.015C27.5779 325.715 88.9233 322.487 115.549 383.969C131.694 370.777 172.872 361.103 204.614 396.603C221.53 322.981 308.21 208.155 442.277 340.279C459.308 323.084 501.06 309.117 544.936 369.757C541.503 337.923 566.367 274.9 614.781 269.743C660.586 264.863 713.69 294.483 723.066 345.543C747.129 325.014 804.63 298.589 842.131 357.124C847.913 343.964 886.664 331.857 915.727 350.807C898.38 292.088 975.958 244.476 1069.82 257.109C1141.41 266.746 1160.07 313.134 1149.69 345.347C1188.54 304.203 1247.2 311.238 1274.9 344.536C1279.77 306.152 1316.03 252.55 1391.52 257.109C1481.66 262.552 1475.43 327.997 1471.68 357.124C1479.68 341.023 1519.68 317.311 1551.37 357.124C1524.55 323.435 1601.38 250.445 1645.43 275.253C1655.97 206.143 1727.2 207.24 1751.74 226.522V405.551H0.233398V335.015Z" fill="url(#paint2_linear_4081_485)"/>
<defs>
<linearGradient id="paint0_linear_4081_485" x1="1846.23" y1="1281.57" x2="1834.07" y2="-763.807" gradientUnits="userSpaceOnUse">
<stop offset="0.485577" stop-color="#7388C2"/>
<stop offset="1" stop-color="#455172"/>
</linearGradient>
<linearGradient id="paint1_linear_4081_485" x1="1813.41" y1="1427.57" x2="1805.13" y2="-906.436" gradientUnits="userSpaceOnUse">
<stop offset="0.475962" stop-color="#95A2C1"/>
<stop offset="0.9799" stop-color="#5A6172"/>
</linearGradient>
<linearGradient id="paint2_linear_4081_485" x1="1784.34" y1="977.509" x2="1784.34" y2="-575.341" gradientUnits="userSpaceOnUse">
<stop offset="0.379806" stop-color="#C4CAD2"/>
<stop offset="1" stop-color="#888F98"/>
</linearGradient>
</defs>
</svg>
