<svg width="1028" height="665" viewBox="0 0 1028 665" fill="none" xmlns="http://www.w3.org/2000/svg">
<path d="M814.471 560.741L780 545.436" stroke="black" stroke-width="8"/>
<path d="M974.471 633.741L940 618.436" stroke="black" stroke-width="8"/>
<path d="M1025.47 656.741L991 641.436" stroke="black" stroke-width="8"/>
<path d="M924.471 610.741L890 595.436" stroke="black" stroke-width="8"/>
<path d="M869.471 583.741L835 568.436" stroke="black" stroke-width="8"/>
<path d="M106.846 1C107.261 27.4223 101.152 43.5857 128.045 56.2279" stroke="black" stroke-width="8"/>
<path d="M206 133C248.283 158.352 292.877 175.987 233.066 208.148" stroke="black" stroke-width="8"/>
<path d="M20.8873 366C4.09145 385.278 -0.774444 398.5 10.2256 421" stroke="black" stroke-width="8"/>
<path d="M78.774 513C94.4832 524.148 106.166 530.096 128.674 535.299" stroke="black" stroke-width="8"/>
<path d="M134.896 67.1729L165.104 93.3926" stroke="black" stroke-width="8"/>
<path d="M171.39 99L198.347 125.379" stroke="black" stroke-width="8"/>
<path d="M194.022 237.643L223.899 214.624" stroke="black" stroke-width="8"/>
<path d="M183.516 243.292L152.022 264.044" stroke="black" stroke-width="8"/>
<path d="M106.022 289.292L138.961 270.921" stroke="black" stroke-width="8"/>
<path d="M63.7814 317.906L93.2013 294.306" stroke="black" stroke-width="8"/>
<path d="M31 353.586L57.0815 326.341" stroke="black" stroke-width="8"/>
<path d="M41.5594 466.141L18.8872 436" stroke="black" stroke-width="8"/>
<path d="M69.5594 503.141L46.8872 473" stroke="black" stroke-width="8"/>
<path d="M174.857 546.069L138 538.066" stroke="black" stroke-width="8"/>
<path d="M218.078 572.442L187 551.073" stroke="black" stroke-width="8"/>
<path d="M266.636 590.911L230.9 578.852" stroke="black" stroke-width="8"/>
<path d="M324.712 593.798L287.024 592.338" stroke="black" stroke-width="8"/>
<path d="M382.688 594.934L345 593.474" stroke="black" stroke-width="8"/>
<path d="M440.539 589.054L403.101 593.625" stroke="black" stroke-width="8"/>
<path d="M501.438 579.471L464 584.042" stroke="black" stroke-width="8"/>
<path d="M562.338 569.887L524.899 574.458" stroke="black" stroke-width="8"/>
<path d="M620.438 560.471L583 565.042" stroke="black" stroke-width="8"/>
<path d="M678.438 553.471L641 558.042" stroke="black" stroke-width="8"/>
<path d="M750.438 544.471L713 549.042" stroke="black" stroke-width="8"/>
</svg>
