<svg width="98" height="114" viewBox="0 0 98 114" fill="none" xmlns="http://www.w3.org/2000/svg">
<path d="M83.484 99.168L64.324 93.9792C62.9515 93.6054 61.5195 93.6168 60.1517 94.0125C58.784 94.4081 57.5217 95.1761 56.474 96.25L41.844 111.226C40.6382 112.461 39.1521 113.288 37.5538 113.614C35.9555 113.94 34.3087 113.751 32.7999 113.07C31.2911 112.388 29.9805 111.24 29.0163 109.757C28.0521 108.273 27.4728 106.513 27.344 104.675L25.744 82.3752C25.6324 80.7786 25.1797 79.237 24.4252 77.8838C23.6708 76.5306 22.6372 75.4065 21.414 74.6089L4.354 63.4363C2.94813 62.5145 1.79715 61.1648 1.03097 59.5396C0.264792 57.9145 -0.0861003 56.0785 0.0178892 54.239C0.121879 52.3994 0.676611 50.6295 1.61949 49.1289C2.56237 47.6283 3.85586 46.4567 5.354 45.7465L23.544 37.1627C24.8448 36.5453 25.9945 35.5793 26.8948 34.3475C27.7952 33.1156 28.4194 31.6545 28.714 30.0891L32.794 8.20949C33.1332 6.4068 33.9093 4.74761 35.0349 3.41916C36.1604 2.09071 37.5906 1.1459 39.1639 0.691317C40.7373 0.236739 42.3912 0.290498 43.9391 0.846533C45.487 1.40257 46.8672 2.43873 47.924 3.83812L60.734 20.8694C61.6504 22.0868 62.8137 23.0329 64.1238 23.6263C65.4338 24.2197 66.8512 24.4426 68.254 24.2757L87.844 21.9254C89.4588 21.7309 91.0892 22.0534 92.5509 22.8565C94.0126 23.6595 95.2472 24.911 96.115 26.4693C96.9828 28.0276 97.4492 29.8306 97.4614 31.6742C97.4736 33.5179 97.0311 35.3286 96.184 36.9016L85.914 55.988C85.1788 57.3548 84.7474 58.904 84.6568 60.5022C84.5662 62.1004 84.8192 63.6997 85.394 65.1622L93.394 85.5997C94.0349 87.2747 94.2544 89.1186 94.028 90.9267C93.8016 92.7347 93.1382 94.4361 92.1115 95.8419C91.0847 97.2476 89.7349 98.3026 88.2119 98.8898C86.6889 99.477 85.0523 99.5733 83.484 99.168Z" fill="#FF90BF"/>
</svg>
